*
*
G04 PowerPCB (Build Number 501.037) generated Gerber (RS-274-X) file*
G04 PC Version=2.1*
*
%IN "83232-A.pcb"*%
*
%MOIN*%
*
%FSLAX35Y35*%
*
*
*
*
G04 PC Standard Apertures*
*
*
G04 Thermal Relief Aperture macro.*
%AMTER*
1,1,$1,0,0*
1,0,$1-$2,0,0*
21,0,$3,$4,0,0,45*
21,0,$3,$4,0,0,135*
%
*
*
G04 Annular Aperture macro.*
%AMANN*
1,1,$1,0,0*
1,0,$2,0,0*
%
*
*
G04 Odd Aperture macro.*
%AMODD*
1,1,$1,0,0*
1,0,$1-0.005,0,0*
%
*
*
G04 PC Custom Aperture Macros*
*
*
*
*
*
*
G04 PC Aperture Table*
*
%ADD010C,0.01*%
%ADD014C,0.005*%
%ADD015C,0.006*%
%ADD016C,0.015*%
%ADD018C,0.008*%
%ADD022C,0.025*%
%ADD023C,0.0075*%
%ADD024C,0.007*%
%ADD025C,0.009*%
%ADD042C,0.05*%
*
*
*
*
G04 PC Custom Flashes*
G04 Layer Name 83232-A.pcb - flashes*
%LPD*%
*
*
G04 PC Circuitry*
G04 Layer Name 83232-A.pcb - circuitry*
%LPD*%
*
G54D10*
G01X2073575Y1839751D02*
Y1768885D01*
X2073575D02*
G75*
G03Y1753137I0J-7873D01*
G01X2073575D02*
Y1682270D01*
X2073575D02*
X2011567D01*
X2011567D02*
Y1696050D01*
X2011567D02*
G03X2007630I-1967J0D01*
G01X2007630D02*
Y1682270D01*
X2007630D02*
X1807433D01*
X1807433D02*
Y1753137D01*
X1807433D02*
G03Y1768885I0J7874D01*
G01X1807433D02*
Y1839751D01*
X1807433D02*
X2073575D01*
X2497234Y1210875D02*
Y1960875D01*
X1504734*
Y1210875*
X2497234*
X1646750Y1985875D02*
Y1960875D01*
X1825250Y1985875D02*
Y1960875D01*
X1501250Y1398375D02*
X1476250D01*
X1501250Y1585875D02*
X1476250D01*
X1501250Y1773375D02*
X1476250D01*
X2323750Y1910875D02*
X2497250D01*
X2323750Y1920875D02*
X2497250D01*
X2323750Y1940875D02*
X2497250D01*
X2323750Y1950875D02*
X2497250D01*
X2323750Y1930875D02*
X2497250D01*
Y1960875D02*
X2323750D01*
Y1900875*
X2497250*
Y1960875*
X2473750Y1950875D02*
Y1900875D01*
X2428750Y1950875D02*
Y1900875D01*
X2353750Y1950875D02*
Y1900875D01*
X2360250Y1985875D02*
Y1960875D01*
X2003750Y1985875D02*
Y1960875D01*
X2181750Y1985875D02*
Y1960875D01*
X2523750Y1398375D02*
X2498750D01*
X2523750Y1773375D02*
X2498750D01*
X2523750Y1583375D02*
X2498750D01*
X2388734Y1959008D02*
Y1952445D01*
Y1959008D02*
X2390779D01*
X2390779D02*
X2391461Y1958695D01*
X2391461D02*
X2391688Y1958383D01*
X2391688D02*
X2391916Y1957758D01*
Y1957133*
X2391688Y1956508*
X2391688D02*
X2391461Y1956195D01*
X2391461D02*
X2390779Y1955883D01*
X2390779D02*
X2388734D01*
X2390325D02*
X2391916Y1952445D01*
X2393961Y1959008D02*
Y1952445D01*
Y1959008D02*
X2396916D01*
X2393961Y1955883D02*
X2395779D01*
X2393961Y1952445D02*
X2396916D01*
X2398961Y1959008D02*
X2400779Y1952445D01*
X2402597Y1959008D02*
X2400779Y1952445D01*
X2404643Y1959008D02*
Y1952445D01*
X2409870Y1958070D02*
X2409416Y1958695D01*
X2409416D02*
X2408734Y1959008D01*
X2407825*
X2407143Y1958695*
X2407143D02*
X2406688Y1958070D01*
X2406688D02*
Y1957445D01*
X2406688D02*
X2406916Y1956820D01*
X2406916D02*
X2407143Y1956508D01*
X2407597Y1956195*
X2407597D02*
X2408961Y1955570D01*
X2408961D02*
X2409416Y1955258D01*
X2409643Y1954945*
X2409643D02*
X2409870Y1954320D01*
X2409870D02*
Y1953383D01*
X2409870D02*
X2409416Y1952758D01*
X2408734Y1952445*
X2408734D02*
X2407825D01*
X2407825D02*
X2407143Y1952758D01*
X2406688Y1953383*
X2411916Y1959008D02*
Y1952445D01*
X2415325Y1959008D02*
X2414870Y1958695D01*
X2414870D02*
X2414416Y1958070D01*
X2414416D02*
X2414188Y1957445D01*
X2414188D02*
X2413961Y1956508D01*
X2413961D02*
Y1954945D01*
X2413961D02*
X2414188Y1954008D01*
X2414188D02*
X2414416Y1953383D01*
X2414870Y1952758*
X2414870D02*
X2415325Y1952445D01*
X2415325D02*
X2416234D01*
X2416234D02*
X2416688Y1952758D01*
X2416688D02*
X2417143Y1953383D01*
X2417370Y1954008*
X2417370D02*
X2417597Y1954945D01*
X2417597D02*
Y1956508D01*
X2417597D02*
X2417370Y1957445D01*
X2417370D02*
X2417143Y1958070D01*
X2417143D02*
X2416688Y1958695D01*
X2416688D02*
X2416234Y1959008D01*
X2415325*
X2419643D02*
Y1952445D01*
Y1959008D02*
X2422825Y1952445D01*
Y1959008D02*
Y1952445D01*
X2428961Y1959008D02*
Y1952445D01*
Y1959008D02*
X2431006D01*
X2431006D02*
X2431688Y1958695D01*
X2431688D02*
X2431916Y1958383D01*
X2432143Y1957758*
Y1957133*
X2431916Y1956508*
X2431688Y1956195*
X2431688D02*
X2431006Y1955883D01*
X2431006D02*
X2428961D01*
X2430552D02*
X2432143Y1952445D01*
X2434188Y1959008D02*
Y1952445D01*
Y1959008D02*
X2437143D01*
X2434188Y1955883D02*
X2436006D01*
X2434188Y1952445D02*
X2437143D01*
X2442597Y1957445D02*
X2442370Y1958070D01*
X2442370D02*
X2441916Y1958695D01*
X2441916D02*
X2441461Y1959008D01*
X2441461D02*
X2440552D01*
X2440097Y1958695*
X2440097D02*
X2439643Y1958070D01*
X2439643D02*
X2439416Y1957445D01*
X2439416D02*
X2439188Y1956508D01*
X2439188D02*
Y1954945D01*
X2439188D02*
X2439416Y1954008D01*
X2439643Y1953383*
X2440097Y1952758*
X2440097D02*
X2440552Y1952445D01*
X2440552D02*
X2441461D01*
X2441461D02*
X2441916Y1952758D01*
X2442370Y1953383*
X2442370D02*
X2442597Y1954008D01*
X2446006Y1959008D02*
X2445552Y1958695D01*
X2445552D02*
X2445097Y1958070D01*
X2445097D02*
X2444870Y1957445D01*
X2444870D02*
X2444643Y1956508D01*
Y1954945*
X2444643D02*
X2444870Y1954008D01*
X2444870D02*
X2445097Y1953383D01*
X2445097D02*
X2445552Y1952758D01*
X2446006Y1952445*
X2446006D02*
X2446916D01*
X2446916D02*
X2447370Y1952758D01*
X2447370D02*
X2447825Y1953383D01*
X2448052Y1954008*
X2448279Y1954945*
X2448279D02*
Y1956508D01*
X2448279D02*
X2448052Y1957445D01*
X2448052D02*
X2447825Y1958070D01*
X2447825D02*
X2447370Y1958695D01*
X2447370D02*
X2446916Y1959008D01*
X2446006*
X2450325D02*
Y1952445D01*
Y1959008D02*
X2452370D01*
X2452370D02*
X2453052Y1958695D01*
X2453052D02*
X2453279Y1958383D01*
X2453279D02*
X2453506Y1957758D01*
X2453506D02*
Y1957133D01*
X2453506D02*
X2453279Y1956508D01*
X2453279D02*
X2453052Y1956195D01*
X2453052D02*
X2452370Y1955883D01*
X2452370D02*
X2450325D01*
X2451916D02*
X2453506Y1952445D01*
X2455552Y1959008D02*
Y1952445D01*
Y1959008D02*
X2457143D01*
X2457825Y1958695*
X2457825D02*
X2458279Y1958070D01*
X2458279D02*
X2458506Y1957445D01*
X2458506D02*
X2458734Y1956508D01*
Y1954945*
X2458734D02*
X2458506Y1954008D01*
X2458506D02*
X2458279Y1953383D01*
X2458279D02*
X2457825Y1952758D01*
X2457143Y1952445*
X2457143D02*
X2455552D01*
X2476734Y1948195D02*
Y1942945D01*
Y1948195D02*
X2478006D01*
X2478006D02*
X2478552Y1947945D01*
X2478552D02*
X2478916Y1947445D01*
X2478916D02*
X2479097Y1946945D01*
X2479097D02*
X2479279Y1946195D01*
X2479279D02*
Y1944945D01*
X2479279D02*
X2479097Y1944195D01*
X2479097D02*
X2478916Y1943695D01*
X2478916D02*
X2478552Y1943195D01*
X2478552D02*
X2478006Y1942945D01*
X2478006D02*
X2476734D01*
X2482370Y1948195D02*
X2480916Y1942945D01*
X2482370Y1948195D02*
X2483825Y1942945D01*
X2481461Y1944695D02*
X2483279D01*
X2486734Y1948195D02*
Y1942945D01*
X2485461Y1948195D02*
X2488006D01*
X2489643D02*
Y1942945D01*
Y1948195D02*
X2492006D01*
X2489643Y1945695D02*
X2491097D01*
X2489643Y1942945D02*
X2492006D01*
X2493825Y1946445D02*
X2493643Y1946195D01*
X2493643D02*
X2493825Y1945945D01*
X2493825D02*
X2494006Y1946195D01*
X2494006D02*
X2493825Y1946445D01*
Y1943445D02*
X2493643Y1943195D01*
X2493643D02*
X2493825Y1942945D01*
X2493825D02*
X2494006Y1943195D01*
X2494006D02*
X2493825Y1943445D01*
X2434688Y1948195D02*
X2433234Y1942945D01*
X2434688Y1948195D02*
X2436143Y1942945D01*
X2433779Y1944695D02*
X2435597D01*
X2437779Y1948195D02*
Y1942945D01*
Y1948195D02*
X2439416D01*
X2439416D02*
X2439961Y1947945D01*
X2439961D02*
X2440143Y1947695D01*
X2440143D02*
X2440325Y1947195D01*
X2440325D02*
Y1946445D01*
X2440325D02*
X2440143Y1945945D01*
X2440143D02*
X2439961Y1945695D01*
X2439961D02*
X2439416Y1945445D01*
X2439416D02*
X2437779D01*
X2441961Y1948195D02*
Y1942945D01*
Y1948195D02*
X2443597D01*
X2443597D02*
X2444143Y1947945D01*
X2444143D02*
X2444325Y1947695D01*
X2444325D02*
X2444506Y1947195D01*
X2444506D02*
Y1946445D01*
X2444506D02*
X2444325Y1945945D01*
X2444325D02*
X2444143Y1945695D01*
X2444143D02*
X2443597Y1945445D01*
X2443597D02*
X2441961D01*
X2446143Y1948195D02*
Y1942945D01*
Y1948195D02*
X2447779D01*
X2447779D02*
X2448325Y1947945D01*
X2448325D02*
X2448506Y1947695D01*
X2448506D02*
X2448688Y1947195D01*
X2448688D02*
Y1946695D01*
X2448688D02*
X2448506Y1946195D01*
X2448506D02*
X2448325Y1945945D01*
X2448325D02*
X2447779Y1945695D01*
X2447779D02*
X2446143D01*
X2447416D02*
X2448688Y1942945D01*
X2451416Y1948195D02*
X2451052Y1947945D01*
X2451052D02*
X2450688Y1947445D01*
X2450688D02*
X2450506Y1946945D01*
X2450506D02*
X2450325Y1946195D01*
X2450325D02*
Y1944945D01*
X2450325D02*
X2450506Y1944195D01*
X2450506D02*
X2450688Y1943695D01*
X2450688D02*
X2451052Y1943195D01*
X2451052D02*
X2451416Y1942945D01*
X2451416D02*
X2452143D01*
X2452143D02*
X2452506Y1943195D01*
X2452506D02*
X2452870Y1943695D01*
X2452870D02*
X2453052Y1944195D01*
X2453052D02*
X2453234Y1944945D01*
X2453234D02*
Y1946195D01*
X2453234D02*
X2453052Y1946945D01*
X2453052D02*
X2452870Y1947445D01*
X2452870D02*
X2452506Y1947945D01*
X2452506D02*
X2452143Y1948195D01*
X2452143D02*
X2451416D01*
X2454870D02*
X2456325Y1942945D01*
X2457779Y1948195D02*
X2456325Y1942945D01*
X2459416Y1948195D02*
Y1942945D01*
Y1948195D02*
X2461779D01*
X2459416Y1945695D02*
X2460870D01*
X2459416Y1942945D02*
X2461779D01*
X2463416Y1948195D02*
Y1942945D01*
Y1948195D02*
X2464688D01*
X2464688D02*
X2465234Y1947945D01*
X2465234D02*
X2465597Y1947445D01*
X2465597D02*
X2465779Y1946945D01*
X2465779D02*
X2465961Y1946195D01*
X2465961D02*
Y1944945D01*
X2465961D02*
X2465779Y1944195D01*
X2465779D02*
X2465597Y1943695D01*
X2465597D02*
X2465234Y1943195D01*
X2465234D02*
X2464688Y1942945D01*
X2464688D02*
X2463416D01*
X2467779Y1946445D02*
X2467597Y1946195D01*
X2467597D02*
X2467779Y1945945D01*
X2467779D02*
X2467961Y1946195D01*
X2467961D02*
X2467779Y1946445D01*
Y1943445D02*
X2467597Y1943195D01*
X2467597D02*
X2467779Y1942945D01*
X2467779D02*
X2467961Y1943195D01*
X2467961D02*
X2467779Y1943445D01*
X2335734Y1947437D02*
Y1940875D01*
X2338461*
X2342097Y1947437D02*
Y1940875D01*
X2340506Y1947437D02*
X2343688D01*
X2345734D02*
Y1940875D01*
Y1947437D02*
X2347779D01*
X2347779D02*
X2348461Y1947125D01*
X2348461D02*
X2348688Y1946812D01*
X2348688D02*
X2348916Y1946187D01*
X2348916D02*
Y1945562D01*
X2348916D02*
X2348688Y1944937D01*
X2348688D02*
X2348461Y1944625D01*
X2348461D02*
X2347779Y1944312D01*
X2347779D02*
X2345734D01*
X2347325D02*
X2348916Y1940875D01*
X2380734Y1947437D02*
Y1940875D01*
Y1947437D02*
X2383688D01*
X2380734Y1944312D02*
X2382552D01*
X2380734Y1940875D02*
X2383688D01*
X2389143Y1945875D02*
X2388916Y1946500D01*
X2388461Y1947125*
X2388461D02*
X2388006Y1947437D01*
X2388006D02*
X2387097D01*
X2387097D02*
X2386643Y1947125D01*
X2386188Y1946500*
X2386188D02*
X2385961Y1945875D01*
X2385961D02*
X2385734Y1944937D01*
X2385734D02*
Y1943375D01*
X2385961Y1942437*
X2385961D02*
X2386188Y1941812D01*
X2386188D02*
X2386643Y1941187D01*
X2386643D02*
X2387097Y1940875D01*
X2387097D02*
X2388006D01*
X2388006D02*
X2388461Y1941187D01*
X2388461D02*
X2388916Y1941812D01*
X2388916D02*
X2389143Y1942437D01*
X2392552Y1947437D02*
X2392097Y1947125D01*
X2392097D02*
X2391643Y1946500D01*
X2391416Y1945875*
X2391188Y1944937*
X2391188D02*
Y1943375D01*
X2391188D02*
X2391416Y1942437D01*
X2391416D02*
X2391643Y1941812D01*
X2391643D02*
X2392097Y1941187D01*
X2392097D02*
X2392552Y1940875D01*
X2393461*
X2393461D02*
X2393916Y1941187D01*
X2393916D02*
X2394370Y1941812D01*
X2394370D02*
X2394597Y1942437D01*
X2394597D02*
X2394825Y1943375D01*
Y1944937*
X2394825D02*
X2394597Y1945875D01*
X2394597D02*
X2394370Y1946500D01*
X2394370D02*
X2393916Y1947125D01*
X2393461Y1947437*
X2393461D02*
X2392552D01*
X2400961D02*
Y1940875D01*
Y1947437D02*
X2404143Y1940875D01*
Y1947437D02*
Y1940875D01*
X2407552Y1947437D02*
X2407097Y1947125D01*
X2407097D02*
X2406643Y1946500D01*
X2406416Y1945875*
X2406188Y1944937*
X2406188D02*
Y1943375D01*
X2406188D02*
X2406416Y1942437D01*
X2406416D02*
X2406643Y1941812D01*
X2406643D02*
X2407097Y1941187D01*
X2407097D02*
X2407552Y1940875D01*
X2408461*
X2408461D02*
X2408916Y1941187D01*
X2408916D02*
X2409370Y1941812D01*
X2409370D02*
X2409597Y1942437D01*
X2409597D02*
X2409825Y1943375D01*
Y1944937*
X2409825D02*
X2409597Y1945875D01*
X2409597D02*
X2409370Y1946500D01*
X2409370D02*
X2408916Y1947125D01*
X2408461Y1947437*
X2408461D02*
X2407552D01*
X2412097Y1945250D02*
X2411870Y1944937D01*
X2411870D02*
X2412097Y1944625D01*
X2412097D02*
X2412325Y1944937D01*
X2412325D02*
X2412097Y1945250D01*
Y1941500D02*
X2411870Y1941187D01*
X2411870D02*
X2412097Y1940875D01*
X2412097D02*
X2412325Y1941187D01*
X2412325D02*
X2412097Y1941500D01*
X2497234Y1252945D02*
X2247234D01*
X2497234Y1226645D02*
X2247234D01*
X2497234Y1315945D02*
X2247234D01*
X2497234Y1285945D02*
X2247234D01*
X2458734Y1286945D02*
Y1315945D01*
X2274734Y1252945D02*
Y1226645D01*
X2452234Y1225945D02*
Y1210945D01*
X2497234D02*
Y1348445D01*
X2497234D02*
X2112734D01*
X2112734D02*
Y1210945D01*
X2112734D02*
X2497234D01*
X2112734Y1348445D02*
Y1363445D01*
X2112734D02*
X2497234D01*
X2497234D02*
Y1348445D01*
X2202234Y1274945D02*
Y1210945D01*
X2247234Y1348445D02*
Y1210945D01*
Y1257945D02*
X2112734D01*
X2247134Y1241445D02*
X2112734D01*
X2247134Y1226445D02*
X2112734D01*
X2247234Y1315945D02*
X2112734D01*
X2247234Y1274945D02*
X2112734D01*
X2253143Y1343445D02*
X2252916Y1344070D01*
X2252916D02*
X2252461Y1344695D01*
X2252461D02*
X2252006Y1345008D01*
X2252006D02*
X2251097D01*
X2251097D02*
X2250643Y1344695D01*
X2250643D02*
X2250188Y1344070D01*
X2250188D02*
X2249961Y1343445D01*
X2249961D02*
X2249734Y1342508D01*
Y1340945*
X2249734D02*
X2249961Y1340008D01*
X2249961D02*
X2250188Y1339383D01*
X2250188D02*
X2250643Y1338758D01*
X2251097Y1338445*
X2251097D02*
X2252006D01*
X2252006D02*
X2252461Y1338758D01*
X2252461D02*
X2252916Y1339383D01*
X2253143Y1340008*
X2256552Y1345008D02*
X2256097Y1344695D01*
X2256097D02*
X2255643Y1344070D01*
X2255643D02*
X2255416Y1343445D01*
X2255416D02*
X2255188Y1342508D01*
X2255188D02*
Y1340945D01*
X2255188D02*
X2255416Y1340008D01*
X2255643Y1339383*
X2256097Y1338758*
X2256097D02*
X2256552Y1338445D01*
X2256552D02*
X2257461D01*
X2257461D02*
X2257916Y1338758D01*
X2258370Y1339383*
X2258370D02*
X2258597Y1340008D01*
X2258597D02*
X2258825Y1340945D01*
X2258825D02*
Y1342508D01*
X2258597Y1343445*
X2258597D02*
X2258370Y1344070D01*
X2258370D02*
X2257916Y1344695D01*
X2257916D02*
X2257461Y1345008D01*
X2257461D02*
X2256552D01*
X2260870D02*
Y1338445D01*
Y1345008D02*
X2262688Y1338445D01*
X2264506Y1345008D02*
X2262688Y1338445D01*
X2264506Y1345008D02*
Y1338445D01*
X2266552Y1345008D02*
Y1338445D01*
Y1345008D02*
X2268597D01*
X2268597D02*
X2269279Y1344695D01*
X2269279D02*
X2269506Y1344383D01*
X2269506D02*
X2269734Y1343758D01*
Y1342820*
X2269734D02*
X2269506Y1342195D01*
X2269506D02*
X2269279Y1341883D01*
X2269279D02*
X2268597Y1341570D01*
X2268597D02*
X2266552D01*
X2273597Y1345008D02*
X2271779Y1338445D01*
X2273597Y1345008D02*
X2275416Y1338445D01*
X2272461Y1340633D02*
X2274734D01*
X2277461Y1345008D02*
Y1338445D01*
Y1345008D02*
X2280643Y1338445D01*
Y1345008D02*
Y1338445D01*
X2282688Y1345008D02*
X2284506Y1341883D01*
X2284506D02*
Y1338445D01*
X2286325Y1345008D02*
X2284506Y1341883D01*
X2288597Y1342820D02*
X2288370Y1342508D01*
X2288370D02*
X2288597Y1342195D01*
X2288597D02*
X2288825Y1342508D01*
X2288597Y1342820*
Y1339070D02*
X2288370Y1338758D01*
X2288370D02*
X2288597Y1338445D01*
X2288597D02*
X2288825Y1338758D01*
X2288597Y1339070*
X2281252Y1331445D02*
X2280797Y1332695D01*
X2280797D02*
X2279888Y1333945D01*
X2279888D02*
X2278979Y1334570D01*
X2278979D02*
X2277161D01*
X2277161D02*
X2276252Y1333945D01*
X2276252D02*
X2275343Y1332695D01*
X2275343D02*
X2274888Y1331445D01*
X2274888D02*
X2274434Y1329570D01*
X2274434D02*
Y1326445D01*
X2274434D02*
X2274888Y1324570D01*
X2274888D02*
X2275343Y1323320D01*
X2275343D02*
X2276252Y1322070D01*
X2276252D02*
X2277161Y1321445D01*
X2277161D02*
X2278979D01*
X2278979D02*
X2279888Y1322070D01*
X2279888D02*
X2280797Y1323320D01*
X2280797D02*
X2281252Y1324570D01*
X2288979Y1334570D02*
X2285343Y1321445D01*
X2288979Y1334570D02*
X2292616Y1321445D01*
X2286706Y1325820D02*
X2291252D01*
X2296706Y1334570D02*
Y1321445D01*
Y1334570D02*
X2300797D01*
X2300797D02*
X2302161Y1333945D01*
X2302161D02*
X2302616Y1333320D01*
X2302616D02*
X2303070Y1332070D01*
X2303070D02*
Y1330820D01*
X2303070D02*
X2302616Y1329570D01*
X2302616D02*
X2302161Y1328945D01*
X2302161D02*
X2300797Y1328320D01*
X2300797D02*
X2296706D01*
X2299888D02*
X2303070Y1321445D01*
X2307161Y1334570D02*
Y1321445D01*
Y1334570D02*
X2313525Y1321445D01*
Y1334570D02*
Y1321445D01*
X2317616Y1334570D02*
Y1321445D01*
Y1334570D02*
X2323525D01*
X2317616Y1328320D02*
X2321252D01*
X2317616Y1321445D02*
X2323525D01*
X2334434Y1331445D02*
X2333979Y1332695D01*
X2333979D02*
X2333070Y1333945D01*
X2333070D02*
X2332161Y1334570D01*
X2332161D02*
X2330343D01*
X2330343D02*
X2329434Y1333945D01*
X2329434D02*
X2328525Y1332695D01*
X2328525D02*
X2328070Y1331445D01*
X2328070D02*
X2327616Y1329570D01*
X2327616D02*
Y1326445D01*
X2327616D02*
X2328070Y1324570D01*
X2328070D02*
X2328525Y1323320D01*
X2328525D02*
X2329434Y1322070D01*
X2329434D02*
X2330343Y1321445D01*
X2330343D02*
X2332161D01*
X2332161D02*
X2333070Y1322070D01*
X2333070D02*
X2333979Y1323320D01*
X2333979D02*
X2334434Y1324570D01*
X2334434D02*
Y1326445D01*
X2332161D02*
X2334434D01*
X2338525Y1334570D02*
Y1321445D01*
X2342616Y1334570D02*
Y1321445D01*
Y1334570D02*
X2348525D01*
X2342616Y1328320D02*
X2346252D01*
X2342616Y1321445D02*
X2348525D01*
X2360797Y1334570D02*
Y1321445D01*
Y1334570D02*
X2364434Y1321445D01*
X2368070Y1334570D02*
X2364434Y1321445D01*
X2368070Y1334570D02*
Y1321445D01*
X2372161Y1334570D02*
Y1321445D01*
Y1334570D02*
X2378070D01*
X2372161Y1328320D02*
X2375797D01*
X2372161Y1321445D02*
X2378070D01*
X2382161Y1334570D02*
Y1321445D01*
X2382161D02*
X2387616D01*
X2391706Y1334570D02*
Y1321445D01*
X2391706D02*
X2397161D01*
X2403979Y1334570D02*
X2403070Y1333945D01*
X2403070D02*
X2402161Y1332695D01*
X2402161D02*
X2401706Y1331445D01*
X2401706D02*
X2401252Y1329570D01*
X2401252D02*
Y1326445D01*
X2401252D02*
X2401706Y1324570D01*
X2401706D02*
X2402161Y1323320D01*
X2402161D02*
X2403070Y1322070D01*
X2403070D02*
X2403979Y1321445D01*
X2403979D02*
X2405797D01*
X2405797D02*
X2406706Y1322070D01*
X2406706D02*
X2407616Y1323320D01*
X2407616D02*
X2408070Y1324570D01*
X2408070D02*
X2408525Y1326445D01*
X2408525D02*
Y1329570D01*
X2408525D02*
X2408070Y1331445D01*
X2408070D02*
X2407616Y1332695D01*
X2407616D02*
X2406706Y1333945D01*
X2406706D02*
X2405797Y1334570D01*
X2405797D02*
X2403979D01*
X2412616D02*
Y1321445D01*
Y1334570D02*
X2418979Y1321445D01*
Y1334570D02*
Y1321445D01*
X2250734Y1313508D02*
Y1306945D01*
Y1313508D02*
X2252779D01*
X2252779D02*
X2253461Y1313195D01*
X2253461D02*
X2253688Y1312883D01*
X2253688D02*
X2253916Y1312258D01*
Y1311320*
X2253916D02*
X2253688Y1310695D01*
X2253688D02*
X2253461Y1310383D01*
X2253461D02*
X2252779Y1310070D01*
X2252779D02*
X2250734D01*
X2257779Y1313508D02*
X2255961Y1306945D01*
X2257779Y1313508D02*
X2259597Y1306945D01*
X2256643Y1309133D02*
X2258916D01*
X2261643Y1313508D02*
Y1306945D01*
Y1313508D02*
X2263688D01*
X2263688D02*
X2264370Y1313195D01*
X2264370D02*
X2264597Y1312883D01*
X2264597D02*
X2264825Y1312258D01*
Y1311633*
X2264597Y1311008*
X2264597D02*
X2264370Y1310695D01*
X2264370D02*
X2263688Y1310383D01*
X2263688D02*
X2261643D01*
X2263234D02*
X2264825Y1306945D01*
X2268461Y1313508D02*
Y1306945D01*
X2266870Y1313508D02*
X2270052D01*
X2276188D02*
Y1306945D01*
Y1313508D02*
X2279370Y1306945D01*
Y1313508D02*
Y1306945D01*
X2281416Y1313508D02*
Y1308820D01*
X2281416D02*
X2281643Y1307883D01*
X2282097Y1307258*
X2282097D02*
X2282779Y1306945D01*
X2282779D02*
X2283234D01*
X2283234D02*
X2283916Y1307258D01*
X2284370Y1307883*
X2284370D02*
X2284597Y1308820D01*
X2284597D02*
Y1313508D01*
X2286643D02*
Y1306945D01*
Y1313508D02*
X2288461Y1306945D01*
X2290279Y1313508D02*
X2288461Y1306945D01*
X2290279Y1313508D02*
Y1306945D01*
X2292325Y1313508D02*
Y1306945D01*
Y1313508D02*
X2294370D01*
X2294370D02*
X2295052Y1313195D01*
X2295052D02*
X2295279Y1312883D01*
X2295279D02*
X2295506Y1312258D01*
X2295506D02*
Y1311633D01*
X2295506D02*
X2295279Y1311008D01*
X2295279D02*
X2295052Y1310695D01*
X2295052D02*
X2294370Y1310383D01*
X2292325D02*
X2294370D01*
X2294370D02*
X2295052Y1310070D01*
X2295052D02*
X2295279Y1309758D01*
X2295279D02*
X2295506Y1309133D01*
X2295506D02*
Y1308195D01*
X2295506D02*
X2295279Y1307570D01*
X2295279D02*
X2295052Y1307258D01*
X2294370Y1306945*
X2294370D02*
X2292325D01*
X2297552Y1313508D02*
Y1306945D01*
Y1313508D02*
X2300506D01*
X2297552Y1310383D02*
X2299370D01*
X2297552Y1306945D02*
X2300506D01*
X2302552Y1313508D02*
Y1306945D01*
Y1313508D02*
X2304597D01*
X2304597D02*
X2305279Y1313195D01*
X2305279D02*
X2305506Y1312883D01*
X2305506D02*
X2305734Y1312258D01*
Y1311633*
X2305506Y1311008*
X2305506D02*
X2305279Y1310695D01*
X2305279D02*
X2304597Y1310383D01*
X2304597D02*
X2302552D01*
X2304143D02*
X2305734Y1306945D01*
X2308006Y1311320D02*
X2307779Y1311008D01*
X2307779D02*
X2308006Y1310695D01*
X2308006D02*
X2308234Y1311008D01*
X2308006Y1311320*
Y1307570D02*
X2307779Y1307258D01*
X2307779D02*
X2308006Y1306945D01*
X2308006D02*
X2308234Y1307258D01*
X2308006Y1307570*
X2272234Y1267789D02*
Y1257945D01*
Y1267789D02*
X2277006Y1257945D01*
Y1267789D02*
Y1257945D01*
X2282802Y1267789D02*
X2280075Y1257945D01*
X2282802Y1267789D02*
X2285529Y1257945D01*
X2281097Y1261227D02*
X2284506D01*
X2288597Y1267789D02*
Y1257945D01*
Y1267789D02*
X2293370Y1257945D01*
Y1267789D02*
Y1257945D01*
X2296438Y1267789D02*
Y1257945D01*
Y1267789D02*
X2298825D01*
X2298825D02*
X2299847Y1267320D01*
X2299847D02*
X2300529Y1266383D01*
X2300529D02*
X2300870Y1265445D01*
X2300870D02*
X2301211Y1264039D01*
X2301211D02*
Y1261695D01*
X2301211D02*
X2300870Y1260289D01*
X2300870D02*
X2300529Y1259352D01*
X2300529D02*
X2299847Y1258414D01*
X2299847D02*
X2298825Y1257945D01*
X2298825D02*
X2296438D01*
X2313484Y1266383D02*
Y1257945D01*
X2310416Y1262164D02*
X2316552D01*
X2325756Y1267789D02*
Y1257945D01*
Y1267789D02*
X2328143D01*
X2328143D02*
X2329166Y1267320D01*
X2329166D02*
X2329847Y1266383D01*
X2329847D02*
X2330188Y1265445D01*
X2330188D02*
X2330529Y1264039D01*
X2330529D02*
Y1261695D01*
X2330529D02*
X2330188Y1260289D01*
X2330188D02*
X2329847Y1259352D01*
X2329847D02*
X2329166Y1258414D01*
X2329166D02*
X2328143Y1257945D01*
X2328143D02*
X2325756D01*
X2333597Y1267789D02*
Y1257945D01*
Y1267789D02*
X2335984D01*
X2335984D02*
X2337006Y1267320D01*
X2337006D02*
X2337688Y1266383D01*
X2337688D02*
X2338029Y1265445D01*
X2338029D02*
X2338370Y1264039D01*
X2338370D02*
Y1261695D01*
X2338370D02*
X2338029Y1260289D01*
X2338029D02*
X2337688Y1259352D01*
X2337688D02*
X2337006Y1258414D01*
X2337006D02*
X2335984Y1257945D01*
X2335984D02*
X2333597D01*
X2341438Y1267789D02*
Y1257945D01*
Y1267789D02*
X2344506D01*
X2344506D02*
X2345529Y1267320D01*
X2345529D02*
X2345870Y1266852D01*
X2345870D02*
X2346211Y1265914D01*
X2346211D02*
Y1264977D01*
X2346211D02*
X2345870Y1264039D01*
X2345870D02*
X2345529Y1263570D01*
X2345529D02*
X2344506Y1263102D01*
X2344506D02*
X2341438D01*
X2343825D02*
X2346211Y1257945D01*
X2355416Y1265914D02*
X2356097Y1266383D01*
X2356097D02*
X2357120Y1267789D01*
X2357120D02*
Y1257945D01*
X2360188Y1267789D02*
X2362916Y1257945D01*
X2365643Y1267789D02*
X2362916Y1257945D01*
X2370416Y1267789D02*
X2369393Y1267320D01*
X2369393D02*
X2369052Y1266383D01*
Y1265445*
X2369052D02*
X2369393Y1264508D01*
X2370075Y1264039*
X2370075D02*
X2371438Y1263570D01*
X2371438D02*
X2372461Y1263102D01*
X2372461D02*
X2373143Y1262164D01*
X2373143D02*
X2373484Y1261227D01*
Y1259820*
X2373484D02*
X2373143Y1258883D01*
X2372802Y1258414*
X2372802D02*
X2371779Y1257945D01*
X2371779D02*
X2370416D01*
X2370416D02*
X2369393Y1258414D01*
X2369393D02*
X2369052Y1258883D01*
X2368711Y1259820*
X2368711D02*
Y1261227D01*
X2368711D02*
X2369052Y1262164D01*
X2369052D02*
X2369734Y1263102D01*
X2370756Y1263570*
X2370756D02*
X2372120Y1264039D01*
X2372120D02*
X2372802Y1264508D01*
X2373143Y1265445*
X2373143D02*
Y1266383D01*
X2372802Y1267320*
X2372802D02*
X2371779Y1267789D01*
X2371779D02*
X2370416D01*
X2376552D02*
Y1257945D01*
X2381666Y1267789D02*
X2380984Y1267320D01*
X2380984D02*
X2380302Y1266383D01*
X2379961Y1265445*
X2379961D02*
X2379620Y1264039D01*
X2379620D02*
Y1261695D01*
X2379620D02*
X2379961Y1260289D01*
X2379961D02*
X2380302Y1259352D01*
X2380984Y1258414*
X2380984D02*
X2381666Y1257945D01*
X2381666D02*
X2383029D01*
X2383029D02*
X2383711Y1258414D01*
X2383711D02*
X2384393Y1259352D01*
X2384734Y1260289*
X2384734D02*
X2385075Y1261695D01*
X2385075D02*
Y1264039D01*
X2385075D02*
X2384734Y1265445D01*
X2384734D02*
X2384393Y1266383D01*
X2383711Y1267320*
X2383711D02*
X2383029Y1267789D01*
X2383029D02*
X2381666D01*
X2399052Y1266383D02*
X2398370Y1267320D01*
X2398370D02*
X2397347Y1267789D01*
X2397347D02*
X2395984D01*
X2395984D02*
X2394961Y1267320D01*
X2394961D02*
X2394279Y1266383D01*
X2394279D02*
Y1265445D01*
X2394279D02*
X2394620Y1264508D01*
X2394620D02*
X2394961Y1264039D01*
X2394961D02*
X2395643Y1263570D01*
X2395643D02*
X2397688Y1262633D01*
X2397688D02*
X2398370Y1262164D01*
X2398370D02*
X2398711Y1261695D01*
X2398711D02*
X2399052Y1260758D01*
Y1259352*
X2398370Y1258414*
X2398370D02*
X2397347Y1257945D01*
X2397347D02*
X2395984D01*
X2395984D02*
X2394961Y1258414D01*
X2394961D02*
X2394279Y1259352D01*
X2404166Y1267789D02*
X2403484Y1267320D01*
X2403484D02*
X2402802Y1266383D01*
X2402461Y1265445*
X2402461D02*
X2402120Y1264039D01*
X2402120D02*
Y1261695D01*
X2402120D02*
X2402461Y1260289D01*
X2402461D02*
X2402802Y1259352D01*
X2403484Y1258414*
X2403484D02*
X2404166Y1257945D01*
X2404166D02*
X2405529D01*
X2405529D02*
X2406211Y1258414D01*
X2406211D02*
X2406893Y1259352D01*
X2407234Y1260289*
X2407234D02*
X2407575Y1261695D01*
X2407575D02*
Y1264039D01*
X2407575D02*
X2407234Y1265445D01*
X2407234D02*
X2406893Y1266383D01*
X2406211Y1267320*
X2406211D02*
X2405529Y1267789D01*
X2405529D02*
X2404166D01*
X2410643D02*
Y1257945D01*
Y1267789D02*
X2413029D01*
X2413029D02*
X2414052Y1267320D01*
X2414052D02*
X2414734Y1266383D01*
X2415075Y1265445*
X2415075D02*
X2415416Y1264039D01*
X2415416D02*
Y1261695D01*
X2415416D02*
X2415075Y1260289D01*
X2415075D02*
X2414734Y1259352D01*
X2414052Y1258414*
X2414052D02*
X2413029Y1257945D01*
X2413029D02*
X2410643D01*
X2418484Y1267789D02*
Y1257945D01*
X2421552Y1267789D02*
Y1257945D01*
Y1267789D02*
X2424279Y1257945D01*
X2427006Y1267789D02*
X2424279Y1257945D01*
X2427006Y1267789D02*
Y1257945D01*
X2430075Y1267789D02*
Y1257945D01*
Y1267789D02*
X2432802Y1257945D01*
X2435529Y1267789D02*
X2432802Y1257945D01*
X2435529Y1267789D02*
Y1257945D01*
X2252325Y1282508D02*
Y1275945D01*
X2250734Y1282508D02*
X2253916D01*
X2255961D02*
Y1275945D01*
X2259597Y1282508D02*
Y1275945D01*
X2258006Y1282508D02*
X2261188D01*
X2263234D02*
Y1275945D01*
X2263234D02*
X2265961D01*
X2268006Y1282508D02*
Y1275945D01*
Y1282508D02*
X2270961D01*
X2268006Y1279383D02*
X2269825D01*
X2268006Y1275945D02*
X2270961D01*
X2273234Y1280320D02*
X2273006Y1280008D01*
X2273006D02*
X2273234Y1279695D01*
X2273234D02*
X2273461Y1280008D01*
X2273461D02*
X2273234Y1280320D01*
Y1276570D02*
X2273006Y1276258D01*
X2273006D02*
X2273234Y1275945D01*
X2273234D02*
X2273461Y1276258D01*
X2273461D02*
X2273234Y1276570D01*
X2260635Y1297883D02*
X2263760Y1292414D01*
Y1297883D02*
X2260635Y1292414D01*
X2266317Y1297883D02*
X2269442Y1292414D01*
Y1297883D02*
X2266317Y1292414D01*
X2271998Y1297883D02*
X2275123Y1292414D01*
Y1297883D02*
X2271998Y1292414D01*
X2277680Y1297883D02*
X2280805Y1292414D01*
Y1297883D02*
X2277680Y1292414D01*
X2283362Y1297883D02*
X2286487Y1292414D01*
Y1297883D02*
X2283362Y1292414D01*
X2262461Y1239789D02*
X2259734Y1229945D01*
X2262461Y1239789D02*
X2265188Y1229945D01*
X2260756Y1233227D02*
X2264166D01*
X2256916Y1249570D02*
X2256461Y1250195D01*
X2256461D02*
X2255779Y1250508D01*
X2255779D02*
X2254870D01*
X2254870D02*
X2254188Y1250195D01*
X2254188D02*
X2253734Y1249570D01*
X2253734D02*
Y1248945D01*
X2253734D02*
X2253961Y1248320D01*
X2253961D02*
X2254188Y1248008D01*
X2254188D02*
X2254643Y1247695D01*
X2254643D02*
X2256006Y1247070D01*
X2256006D02*
X2256461Y1246758D01*
X2256461D02*
X2256688Y1246445D01*
X2256688D02*
X2256916Y1245820D01*
X2256916D02*
Y1244883D01*
X2256461Y1244258*
X2256461D02*
X2255779Y1243945D01*
X2255779D02*
X2254870D01*
X2254870D02*
X2254188Y1244258D01*
X2254188D02*
X2253734Y1244883D01*
X2258961Y1250508D02*
Y1243945D01*
X2264188Y1250508D02*
X2261006Y1243945D01*
Y1250508D02*
X2264188D01*
X2261006Y1243945D02*
X2264188D01*
X2266234Y1250508D02*
Y1243945D01*
Y1250508D02*
X2269188D01*
X2266234Y1247383D02*
X2268052D01*
X2266234Y1243945D02*
X2269188D01*
X2281143Y1248945D02*
X2280916Y1249570D01*
X2280916D02*
X2280461Y1250195D01*
X2280461D02*
X2280006Y1250508D01*
X2280006D02*
X2279097D01*
X2279097D02*
X2278643Y1250195D01*
X2278643D02*
X2278188Y1249570D01*
X2278188D02*
X2277961Y1248945D01*
X2277961D02*
X2277734Y1248008D01*
Y1246445*
X2277734D02*
X2277961Y1245508D01*
X2277961D02*
X2278188Y1244883D01*
X2278188D02*
X2278643Y1244258D01*
X2279097Y1243945*
X2279097D02*
X2280006D01*
X2280006D02*
X2280461Y1244258D01*
X2280461D02*
X2280916Y1244883D01*
X2281143Y1245508*
X2283188Y1250508D02*
Y1243945D01*
X2285234Y1250508D02*
Y1243945D01*
Y1250508D02*
X2287279D01*
X2287279D02*
X2287961Y1250195D01*
X2287961D02*
X2288188Y1249883D01*
X2288188D02*
X2288416Y1249258D01*
Y1248633*
X2288188Y1248008*
X2288188D02*
X2287961Y1247695D01*
X2287961D02*
X2287279Y1247383D01*
X2287279D02*
X2285234D01*
X2286825D02*
X2288416Y1243945D01*
X2290461Y1250508D02*
Y1243945D01*
Y1250508D02*
X2293416D01*
X2290461Y1247383D02*
X2292279D01*
X2290461Y1243945D02*
X2293416D01*
X2295461Y1250508D02*
X2298643Y1243945D01*
Y1250508D02*
X2295461Y1243945D01*
X2300688Y1250508D02*
X2303870Y1243945D01*
Y1250508D02*
X2300688Y1243945D01*
X2310006Y1250508D02*
Y1243945D01*
Y1250508D02*
X2311597D01*
X2311597D02*
X2312279Y1250195D01*
X2312279D02*
X2312734Y1249570D01*
X2312734D02*
X2312961Y1248945D01*
X2312961D02*
X2313188Y1248008D01*
X2313188D02*
Y1246445D01*
X2313188D02*
X2312961Y1245508D01*
X2312961D02*
X2312734Y1244883D01*
X2312279Y1244258*
X2312279D02*
X2311597Y1243945D01*
X2311597D02*
X2310006D01*
X2316597Y1250508D02*
X2316143Y1250195D01*
X2316143D02*
X2315688Y1249570D01*
X2315688D02*
X2315461Y1248945D01*
X2315461D02*
X2315234Y1248008D01*
Y1246445*
X2315234D02*
X2315461Y1245508D01*
X2315461D02*
X2315688Y1244883D01*
X2315688D02*
X2316143Y1244258D01*
X2316597Y1243945*
X2316597D02*
X2317506D01*
X2317506D02*
X2317961Y1244258D01*
X2317961D02*
X2318416Y1244883D01*
X2318643Y1245508*
X2318870Y1246445*
X2318870D02*
Y1248008D01*
X2318870D02*
X2318643Y1248945D01*
X2318643D02*
X2318416Y1249570D01*
X2318416D02*
X2317961Y1250195D01*
X2317961D02*
X2317506Y1250508D01*
X2317506D02*
X2316597D01*
X2324325Y1248945D02*
X2324097Y1249570D01*
X2324097D02*
X2323643Y1250195D01*
X2323643D02*
X2323188Y1250508D01*
X2323188D02*
X2322279D01*
X2322279D02*
X2321825Y1250195D01*
X2321825D02*
X2321370Y1249570D01*
X2321370D02*
X2321143Y1248945D01*
X2321143D02*
X2320916Y1248008D01*
Y1246445*
X2320916D02*
X2321143Y1245508D01*
X2321370Y1244883*
X2321370D02*
X2321825Y1244258D01*
X2322279Y1243945*
X2322279D02*
X2323188D01*
X2323188D02*
X2323643Y1244258D01*
X2324097Y1244883*
X2324097D02*
X2324325Y1245508D01*
X2326370Y1250508D02*
Y1245820D01*
X2326370D02*
X2326597Y1244883D01*
X2326597D02*
X2327052Y1244258D01*
X2327734Y1243945*
X2327734D02*
X2328188D01*
X2328188D02*
X2328870Y1244258D01*
X2328870D02*
X2329325Y1244883D01*
X2329552Y1245820*
X2329552D02*
Y1250508D01*
X2331597D02*
Y1243945D01*
Y1250508D02*
X2333416Y1243945D01*
X2335234Y1250508D02*
X2333416Y1243945D01*
X2335234Y1250508D02*
Y1243945D01*
X2337279Y1250508D02*
Y1243945D01*
Y1250508D02*
X2340234D01*
X2337279Y1247383D02*
X2339097D01*
X2337279Y1243945D02*
X2340234D01*
X2342279Y1250508D02*
Y1243945D01*
Y1250508D02*
X2345461Y1243945D01*
Y1250508D02*
Y1243945D01*
X2349097Y1250508D02*
Y1243945D01*
X2347506Y1250508D02*
X2350688D01*
X2356825D02*
Y1243945D01*
Y1250508D02*
X2360006Y1243945D01*
Y1250508D02*
Y1243945D01*
X2362052Y1250508D02*
Y1245820D01*
X2362052D02*
X2362279Y1244883D01*
X2362279D02*
X2362734Y1244258D01*
X2363416Y1243945*
X2363416D02*
X2363870D01*
X2363870D02*
X2364552Y1244258D01*
X2365006Y1244883*
X2365006D02*
X2365234Y1245820D01*
X2365234D02*
Y1250508D01*
X2367279D02*
Y1243945D01*
Y1250508D02*
X2369097Y1243945D01*
X2370916Y1250508D02*
X2369097Y1243945D01*
X2370916Y1250508D02*
Y1243945D01*
X2372961Y1250508D02*
Y1243945D01*
Y1250508D02*
X2375006D01*
X2375006D02*
X2375688Y1250195D01*
X2375688D02*
X2375916Y1249883D01*
X2376143Y1249258*
Y1248633*
X2375916Y1248008*
X2375688Y1247695*
X2375688D02*
X2375006Y1247383D01*
X2372961D02*
X2375006D01*
X2375006D02*
X2375688Y1247070D01*
X2375688D02*
X2375916Y1246758D01*
X2376143Y1246133*
Y1245195*
X2376143D02*
X2375916Y1244570D01*
X2375916D02*
X2375688Y1244258D01*
X2375688D02*
X2375006Y1243945D01*
X2375006D02*
X2372961D01*
X2378188Y1250508D02*
Y1243945D01*
Y1250508D02*
X2381143D01*
X2378188Y1247383D02*
X2380006D01*
X2378188Y1243945D02*
X2381143D01*
X2383188Y1250508D02*
Y1243945D01*
Y1250508D02*
X2385234D01*
X2385916Y1250195*
X2385916D02*
X2386143Y1249883D01*
X2386370Y1249258*
X2386370D02*
Y1248633D01*
X2386370D02*
X2386143Y1248008D01*
X2385916Y1247695*
X2385916D02*
X2385234Y1247383D01*
X2383188*
X2384779D02*
X2386370Y1243945D01*
X2388643Y1248320D02*
X2388416Y1248008D01*
X2388643Y1247695*
X2388643D02*
X2388870Y1248008D01*
X2388870D02*
X2388643Y1248320D01*
Y1244570D02*
X2388416Y1244258D01*
X2388643Y1243945*
X2388643D02*
X2388870Y1244258D01*
X2388870D02*
X2388643Y1244570D01*
X2339438Y1240789D02*
X2338416Y1240320D01*
X2338416D02*
X2338075Y1239383D01*
Y1238445*
X2338075D02*
X2338416Y1237508D01*
X2339097Y1237039*
X2339097D02*
X2340461Y1236570D01*
X2340461D02*
X2341484Y1236102D01*
X2342166Y1235164*
X2342166D02*
X2342506Y1234227D01*
X2342506D02*
Y1232820D01*
X2342506D02*
X2342166Y1231883D01*
X2341825Y1231414*
X2341825D02*
X2340802Y1230945D01*
X2340802D02*
X2339438D01*
X2339438D02*
X2338416Y1231414D01*
X2338416D02*
X2338075Y1231883D01*
X2337734Y1232820*
X2337734D02*
Y1234227D01*
X2338075Y1235164*
X2338075D02*
X2338756Y1236102D01*
X2338756D02*
X2339779Y1236570D01*
X2339779D02*
X2341143Y1237039D01*
X2341143D02*
X2341825Y1237508D01*
X2342166Y1238445*
X2342166D02*
Y1239383D01*
X2341825Y1240320*
X2341825D02*
X2340802Y1240789D01*
X2340802D02*
X2339438D01*
X2346256D02*
X2350006D01*
X2350006D02*
X2347961Y1237039D01*
X2347961D02*
X2348984D01*
X2348984D02*
X2349666Y1236570D01*
X2349666D02*
X2350006Y1236102D01*
X2350006D02*
X2350347Y1234695D01*
X2350347D02*
Y1233758D01*
X2350347D02*
X2350006Y1232352D01*
X2350006D02*
X2349325Y1231414D01*
X2349325D02*
X2348302Y1230945D01*
X2348302D02*
X2347279D01*
X2347279D02*
X2346256Y1231414D01*
X2346256D02*
X2345916Y1231883D01*
X2345575Y1232820*
X2353756Y1238445D02*
Y1238914D01*
X2353756D02*
X2354097Y1239852D01*
X2354097D02*
X2354438Y1240320D01*
X2354438D02*
X2355120Y1240789D01*
X2355120D02*
X2356484D01*
X2356484D02*
X2357166Y1240320D01*
X2357166D02*
X2357506Y1239852D01*
X2357506D02*
X2357847Y1238914D01*
X2357847D02*
Y1237977D01*
X2357847D02*
X2357506Y1237039D01*
X2357506D02*
X2356825Y1235633D01*
X2353416Y1230945*
X2353416D02*
X2358188D01*
X2361938Y1240789D02*
X2365688D01*
X2365688D02*
X2363643Y1237039D01*
X2363643D02*
X2364666D01*
X2364666D02*
X2365347Y1236570D01*
X2365347D02*
X2365688Y1236102D01*
X2365688D02*
X2366029Y1234695D01*
X2366029D02*
Y1233758D01*
X2366029D02*
X2365688Y1232352D01*
X2365688D02*
X2365006Y1231414D01*
X2365006D02*
X2363984Y1230945D01*
X2363984D02*
X2362961D01*
X2362961D02*
X2361938Y1231414D01*
X2361938D02*
X2361597Y1231883D01*
X2361597D02*
X2361256Y1232820D01*
X2369438Y1238445D02*
Y1238914D01*
X2369438D02*
X2369779Y1239852D01*
X2369779D02*
X2370120Y1240320D01*
X2370120D02*
X2370802Y1240789D01*
X2370802D02*
X2372166D01*
X2372166D02*
X2372847Y1240320D01*
X2372847D02*
X2373188Y1239852D01*
X2373188D02*
X2373529Y1238914D01*
X2373529D02*
Y1237977D01*
X2373529D02*
X2373188Y1237039D01*
X2373188D02*
X2372506Y1235633D01*
X2372506D02*
X2369097Y1230945D01*
X2369097D02*
X2373870D01*
X2457120Y1220164D02*
X2456779Y1220633D01*
X2456779D02*
X2456268Y1220867D01*
X2456268D02*
X2455586D01*
X2455586D02*
X2455075Y1220633D01*
X2454734Y1220164*
X2454734D02*
Y1219695D01*
X2454734D02*
X2454904Y1219227D01*
X2454904D02*
X2455075Y1218992D01*
X2455075D02*
X2455416Y1218758D01*
X2456438Y1218289*
X2456438D02*
X2456779Y1218055D01*
X2456779D02*
X2456950Y1217820D01*
X2456950D02*
X2457120Y1217352D01*
X2457120D02*
Y1216648D01*
X2457120D02*
X2456779Y1216180D01*
X2456779D02*
X2456268Y1215945D01*
X2456268D02*
X2455586D01*
X2455586D02*
X2455075Y1216180D01*
X2454734Y1216648*
X2461211Y1219695D02*
X2461041Y1220164D01*
X2461041D02*
X2460700Y1220633D01*
X2460359Y1220867*
X2460359D02*
X2459677D01*
X2459677D02*
X2459336Y1220633D01*
X2459336D02*
X2458995Y1220164D01*
X2458995D02*
X2458825Y1219695D01*
X2458825D02*
X2458654Y1218992D01*
X2458654D02*
Y1217820D01*
X2458654D02*
X2458825Y1217117D01*
X2458825D02*
X2458995Y1216648D01*
X2458995D02*
X2459336Y1216180D01*
X2459336D02*
X2459677Y1215945D01*
X2459677D02*
X2460359D01*
X2460359D02*
X2460700Y1216180D01*
X2461041Y1216648*
X2461041D02*
X2461211Y1217117D01*
X2464109Y1220867D02*
X2462745Y1215945D01*
X2464109Y1220867D02*
X2465472Y1215945D01*
X2463256Y1217586D02*
X2464961D01*
X2467006Y1220867D02*
Y1215945D01*
X2467006D02*
X2469052D01*
X2470586Y1220867D02*
Y1215945D01*
Y1220867D02*
X2472802D01*
X2470586Y1218523D02*
X2471950D01*
X2470586Y1215945D02*
X2472802D01*
X2474506Y1219227D02*
X2474336Y1218992D01*
X2474336D02*
X2474506Y1218758D01*
X2474506D02*
X2474677Y1218992D01*
X2474677D02*
X2474506Y1219227D01*
Y1216414D02*
X2474336Y1216180D01*
X2474336D02*
X2474506Y1215945D01*
X2474506D02*
X2474677Y1216180D01*
X2474506Y1216414*
X2482347Y1219930D02*
X2482688Y1220164D01*
X2482688D02*
X2483200Y1220867D01*
X2483200D02*
Y1215945D01*
X2487802Y1221805D02*
X2484734Y1214305D01*
X2489336Y1219930D02*
X2489677Y1220164D01*
X2489677D02*
X2490188Y1220867D01*
X2490188D02*
Y1215945D01*
X2252291Y1219695D02*
X2252120Y1220164D01*
X2252120D02*
X2251779Y1220633D01*
X2251779D02*
X2251438Y1220867D01*
X2251438D02*
X2250756D01*
X2250756D02*
X2250416Y1220633D01*
X2250075Y1220164*
X2250075D02*
X2249904Y1219695D01*
X2249904D02*
X2249734Y1218992D01*
X2249734D02*
Y1217820D01*
X2249734D02*
X2249904Y1217117D01*
X2249904D02*
X2250075Y1216648D01*
X2250075D02*
X2250416Y1216180D01*
X2250756Y1215945*
X2250756D02*
X2251438D01*
X2251438D02*
X2251779Y1216180D01*
X2251779D02*
X2252120Y1216648D01*
X2252120D02*
X2252291Y1217117D01*
X2253825Y1220867D02*
Y1215945D01*
X2255359Y1220867D02*
Y1215945D01*
Y1220867D02*
X2256893D01*
X2256893D02*
X2257404Y1220633D01*
X2257404D02*
X2257575Y1220398D01*
X2257575D02*
X2257745Y1219930D01*
X2257745D02*
Y1219461D01*
X2257745D02*
X2257575Y1218992D01*
X2257575D02*
X2257404Y1218758D01*
X2257404D02*
X2256893Y1218523D01*
X2256893D02*
X2255359D01*
X2256552D02*
X2257745Y1215945D01*
X2259279Y1220867D02*
Y1215945D01*
Y1220867D02*
X2261495D01*
X2259279Y1218523D02*
X2260643D01*
X2259279Y1215945D02*
X2261495D01*
X2263029Y1220867D02*
X2265416Y1215945D01*
Y1220867D02*
X2263029Y1215945D01*
X2266950Y1220867D02*
X2269336Y1215945D01*
Y1220867D02*
X2266950Y1215945D01*
X2273938Y1220867D02*
Y1215945D01*
Y1220867D02*
X2276154D01*
X2273938Y1218523D02*
X2275302D01*
X2277688Y1220867D02*
Y1215945D01*
X2279222Y1220867D02*
Y1215945D01*
X2279222D02*
X2281268D01*
X2282802Y1220867D02*
Y1215945D01*
Y1220867D02*
X2285018D01*
X2282802Y1218523D02*
X2284166D01*
X2282802Y1215945D02*
X2285018D01*
X2289620Y1220867D02*
Y1215945D01*
Y1220867D02*
X2292006Y1215945D01*
Y1220867D02*
Y1215945D01*
X2294904Y1220867D02*
X2293541Y1215945D01*
X2294904Y1220867D02*
X2296268Y1215945D01*
X2294052Y1217586D02*
X2295756D01*
X2297802Y1220867D02*
Y1215945D01*
Y1220867D02*
X2299166Y1215945D01*
X2300529Y1220867D02*
X2299166Y1215945D01*
X2300529Y1220867D02*
Y1215945D01*
X2302063Y1220867D02*
Y1215945D01*
Y1220867D02*
X2304279D01*
X2302063Y1218523D02*
X2303427D01*
X2302063Y1215945D02*
X2304279D01*
X2305984Y1219227D02*
X2305813Y1218992D01*
X2305813D02*
X2305984Y1218758D01*
X2306154Y1218992*
X2306154D02*
X2305984Y1219227D01*
Y1216414D02*
X2305813Y1216180D01*
X2305813D02*
X2305984Y1215945D01*
X2305984D02*
X2306154Y1216180D01*
X2306154D02*
X2305984Y1216414D01*
X2318086Y1221367D02*
X2317575Y1221133D01*
X2317404Y1220664*
X2317404D02*
Y1220195D01*
X2317404D02*
X2317575Y1219727D01*
X2317916Y1219492*
X2317916D02*
X2318597Y1219258D01*
X2318597D02*
X2319109Y1219023D01*
X2319109D02*
X2319450Y1218555D01*
X2319620Y1218086*
X2319620D02*
Y1217383D01*
X2319620D02*
X2319450Y1216914D01*
X2319450D02*
X2319279Y1216680D01*
X2319279D02*
X2318768Y1216445D01*
X2318768D02*
X2318086D01*
X2318086D02*
X2317575Y1216680D01*
X2317404Y1216914*
X2317404D02*
X2317234Y1217383D01*
Y1218086*
X2317404Y1218555*
X2317404D02*
X2317745Y1219023D01*
X2317745D02*
X2318256Y1219258D01*
X2318256D02*
X2318938Y1219492D01*
X2318938D02*
X2319279Y1219727D01*
X2319279D02*
X2319450Y1220195D01*
X2319450D02*
Y1220664D01*
X2319450D02*
X2319279Y1221133D01*
X2319279D02*
X2318768Y1221367D01*
X2318768D02*
X2318086D01*
X2321495D02*
X2323370D01*
X2323370D02*
X2322347Y1219492D01*
X2322347D02*
X2322859D01*
X2322859D02*
X2323200Y1219258D01*
X2323370Y1219023*
X2323370D02*
X2323541Y1218320D01*
X2323541D02*
Y1217852D01*
X2323370Y1217148*
X2323370D02*
X2323029Y1216680D01*
X2323029D02*
X2322518Y1216445D01*
X2322518D02*
X2322006D01*
X2322006D02*
X2321495Y1216680D01*
X2321495D02*
X2321325Y1216914D01*
X2321325D02*
X2321154Y1217383D01*
X2325245Y1220195D02*
Y1220430D01*
X2325245D02*
X2325416Y1220898D01*
X2325416D02*
X2325586Y1221133D01*
X2325586D02*
X2325927Y1221367D01*
X2325927D02*
X2326609D01*
X2326609D02*
X2326950Y1221133D01*
X2327120Y1220898*
X2327120D02*
X2327291Y1220430D01*
Y1219961*
X2327120Y1219492*
X2327120D02*
X2326779Y1218789D01*
X2326779D02*
X2325075Y1216445D01*
X2325075D02*
X2327461D01*
X2329336Y1221367D02*
X2331211D01*
X2331211D02*
X2330188Y1219492D01*
X2330188D02*
X2330700D01*
X2330700D02*
X2331041Y1219258D01*
X2331211Y1219023*
X2331211D02*
X2331381Y1218320D01*
X2331381D02*
Y1217852D01*
X2331381D02*
X2331211Y1217148D01*
X2331211D02*
X2330870Y1216680D01*
X2330870D02*
X2330359Y1216445D01*
X2330359D02*
X2329847D01*
X2329847D02*
X2329336Y1216680D01*
X2329336D02*
X2329166Y1216914D01*
X2329166D02*
X2328995Y1217383D01*
X2333086Y1220195D02*
Y1220430D01*
X2333086D02*
X2333256Y1220898D01*
X2333256D02*
X2333427Y1221133D01*
X2333768Y1221367*
X2333768D02*
X2334450D01*
X2334450D02*
X2334791Y1221133D01*
X2334961Y1220898*
X2334961D02*
X2335131Y1220430D01*
X2335131D02*
Y1219961D01*
X2335131D02*
X2334961Y1219492D01*
X2334961D02*
X2334620Y1218789D01*
X2334620D02*
X2332916Y1216445D01*
X2332916D02*
X2335302D01*
X2336836Y1218555D02*
X2339904D01*
X2342802Y1221367D02*
X2341438Y1216445D01*
X2342802Y1221367D02*
X2344166Y1216445D01*
X2341950Y1218086D02*
X2343654D01*
X2345870Y1216914D02*
X2345700Y1216680D01*
X2345870Y1216445*
X2345870D02*
X2346041Y1216680D01*
X2345870Y1216914*
X2347575Y1219727D02*
Y1214805D01*
Y1219023D02*
X2347916Y1219492D01*
X2347916D02*
X2348256Y1219727D01*
X2348256D02*
X2348768D01*
X2349109Y1219492*
X2349109D02*
X2349450Y1219023D01*
X2349450D02*
X2349620Y1218320D01*
X2349620D02*
Y1217852D01*
X2349620D02*
X2349450Y1217148D01*
X2349450D02*
X2349109Y1216680D01*
X2348768Y1216445*
X2348768D02*
X2348256D01*
X2348256D02*
X2347916Y1216680D01*
X2347575Y1217148*
X2353200Y1219023D02*
X2352859Y1219492D01*
X2352859D02*
X2352518Y1219727D01*
X2352006*
X2352006D02*
X2351666Y1219492D01*
X2351666D02*
X2351325Y1219023D01*
X2351325D02*
X2351154Y1218320D01*
X2351154D02*
Y1217852D01*
X2351154D02*
X2351325Y1217148D01*
X2351325D02*
X2351666Y1216680D01*
X2352006Y1216445*
X2352006D02*
X2352518D01*
X2352518D02*
X2352859Y1216680D01*
X2353200Y1217148*
X2354734Y1221367D02*
Y1216445D01*
Y1219023D02*
X2355075Y1219492D01*
X2355075D02*
X2355416Y1219727D01*
X2355927*
X2356268Y1219492*
X2356268D02*
X2356609Y1219023D01*
X2356609D02*
X2356779Y1218320D01*
X2356779D02*
Y1217852D01*
X2356779D02*
X2356609Y1217148D01*
X2356609D02*
X2356268Y1216680D01*
X2355927Y1216445*
X2355927D02*
X2355416D01*
X2355416D02*
X2355075Y1216680D01*
X2354734Y1217148*
X2205234Y1254367D02*
Y1249445D01*
Y1254367D02*
X2206427D01*
X2206427D02*
X2206938Y1254133D01*
X2206938D02*
X2207279Y1253664D01*
X2207279D02*
X2207450Y1253195D01*
X2207450D02*
X2207620Y1252492D01*
X2207620D02*
Y1251320D01*
X2207620D02*
X2207450Y1250617D01*
X2207450D02*
X2207279Y1250148D01*
X2207279D02*
X2206938Y1249680D01*
X2206938D02*
X2206427Y1249445D01*
X2206427D02*
X2205234D01*
X2210518Y1254367D02*
X2209154Y1249445D01*
X2210518Y1254367D02*
X2211881Y1249445D01*
X2209666Y1251086D02*
X2211370D01*
X2214609Y1254367D02*
Y1249445D01*
X2213416Y1254367D02*
X2215802D01*
X2217336D02*
Y1249445D01*
Y1254367D02*
X2219552D01*
X2217336Y1252023D02*
X2218700D01*
X2217336Y1249445D02*
X2219552D01*
X2221256Y1252727D02*
X2221086Y1252492D01*
X2221086D02*
X2221256Y1252258D01*
X2221256D02*
X2221427Y1252492D01*
X2221427D02*
X2221256Y1252727D01*
Y1249914D02*
X2221086Y1249680D01*
X2221086D02*
X2221256Y1249445D01*
X2221256D02*
X2221427Y1249680D01*
X2221256Y1249914*
X2205234Y1238367D02*
Y1233445D01*
Y1238367D02*
X2206427D01*
X2206427D02*
X2206938Y1238133D01*
X2206938D02*
X2207279Y1237664D01*
X2207279D02*
X2207450Y1237195D01*
X2207450D02*
X2207620Y1236492D01*
X2207620D02*
Y1235320D01*
X2207620D02*
X2207450Y1234617D01*
X2207450D02*
X2207279Y1234148D01*
X2207279D02*
X2206938Y1233680D01*
X2206938D02*
X2206427Y1233445D01*
X2206427D02*
X2205234D01*
X2210518Y1238367D02*
X2209154Y1233445D01*
X2210518Y1238367D02*
X2211881Y1233445D01*
X2209666Y1235086D02*
X2211370D01*
X2214609Y1238367D02*
Y1233445D01*
X2213416Y1238367D02*
X2215802D01*
X2217336D02*
Y1233445D01*
Y1238367D02*
X2219552D01*
X2217336Y1236023D02*
X2218700D01*
X2217336Y1233445D02*
X2219552D01*
X2221256Y1236727D02*
X2221086Y1236492D01*
X2221086D02*
X2221256Y1236258D01*
X2221256D02*
X2221427Y1236492D01*
X2221427D02*
X2221256Y1236727D01*
Y1233914D02*
X2221086Y1233680D01*
X2221086D02*
X2221256Y1233445D01*
X2221256D02*
X2221427Y1233680D01*
X2221256Y1233914*
X2115734Y1271867D02*
Y1266945D01*
Y1271867D02*
X2116927D01*
X2116927D02*
X2117438Y1271633D01*
X2117438D02*
X2117779Y1271164D01*
X2117779D02*
X2117950Y1270695D01*
X2117950D02*
X2118120Y1269992D01*
X2118120D02*
Y1268820D01*
X2118120D02*
X2117950Y1268117D01*
X2117950D02*
X2117779Y1267648D01*
X2117779D02*
X2117438Y1267180D01*
X2117438D02*
X2116927Y1266945D01*
X2116927D02*
X2115734D01*
X2119654Y1271867D02*
Y1266945D01*
Y1271867D02*
X2121870D01*
X2119654Y1269523D02*
X2121018D01*
X2119654Y1266945D02*
X2121870D01*
X2125791Y1271164D02*
X2125450Y1271633D01*
X2124938Y1271867*
X2124938D02*
X2124256D01*
X2124256D02*
X2123745Y1271633D01*
X2123745D02*
X2123404Y1271164D01*
X2123404D02*
Y1270695D01*
X2123404D02*
X2123575Y1270227D01*
X2123745Y1269992*
X2123745D02*
X2124086Y1269758D01*
X2124086D02*
X2125109Y1269289D01*
X2125109D02*
X2125450Y1269055D01*
X2125620Y1268820*
X2125620D02*
X2125791Y1268352D01*
Y1267648*
X2125791D02*
X2125450Y1267180D01*
X2124938Y1266945*
X2124938D02*
X2124256D01*
X2124256D02*
X2123745Y1267180D01*
X2123745D02*
X2123404Y1267648D01*
X2127325Y1271867D02*
Y1266945D01*
X2131416Y1270695D02*
X2131245Y1271164D01*
X2131245D02*
X2130904Y1271633D01*
X2130904D02*
X2130563Y1271867D01*
X2130563D02*
X2129881D01*
X2129881D02*
X2129541Y1271633D01*
X2129200Y1271164*
X2129200D02*
X2129029Y1270695D01*
X2129029D02*
X2128859Y1269992D01*
X2128859D02*
Y1268820D01*
X2128859D02*
X2129029Y1268117D01*
X2129029D02*
X2129200Y1267648D01*
X2129200D02*
X2129541Y1267180D01*
X2129881Y1266945*
X2129881D02*
X2130563D01*
X2130563D02*
X2130904Y1267180D01*
X2130904D02*
X2131245Y1267648D01*
X2131245D02*
X2131416Y1268117D01*
X2131416D02*
Y1268820D01*
X2130563D02*
X2131416D01*
X2132950Y1271867D02*
Y1266945D01*
Y1271867D02*
X2135336Y1266945D01*
Y1271867D02*
Y1266945D01*
X2137041Y1270227D02*
X2136870Y1269992D01*
X2136870D02*
X2137041Y1269758D01*
X2137211Y1269992*
X2137211D02*
X2137041Y1270227D01*
Y1267414D02*
X2136870Y1267180D01*
X2136870D02*
X2137041Y1266945D01*
X2137041D02*
X2137211Y1267180D01*
X2137211D02*
X2137041Y1267414D01*
X2118291Y1253695D02*
X2118120Y1254164D01*
X2118120D02*
X2117779Y1254633D01*
X2117779D02*
X2117438Y1254867D01*
X2117438D02*
X2116756D01*
X2116756D02*
X2116416Y1254633D01*
X2116075Y1254164*
X2116075D02*
X2115904Y1253695D01*
X2115904D02*
X2115734Y1252992D01*
X2115734D02*
Y1251820D01*
X2115734D02*
X2115904Y1251117D01*
X2115904D02*
X2116075Y1250648D01*
X2116075D02*
X2116416Y1250180D01*
X2116756Y1249945*
X2116756D02*
X2117438D01*
X2117438D02*
X2117779Y1250180D01*
X2117779D02*
X2118120Y1250648D01*
X2118120D02*
X2118291Y1251117D01*
X2119825Y1254867D02*
Y1249945D01*
X2122211Y1254867D02*
Y1249945D01*
X2119825Y1252523D02*
X2122211D01*
X2123745Y1254867D02*
Y1249945D01*
Y1254867D02*
X2125961D01*
X2123745Y1252523D02*
X2125109D01*
X2123745Y1249945D02*
X2125961D01*
X2130052Y1253695D02*
X2129881Y1254164D01*
X2129881D02*
X2129541Y1254633D01*
X2129200Y1254867*
X2129200D02*
X2128518D01*
X2128518D02*
X2128177Y1254633D01*
X2127836Y1254164*
X2127836D02*
X2127666Y1253695D01*
X2127666D02*
X2127495Y1252992D01*
X2127495D02*
Y1251820D01*
X2127495D02*
X2127666Y1251117D01*
X2127666D02*
X2127836Y1250648D01*
X2127836D02*
X2128177Y1250180D01*
X2128518Y1249945*
X2128518D02*
X2129200D01*
X2129200D02*
X2129541Y1250180D01*
X2129881Y1250648*
X2129881D02*
X2130052Y1251117D01*
X2131586Y1254867D02*
Y1249945D01*
X2133972Y1254867D02*
X2131586Y1251586D01*
X2132438Y1252758D02*
X2133972Y1249945D01*
X2135506Y1254867D02*
Y1249945D01*
Y1254867D02*
X2137722D01*
X2135506Y1252523D02*
X2136870D01*
X2135506Y1249945D02*
X2137722D01*
X2139256Y1254867D02*
Y1249945D01*
Y1254867D02*
X2140450D01*
X2140450D02*
X2140961Y1254633D01*
X2140961D02*
X2141302Y1254164D01*
X2141302D02*
X2141472Y1253695D01*
X2141472D02*
X2141643Y1252992D01*
X2141643D02*
Y1251820D01*
X2141643D02*
X2141472Y1251117D01*
X2141472D02*
X2141302Y1250648D01*
X2141302D02*
X2140961Y1250180D01*
X2140961D02*
X2140450Y1249945D01*
X2140450D02*
X2139256D01*
X2146245Y1254867D02*
Y1249945D01*
Y1254867D02*
X2147779D01*
X2147779D02*
X2148291Y1254633D01*
X2148461Y1254398*
X2148461D02*
X2148631Y1253930D01*
X2148631D02*
Y1253461D01*
X2148631D02*
X2148461Y1252992D01*
X2148461D02*
X2148291Y1252758D01*
X2147779Y1252523*
X2146245D02*
X2147779D01*
X2147779D02*
X2148291Y1252289D01*
X2148291D02*
X2148461Y1252055D01*
X2148461D02*
X2148631Y1251586D01*
X2148631D02*
Y1250883D01*
X2148631D02*
X2148461Y1250414D01*
X2148461D02*
X2148291Y1250180D01*
X2147779Y1249945*
X2147779D02*
X2146245D01*
X2150166Y1254867D02*
X2151529Y1252523D01*
X2151529D02*
Y1249945D01*
X2152893Y1254867D02*
X2151529Y1252523D01*
X2154597Y1253227D02*
X2154427Y1252992D01*
X2154427D02*
X2154597Y1252758D01*
X2154597D02*
X2154768Y1252992D01*
X2154768D02*
X2154597Y1253227D01*
Y1250414D02*
X2154427Y1250180D01*
X2154597Y1249945*
X2154597D02*
X2154768Y1250180D01*
X2154597Y1250414*
X2115734Y1236867D02*
Y1231945D01*
Y1236867D02*
X2117950D01*
X2115734Y1234523D02*
X2117097D01*
X2115734Y1231945D02*
X2117950D01*
X2119484Y1236867D02*
Y1231945D01*
Y1236867D02*
X2121870Y1231945D01*
Y1236867D02*
Y1231945D01*
X2125961Y1235695D02*
X2125791Y1236164D01*
X2125791D02*
X2125450Y1236633D01*
X2125109Y1236867*
X2125109D02*
X2124427D01*
X2124427D02*
X2124086Y1236633D01*
X2124086D02*
X2123745Y1236164D01*
X2123745D02*
X2123575Y1235695D01*
X2123575D02*
X2123404Y1234992D01*
X2123404D02*
Y1233820D01*
X2123404D02*
X2123575Y1233117D01*
X2123575D02*
X2123745Y1232648D01*
X2123745D02*
X2124086Y1232180D01*
X2124086D02*
X2124427Y1231945D01*
X2124427D02*
X2125109D01*
X2125109D02*
X2125450Y1232180D01*
X2125791Y1232648*
X2125791D02*
X2125961Y1233117D01*
X2125961D02*
Y1233820D01*
X2125109D02*
X2125961D01*
X2127495Y1236867D02*
Y1231945D01*
X2129029Y1236867D02*
Y1231945D01*
Y1236867D02*
X2131416Y1231945D01*
Y1236867D02*
Y1231945D01*
X2132950Y1236867D02*
Y1231945D01*
Y1236867D02*
X2135166D01*
X2132950Y1234523D02*
X2134313D01*
X2132950Y1231945D02*
X2135166D01*
X2136700Y1236867D02*
Y1231945D01*
Y1236867D02*
X2138916D01*
X2136700Y1234523D02*
X2138063D01*
X2136700Y1231945D02*
X2138916D01*
X2140450Y1236867D02*
Y1231945D01*
Y1236867D02*
X2141984D01*
X2141984D02*
X2142495Y1236633D01*
X2142495D02*
X2142666Y1236398D01*
X2142666D02*
X2142836Y1235930D01*
X2142836D02*
Y1235461D01*
X2142836D02*
X2142666Y1234992D01*
X2142666D02*
X2142495Y1234758D01*
X2142495D02*
X2141984Y1234523D01*
X2141984D02*
X2140450D01*
X2141643D02*
X2142836Y1231945D01*
X2144370Y1236867D02*
Y1231945D01*
X2145904Y1236867D02*
Y1231945D01*
Y1236867D02*
X2148291Y1231945D01*
Y1236867D02*
Y1231945D01*
X2152381Y1235695D02*
X2152211Y1236164D01*
X2152211D02*
X2151870Y1236633D01*
X2151870D02*
X2151529Y1236867D01*
X2151529D02*
X2150847D01*
X2150847D02*
X2150506Y1236633D01*
X2150506D02*
X2150166Y1236164D01*
X2150166D02*
X2149995Y1235695D01*
X2149995D02*
X2149825Y1234992D01*
X2149825D02*
Y1233820D01*
X2149825D02*
X2149995Y1233117D01*
X2149995D02*
X2150166Y1232648D01*
X2150166D02*
X2150506Y1232180D01*
X2150506D02*
X2150847Y1231945D01*
X2150847D02*
X2151529D01*
X2151529D02*
X2151870Y1232180D01*
X2151870D02*
X2152211Y1232648D01*
X2152211D02*
X2152381Y1233117D01*
X2152381D02*
Y1233820D01*
X2151529D02*
X2152381D01*
X2154086Y1235227D02*
X2153916Y1234992D01*
X2153916D02*
X2154086Y1234758D01*
X2154086D02*
X2154256Y1234992D01*
X2154256D02*
X2154086Y1235227D01*
Y1232414D02*
X2153916Y1232180D01*
X2154086Y1231945*
X2154086D02*
X2154256Y1232180D01*
X2154256D02*
X2154086Y1232414D01*
X2115734Y1345508D02*
Y1338945D01*
X2115734D02*
X2118461D01*
X2122325Y1345508D02*
X2120506Y1338945D01*
X2122325Y1345508D02*
X2124143Y1338945D01*
X2121188Y1341133D02*
X2123461D01*
X2126188Y1345508D02*
X2128006Y1342383D01*
X2128006D02*
Y1338945D01*
X2129825Y1345508D02*
X2128006Y1342383D01*
X2131870Y1345508D02*
Y1338945D01*
Y1345508D02*
X2134825D01*
X2131870Y1342383D02*
X2133688D01*
X2131870Y1338945D02*
X2134825D01*
X2136870Y1345508D02*
Y1338945D01*
Y1345508D02*
X2138916D01*
X2139597Y1345195*
X2139597D02*
X2139825Y1344883D01*
X2140052Y1344258*
Y1343633*
X2139825Y1343008*
X2139597Y1342695*
X2139597D02*
X2138916Y1342383D01*
X2136870*
X2138461D02*
X2140052Y1338945D01*
X2142325Y1343320D02*
X2142097Y1343008D01*
X2142097D02*
X2142325Y1342695D01*
X2142325D02*
X2142552Y1343008D01*
X2142325Y1343320*
Y1339570D02*
X2142097Y1339258D01*
X2142097D02*
X2142325Y1338945D01*
X2142325D02*
X2142552Y1339258D01*
X2142325Y1339570*
X2115234Y1313867D02*
Y1308945D01*
Y1313867D02*
X2116427D01*
X2116427D02*
X2116938Y1313633D01*
X2116938D02*
X2117279Y1313164D01*
X2117279D02*
X2117450Y1312695D01*
X2117450D02*
X2117620Y1311992D01*
X2117620D02*
Y1310820D01*
X2117620D02*
X2117450Y1310117D01*
X2117450D02*
X2117279Y1309648D01*
X2117279D02*
X2116938Y1309180D01*
X2116938D02*
X2116427Y1308945D01*
X2116427D02*
X2115234D01*
X2119154Y1313867D02*
Y1308945D01*
Y1313867D02*
X2121370D01*
X2119154Y1311523D02*
X2120518D01*
X2119154Y1308945D02*
X2121370D01*
X2125291Y1313164D02*
X2124950Y1313633D01*
X2124438Y1313867*
X2124438D02*
X2123756D01*
X2123756D02*
X2123245Y1313633D01*
X2123245D02*
X2122904Y1313164D01*
X2122904D02*
Y1312695D01*
X2122904D02*
X2123075Y1312227D01*
X2123245Y1311992*
X2123245D02*
X2123586Y1311758D01*
X2123586D02*
X2124609Y1311289D01*
X2124609D02*
X2124950Y1311055D01*
X2125120Y1310820*
X2125120D02*
X2125291Y1310352D01*
Y1309648*
X2125291D02*
X2124950Y1309180D01*
X2124438Y1308945*
X2124438D02*
X2123756D01*
X2123756D02*
X2123245Y1309180D01*
X2123245D02*
X2122904Y1309648D01*
X2126825Y1313867D02*
Y1308945D01*
X2130916Y1312695D02*
X2130745Y1313164D01*
X2130745D02*
X2130404Y1313633D01*
X2130404D02*
X2130063Y1313867D01*
X2130063D02*
X2129381D01*
X2129381D02*
X2129041Y1313633D01*
X2128700Y1313164*
X2128700D02*
X2128529Y1312695D01*
X2128529D02*
X2128359Y1311992D01*
X2128359D02*
Y1310820D01*
X2128359D02*
X2128529Y1310117D01*
X2128529D02*
X2128700Y1309648D01*
X2128700D02*
X2129041Y1309180D01*
X2129381Y1308945*
X2129381D02*
X2130063D01*
X2130063D02*
X2130404Y1309180D01*
X2130404D02*
X2130745Y1309648D01*
X2130745D02*
X2130916Y1310117D01*
X2130916D02*
Y1310820D01*
X2130063D02*
X2130916D01*
X2132450Y1313867D02*
Y1308945D01*
Y1313867D02*
X2134836Y1308945D01*
Y1313867D02*
Y1308945D01*
X2139438Y1313867D02*
Y1308945D01*
Y1313867D02*
X2140972D01*
X2140972D02*
X2141484Y1313633D01*
X2141654Y1313398*
X2141654D02*
X2141825Y1312930D01*
Y1312461*
X2141654Y1311992*
X2141654D02*
X2141484Y1311758D01*
X2140972Y1311523*
X2139438D02*
X2140972D01*
X2140972D02*
X2141484Y1311289D01*
X2141484D02*
X2141654Y1311055D01*
X2141654D02*
X2141825Y1310586D01*
Y1309883*
X2141654Y1309414*
X2141654D02*
X2141484Y1309180D01*
X2140972Y1308945*
X2140972D02*
X2139438D01*
X2143359Y1313867D02*
X2144722Y1311523D01*
X2144722D02*
Y1308945D01*
X2146086Y1313867D02*
X2144722Y1311523D01*
X2147791Y1312227D02*
X2147620Y1311992D01*
X2147620D02*
X2147791Y1311758D01*
X2147961Y1311992*
X2147961D02*
X2147791Y1312227D01*
Y1309414D02*
X2147620Y1309180D01*
X2147620D02*
X2147791Y1308945D01*
X2147791D02*
X2147961Y1309180D01*
X2147961D02*
X2147791Y1309414D01*
X2116234Y1221367D02*
Y1216445D01*
Y1221367D02*
X2117768D01*
X2117768D02*
X2118279Y1221133D01*
X2118279D02*
X2118450Y1220898D01*
X2118450D02*
X2118620Y1220430D01*
X2118620D02*
Y1219961D01*
X2118620D02*
X2118450Y1219492D01*
X2118450D02*
X2118279Y1219258D01*
X2118279D02*
X2117768Y1219023D01*
X2117768D02*
X2116234D01*
X2117427D02*
X2118620Y1216445D01*
X2120154Y1221367D02*
Y1216445D01*
Y1221367D02*
X2122370D01*
X2120154Y1219023D02*
X2121518D01*
X2120154Y1216445D02*
X2122370D01*
X2123904Y1221367D02*
Y1216445D01*
X2123904D02*
X2125950D01*
X2127484Y1221367D02*
Y1216445D01*
Y1221367D02*
X2129700D01*
X2127484Y1219023D02*
X2128847D01*
X2127484Y1216445D02*
X2129700D01*
X2132597Y1221367D02*
X2131234Y1216445D01*
X2132597Y1221367D02*
X2133961Y1216445D01*
X2131745Y1218086D02*
X2133450D01*
X2137881Y1220664D02*
X2137541Y1221133D01*
X2137029Y1221367*
X2137029D02*
X2136347D01*
X2136347D02*
X2135836Y1221133D01*
X2135836D02*
X2135495Y1220664D01*
X2135495D02*
Y1220195D01*
X2135495D02*
X2135666Y1219727D01*
X2135836Y1219492*
X2135836D02*
X2136177Y1219258D01*
X2137200Y1218789*
X2137200D02*
X2137541Y1218555D01*
X2137711Y1218320*
X2137711D02*
X2137881Y1217852D01*
X2137881D02*
Y1217148D01*
X2137881D02*
X2137541Y1216680D01*
X2137029Y1216445*
X2137029D02*
X2136347D01*
X2136347D02*
X2135836Y1216680D01*
X2135836D02*
X2135495Y1217148D01*
X2139416Y1221367D02*
Y1216445D01*
Y1221367D02*
X2141631D01*
X2139416Y1219023D02*
X2140779D01*
X2139416Y1216445D02*
X2141631D01*
X2143166Y1221367D02*
Y1216445D01*
Y1221367D02*
X2144359D01*
X2144359D02*
X2144870Y1221133D01*
X2144870D02*
X2145211Y1220664D01*
X2145211D02*
X2145381Y1220195D01*
X2145381D02*
X2145552Y1219492D01*
X2145552D02*
Y1218320D01*
X2145552D02*
X2145381Y1217617D01*
X2145381D02*
X2145211Y1217148D01*
X2145211D02*
X2144870Y1216680D01*
X2144870D02*
X2144359Y1216445D01*
X2144359D02*
X2143166D01*
X2147256Y1219727D02*
X2147086Y1219492D01*
X2147086D02*
X2147256Y1219258D01*
X2147256D02*
X2147427Y1219492D01*
X2147427D02*
X2147256Y1219727D01*
Y1216914D02*
X2147086Y1216680D01*
X2147086D02*
X2147256Y1216445D01*
X2147256D02*
X2147427Y1216680D01*
X2147256Y1216914*
X2205234Y1223867D02*
Y1218945D01*
Y1223867D02*
X2206427D01*
X2206427D02*
X2206938Y1223633D01*
X2206938D02*
X2207279Y1223164D01*
X2207279D02*
X2207450Y1222695D01*
X2207450D02*
X2207620Y1221992D01*
X2207620D02*
Y1220820D01*
X2207620D02*
X2207450Y1220117D01*
X2207450D02*
X2207279Y1219648D01*
X2207279D02*
X2206938Y1219180D01*
X2206938D02*
X2206427Y1218945D01*
X2206427D02*
X2205234D01*
X2210518Y1223867D02*
X2209154Y1218945D01*
X2210518Y1223867D02*
X2211881Y1218945D01*
X2209666Y1220586D02*
X2211370D01*
X2214609Y1223867D02*
Y1218945D01*
X2213416Y1223867D02*
X2215802D01*
X2217336D02*
Y1218945D01*
Y1223867D02*
X2219552D01*
X2217336Y1221523D02*
X2218700D01*
X2217336Y1218945D02*
X2219552D01*
X2221256Y1222227D02*
X2221086Y1221992D01*
X2221086D02*
X2221256Y1221758D01*
X2221256D02*
X2221427Y1221992D01*
X2221427D02*
X2221256Y1222227D01*
Y1219414D02*
X2221086Y1219180D01*
X2221086D02*
X2221256Y1218945D01*
X2221256D02*
X2221427Y1219180D01*
X2221256Y1219414*
X2470734Y1312508D02*
Y1305945D01*
Y1312508D02*
X2472779D01*
X2472779D02*
X2473461Y1312195D01*
X2473461D02*
X2473688Y1311883D01*
X2473688D02*
X2473916Y1311258D01*
Y1310633*
X2473688Y1310008*
X2473688D02*
X2473461Y1309695D01*
X2473461D02*
X2472779Y1309383D01*
X2472779D02*
X2470734D01*
X2472325D02*
X2473916Y1305945D01*
X2475961Y1312508D02*
Y1305945D01*
Y1312508D02*
X2478916D01*
X2475961Y1309383D02*
X2477779D01*
X2475961Y1305945D02*
X2478916D01*
X2480961Y1312508D02*
X2482779Y1305945D01*
X2484597Y1312508D02*
X2482779Y1305945D01*
X2486870Y1306570D02*
X2486643Y1306258D01*
X2486870Y1305945*
X2486870D02*
X2487097Y1306258D01*
X2487097D02*
X2486870Y1306570D01*
X2360085Y1316150D02*
Y1286150D01*
X2244585Y1299650D02*
G03X2244585I-499D01*
G01X2242495Y1297495D02*
G03X2242495I-499D01*
G01X2240406Y1295340D02*
G03X2240406I-499D01*
G01X2242495Y1301805D02*
G03X2242495I-499D01*
G01X2240406Y1303960D02*
G03X2240406I-499D01*
G01X2236228D02*
G03X2236228I-499D01*
G01X2238317Y1301805D02*
G03X2238317I-499D01*
G01X2240406Y1299650D02*
G03X2240406I-499D01*
G01X2238317Y1297495D02*
G03X2238317I-499D01*
G01X2236228Y1299650D02*
G03X2236228I-499D01*
G01X2234139Y1301805D02*
G03X2234139I-499D01*
G01X2232050Y1303960D02*
G03X2232050I-499D01*
G01X2231919Y1286784D02*
G03X2231919I-499D01*
G01X2234008Y1288939D02*
G03X2234008I-499D01*
G01X2236097Y1291095D02*
G03X2236097I-499D01*
G01X2238186Y1293250D02*
G03X2238186I-499D01*
G01X2240275Y1291095D02*
G03X2240275I-499D01*
G01X2238186Y1288939D02*
G03X2238186I-499D01*
G01X2236097Y1286784D02*
G03X2236097I-499D01*
G01X2240275D02*
G03X2240275I-499D01*
G01X2242364Y1288939D02*
G03X2242364I-499D01*
G01Y1293250D02*
G03X2242364I-499D01*
G01X2244453Y1291095D02*
G03X2244453I-499D01*
G01X2361085Y1226650D02*
Y1211150D01*
X1962734Y1758333D02*
Y1753645D01*
X1962734D02*
X1962961Y1752708D01*
X1962961D02*
X1963416Y1752083D01*
X1964098Y1751770*
X1964098D02*
X1964552D01*
X1964552D02*
X1965234Y1752083D01*
X1965234D02*
X1965689Y1752708D01*
X1965916Y1753645*
X1965916D02*
Y1758333D01*
X1970234D02*
X1967961Y1753958D01*
X1967961D02*
X1971370D01*
X1970234Y1758333D02*
Y1751770D01*
X1841234Y1756520D02*
Y1751833D01*
X1841234D02*
X1841461Y1750895D01*
X1841461D02*
X1841916Y1750270D01*
X1841916D02*
X1842598Y1749958D01*
X1843052*
X1843052D02*
X1843734Y1750270D01*
X1843734D02*
X1844189Y1750895D01*
X1844189D02*
X1844416Y1751833D01*
Y1756520*
X1849416D02*
X1847143D01*
X1847143D02*
X1846916Y1753708D01*
X1847143Y1754020*
X1847143D02*
X1847825Y1754333D01*
X1847825D02*
X1848507D01*
X1849189Y1754020*
X1849189D02*
X1849643Y1753395D01*
X1849643D02*
X1849870Y1752458D01*
X1849870D02*
X1849643Y1751833D01*
X1849643D02*
X1849416Y1750895D01*
X1849416D02*
X1848961Y1750270D01*
X1848961D02*
X1848280Y1749958D01*
X1847598*
X1846916Y1750270*
X1846916D02*
X1846689Y1750583D01*
X1846461Y1751208*
X2022961Y1758333D02*
Y1753645D01*
X2022961D02*
X2023189Y1752708D01*
X2023643Y1752083*
X2023643D02*
X2024325Y1751770D01*
X2024325D02*
X2024780D01*
X2024780D02*
X2025461Y1752083D01*
X2025461D02*
X2025916Y1752708D01*
X2026143Y1753645*
X2026143D02*
Y1758333D01*
X2030916Y1757395D02*
X2030689Y1758020D01*
X2030689D02*
X2030007Y1758333D01*
X2029552*
X2029552D02*
X2028870Y1758020D01*
X2028870D02*
X2028416Y1757083D01*
X2028189Y1755520*
X2028189D02*
Y1753958D01*
X2028416Y1752708*
X2028870Y1752083*
X2028870D02*
X2029552Y1751770D01*
X2029552D02*
X2029780D01*
X2029780D02*
X2030461Y1752083D01*
X2030461D02*
X2030916Y1752708D01*
X2031143Y1753645*
X2031143D02*
Y1753958D01*
X2031143D02*
X2030916Y1754895D01*
X2030916D02*
X2030461Y1755520D01*
X2030461D02*
X2029780Y1755833D01*
X2029552*
X2029552D02*
X2028870Y1755520D01*
X2028870D02*
X2028416Y1754895D01*
X2028416D02*
X2028189Y1753958D01*
X1901348Y1756520D02*
Y1751833D01*
X1901575Y1750895*
X1901575D02*
X1902030Y1750270D01*
X1902030D02*
X1902711Y1749958D01*
X1902711D02*
X1903166D01*
X1903848Y1750270*
X1903848D02*
X1904302Y1750895D01*
X1904302D02*
X1904530Y1751833D01*
Y1756520*
X1909757D02*
X1907484Y1749958D01*
X1906575Y1756520D02*
X1909757D01*
X2298812Y1280494D02*
X2296085Y1270650D01*
X2298812Y1280494D02*
X2301539Y1270650D01*
X2297107Y1273931D02*
X2300516D01*
X2309380Y1279088D02*
X2308698Y1280025D01*
X2308698D02*
X2307675Y1280494D01*
X2307675D02*
X2306312D01*
X2305289Y1280025*
X2305289D02*
X2304607Y1279088D01*
X2304607D02*
Y1278150D01*
X2304607D02*
X2304948Y1277213D01*
X2304948D02*
X2305289Y1276744D01*
X2305289D02*
X2305971Y1276275D01*
X2305971D02*
X2308016Y1275338D01*
X2308016D02*
X2308698Y1274869D01*
X2308698D02*
X2309039Y1274400D01*
X2309039D02*
X2309380Y1273463D01*
Y1272056*
X2309380D02*
X2308698Y1271119D01*
X2308698D02*
X2307675Y1270650D01*
X2307675D02*
X2306312D01*
X2306312D02*
X2305289Y1271119D01*
X2305289D02*
X2304607Y1272056D01*
X2317221Y1279088D02*
X2316539Y1280025D01*
X2316539D02*
X2315516Y1280494D01*
X2315516D02*
X2314153D01*
X2313130Y1280025*
X2313130D02*
X2312448Y1279088D01*
X2312448D02*
Y1278150D01*
X2312448D02*
X2312789Y1277213D01*
X2312789D02*
X2313130Y1276744D01*
X2313812Y1276275*
X2313812D02*
X2315857Y1275338D01*
X2315857D02*
X2316539Y1274869D01*
X2316539D02*
X2316880Y1274400D01*
X2316880D02*
X2317221Y1273463D01*
Y1272056*
X2317221D02*
X2316539Y1271119D01*
X2316539D02*
X2315516Y1270650D01*
X2315516D02*
X2314153D01*
X2314153D02*
X2313130Y1271119D01*
X2312448Y1272056*
X2320289Y1280494D02*
Y1270650D01*
Y1280494D02*
X2324721D01*
X2320289Y1275806D02*
X2323016D01*
X2320289Y1270650D02*
X2324721D01*
X2327789Y1280494D02*
Y1270650D01*
Y1280494D02*
X2330516Y1270650D01*
X2333244Y1280494D02*
X2330516Y1270650D01*
X2333244Y1280494D02*
Y1270650D01*
X2336312Y1280494D02*
Y1270650D01*
Y1280494D02*
X2339380D01*
X2340403Y1280025*
X2340403D02*
X2340744Y1279556D01*
X2340744D02*
X2341085Y1278619D01*
Y1277681*
X2341085D02*
X2340744Y1276744D01*
X2340403Y1276275*
X2340403D02*
X2339380Y1275806D01*
X2336312D02*
X2339380D01*
X2339380D02*
X2340403Y1275338D01*
X2340744Y1274869*
X2341085Y1273931*
X2341085D02*
Y1272525D01*
X2341085D02*
X2340744Y1271588D01*
X2340403Y1271119*
X2339380Y1270650*
X2339380D02*
X2336312D01*
X2344153Y1280494D02*
Y1270650D01*
X2344153D02*
X2348244D01*
X2351312Y1280494D02*
X2354039Y1275806D01*
X2354039D02*
Y1270650D01*
X2356766Y1280494D02*
X2354039Y1275806D01*
X2365971Y1280494D02*
Y1270650D01*
Y1280494D02*
X2368357D01*
X2368357D02*
X2369380Y1280025D01*
X2369380D02*
X2370062Y1279088D01*
X2370403Y1278150*
X2370403D02*
X2370744Y1276744D01*
Y1274400*
X2370744D02*
X2370403Y1272994D01*
X2370062Y1272056*
X2370062D02*
X2369380Y1271119D01*
X2368357Y1270650*
X2368357D02*
X2365971D01*
X2373812Y1280494D02*
Y1270650D01*
Y1280494D02*
X2376880D01*
X2377903Y1280025*
X2377903D02*
X2378244Y1279556D01*
X2378244D02*
X2378585Y1278619D01*
Y1277681*
X2378585D02*
X2378244Y1276744D01*
X2377903Y1276275*
X2377903D02*
X2376880Y1275806D01*
X2376880D02*
X2373812D01*
X2376198D02*
X2378585Y1270650D01*
X2384380Y1280494D02*
X2381653Y1270650D01*
X2384380Y1280494D02*
X2387107Y1270650D01*
X2382675Y1273931D02*
X2386085D01*
X2390175Y1280494D02*
X2391880Y1270650D01*
X2393585Y1280494D02*
X2391880Y1270650D01*
X2393585Y1280494D02*
X2395289Y1270650D01*
X2396994Y1280494D02*
X2395289Y1270650D01*
X2400062Y1280494D02*
Y1270650D01*
X2403130Y1280494D02*
Y1270650D01*
Y1280494D02*
X2407903Y1270650D01*
Y1280494D02*
Y1270650D01*
X2416085Y1278150D02*
X2415744Y1279088D01*
X2415062Y1280025*
X2415062D02*
X2414380Y1280494D01*
X2413016*
X2413016D02*
X2412335Y1280025D01*
X2412335D02*
X2411653Y1279088D01*
X2411312Y1278150*
X2411312D02*
X2410971Y1276744D01*
Y1274400*
X2410971D02*
X2411312Y1272994D01*
X2411653Y1272056*
X2411653D02*
X2412335Y1271119D01*
X2413016Y1270650*
X2413016D02*
X2414380D01*
X2414380D02*
X2415062Y1271119D01*
X2415744Y1272056*
X2415744D02*
X2416085Y1272994D01*
Y1274400*
X2414380D02*
X2416085D01*
X2425289Y1280494D02*
Y1270650D01*
Y1280494D02*
X2428357D01*
X2428357D02*
X2429380Y1280025D01*
X2429380D02*
X2429721Y1279556D01*
X2429721D02*
X2430062Y1278619D01*
Y1277681*
X2430062D02*
X2429721Y1276744D01*
X2429380Y1276275*
X2429380D02*
X2428357Y1275806D01*
X2425289D02*
X2428357D01*
X2428357D02*
X2429380Y1275338D01*
X2429721Y1274869*
X2430062Y1273931*
X2430062D02*
Y1272525D01*
X2430062D02*
X2429721Y1271588D01*
X2429380Y1271119*
X2428357Y1270650*
X2428357D02*
X2425289D01*
X2435175Y1280494D02*
X2434494Y1280025D01*
X2434494D02*
X2433812Y1279088D01*
X2433471Y1278150*
X2433471D02*
X2433130Y1276744D01*
Y1274400*
X2433130D02*
X2433471Y1272994D01*
X2433812Y1272056*
X2433812D02*
X2434494Y1271119D01*
X2435175Y1270650*
X2435175D02*
X2436539D01*
X2436539D02*
X2437221Y1271119D01*
X2437903Y1272056*
X2437903D02*
X2438244Y1272994D01*
X2438585Y1274400*
X2438585D02*
Y1276744D01*
X2438244Y1278150*
X2438244D02*
X2437903Y1279088D01*
X2437221Y1280025*
X2437221D02*
X2436539Y1280494D01*
X2436539D02*
X2435175D01*
X2444039D02*
Y1270650D01*
X2441653Y1280494D02*
X2446425D01*
X2451880D02*
Y1270650D01*
X2449494Y1280494D02*
X2454266D01*
X2459380D02*
X2458698Y1280025D01*
X2458698D02*
X2458016Y1279088D01*
X2458016D02*
X2457675Y1278150D01*
X2457675D02*
X2457335Y1276744D01*
Y1274400*
X2457335D02*
X2457675Y1272994D01*
X2457675D02*
X2458016Y1272056D01*
X2458016D02*
X2458698Y1271119D01*
X2458698D02*
X2459380Y1270650D01*
X2459380D02*
X2460744D01*
X2460744D02*
X2461425Y1271119D01*
X2461425D02*
X2462107Y1272056D01*
X2462107D02*
X2462448Y1272994D01*
X2462448D02*
X2462789Y1274400D01*
X2462789D02*
Y1276744D01*
X2462789D02*
X2462448Y1278150D01*
X2462448D02*
X2462107Y1279088D01*
X2462107D02*
X2461425Y1280025D01*
X2461425D02*
X2460744Y1280494D01*
X2459380*
X2465857D02*
Y1270650D01*
Y1280494D02*
X2468585Y1270650D01*
X2471312Y1280494D02*
X2468585Y1270650D01*
X2471312Y1280494D02*
Y1270650D01*
X2365935Y1296679D02*
X2369060Y1291210D01*
Y1296679D02*
X2365935Y1291210D01*
X2371616Y1296679D02*
X2374741Y1291210D01*
Y1296679D02*
X2371616Y1291210D01*
X2377298Y1296679D02*
X2380423Y1291210D01*
Y1296679D02*
X2377298Y1291210D01*
X2382980Y1296679D02*
X2386105Y1291210D01*
Y1296679D02*
X2382980Y1291210D01*
X2388662Y1296679D02*
X2391787Y1291210D01*
Y1296679D02*
X2388662Y1291210D01*
X2382266Y1220775D02*
X2381812Y1221400D01*
X2381812D02*
X2381130Y1221713D01*
X2380221*
X2379539Y1221400*
X2379539D02*
X2379085Y1220775D01*
X2379085D02*
Y1220150D01*
X2379085D02*
X2379312Y1219525D01*
X2379312D02*
X2379539Y1219213D01*
X2379539D02*
X2379994Y1218900D01*
X2379994D02*
X2381357Y1218275D01*
X2381357D02*
X2381812Y1217963D01*
X2382039Y1217650*
X2382039D02*
X2382266Y1217025D01*
X2382266D02*
Y1216088D01*
X2382266D02*
X2381812Y1215463D01*
X2381130Y1215150*
X2381130D02*
X2380221D01*
X2380221D02*
X2379539Y1215463D01*
X2379539D02*
X2379085Y1216088D01*
X2384312Y1221713D02*
Y1215150D01*
X2387494Y1221713D02*
Y1215150D01*
X2384312Y1218588D02*
X2387494D01*
X2389539Y1221713D02*
Y1215150D01*
Y1221713D02*
X2392494D01*
X2389539Y1218588D02*
X2391357D01*
X2389539Y1215150D02*
X2392494D01*
X2394539Y1221713D02*
Y1215150D01*
Y1221713D02*
X2397494D01*
X2394539Y1218588D02*
X2396357D01*
X2394539Y1215150D02*
X2397494D01*
X2401130Y1221713D02*
Y1215150D01*
X2399539Y1221713D02*
X2402721D01*
X2413175Y1220150D02*
Y1220463D01*
X2413175D02*
X2413403Y1221088D01*
X2413630Y1221400*
X2413630D02*
X2414085Y1221713D01*
X2414994*
X2415448Y1221400*
X2415448D02*
X2415675Y1221088D01*
X2415675D02*
X2415903Y1220463D01*
Y1219838*
X2415675Y1219213*
X2415675D02*
X2415221Y1218275D01*
X2415221D02*
X2412948Y1215150D01*
X2412948D02*
X2416130D01*
X2423630Y1221713D02*
X2423175Y1221400D01*
X2423175D02*
X2422721Y1220775D01*
X2422721D02*
X2422494Y1220150D01*
X2422494D02*
X2422266Y1219213D01*
X2422266D02*
Y1217650D01*
X2422266D02*
X2422494Y1216713D01*
X2422721Y1216088*
X2423175Y1215463*
X2423175D02*
X2423630Y1215150D01*
X2423630D02*
X2424539D01*
X2424539D02*
X2424994Y1215463D01*
X2425448Y1216088*
X2425448D02*
X2425675Y1216713D01*
X2425675D02*
X2425903Y1217650D01*
X2425903D02*
Y1219213D01*
X2425675Y1220150*
X2425675D02*
X2425448Y1220775D01*
X2425448D02*
X2424994Y1221400D01*
X2424994D02*
X2424539Y1221713D01*
X2424539D02*
X2423630D01*
X2427948D02*
Y1215150D01*
Y1221713D02*
X2430903D01*
X2427948Y1218588D02*
X2429766D01*
X2437266Y1220150D02*
Y1220463D01*
X2437266D02*
X2437494Y1221088D01*
X2437721Y1221400*
X2437721D02*
X2438175Y1221713D01*
X2438175D02*
X2439085D01*
X2439539Y1221400*
X2439539D02*
X2439766Y1221088D01*
X2439766D02*
X2439994Y1220463D01*
Y1219838*
X2439766Y1219213*
X2439766D02*
X2439312Y1218275D01*
X2439312D02*
X2437039Y1215150D01*
X2437039D02*
X2440221D01*
X2145766Y1333525D02*
X2143585Y1325650D01*
X2145766Y1333525D02*
X2147948Y1325650D01*
X2144403Y1328275D02*
X2147130D01*
X2154221Y1332400D02*
X2153675Y1333150D01*
X2153675D02*
X2152857Y1333525D01*
X2152857D02*
X2151766D01*
X2151766D02*
X2150948Y1333150D01*
X2150948D02*
X2150403Y1332400D01*
X2150403D02*
Y1331650D01*
X2150403D02*
X2150675Y1330900D01*
X2150675D02*
X2150948Y1330525D01*
X2150948D02*
X2151494Y1330150D01*
X2151494D02*
X2153130Y1329400D01*
X2153130D02*
X2153675Y1329025D01*
X2153675D02*
X2153948Y1328650D01*
X2153948D02*
X2154221Y1327900D01*
X2154221D02*
Y1326775D01*
X2154221D02*
X2153675Y1326025D01*
X2153675D02*
X2152857Y1325650D01*
X2152857D02*
X2151766D01*
X2151766D02*
X2150948Y1326025D01*
X2150948D02*
X2150403Y1326775D01*
X2160494Y1332400D02*
X2159948Y1333150D01*
X2159948D02*
X2159130Y1333525D01*
X2159130D02*
X2158039D01*
X2158039D02*
X2157221Y1333150D01*
X2157221D02*
X2156675Y1332400D01*
X2156675D02*
Y1331650D01*
X2156675D02*
X2156948Y1330900D01*
X2156948D02*
X2157221Y1330525D01*
X2157221D02*
X2157766Y1330150D01*
X2157766D02*
X2159403Y1329400D01*
X2159403D02*
X2159948Y1329025D01*
X2159948D02*
X2160221Y1328650D01*
X2160221D02*
X2160494Y1327900D01*
X2160494D02*
Y1326775D01*
X2160494D02*
X2159948Y1326025D01*
X2159948D02*
X2159130Y1325650D01*
X2159130D02*
X2158039D01*
X2158039D02*
X2157221Y1326025D01*
X2157221D02*
X2156675Y1326775D01*
X2162948Y1333525D02*
Y1325650D01*
Y1333525D02*
X2166494D01*
X2162948Y1329775D02*
X2165130D01*
X2162948Y1325650D02*
X2166494D01*
X2168948Y1333525D02*
Y1325650D01*
Y1333525D02*
X2171130Y1325650D01*
X2173312Y1333525D02*
X2171130Y1325650D01*
X2173312Y1333525D02*
Y1325650D01*
X2175766Y1333525D02*
Y1325650D01*
Y1333525D02*
X2178221D01*
X2178221D02*
X2179039Y1333150D01*
X2179039D02*
X2179312Y1332775D01*
X2179312D02*
X2179585Y1332025D01*
X2179585D02*
Y1331275D01*
X2179585D02*
X2179312Y1330525D01*
X2179312D02*
X2179039Y1330150D01*
X2179039D02*
X2178221Y1329775D01*
X2175766D02*
X2178221D01*
X2178221D02*
X2179039Y1329400D01*
X2179039D02*
X2179312Y1329025D01*
X2179312D02*
X2179585Y1328275D01*
X2179585D02*
Y1327150D01*
X2179585D02*
X2179312Y1326400D01*
X2179312D02*
X2179039Y1326025D01*
X2179039D02*
X2178221Y1325650D01*
X2178221D02*
X2175766D01*
X2182039Y1333525D02*
Y1325650D01*
X2182039D02*
X2185312D01*
X2187766Y1333525D02*
X2189948Y1329775D01*
X2189948D02*
Y1325650D01*
X2192130Y1333525D02*
X2189948Y1329775D01*
X2199494Y1333525D02*
Y1325650D01*
Y1333525D02*
X2201948D01*
X2201948D02*
X2202766Y1333150D01*
X2202766D02*
X2203039Y1332775D01*
X2203039D02*
X2203312Y1332025D01*
X2203312D02*
Y1331275D01*
X2203312D02*
X2203039Y1330525D01*
X2203039D02*
X2202766Y1330150D01*
X2202766D02*
X2201948Y1329775D01*
X2199494D02*
X2201948D01*
X2201948D02*
X2202766Y1329400D01*
X2202766D02*
X2203039Y1329025D01*
X2203039D02*
X2203312Y1328275D01*
X2203312D02*
Y1327150D01*
X2203312D02*
X2203039Y1326400D01*
X2203039D02*
X2202766Y1326025D01*
X2202766D02*
X2201948Y1325650D01*
X2201948D02*
X2199494D01*
X2207403Y1333525D02*
X2206857Y1333150D01*
X2206857D02*
X2206312Y1332400D01*
X2206312D02*
X2206039Y1331650D01*
X2206039D02*
X2205766Y1330525D01*
X2205766D02*
Y1328650D01*
X2205766D02*
X2206039Y1327525D01*
X2206039D02*
X2206312Y1326775D01*
X2206312D02*
X2206857Y1326025D01*
X2206857D02*
X2207403Y1325650D01*
X2207403D02*
X2208494D01*
X2208494D02*
X2209039Y1326025D01*
X2209039D02*
X2209585Y1326775D01*
X2209585D02*
X2209857Y1327525D01*
X2209857D02*
X2210130Y1328650D01*
X2210130D02*
Y1330525D01*
X2210130D02*
X2209857Y1331650D01*
X2209857D02*
X2209585Y1332400D01*
X2209585D02*
X2209039Y1333150D01*
X2209039D02*
X2208494Y1333525D01*
X2208494D02*
X2207403D01*
X2214494D02*
Y1325650D01*
X2212585Y1333525D02*
X2216403D01*
X2220766D02*
Y1325650D01*
X2218857Y1333525D02*
X2222675D01*
X2226766D02*
X2226221Y1333150D01*
X2226221D02*
X2225675Y1332400D01*
X2225675D02*
X2225403Y1331650D01*
X2225403D02*
X2225130Y1330525D01*
X2225130D02*
Y1328650D01*
X2225130D02*
X2225403Y1327525D01*
X2225403D02*
X2225675Y1326775D01*
X2225675D02*
X2226221Y1326025D01*
X2226221D02*
X2226766Y1325650D01*
X2226766D02*
X2227857D01*
X2227857D02*
X2228403Y1326025D01*
X2228403D02*
X2228948Y1326775D01*
X2228948D02*
X2229221Y1327525D01*
X2229221D02*
X2229494Y1328650D01*
X2229494D02*
Y1330525D01*
X2229494D02*
X2229221Y1331650D01*
X2229221D02*
X2228948Y1332400D01*
X2228948D02*
X2228403Y1333150D01*
X2228403D02*
X2227857Y1333525D01*
X2227857D02*
X2226766D01*
X2231948D02*
Y1325650D01*
Y1333525D02*
X2234130Y1325650D01*
X2236312Y1333525D02*
X2234130Y1325650D01*
X2236312Y1333525D02*
Y1325650D01*
G54D14*
X2234934Y1309348D02*
G03X2234934I-249D01*
G01X2233889Y1310426D02*
G03X2233889I-249D01*
G01X2232845Y1311503D02*
G03X2232845I-249D01*
G01X2231800Y1312581D02*
G03X2231800I-249D01*
G01X2230935Y1313473D02*
G03X2230935I-249D01*
G01X2230755Y1309348D02*
G03X2230755I-249D01*
G01X2229711Y1310426D02*
G03X2229711I-249D01*
G01X2228666Y1311503D02*
G03X2228666I-249D01*
G01X2227622Y1312581D02*
G03X2227622I-249D01*
G01X2226757Y1313473D02*
G03X2226757I-249D01*
G01X2226577Y1309348D02*
G03X2226577I-249D01*
G01X2225533Y1310426D02*
G03X2225533I-249D01*
G01X2224398Y1311411D02*
G03X2224398I-249D01*
G01X2223444Y1312581D02*
G03X2223444I-249D01*
G01X2222579Y1313473D02*
G03X2222579I-249D01*
G01X2222447Y1277272D02*
G03X2222447I-249D01*
G01X2223312Y1278164D02*
G03X2223312I-249D01*
G01X2224267Y1279334D02*
G03X2224267I-249D01*
G01X2225401Y1280319D02*
G03X2225401I-249D01*
G01X2226446Y1281397D02*
G03X2226446I-249D01*
G01X2226625Y1277272D02*
G03X2226625I-249D01*
G01X2227490Y1278164D02*
G03X2227490I-249D01*
G01X2228535Y1279242D02*
G03X2228535I-249D01*
G01X2229580Y1280319D02*
G03X2229580I-249D01*
G01X2230624Y1281397D02*
G03X2230624I-249D01*
G01X2230804Y1277272D02*
G03X2230804I-249D01*
G01X2231669Y1278164D02*
G03X2231669I-249D01*
G01X2232713Y1279242D02*
G03X2232713I-249D01*
G01X2233758Y1280319D02*
G03X2233758I-249D01*
G01X2234802Y1281397D02*
G03X2234802I-249D01*
G01X1947475Y1723940D02*
G03X1947475I-1537D01*
G01X1942000Y1719412D02*
Y1749038D01*
X1942000D02*
X1945322D01*
X1945322D02*
Y1757503D01*
X1945322D02*
X1942000D01*
X1942000D02*
Y1787129D01*
X1942000D02*
X1995150D01*
Y1719412*
X1995150D02*
X1942000D01*
X1872750Y1782601D02*
G03X1872750I-1536D01*
G01X1875150Y1787129D02*
Y1757503D01*
X1871828*
Y1749038*
X1871828D02*
X1875150D01*
X1875150D02*
Y1719412D01*
X1875150D02*
X1822000D01*
X1822000D02*
Y1787129D01*
X1822000D02*
X1875150D01*
X2007475Y1723940D02*
G03X2007475I-1537D01*
G01X2002000Y1719412D02*
Y1749038D01*
X2002000D02*
X2005322D01*
X2005322D02*
Y1757503D01*
X2005322D02*
X2002000D01*
X2002000D02*
Y1787129D01*
X2002000D02*
X2055150D01*
Y1719412*
X2055150D02*
X2002000D01*
X1932750Y1782601D02*
G03X1932750I-1536D01*
G01X1935150Y1787129D02*
Y1757503D01*
X1931828*
Y1749038*
X1931828D02*
X1935150D01*
X1935150D02*
Y1719412D01*
X1935150D02*
X1882000D01*
X1882000D02*
Y1787129D01*
X1882000D02*
X1935150D01*
X2140835Y1305400D02*
Y1301800D01*
X2140835D02*
X2133777D01*
X2133777D02*
G03Y1289800I369J-5999D01*
G01X2133777D02*
X2140835D01*
X2140835D02*
Y1286300D01*
X2140835D02*
X2133592D01*
Y1305400D02*
G03Y1286300I583J-9549D01*
G01Y1305400D02*
X2140835D01*
X2144335D02*
X2147835D01*
X2147835D02*
Y1301900D01*
X2147835D02*
X2144335D01*
X2144335D02*
Y1305400D01*
Y1298400D02*
X2147835D01*
X2147835D02*
Y1286400D01*
X2147835D02*
X2144335D01*
X2144335D02*
Y1298400D01*
X2150835D02*
X2154835D01*
X2154835D02*
Y1286400D01*
X2154835D02*
X2150835D01*
X2150835D02*
Y1298400D01*
X2150835D02*
X2161335D01*
X2161335D02*
Y1295400D01*
X2161335D02*
X2150835D01*
X2150835D02*
Y1298400D01*
Y1301900D02*
X2164790D01*
Y1298400D02*
G03Y1301900I0J1750D01*
G01Y1298400D02*
X2161235D01*
X2161235D02*
Y1296197D01*
X2161235D02*
X2165055Y1286400D01*
X2165055D02*
X2169499D01*
X2169499D02*
X2165630Y1295030D01*
X2165630D02*
G03X2165954Y1305500I-973J5270D01*
G01X2165954D02*
X2150835D01*
X2150835D02*
Y1301900D01*
X2173335Y1289900D02*
Y1286200D01*
X2173335D02*
X2188335D01*
X2188335D02*
Y1289900D01*
X2188335D02*
X2173335D01*
Y1305300D02*
Y1301700D01*
X2173335D02*
X2188335D01*
X2188335D02*
Y1305300D01*
X2188335D02*
X2173335D01*
Y1298200D02*
Y1294600D01*
X2173335D02*
X2182835D01*
X2182835D02*
Y1298200D01*
X2182835D02*
X2173335D01*
X2177335Y1305400D02*
X2173335D01*
X2173335D02*
Y1286400D01*
X2173335D02*
X2177335D01*
X2177335D02*
Y1305400D01*
X2195290Y1305368D02*
X2191802Y1305374D01*
X2191802D02*
X2196268Y1298679D01*
X2196268D02*
X2199756Y1298673D01*
X2195290Y1305368*
X2203888Y1305364D02*
X2207331Y1305395D01*
X2207331D02*
X2204890Y1301692D01*
X2204890D02*
X2202852Y1298677D01*
X2202852D02*
X2199422Y1298670D01*
X2199422D02*
X2203888Y1305364D01*
X2199585Y1293121D02*
X2203873Y1286275D01*
X2203873D02*
X2207406D01*
X2207406D02*
X2207569Y1286017D01*
X2207569D02*
X2201314Y1295925D01*
X2201314D02*
X2202805Y1298275D01*
X2202805D02*
X2196380D01*
X2196380D02*
X2197246Y1296859D01*
X2197857Y1295928*
X2197857D02*
X2191787Y1286275D01*
X2191787D02*
X2195296D01*
X2195296D02*
X2199585Y1293121D01*
X2213790Y1305368D02*
X2210302Y1305374D01*
X2210302D02*
X2214768Y1298679D01*
X2214768D02*
X2218256Y1298673D01*
X2213790Y1305368*
X2222388Y1305364D02*
X2225831Y1305395D01*
X2225831D02*
X2223390Y1301692D01*
X2223390D02*
X2221352Y1298677D01*
X2221352D02*
X2217922Y1298670D01*
X2217922D02*
X2222388Y1305364D01*
X2218085Y1293121D02*
X2222373Y1286275D01*
X2222373D02*
X2225906D01*
X2225906D02*
X2226069Y1286017D01*
X2226069D02*
X2219814Y1295925D01*
X2219814D02*
X2221305Y1298275D01*
X2221305D02*
X2214880D01*
X2214880D02*
X2215746Y1296859D01*
X2216357Y1295928*
X2216357D02*
X2210287Y1286275D01*
X2210287D02*
X2213796D01*
X2213796D02*
X2218085Y1293121D01*
X2128135Y1295749D02*
X2124608D01*
X2128148Y1296199D02*
X2124614D01*
X2128156Y1295299D02*
X2124623D01*
X2128195Y1296649D02*
X2124641D01*
X2128211Y1294849D02*
X2124660D01*
X2128277Y1297099D02*
X2124689D01*
X2128301Y1294399D02*
X2124718D01*
X2128395Y1297549D02*
X2124760D01*
X2128427Y1293949D02*
X2124798D01*
X2128551Y1297999D02*
X2124852D01*
X2128593Y1293499D02*
X2124901D01*
X2128750Y1298449D02*
X2124967D01*
X2128802Y1293049D02*
X2125027D01*
X2128995Y1298899D02*
X2125106D01*
X2129058Y1292599D02*
X2125177D01*
X2129294Y1299349D02*
X2125270D01*
X2129371Y1292149D02*
X2125352D01*
X2129658Y1299799D02*
X2125460D01*
X2129751Y1291699D02*
X2125555D01*
X2130103Y1300249D02*
X2125679D01*
X2130219Y1291249D02*
X2125787D01*
X2130662Y1300699D02*
X2125927D01*
X2130811Y1290799D02*
X2126050D01*
X2131403Y1301149D02*
X2126209D01*
X2131613Y1290349D02*
X2126347D01*
X2132561Y1301599D02*
X2126527D01*
X2133001Y1289899D02*
X2126684D01*
X2140835Y1302049D02*
X2126887D01*
X2140835Y1289449D02*
X2127064D01*
X2140835Y1302499D02*
X2127295D01*
X2140835Y1288999D02*
X2127497D01*
X2140835Y1302949D02*
X2127760D01*
X2140835Y1288549D02*
X2127992D01*
X2140835Y1303399D02*
X2128297D01*
X2140835Y1288099D02*
X2128566D01*
X2140835Y1303849D02*
X2128925D01*
X2140835Y1287649D02*
X2129248D01*
X2140835Y1304299D02*
X2129685D01*
X2140835Y1287199D02*
X2130089D01*
X2140835Y1304749D02*
X2130660D01*
X2140835Y1286749D02*
X2131224D01*
X2140835Y1305199D02*
X2132139D01*
X2147835Y1305049D02*
X2144335D01*
X2147835Y1304599D02*
X2144335D01*
X2147835Y1304149D02*
X2144335D01*
X2147835Y1303699D02*
X2144335D01*
X2147835Y1303249D02*
X2144335D01*
X2147835Y1302799D02*
X2144335D01*
X2147835Y1302349D02*
X2144335D01*
X2147835Y1298099D02*
X2144335D01*
X2147835Y1297649D02*
X2144335D01*
X2147835Y1297199D02*
X2144335D01*
X2147835Y1296749D02*
X2144335D01*
X2147835Y1296299D02*
X2144335D01*
X2147835Y1295849D02*
X2144335D01*
X2147835Y1295399D02*
X2144335D01*
X2147835Y1294949D02*
X2144335D01*
X2147835Y1294499D02*
X2144335D01*
X2147835Y1294049D02*
X2144335D01*
X2147835Y1293599D02*
X2144335D01*
X2147835Y1293149D02*
X2144335D01*
X2147835Y1292699D02*
X2144335D01*
X2147835Y1292249D02*
X2144335D01*
X2147835Y1291799D02*
X2144335D01*
X2147835Y1291349D02*
X2144335D01*
X2147835Y1290899D02*
X2144335D01*
X2147835Y1290449D02*
X2144335D01*
X2147835Y1289999D02*
X2144335D01*
X2147835Y1289549D02*
X2144335D01*
X2147835Y1289099D02*
X2144335D01*
X2147835Y1288649D02*
X2144335D01*
X2147835Y1288199D02*
X2144335D01*
X2147835Y1287749D02*
X2144335D01*
X2147835Y1287299D02*
X2144335D01*
X2147835Y1286849D02*
X2144335D01*
X2154835Y1298099D02*
X2150835D01*
X2154835Y1297649D02*
X2150835D01*
X2154835Y1297199D02*
X2150835D01*
X2154835Y1296749D02*
X2150835D01*
X2154835Y1296299D02*
X2150835D01*
X2154835Y1295849D02*
X2150835D01*
X2154835Y1295399D02*
X2150835D01*
X2154835Y1294949D02*
X2150835D01*
X2154835Y1294499D02*
X2150835D01*
X2154835Y1294049D02*
X2150835D01*
X2154835Y1293599D02*
X2150835D01*
X2154835Y1293149D02*
X2150835D01*
X2154835Y1292699D02*
X2150835D01*
X2154835Y1292249D02*
X2150835D01*
X2154835Y1291799D02*
X2150835D01*
X2154835Y1291349D02*
X2150835D01*
X2154835Y1290899D02*
X2150835D01*
X2154835Y1290449D02*
X2150835D01*
X2154835Y1289999D02*
X2150835D01*
X2154835Y1289549D02*
X2150835D01*
X2154835Y1289099D02*
X2150835D01*
X2154835Y1288649D02*
X2150835D01*
X2154835Y1288199D02*
X2150835D01*
X2154835Y1287749D02*
X2150835D01*
X2154835Y1287299D02*
X2150835D01*
X2154835Y1286849D02*
X2150835D01*
X2161335Y1298099D02*
X2150835D01*
X2161335Y1297649D02*
X2150835D01*
X2161335Y1297199D02*
X2150835D01*
X2161335Y1296749D02*
X2150835D01*
X2161335Y1296299D02*
X2150835D01*
X2161335Y1295849D02*
X2150835D01*
X2166589Y1305299D02*
X2150835D01*
X2167491Y1304849D02*
X2150835D01*
X2168109Y1304399D02*
X2150835D01*
X2168582Y1303949D02*
X2150835D01*
X2168956Y1303499D02*
X2150835D01*
X2169257Y1303049D02*
X2150835D01*
X2169498Y1302599D02*
X2150835D01*
X2169687Y1302149D02*
X2150835D01*
X2169543Y1298099D02*
X2161235D01*
X2169314Y1297649D02*
X2161235D01*
X2169027Y1297199D02*
X2161235D01*
X2168670Y1296749D02*
X2161235D01*
X2168222Y1296299D02*
X2161235D01*
X2167641Y1295849D02*
X2161370D01*
X2166824Y1295399D02*
X2161546D01*
X2165666Y1294949D02*
X2161721D01*
X2165868Y1294499D02*
X2161897D01*
X2166070Y1294049D02*
X2162072D01*
X2166272Y1293599D02*
X2162248D01*
X2166473Y1293149D02*
X2162423D01*
X2166675Y1292699D02*
X2162599D01*
X2166877Y1292249D02*
X2162774D01*
X2167078Y1291799D02*
X2162950D01*
X2167280Y1291349D02*
X2163125D01*
X2167482Y1290899D02*
X2163301D01*
X2167684Y1290449D02*
X2163476D01*
X2167885Y1289999D02*
X2163652D01*
X2168087Y1289549D02*
X2163827D01*
X2168289Y1289099D02*
X2164003D01*
X2168490Y1288649D02*
X2164178D01*
X2168692Y1288199D02*
X2164354D01*
X2168894Y1287749D02*
X2164529D01*
X2169096Y1287299D02*
X2164705D01*
X2169297Y1286849D02*
X2164880D01*
X2169721Y1298549D02*
X2165496D01*
X2169830Y1301699D02*
X2165605D01*
X2169855Y1298999D02*
X2166108D01*
X2169931Y1301249D02*
X2166152D01*
X2169948Y1299449D02*
X2166393D01*
X2169992Y1300799D02*
X2166415D01*
X2170001Y1299899D02*
X2166522D01*
X2170015Y1300349D02*
X2166528D01*
X2188335Y1289799D02*
X2173335D01*
X2188335Y1289349D02*
X2173335D01*
X2188335Y1288899D02*
X2173335D01*
X2188335Y1288449D02*
X2173335D01*
X2188335Y1287999D02*
X2173335D01*
X2188335Y1287549D02*
X2173335D01*
X2188335Y1287099D02*
X2173335D01*
X2188335Y1286649D02*
X2173335D01*
X2188335Y1305299D02*
X2173335D01*
X2188335Y1304849D02*
X2173335D01*
X2188335Y1304399D02*
X2173335D01*
X2188335Y1303949D02*
X2173335D01*
X2188335Y1303499D02*
X2173335D01*
X2188335Y1303049D02*
X2173335D01*
X2188335Y1302599D02*
X2173335D01*
X2188335Y1302149D02*
X2173335D01*
X2182835Y1298199D02*
X2173335D01*
X2182835Y1297749D02*
X2173335D01*
X2182835Y1297299D02*
X2173335D01*
X2182835Y1296849D02*
X2173335D01*
X2182835Y1296399D02*
X2173335D01*
X2182835Y1295949D02*
X2173335D01*
X2182835Y1295499D02*
X2173335D01*
X2182835Y1295049D02*
X2173335D01*
X2177335Y1305299D02*
X2173335D01*
X2177335Y1304849D02*
X2173335D01*
X2177335Y1304399D02*
X2173335D01*
X2177335Y1303949D02*
X2173335D01*
X2177335Y1303499D02*
X2173335D01*
X2177335Y1303049D02*
X2173335D01*
X2177335Y1302599D02*
X2173335D01*
X2177335Y1302149D02*
X2173335D01*
X2177335Y1301699D02*
X2173335D01*
X2177335Y1301249D02*
X2173335D01*
X2177335Y1300799D02*
X2173335D01*
X2177335Y1300349D02*
X2173335D01*
X2177335Y1299899D02*
X2173335D01*
X2177335Y1299449D02*
X2173335D01*
X2177335Y1298999D02*
X2173335D01*
X2177335Y1298549D02*
X2173335D01*
X2177335Y1298099D02*
X2173335D01*
X2177335Y1297649D02*
X2173335D01*
X2177335Y1297199D02*
X2173335D01*
X2177335Y1296749D02*
X2173335D01*
X2177335Y1296299D02*
X2173335D01*
X2177335Y1295849D02*
X2173335D01*
X2177335Y1295399D02*
X2173335D01*
X2177335Y1294949D02*
X2173335D01*
X2177335Y1294499D02*
X2173335D01*
X2177335Y1294049D02*
X2173335D01*
X2177335Y1293599D02*
X2173335D01*
X2177335Y1293149D02*
X2173335D01*
X2177335Y1292699D02*
X2173335D01*
X2177335Y1292249D02*
X2173335D01*
X2177335Y1291799D02*
X2173335D01*
X2177335Y1291349D02*
X2173335D01*
X2177335Y1290899D02*
X2173335D01*
X2177335Y1290449D02*
X2173335D01*
X2177335Y1289999D02*
X2173335D01*
X2177335Y1289549D02*
X2173335D01*
X2177335Y1289099D02*
X2173335D01*
X2177335Y1288649D02*
X2173335D01*
X2177335Y1288199D02*
X2173335D01*
X2177335Y1287749D02*
X2173335D01*
X2177335Y1287299D02*
X2173335D01*
X2177335Y1286849D02*
X2173335D01*
X2195554Y1304971D02*
X2192071D01*
X2195854Y1304521D02*
X2192371D01*
X2196154Y1304071D02*
X2192671D01*
X2196455Y1303621D02*
X2192972D01*
X2196755Y1303171D02*
X2193272D01*
X2197055Y1302721D02*
X2193572D01*
X2197355Y1302271D02*
X2193872D01*
X2197655Y1301821D02*
X2194172D01*
X2197955Y1301371D02*
X2194473D01*
X2198256Y1300921D02*
X2194773D01*
X2198556Y1300471D02*
X2195073D01*
X2198856Y1300021D02*
X2195373D01*
X2199156Y1299571D02*
X2195673D01*
X2199456Y1299121D02*
X2195973D01*
X2203150Y1299119D02*
X2199721D01*
X2203454Y1299569D02*
X2200021D01*
X2203759Y1300019D02*
X2200322D01*
X2204063Y1300469D02*
X2200622D01*
X2204368Y1300919D02*
X2200922D01*
X2204672Y1301369D02*
X2201222D01*
X2204974Y1301819D02*
X2201523D01*
X2205271Y1302269D02*
X2201823D01*
X2205567Y1302719D02*
X2202123D01*
X2205864Y1303169D02*
X2202424D01*
X2206161Y1303619D02*
X2202724D01*
X2206457Y1304069D02*
X2203024D01*
X2206754Y1304519D02*
X2203324D01*
X2207051Y1304969D02*
X2203625D01*
X2195415Y1286466D02*
X2191907D01*
X2195697Y1286916D02*
X2192190D01*
X2195979Y1287366D02*
X2192473D01*
X2196261Y1287816D02*
X2192756D01*
X2196543Y1288266D02*
X2193039D01*
X2196825Y1288716D02*
X2193322D01*
X2197107Y1289166D02*
X2193605D01*
X2197389Y1289616D02*
X2193887D01*
X2197671Y1290066D02*
X2194170D01*
X2197952Y1290516D02*
X2194453D01*
X2198234Y1290966D02*
X2194736D01*
X2198516Y1291416D02*
X2195019D01*
X2198798Y1291866D02*
X2195302D01*
X2199080Y1292316D02*
X2195585D01*
X2199362Y1292766D02*
X2195868D01*
X2203024Y1293216D02*
X2196151D01*
X2202740Y1293666D02*
X2196434D01*
X2202735Y1298166D02*
X2196447D01*
X2202456Y1294116D02*
X2196717D01*
X2202450Y1297716D02*
X2196722D01*
X2202164Y1297266D02*
X2196997D01*
X2202172Y1294566D02*
X2197000D01*
X2201879Y1296816D02*
X2197274D01*
X2201888Y1295016D02*
X2197283D01*
X2201604Y1295466D02*
X2197566D01*
X2201593Y1296366D02*
X2197570D01*
X2201320Y1295916D02*
X2197849D01*
X2203309Y1292766D02*
X2199807D01*
X2203593Y1292316D02*
X2200089D01*
X2203877Y1291866D02*
X2200371D01*
X2204161Y1291416D02*
X2200653D01*
X2204445Y1290966D02*
X2200935D01*
X2204729Y1290516D02*
X2201217D01*
X2205013Y1290066D02*
X2201499D01*
X2205297Y1289616D02*
X2201780D01*
X2205581Y1289166D02*
X2202062D01*
X2205865Y1288716D02*
X2202344D01*
X2206149Y1288266D02*
X2202626D01*
X2206433Y1287816D02*
X2202908D01*
X2206718Y1287366D02*
X2203190D01*
X2207002Y1286916D02*
X2203472D01*
X2207286Y1286466D02*
X2203754D01*
X2214054Y1304971D02*
X2210571D01*
X2214354Y1304521D02*
X2210871D01*
X2214654Y1304071D02*
X2211171D01*
X2214955Y1303621D02*
X2211472D01*
X2215255Y1303171D02*
X2211772D01*
X2215555Y1302721D02*
X2212072D01*
X2215855Y1302271D02*
X2212372D01*
X2216155Y1301821D02*
X2212672D01*
X2216455Y1301371D02*
X2212973D01*
X2216756Y1300921D02*
X2213273D01*
X2217056Y1300471D02*
X2213573D01*
X2217356Y1300021D02*
X2213873D01*
X2217656Y1299571D02*
X2214173D01*
X2217956Y1299121D02*
X2214473D01*
X2221650Y1299119D02*
X2218221D01*
X2221954Y1299569D02*
X2218521D01*
X2222259Y1300019D02*
X2218822D01*
X2222563Y1300469D02*
X2219122D01*
X2222868Y1300919D02*
X2219422D01*
X2223172Y1301369D02*
X2219722D01*
X2223474Y1301819D02*
X2220023D01*
X2223771Y1302269D02*
X2220323D01*
X2224067Y1302719D02*
X2220623D01*
X2224364Y1303169D02*
X2220924D01*
X2224661Y1303619D02*
X2221224D01*
X2224957Y1304069D02*
X2221524D01*
X2225254Y1304519D02*
X2221824D01*
X2225551Y1304969D02*
X2222125D01*
X2213915Y1286466D02*
X2210407D01*
X2214197Y1286916D02*
X2210690D01*
X2214479Y1287366D02*
X2210973D01*
X2214761Y1287816D02*
X2211256D01*
X2215043Y1288266D02*
X2211539D01*
X2215325Y1288716D02*
X2211822D01*
X2215607Y1289166D02*
X2212105D01*
X2215889Y1289616D02*
X2212387D01*
X2216171Y1290066D02*
X2212670D01*
X2216452Y1290516D02*
X2212953D01*
X2216734Y1290966D02*
X2213236D01*
X2217016Y1291416D02*
X2213519D01*
X2217298Y1291866D02*
X2213802D01*
X2217580Y1292316D02*
X2214085D01*
X2217862Y1292766D02*
X2214368D01*
X2221524Y1293216D02*
X2214651D01*
X2221240Y1293666D02*
X2214934D01*
X2221235Y1298166D02*
X2214947D01*
X2220956Y1294116D02*
X2215217D01*
X2220950Y1297716D02*
X2215222D01*
X2220664Y1297266D02*
X2215497D01*
X2220672Y1294566D02*
X2215500D01*
X2220379Y1296816D02*
X2215774D01*
X2220388Y1295016D02*
X2215783D01*
X2220104Y1295466D02*
X2216066D01*
X2220093Y1296366D02*
X2216070D01*
X2219820Y1295916D02*
X2216349D01*
X2221809Y1292766D02*
X2218307D01*
X2222093Y1292316D02*
X2218589D01*
X2222377Y1291866D02*
X2218871D01*
X2222661Y1291416D02*
X2219153D01*
X2222945Y1290966D02*
X2219435D01*
X2223229Y1290516D02*
X2219717D01*
X2223513Y1290066D02*
X2219999D01*
X2223797Y1289616D02*
X2220280D01*
X2224081Y1289166D02*
X2220562D01*
X2224365Y1288716D02*
X2220844D01*
X2224649Y1288266D02*
X2221126D01*
X2224933Y1287816D02*
X2221408D01*
X2225218Y1287366D02*
X2221690D01*
X2225502Y1286916D02*
X2221972D01*
X2225786Y1286466D02*
X2222254D01*
G54D15*
X2058257Y1787208D02*
Y1783270D01*
Y1787208D02*
X2060030D01*
X2058257Y1785333D02*
X2059348D01*
X2061257Y1787208D02*
Y1783270D01*
X2062484Y1787208D02*
Y1783270D01*
Y1787208D02*
X2063439D01*
X2063848Y1787020*
X2063848D02*
X2064120Y1786645D01*
X2064120D02*
X2064257Y1786270D01*
X2064257D02*
X2064393Y1785708D01*
X2064393D02*
Y1784770D01*
X2064393D02*
X2064257Y1784208D01*
X2064120Y1783833*
X2064120D02*
X2063848Y1783458D01*
X2063439Y1783270*
X2063439D02*
X2062484D01*
X2066984Y1787208D02*
X2065620Y1784583D01*
X2065620D02*
X2067666D01*
X2066984Y1787208D02*
Y1783270D01*
X1860757Y1832208D02*
Y1828270D01*
Y1832208D02*
X1862530D01*
X1860757Y1830333D02*
X1861848D01*
X1863757Y1832208D02*
Y1828270D01*
X1864984Y1832208D02*
Y1828270D01*
Y1832208D02*
X1865939D01*
X1866348Y1832020*
X1866348D02*
X1866620Y1831645D01*
X1866620D02*
X1866757Y1831270D01*
X1866757D02*
X1866893Y1830708D01*
X1866893D02*
Y1829770D01*
X1866893D02*
X1866757Y1829208D01*
X1866620Y1828833*
X1866620D02*
X1866348Y1828458D01*
X1865939Y1828270*
X1865939D02*
X1864984D01*
X1869893Y1832208D02*
X1868530D01*
X1868393Y1830520*
X1868393D02*
X1868530Y1830708D01*
X1868939Y1830895*
X1868939D02*
X1869348D01*
X1869348D02*
X1869757Y1830708D01*
X1870030Y1830333*
X1870166Y1829770*
X1870166D02*
X1870030Y1829395D01*
X1870030D02*
X1869893Y1828833D01*
X1869893D02*
X1869620Y1828458D01*
X1869620D02*
X1869211Y1828270D01*
X1869211D02*
X1868802D01*
X1868802D02*
X1868393Y1828458D01*
X1868393D02*
X1868257Y1828645D01*
X1868257D02*
X1868120Y1829020D01*
X1810893Y1732208D02*
Y1728270D01*
Y1732208D02*
X1812666D01*
X1810893Y1730333D02*
X1811984D01*
X1813893Y1732208D02*
Y1728270D01*
X1815120Y1732208D02*
Y1728270D01*
Y1732208D02*
X1816075D01*
X1816075D02*
X1816484Y1732020D01*
X1816484D02*
X1816757Y1731645D01*
X1816757D02*
X1816893Y1731270D01*
X1816893D02*
X1817030Y1730708D01*
Y1729770*
X1817030D02*
X1816893Y1729208D01*
X1816893D02*
X1816757Y1728833D01*
X1816484Y1728458*
X1816484D02*
X1816075Y1728270D01*
X1816075D02*
X1815120D01*
X1819893Y1731645D02*
X1819757Y1732020D01*
X1819757D02*
X1819348Y1732208D01*
X1819075*
X1819075D02*
X1818666Y1732020D01*
X1818666D02*
X1818393Y1731458D01*
X1818393D02*
X1818257Y1730520D01*
X1818257D02*
Y1729583D01*
X1818393Y1728833*
X1818393D02*
X1818666Y1728458D01*
X1819075Y1728270*
X1819075D02*
X1819211D01*
X1819211D02*
X1819620Y1728458D01*
X1819620D02*
X1819893Y1728833D01*
X1819893D02*
X1820030Y1729395D01*
X1820030D02*
Y1729583D01*
X1819893Y1730145*
X1819893D02*
X1819620Y1730520D01*
X1819620D02*
X1819211Y1730708D01*
X1819211D02*
X1819075D01*
X1819075D02*
X1818666Y1730520D01*
X1818666D02*
X1818393Y1730145D01*
X1818393D02*
X1818257Y1729583D01*
G54D16*
X2474734Y1299414D02*
X2475416Y1299883D01*
X2476438Y1301289*
X2476438D02*
Y1291445D01*
G54D18*
X2205734Y1272367D02*
Y1267445D01*
Y1272367D02*
X2206927D01*
X2206927D02*
X2207438Y1272133D01*
X2207438D02*
X2207779Y1271664D01*
X2207779D02*
X2207950Y1271195D01*
X2207950D02*
X2208120Y1270492D01*
X2208120D02*
Y1269320D01*
X2208120D02*
X2207950Y1268617D01*
X2207950D02*
X2207779Y1268148D01*
X2207779D02*
X2207438Y1267680D01*
X2207438D02*
X2206927Y1267445D01*
X2206927D02*
X2205734D01*
X2211018Y1272367D02*
X2209654Y1267445D01*
X2211018Y1272367D02*
X2212381Y1267445D01*
X2210166Y1269086D02*
X2211870D01*
X2215109Y1272367D02*
Y1267445D01*
X2213916Y1272367D02*
X2216302D01*
X2217836D02*
Y1267445D01*
Y1272367D02*
X2220052D01*
X2217836Y1270023D02*
X2219200D01*
X2217836Y1267445D02*
X2220052D01*
X2221756Y1270727D02*
X2221586Y1270492D01*
X2221586D02*
X2221756Y1270258D01*
X2221756D02*
X2221927Y1270492D01*
X2221927D02*
X2221756Y1270727D01*
Y1267914D02*
X2221586Y1267680D01*
X2221586D02*
X2221756Y1267445D01*
X2221756D02*
X2221927Y1267680D01*
X2221756Y1267914*
G54D22*
X1744620Y1979781D02*
X1738938D01*
X1738938D02*
X1738370Y1972750D01*
X1738370D02*
X1738938Y1973531D01*
X1738938D02*
X1740643Y1974312D01*
X1740643D02*
X1742347D01*
X1742347D02*
X1744052Y1973531D01*
X1745188Y1971968*
X1745188D02*
X1745756Y1969625D01*
X1745756D02*
X1745188Y1968062D01*
X1745188D02*
X1744620Y1965718D01*
X1744620D02*
X1743484Y1964156D01*
X1741779Y1963375*
X1741779D02*
X1740075D01*
X1738370Y1964156*
X1738370D02*
X1737802Y1964937D01*
X1737802D02*
X1737234Y1966500D01*
X1566552Y1977437D02*
X1565984Y1979000D01*
X1564279Y1979781*
X1564279D02*
X1563143D01*
X1561438Y1979000*
X1561438D02*
X1560302Y1976656D01*
X1559734Y1972750*
Y1968843*
X1559734D02*
X1560302Y1965718D01*
X1560302D02*
X1561438Y1964156D01*
X1561438D02*
X1563143Y1963375D01*
X1563711*
X1563711D02*
X1565416Y1964156D01*
X1566552Y1965718*
X1566552D02*
X1567120Y1968062D01*
X1567120D02*
Y1968843D01*
X1567120D02*
X1566552Y1971187D01*
X1566552D02*
X1565416Y1972750D01*
X1563711Y1973531*
X1563711D02*
X1563143D01*
X1561438Y1972750*
X1561438D02*
X1560302Y1971187D01*
X1560302D02*
X1559734Y1968843D01*
X1484734Y1877852D02*
Y1861445D01*
Y1877852D02*
X1488711D01*
X1488711D02*
X1490416Y1877070D01*
X1490416D02*
X1491552Y1875508D01*
X1492120Y1873945*
X1492120D02*
X1492688Y1871602D01*
X1492688D02*
Y1867695D01*
X1492688D02*
X1492120Y1865352D01*
X1492120D02*
X1491552Y1863789D01*
X1491552D02*
X1490416Y1862227D01*
X1488711Y1861445*
X1488711D02*
X1484734D01*
Y1502852D02*
Y1486445D01*
Y1502852D02*
X1489847D01*
X1489847D02*
X1491552Y1502070D01*
X1491552D02*
X1492120Y1501289D01*
X1492120D02*
X1492688Y1499727D01*
X1492688D02*
Y1498164D01*
X1492688D02*
X1492120Y1496602D01*
X1492120D02*
X1491552Y1495820D01*
X1491552D02*
X1489847Y1495039D01*
X1484734D02*
X1489847D01*
X1489847D02*
X1491552Y1494258D01*
X1492120Y1493477*
X1492120D02*
X1492688Y1491914D01*
X1492688D02*
Y1489570D01*
X1492688D02*
X1492120Y1488008D01*
X1492120D02*
X1491552Y1487227D01*
X1489847Y1486445*
X1489847D02*
X1484734D01*
X1489279Y1315352D02*
X1484734Y1298945D01*
X1489279Y1315352D02*
X1493825Y1298945D01*
X1486438Y1304414D02*
X1492120D01*
X1493256Y1686445D02*
X1492688Y1688008D01*
X1492688D02*
X1491552Y1689570D01*
X1491552D02*
X1490416Y1690352D01*
X1488143*
X1487006Y1689570*
X1487006D02*
X1485870Y1688008D01*
X1485870D02*
X1485302Y1686445D01*
X1485302D02*
X1484734Y1684102D01*
Y1680195*
X1484734D02*
X1485302Y1677852D01*
X1485870Y1676289*
X1485870D02*
X1487006Y1674727D01*
X1487006D02*
X1488143Y1673945D01*
X1488143D02*
X1490416D01*
X1490416D02*
X1491552Y1674727D01*
X1492688Y1676289*
X1492688D02*
X1493256Y1677852D01*
X2504734Y1879781D02*
Y1863375D01*
Y1879781D02*
X2508711D01*
X2508711D02*
X2510416Y1879000D01*
X2511552Y1877437*
X2511552D02*
X2512120Y1875875D01*
X2512120D02*
X2512688Y1873531D01*
X2512688D02*
Y1869625D01*
X2512688D02*
X2512120Y1867281D01*
X2512120D02*
X2511552Y1865718D01*
X2511552D02*
X2510416Y1864156D01*
X2508711Y1863375*
X2508711D02*
X2504734D01*
X2449734Y1976656D02*
X2450870Y1977437D01*
X2450870D02*
X2452575Y1979781D01*
Y1963375*
X2272802Y1975875D02*
Y1976656D01*
X2273370Y1978218*
X2273370D02*
X2273938Y1979000D01*
X2273938D02*
X2275075Y1979781D01*
X2277347*
X2277347D02*
X2278484Y1979000D01*
X2279052Y1978218*
X2279052D02*
X2279620Y1976656D01*
X2279620D02*
Y1975093D01*
X2279620D02*
X2279052Y1973531D01*
X2277916Y1971187*
X2277916D02*
X2272234Y1963375D01*
X2280188*
X2088370Y1979781D02*
X2094620D01*
X2094620D02*
X2091211Y1973531D01*
X2091211D02*
X2092916D01*
X2094052Y1972750*
X2094620Y1971968*
X2094620D02*
X2095188Y1969625D01*
X2095188D02*
Y1968062D01*
X2095188D02*
X2094620Y1965718D01*
X2094620D02*
X2093484Y1964156D01*
X2091779Y1963375*
X2091779D02*
X2090075D01*
X2088370Y1964156*
X2088370D02*
X2087802Y1964937D01*
X2087802D02*
X2087234Y1966500D01*
X1920416Y1979781D02*
X1914734Y1968843D01*
X1914734D02*
X1923256D01*
X1920416Y1979781D02*
Y1963375D01*
X2509279Y1317281D02*
X2504734Y1300875D01*
X2509279Y1317281D02*
X2513825Y1300875D01*
X2506438Y1306343D02*
X2512120D01*
X2504734Y1504781D02*
Y1488375D01*
Y1504781D02*
X2509847D01*
X2509847D02*
X2511552Y1504000D01*
X2512120Y1503218*
X2512120D02*
X2512688Y1501656D01*
X2512688D02*
Y1500093D01*
X2512688D02*
X2512120Y1498531D01*
X2512120D02*
X2511552Y1497750D01*
X2509847Y1496968*
X2504734D02*
X2509847D01*
X2509847D02*
X2511552Y1496187D01*
X2511552D02*
X2512120Y1495406D01*
X2512120D02*
X2512688Y1493843D01*
X2512688D02*
Y1491500D01*
X2512688D02*
X2512120Y1489937D01*
X2512120D02*
X2511552Y1489156D01*
X2509847Y1488375*
X2509847D02*
X2504734D01*
X2513256Y1688375D02*
X2512688Y1689937D01*
X2512688D02*
X2511552Y1691500D01*
X2510416Y1692281*
X2508143*
X2507006Y1691500*
X2507006D02*
X2505870Y1689937D01*
X2505870D02*
X2505302Y1688375D01*
X2504734Y1686031*
Y1682125*
X2505302Y1679781*
X2505870Y1678218*
X2505870D02*
X2507006Y1676656D01*
X2507006D02*
X2508143Y1675875D01*
X2510416*
X2511552Y1676656*
X2512688Y1678218*
X2512688D02*
X2513256Y1679781D01*
G54D23*
X2236103Y1308270D02*
G03X2236103I-374D01*
G01X2231925D02*
G03X2231925I-374D01*
G01X2227747D02*
G03X2227747I-374D01*
G01X2234014Y1306115D02*
G03X2234014I-374D01*
G01X2229836D02*
G03X2229836I-374D01*
G01X2238192D02*
G03X2238192I-374D01*
G01X2227615Y1282474D02*
G03X2227615I-374D01*
G01X2231794D02*
G03X2231794I-374D01*
G01X2229705Y1284629D02*
G03X2229705I-374D01*
G01X2233883D02*
G03X2233883I-374D01*
G01X2235972Y1282474D02*
G03X2235972I-374D01*
G01X2238061Y1284629D02*
G03X2238061I-374D01*
G54D24*
G01X2218234Y1264398D02*
X2218529Y1264602D01*
X2218529D02*
X2218972Y1265211D01*
X2218972D02*
Y1260945D01*
X2220302Y1264398D02*
X2220597Y1264602D01*
X2220597D02*
X2221041Y1265211D01*
Y1260945*
X2222370Y1262773D02*
X2225029D01*
X2228279Y1263789D02*
X2228131Y1263180D01*
X2228131D02*
X2227836Y1262773D01*
X2227836D02*
X2227393Y1262570D01*
X2227393D02*
X2227245D01*
X2227245D02*
X2226802Y1262773D01*
X2226802D02*
X2226506Y1263180D01*
X2226506D02*
X2226359Y1263789D01*
X2226359D02*
Y1263992D01*
X2226359D02*
X2226506Y1264602D01*
X2226506D02*
X2226802Y1265008D01*
X2227245Y1265211*
X2227245D02*
X2227393D01*
X2227836Y1265008*
X2227836D02*
X2228131Y1264602D01*
X2228131D02*
X2228279Y1263789D01*
X2228279D02*
Y1262773D01*
X2228279D02*
X2228131Y1261758D01*
X2228131D02*
X2227836Y1261148D01*
X2227836D02*
X2227393Y1260945D01*
X2227393D02*
X2227097D01*
X2227097D02*
X2226654Y1261148D01*
X2226654D02*
X2226506Y1261555D01*
X2229609Y1262773D02*
X2232268D01*
X2234484Y1265211D02*
X2234041Y1265008D01*
X2233745Y1264398*
X2233745D02*
X2233597Y1263383D01*
X2233597D02*
Y1262773D01*
X2233597D02*
X2233745Y1261758D01*
X2233745D02*
X2234041Y1261148D01*
X2234041D02*
X2234484Y1260945D01*
X2234484D02*
X2234779D01*
X2234779D02*
X2235222Y1261148D01*
X2235222D02*
X2235518Y1261758D01*
X2235666Y1262773*
X2235666D02*
Y1263383D01*
X2235518Y1264398*
X2235518D02*
X2235222Y1265008D01*
X2235222D02*
X2234779Y1265211D01*
X2234779D02*
X2234484D01*
X2238916Y1263789D02*
X2238768Y1263180D01*
X2238472Y1262773*
X2238472D02*
X2238029Y1262570D01*
X2238029D02*
X2237881D01*
X2237881D02*
X2237438Y1262773D01*
X2237438D02*
X2237143Y1263180D01*
X2236995Y1263789*
X2236995D02*
Y1263992D01*
X2236995D02*
X2237143Y1264602D01*
X2237438Y1265008*
X2237438D02*
X2237881Y1265211D01*
X2237881D02*
X2238029D01*
X2238029D02*
X2238472Y1265008D01*
X2238472D02*
X2238768Y1264602D01*
X2238916Y1263789*
X2238916D02*
Y1262773D01*
X2238916D02*
X2238768Y1261758D01*
X2238472Y1261148*
X2238472D02*
X2238029Y1260945D01*
X2238029D02*
X2237734D01*
X2237734D02*
X2237291Y1261148D01*
X2237291D02*
X2237143Y1261555D01*
X2218234Y1247711D02*
X2220302Y1243445D01*
Y1247711D02*
X2218234Y1243445D01*
X2221631Y1247711D02*
X2223700Y1243445D01*
Y1247711D02*
X2221631Y1243445D01*
X2225029Y1245273D02*
X2227688D01*
X2229018Y1247711D02*
X2231086Y1243445D01*
Y1247711D02*
X2229018Y1243445D01*
X2232416Y1247711D02*
X2234484Y1243445D01*
Y1247711D02*
X2232416Y1243445D01*
X2235813Y1245273D02*
X2238472D01*
X2239802Y1247711D02*
X2241870Y1243445D01*
Y1247711D02*
X2239802Y1243445D01*
X2243200Y1247711D02*
X2245268Y1243445D01*
Y1247711D02*
X2243200Y1243445D01*
X2218234Y1232711D02*
X2220302Y1228445D01*
Y1232711D02*
X2218234Y1228445D01*
X2221631Y1232711D02*
X2223700Y1228445D01*
Y1232711D02*
X2221631Y1228445D01*
X2225029Y1230273D02*
X2227688D01*
X2229018Y1232711D02*
X2231086Y1228445D01*
Y1232711D02*
X2229018Y1228445D01*
X2232416Y1232711D02*
X2234484Y1228445D01*
Y1232711D02*
X2232416Y1228445D01*
X2235813Y1230273D02*
X2238472D01*
X2239802Y1232711D02*
X2241870Y1228445D01*
Y1232711D02*
X2239802Y1228445D01*
X2243200Y1232711D02*
X2245268Y1228445D01*
Y1232711D02*
X2243200Y1228445D01*
G54D25*
X2364221Y1312056D02*
X2362585Y1306150D01*
X2364221Y1312056D02*
X2365857Y1306150D01*
X2363198Y1308119D02*
X2365244D01*
X2370562Y1311213D02*
X2370153Y1311775D01*
X2370153D02*
X2369539Y1312056D01*
X2369539D02*
X2368721D01*
X2368721D02*
X2368107Y1311775D01*
X2368107D02*
X2367698Y1311213D01*
X2367698D02*
Y1310650D01*
X2367698D02*
X2367903Y1310088D01*
X2368107Y1309806*
X2368107D02*
X2368516Y1309525D01*
X2368516D02*
X2369744Y1308963D01*
X2370153Y1308681*
X2370153D02*
X2370357Y1308400D01*
X2370357D02*
X2370562Y1307838D01*
Y1306994*
X2370153Y1306431*
X2370153D02*
X2369539Y1306150D01*
X2369539D02*
X2368721D01*
X2368721D02*
X2368107Y1306431D01*
X2368107D02*
X2367698Y1306994D01*
X2375266Y1311213D02*
X2374857Y1311775D01*
X2374857D02*
X2374244Y1312056D01*
X2374244D02*
X2373425D01*
X2373425D02*
X2372812Y1311775D01*
X2372812D02*
X2372403Y1311213D01*
Y1310650*
X2372403D02*
X2372607Y1310088D01*
X2372607D02*
X2372812Y1309806D01*
X2372812D02*
X2373221Y1309525D01*
X2373221D02*
X2374448Y1308963D01*
X2374448D02*
X2374857Y1308681D01*
X2374857D02*
X2375062Y1308400D01*
X2375062D02*
X2375266Y1307838D01*
X2375266D02*
Y1306994D01*
X2375266D02*
X2374857Y1306431D01*
X2374857D02*
X2374244Y1306150D01*
X2374244D02*
X2373425D01*
X2373425D02*
X2372812Y1306431D01*
X2372812D02*
X2372403Y1306994D01*
X2377107Y1312056D02*
Y1306150D01*
Y1312056D02*
X2379766D01*
X2377107Y1309244D02*
X2378744D01*
X2377107Y1306150D02*
X2379766D01*
X2381607Y1312056D02*
Y1306150D01*
Y1312056D02*
X2383244Y1306150D01*
X2384880Y1312056D02*
X2383244Y1306150D01*
X2384880Y1312056D02*
Y1306150D01*
X2386721Y1312056D02*
Y1306150D01*
Y1312056D02*
X2388562D01*
X2388562D02*
X2389175Y1311775D01*
X2389175D02*
X2389380Y1311494D01*
X2389585Y1310931*
X2389585D02*
Y1310369D01*
X2389380Y1309806*
X2389380D02*
X2389175Y1309525D01*
X2389175D02*
X2388562Y1309244D01*
X2386721D02*
X2388562D01*
X2389175Y1308963*
X2389175D02*
X2389380Y1308681D01*
X2389380D02*
X2389585Y1308119D01*
Y1307275*
X2389585D02*
X2389380Y1306713D01*
X2389175Y1306431*
X2389175D02*
X2388562Y1306150D01*
X2388562D02*
X2386721D01*
X2391425Y1312056D02*
Y1306150D01*
X2391425D02*
X2393880D01*
X2395721Y1312056D02*
X2397357Y1309244D01*
X2397357D02*
Y1306150D01*
X2398994Y1312056D02*
X2397357Y1309244D01*
X2404516Y1312056D02*
Y1306150D01*
Y1312056D02*
X2407380Y1306150D01*
Y1312056D02*
Y1306150D01*
X2409221Y1312056D02*
Y1307838D01*
X2409425Y1306994*
X2409425D02*
X2409835Y1306431D01*
X2409835D02*
X2410448Y1306150D01*
X2410448D02*
X2410857D01*
X2410857D02*
X2411471Y1306431D01*
X2411471D02*
X2411880Y1306994D01*
X2412085Y1307838*
Y1312056*
X2413925D02*
Y1306150D01*
Y1312056D02*
X2415562Y1306150D01*
X2417198Y1312056D02*
X2415562Y1306150D01*
X2417198Y1312056D02*
Y1306150D01*
X2419039Y1312056D02*
Y1306150D01*
Y1312056D02*
X2420880D01*
X2420880D02*
X2421494Y1311775D01*
X2421494D02*
X2421698Y1311494D01*
X2421698D02*
X2421903Y1310931D01*
X2421903D02*
Y1310369D01*
X2421698Y1309806*
X2421698D02*
X2421494Y1309525D01*
X2421494D02*
X2420880Y1309244D01*
X2419039D02*
X2420880D01*
X2421494Y1308963*
X2421698Y1308681*
X2421698D02*
X2421903Y1308119D01*
Y1307275*
X2421903D02*
X2421698Y1306713D01*
X2421698D02*
X2421494Y1306431D01*
X2421494D02*
X2420880Y1306150D01*
X2420880D02*
X2419039D01*
X2423744Y1312056D02*
Y1306150D01*
Y1312056D02*
X2426403D01*
X2423744Y1309244D02*
X2425380D01*
X2423744Y1306150D02*
X2426403D01*
X2428244Y1312056D02*
Y1306150D01*
Y1312056D02*
X2430085D01*
X2430085D02*
X2430698Y1311775D01*
X2430698D02*
X2430903Y1311494D01*
X2431107Y1310931*
X2431107D02*
Y1310369D01*
X2431107D02*
X2430903Y1309806D01*
X2430903D02*
X2430698Y1309525D01*
X2430698D02*
X2430085Y1309244D01*
X2428244*
X2429675D02*
X2431107Y1306150D01*
X2433153Y1310088D02*
X2432948Y1309806D01*
X2432948D02*
X2433153Y1309525D01*
X2433153D02*
X2433357Y1309806D01*
X2433357D02*
X2433153Y1310088D01*
Y1306713D02*
X2432948Y1306431D01*
X2432948D02*
X2433153Y1306150D01*
X2433153D02*
X2433357Y1306431D01*
X2433357D02*
X2433153Y1306713D01*
X2151291Y1266695D02*
X2151120Y1267164D01*
X2151120D02*
X2150779Y1267633D01*
X2150779D02*
X2150438Y1267867D01*
X2150438D02*
X2149756D01*
X2149756D02*
X2149416Y1267633D01*
X2149075Y1267164*
X2149075D02*
X2148904Y1266695D01*
X2148904D02*
X2148734Y1265992D01*
X2148734D02*
Y1264820D01*
X2148734D02*
X2148904Y1264117D01*
X2148904D02*
X2149075Y1263648D01*
X2149075D02*
X2149416Y1263180D01*
X2149756Y1262945*
X2149756D02*
X2150438D01*
X2150438D02*
X2150779Y1263180D01*
X2150779D02*
X2151120Y1263648D01*
X2151120D02*
X2151291Y1264117D01*
X2151291D02*
Y1264820D01*
X2150438D02*
X2151291D01*
X2152825D02*
X2154870D01*
X2154870D02*
Y1265289D01*
X2154870D02*
X2154700Y1265758D01*
X2154529Y1265992*
X2154529D02*
X2154188Y1266227D01*
X2154188D02*
X2153677D01*
X2153336Y1265992*
X2153336D02*
X2152995Y1265523D01*
X2152995D02*
X2152825Y1264820D01*
X2152825D02*
Y1264352D01*
X2152995Y1263648*
X2152995D02*
X2153336Y1263180D01*
X2153336D02*
X2153677Y1262945D01*
X2153677D02*
X2154188D01*
X2154188D02*
X2154529Y1263180D01*
X2154529D02*
X2154870Y1263648D01*
X2156404Y1266227D02*
Y1262945D01*
Y1265289D02*
X2156916Y1265992D01*
X2156916D02*
X2157256Y1266227D01*
X2157256D02*
X2157768D01*
X2158109Y1265992*
X2158109D02*
X2158279Y1265289D01*
X2158279D02*
Y1262945D01*
X2159813Y1264820D02*
X2161859D01*
X2161859D02*
Y1265289D01*
X2161859D02*
X2161688Y1265758D01*
X2161688D02*
X2161518Y1265992D01*
X2161518D02*
X2161177Y1266227D01*
X2160666*
X2160325Y1265992*
X2160325D02*
X2159984Y1265523D01*
X2159984D02*
X2159813Y1264820D01*
X2159813D02*
Y1264352D01*
X2159813D02*
X2159984Y1263648D01*
X2159984D02*
X2160325Y1263180D01*
X2160666Y1262945*
X2160666D02*
X2161177D01*
X2161177D02*
X2161518Y1263180D01*
X2161859Y1263648*
X2166461Y1267867D02*
Y1262945D01*
Y1267867D02*
X2167825Y1262945D01*
X2169188Y1267867D02*
X2167825Y1262945D01*
X2169188Y1267867D02*
Y1262945D01*
X2172768Y1265523D02*
X2172427Y1265992D01*
X2172427D02*
X2172086Y1266227D01*
X2172086D02*
X2171575D01*
X2171234Y1265992*
X2171234D02*
X2170893Y1265523D01*
X2170893D02*
X2170722Y1264820D01*
X2170722D02*
Y1264352D01*
X2170722D02*
X2170893Y1263648D01*
X2170893D02*
X2171234Y1263180D01*
X2171575Y1262945*
X2171575D02*
X2172086D01*
X2172086D02*
X2172427Y1263180D01*
X2172768Y1263648*
X2174302Y1267867D02*
Y1262945D01*
X2176688Y1267867D02*
X2174302Y1264586D01*
X2175154Y1265758D02*
X2176688Y1262945D01*
X2178222Y1264820D02*
X2180268D01*
X2180268D02*
Y1265289D01*
X2180268D02*
X2180097Y1265758D01*
X2180097D02*
X2179927Y1265992D01*
X2179927D02*
X2179586Y1266227D01*
X2179586D02*
X2179075D01*
X2178734Y1265992*
X2178734D02*
X2178393Y1265523D01*
X2178393D02*
X2178222Y1264820D01*
X2178222D02*
Y1264352D01*
X2178222D02*
X2178393Y1263648D01*
X2178393D02*
X2178734Y1263180D01*
X2179075Y1262945*
X2179075D02*
X2179586D01*
X2179586D02*
X2179927Y1263180D01*
X2180268Y1263648*
X2181802Y1266227D02*
Y1262945D01*
Y1265289D02*
X2182313Y1265992D01*
X2182313D02*
X2182654Y1266227D01*
X2182654D02*
X2183166D01*
X2183506Y1265992*
X2183506D02*
X2183677Y1265289D01*
X2183677D02*
Y1262945D01*
X2185211Y1266227D02*
Y1262945D01*
Y1265289D02*
X2185722Y1265992D01*
X2185722D02*
X2186063Y1266227D01*
X2186063D02*
X2186575D01*
X2186916Y1265992*
X2186916D02*
X2187086Y1265289D01*
X2187086D02*
Y1262945D01*
X2190666Y1266227D02*
Y1262945D01*
Y1265523D02*
X2190325Y1265992D01*
X2190325D02*
X2189984Y1266227D01*
X2189472*
X2189472D02*
X2189131Y1265992D01*
X2189131D02*
X2188791Y1265523D01*
X2188791D02*
X2188620Y1264820D01*
X2188620D02*
Y1264352D01*
X2188620D02*
X2188791Y1263648D01*
X2188791D02*
X2189131Y1263180D01*
X2189131D02*
X2189472Y1262945D01*
X2189472D02*
X2189984D01*
X2189984D02*
X2190325Y1263180D01*
X2190666Y1263648*
G54D42*
X2163575Y1939770D02*
Y1887270D01*
Y1939770D02*
X2147211D01*
X2147211D02*
X2141757Y1937270D01*
X2141757D02*
X2139939Y1934770D01*
X2139939D02*
X2138120Y1929770D01*
X2138120D02*
Y1922270D01*
X2138120D02*
X2139939Y1917270D01*
X2139939D02*
X2141757Y1914770D01*
X2141757D02*
X2147211Y1912270D01*
X2147211D02*
X2163575D01*
X2121757Y1939770D02*
Y1887270D01*
Y1939770D02*
X2105393D01*
X2105393D02*
X2099939Y1937270D01*
X2099939D02*
X2098120Y1934770D01*
X2098120D02*
X2096302Y1929770D01*
X2096302D02*
Y1924770D01*
X2096302D02*
X2098120Y1919770D01*
X2098120D02*
X2099939Y1917270D01*
X2099939D02*
X2105393Y1914770D01*
X2105393D02*
X2121757D01*
X2109030D02*
X2096302Y1887270D01*
X2079939Y1939770D02*
Y1887270D01*
Y1939770D02*
X2056302D01*
X2079939Y1914770D02*
X2065393D01*
X2079939Y1887270D02*
X2056302D01*
X2039939Y1939770D02*
Y1887270D01*
X2039939D02*
X2018120D01*
X2001757Y1939770D02*
Y1887270D01*
X1985393Y1939770D02*
Y1887270D01*
Y1939770D02*
X1970848Y1887270D01*
X1956302Y1939770D02*
X1970848Y1887270D01*
X1956302Y1939770D02*
Y1887270D01*
X1939939Y1939770D02*
Y1887270D01*
X1923575Y1939770D02*
Y1887270D01*
Y1939770D02*
X1898120Y1887270D01*
Y1939770D02*
Y1887270D01*
X1867211Y1939770D02*
X1881757Y1887270D01*
X1867211Y1939770D02*
X1852666Y1887270D01*
X1876302Y1904770D02*
X1858120D01*
X1836302Y1939770D02*
Y1887270D01*
Y1939770D02*
X1819939D01*
X1819939D02*
X1814484Y1937270D01*
X1814484D02*
X1812666Y1934770D01*
X1812666D02*
X1810848Y1929770D01*
X1810848D02*
Y1924770D01*
X1810848D02*
X1812666Y1919770D01*
X1812666D02*
X1814484Y1917270D01*
X1814484D02*
X1819939Y1914770D01*
X1819939D02*
X1836302D01*
X1823575D02*
X1810848Y1887270D01*
X1794484Y1939770D02*
X1779939Y1914770D01*
X1779939D02*
Y1887270D01*
X1765393Y1939770D02*
X1779939Y1914770D01*
G74*
X0Y0D02*
M02*
