*
*
G04 PowerPCB (Build Number 501.037) generated Gerber (RS-274-X) file*
G04 PC Version=2.1*
*
%IN "83232-A.pcb"*%
*
%MOIN*%
*
%FSLAX35Y35*%
*
*
*
*
G04 PC Standard Apertures*
*
*
G04 Thermal Relief Aperture macro.*
%AMTER*
1,1,$1,0,0*
1,0,$1-$2,0,0*
21,0,$3,$4,0,0,45*
21,0,$3,$4,0,0,135*
%
*
*
G04 Annular Aperture macro.*
%AMANN*
1,1,$1,0,0*
1,0,$2,0,0*
%
*
*
G04 Odd Aperture macro.*
%AMODD*
1,1,$1,0,0*
1,0,$1-0.005,0,0*
%
*
*
G04 PC Custom Aperture Macros*
*
*
*
*
*
*
G04 PC Aperture Table*
*
%ADD010C,0.01*%
%ADD014C,0.005*%
%ADD016C,0.015*%
%ADD018C,0.008*%
%ADD022C,0.025*%
%ADD023C,0.0075*%
%ADD024C,0.007*%
%ADD025C,0.009*%
%ADD042C,0.05*%
%ADD046C,0.004*%
*
*
*
*
G04 PC Custom Flashes*
G04 Layer Name 83232-A.pcb - flashes*
%LPD*%
*
*
G04 PC Circuitry*
G04 Layer Name 83232-A.pcb - circuitry*
%LPD*%
*
G54D10*
G01X1928123Y1841356D02*
Y1770490D01*
Y1754742D02*
G75*
G03Y1770490I0J7874D01*
G01Y1754742D02*
Y1683876D01*
X1928123D02*
X1990131D01*
Y1697655*
X1994068D02*
G03X1990131I-1968J0D01*
G01X1994068D02*
Y1683876D01*
X2194265*
Y1754742*
Y1770490D02*
G03Y1754742I0J-7873D01*
G01Y1770490D02*
Y1841356D01*
X2194265D02*
X1928123D01*
X2497234Y1210987D02*
Y1960987D01*
X1504734*
Y1210987*
X2497234*
X1646750Y1985987D02*
Y1960987D01*
X1825250Y1985987D02*
Y1960987D01*
X1501250Y1398487D02*
X1476250D01*
X1501250Y1585987D02*
X1476250D01*
X1501250Y1773487D02*
X1476250D01*
X2323750Y1910987D02*
X2497250D01*
X2323750Y1920987D02*
X2497250D01*
X2323750Y1940987D02*
X2497250D01*
X2323750Y1950987D02*
X2497250D01*
X2323750Y1930987D02*
X2497250D01*
Y1960987D02*
X2323750D01*
Y1900987*
X2497250*
Y1960987*
X2473750Y1950987D02*
Y1900987D01*
X2428750Y1950987D02*
Y1900987D01*
X2353750Y1950987D02*
Y1900987D01*
X2360250Y1985987D02*
Y1960987D01*
X2003750Y1985987D02*
Y1960987D01*
X2181750Y1985987D02*
Y1960987D01*
X2523750Y1398487D02*
X2498750D01*
X2523750Y1773487D02*
X2498750D01*
X2523750Y1583487D02*
X2498750D01*
X2388734Y1959120D02*
Y1952558D01*
Y1959120D02*
X2390779D01*
X2390779D02*
X2391461Y1958808D01*
X2391461D02*
X2391688Y1958495D01*
X2391688D02*
X2391916Y1957870D01*
X2391916D02*
Y1957245D01*
X2391916D02*
X2391688Y1956620D01*
X2391688D02*
X2391461Y1956308D01*
X2391461D02*
X2390779Y1955995D01*
X2390779D02*
X2388734D01*
X2390325D02*
X2391916Y1952558D01*
X2393961Y1959120D02*
Y1952558D01*
Y1959120D02*
X2396916D01*
X2393961Y1955995D02*
X2395779D01*
X2393961Y1952558D02*
X2396916D01*
X2398961Y1959120D02*
X2400779Y1952558D01*
X2402597Y1959120D02*
X2400779Y1952558D01*
X2404643Y1959120D02*
Y1952558D01*
X2409870Y1958183D02*
X2409416Y1958808D01*
X2408734Y1959120*
X2408734D02*
X2407825D01*
X2407825D02*
X2407143Y1958808D01*
X2406688Y1958183*
X2406688D02*
Y1957558D01*
X2406688D02*
X2406916Y1956933D01*
X2407143Y1956620*
X2407143D02*
X2407597Y1956308D01*
X2407597D02*
X2408961Y1955683D01*
X2408961D02*
X2409416Y1955370D01*
X2409416D02*
X2409643Y1955058D01*
X2409870Y1954433*
X2409870D02*
Y1953495D01*
X2409870D02*
X2409416Y1952870D01*
X2409416D02*
X2408734Y1952558D01*
X2407825*
X2407143Y1952870*
X2407143D02*
X2406688Y1953495D01*
X2411916Y1959120D02*
Y1952558D01*
X2415325Y1959120D02*
X2414870Y1958808D01*
X2414870D02*
X2414416Y1958183D01*
X2414188Y1957558*
X2414188D02*
X2413961Y1956620D01*
X2413961D02*
Y1955058D01*
X2413961D02*
X2414188Y1954120D01*
X2414188D02*
X2414416Y1953495D01*
X2414416D02*
X2414870Y1952870D01*
X2414870D02*
X2415325Y1952558D01*
X2416234*
X2416688Y1952870*
X2416688D02*
X2417143Y1953495D01*
X2417143D02*
X2417370Y1954120D01*
X2417370D02*
X2417597Y1955058D01*
X2417597D02*
Y1956620D01*
X2417597D02*
X2417370Y1957558D01*
X2417370D02*
X2417143Y1958183D01*
X2416688Y1958808*
X2416688D02*
X2416234Y1959120D01*
X2416234D02*
X2415325D01*
X2419643D02*
Y1952558D01*
Y1959120D02*
X2422825Y1952558D01*
Y1959120D02*
Y1952558D01*
X2428961Y1959120D02*
Y1952558D01*
Y1959120D02*
X2431006D01*
X2431006D02*
X2431688Y1958808D01*
X2431688D02*
X2431916Y1958495D01*
X2431916D02*
X2432143Y1957870D01*
X2432143D02*
Y1957245D01*
X2432143D02*
X2431916Y1956620D01*
X2431916D02*
X2431688Y1956308D01*
X2431688D02*
X2431006Y1955995D01*
X2431006D02*
X2428961D01*
X2430552D02*
X2432143Y1952558D01*
X2434188Y1959120D02*
Y1952558D01*
Y1959120D02*
X2437143D01*
X2434188Y1955995D02*
X2436006D01*
X2434188Y1952558D02*
X2437143D01*
X2442597Y1957558D02*
X2442370Y1958183D01*
X2442370D02*
X2441916Y1958808D01*
X2441461Y1959120*
X2441461D02*
X2440552D01*
X2440552D02*
X2440097Y1958808D01*
X2440097D02*
X2439643Y1958183D01*
X2439416Y1957558*
X2439188Y1956620*
X2439188D02*
Y1955058D01*
X2439188D02*
X2439416Y1954120D01*
X2439416D02*
X2439643Y1953495D01*
X2439643D02*
X2440097Y1952870D01*
X2440097D02*
X2440552Y1952558D01*
X2441461*
X2441461D02*
X2441916Y1952870D01*
X2441916D02*
X2442370Y1953495D01*
X2442370D02*
X2442597Y1954120D01*
X2446006Y1959120D02*
X2445552Y1958808D01*
X2445097Y1958183*
X2445097D02*
X2444870Y1957558D01*
X2444870D02*
X2444643Y1956620D01*
X2444643D02*
Y1955058D01*
X2444870Y1954120*
X2444870D02*
X2445097Y1953495D01*
X2445097D02*
X2445552Y1952870D01*
X2445552D02*
X2446006Y1952558D01*
X2446006D02*
X2446916D01*
X2447370Y1952870*
X2447370D02*
X2447825Y1953495D01*
X2447825D02*
X2448052Y1954120D01*
X2448052D02*
X2448279Y1955058D01*
X2448279D02*
Y1956620D01*
X2448279D02*
X2448052Y1957558D01*
X2447825Y1958183*
X2447370Y1958808*
X2447370D02*
X2446916Y1959120D01*
X2446916D02*
X2446006D01*
X2450325D02*
Y1952558D01*
Y1959120D02*
X2452370D01*
X2452370D02*
X2453052Y1958808D01*
X2453279Y1958495*
X2453279D02*
X2453506Y1957870D01*
X2453506D02*
Y1957245D01*
X2453506D02*
X2453279Y1956620D01*
X2453279D02*
X2453052Y1956308D01*
X2452370Y1955995*
X2452370D02*
X2450325D01*
X2451916D02*
X2453506Y1952558D01*
X2455552Y1959120D02*
Y1952558D01*
Y1959120D02*
X2457143D01*
X2457143D02*
X2457825Y1958808D01*
X2458279Y1958183*
X2458279D02*
X2458506Y1957558D01*
X2458506D02*
X2458734Y1956620D01*
X2458734D02*
Y1955058D01*
X2458506Y1954120*
X2458506D02*
X2458279Y1953495D01*
X2458279D02*
X2457825Y1952870D01*
X2457825D02*
X2457143Y1952558D01*
X2455552*
X2476734Y1948308D02*
Y1943058D01*
Y1948308D02*
X2478006D01*
X2478006D02*
X2478552Y1948058D01*
X2478916Y1947558*
X2479097Y1947058*
X2479097D02*
X2479279Y1946308D01*
X2479279D02*
Y1945058D01*
X2479279D02*
X2479097Y1944308D01*
X2479097D02*
X2478916Y1943808D01*
X2478552Y1943308*
X2478006Y1943058*
X2478006D02*
X2476734D01*
X2482370Y1948308D02*
X2480916Y1943058D01*
X2482370Y1948308D02*
X2483825Y1943058D01*
X2481461Y1944808D02*
X2483279D01*
X2486734Y1948308D02*
Y1943058D01*
X2485461Y1948308D02*
X2488006D01*
X2489643D02*
Y1943058D01*
Y1948308D02*
X2492006D01*
X2489643Y1945808D02*
X2491097D01*
X2489643Y1943058D02*
X2492006D01*
X2493825Y1946558D02*
X2493643Y1946308D01*
X2493825Y1946058*
X2494006Y1946308*
X2494006D02*
X2493825Y1946558D01*
Y1943558D02*
X2493643Y1943308D01*
X2493825Y1943058*
X2494006Y1943308*
X2494006D02*
X2493825Y1943558D01*
X2434688Y1948308D02*
X2433234Y1943058D01*
X2434688Y1948308D02*
X2436143Y1943058D01*
X2433779Y1944808D02*
X2435597D01*
X2437779Y1948308D02*
Y1943058D01*
Y1948308D02*
X2439416D01*
X2439961Y1948058*
X2439961D02*
X2440143Y1947808D01*
X2440325Y1947308*
Y1946558*
X2440143Y1946058*
X2439961Y1945808*
X2439961D02*
X2439416Y1945558D01*
X2437779*
X2441961Y1948308D02*
Y1943058D01*
Y1948308D02*
X2443597D01*
X2443597D02*
X2444143Y1948058D01*
X2444325Y1947808*
X2444506Y1947308*
X2444506D02*
Y1946558D01*
X2444506D02*
X2444325Y1946058D01*
X2444143Y1945808*
X2443597Y1945558*
X2443597D02*
X2441961D01*
X2446143Y1948308D02*
Y1943058D01*
Y1948308D02*
X2447779D01*
X2447779D02*
X2448325Y1948058D01*
X2448506Y1947808*
X2448506D02*
X2448688Y1947308D01*
X2448688D02*
Y1946808D01*
X2448688D02*
X2448506Y1946308D01*
X2448506D02*
X2448325Y1946058D01*
X2447779Y1945808*
X2447779D02*
X2446143D01*
X2447416D02*
X2448688Y1943058D01*
X2451416Y1948308D02*
X2451052Y1948058D01*
X2450688Y1947558*
X2450688D02*
X2450506Y1947058D01*
X2450506D02*
X2450325Y1946308D01*
Y1945058*
X2450506Y1944308*
X2450506D02*
X2450688Y1943808D01*
X2450688D02*
X2451052Y1943308D01*
X2451416Y1943058*
X2452143*
X2452506Y1943308*
X2452506D02*
X2452870Y1943808D01*
X2452870D02*
X2453052Y1944308D01*
X2453234Y1945058*
Y1946308*
X2453052Y1947058*
X2452870Y1947558*
X2452870D02*
X2452506Y1948058D01*
X2452506D02*
X2452143Y1948308D01*
X2451416*
X2454870D02*
X2456325Y1943058D01*
X2457779Y1948308D02*
X2456325Y1943058D01*
X2459416Y1948308D02*
Y1943058D01*
Y1948308D02*
X2461779D01*
X2459416Y1945808D02*
X2460870D01*
X2459416Y1943058D02*
X2461779D01*
X2463416Y1948308D02*
Y1943058D01*
Y1948308D02*
X2464688D01*
X2464688D02*
X2465234Y1948058D01*
X2465597Y1947558*
X2465597D02*
X2465779Y1947058D01*
X2465779D02*
X2465961Y1946308D01*
X2465961D02*
Y1945058D01*
X2465961D02*
X2465779Y1944308D01*
X2465779D02*
X2465597Y1943808D01*
X2465597D02*
X2465234Y1943308D01*
X2464688Y1943058*
X2464688D02*
X2463416D01*
X2467779Y1946558D02*
X2467597Y1946308D01*
X2467597D02*
X2467779Y1946058D01*
X2467779D02*
X2467961Y1946308D01*
X2467961D02*
X2467779Y1946558D01*
Y1943558D02*
X2467597Y1943308D01*
X2467597D02*
X2467779Y1943058D01*
X2467779D02*
X2467961Y1943308D01*
X2467961D02*
X2467779Y1943558D01*
X2335734Y1947549D02*
Y1940987D01*
X2338461*
X2342097Y1947549D02*
Y1940987D01*
X2340506Y1947549D02*
X2343688D01*
X2345734D02*
Y1940987D01*
Y1947549D02*
X2347779D01*
X2347779D02*
X2348461Y1947237D01*
X2348461D02*
X2348688Y1946924D01*
X2348688D02*
X2348916Y1946299D01*
X2348916D02*
Y1945674D01*
X2348916D02*
X2348688Y1945049D01*
X2348688D02*
X2348461Y1944737D01*
X2348461D02*
X2347779Y1944424D01*
X2347779D02*
X2345734D01*
X2347325D02*
X2348916Y1940987D01*
X2380734Y1947549D02*
Y1940987D01*
Y1947549D02*
X2383688D01*
X2380734Y1944424D02*
X2382552D01*
X2380734Y1940987D02*
X2383688D01*
X2389143Y1945987D02*
X2388916Y1946612D01*
X2388461Y1947237*
X2388461D02*
X2388006Y1947549D01*
X2388006D02*
X2387097D01*
X2387097D02*
X2386643Y1947237D01*
X2386188Y1946612*
X2386188D02*
X2385961Y1945987D01*
X2385961D02*
X2385734Y1945049D01*
X2385734D02*
Y1943487D01*
X2385961Y1942549*
X2385961D02*
X2386188Y1941924D01*
X2386188D02*
X2386643Y1941299D01*
X2386643D02*
X2387097Y1940987D01*
X2387097D02*
X2388006D01*
X2388006D02*
X2388461Y1941299D01*
X2388461D02*
X2388916Y1941924D01*
X2388916D02*
X2389143Y1942549D01*
X2392552Y1947549D02*
X2392097Y1947237D01*
X2392097D02*
X2391643Y1946612D01*
X2391416Y1945987*
X2391188Y1945049*
X2391188D02*
Y1943487D01*
X2391188D02*
X2391416Y1942549D01*
X2391416D02*
X2391643Y1941924D01*
X2391643D02*
X2392097Y1941299D01*
X2392097D02*
X2392552Y1940987D01*
X2393461*
X2393461D02*
X2393916Y1941299D01*
X2393916D02*
X2394370Y1941924D01*
X2394370D02*
X2394597Y1942549D01*
X2394597D02*
X2394825Y1943487D01*
Y1945049*
X2394825D02*
X2394597Y1945987D01*
X2394597D02*
X2394370Y1946612D01*
X2394370D02*
X2393916Y1947237D01*
X2393461Y1947549*
X2393461D02*
X2392552D01*
X2400961D02*
Y1940987D01*
Y1947549D02*
X2404143Y1940987D01*
Y1947549D02*
Y1940987D01*
X2407552Y1947549D02*
X2407097Y1947237D01*
X2407097D02*
X2406643Y1946612D01*
X2406416Y1945987*
X2406188Y1945049*
X2406188D02*
Y1943487D01*
X2406188D02*
X2406416Y1942549D01*
X2406416D02*
X2406643Y1941924D01*
X2406643D02*
X2407097Y1941299D01*
X2407097D02*
X2407552Y1940987D01*
X2408461*
X2408461D02*
X2408916Y1941299D01*
X2408916D02*
X2409370Y1941924D01*
X2409370D02*
X2409597Y1942549D01*
X2409597D02*
X2409825Y1943487D01*
Y1945049*
X2409825D02*
X2409597Y1945987D01*
X2409597D02*
X2409370Y1946612D01*
X2409370D02*
X2408916Y1947237D01*
X2408461Y1947549*
X2408461D02*
X2407552D01*
X2412097Y1945362D02*
X2411870Y1945049D01*
X2411870D02*
X2412097Y1944737D01*
X2412097D02*
X2412325Y1945049D01*
X2412325D02*
X2412097Y1945362D01*
Y1941612D02*
X2411870Y1941299D01*
X2411870D02*
X2412097Y1940987D01*
X2412097D02*
X2412325Y1941299D01*
X2412325D02*
X2412097Y1941612D01*
X2497234Y1253058D02*
X2247234D01*
X2497234Y1226758D02*
X2247234D01*
X2497234Y1316058D02*
X2247234D01*
X2497234Y1286058D02*
X2247234D01*
X2458734Y1287058D02*
Y1316058D01*
X2274734Y1253058D02*
Y1226758D01*
X2452234Y1226058D02*
Y1211058D01*
X2497234D02*
Y1348558D01*
X2112734*
Y1211058*
X2497234*
X2112734Y1348558D02*
Y1363558D01*
X2497234*
Y1348558*
X2202234Y1275058D02*
Y1211058D01*
X2247234Y1348558D02*
Y1211058D01*
Y1258058D02*
X2112734D01*
X2247134Y1241558D02*
X2112734D01*
X2247134Y1226558D02*
X2112734D01*
X2247234Y1316058D02*
X2112734D01*
X2247234Y1275058D02*
X2112734D01*
X2253143Y1343558D02*
X2252916Y1344183D01*
X2252461Y1344808*
X2252461D02*
X2252006Y1345120D01*
X2252006D02*
X2251097D01*
X2251097D02*
X2250643Y1344808D01*
X2250188Y1344183*
X2250188D02*
X2249961Y1343558D01*
X2249961D02*
X2249734Y1342620D01*
X2249734D02*
Y1341058D01*
X2249961Y1340120*
X2249961D02*
X2250188Y1339495D01*
X2250188D02*
X2250643Y1338870D01*
X2250643D02*
X2251097Y1338558D01*
X2251097D02*
X2252006D01*
X2252006D02*
X2252461Y1338870D01*
X2252461D02*
X2252916Y1339495D01*
X2252916D02*
X2253143Y1340120D01*
X2256552Y1345120D02*
X2256097Y1344808D01*
X2256097D02*
X2255643Y1344183D01*
X2255416Y1343558*
X2255188Y1342620*
X2255188D02*
Y1341058D01*
X2255188D02*
X2255416Y1340120D01*
X2255416D02*
X2255643Y1339495D01*
X2255643D02*
X2256097Y1338870D01*
X2256097D02*
X2256552Y1338558D01*
X2257461*
X2257461D02*
X2257916Y1338870D01*
X2257916D02*
X2258370Y1339495D01*
X2258370D02*
X2258597Y1340120D01*
X2258597D02*
X2258825Y1341058D01*
Y1342620*
X2258825D02*
X2258597Y1343558D01*
X2258597D02*
X2258370Y1344183D01*
X2258370D02*
X2257916Y1344808D01*
X2257461Y1345120*
X2257461D02*
X2256552D01*
X2260870D02*
Y1338558D01*
Y1345120D02*
X2262688Y1338558D01*
X2264506Y1345120D02*
X2262688Y1338558D01*
X2264506Y1345120D02*
Y1338558D01*
X2266552Y1345120D02*
Y1338558D01*
Y1345120D02*
X2268597D01*
X2268597D02*
X2269279Y1344808D01*
X2269279D02*
X2269506Y1344495D01*
X2269506D02*
X2269734Y1343870D01*
X2269734D02*
Y1342933D01*
X2269506Y1342308*
X2269506D02*
X2269279Y1341995D01*
X2269279D02*
X2268597Y1341683D01*
X2268597D02*
X2266552D01*
X2273597Y1345120D02*
X2271779Y1338558D01*
X2273597Y1345120D02*
X2275416Y1338558D01*
X2272461Y1340745D02*
X2274734D01*
X2277461Y1345120D02*
Y1338558D01*
Y1345120D02*
X2280643Y1338558D01*
Y1345120D02*
Y1338558D01*
X2282688Y1345120D02*
X2284506Y1341995D01*
X2284506D02*
Y1338558D01*
X2286325Y1345120D02*
X2284506Y1341995D01*
X2288597Y1342933D02*
X2288370Y1342620D01*
X2288370D02*
X2288597Y1342308D01*
X2288597D02*
X2288825Y1342620D01*
X2288825D02*
X2288597Y1342933D01*
Y1339183D02*
X2288370Y1338870D01*
X2288370D02*
X2288597Y1338558D01*
X2288597D02*
X2288825Y1338870D01*
X2288825D02*
X2288597Y1339183D01*
X2276152Y1332158D02*
X2275697Y1333408D01*
X2275697D02*
X2274788Y1334658D01*
X2274788D02*
X2273879Y1335283D01*
X2273879D02*
X2272061D01*
X2272061D02*
X2271152Y1334658D01*
X2270243Y1333408*
X2269788Y1332158*
X2269788D02*
X2269334Y1330283D01*
Y1327158*
X2269788Y1325283*
X2269788D02*
X2270243Y1324033D01*
X2271152Y1322783*
X2272061Y1322158*
X2272061D02*
X2273879D01*
X2273879D02*
X2274788Y1322783D01*
X2274788D02*
X2275697Y1324033D01*
X2275697D02*
X2276152Y1325283D01*
X2283879Y1335283D02*
X2280243Y1322158D01*
X2283879Y1335283D02*
X2287516Y1322158D01*
X2281606Y1326533D02*
X2286152D01*
X2291606Y1335283D02*
Y1322158D01*
Y1335283D02*
X2295697D01*
X2295697D02*
X2297061Y1334658D01*
X2297061D02*
X2297516Y1334033D01*
X2297970Y1332783*
X2297970D02*
Y1331533D01*
X2297970D02*
X2297516Y1330283D01*
X2297061Y1329658*
X2297061D02*
X2295697Y1329033D01*
X2295697D02*
X2291606D01*
X2294788D02*
X2297970Y1322158D01*
X2302061Y1335283D02*
Y1322158D01*
Y1335283D02*
X2308425Y1322158D01*
Y1335283D02*
Y1322158D01*
X2312516Y1335283D02*
Y1322158D01*
Y1335283D02*
X2318425D01*
X2312516Y1329033D02*
X2316152D01*
X2312516Y1322158D02*
X2318425D01*
X2329334Y1332158D02*
X2328879Y1333408D01*
X2328879D02*
X2327970Y1334658D01*
X2327970D02*
X2327061Y1335283D01*
X2327061D02*
X2325243D01*
X2324334Y1334658*
X2323425Y1333408*
X2322970Y1332158*
X2322970D02*
X2322516Y1330283D01*
Y1327158*
X2322970Y1325283*
X2322970D02*
X2323425Y1324033D01*
X2324334Y1322783*
X2325243Y1322158*
X2327061*
X2327061D02*
X2327970Y1322783D01*
X2327970D02*
X2328879Y1324033D01*
X2328879D02*
X2329334Y1325283D01*
Y1327158*
X2327061D02*
X2329334D01*
X2333425Y1335283D02*
Y1322158D01*
X2337516Y1335283D02*
Y1322158D01*
Y1335283D02*
X2343425D01*
X2337516Y1329033D02*
X2341152D01*
X2337516Y1322158D02*
X2343425D01*
X2355697Y1335283D02*
Y1322158D01*
Y1335283D02*
X2359334Y1322158D01*
X2362970Y1335283D02*
X2359334Y1322158D01*
X2362970Y1335283D02*
Y1322158D01*
X2367061Y1335283D02*
Y1322158D01*
Y1335283D02*
X2372970D01*
X2367061Y1329033D02*
X2370697D01*
X2367061Y1322158D02*
X2372970D01*
X2377061Y1335283D02*
Y1322158D01*
X2377061D02*
X2382516D01*
X2386606Y1335283D02*
Y1322158D01*
X2386606D02*
X2392061D01*
X2398879Y1335283D02*
X2397970Y1334658D01*
X2397970D02*
X2397061Y1333408D01*
X2397061D02*
X2396606Y1332158D01*
X2396606D02*
X2396152Y1330283D01*
Y1327158*
X2396606Y1325283*
X2396606D02*
X2397061Y1324033D01*
X2397061D02*
X2397970Y1322783D01*
X2397970D02*
X2398879Y1322158D01*
X2398879D02*
X2400697D01*
X2400697D02*
X2401606Y1322783D01*
X2401606D02*
X2402516Y1324033D01*
X2402970Y1325283*
X2402970D02*
X2403425Y1327158D01*
Y1330283*
X2402970Y1332158*
X2402970D02*
X2402516Y1333408D01*
X2401606Y1334658*
X2401606D02*
X2400697Y1335283D01*
X2400697D02*
X2398879D01*
X2407516D02*
Y1322158D01*
Y1335283D02*
X2413879Y1322158D01*
Y1335283D02*
Y1322158D01*
X2250734Y1313620D02*
Y1307058D01*
Y1313620D02*
X2252779D01*
X2252779D02*
X2253461Y1313308D01*
X2253461D02*
X2253688Y1312995D01*
X2253688D02*
X2253916Y1312370D01*
X2253916D02*
Y1311433D01*
X2253688Y1310808*
X2253688D02*
X2253461Y1310495D01*
X2253461D02*
X2252779Y1310183D01*
X2252779D02*
X2250734D01*
X2257779Y1313620D02*
X2255961Y1307058D01*
X2257779Y1313620D02*
X2259597Y1307058D01*
X2256643Y1309245D02*
X2258916D01*
X2261643Y1313620D02*
Y1307058D01*
Y1313620D02*
X2263688D01*
X2263688D02*
X2264370Y1313308D01*
X2264370D02*
X2264597Y1312995D01*
X2264597D02*
X2264825Y1312370D01*
X2264825D02*
Y1311745D01*
X2264825D02*
X2264597Y1311120D01*
X2264597D02*
X2264370Y1310808D01*
X2264370D02*
X2263688Y1310495D01*
X2263688D02*
X2261643D01*
X2263234D02*
X2264825Y1307058D01*
X2268461Y1313620D02*
Y1307058D01*
X2266870Y1313620D02*
X2270052D01*
X2276188D02*
Y1307058D01*
Y1313620D02*
X2279370Y1307058D01*
Y1313620D02*
Y1307058D01*
X2281416Y1313620D02*
Y1308933D01*
X2281643Y1307995*
X2281643D02*
X2282097Y1307370D01*
X2282097D02*
X2282779Y1307058D01*
X2282779D02*
X2283234D01*
X2283916Y1307370*
X2283916D02*
X2284370Y1307995D01*
X2284370D02*
X2284597Y1308933D01*
X2284597D02*
Y1313620D01*
X2286643D02*
Y1307058D01*
Y1313620D02*
X2288461Y1307058D01*
X2290279Y1313620D02*
X2288461Y1307058D01*
X2290279Y1313620D02*
Y1307058D01*
X2292325Y1313620D02*
Y1307058D01*
Y1313620D02*
X2294370D01*
X2294370D02*
X2295052Y1313308D01*
X2295279Y1312995*
X2295279D02*
X2295506Y1312370D01*
X2295506D02*
Y1311745D01*
X2295506D02*
X2295279Y1311120D01*
X2295279D02*
X2295052Y1310808D01*
X2294370Y1310495*
X2292325D02*
X2294370D01*
X2294370D02*
X2295052Y1310183D01*
X2295279Y1309870*
X2295279D02*
X2295506Y1309245D01*
X2295506D02*
Y1308308D01*
X2295506D02*
X2295279Y1307683D01*
X2295279D02*
X2295052Y1307370D01*
X2295052D02*
X2294370Y1307058D01*
X2294370D02*
X2292325D01*
X2297552Y1313620D02*
Y1307058D01*
Y1313620D02*
X2300506D01*
X2297552Y1310495D02*
X2299370D01*
X2297552Y1307058D02*
X2300506D01*
X2302552Y1313620D02*
Y1307058D01*
Y1313620D02*
X2304597D01*
X2304597D02*
X2305279Y1313308D01*
X2305279D02*
X2305506Y1312995D01*
X2305506D02*
X2305734Y1312370D01*
X2305734D02*
Y1311745D01*
X2305734D02*
X2305506Y1311120D01*
X2305506D02*
X2305279Y1310808D01*
X2305279D02*
X2304597Y1310495D01*
X2304597D02*
X2302552D01*
X2304143D02*
X2305734Y1307058D01*
X2308006Y1311433D02*
X2307779Y1311120D01*
X2307779D02*
X2308006Y1310808D01*
X2308006D02*
X2308234Y1311120D01*
X2308234D02*
X2308006Y1311433D01*
Y1307683D02*
X2307779Y1307370D01*
X2307779D02*
X2308006Y1307058D01*
X2308006D02*
X2308234Y1307370D01*
X2308234D02*
X2308006Y1307683D01*
X2281734Y1268401D02*
Y1258558D01*
Y1268401D02*
X2286506Y1258558D01*
Y1268401D02*
Y1258558D01*
X2292302Y1268401D02*
X2289575Y1258558D01*
X2292302Y1268401D02*
X2295029Y1258558D01*
X2290597Y1261839D02*
X2294006D01*
X2298097Y1268401D02*
Y1258558D01*
Y1268401D02*
X2302870Y1258558D01*
Y1268401D02*
Y1258558D01*
X2305938Y1268401D02*
Y1258558D01*
Y1268401D02*
X2308325D01*
X2308325D02*
X2309347Y1267933D01*
X2309347D02*
X2310029Y1266995D01*
X2310029D02*
X2310370Y1266058D01*
X2310370D02*
X2310711Y1264651D01*
X2310711D02*
Y1262308D01*
X2310711D02*
X2310370Y1260901D01*
X2310370D02*
X2310029Y1259964D01*
X2310029D02*
X2309347Y1259026D01*
X2309347D02*
X2308325Y1258558D01*
X2305938*
X2322984Y1266995D02*
Y1258558D01*
X2319916Y1262776D02*
X2326052D01*
X2335256Y1268401D02*
Y1258558D01*
Y1268401D02*
X2337643D01*
X2337643D02*
X2338666Y1267933D01*
X2339347Y1266995*
X2339347D02*
X2339688Y1266058D01*
X2339688D02*
X2340029Y1264651D01*
X2340029D02*
Y1262308D01*
X2340029D02*
X2339688Y1260901D01*
X2339688D02*
X2339347Y1259964D01*
X2339347D02*
X2338666Y1259026D01*
X2338666D02*
X2337643Y1258558D01*
X2335256*
X2343097Y1268401D02*
Y1258558D01*
Y1268401D02*
X2345484D01*
X2345484D02*
X2346506Y1267933D01*
X2346506D02*
X2347188Y1266995D01*
X2347188D02*
X2347529Y1266058D01*
X2347529D02*
X2347870Y1264651D01*
X2347870D02*
Y1262308D01*
X2347870D02*
X2347529Y1260901D01*
X2347529D02*
X2347188Y1259964D01*
X2347188D02*
X2346506Y1259026D01*
X2346506D02*
X2345484Y1258558D01*
X2343097*
X2350938Y1268401D02*
Y1258558D01*
Y1268401D02*
X2354006D01*
X2354006D02*
X2355029Y1267933D01*
X2355029D02*
X2355370Y1267464D01*
X2355370D02*
X2355711Y1266526D01*
X2355711D02*
Y1265589D01*
X2355711D02*
X2355370Y1264651D01*
X2355370D02*
X2355029Y1264183D01*
X2355029D02*
X2354006Y1263714D01*
X2354006D02*
X2350938D01*
X2353325D02*
X2355711Y1258558D01*
X2364916Y1266526D02*
X2365597Y1266995D01*
X2365597D02*
X2366620Y1268401D01*
X2366620D02*
Y1258558D01*
X2369688Y1268401D02*
X2372416Y1258558D01*
X2375143Y1268401D02*
X2372416Y1258558D01*
X2379916Y1268401D02*
X2378893Y1267933D01*
X2378552Y1266995*
X2378552D02*
Y1266058D01*
X2378893Y1265120*
X2378893D02*
X2379575Y1264651D01*
X2379575D02*
X2380938Y1264183D01*
X2380938D02*
X2381961Y1263714D01*
X2381961D02*
X2382643Y1262776D01*
X2382643D02*
X2382984Y1261839D01*
Y1260433*
X2382643Y1259495*
X2382643D02*
X2382302Y1259026D01*
X2382302D02*
X2381279Y1258558D01*
X2381279D02*
X2379916D01*
X2378893Y1259026*
X2378893D02*
X2378552Y1259495D01*
X2378552D02*
X2378211Y1260433D01*
X2378211D02*
Y1261839D01*
X2378211D02*
X2378552Y1262776D01*
X2378552D02*
X2379234Y1263714D01*
X2380256Y1264183*
X2380256D02*
X2381620Y1264651D01*
X2381620D02*
X2382302Y1265120D01*
X2382302D02*
X2382643Y1266058D01*
Y1266995*
X2382643D02*
X2382302Y1267933D01*
X2381279Y1268401*
X2381279D02*
X2379916D01*
X2386052D02*
Y1258558D01*
X2391166Y1268401D02*
X2390484Y1267933D01*
X2389802Y1266995*
X2389802D02*
X2389461Y1266058D01*
X2389461D02*
X2389120Y1264651D01*
X2389120D02*
Y1262308D01*
X2389120D02*
X2389461Y1260901D01*
X2389461D02*
X2389802Y1259964D01*
X2390484Y1259026*
X2390484D02*
X2391166Y1258558D01*
X2392529*
X2392529D02*
X2393211Y1259026D01*
X2393211D02*
X2393893Y1259964D01*
X2394234Y1260901*
X2394234D02*
X2394575Y1262308D01*
Y1264651*
X2394575D02*
X2394234Y1266058D01*
X2393893Y1266995*
X2393893D02*
X2393211Y1267933D01*
X2393211D02*
X2392529Y1268401D01*
X2392529D02*
X2391166D01*
X2408552Y1266995D02*
X2407870Y1267933D01*
X2407870D02*
X2406847Y1268401D01*
X2406847D02*
X2405484D01*
X2405484D02*
X2404461Y1267933D01*
X2404461D02*
X2403779Y1266995D01*
X2403779D02*
Y1266058D01*
X2403779D02*
X2404120Y1265120D01*
X2404120D02*
X2404461Y1264651D01*
X2404461D02*
X2405143Y1264183D01*
X2407188Y1263245*
X2407188D02*
X2407870Y1262776D01*
X2407870D02*
X2408211Y1262308D01*
X2408211D02*
X2408552Y1261370D01*
X2408552D02*
Y1259964D01*
X2407870Y1259026*
X2407870D02*
X2406847Y1258558D01*
X2406847D02*
X2405484D01*
X2404461Y1259026*
X2404461D02*
X2403779Y1259964D01*
X2413666Y1268401D02*
X2412984Y1267933D01*
X2412302Y1266995*
X2412302D02*
X2411961Y1266058D01*
X2411961D02*
X2411620Y1264651D01*
X2411620D02*
Y1262308D01*
X2411620D02*
X2411961Y1260901D01*
X2411961D02*
X2412302Y1259964D01*
X2412984Y1259026*
X2412984D02*
X2413666Y1258558D01*
X2415029*
X2415029D02*
X2415711Y1259026D01*
X2415711D02*
X2416393Y1259964D01*
X2416734Y1260901*
X2416734D02*
X2417075Y1262308D01*
Y1264651*
X2417075D02*
X2416734Y1266058D01*
X2416393Y1266995*
X2416393D02*
X2415711Y1267933D01*
X2415711D02*
X2415029Y1268401D01*
X2415029D02*
X2413666D01*
X2420143D02*
Y1258558D01*
Y1268401D02*
X2422529D01*
X2422529D02*
X2423552Y1267933D01*
X2424234Y1266995*
X2424234D02*
X2424575Y1266058D01*
X2424916Y1264651*
X2424916D02*
Y1262308D01*
X2424575Y1260901*
X2424575D02*
X2424234Y1259964D01*
X2423552Y1259026*
X2423552D02*
X2422529Y1258558D01*
X2422529D02*
X2420143D01*
X2427984Y1268401D02*
Y1258558D01*
X2431052Y1268401D02*
Y1258558D01*
Y1268401D02*
X2433779Y1258558D01*
X2436506Y1268401D02*
X2433779Y1258558D01*
X2436506Y1268401D02*
Y1258558D01*
X2439575Y1268401D02*
Y1258558D01*
Y1268401D02*
X2442302Y1258558D01*
X2445029Y1268401D02*
X2442302Y1258558D01*
X2445029Y1268401D02*
Y1258558D01*
X2252325Y1282620D02*
Y1276058D01*
X2250734Y1282620D02*
X2253916D01*
X2255961D02*
Y1276058D01*
X2259597Y1282620D02*
Y1276058D01*
X2258006Y1282620D02*
X2261188D01*
X2263234D02*
Y1276058D01*
X2265961*
X2268006Y1282620D02*
Y1276058D01*
Y1282620D02*
X2270961D01*
X2268006Y1279495D02*
X2269825D01*
X2268006Y1276058D02*
X2270961D01*
X2273234Y1280433D02*
X2273006Y1280120D01*
X2273006D02*
X2273234Y1279808D01*
X2273461Y1280120*
X2273461D02*
X2273234Y1280433D01*
Y1276683D02*
X2273006Y1276370D01*
X2273006D02*
X2273234Y1276058D01*
X2273461Y1276370*
X2273461D02*
X2273234Y1276683D01*
X2279961Y1299683D02*
X2279734Y1300308D01*
X2279052Y1300620*
X2279052D02*
X2278597D01*
X2278597D02*
X2277916Y1300308D01*
X2277461Y1299370*
X2277461D02*
X2277234Y1297808D01*
Y1296245*
X2277234D02*
X2277461Y1294995D01*
X2277461D02*
X2277916Y1294370D01*
X2277916D02*
X2278597Y1294058D01*
X2278597D02*
X2278825D01*
X2279506Y1294370*
X2279506D02*
X2279961Y1294995D01*
X2279961D02*
X2280188Y1295933D01*
X2280188D02*
Y1296245D01*
X2280188D02*
X2279961Y1297183D01*
X2279961D02*
X2279506Y1297808D01*
X2279506D02*
X2278825Y1298120D01*
X2278825D02*
X2278597D01*
X2278597D02*
X2277916Y1297808D01*
X2277461Y1297183*
X2277461D02*
X2277234Y1296245D01*
X2284506Y1300620D02*
X2282234Y1296245D01*
X2282234D02*
X2285643D01*
X2284506Y1300620D02*
Y1294058D01*
X2290416Y1298433D02*
Y1293433D01*
X2290188Y1292495*
X2290188D02*
X2289961Y1292183D01*
X2289961D02*
X2289506Y1291870D01*
X2289506D02*
X2288825D01*
X2288825D02*
X2288370Y1292183D01*
X2290416Y1297495D02*
X2289961Y1298120D01*
X2289961D02*
X2289506Y1298433D01*
X2289506D02*
X2288825D01*
X2288370Y1298120*
X2288370D02*
X2287916Y1297495D01*
X2287916D02*
X2287688Y1296558D01*
X2287688D02*
Y1295933D01*
X2287688D02*
X2287916Y1294995D01*
X2287916D02*
X2288370Y1294370D01*
X2288370D02*
X2288825Y1294058D01*
X2289506*
X2289506D02*
X2289961Y1294370D01*
X2289961D02*
X2290416Y1294995D01*
X2292688Y1299058D02*
Y1299370D01*
X2292688D02*
X2292916Y1299995D01*
X2292916D02*
X2293143Y1300308D01*
X2293597Y1300620*
X2293597D02*
X2294506D01*
X2294506D02*
X2294961Y1300308D01*
X2294961D02*
X2295188Y1299995D01*
X2295188D02*
X2295416Y1299370D01*
X2295416D02*
Y1298745D01*
X2295416D02*
X2295188Y1298120D01*
X2295188D02*
X2294734Y1297183D01*
X2292461Y1294058*
X2292461D02*
X2295643D01*
X2300643Y1300620D02*
X2298370D01*
X2298370D02*
X2298143Y1297808D01*
X2298370Y1298120*
X2298370D02*
X2299052Y1298433D01*
X2299734*
X2300416Y1298120*
X2300416D02*
X2300870Y1297495D01*
X2300870D02*
X2301097Y1296558D01*
X2301097D02*
X2300870Y1295933D01*
X2300870D02*
X2300643Y1294995D01*
X2300643D02*
X2300188Y1294370D01*
X2300188D02*
X2299506Y1294058D01*
X2299506D02*
X2298825D01*
X2298143Y1294370*
X2298143D02*
X2297916Y1294683D01*
X2297688Y1295308*
X2305870Y1299683D02*
X2305643Y1300308D01*
X2304961Y1300620*
X2304961D02*
X2304506D01*
X2304506D02*
X2303825Y1300308D01*
X2303370Y1299370*
X2303370D02*
X2303143Y1297808D01*
Y1296245*
X2303143D02*
X2303370Y1294995D01*
X2303370D02*
X2303825Y1294370D01*
X2303825D02*
X2304506Y1294058D01*
X2304506D02*
X2304734D01*
X2305416Y1294370*
X2305416D02*
X2305870Y1294995D01*
X2305870D02*
X2306097Y1295933D01*
X2306097D02*
Y1296245D01*
X2306097D02*
X2305870Y1297183D01*
X2305870D02*
X2305416Y1297808D01*
X2304734Y1298120*
X2304734D02*
X2304506D01*
X2304506D02*
X2303825Y1297808D01*
X2303370Y1297183*
X2303370D02*
X2303143Y1296245D01*
X2308143Y1298433D02*
Y1294058D01*
Y1297183D02*
X2308825Y1298120D01*
X2308825D02*
X2309279Y1298433D01*
X2309279D02*
X2309961D01*
X2309961D02*
X2310416Y1298120D01*
X2310416D02*
X2310643Y1297183D01*
Y1294058*
Y1297183D02*
X2311325Y1298120D01*
X2311325D02*
X2311779Y1298433D01*
X2311779D02*
X2312461D01*
X2312461D02*
X2312916Y1298120D01*
X2312916D02*
X2313143Y1297183D01*
Y1294058*
X2262461Y1239901D02*
X2259734Y1230058D01*
X2262461Y1239901D02*
X2265188Y1230058D01*
X2260756Y1233339D02*
X2264166D01*
X2256916Y1249683D02*
X2256461Y1250308D01*
X2256461D02*
X2255779Y1250620D01*
X2255779D02*
X2254870D01*
X2254870D02*
X2254188Y1250308D01*
X2254188D02*
X2253734Y1249683D01*
Y1249058*
X2253961Y1248433*
X2253961D02*
X2254188Y1248120D01*
X2254188D02*
X2254643Y1247808D01*
X2256006Y1247183*
X2256006D02*
X2256461Y1246870D01*
X2256461D02*
X2256688Y1246558D01*
X2256688D02*
X2256916Y1245933D01*
Y1244995*
X2256916D02*
X2256461Y1244370D01*
X2256461D02*
X2255779Y1244058D01*
X2255779D02*
X2254870D01*
X2254870D02*
X2254188Y1244370D01*
X2254188D02*
X2253734Y1244995D01*
X2258961Y1250620D02*
Y1244058D01*
X2264188Y1250620D02*
X2261006Y1244058D01*
Y1250620D02*
X2264188D01*
X2261006Y1244058D02*
X2264188D01*
X2266234Y1250620D02*
Y1244058D01*
Y1250620D02*
X2269188D01*
X2266234Y1247495D02*
X2268052D01*
X2266234Y1244058D02*
X2269188D01*
X2281143Y1249058D02*
X2280916Y1249683D01*
X2280461Y1250308*
X2280461D02*
X2280006Y1250620D01*
X2280006D02*
X2279097D01*
X2279097D02*
X2278643Y1250308D01*
X2278188Y1249683*
X2278188D02*
X2277961Y1249058D01*
X2277961D02*
X2277734Y1248120D01*
X2277734D02*
Y1246558D01*
X2277961Y1245620*
X2277961D02*
X2278188Y1244995D01*
X2278188D02*
X2278643Y1244370D01*
X2278643D02*
X2279097Y1244058D01*
X2279097D02*
X2280006D01*
X2280006D02*
X2280461Y1244370D01*
X2280461D02*
X2280916Y1244995D01*
X2280916D02*
X2281143Y1245620D01*
X2283188Y1250620D02*
Y1244058D01*
X2285234Y1250620D02*
Y1244058D01*
Y1250620D02*
X2287279D01*
X2287279D02*
X2287961Y1250308D01*
X2287961D02*
X2288188Y1249995D01*
X2288188D02*
X2288416Y1249370D01*
X2288416D02*
Y1248745D01*
X2288416D02*
X2288188Y1248120D01*
X2288188D02*
X2287961Y1247808D01*
X2287961D02*
X2287279Y1247495D01*
X2287279D02*
X2285234D01*
X2286825D02*
X2288416Y1244058D01*
X2290461Y1250620D02*
Y1244058D01*
Y1250620D02*
X2293416D01*
X2290461Y1247495D02*
X2292279D01*
X2290461Y1244058D02*
X2293416D01*
X2295461Y1250620D02*
X2298643Y1244058D01*
Y1250620D02*
X2295461Y1244058D01*
X2300688Y1250620D02*
X2303870Y1244058D01*
Y1250620D02*
X2300688Y1244058D01*
X2310006Y1250620D02*
Y1244058D01*
Y1250620D02*
X2311597D01*
X2311597D02*
X2312279Y1250308D01*
X2312279D02*
X2312734Y1249683D01*
X2312961Y1249058*
X2312961D02*
X2313188Y1248120D01*
X2313188D02*
Y1246558D01*
X2313188D02*
X2312961Y1245620D01*
X2312961D02*
X2312734Y1244995D01*
X2312734D02*
X2312279Y1244370D01*
X2312279D02*
X2311597Y1244058D01*
X2311597D02*
X2310006D01*
X2316597Y1250620D02*
X2316143Y1250308D01*
X2315688Y1249683*
X2315688D02*
X2315461Y1249058D01*
X2315461D02*
X2315234Y1248120D01*
X2315234D02*
Y1246558D01*
X2315461Y1245620*
X2315461D02*
X2315688Y1244995D01*
X2315688D02*
X2316143Y1244370D01*
X2316143D02*
X2316597Y1244058D01*
X2316597D02*
X2317506D01*
X2317506D02*
X2317961Y1244370D01*
X2317961D02*
X2318416Y1244995D01*
X2318416D02*
X2318643Y1245620D01*
X2318643D02*
X2318870Y1246558D01*
X2318870D02*
Y1248120D01*
X2318870D02*
X2318643Y1249058D01*
X2318416Y1249683*
X2317961Y1250308*
X2317961D02*
X2317506Y1250620D01*
X2317506D02*
X2316597D01*
X2324325Y1249058D02*
X2324097Y1249683D01*
X2324097D02*
X2323643Y1250308D01*
X2323188Y1250620*
X2323188D02*
X2322279D01*
X2322279D02*
X2321825Y1250308D01*
X2321370Y1249683*
X2321370D02*
X2321143Y1249058D01*
X2320916Y1248120*
X2320916D02*
Y1246558D01*
X2321143Y1245620*
X2321143D02*
X2321370Y1244995D01*
X2321370D02*
X2321825Y1244370D01*
X2321825D02*
X2322279Y1244058D01*
X2322279D02*
X2323188D01*
X2323188D02*
X2323643Y1244370D01*
X2323643D02*
X2324097Y1244995D01*
X2324097D02*
X2324325Y1245620D01*
X2326370Y1250620D02*
Y1245933D01*
X2326370D02*
X2326597Y1244995D01*
X2326597D02*
X2327052Y1244370D01*
X2327052D02*
X2327734Y1244058D01*
X2328188*
X2328188D02*
X2328870Y1244370D01*
X2328870D02*
X2329325Y1244995D01*
X2329325D02*
X2329552Y1245933D01*
Y1250620*
X2331597D02*
Y1244058D01*
Y1250620D02*
X2333416Y1244058D01*
X2335234Y1250620D02*
X2333416Y1244058D01*
X2335234Y1250620D02*
Y1244058D01*
X2337279Y1250620D02*
Y1244058D01*
Y1250620D02*
X2340234D01*
X2337279Y1247495D02*
X2339097D01*
X2337279Y1244058D02*
X2340234D01*
X2342279Y1250620D02*
Y1244058D01*
Y1250620D02*
X2345461Y1244058D01*
Y1250620D02*
Y1244058D01*
X2349097Y1250620D02*
Y1244058D01*
X2347506Y1250620D02*
X2350688D01*
X2356825D02*
Y1244058D01*
Y1250620D02*
X2360006Y1244058D01*
Y1250620D02*
Y1244058D01*
X2362052Y1250620D02*
Y1245933D01*
X2362279Y1244995*
X2362279D02*
X2362734Y1244370D01*
X2362734D02*
X2363416Y1244058D01*
X2363870*
X2363870D02*
X2364552Y1244370D01*
X2364552D02*
X2365006Y1244995D01*
X2365006D02*
X2365234Y1245933D01*
Y1250620*
X2367279D02*
Y1244058D01*
Y1250620D02*
X2369097Y1244058D01*
X2370916Y1250620D02*
X2369097Y1244058D01*
X2370916Y1250620D02*
Y1244058D01*
X2372961Y1250620D02*
Y1244058D01*
Y1250620D02*
X2375006D01*
X2375006D02*
X2375688Y1250308D01*
X2375688D02*
X2375916Y1249995D01*
X2375916D02*
X2376143Y1249370D01*
X2376143D02*
Y1248745D01*
X2376143D02*
X2375916Y1248120D01*
X2375916D02*
X2375688Y1247808D01*
X2375688D02*
X2375006Y1247495D01*
X2372961D02*
X2375006D01*
X2375006D02*
X2375688Y1247183D01*
X2375688D02*
X2375916Y1246870D01*
X2375916D02*
X2376143Y1246245D01*
X2376143D02*
Y1245308D01*
X2375916Y1244683*
X2375688Y1244370*
X2375688D02*
X2375006Y1244058D01*
X2375006D02*
X2372961D01*
X2378188Y1250620D02*
Y1244058D01*
Y1250620D02*
X2381143D01*
X2378188Y1247495D02*
X2380006D01*
X2378188Y1244058D02*
X2381143D01*
X2383188Y1250620D02*
Y1244058D01*
Y1250620D02*
X2385234D01*
X2385234D02*
X2385916Y1250308D01*
X2386143Y1249995*
X2386143D02*
X2386370Y1249370D01*
X2386370D02*
Y1248745D01*
X2386370D02*
X2386143Y1248120D01*
X2386143D02*
X2385916Y1247808D01*
X2385234Y1247495*
X2385234D02*
X2383188D01*
X2384779D02*
X2386370Y1244058D01*
X2388643Y1248433D02*
X2388416Y1248120D01*
X2388416D02*
X2388643Y1247808D01*
X2388870Y1248120*
X2388870D02*
X2388643Y1248433D01*
Y1244683D02*
X2388416Y1244370D01*
X2388416D02*
X2388643Y1244058D01*
X2388870Y1244370*
X2388870D02*
X2388643Y1244683D01*
X2339438Y1240901D02*
X2338416Y1240433D01*
X2338075Y1239495*
X2338075D02*
Y1238558D01*
X2338416Y1237620*
X2338416D02*
X2339097Y1237151D01*
X2339097D02*
X2340461Y1236683D01*
X2340461D02*
X2341484Y1236214D01*
X2342166Y1235276*
X2342166D02*
X2342506Y1234339D01*
X2342506D02*
Y1232933D01*
X2342506D02*
X2342166Y1231995D01*
X2342166D02*
X2341825Y1231526D01*
X2341825D02*
X2340802Y1231058D01*
X2339438*
X2339438D02*
X2338416Y1231526D01*
X2338416D02*
X2338075Y1231995D01*
X2338075D02*
X2337734Y1232933D01*
Y1234339*
X2338075Y1235276*
X2338075D02*
X2338756Y1236214D01*
X2338756D02*
X2339779Y1236683D01*
X2339779D02*
X2341143Y1237151D01*
X2341143D02*
X2341825Y1237620D01*
X2341825D02*
X2342166Y1238558D01*
Y1239495*
X2342166D02*
X2341825Y1240433D01*
X2340802Y1240901*
X2340802D02*
X2339438D01*
X2346256D02*
X2350006D01*
X2350006D02*
X2347961Y1237151D01*
X2347961D02*
X2348984D01*
X2348984D02*
X2349666Y1236683D01*
X2350006Y1236214*
X2350006D02*
X2350347Y1234808D01*
X2350347D02*
Y1233870D01*
X2350347D02*
X2350006Y1232464D01*
X2350006D02*
X2349325Y1231526D01*
X2349325D02*
X2348302Y1231058D01*
X2347279*
X2347279D02*
X2346256Y1231526D01*
X2346256D02*
X2345916Y1231995D01*
X2345916D02*
X2345575Y1232933D01*
X2353756Y1238558D02*
Y1239026D01*
X2353756D02*
X2354097Y1239964D01*
X2354097D02*
X2354438Y1240433D01*
X2354438D02*
X2355120Y1240901D01*
X2355120D02*
X2356484D01*
X2356484D02*
X2357166Y1240433D01*
X2357506Y1239964*
X2357506D02*
X2357847Y1239026D01*
X2357847D02*
Y1238089D01*
X2357847D02*
X2357506Y1237151D01*
X2357506D02*
X2356825Y1235745D01*
X2356825D02*
X2353416Y1231058D01*
X2358188*
X2361938Y1240901D02*
X2365688D01*
X2365688D02*
X2363643Y1237151D01*
X2363643D02*
X2364666D01*
X2364666D02*
X2365347Y1236683D01*
X2365347D02*
X2365688Y1236214D01*
X2365688D02*
X2366029Y1234808D01*
X2366029D02*
Y1233870D01*
X2366029D02*
X2365688Y1232464D01*
X2365688D02*
X2365006Y1231526D01*
X2365006D02*
X2363984Y1231058D01*
X2362961*
X2362961D02*
X2361938Y1231526D01*
X2361938D02*
X2361597Y1231995D01*
X2361597D02*
X2361256Y1232933D01*
X2369438Y1238558D02*
Y1239026D01*
X2369438D02*
X2369779Y1239964D01*
X2369779D02*
X2370120Y1240433D01*
X2370120D02*
X2370802Y1240901D01*
X2370802D02*
X2372166D01*
X2372166D02*
X2372847Y1240433D01*
X2372847D02*
X2373188Y1239964D01*
X2373188D02*
X2373529Y1239026D01*
X2373529D02*
Y1238089D01*
X2373529D02*
X2373188Y1237151D01*
X2373188D02*
X2372506Y1235745D01*
X2372506D02*
X2369097Y1231058D01*
X2369097D02*
X2373870D01*
X2457120Y1220276D02*
X2456779Y1220745D01*
X2456779D02*
X2456268Y1220979D01*
X2456268D02*
X2455586D01*
X2455586D02*
X2455075Y1220745D01*
X2455075D02*
X2454734Y1220276D01*
X2454734D02*
Y1219808D01*
X2454904Y1219339*
X2454904D02*
X2455075Y1219104D01*
X2455075D02*
X2455416Y1218870D01*
X2455416D02*
X2456438Y1218401D01*
X2456438D02*
X2456779Y1218167D01*
X2456779D02*
X2456950Y1217933D01*
X2457120Y1217464*
X2457120D02*
Y1216761D01*
X2457120D02*
X2456779Y1216292D01*
X2456779D02*
X2456268Y1216058D01*
X2455586*
X2455586D02*
X2455075Y1216292D01*
X2454734Y1216761*
X2461211Y1219808D02*
X2461041Y1220276D01*
X2461041D02*
X2460700Y1220745D01*
X2460700D02*
X2460359Y1220979D01*
X2460359D02*
X2459677D01*
X2459677D02*
X2459336Y1220745D01*
X2459336D02*
X2458995Y1220276D01*
X2458995D02*
X2458825Y1219808D01*
X2458654Y1219104*
X2458654D02*
Y1217933D01*
X2458654D02*
X2458825Y1217229D01*
X2458825D02*
X2458995Y1216761D01*
X2458995D02*
X2459336Y1216292D01*
X2459336D02*
X2459677Y1216058D01*
X2460359*
X2460700Y1216292*
X2461041Y1216761*
X2461211Y1217229*
X2464109Y1220979D02*
X2462745Y1216058D01*
X2464109Y1220979D02*
X2465472Y1216058D01*
X2463256Y1217698D02*
X2464961D01*
X2467006Y1220979D02*
Y1216058D01*
X2467006D02*
X2469052D01*
X2470586Y1220979D02*
Y1216058D01*
Y1220979D02*
X2472802D01*
X2470586Y1218636D02*
X2471950D01*
X2470586Y1216058D02*
X2472802D01*
X2474506Y1219339D02*
X2474336Y1219104D01*
X2474336D02*
X2474506Y1218870D01*
X2474506D02*
X2474677Y1219104D01*
X2474677D02*
X2474506Y1219339D01*
Y1216526D02*
X2474336Y1216292D01*
X2474336D02*
X2474506Y1216058D01*
X2474506D02*
X2474677Y1216292D01*
X2474506Y1216526*
X2482347Y1220042D02*
X2482688Y1220276D01*
X2482688D02*
X2483200Y1220979D01*
X2483200D02*
Y1216058D01*
X2487802Y1221917D02*
X2484734Y1214417D01*
X2489336Y1220042D02*
X2489677Y1220276D01*
X2489677D02*
X2490188Y1220979D01*
X2490188D02*
Y1216058D01*
X2252291Y1219808D02*
X2252120Y1220276D01*
X2252120D02*
X2251779Y1220745D01*
X2251779D02*
X2251438Y1220979D01*
X2251438D02*
X2250756D01*
X2250756D02*
X2250416Y1220745D01*
X2250416D02*
X2250075Y1220276D01*
X2250075D02*
X2249904Y1219808D01*
X2249904D02*
X2249734Y1219104D01*
X2249734D02*
Y1217933D01*
X2249904Y1217229*
X2249904D02*
X2250075Y1216761D01*
X2250416Y1216292*
X2250756Y1216058*
X2250756D02*
X2251438D01*
X2251438D02*
X2251779Y1216292D01*
X2251779D02*
X2252120Y1216761D01*
X2252120D02*
X2252291Y1217229D01*
X2253825Y1220979D02*
Y1216058D01*
X2255359Y1220979D02*
Y1216058D01*
Y1220979D02*
X2256893D01*
X2256893D02*
X2257404Y1220745D01*
X2257404D02*
X2257575Y1220511D01*
X2257745Y1220042*
X2257745D02*
Y1219573D01*
X2257745D02*
X2257575Y1219104D01*
X2257575D02*
X2257404Y1218870D01*
X2257404D02*
X2256893Y1218636D01*
X2255359*
X2256552D02*
X2257745Y1216058D01*
X2259279Y1220979D02*
Y1216058D01*
Y1220979D02*
X2261495D01*
X2259279Y1218636D02*
X2260643D01*
X2259279Y1216058D02*
X2261495D01*
X2263029Y1220979D02*
X2265416Y1216058D01*
Y1220979D02*
X2263029Y1216058D01*
X2266950Y1220979D02*
X2269336Y1216058D01*
Y1220979D02*
X2266950Y1216058D01*
X2273938Y1220979D02*
Y1216058D01*
Y1220979D02*
X2276154D01*
X2273938Y1218636D02*
X2275302D01*
X2277688Y1220979D02*
Y1216058D01*
X2279222Y1220979D02*
Y1216058D01*
X2279222D02*
X2281268D01*
X2282802Y1220979D02*
Y1216058D01*
Y1220979D02*
X2285018D01*
X2282802Y1218636D02*
X2284166D01*
X2282802Y1216058D02*
X2285018D01*
X2289620Y1220979D02*
Y1216058D01*
Y1220979D02*
X2292006Y1216058D01*
Y1220979D02*
Y1216058D01*
X2294904Y1220979D02*
X2293541Y1216058D01*
X2294904Y1220979D02*
X2296268Y1216058D01*
X2294052Y1217698D02*
X2295756D01*
X2297802Y1220979D02*
Y1216058D01*
Y1220979D02*
X2299166Y1216058D01*
X2300529Y1220979D02*
X2299166Y1216058D01*
X2300529Y1220979D02*
Y1216058D01*
X2302063Y1220979D02*
Y1216058D01*
Y1220979D02*
X2304279D01*
X2302063Y1218636D02*
X2303427D01*
X2302063Y1216058D02*
X2304279D01*
X2305984Y1219339D02*
X2305813Y1219104D01*
X2305813D02*
X2305984Y1218870D01*
X2305984D02*
X2306154Y1219104D01*
X2306154D02*
X2305984Y1219339D01*
Y1216526D02*
X2305813Y1216292D01*
X2305813D02*
X2305984Y1216058D01*
X2306154Y1216292*
X2306154D02*
X2305984Y1216526D01*
X2316086Y1220479D02*
X2315575Y1220245D01*
X2315575D02*
X2315404Y1219776D01*
X2315404D02*
Y1219308D01*
X2315404D02*
X2315575Y1218839D01*
X2315916Y1218604*
X2315916D02*
X2316597Y1218370D01*
X2316597D02*
X2317109Y1218136D01*
X2317450Y1217667*
X2317620Y1217198*
X2317620D02*
Y1216495D01*
X2317620D02*
X2317450Y1216026D01*
X2317450D02*
X2317279Y1215792D01*
X2317279D02*
X2316768Y1215558D01*
X2316086*
X2316086D02*
X2315575Y1215792D01*
X2315404Y1216026*
X2315404D02*
X2315234Y1216495D01*
X2315234D02*
Y1217198D01*
X2315234D02*
X2315404Y1217667D01*
X2315404D02*
X2315745Y1218136D01*
X2315745D02*
X2316256Y1218370D01*
X2316256D02*
X2316938Y1218604D01*
X2316938D02*
X2317279Y1218839D01*
X2317279D02*
X2317450Y1219308D01*
Y1219776*
X2317450D02*
X2317279Y1220245D01*
X2317279D02*
X2316768Y1220479D01*
X2316768D02*
X2316086D01*
X2319495D02*
X2321370D01*
X2321370D02*
X2320347Y1218604D01*
X2320347D02*
X2320859D01*
X2320859D02*
X2321200Y1218370D01*
X2321200D02*
X2321370Y1218136D01*
X2321370D02*
X2321541Y1217433D01*
Y1216964*
X2321370Y1216261*
X2321370D02*
X2321029Y1215792D01*
X2321029D02*
X2320518Y1215558D01*
X2320006*
X2320006D02*
X2319495Y1215792D01*
X2319495D02*
X2319325Y1216026D01*
X2319325D02*
X2319154Y1216495D01*
X2323245Y1219308D02*
Y1219542D01*
X2323245D02*
X2323416Y1220011D01*
X2323586Y1220245*
X2323586D02*
X2323927Y1220479D01*
X2323927D02*
X2324609D01*
X2324609D02*
X2324950Y1220245D01*
X2324950D02*
X2325120Y1220011D01*
X2325120D02*
X2325291Y1219542D01*
Y1219073*
X2325291D02*
X2325120Y1218604D01*
X2325120D02*
X2324779Y1217901D01*
X2324779D02*
X2323075Y1215558D01*
X2325461*
X2327336Y1220479D02*
X2329211D01*
X2329211D02*
X2328188Y1218604D01*
X2328188D02*
X2328700D01*
X2328700D02*
X2329041Y1218370D01*
X2329041D02*
X2329211Y1218136D01*
X2329211D02*
X2329381Y1217433D01*
X2329381D02*
Y1216964D01*
X2329381D02*
X2329211Y1216261D01*
X2329211D02*
X2328870Y1215792D01*
X2328870D02*
X2328359Y1215558D01*
X2327847*
X2327847D02*
X2327336Y1215792D01*
X2327336D02*
X2327166Y1216026D01*
X2327166D02*
X2326995Y1216495D01*
X2331086Y1219308D02*
Y1219542D01*
X2331086D02*
X2331256Y1220011D01*
X2331256D02*
X2331427Y1220245D01*
X2331427D02*
X2331768Y1220479D01*
X2331768D02*
X2332450D01*
X2332450D02*
X2332791Y1220245D01*
X2332791D02*
X2332961Y1220011D01*
X2332961D02*
X2333131Y1219542D01*
X2333131D02*
Y1219073D01*
X2333131D02*
X2332961Y1218604D01*
X2332961D02*
X2332620Y1217901D01*
X2332620D02*
X2330916Y1215558D01*
X2333302*
X2334836Y1217667D02*
X2337904D01*
X2340802Y1220479D02*
X2339438Y1215558D01*
X2340802Y1220479D02*
X2342166Y1215558D01*
X2339950Y1217198D02*
X2341654D01*
X2343870Y1216026D02*
X2343700Y1215792D01*
X2343870Y1215558*
X2343870D02*
X2344041Y1215792D01*
X2343870Y1216026*
X2345575Y1218839D02*
Y1213917D01*
Y1218136D02*
X2345916Y1218604D01*
X2345916D02*
X2346256Y1218839D01*
X2346256D02*
X2346768D01*
X2347109Y1218604*
X2347109D02*
X2347450Y1218136D01*
X2347620Y1217433*
X2347620D02*
Y1216964D01*
X2347620D02*
X2347450Y1216261D01*
X2347109Y1215792*
X2346768Y1215558*
X2346256*
X2346256D02*
X2345916Y1215792D01*
X2345575Y1216261*
X2351200Y1218136D02*
X2350859Y1218604D01*
X2350859D02*
X2350518Y1218839D01*
X2350006*
X2350006D02*
X2349666Y1218604D01*
X2349666D02*
X2349325Y1218136D01*
X2349154Y1217433*
X2349154D02*
Y1216964D01*
X2349154D02*
X2349325Y1216261D01*
X2349666Y1215792*
X2350006Y1215558*
X2350006D02*
X2350518D01*
X2350859Y1215792*
X2351200Y1216261*
X2352734Y1220479D02*
Y1215558D01*
Y1218136D02*
X2353075Y1218604D01*
X2353075D02*
X2353416Y1218839D01*
X2353927*
X2354268Y1218604*
X2354268D02*
X2354609Y1218136D01*
X2354779Y1217433*
X2354779D02*
Y1216964D01*
X2354779D02*
X2354609Y1216261D01*
X2354268Y1215792*
X2353927Y1215558*
X2353416*
X2353075Y1215792*
X2352734Y1216261*
X2117552Y1360120D02*
X2115734Y1353558D01*
X2117552Y1360120D02*
X2119370Y1353558D01*
X2116416Y1355745D02*
X2118688D01*
X2121416Y1360120D02*
Y1353558D01*
X2124143*
X2126188Y1360120D02*
Y1353558D01*
X2126188D02*
X2128916D01*
X2135052Y1360120D02*
Y1353558D01*
X2137779*
X2141643Y1360120D02*
X2139825Y1353558D01*
X2141643Y1360120D02*
X2143461Y1353558D01*
X2140506Y1355745D02*
X2142779D01*
X2145506Y1360120D02*
X2147325Y1356995D01*
X2147325D02*
Y1353558D01*
X2149143Y1360120D02*
X2147325Y1356995D01*
X2151188Y1360120D02*
Y1353558D01*
Y1360120D02*
X2154143D01*
X2151188Y1356995D02*
X2153006D01*
X2151188Y1353558D02*
X2154143D01*
X2156188Y1360120D02*
Y1353558D01*
Y1360120D02*
X2158234D01*
X2158234D02*
X2158916Y1359808D01*
X2159143Y1359495*
X2159143D02*
X2159370Y1358870D01*
X2159370D02*
Y1358245D01*
X2159370D02*
X2159143Y1357620D01*
X2159143D02*
X2158916Y1357308D01*
X2158234Y1356995*
X2158234D02*
X2156188D01*
X2157779D02*
X2159370Y1353558D01*
X2164597Y1359183D02*
X2164143Y1359808D01*
X2163461Y1360120*
X2163461D02*
X2162552D01*
X2162552D02*
X2161870Y1359808D01*
X2161870D02*
X2161416Y1359183D01*
Y1358558*
X2161643Y1357933*
X2161870Y1357620*
X2161870D02*
X2162325Y1357308D01*
X2163688Y1356683*
X2163688D02*
X2164143Y1356370D01*
X2164143D02*
X2164370Y1356058D01*
X2164370D02*
X2164597Y1355433D01*
X2164597D02*
Y1354495D01*
X2164597D02*
X2164143Y1353870D01*
X2164143D02*
X2163461Y1353558D01*
X2163461D02*
X2162552D01*
X2161870Y1353870*
X2161870D02*
X2161416Y1354495D01*
X2170734Y1360120D02*
X2172552Y1353558D01*
X2174370Y1360120D02*
X2172552Y1353558D01*
X2176416Y1360120D02*
Y1353558D01*
X2178461Y1360120D02*
Y1353558D01*
Y1360120D02*
X2181416D01*
X2178461Y1356995D02*
X2180279D01*
X2178461Y1353558D02*
X2181416D01*
X2183461Y1360120D02*
X2184597Y1353558D01*
X2185734Y1360120D02*
X2184597Y1353558D01*
X2185734Y1360120D02*
X2186870Y1353558D01*
X2188006Y1360120D02*
X2186870Y1353558D01*
X2190052Y1360120D02*
Y1353558D01*
Y1360120D02*
X2193006D01*
X2190052Y1356995D02*
X2191870D01*
X2190052Y1353558D02*
X2193006D01*
X2195052Y1360120D02*
Y1353558D01*
Y1360120D02*
X2196643D01*
X2196643D02*
X2197325Y1359808D01*
X2197779Y1359183*
X2197779D02*
X2198006Y1358558D01*
X2198006D02*
X2198234Y1357620D01*
X2198234D02*
Y1356058D01*
X2198006Y1355120*
X2198006D02*
X2197779Y1354495D01*
X2197779D02*
X2197325Y1353870D01*
X2197325D02*
X2196643Y1353558D01*
X2195052*
X2204370Y1360120D02*
Y1353558D01*
Y1360120D02*
X2207325D01*
X2204370Y1356995D02*
X2206188D01*
X2209370Y1360120D02*
Y1353558D01*
Y1360120D02*
X2211416D01*
X2211416D02*
X2212097Y1359808D01*
X2212097D02*
X2212325Y1359495D01*
X2212325D02*
X2212552Y1358870D01*
X2212552D02*
Y1358245D01*
X2212552D02*
X2212325Y1357620D01*
X2212325D02*
X2212097Y1357308D01*
X2212097D02*
X2211416Y1356995D01*
X2211416D02*
X2209370D01*
X2210961D02*
X2212552Y1353558D01*
X2215961Y1360120D02*
X2215506Y1359808D01*
X2215506D02*
X2215052Y1359183D01*
X2214825Y1358558*
X2214597Y1357620*
X2214597D02*
Y1356058D01*
X2214597D02*
X2214825Y1355120D01*
X2214825D02*
X2215052Y1354495D01*
X2215052D02*
X2215506Y1353870D01*
X2215506D02*
X2215961Y1353558D01*
X2215961D02*
X2216870D01*
X2216870D02*
X2217325Y1353870D01*
X2217325D02*
X2217779Y1354495D01*
X2217779D02*
X2218006Y1355120D01*
X2218006D02*
X2218234Y1356058D01*
Y1357620*
X2218234D02*
X2218006Y1358558D01*
X2218006D02*
X2217779Y1359183D01*
X2217779D02*
X2217325Y1359808D01*
X2216870Y1360120*
X2216870D02*
X2215961D01*
X2220279D02*
Y1353558D01*
Y1360120D02*
X2222097Y1353558D01*
X2223916Y1360120D02*
X2222097Y1353558D01*
X2223916Y1360120D02*
Y1353558D01*
X2231643Y1360120D02*
Y1353558D01*
X2230052Y1360120D02*
X2233234D01*
X2236643D02*
X2236188Y1359808D01*
X2236188D02*
X2235734Y1359183D01*
X2235506Y1358558*
X2235506D02*
X2235279Y1357620D01*
X2235279D02*
Y1356058D01*
X2235279D02*
X2235506Y1355120D01*
X2235506D02*
X2235734Y1354495D01*
X2235734D02*
X2236188Y1353870D01*
X2236188D02*
X2236643Y1353558D01*
X2237552*
X2238006Y1353870*
X2238006D02*
X2238461Y1354495D01*
X2238461D02*
X2238688Y1355120D01*
X2238688D02*
X2238916Y1356058D01*
Y1357620*
X2238916D02*
X2238688Y1358558D01*
X2238688D02*
X2238461Y1359183D01*
X2238461D02*
X2238006Y1359808D01*
X2238006D02*
X2237552Y1360120D01*
X2237552D02*
X2236643D01*
X2240961D02*
Y1353558D01*
Y1360120D02*
X2243006D01*
X2243006D02*
X2243688Y1359808D01*
X2243688D02*
X2243916Y1359495D01*
X2243916D02*
X2244143Y1358870D01*
X2244143D02*
Y1357933D01*
X2243916Y1357308*
X2243688Y1356995*
X2243688D02*
X2243006Y1356683D01*
X2243006D02*
X2240961D01*
X2250279Y1360120D02*
Y1353558D01*
Y1360120D02*
X2251870D01*
X2251870D02*
X2252552Y1359808D01*
X2253006Y1359183*
X2253006D02*
X2253234Y1358558D01*
X2253461Y1357620*
X2253461D02*
Y1356058D01*
X2253461D02*
X2253234Y1355120D01*
X2253234D02*
X2253006Y1354495D01*
X2253006D02*
X2252552Y1353870D01*
X2252552D02*
X2251870Y1353558D01*
X2251870D02*
X2250279D01*
X2256870Y1360120D02*
X2256416Y1359808D01*
X2255961Y1359183*
X2255961D02*
X2255734Y1358558D01*
X2255506Y1357620*
X2255506D02*
Y1356058D01*
X2255506D02*
X2255734Y1355120D01*
X2255734D02*
X2255961Y1354495D01*
X2255961D02*
X2256416Y1353870D01*
X2256416D02*
X2256870Y1353558D01*
X2256870D02*
X2257779D01*
X2257779D02*
X2258234Y1353870D01*
X2258234D02*
X2258688Y1354495D01*
X2258688D02*
X2258916Y1355120D01*
X2258916D02*
X2259143Y1356058D01*
Y1357620*
X2259143D02*
X2258916Y1358558D01*
X2258688Y1359183*
X2258688D02*
X2258234Y1359808D01*
X2257779Y1360120*
X2257779D02*
X2256870D01*
X2261188D02*
X2262325Y1353558D01*
X2263461Y1360120D02*
X2262325Y1353558D01*
X2263461Y1360120D02*
X2264597Y1353558D01*
X2265734Y1360120D02*
X2264597Y1353558D01*
X2267779Y1360120D02*
Y1353558D01*
Y1360120D02*
X2270961Y1353558D01*
Y1360120D02*
Y1353558D01*
X2205234Y1254479D02*
Y1249558D01*
Y1254479D02*
X2206427D01*
X2206427D02*
X2206938Y1254245D01*
X2206938D02*
X2207279Y1253776D01*
X2207279D02*
X2207450Y1253308D01*
X2207620Y1252604*
X2207620D02*
Y1251433D01*
X2207620D02*
X2207450Y1250729D01*
X2207450D02*
X2207279Y1250261D01*
X2207279D02*
X2206938Y1249792D01*
X2206938D02*
X2206427Y1249558D01*
X2205234*
X2210518Y1254479D02*
X2209154Y1249558D01*
X2210518Y1254479D02*
X2211881Y1249558D01*
X2209666Y1251198D02*
X2211370D01*
X2214609Y1254479D02*
Y1249558D01*
X2213416Y1254479D02*
X2215802D01*
X2217336D02*
Y1249558D01*
Y1254479D02*
X2219552D01*
X2217336Y1252136D02*
X2218700D01*
X2217336Y1249558D02*
X2219552D01*
X2221256Y1252839D02*
X2221086Y1252604D01*
X2221086D02*
X2221256Y1252370D01*
X2221256D02*
X2221427Y1252604D01*
X2221427D02*
X2221256Y1252839D01*
Y1250026D02*
X2221086Y1249792D01*
X2221086D02*
X2221256Y1249558D01*
X2221256D02*
X2221427Y1249792D01*
X2221256Y1250026*
X2205234Y1238479D02*
Y1233558D01*
Y1238479D02*
X2206427D01*
X2206427D02*
X2206938Y1238245D01*
X2206938D02*
X2207279Y1237776D01*
X2207279D02*
X2207450Y1237308D01*
X2207620Y1236604*
X2207620D02*
Y1235433D01*
X2207620D02*
X2207450Y1234729D01*
X2207450D02*
X2207279Y1234261D01*
X2207279D02*
X2206938Y1233792D01*
X2206938D02*
X2206427Y1233558D01*
X2205234*
X2210518Y1238479D02*
X2209154Y1233558D01*
X2210518Y1238479D02*
X2211881Y1233558D01*
X2209666Y1235198D02*
X2211370D01*
X2214609Y1238479D02*
Y1233558D01*
X2213416Y1238479D02*
X2215802D01*
X2217336D02*
Y1233558D01*
Y1238479D02*
X2219552D01*
X2217336Y1236136D02*
X2218700D01*
X2217336Y1233558D02*
X2219552D01*
X2221256Y1236839D02*
X2221086Y1236604D01*
X2221086D02*
X2221256Y1236370D01*
X2221256D02*
X2221427Y1236604D01*
X2221427D02*
X2221256Y1236839D01*
Y1234026D02*
X2221086Y1233792D01*
X2221086D02*
X2221256Y1233558D01*
X2221256D02*
X2221427Y1233792D01*
X2221256Y1234026*
X2115734Y1271979D02*
Y1267058D01*
Y1271979D02*
X2116927D01*
X2116927D02*
X2117438Y1271745D01*
X2117438D02*
X2117779Y1271276D01*
X2117779D02*
X2117950Y1270808D01*
X2118120Y1270104*
X2118120D02*
Y1268933D01*
X2118120D02*
X2117950Y1268229D01*
X2117950D02*
X2117779Y1267761D01*
X2117779D02*
X2117438Y1267292D01*
X2117438D02*
X2116927Y1267058D01*
X2115734*
X2119654Y1271979D02*
Y1267058D01*
Y1271979D02*
X2121870D01*
X2119654Y1269636D02*
X2121018D01*
X2119654Y1267058D02*
X2121870D01*
X2125791Y1271276D02*
X2125450Y1271745D01*
X2125450D02*
X2124938Y1271979D01*
X2124938D02*
X2124256D01*
X2124256D02*
X2123745Y1271745D01*
X2123745D02*
X2123404Y1271276D01*
X2123404D02*
Y1270808D01*
X2123404D02*
X2123575Y1270339D01*
X2123745Y1270104*
X2123745D02*
X2124086Y1269870D01*
X2124086D02*
X2125109Y1269401D01*
X2125109D02*
X2125450Y1269167D01*
X2125620Y1268933*
X2125620D02*
X2125791Y1268464D01*
Y1267761*
X2125450Y1267292*
X2124938Y1267058*
X2124938D02*
X2124256D01*
X2124256D02*
X2123745Y1267292D01*
X2123745D02*
X2123404Y1267761D01*
X2127325Y1271979D02*
Y1267058D01*
X2131416Y1270808D02*
X2131245Y1271276D01*
X2131245D02*
X2130904Y1271745D01*
X2130904D02*
X2130563Y1271979D01*
X2130563D02*
X2129881D01*
X2129881D02*
X2129541Y1271745D01*
X2129541D02*
X2129200Y1271276D01*
X2129200D02*
X2129029Y1270808D01*
X2129029D02*
X2128859Y1270104D01*
X2128859D02*
Y1268933D01*
X2129029Y1268229*
X2129029D02*
X2129200Y1267761D01*
X2129541Y1267292*
X2129881Y1267058*
X2129881D02*
X2130563D01*
X2130563D02*
X2130904Y1267292D01*
X2130904D02*
X2131245Y1267761D01*
X2131245D02*
X2131416Y1268229D01*
X2131416D02*
Y1268933D01*
X2130563D02*
X2131416D01*
X2132950Y1271979D02*
Y1267058D01*
Y1271979D02*
X2135336Y1267058D01*
Y1271979D02*
Y1267058D01*
X2137041Y1270339D02*
X2136870Y1270104D01*
X2136870D02*
X2137041Y1269870D01*
X2137041D02*
X2137211Y1270104D01*
X2137211D02*
X2137041Y1270339D01*
Y1267526D02*
X2136870Y1267292D01*
X2136870D02*
X2137041Y1267058D01*
X2137211Y1267292*
X2137211D02*
X2137041Y1267526D01*
X2118291Y1253808D02*
X2118120Y1254276D01*
X2118120D02*
X2117779Y1254745D01*
X2117779D02*
X2117438Y1254979D01*
X2117438D02*
X2116756D01*
X2116756D02*
X2116416Y1254745D01*
X2116416D02*
X2116075Y1254276D01*
X2116075D02*
X2115904Y1253808D01*
X2115904D02*
X2115734Y1253104D01*
X2115734D02*
Y1251933D01*
X2115904Y1251229*
X2115904D02*
X2116075Y1250761D01*
X2116416Y1250292*
X2116756Y1250058*
X2116756D02*
X2117438D01*
X2117438D02*
X2117779Y1250292D01*
X2117779D02*
X2118120Y1250761D01*
X2118120D02*
X2118291Y1251229D01*
X2119825Y1254979D02*
Y1250058D01*
X2122211Y1254979D02*
Y1250058D01*
X2119825Y1252636D02*
X2122211D01*
X2123745Y1254979D02*
Y1250058D01*
Y1254979D02*
X2125961D01*
X2123745Y1252636D02*
X2125109D01*
X2123745Y1250058D02*
X2125961D01*
X2130052Y1253808D02*
X2129881Y1254276D01*
X2129881D02*
X2129541Y1254745D01*
X2129541D02*
X2129200Y1254979D01*
X2129200D02*
X2128518D01*
X2128518D02*
X2128177Y1254745D01*
X2128177D02*
X2127836Y1254276D01*
X2127836D02*
X2127666Y1253808D01*
X2127495Y1253104*
X2127495D02*
Y1251933D01*
X2127495D02*
X2127666Y1251229D01*
X2127666D02*
X2127836Y1250761D01*
X2127836D02*
X2128177Y1250292D01*
X2128518Y1250058*
X2129200*
X2129541Y1250292*
X2129881Y1250761*
X2129881D02*
X2130052Y1251229D01*
X2131586Y1254979D02*
Y1250058D01*
X2133972Y1254979D02*
X2131586Y1251698D01*
X2132438Y1252870D02*
X2133972Y1250058D01*
X2135506Y1254979D02*
Y1250058D01*
Y1254979D02*
X2137722D01*
X2135506Y1252636D02*
X2136870D01*
X2135506Y1250058D02*
X2137722D01*
X2139256Y1254979D02*
Y1250058D01*
Y1254979D02*
X2140450D01*
X2140450D02*
X2140961Y1254745D01*
X2140961D02*
X2141302Y1254276D01*
X2141302D02*
X2141472Y1253808D01*
X2141472D02*
X2141643Y1253104D01*
X2141643D02*
Y1251933D01*
X2141472Y1251229*
X2141472D02*
X2141302Y1250761D01*
X2140961Y1250292*
X2140961D02*
X2140450Y1250058D01*
X2139256*
X2146245Y1254979D02*
Y1250058D01*
Y1254979D02*
X2147779D01*
X2147779D02*
X2148291Y1254745D01*
X2148291D02*
X2148461Y1254511D01*
X2148461D02*
X2148631Y1254042D01*
X2148631D02*
Y1253573D01*
X2148631D02*
X2148461Y1253104D01*
X2148461D02*
X2148291Y1252870D01*
X2148291D02*
X2147779Y1252636D01*
X2146245D02*
X2147779D01*
X2147779D02*
X2148291Y1252401D01*
X2148291D02*
X2148461Y1252167D01*
X2148461D02*
X2148631Y1251698D01*
X2148631D02*
Y1250995D01*
X2148631D02*
X2148461Y1250526D01*
X2148461D02*
X2148291Y1250292D01*
X2147779Y1250058*
X2147779D02*
X2146245D01*
X2150166Y1254979D02*
X2151529Y1252636D01*
X2151529D02*
Y1250058D01*
X2152893Y1254979D02*
X2151529Y1252636D01*
X2154597Y1253339D02*
X2154427Y1253104D01*
X2154427D02*
X2154597Y1252870D01*
X2154597D02*
X2154768Y1253104D01*
X2154768D02*
X2154597Y1253339D01*
Y1250526D02*
X2154427Y1250292D01*
X2154597Y1250058*
X2154597D02*
X2154768Y1250292D01*
X2154597Y1250526*
X2115734Y1236979D02*
Y1232058D01*
Y1236979D02*
X2117950D01*
X2115734Y1234636D02*
X2117097D01*
X2115734Y1232058D02*
X2117950D01*
X2119484Y1236979D02*
Y1232058D01*
Y1236979D02*
X2121870Y1232058D01*
Y1236979D02*
Y1232058D01*
X2125961Y1235808D02*
X2125791Y1236276D01*
X2125791D02*
X2125450Y1236745D01*
X2125450D02*
X2125109Y1236979D01*
X2125109D02*
X2124427D01*
X2124427D02*
X2124086Y1236745D01*
X2124086D02*
X2123745Y1236276D01*
X2123745D02*
X2123575Y1235808D01*
X2123404Y1235104*
X2123404D02*
Y1233933D01*
X2123404D02*
X2123575Y1233229D01*
X2123575D02*
X2123745Y1232761D01*
X2123745D02*
X2124086Y1232292D01*
X2124086D02*
X2124427Y1232058D01*
X2125109*
X2125450Y1232292*
X2125791Y1232761*
X2125961Y1233229*
X2125961D02*
Y1233933D01*
X2125109D02*
X2125961D01*
X2127495Y1236979D02*
Y1232058D01*
X2129029Y1236979D02*
Y1232058D01*
Y1236979D02*
X2131416Y1232058D01*
Y1236979D02*
Y1232058D01*
X2132950Y1236979D02*
Y1232058D01*
Y1236979D02*
X2135166D01*
X2132950Y1234636D02*
X2134313D01*
X2132950Y1232058D02*
X2135166D01*
X2136700Y1236979D02*
Y1232058D01*
Y1236979D02*
X2138916D01*
X2136700Y1234636D02*
X2138063D01*
X2136700Y1232058D02*
X2138916D01*
X2140450Y1236979D02*
Y1232058D01*
Y1236979D02*
X2141984D01*
X2141984D02*
X2142495Y1236745D01*
X2142495D02*
X2142666Y1236511D01*
X2142836Y1236042*
X2142836D02*
Y1235573D01*
X2142836D02*
X2142666Y1235104D01*
X2142666D02*
X2142495Y1234870D01*
X2142495D02*
X2141984Y1234636D01*
X2140450*
X2141643D02*
X2142836Y1232058D01*
X2144370Y1236979D02*
Y1232058D01*
X2145904Y1236979D02*
Y1232058D01*
Y1236979D02*
X2148291Y1232058D01*
Y1236979D02*
Y1232058D01*
X2152381Y1235808D02*
X2152211Y1236276D01*
X2152211D02*
X2151870Y1236745D01*
X2151870D02*
X2151529Y1236979D01*
X2151529D02*
X2150847D01*
X2150847D02*
X2150506Y1236745D01*
X2150506D02*
X2150166Y1236276D01*
X2150166D02*
X2149995Y1235808D01*
X2149995D02*
X2149825Y1235104D01*
X2149825D02*
Y1233933D01*
X2149995Y1233229*
X2149995D02*
X2150166Y1232761D01*
X2150506Y1232292*
X2150506D02*
X2150847Y1232058D01*
X2150847D02*
X2151529D01*
X2151529D02*
X2151870Y1232292D01*
X2151870D02*
X2152211Y1232761D01*
X2152211D02*
X2152381Y1233229D01*
X2152381D02*
Y1233933D01*
X2151529D02*
X2152381D01*
X2154086Y1235339D02*
X2153916Y1235104D01*
X2153916D02*
X2154086Y1234870D01*
X2154086D02*
X2154256Y1235104D01*
X2154256D02*
X2154086Y1235339D01*
Y1232526D02*
X2153916Y1232292D01*
X2154086Y1232058*
X2154086D02*
X2154256Y1232292D01*
X2154256D02*
X2154086Y1232526D01*
X2115734Y1345620D02*
Y1339058D01*
X2118461*
X2122325Y1345620D02*
X2120506Y1339058D01*
X2122325Y1345620D02*
X2124143Y1339058D01*
X2121188Y1341245D02*
X2123461D01*
X2126188Y1345620D02*
X2128006Y1342495D01*
X2128006D02*
Y1339058D01*
X2129825Y1345620D02*
X2128006Y1342495D01*
X2131870Y1345620D02*
Y1339058D01*
Y1345620D02*
X2134825D01*
X2131870Y1342495D02*
X2133688D01*
X2131870Y1339058D02*
X2134825D01*
X2136870Y1345620D02*
Y1339058D01*
Y1345620D02*
X2138916D01*
X2138916D02*
X2139597Y1345308D01*
X2139597D02*
X2139825Y1344995D01*
X2139825D02*
X2140052Y1344370D01*
X2140052D02*
Y1343745D01*
X2140052D02*
X2139825Y1343120D01*
X2139825D02*
X2139597Y1342808D01*
X2139597D02*
X2138916Y1342495D01*
X2138916D02*
X2136870D01*
X2138461D02*
X2140052Y1339058D01*
X2142325Y1343433D02*
X2142097Y1343120D01*
X2142097D02*
X2142325Y1342808D01*
X2142552Y1343120*
X2142552D02*
X2142325Y1343433D01*
Y1339683D02*
X2142097Y1339370D01*
X2142097D02*
X2142325Y1339058D01*
X2142552Y1339370*
X2142552D02*
X2142325Y1339683D01*
X2115734Y1312979D02*
Y1308058D01*
Y1312979D02*
X2116927D01*
X2116927D02*
X2117438Y1312745D01*
X2117438D02*
X2117779Y1312276D01*
X2117779D02*
X2117950Y1311808D01*
X2118120Y1311104*
X2118120D02*
Y1309933D01*
X2118120D02*
X2117950Y1309229D01*
X2117950D02*
X2117779Y1308761D01*
X2117779D02*
X2117438Y1308292D01*
X2117438D02*
X2116927Y1308058D01*
X2115734*
X2119654Y1312979D02*
Y1308058D01*
Y1312979D02*
X2121870D01*
X2119654Y1310636D02*
X2121018D01*
X2119654Y1308058D02*
X2121870D01*
X2125791Y1312276D02*
X2125450Y1312745D01*
X2125450D02*
X2124938Y1312979D01*
X2124938D02*
X2124256D01*
X2124256D02*
X2123745Y1312745D01*
X2123745D02*
X2123404Y1312276D01*
X2123404D02*
Y1311808D01*
X2123404D02*
X2123575Y1311339D01*
X2123745Y1311104*
X2123745D02*
X2124086Y1310870D01*
X2124086D02*
X2125109Y1310401D01*
X2125109D02*
X2125450Y1310167D01*
X2125620Y1309933*
X2125620D02*
X2125791Y1309464D01*
Y1308761*
X2125450Y1308292*
X2124938Y1308058*
X2124938D02*
X2124256D01*
X2124256D02*
X2123745Y1308292D01*
X2123745D02*
X2123404Y1308761D01*
X2127325Y1312979D02*
Y1308058D01*
X2131416Y1311808D02*
X2131245Y1312276D01*
X2131245D02*
X2130904Y1312745D01*
X2130904D02*
X2130563Y1312979D01*
X2130563D02*
X2129881D01*
X2129881D02*
X2129541Y1312745D01*
X2129541D02*
X2129200Y1312276D01*
X2129200D02*
X2129029Y1311808D01*
X2129029D02*
X2128859Y1311104D01*
X2128859D02*
Y1309933D01*
X2129029Y1309229*
X2129029D02*
X2129200Y1308761D01*
X2129541Y1308292*
X2129881Y1308058*
X2129881D02*
X2130563D01*
X2130563D02*
X2130904Y1308292D01*
X2130904D02*
X2131245Y1308761D01*
X2131245D02*
X2131416Y1309229D01*
X2131416D02*
Y1309933D01*
X2130563D02*
X2131416D01*
X2132950Y1312979D02*
Y1308058D01*
Y1312979D02*
X2135336Y1308058D01*
Y1312979D02*
Y1308058D01*
X2139938Y1312979D02*
Y1308058D01*
Y1312979D02*
X2141472D01*
X2141472D02*
X2141984Y1312745D01*
X2141984D02*
X2142154Y1312511D01*
X2142154D02*
X2142325Y1312042D01*
Y1311573*
X2142325D02*
X2142154Y1311104D01*
X2142154D02*
X2141984Y1310870D01*
X2141984D02*
X2141472Y1310636D01*
X2139938D02*
X2141472D01*
X2141472D02*
X2141984Y1310401D01*
X2141984D02*
X2142154Y1310167D01*
X2142154D02*
X2142325Y1309698D01*
X2142325D02*
Y1308995D01*
X2142325D02*
X2142154Y1308526D01*
X2142154D02*
X2141984Y1308292D01*
X2141472Y1308058*
X2141472D02*
X2139938D01*
X2143859Y1312979D02*
X2145222Y1310636D01*
X2145222D02*
Y1308058D01*
X2146586Y1312979D02*
X2145222Y1310636D01*
X2148291Y1311339D02*
X2148120Y1311104D01*
X2148120D02*
X2148291Y1310870D01*
X2148291D02*
X2148461Y1311104D01*
X2148461D02*
X2148291Y1311339D01*
Y1308526D02*
X2148120Y1308292D01*
X2148120D02*
X2148291Y1308058D01*
X2148461Y1308292*
X2148461D02*
X2148291Y1308526D01*
X2116234Y1221479D02*
Y1216558D01*
Y1221479D02*
X2117768D01*
X2117768D02*
X2118279Y1221245D01*
X2118279D02*
X2118450Y1221011D01*
X2118620Y1220542*
X2118620D02*
Y1220073D01*
X2118620D02*
X2118450Y1219604D01*
X2118450D02*
X2118279Y1219370D01*
X2118279D02*
X2117768Y1219136D01*
X2116234*
X2117427D02*
X2118620Y1216558D01*
X2120154Y1221479D02*
Y1216558D01*
Y1221479D02*
X2122370D01*
X2120154Y1219136D02*
X2121518D01*
X2120154Y1216558D02*
X2122370D01*
X2123904Y1221479D02*
Y1216558D01*
X2123904D02*
X2125950D01*
X2127484Y1221479D02*
Y1216558D01*
Y1221479D02*
X2129700D01*
X2127484Y1219136D02*
X2128847D01*
X2127484Y1216558D02*
X2129700D01*
X2132597Y1221479D02*
X2131234Y1216558D01*
X2132597Y1221479D02*
X2133961Y1216558D01*
X2131745Y1218198D02*
X2133450D01*
X2137881Y1220776D02*
X2137541Y1221245D01*
X2137541D02*
X2137029Y1221479D01*
X2137029D02*
X2136347D01*
X2136347D02*
X2135836Y1221245D01*
X2135836D02*
X2135495Y1220776D01*
X2135495D02*
Y1220308D01*
X2135495D02*
X2135666Y1219839D01*
X2135836Y1219604*
X2135836D02*
X2136177Y1219370D01*
X2136177D02*
X2137200Y1218901D01*
X2137200D02*
X2137541Y1218667D01*
X2137711Y1218433*
X2137711D02*
X2137881Y1217964D01*
X2137881D02*
Y1217261D01*
X2137881D02*
X2137541Y1216792D01*
X2137029Y1216558*
X2137029D02*
X2136347D01*
X2136347D02*
X2135836Y1216792D01*
X2135836D02*
X2135495Y1217261D01*
X2139416Y1221479D02*
Y1216558D01*
Y1221479D02*
X2141631D01*
X2139416Y1219136D02*
X2140779D01*
X2139416Y1216558D02*
X2141631D01*
X2143166Y1221479D02*
Y1216558D01*
Y1221479D02*
X2144359D01*
X2144359D02*
X2144870Y1221245D01*
X2144870D02*
X2145211Y1220776D01*
X2145211D02*
X2145381Y1220308D01*
X2145381D02*
X2145552Y1219604D01*
X2145552D02*
Y1218433D01*
X2145381Y1217729*
X2145381D02*
X2145211Y1217261D01*
X2145211D02*
X2144870Y1216792D01*
X2144870D02*
X2144359Y1216558D01*
X2143166*
X2147256Y1219839D02*
X2147086Y1219604D01*
X2147086D02*
X2147256Y1219370D01*
X2147256D02*
X2147427Y1219604D01*
X2147427D02*
X2147256Y1219839D01*
Y1217026D02*
X2147086Y1216792D01*
X2147086D02*
X2147256Y1216558D01*
X2147256D02*
X2147427Y1216792D01*
X2147256Y1217026*
X2205234Y1223979D02*
Y1219058D01*
Y1223979D02*
X2206427D01*
X2206427D02*
X2206938Y1223745D01*
X2206938D02*
X2207279Y1223276D01*
X2207279D02*
X2207450Y1222808D01*
X2207620Y1222104*
X2207620D02*
Y1220933D01*
X2207620D02*
X2207450Y1220229D01*
X2207450D02*
X2207279Y1219761D01*
X2207279D02*
X2206938Y1219292D01*
X2206938D02*
X2206427Y1219058D01*
X2205234*
X2210518Y1223979D02*
X2209154Y1219058D01*
X2210518Y1223979D02*
X2211881Y1219058D01*
X2209666Y1220698D02*
X2211370D01*
X2214609Y1223979D02*
Y1219058D01*
X2213416Y1223979D02*
X2215802D01*
X2217336D02*
Y1219058D01*
Y1223979D02*
X2219552D01*
X2217336Y1221636D02*
X2218700D01*
X2217336Y1219058D02*
X2219552D01*
X2221256Y1222339D02*
X2221086Y1222104D01*
X2221086D02*
X2221256Y1221870D01*
X2221256D02*
X2221427Y1222104D01*
X2221427D02*
X2221256Y1222339D01*
Y1219526D02*
X2221086Y1219292D01*
X2221086D02*
X2221256Y1219058D01*
X2221256D02*
X2221427Y1219292D01*
X2221256Y1219526*
X2470734Y1312620D02*
Y1306058D01*
Y1312620D02*
X2472779D01*
X2472779D02*
X2473461Y1312308D01*
X2473461D02*
X2473688Y1311995D01*
X2473688D02*
X2473916Y1311370D01*
X2473916D02*
Y1310745D01*
X2473916D02*
X2473688Y1310120D01*
X2473688D02*
X2473461Y1309808D01*
X2473461D02*
X2472779Y1309495D01*
X2472779D02*
X2470734D01*
X2472325D02*
X2473916Y1306058D01*
X2475961Y1312620D02*
Y1306058D01*
Y1312620D02*
X2478916D01*
X2475961Y1309495D02*
X2477779D01*
X2475961Y1306058D02*
X2478916D01*
X2480961Y1312620D02*
X2482779Y1306058D01*
X2484597Y1312620D02*
X2482779Y1306058D01*
X2486870Y1306683D02*
X2486643Y1306370D01*
X2486643D02*
X2486870Y1306058D01*
X2486870D02*
X2487097Y1306370D01*
X2487097D02*
X2486870Y1306683D01*
X2360085Y1316262D02*
Y1286262D01*
X2243585Y1299762D02*
G03X2243585I-499D01*
G01X2241495Y1297607D02*
G03X2241495I-499D01*
G01X2239406Y1295452D02*
G03X2239406I-499D01*
G01X2241495Y1301917D02*
G03X2241495I-499D01*
G01X2239406Y1304072D02*
G03X2239406I-499D01*
G01X2235228D02*
G03X2235228I-499D01*
G01X2237317Y1301917D02*
G03X2237317I-499D01*
G01X2239406Y1299762D02*
G03X2239406I-499D01*
G01X2237317Y1297607D02*
G03X2237317I-499D01*
G01X2235228Y1299762D02*
G03X2235228I-499D01*
G01X2233139Y1301917D02*
G03X2233139I-499D01*
G01X2231050Y1304072D02*
G03X2231050I-499D01*
G01X2230919Y1286897D02*
G03X2230919I-499D01*
G01X2233008Y1289052D02*
G03X2233008I-499D01*
G01X2235097Y1291207D02*
G03X2235097I-499D01*
G01X2237186Y1293362D02*
G03X2237186I-499D01*
G01X2239275Y1291207D02*
G03X2239275I-499D01*
G01X2237186Y1289052D02*
G03X2237186I-499D01*
G01X2235097Y1286897D02*
G03X2235097I-499D01*
G01X2239275D02*
G03X2239275I-499D01*
G01X2241364Y1289052D02*
G03X2241364I-499D01*
G01Y1293362D02*
G03X2241364I-499D01*
G01X2243453Y1291207D02*
G03X2243453I-499D01*
G01X2365085Y1226762D02*
Y1210762D01*
X2119182Y1822640D02*
Y1818112D01*
X2119182D02*
X2064064D01*
X2064064D02*
Y1822640D01*
X2119182*
X2116868Y1839667D02*
G03X2116868I-1622D01*
G01X2010446Y1841199D02*
X2035800D01*
X2035800D02*
Y1831750D01*
X2035800D02*
X2010446D01*
Y1841199*
X2007651Y1831750D02*
X2038595D01*
X2038595D02*
Y1803010D01*
X2038595D02*
X2007651D01*
Y1831750*
X1939855Y1841199D02*
X1996391D01*
Y1831750*
X1939855*
X1939855D02*
Y1841199D01*
X1937060Y1831750D02*
X1999186D01*
X1999186D02*
Y1803010D01*
X1999186D02*
X1937060D01*
X1937060D02*
Y1831750D01*
X2150946Y1840699D02*
X2176300D01*
X2176300D02*
Y1831250D01*
X2176300D02*
X2150946D01*
Y1840699*
X2148151Y1831250D02*
X2179095D01*
X2179095D02*
Y1802510D01*
X2179095D02*
X2148151D01*
Y1831250*
X2030485Y1721277D02*
Y1787222D01*
X2030485D02*
X2031470Y1788207D01*
X2097414*
X2097414D02*
Y1721277D01*
X2097414D02*
X2030485D01*
X2158266Y1336137D02*
X2156085Y1328262D01*
X2158266Y1336137D02*
X2160448Y1328262D01*
X2156903Y1330887D02*
X2159630D01*
X2166721Y1335012D02*
X2166175Y1335762D01*
X2166175D02*
X2165357Y1336137D01*
X2165357D02*
X2164266D01*
X2164266D02*
X2163448Y1335762D01*
X2163448D02*
X2162903Y1335012D01*
X2162903D02*
Y1334262D01*
X2162903D02*
X2163175Y1333512D01*
X2163175D02*
X2163448Y1333137D01*
X2163448D02*
X2163994Y1332762D01*
X2163994D02*
X2165630Y1332012D01*
X2165630D02*
X2166175Y1331637D01*
X2166175D02*
X2166448Y1331262D01*
X2166448D02*
X2166721Y1330512D01*
X2166721D02*
Y1329387D01*
X2166721D02*
X2166175Y1328637D01*
X2166175D02*
X2165357Y1328262D01*
X2165357D02*
X2164266D01*
X2164266D02*
X2163448Y1328637D01*
X2163448D02*
X2162903Y1329387D01*
X2172994Y1335012D02*
X2172448Y1335762D01*
X2172448D02*
X2171630Y1336137D01*
X2171630D02*
X2170539D01*
X2170539D02*
X2169721Y1335762D01*
X2169721D02*
X2169175Y1335012D01*
X2169175D02*
Y1334262D01*
X2169175D02*
X2169448Y1333512D01*
X2169448D02*
X2169721Y1333137D01*
X2169721D02*
X2170266Y1332762D01*
X2170266D02*
X2171903Y1332012D01*
X2171903D02*
X2172448Y1331637D01*
X2172448D02*
X2172721Y1331262D01*
X2172721D02*
X2172994Y1330512D01*
X2172994D02*
Y1329387D01*
X2172994D02*
X2172448Y1328637D01*
X2172448D02*
X2171630Y1328262D01*
X2171630D02*
X2170539D01*
X2170539D02*
X2169721Y1328637D01*
X2169721D02*
X2169175Y1329387D01*
X2175448Y1336137D02*
Y1328262D01*
Y1336137D02*
X2178994D01*
X2175448Y1332387D02*
X2177630D01*
X2175448Y1328262D02*
X2178994D01*
X2181448Y1336137D02*
Y1328262D01*
Y1336137D02*
X2183630Y1328262D01*
X2185812Y1336137D02*
X2183630Y1328262D01*
X2185812Y1336137D02*
Y1328262D01*
X2188266Y1336137D02*
Y1328262D01*
Y1336137D02*
X2190721D01*
X2190721D02*
X2191539Y1335762D01*
X2191539D02*
X2191812Y1335387D01*
X2191812D02*
X2192085Y1334637D01*
X2192085D02*
Y1333887D01*
X2192085D02*
X2191812Y1333137D01*
X2191812D02*
X2191539Y1332762D01*
X2191539D02*
X2190721Y1332387D01*
X2188266D02*
X2190721D01*
X2190721D02*
X2191539Y1332012D01*
X2191539D02*
X2191812Y1331637D01*
X2191812D02*
X2192085Y1330887D01*
X2192085D02*
Y1329762D01*
X2192085D02*
X2191812Y1329012D01*
X2191812D02*
X2191539Y1328637D01*
X2191539D02*
X2190721Y1328262D01*
X2190721D02*
X2188266D01*
X2194539Y1336137D02*
Y1328262D01*
X2194539D02*
X2197812D01*
X2200266Y1336137D02*
X2202448Y1332387D01*
X2202448D02*
Y1328262D01*
X2204630Y1336137D02*
X2202448Y1332387D01*
X2213903Y1336137D02*
Y1328262D01*
X2211994Y1336137D02*
X2215812D01*
X2219903D02*
X2219357Y1335762D01*
X2219357D02*
X2218812Y1335012D01*
X2218812D02*
X2218539Y1334262D01*
X2218539D02*
X2218266Y1333137D01*
X2218266D02*
Y1331262D01*
X2218266D02*
X2218539Y1330137D01*
X2218539D02*
X2218812Y1329387D01*
X2218812D02*
X2219357Y1328637D01*
X2219357D02*
X2219903Y1328262D01*
X2219903D02*
X2220994D01*
X2220994D02*
X2221539Y1328637D01*
X2221539D02*
X2222085Y1329387D01*
X2222085D02*
X2222357Y1330137D01*
X2222357D02*
X2222630Y1331262D01*
X2222630D02*
Y1333137D01*
X2222630D02*
X2222357Y1334262D01*
X2222357D02*
X2222085Y1335012D01*
X2222085D02*
X2221539Y1335762D01*
X2221539D02*
X2220994Y1336137D01*
X2220994D02*
X2219903D01*
X2225085D02*
Y1328262D01*
Y1336137D02*
X2227539D01*
X2227539D02*
X2228357Y1335762D01*
X2228357D02*
X2228630Y1335387D01*
X2228630D02*
X2228903Y1334637D01*
X2228903D02*
Y1333512D01*
X2228903D02*
X2228630Y1332762D01*
X2228630D02*
X2228357Y1332387D01*
X2228357D02*
X2227539Y1332012D01*
X2227539D02*
X2225085D01*
X2382850Y1299501D02*
X2382623Y1300126D01*
X2382623D02*
X2381941Y1300438D01*
X2381941D02*
X2381487D01*
X2381487D02*
X2380805Y1300126D01*
X2380350Y1299188*
X2380350D02*
X2380123Y1297626D01*
X2380123D02*
Y1296063D01*
X2380123D02*
X2380350Y1294813D01*
X2380350D02*
X2380805Y1294188D01*
X2380805D02*
X2381487Y1293876D01*
X2381714*
X2382396Y1294188*
X2382396D02*
X2382850Y1294813D01*
X2382850D02*
X2383078Y1295751D01*
Y1296063*
X2383078D02*
X2382850Y1297001D01*
X2382850D02*
X2382396Y1297626D01*
X2381714Y1297938*
X2381714D02*
X2381487D01*
X2381487D02*
X2380805Y1297626D01*
X2380350Y1297001*
X2380350D02*
X2380123Y1296063D01*
X2387396Y1300438D02*
X2385123Y1296063D01*
X2385123D02*
X2388532D01*
X2387396Y1300438D02*
Y1293876D01*
X2393305Y1298251D02*
Y1293251D01*
X2393078Y1292313*
X2393078D02*
X2392850Y1292001D01*
X2392850D02*
X2392396Y1291688D01*
X2392396D02*
X2391714D01*
X2391714D02*
X2391259Y1292001D01*
X2393305Y1297313D02*
X2392850Y1297938D01*
X2392850D02*
X2392396Y1298251D01*
X2391714*
X2391259Y1297938*
X2391259D02*
X2390805Y1297313D01*
X2390805D02*
X2390578Y1296376D01*
Y1295751*
X2390805Y1294813*
X2390805D02*
X2391259Y1294188D01*
X2391259D02*
X2391714Y1293876D01*
X2392396*
X2392850Y1294188*
X2392850D02*
X2393305Y1294813D01*
X2395578Y1298876D02*
Y1299188D01*
X2395578D02*
X2395805Y1299813D01*
X2395805D02*
X2396032Y1300126D01*
X2396032D02*
X2396487Y1300438D01*
X2396487D02*
X2397396D01*
X2397396D02*
X2397850Y1300126D01*
X2397850D02*
X2398078Y1299813D01*
X2398078D02*
X2398305Y1299188D01*
X2398305D02*
Y1298563D01*
X2398305D02*
X2398078Y1297938D01*
X2398078D02*
X2397623Y1297001D01*
X2397623D02*
X2395350Y1293876D01*
X2395350D02*
X2398532D01*
X2403532Y1300438D02*
X2401259D01*
X2401259D02*
X2401032Y1297626D01*
X2401032D02*
X2401259Y1297938D01*
X2401259D02*
X2401941Y1298251D01*
X2401941D02*
X2402623D01*
X2402623D02*
X2403305Y1297938D01*
X2403305D02*
X2403759Y1297313D01*
X2403759D02*
X2403987Y1296376D01*
X2403759Y1295751*
X2403759D02*
X2403532Y1294813D01*
X2403532D02*
X2403078Y1294188D01*
X2403078D02*
X2402396Y1293876D01*
X2401714*
X2401032Y1294188*
X2401032D02*
X2400805Y1294501D01*
X2400578Y1295126*
X2408759Y1299501D02*
X2408532Y1300126D01*
X2408532D02*
X2407850Y1300438D01*
X2407850D02*
X2407396D01*
X2407396D02*
X2406714Y1300126D01*
X2406259Y1299188*
X2406259D02*
X2406032Y1297626D01*
X2406032D02*
Y1296063D01*
X2406032D02*
X2406259Y1294813D01*
X2406259D02*
X2406714Y1294188D01*
X2406714D02*
X2407396Y1293876D01*
X2407623*
X2407623D02*
X2408305Y1294188D01*
X2408305D02*
X2408759Y1294813D01*
X2408759D02*
X2408987Y1295751D01*
Y1296063*
X2408987D02*
X2408759Y1297001D01*
X2408759D02*
X2408305Y1297626D01*
X2407623Y1297938*
X2407623D02*
X2407396D01*
X2407396D02*
X2406714Y1297626D01*
X2406259Y1297001*
X2406259D02*
X2406032Y1296063D01*
X2411032Y1298251D02*
Y1293876D01*
Y1297001D02*
X2411714Y1297938D01*
X2411714D02*
X2412168Y1298251D01*
X2412168D02*
X2412850D01*
X2412850D02*
X2413305Y1297938D01*
X2413305D02*
X2413532Y1297001D01*
X2413532D02*
Y1293876D01*
Y1297001D02*
X2414214Y1297938D01*
X2414214D02*
X2414668Y1298251D01*
X2414668D02*
X2415350D01*
X2415350D02*
X2415805Y1297938D01*
X2415805D02*
X2416032Y1297001D01*
X2416032D02*
Y1293876D01*
X2418078Y1296688D02*
X2422168D01*
X2424214Y1299188D02*
X2424668Y1299501D01*
X2424668D02*
X2425350Y1300438D01*
X2425350D02*
Y1293876D01*
X2328461Y1281901D02*
X2325734Y1272058D01*
X2328461Y1281901D02*
X2331188Y1272058D01*
X2326756Y1275339D02*
X2330166D01*
X2339029Y1280495D02*
X2338347Y1281433D01*
X2338347D02*
X2337325Y1281901D01*
X2337325D02*
X2335961D01*
X2335961D02*
X2334938Y1281433D01*
X2334938D02*
X2334256Y1280495D01*
X2334256D02*
Y1279558D01*
X2334256D02*
X2334597Y1278620D01*
X2334597D02*
X2334938Y1278151D01*
X2334938D02*
X2335620Y1277683D01*
X2335620D02*
X2337666Y1276745D01*
X2337666D02*
X2338347Y1276276D01*
X2338347D02*
X2338688Y1275808D01*
X2338688D02*
X2339029Y1274870D01*
X2339029D02*
Y1273464D01*
X2339029D02*
X2338347Y1272526D01*
X2338347D02*
X2337325Y1272058D01*
X2335961*
X2335961D02*
X2334938Y1272526D01*
X2334938D02*
X2334256Y1273464D01*
X2346870Y1280495D02*
X2346188Y1281433D01*
X2346188D02*
X2345166Y1281901D01*
X2345166D02*
X2343802D01*
X2343802D02*
X2342779Y1281433D01*
X2342779D02*
X2342097Y1280495D01*
X2342097D02*
Y1279558D01*
X2342097D02*
X2342438Y1278620D01*
X2342438D02*
X2342779Y1278151D01*
X2342779D02*
X2343461Y1277683D01*
X2343461D02*
X2345506Y1276745D01*
X2345506D02*
X2346188Y1276276D01*
X2346188D02*
X2346529Y1275808D01*
X2346529D02*
X2346870Y1274870D01*
X2346870D02*
Y1273464D01*
X2346870D02*
X2346188Y1272526D01*
X2346188D02*
X2345166Y1272058D01*
X2343802*
X2342779Y1272526*
X2342779D02*
X2342097Y1273464D01*
X2349938Y1281901D02*
Y1272058D01*
Y1281901D02*
X2354370D01*
X2349938Y1277214D02*
X2352666D01*
X2349938Y1272058D02*
X2354370D01*
X2357438Y1281901D02*
Y1272058D01*
Y1281901D02*
X2360166Y1272058D01*
X2362893Y1281901D02*
X2360166Y1272058D01*
X2362893Y1281901D02*
Y1272058D01*
X2365961Y1281901D02*
Y1272058D01*
Y1281901D02*
X2369029D01*
X2369029D02*
X2370052Y1281433D01*
X2370393Y1280964*
X2370734Y1280026*
X2370734D02*
Y1279089D01*
X2370393Y1278151*
X2370393D02*
X2370052Y1277683D01*
X2369029Y1277214*
X2365961D02*
X2369029D01*
X2369029D02*
X2370052Y1276745D01*
X2370052D02*
X2370393Y1276276D01*
X2370393D02*
X2370734Y1275339D01*
Y1273933*
X2370393Y1272995*
X2370393D02*
X2370052Y1272526D01*
X2370052D02*
X2369029Y1272058D01*
X2369029D02*
X2365961D01*
X2373802Y1281901D02*
Y1272058D01*
X2377893*
X2380961Y1281901D02*
X2383688Y1277214D01*
X2383688D02*
Y1272058D01*
X2386416Y1281901D02*
X2383688Y1277214D01*
X2395620Y1281901D02*
Y1272058D01*
Y1281901D02*
X2398006D01*
X2398006D02*
X2399029Y1281433D01*
X2399029D02*
X2399711Y1280495D01*
X2399711D02*
X2400052Y1279558D01*
X2400393Y1278151*
X2400393D02*
Y1275808D01*
X2400052Y1274401*
X2400052D02*
X2399711Y1273464D01*
X2399711D02*
X2399029Y1272526D01*
X2399029D02*
X2398006Y1272058D01*
X2398006D02*
X2395620D01*
X2403461Y1281901D02*
Y1272058D01*
Y1281901D02*
X2406529D01*
X2406529D02*
X2407552Y1281433D01*
X2407893Y1280964*
X2408234Y1280026*
X2408234D02*
Y1279089D01*
X2407893Y1278151*
X2407893D02*
X2407552Y1277683D01*
X2406529Y1277214*
X2406529D02*
X2403461D01*
X2405847D02*
X2408234Y1272058D01*
X2414029Y1281901D02*
X2411302Y1272058D01*
X2414029Y1281901D02*
X2416756Y1272058D01*
X2412325Y1275339D02*
X2415734D01*
X2419825Y1281901D02*
X2421529Y1272058D01*
X2423234Y1281901D02*
X2421529Y1272058D01*
X2423234Y1281901D02*
X2424938Y1272058D01*
X2426643Y1281901D02*
X2424938Y1272058D01*
X2429711Y1281901D02*
Y1272058D01*
X2432779Y1281901D02*
Y1272058D01*
Y1281901D02*
X2437552Y1272058D01*
Y1281901D02*
Y1272058D01*
X2445734Y1279558D02*
X2445393Y1280495D01*
X2445393D02*
X2444711Y1281433D01*
X2444711D02*
X2444029Y1281901D01*
X2444029D02*
X2442666D01*
X2442666D02*
X2441984Y1281433D01*
X2441302Y1280495*
X2441302D02*
X2440961Y1279558D01*
X2440961D02*
X2440620Y1278151D01*
X2440620D02*
Y1275808D01*
X2440620D02*
X2440961Y1274401D01*
X2440961D02*
X2441302Y1273464D01*
X2441984Y1272526*
X2441984D02*
X2442666Y1272058D01*
X2444029*
X2444029D02*
X2444711Y1272526D01*
X2444711D02*
X2445393Y1273464D01*
X2445734Y1274401*
X2445734D02*
Y1275808D01*
X2444029D02*
X2445734D01*
X2457325Y1281901D02*
Y1272058D01*
X2454938Y1281901D02*
X2459711D01*
X2464825D02*
X2464143Y1281433D01*
X2463461Y1280495*
X2463461D02*
X2463120Y1279558D01*
X2463120D02*
X2462779Y1278151D01*
X2462779D02*
Y1275808D01*
X2462779D02*
X2463120Y1274401D01*
X2463120D02*
X2463461Y1273464D01*
X2463461D02*
X2464143Y1272526D01*
X2464143D02*
X2464825Y1272058D01*
X2466188*
X2466188D02*
X2466870Y1272526D01*
X2466870D02*
X2467552Y1273464D01*
X2467893Y1274401*
X2467893D02*
X2468234Y1275808D01*
Y1278151*
X2468234D02*
X2467893Y1279558D01*
X2467552Y1280495*
X2467552D02*
X2466870Y1281433D01*
X2466870D02*
X2466188Y1281901D01*
X2466188D02*
X2464825D01*
X2471302D02*
Y1272058D01*
Y1281901D02*
X2474370D01*
X2474370D02*
X2475393Y1281433D01*
X2475734Y1280964*
X2476075Y1280026*
X2476075D02*
Y1278620D01*
X2476075D02*
X2475734Y1277683D01*
X2475393Y1277214*
X2474370Y1276745*
X2474370D02*
X2471302D01*
X2382766Y1220887D02*
X2382312Y1221512D01*
X2382312D02*
X2381630Y1221825D01*
X2380721*
X2380039Y1221512*
X2380039D02*
X2379585Y1220887D01*
X2379585D02*
Y1220262D01*
X2379585D02*
X2379812Y1219637D01*
X2379812D02*
X2380039Y1219325D01*
X2380039D02*
X2380494Y1219012D01*
X2380494D02*
X2381857Y1218387D01*
X2381857D02*
X2382312Y1218075D01*
X2382539Y1217762*
X2382539D02*
X2382766Y1217137D01*
X2382766D02*
Y1216200D01*
X2382766D02*
X2382312Y1215575D01*
X2381630Y1215262*
X2381630D02*
X2380721D01*
X2380721D02*
X2380039Y1215575D01*
X2380039D02*
X2379585Y1216200D01*
X2384812Y1221825D02*
Y1215262D01*
X2387994Y1221825D02*
Y1215262D01*
X2384812Y1218700D02*
X2387994D01*
X2390039Y1221825D02*
Y1215262D01*
Y1221825D02*
X2392994D01*
X2390039Y1218700D02*
X2391857D01*
X2390039Y1215262D02*
X2392994D01*
X2395039Y1221825D02*
Y1215262D01*
Y1221825D02*
X2397994D01*
X2395039Y1218700D02*
X2396857D01*
X2395039Y1215262D02*
X2397994D01*
X2401630Y1221825D02*
Y1215262D01*
X2400039Y1221825D02*
X2403221D01*
X2413448Y1220575D02*
X2413903Y1220887D01*
X2413903D02*
X2414585Y1221825D01*
Y1215262*
X2422085Y1221825D02*
X2421630Y1221512D01*
X2421630D02*
X2421175Y1220887D01*
X2421175D02*
X2420948Y1220262D01*
X2420948D02*
X2420721Y1219325D01*
Y1217762*
X2420721D02*
X2420948Y1216825D01*
X2420948D02*
X2421175Y1216200D01*
X2421175D02*
X2421630Y1215575D01*
X2422085Y1215262*
X2422085D02*
X2422994D01*
X2422994D02*
X2423448Y1215575D01*
X2423448D02*
X2423903Y1216200D01*
X2424130Y1216825*
X2424357Y1217762*
X2424357D02*
Y1219325D01*
X2424357D02*
X2424130Y1220262D01*
X2424130D02*
X2423903Y1220887D01*
X2423903D02*
X2423448Y1221512D01*
X2423448D02*
X2422994Y1221825D01*
X2422085*
X2426403D02*
Y1215262D01*
Y1221825D02*
X2429357D01*
X2426403Y1218700D02*
X2428221D01*
X2435721Y1220262D02*
Y1220575D01*
X2435948Y1221200*
X2435948D02*
X2436175Y1221512D01*
X2436175D02*
X2436630Y1221825D01*
X2437539*
X2437539D02*
X2437994Y1221512D01*
X2437994D02*
X2438221Y1221200D01*
X2438448Y1220575*
X2438448D02*
Y1219950D01*
X2438448D02*
X2438221Y1219325D01*
X2437766Y1218387*
X2437766D02*
X2435494Y1215262D01*
X2435494D02*
X2438675D01*
G54D14*
X2233934Y1309460D02*
G03X2233934I-249D01*
G01X2232889Y1310538D02*
G03X2232889I-249D01*
G01X2231845Y1311615D02*
G03X2231845I-249D01*
G01X2230800Y1312693D02*
G03X2230800I-249D01*
G01X2229935Y1313585D02*
G03X2229935I-249D01*
G01X2229755Y1309460D02*
G03X2229755I-249D01*
G01X2228711Y1310538D02*
G03X2228711I-249D01*
G01X2227666Y1311615D02*
G03X2227666I-249D01*
G01X2226622Y1312693D02*
G03X2226622I-249D01*
G01X2225757Y1313585D02*
G03X2225757I-249D01*
G01X2225577Y1309460D02*
G03X2225577I-249D01*
G01X2224533Y1310538D02*
G03X2224533I-249D01*
G01X2223398Y1311523D02*
G03X2223398I-249D01*
G01X2222444Y1312693D02*
G03X2222444I-249D01*
G01X2221579Y1313585D02*
G03X2221579I-249D01*
G01X2221447Y1277384D02*
G03X2221447I-249D01*
G01X2222312Y1278276D02*
G03X2222312I-249D01*
G01X2223267Y1279446D02*
G03X2223267I-249D01*
G01X2224401Y1280431D02*
G03X2224401I-249D01*
G01X2225446Y1281509D02*
G03X2225446I-249D01*
G01X2225625Y1277384D02*
G03X2225625I-249D01*
G01X2226490Y1278276D02*
G03X2226490I-249D01*
G01X2227535Y1279354D02*
G03X2227535I-249D01*
G01X2228580Y1280431D02*
G03X2228580I-249D01*
G01X2229624Y1281509D02*
G03X2229624I-249D01*
G01X2229804Y1277384D02*
G03X2229804I-249D01*
G01X2230669Y1278276D02*
G03X2230669I-249D01*
G01X2231713Y1279354D02*
G03X2231713I-249D01*
G01X2232758Y1280431D02*
G03X2232758I-249D01*
G01X2233802Y1281509D02*
G03X2233802I-249D01*
G01X2018879Y1765014D02*
X2021635D01*
Y1769738*
X2021635D02*
X2018879D01*
X2013367D02*
X2010611D01*
X2010611D02*
Y1765014D01*
X2010611D02*
X2013367D01*
X2020847Y1765407D02*
X2022029D01*
X2022029D02*
Y1769344D01*
X2022029D02*
X2020847D01*
X2011399Y1765407D02*
X2010218D01*
X2010218D02*
Y1769344D01*
X2010218D02*
X2011399D01*
X2018879Y1731514D02*
X2021635D01*
Y1736238*
X2021635D02*
X2018879D01*
X2013367D02*
X2010611D01*
X2010611D02*
Y1731514D01*
X2010611D02*
X2013367D01*
X2020847Y1731907D02*
X2022029D01*
X2022029D02*
Y1735844D01*
X2022029D02*
X2020847D01*
X2011399Y1731907D02*
X2010218D01*
X2010218D02*
Y1735844D01*
X2010218D02*
X2011399D01*
X2080379Y1791514D02*
X2083135D01*
Y1796238*
X2083135D02*
X2080379D01*
X2074867D02*
X2072111D01*
X2072111D02*
Y1791514D01*
X2072111D02*
X2074867D01*
X2082347Y1791907D02*
X2083529D01*
X2083529D02*
Y1795844D01*
X2083529D02*
X2082347D01*
X2072899Y1791907D02*
X2071718D01*
X2071718D02*
Y1795844D01*
X2071718D02*
X2072899D01*
X2148485Y1731132D02*
Y1733888D01*
X2148485D02*
X2143761D01*
Y1731132*
Y1725620D02*
Y1722864D01*
X2143761D02*
X2148485D01*
X2148485D02*
Y1725620D01*
X2148092Y1733100D02*
Y1734281D01*
X2148092D02*
X2144155D01*
X2144155D02*
Y1733100D01*
X2148092Y1723651D02*
Y1722470D01*
X2148092D02*
X2144155D01*
X2144155D02*
Y1723651D01*
X2143761Y1773120D02*
Y1770364D01*
X2143761D02*
X2148485D01*
X2148485D02*
Y1773120D01*
Y1778632D02*
Y1781388D01*
X2148485D02*
X2143761D01*
Y1778632*
X2144155Y1771151D02*
Y1769970D01*
X2144155D02*
X2148092D01*
X2148092D02*
Y1771151D01*
X2144155Y1780600D02*
Y1781781D01*
X2144155D02*
X2148092D01*
X2148092D02*
Y1780600D01*
X2122623Y1776176D02*
Y1770376D01*
X2122623D02*
X2129623D01*
X2129623D02*
Y1776176D01*
X2122623Y1778576D02*
Y1784376D01*
X2122623D02*
X2129623D01*
X2129623D02*
Y1778576D01*
X2140123Y1729076D02*
Y1734876D01*
X2140123D02*
X2133123D01*
X2133123D02*
Y1729076D01*
X2140123Y1726676D02*
Y1720876D01*
X2140123D02*
X2133123D01*
X2133123D02*
Y1726676D01*
X2154985Y1731132D02*
Y1733888D01*
X2154985D02*
X2150261D01*
Y1731132*
Y1725620D02*
Y1722864D01*
X2150261D02*
X2154985D01*
X2154985D02*
Y1725620D01*
X2154592Y1733100D02*
Y1734281D01*
X2154592D02*
X2150655D01*
X2150655D02*
Y1733100D01*
X2154592Y1723651D02*
Y1722470D01*
X2154592D02*
X2150655D01*
X2150655D02*
Y1723651D01*
X2150261Y1773120D02*
Y1770364D01*
X2150261D02*
X2154985D01*
X2154985D02*
Y1773120D01*
Y1778632D02*
Y1781388D01*
X2154985D02*
X2150261D01*
Y1778632*
X2150655Y1771151D02*
Y1769970D01*
X2150655D02*
X2154592D01*
X2154592D02*
Y1771151D01*
X2150655Y1780600D02*
Y1781781D01*
X2150655D02*
X2154592D01*
X2154592D02*
Y1780600D01*
X2169623Y1751176D02*
Y1745376D01*
X2169623D02*
X2176623D01*
X2176623D02*
Y1751176D01*
X2169623Y1753576D02*
Y1759376D01*
X2169623D02*
X2176623D01*
X2176623D02*
Y1753576D01*
X2162623Y1729076D02*
Y1734876D01*
X2162623D02*
X2155623D01*
X2155623D02*
Y1729076D01*
X2162623Y1726676D02*
Y1720876D01*
X2162623D02*
X2155623D01*
X2155623D02*
Y1726676D01*
X2106367Y1769738D02*
X2103611D01*
X2103611D02*
Y1765014D01*
X2103611D02*
X2106367D01*
X2111879D02*
X2114635D01*
Y1769738*
X2114635D02*
X2111879D01*
X2104399Y1769344D02*
X2103218D01*
X2103218D02*
Y1765407D01*
X2103218D02*
X2104399D01*
X2113847Y1769344D02*
X2115029D01*
X2115029D02*
Y1765407D01*
X2115029D02*
X2113847D01*
X2137261Y1773120D02*
Y1770364D01*
X2137261D02*
X2141985D01*
X2141985D02*
Y1773120D01*
Y1778632D02*
Y1781388D01*
X2141985D02*
X2137261D01*
Y1778632*
X2137655Y1771151D02*
Y1769970D01*
X2137655D02*
X2141592D01*
X2141592D02*
Y1771151D01*
X2137655Y1780600D02*
Y1781781D01*
X2137655D02*
X2141592D01*
X2141592D02*
Y1780600D01*
X2130123Y1776176D02*
Y1770376D01*
X2130123D02*
X2137123D01*
X2137123D02*
Y1776176D01*
X2130123Y1778576D02*
Y1784376D01*
X2130123D02*
X2137123D01*
X2137123D02*
Y1778576D01*
X2035879Y1713514D02*
X2038635D01*
Y1718238*
X2038635D02*
X2035879D01*
X2030367D02*
X2027611D01*
X2027611D02*
Y1713514D01*
X2027611D02*
X2030367D01*
X2037847Y1713907D02*
X2039029D01*
X2039029D02*
Y1717844D01*
X2039029D02*
X2037847D01*
X2028399Y1713907D02*
X2027218D01*
X2027218D02*
Y1717844D01*
X2027218D02*
X2028399D01*
X2035879Y1791514D02*
X2038635D01*
Y1796238*
X2038635D02*
X2035879D01*
X2030367D02*
X2027611D01*
X2027611D02*
Y1791514D01*
X2027611D02*
X2030367D01*
X2037847Y1791907D02*
X2039029D01*
X2039029D02*
Y1795844D01*
X2039029D02*
X2037847D01*
X2028399Y1791907D02*
X2027218D01*
X2027218D02*
Y1795844D01*
X2027218D02*
X2028399D01*
X2150367Y1718238D02*
X2147611D01*
X2147611D02*
Y1713514D01*
X2147611D02*
X2150367D01*
X2155879D02*
X2158635D01*
Y1718238*
X2158635D02*
X2155879D01*
X2148399Y1717844D02*
X2147218D01*
X2147218D02*
Y1713907D01*
X2147218D02*
X2148399D01*
X2157847Y1717844D02*
X2159029D01*
X2159029D02*
Y1713907D01*
X2159029D02*
X2157847D01*
X2149867Y1796238D02*
X2147111D01*
X2147111D02*
Y1791514D01*
X2147111D02*
X2149867D01*
X2155379D02*
X2158135D01*
Y1796238*
X2158135D02*
X2155379D01*
X2147899Y1795844D02*
X2146718D01*
X2146718D02*
Y1791907D01*
X2146718D02*
X2147899D01*
X2157347Y1795844D02*
X2158529D01*
X2158529D02*
Y1791907D01*
X2158529D02*
X2157347D01*
X1975879Y1791514D02*
X1978635D01*
Y1796238*
X1978635D02*
X1975879D01*
X1970367D02*
X1967611D01*
X1967611D02*
Y1791514D01*
X1967611D02*
X1970367D01*
X1977847Y1791907D02*
X1979029D01*
X1979029D02*
Y1795844D01*
X1979029D02*
X1977847D01*
X1968399Y1791907D02*
X1967218D01*
X1967218D02*
Y1795844D01*
X1967218D02*
X1968399D01*
X2090367Y1718238D02*
X2087611D01*
X2087611D02*
Y1713514D01*
X2087611D02*
X2090367D01*
X2095879D02*
X2098635D01*
Y1718238*
X2098635D02*
X2095879D01*
X2088399Y1717844D02*
X2087218D01*
X2087218D02*
Y1713907D01*
X2087218D02*
X2088399D01*
X2097847Y1717844D02*
X2099029D01*
X2099029D02*
Y1713907D01*
X2099029D02*
X2097847D01*
X2090367Y1796238D02*
X2087611D01*
X2087611D02*
Y1791514D01*
X2087611D02*
X2090367D01*
X2095879D02*
X2098635D01*
Y1796238*
X2098635D02*
X2095879D01*
X2088399Y1795844D02*
X2087218D01*
X2087218D02*
Y1791907D01*
X2087218D02*
X2088399D01*
X2097847Y1795844D02*
X2099029D01*
X2099029D02*
Y1791907D01*
X2099029D02*
X2097847D01*
X1975879Y1713514D02*
X1978635D01*
Y1718238*
X1978635D02*
X1975879D01*
X1970367D02*
X1967611D01*
X1967611D02*
Y1713514D01*
X1967611D02*
X1970367D01*
X1977847Y1713907D02*
X1979029D01*
X1979029D02*
Y1717844D01*
X1979029D02*
X1977847D01*
X1968399Y1713907D02*
X1967218D01*
X1967218D02*
Y1717844D01*
X1967218D02*
X1968399D01*
X2018879Y1757014D02*
X2021635D01*
Y1761738*
X2021635D02*
X2018879D01*
X2013367D02*
X2010611D01*
X2010611D02*
Y1757014D01*
X2010611D02*
X2013367D01*
X2020847Y1757407D02*
X2022029D01*
X2022029D02*
Y1761344D01*
X2022029D02*
X2020847D01*
X2011399Y1757407D02*
X2010218D01*
X2010218D02*
Y1761344D01*
X2010218D02*
X2011399D01*
X2106367Y1761738D02*
X2103611D01*
X2103611D02*
Y1757014D01*
X2103611D02*
X2106367D01*
X2111879D02*
X2114635D01*
Y1761738*
X2114635D02*
X2111879D01*
X2104399Y1761344D02*
X2103218D01*
X2103218D02*
Y1757407D01*
X2103218D02*
X2104399D01*
X2113847Y1761344D02*
X2115029D01*
X2115029D02*
Y1757407D01*
X2115029D02*
X2113847D01*
X2018879Y1776014D02*
X2021635D01*
Y1780738*
X2021635D02*
X2018879D01*
X2013367D02*
X2010611D01*
X2010611D02*
Y1776014D01*
X2010611D02*
X2013367D01*
X2020847Y1776407D02*
X2022029D01*
X2022029D02*
Y1780344D01*
X2022029D02*
X2020847D01*
X2011399Y1776407D02*
X2010218D01*
X2010218D02*
Y1780344D01*
X2010218D02*
X2011399D01*
X2074985Y1715632D02*
Y1718388D01*
X2074985D02*
X2070261D01*
Y1715632*
Y1710120D02*
Y1707364D01*
X2070261D02*
X2074985D01*
X2074985D02*
Y1710120D01*
X2074592Y1717600D02*
Y1718781D01*
X2074592D02*
X2070655D01*
X2070655D02*
Y1717600D01*
X2074592Y1708151D02*
Y1706970D01*
X2074592D02*
X2070655D01*
X2070655D02*
Y1708151D01*
X2055985Y1715632D02*
Y1718388D01*
X2055985D02*
X2051261D01*
Y1715632*
Y1710120D02*
Y1707364D01*
X2051261D02*
X2055985D01*
X2055985D02*
Y1710120D01*
X2055592Y1717600D02*
Y1718781D01*
X2055592D02*
X2051655D01*
X2051655D02*
Y1717600D01*
X2055592Y1708151D02*
Y1706970D01*
X2055592D02*
X2051655D01*
X2051655D02*
Y1708151D01*
X2018879Y1748014D02*
X2021635D01*
Y1752738*
X2021635D02*
X2018879D01*
X2013367D02*
X2010611D01*
X2010611D02*
Y1748014D01*
X2010611D02*
X2013367D01*
X2020847Y1748407D02*
X2022029D01*
X2022029D02*
Y1752344D01*
X2022029D02*
X2020847D01*
X2011399Y1748407D02*
X2010218D01*
X2010218D02*
Y1752344D01*
X2010218D02*
X2011399D01*
X2106367Y1752738D02*
X2103611D01*
X2103611D02*
Y1748014D01*
X2103611D02*
X2106367D01*
X2111879D02*
X2114635D01*
Y1752738*
X2114635D02*
X2111879D01*
X2104399Y1752344D02*
X2103218D01*
X2103218D02*
Y1748407D01*
X2103218D02*
X2104399D01*
X2113847Y1752344D02*
X2115029D01*
X2115029D02*
Y1748407D01*
X2115029D02*
X2113847D01*
X2119501Y1768124D02*
X2166745D01*
X2166745D02*
Y1736628D01*
X2166745D02*
X2119501D01*
Y1768124*
X2162808D02*
X2166745Y1764187D01*
Y1764974D02*
X2163595Y1768124D01*
X2164383D02*
X2166745Y1765762D01*
Y1766549D02*
X2165170Y1768124D01*
X2165958D02*
X2166548Y1767533D01*
X1928123Y1683876D02*
Y1754742D01*
X1928123D02*
X1928166D01*
X1928166D02*
G03Y1770490I0J7874D01*
G01X1928166D02*
X1928123D01*
X1928123D02*
Y1801986D01*
X1928123D02*
X2194265D01*
X2194265D02*
Y1770490D01*
X2194265D02*
X2194262D01*
X2194262D02*
G03Y1754742I0J-7873D01*
G01X2194262D02*
X2194265D01*
Y1683876*
X1994068*
Y1697671*
G03X1990131I-1968J0*
G01Y1683876*
X1928123*
X2090884Y1828751D02*
Y1826251D01*
X2090884D02*
X2090771Y1825782D01*
X2090771D02*
X2090657Y1825626D01*
X2090657D02*
X2090430Y1825470D01*
X2090203*
X2089975Y1825626*
X2089975D02*
X2089862Y1825782D01*
X2089862D02*
X2089748Y1826251D01*
X2089748D02*
Y1826563D01*
X2091907Y1828126D02*
X2092134Y1828282D01*
X2092134D02*
X2092475Y1828751D01*
X2092475D02*
Y1825470D01*
X2021873Y1825385D02*
Y1822885D01*
X2021873D02*
X2021759Y1822417D01*
X2021759D02*
X2021646Y1822260D01*
X2021646D02*
X2021418Y1822104D01*
X2021418D02*
X2021191D01*
X2021191D02*
X2020964Y1822260D01*
X2020964D02*
X2020850Y1822417D01*
X2020850D02*
X2020737Y1822885D01*
X2020737D02*
Y1823198D01*
X2023009Y1824604D02*
Y1824760D01*
X2023009D02*
X2023123Y1825073D01*
X2023123D02*
X2023237Y1825229D01*
X2023237D02*
X2023464Y1825385D01*
X2023464D02*
X2023918D01*
X2023918D02*
X2024146Y1825229D01*
X2024146D02*
X2024259Y1825073D01*
X2024259D02*
X2024373Y1824760D01*
X2024373D02*
Y1824448D01*
X2024373D02*
X2024259Y1824135D01*
X2024259D02*
X2024032Y1823667D01*
X2024032D02*
X2022896Y1822104D01*
X2022896D02*
X2024487D01*
X1966873Y1825385D02*
Y1822885D01*
X1966873D02*
X1966759Y1822417D01*
X1966759D02*
X1966646Y1822260D01*
X1966646D02*
X1966418Y1822104D01*
X1966418D02*
X1966191D01*
X1966191D02*
X1965964Y1822260D01*
X1965964D02*
X1965850Y1822417D01*
X1965850D02*
X1965737Y1822885D01*
X1965737D02*
Y1823198D01*
X1968123Y1825385D02*
X1969373D01*
X1969373D02*
X1968691Y1824135D01*
X1968691D02*
X1969032D01*
X1969032D02*
X1969259Y1823979D01*
X1969259D02*
X1969373Y1823823D01*
X1969373D02*
X1969487Y1823354D01*
X1969487D02*
Y1823042D01*
X1969373Y1822573*
X1969373D02*
X1969146Y1822260D01*
X1969146D02*
X1968805Y1822104D01*
X1968805D02*
X1968464D01*
X1968464D02*
X1968123Y1822260D01*
X1968123D02*
X1968009Y1822417D01*
X1968009D02*
X1967896Y1822729D01*
X2162316Y1824885D02*
Y1822385D01*
X2162316D02*
X2162203Y1821917D01*
X2162089Y1821760*
X2162089D02*
X2161862Y1821604D01*
X2161862D02*
X2161634D01*
X2161634D02*
X2161407Y1821760D01*
X2161407D02*
X2161293Y1821917D01*
X2161293D02*
X2161180Y1822385D01*
X2161180D02*
Y1822698D01*
X2164475Y1824885D02*
X2163339Y1822698D01*
X2165043*
X2164475Y1824885D02*
Y1821604D01*
X2061848Y1758023D02*
Y1755679D01*
X2061848D02*
X2061961Y1755211D01*
X2061961D02*
X2062188Y1754898D01*
X2062188D02*
X2062529Y1754742D01*
X2062529D02*
X2062757D01*
X2063098Y1754898*
X2063098D02*
X2063325Y1755211D01*
X2063438Y1755679*
X2063438D02*
Y1758023D01*
X2064461Y1757398D02*
X2064688Y1757554D01*
X2064688D02*
X2065029Y1758023D01*
X2065029D02*
Y1754742D01*
X2141509Y1754657D02*
Y1752313D01*
X2141509D02*
X2141623Y1751845D01*
X2141623D02*
X2141850Y1751532D01*
X2141850D02*
X2142191Y1751376D01*
X2142191D02*
X2142418D01*
X2142418D02*
X2142759Y1751532D01*
X2142759D02*
X2142987Y1751845D01*
X2143100Y1752313*
X2143100D02*
Y1754657D01*
X2144237Y1753876D02*
Y1754032D01*
X2144237D02*
X2144350Y1754345D01*
X2144350D02*
X2144464Y1754501D01*
X2144691Y1754657*
X2144691D02*
X2145146D01*
X2145146D02*
X2145373Y1754501D01*
X2145373D02*
X2145487Y1754345D01*
X2145600Y1754032*
X2145600D02*
Y1753720D01*
X2145600D02*
X2145487Y1753407D01*
X2145487D02*
X2145259Y1752938D01*
X2145259D02*
X2144123Y1751376D01*
X2144123D02*
X2145714D01*
X2065009Y1692657D02*
Y1690313D01*
X2065009D02*
X2065123Y1689845D01*
X2065123D02*
X2065350Y1689532D01*
X2065350D02*
X2065691Y1689376D01*
X2065691D02*
X2065918D01*
X2065918D02*
X2066259Y1689532D01*
X2066259D02*
X2066487Y1689845D01*
X2066600Y1690313*
X2066600D02*
Y1692657D01*
X2067850D02*
X2069100D01*
X2069100D02*
X2068418Y1691407D01*
X2068418D02*
X2068759D01*
X2068759D02*
X2068987Y1691251D01*
X2069100Y1691095*
X2069100D02*
X2069214Y1690626D01*
Y1690313*
X2069214D02*
X2069100Y1689845D01*
X2069100D02*
X2068873Y1689532D01*
X2068873D02*
X2068532Y1689376D01*
X2068532D02*
X2068191D01*
X2068191D02*
X2067850Y1689532D01*
X2067850D02*
X2067737Y1689688D01*
X2067737D02*
X2067623Y1690001D01*
X1934259Y1788157D02*
Y1784876D01*
Y1788157D02*
X1935737D01*
X1934259Y1786595D02*
X1935168D01*
X1936759Y1788157D02*
Y1784876D01*
X1937782Y1788157D02*
Y1784876D01*
Y1788157D02*
X1938578D01*
X1938578D02*
X1938918Y1788001D01*
X1938918D02*
X1939146Y1787688D01*
X1939146D02*
X1939259Y1787376D01*
X1939259D02*
X1939373Y1786907D01*
X1939373D02*
Y1786126D01*
X1939373D02*
X1939259Y1785657D01*
X1939259D02*
X1939146Y1785345D01*
X1938918Y1785032*
X1938918D02*
X1938578Y1784876D01*
X1937782*
X1940396Y1787532D02*
X1940623Y1787688D01*
X1940623D02*
X1940964Y1788157D01*
X1940964D02*
Y1784876D01*
X2131248Y1833157D02*
Y1829876D01*
Y1833157D02*
X2132725D01*
X2131248Y1831595D02*
X2132157D01*
X2133748Y1833157D02*
Y1829876D01*
X2134771Y1833157D02*
Y1829876D01*
Y1833157D02*
X2135566D01*
X2135566D02*
X2135907Y1833001D01*
X2135907D02*
X2136134Y1832688D01*
X2136134D02*
X2136248Y1832376D01*
X2136248D02*
X2136362Y1831907D01*
X2136362D02*
Y1831126D01*
X2136248Y1830657*
X2136248D02*
X2136134Y1830345D01*
X2136134D02*
X2135907Y1830032D01*
X2135907D02*
X2135566Y1829876D01*
X2135566D02*
X2134771D01*
X2137498Y1832376D02*
Y1832532D01*
X2137498D02*
X2137612Y1832845D01*
X2137725Y1833001*
X2137725D02*
X2137953Y1833157D01*
X2137953D02*
X2138407D01*
X2138407D02*
X2138634Y1833001D01*
X2138634D02*
X2138748Y1832845D01*
X2138748D02*
X2138862Y1832532D01*
X2138862D02*
Y1832220D01*
X2138748Y1831907*
X2138748D02*
X2138521Y1831438D01*
X2138521D02*
X2137384Y1829876D01*
X2137384D02*
X2138975D01*
X2181248Y1735657D02*
Y1732376D01*
Y1735657D02*
X2182725D01*
X2181248Y1734095D02*
X2182157D01*
X2183748Y1735657D02*
Y1732376D01*
X2184771Y1735657D02*
Y1732376D01*
Y1735657D02*
X2185566D01*
X2185566D02*
X2185907Y1735501D01*
X2185907D02*
X2186134Y1735188D01*
X2186134D02*
X2186248Y1734876D01*
X2186248D02*
X2186362Y1734407D01*
X2186362D02*
Y1733626D01*
X2186248Y1733157*
X2186248D02*
X2186134Y1732845D01*
X2186134D02*
X2185907Y1732532D01*
X2185907D02*
X2185566Y1732376D01*
X2185566D02*
X2184771D01*
X2187612Y1735657D02*
X2188862D01*
X2188862D02*
X2188180Y1734407D01*
X2188180D02*
X2188521D01*
X2188521D02*
X2188748Y1734251D01*
X2188748D02*
X2188862Y1734095D01*
X2188975Y1733626*
X2188975D02*
Y1733313D01*
X2188975D02*
X2188862Y1732845D01*
X2188634Y1732532*
X2188634D02*
X2188293Y1732376D01*
X2188293D02*
X2187953D01*
X2187612Y1732532*
X2187612D02*
X2187498Y1732688D01*
X2187498D02*
X2187384Y1733001D01*
X2138835Y1305012D02*
Y1301412D01*
X2138835D02*
X2131777D01*
X2131777D02*
G03Y1289412I369J-5999D01*
G01X2131777D02*
X2138835D01*
X2138835D02*
Y1285912D01*
X2138835D02*
X2131592D01*
Y1305012D02*
G03Y1285912I583J-9549D01*
G01Y1305012D02*
X2138835D01*
X2142335D02*
X2145835D01*
X2145835D02*
Y1301512D01*
X2145835D02*
X2142335D01*
X2142335D02*
Y1305012D01*
Y1298012D02*
X2145835D01*
X2145835D02*
Y1286012D01*
X2145835D02*
X2142335D01*
X2142335D02*
Y1298012D01*
X2148835D02*
X2152835D01*
X2152835D02*
Y1286012D01*
X2152835D02*
X2148835D01*
X2148835D02*
Y1298012D01*
X2148835D02*
X2159335D01*
X2159335D02*
Y1295012D01*
X2159335D02*
X2148835D01*
X2148835D02*
Y1298012D01*
Y1301512D02*
X2162790D01*
Y1298012D02*
G03Y1301512I0J1750D01*
G01Y1298012D02*
X2159235D01*
X2159235D02*
Y1295809D01*
X2159235D02*
X2163055Y1286012D01*
X2163055D02*
X2167499D01*
X2167499D02*
X2163630Y1294642D01*
X2163630D02*
G03X2163954Y1305112I-973J5270D01*
G01X2163954D02*
X2148835D01*
X2148835D02*
Y1301512D01*
X2171335Y1289512D02*
Y1285812D01*
X2171335D02*
X2186335D01*
X2186335D02*
Y1289512D01*
X2186335D02*
X2171335D01*
Y1304912D02*
Y1301312D01*
X2171335D02*
X2186335D01*
X2186335D02*
Y1304912D01*
X2186335D02*
X2171335D01*
Y1297812D02*
Y1294212D01*
X2171335D02*
X2180835D01*
X2180835D02*
Y1297812D01*
X2180835D02*
X2171335D01*
X2175335Y1305012D02*
X2171335D01*
X2171335D02*
Y1286012D01*
X2171335D02*
X2175335D01*
X2175335D02*
Y1305012D01*
X2193290Y1304980D02*
X2189802Y1304986D01*
X2189802D02*
X2194268Y1298291D01*
X2194268D02*
X2197756Y1298285D01*
X2193290Y1304980*
X2201888Y1304976D02*
X2205331Y1305007D01*
X2205331D02*
X2202890Y1301304D01*
X2202890D02*
X2200852Y1298290D01*
X2197422Y1298282*
X2197422D02*
X2201888Y1304976D01*
X2197585Y1292733D02*
X2201873Y1285887D01*
X2201873D02*
X2205406D01*
X2205406D02*
X2205569Y1285629D01*
X2205569D02*
X2199314Y1295538D01*
X2200805Y1297887*
X2200805D02*
X2194380D01*
X2194380D02*
X2195246Y1296471D01*
X2195246D02*
X2195857Y1295540D01*
X2195857D02*
X2189787Y1285887D01*
X2189787D02*
X2193296D01*
X2193296D02*
X2197585Y1292733D01*
X2211790Y1304980D02*
X2208302Y1304986D01*
X2208302D02*
X2212768Y1298291D01*
X2212768D02*
X2216256Y1298285D01*
X2211790Y1304980*
X2220388Y1304976D02*
X2223831Y1305007D01*
X2223831D02*
X2221390Y1301304D01*
X2221390D02*
X2219352Y1298290D01*
X2215922Y1298282*
X2215922D02*
X2220388Y1304976D01*
X2216085Y1292733D02*
X2220373Y1285887D01*
X2220373D02*
X2223906D01*
X2223906D02*
X2224069Y1285629D01*
X2224069D02*
X2217814Y1295538D01*
X2219305Y1297887*
X2219305D02*
X2212880D01*
X2212880D02*
X2213746Y1296471D01*
X2213746D02*
X2214357Y1295540D01*
X2214357D02*
X2208287Y1285887D01*
X2208287D02*
X2211796D01*
X2211796D02*
X2216085Y1292733D01*
X2130139Y1304811D02*
X2138835D01*
X2128660Y1304361D02*
X2138835D01*
X2127685Y1303911D02*
X2138835D01*
X2126925Y1303461D02*
X2138835D01*
X2126297Y1303011D02*
X2138835D01*
X2125760Y1302561D02*
X2138835D01*
X2125295Y1302111D02*
X2138835D01*
X2124887Y1301661D02*
X2138835D01*
X2125064Y1289061D02*
X2138835D01*
X2125497Y1288611D02*
X2138835D01*
X2125992Y1288161D02*
X2138835D01*
X2126566Y1287711D02*
X2138835D01*
X2127248Y1287261D02*
X2138835D01*
X2128089Y1286811D02*
X2138835D01*
X2129224Y1286361D02*
X2138835D01*
X2124684Y1289511D02*
X2131001D01*
X2124527Y1301211D02*
X2130561D01*
X2124347Y1289961D02*
X2129613D01*
X2124209Y1300761D02*
X2129403D01*
X2124050Y1290411D02*
X2128811D01*
X2123927Y1300311D02*
X2128662D01*
X2123787Y1290861D02*
X2128219D01*
X2123679Y1299861D02*
X2128103D01*
X2123555Y1291311D02*
X2127751D01*
X2123460Y1299411D02*
X2127658D01*
X2123352Y1291761D02*
X2127371D01*
X2123270Y1298961D02*
X2127294D01*
X2123177Y1292211D02*
X2127058D01*
X2123106Y1298511D02*
X2126995D01*
X2123027Y1292661D02*
X2126802D01*
X2122967Y1298061D02*
X2126750D01*
X2122901Y1293111D02*
X2126593D01*
X2122852Y1297611D02*
X2126551D01*
X2122798Y1293561D02*
X2126427D01*
X2122760Y1297161D02*
X2126395D01*
X2122718Y1294011D02*
X2126301D01*
X2122689Y1296711D02*
X2126277D01*
X2122660Y1294461D02*
X2126211D01*
X2122641Y1296261D02*
X2126195D01*
X2122623Y1294911D02*
X2126156D01*
X2122614Y1295811D02*
X2126148D01*
X2122608Y1295361D02*
X2126135D01*
X2142335Y1304661D02*
X2145835D01*
X2142335Y1304211D02*
X2145835D01*
X2142335Y1303761D02*
X2145835D01*
X2142335Y1303311D02*
X2145835D01*
X2142335Y1302861D02*
X2145835D01*
X2142335Y1302411D02*
X2145835D01*
X2142335Y1301961D02*
X2145835D01*
X2142335Y1297711D02*
X2145835D01*
X2142335Y1297261D02*
X2145835D01*
X2142335Y1296811D02*
X2145835D01*
X2142335Y1296361D02*
X2145835D01*
X2142335Y1295911D02*
X2145835D01*
X2142335Y1295461D02*
X2145835D01*
X2142335Y1295011D02*
X2145835D01*
X2142335Y1294561D02*
X2145835D01*
X2142335Y1294111D02*
X2145835D01*
X2142335Y1293661D02*
X2145835D01*
X2142335Y1293211D02*
X2145835D01*
X2142335Y1292761D02*
X2145835D01*
X2142335Y1292311D02*
X2145835D01*
X2142335Y1291861D02*
X2145835D01*
X2142335Y1291411D02*
X2145835D01*
X2142335Y1290961D02*
X2145835D01*
X2142335Y1290511D02*
X2145835D01*
X2142335Y1290061D02*
X2145835D01*
X2142335Y1289611D02*
X2145835D01*
X2142335Y1289161D02*
X2145835D01*
X2142335Y1288711D02*
X2145835D01*
X2142335Y1288261D02*
X2145835D01*
X2142335Y1287811D02*
X2145835D01*
X2142335Y1287361D02*
X2145835D01*
X2142335Y1286911D02*
X2145835D01*
X2142335Y1286461D02*
X2145835D01*
X2148835Y1297711D02*
X2152835D01*
X2148835Y1297261D02*
X2152835D01*
X2148835Y1296811D02*
X2152835D01*
X2148835Y1296361D02*
X2152835D01*
X2148835Y1295911D02*
X2152835D01*
X2148835Y1295461D02*
X2152835D01*
X2148835Y1295011D02*
X2152835D01*
X2148835Y1294561D02*
X2152835D01*
X2148835Y1294111D02*
X2152835D01*
X2148835Y1293661D02*
X2152835D01*
X2148835Y1293211D02*
X2152835D01*
X2148835Y1292761D02*
X2152835D01*
X2148835Y1292311D02*
X2152835D01*
X2148835Y1291861D02*
X2152835D01*
X2148835Y1291411D02*
X2152835D01*
X2148835Y1290961D02*
X2152835D01*
X2148835Y1290511D02*
X2152835D01*
X2148835Y1290061D02*
X2152835D01*
X2148835Y1289611D02*
X2152835D01*
X2148835Y1289161D02*
X2152835D01*
X2148835Y1288711D02*
X2152835D01*
X2148835Y1288261D02*
X2152835D01*
X2148835Y1287811D02*
X2152835D01*
X2148835Y1287361D02*
X2152835D01*
X2148835Y1286911D02*
X2152835D01*
X2148835Y1286461D02*
X2152835D01*
X2148835Y1297711D02*
X2159335D01*
X2148835Y1297261D02*
X2159335D01*
X2148835Y1296811D02*
X2159335D01*
X2148835Y1296361D02*
X2159335D01*
X2148835Y1295911D02*
X2159335D01*
X2148835Y1295461D02*
X2159335D01*
X2164528Y1299961D02*
X2168015D01*
X2164522Y1299511D02*
X2168001D01*
X2164415Y1300411D02*
X2167992D01*
X2164393Y1299061D02*
X2167948D01*
X2164152Y1300861D02*
X2167931D01*
X2164108Y1298611D02*
X2167855D01*
X2163605Y1301311D02*
X2167830D01*
X2163496Y1298161D02*
X2167721D01*
X2148835Y1301761D02*
X2167687D01*
X2159235Y1297711D02*
X2167543D01*
X2148835Y1302211D02*
X2167498D01*
X2159235Y1297261D02*
X2167314D01*
X2162880Y1286461D02*
X2167297D01*
X2148835Y1302661D02*
X2167257D01*
X2162705Y1286911D02*
X2167096D01*
X2159235Y1296811D02*
X2167027D01*
X2148835Y1303111D02*
X2166956D01*
X2162529Y1287361D02*
X2166894D01*
X2162354Y1287811D02*
X2166692D01*
X2159235Y1296361D02*
X2166670D01*
X2148835Y1303561D02*
X2166582D01*
X2162178Y1288261D02*
X2166490D01*
X2162003Y1288711D02*
X2166289D01*
X2159235Y1295911D02*
X2166222D01*
X2148835Y1304011D02*
X2166109D01*
X2161827Y1289161D02*
X2166087D01*
X2161652Y1289611D02*
X2165885D01*
X2161476Y1290061D02*
X2165684D01*
X2159370Y1295461D02*
X2165641D01*
X2148835Y1304461D02*
X2165491D01*
X2161301Y1290511D02*
X2165482D01*
X2161125Y1290961D02*
X2165280D01*
X2160950Y1291411D02*
X2165078D01*
X2160774Y1291861D02*
X2164877D01*
X2159546Y1295011D02*
X2164824D01*
X2160599Y1292311D02*
X2164675D01*
X2148835Y1304911D02*
X2164589D01*
X2160423Y1292761D02*
X2164473D01*
X2160248Y1293211D02*
X2164272D01*
X2160072Y1293661D02*
X2164070D01*
X2159897Y1294111D02*
X2163868D01*
X2159721Y1294561D02*
X2163666D01*
X2171335Y1289411D02*
X2186335D01*
X2171335Y1288961D02*
X2186335D01*
X2171335Y1288511D02*
X2186335D01*
X2171335Y1288061D02*
X2186335D01*
X2171335Y1287611D02*
X2186335D01*
X2171335Y1287161D02*
X2186335D01*
X2171335Y1286711D02*
X2186335D01*
X2171335Y1286261D02*
X2186335D01*
X2171335Y1304911D02*
X2186335D01*
X2171335Y1304461D02*
X2186335D01*
X2171335Y1304011D02*
X2186335D01*
X2171335Y1303561D02*
X2186335D01*
X2171335Y1303111D02*
X2186335D01*
X2171335Y1302661D02*
X2186335D01*
X2171335Y1302211D02*
X2186335D01*
X2171335Y1301761D02*
X2186335D01*
X2171335Y1297811D02*
X2180835D01*
X2171335Y1297361D02*
X2180835D01*
X2171335Y1296911D02*
X2180835D01*
X2171335Y1296461D02*
X2180835D01*
X2171335Y1296011D02*
X2180835D01*
X2171335Y1295561D02*
X2180835D01*
X2171335Y1295111D02*
X2180835D01*
X2171335Y1294661D02*
X2180835D01*
X2171335Y1304911D02*
X2175335D01*
X2171335Y1304461D02*
X2175335D01*
X2171335Y1304011D02*
X2175335D01*
X2171335Y1303561D02*
X2175335D01*
X2171335Y1303111D02*
X2175335D01*
X2171335Y1302661D02*
X2175335D01*
X2171335Y1302211D02*
X2175335D01*
X2171335Y1301761D02*
X2175335D01*
X2171335Y1301311D02*
X2175335D01*
X2171335Y1300861D02*
X2175335D01*
X2171335Y1300411D02*
X2175335D01*
X2171335Y1299961D02*
X2175335D01*
X2171335Y1299511D02*
X2175335D01*
X2171335Y1299061D02*
X2175335D01*
X2171335Y1298611D02*
X2175335D01*
X2171335Y1298161D02*
X2175335D01*
X2171335Y1297711D02*
X2175335D01*
X2171335Y1297261D02*
X2175335D01*
X2171335Y1296811D02*
X2175335D01*
X2171335Y1296361D02*
X2175335D01*
X2171335Y1295911D02*
X2175335D01*
X2171335Y1295461D02*
X2175335D01*
X2171335Y1295011D02*
X2175335D01*
X2171335Y1294561D02*
X2175335D01*
X2171335Y1294111D02*
X2175335D01*
X2171335Y1293661D02*
X2175335D01*
X2171335Y1293211D02*
X2175335D01*
X2171335Y1292761D02*
X2175335D01*
X2171335Y1292311D02*
X2175335D01*
X2171335Y1291861D02*
X2175335D01*
X2171335Y1291411D02*
X2175335D01*
X2171335Y1290961D02*
X2175335D01*
X2171335Y1290511D02*
X2175335D01*
X2171335Y1290061D02*
X2175335D01*
X2171335Y1289611D02*
X2175335D01*
X2171335Y1289161D02*
X2175335D01*
X2171335Y1288711D02*
X2175335D01*
X2171335Y1288261D02*
X2175335D01*
X2171335Y1287811D02*
X2175335D01*
X2171335Y1287361D02*
X2175335D01*
X2171335Y1286911D02*
X2175335D01*
X2171335Y1286461D02*
X2175335D01*
X2193973Y1298734D02*
X2197456D01*
X2193673Y1299184D02*
X2197156D01*
X2193373Y1299634D02*
X2196856D01*
X2193073Y1300084D02*
X2196556D01*
X2192773Y1300534D02*
X2196256D01*
X2192473Y1300984D02*
X2195955D01*
X2192172Y1301434D02*
X2195655D01*
X2191872Y1301884D02*
X2195355D01*
X2191572Y1302334D02*
X2195055D01*
X2191272Y1302784D02*
X2194755D01*
X2190972Y1303234D02*
X2194455D01*
X2190671Y1303684D02*
X2194154D01*
X2190371Y1304134D02*
X2193854D01*
X2190071Y1304584D02*
X2193554D01*
X2201625Y1304581D02*
X2205051D01*
X2201324Y1304131D02*
X2204754D01*
X2201024Y1303681D02*
X2204457D01*
X2200724Y1303231D02*
X2204161D01*
X2200424Y1302781D02*
X2203864D01*
X2200123Y1302331D02*
X2203567D01*
X2199823Y1301881D02*
X2203271D01*
X2199523Y1301431D02*
X2202974D01*
X2199222Y1300981D02*
X2202672D01*
X2198922Y1300531D02*
X2202368D01*
X2198622Y1300081D02*
X2202063D01*
X2198322Y1299631D02*
X2201759D01*
X2198021Y1299181D02*
X2201454D01*
X2197721Y1298731D02*
X2201150D01*
X2201754Y1286078D02*
X2205286D01*
X2201472Y1286528D02*
X2205002D01*
X2201190Y1286978D02*
X2204718D01*
X2200908Y1287428D02*
X2204433D01*
X2200626Y1287878D02*
X2204149D01*
X2200344Y1288328D02*
X2203865D01*
X2200062Y1288778D02*
X2203581D01*
X2199780Y1289228D02*
X2203297D01*
X2199499Y1289678D02*
X2203013D01*
X2199217Y1290128D02*
X2202729D01*
X2198935Y1290578D02*
X2202445D01*
X2198653Y1291028D02*
X2202161D01*
X2198371Y1291478D02*
X2201877D01*
X2198089Y1291928D02*
X2201593D01*
X2197807Y1292378D02*
X2201309D01*
X2194151Y1292828D02*
X2201024D01*
X2194434Y1293278D02*
X2200740D01*
X2194447Y1297778D02*
X2200735D01*
X2194717Y1293728D02*
X2200456D01*
X2194722Y1297328D02*
X2200450D01*
X2195000Y1294178D02*
X2200172D01*
X2194997Y1296878D02*
X2200164D01*
X2195283Y1294628D02*
X2199888D01*
X2195274Y1296428D02*
X2199879D01*
X2195566Y1295078D02*
X2199604D01*
X2195570Y1295978D02*
X2199593D01*
X2195849Y1295528D02*
X2199320D01*
X2193868Y1292378D02*
X2197362D01*
X2193585Y1291928D02*
X2197080D01*
X2193302Y1291478D02*
X2196798D01*
X2193019Y1291028D02*
X2196516D01*
X2192736Y1290578D02*
X2196234D01*
X2192453Y1290128D02*
X2195952D01*
X2192170Y1289678D02*
X2195671D01*
X2191887Y1289228D02*
X2195389D01*
X2191605Y1288778D02*
X2195107D01*
X2191322Y1288328D02*
X2194825D01*
X2191039Y1287878D02*
X2194543D01*
X2190756Y1287428D02*
X2194261D01*
X2190473Y1286978D02*
X2193979D01*
X2190190Y1286528D02*
X2193697D01*
X2189907Y1286078D02*
X2193415D01*
X2212473Y1298734D02*
X2215956D01*
X2212173Y1299184D02*
X2215656D01*
X2211873Y1299634D02*
X2215356D01*
X2211573Y1300084D02*
X2215056D01*
X2211273Y1300534D02*
X2214756D01*
X2210973Y1300984D02*
X2214455D01*
X2210672Y1301434D02*
X2214155D01*
X2210372Y1301884D02*
X2213855D01*
X2210072Y1302334D02*
X2213555D01*
X2209772Y1302784D02*
X2213255D01*
X2209472Y1303234D02*
X2212955D01*
X2209171Y1303684D02*
X2212654D01*
X2208871Y1304134D02*
X2212354D01*
X2208571Y1304584D02*
X2212054D01*
X2220125Y1304581D02*
X2223551D01*
X2219824Y1304131D02*
X2223254D01*
X2219524Y1303681D02*
X2222957D01*
X2219224Y1303231D02*
X2222661D01*
X2218924Y1302781D02*
X2222364D01*
X2218623Y1302331D02*
X2222067D01*
X2218323Y1301881D02*
X2221771D01*
X2218023Y1301431D02*
X2221474D01*
X2217722Y1300981D02*
X2221172D01*
X2217422Y1300531D02*
X2220868D01*
X2217122Y1300081D02*
X2220563D01*
X2216822Y1299631D02*
X2220259D01*
X2216521Y1299181D02*
X2219954D01*
X2216221Y1298731D02*
X2219650D01*
X2220254Y1286078D02*
X2223786D01*
X2219972Y1286528D02*
X2223502D01*
X2219690Y1286978D02*
X2223218D01*
X2219408Y1287428D02*
X2222933D01*
X2219126Y1287878D02*
X2222649D01*
X2218844Y1288328D02*
X2222365D01*
X2218562Y1288778D02*
X2222081D01*
X2218280Y1289228D02*
X2221797D01*
X2217999Y1289678D02*
X2221513D01*
X2217717Y1290128D02*
X2221229D01*
X2217435Y1290578D02*
X2220945D01*
X2217153Y1291028D02*
X2220661D01*
X2216871Y1291478D02*
X2220377D01*
X2216589Y1291928D02*
X2220093D01*
X2216307Y1292378D02*
X2219809D01*
X2212651Y1292828D02*
X2219524D01*
X2212934Y1293278D02*
X2219240D01*
X2212947Y1297778D02*
X2219235D01*
X2213217Y1293728D02*
X2218956D01*
X2213222Y1297328D02*
X2218950D01*
X2213500Y1294178D02*
X2218672D01*
X2213497Y1296878D02*
X2218664D01*
X2213783Y1294628D02*
X2218388D01*
X2213774Y1296428D02*
X2218379D01*
X2214066Y1295078D02*
X2218104D01*
X2214070Y1295978D02*
X2218093D01*
X2214349Y1295528D02*
X2217820D01*
X2212368Y1292378D02*
X2215862D01*
X2212085Y1291928D02*
X2215580D01*
X2211802Y1291478D02*
X2215298D01*
X2211519Y1291028D02*
X2215016D01*
X2211236Y1290578D02*
X2214734D01*
X2210953Y1290128D02*
X2214452D01*
X2210670Y1289678D02*
X2214171D01*
X2210387Y1289228D02*
X2213889D01*
X2210105Y1288778D02*
X2213607D01*
X2209822Y1288328D02*
X2213325D01*
X2209539Y1287878D02*
X2213043D01*
X2209256Y1287428D02*
X2212761D01*
X2208973Y1286978D02*
X2212479D01*
X2208690Y1286528D02*
X2212197D01*
X2208407Y1286078D02*
X2211915D01*
G54D16*
X2474734Y1299526D02*
X2475416Y1299995D01*
X2475416D02*
X2476438Y1301401D01*
X2476438D02*
Y1291558D01*
G54D18*
X2205734Y1272479D02*
Y1267558D01*
Y1272479D02*
X2206927D01*
X2206927D02*
X2207438Y1272245D01*
X2207438D02*
X2207779Y1271776D01*
X2207779D02*
X2207950Y1271308D01*
X2208120Y1270604*
X2208120D02*
Y1269433D01*
X2208120D02*
X2207950Y1268729D01*
X2207950D02*
X2207779Y1268261D01*
X2207779D02*
X2207438Y1267792D01*
X2207438D02*
X2206927Y1267558D01*
X2205734*
X2211018Y1272479D02*
X2209654Y1267558D01*
X2211018Y1272479D02*
X2212381Y1267558D01*
X2210166Y1269198D02*
X2211870D01*
X2215109Y1272479D02*
Y1267558D01*
X2213916Y1272479D02*
X2216302D01*
X2217836D02*
Y1267558D01*
Y1272479D02*
X2220052D01*
X2217836Y1270136D02*
X2219200D01*
X2217836Y1267558D02*
X2220052D01*
X2221756Y1270839D02*
X2221586Y1270604D01*
X2221586D02*
X2221756Y1270370D01*
X2221756D02*
X2221927Y1270604D01*
X2221927D02*
X2221756Y1270839D01*
Y1268026D02*
X2221586Y1267792D01*
X2221586D02*
X2221756Y1267558D01*
X2221756D02*
X2221927Y1267792D01*
X2221756Y1268026*
G54D22*
X1744620Y1979893D02*
X1738938D01*
X1738938D02*
X1738370Y1972862D01*
X1738370D02*
X1738938Y1973643D01*
X1738938D02*
X1740643Y1974424D01*
X1740643D02*
X1742347D01*
X1742347D02*
X1744052Y1973643D01*
X1745188Y1972080*
X1745188D02*
X1745756Y1969737D01*
X1745756D02*
X1745188Y1968174D01*
X1745188D02*
X1744620Y1965830D01*
X1744620D02*
X1743484Y1964268D01*
X1741779Y1963487*
X1741779D02*
X1740075D01*
X1738370Y1964268*
X1738370D02*
X1737802Y1965049D01*
X1737802D02*
X1737234Y1966612D01*
X1566552Y1977549D02*
X1565984Y1979112D01*
X1564279Y1979893*
X1564279D02*
X1563143D01*
X1561438Y1979112*
X1561438D02*
X1560302Y1976768D01*
X1559734Y1972862*
Y1968955*
X1559734D02*
X1560302Y1965830D01*
X1560302D02*
X1561438Y1964268D01*
X1561438D02*
X1563143Y1963487D01*
X1563711*
X1563711D02*
X1565416Y1964268D01*
X1566552Y1965830*
X1566552D02*
X1567120Y1968174D01*
X1567120D02*
Y1968955D01*
X1567120D02*
X1566552Y1971299D01*
X1566552D02*
X1565416Y1972862D01*
X1563711Y1973643*
X1563711D02*
X1563143D01*
X1561438Y1972862*
X1561438D02*
X1560302Y1971299D01*
X1560302D02*
X1559734Y1968955D01*
X1484734Y1877964D02*
Y1861558D01*
Y1877964D02*
X1488711D01*
X1488711D02*
X1490416Y1877183D01*
X1491552Y1875620*
X1491552D02*
X1492120Y1874058D01*
X1492120D02*
X1492688Y1871714D01*
X1492688D02*
Y1867808D01*
X1492688D02*
X1492120Y1865464D01*
X1492120D02*
X1491552Y1863901D01*
X1491552D02*
X1490416Y1862339D01*
X1488711Y1861558*
X1488711D02*
X1484734D01*
Y1502964D02*
Y1486558D01*
Y1502964D02*
X1489847D01*
X1489847D02*
X1491552Y1502183D01*
X1492120Y1501401*
X1492120D02*
X1492688Y1499839D01*
X1492688D02*
Y1498276D01*
X1492688D02*
X1492120Y1496714D01*
X1492120D02*
X1491552Y1495933D01*
X1489847Y1495151*
X1484734D02*
X1489847D01*
X1489847D02*
X1491552Y1494370D01*
X1491552D02*
X1492120Y1493589D01*
X1492120D02*
X1492688Y1492026D01*
X1492688D02*
Y1489683D01*
X1492688D02*
X1492120Y1488120D01*
X1492120D02*
X1491552Y1487339D01*
X1489847Y1486558*
X1489847D02*
X1484734D01*
X1489279Y1315464D02*
X1484734Y1299058D01*
X1489279Y1315464D02*
X1493825Y1299058D01*
X1486438Y1304526D02*
X1492120D01*
X1493256Y1686558D02*
X1492688Y1688120D01*
X1492688D02*
X1491552Y1689683D01*
X1490416Y1690464*
X1488143*
X1487006Y1689683*
X1487006D02*
X1485870Y1688120D01*
X1485870D02*
X1485302Y1686558D01*
X1484734Y1684214*
Y1680308*
X1485302Y1677964*
X1485870Y1676401*
X1485870D02*
X1487006Y1674839D01*
X1487006D02*
X1488143Y1674058D01*
X1490416*
X1491552Y1674839*
X1492688Y1676401*
X1492688D02*
X1493256Y1677964D01*
X2504734Y1879893D02*
Y1863487D01*
Y1879893D02*
X2508711D01*
X2508711D02*
X2510416Y1879112D01*
X2511552Y1877549*
X2511552D02*
X2512120Y1875987D01*
X2512120D02*
X2512688Y1873643D01*
X2512688D02*
Y1869737D01*
X2512688D02*
X2512120Y1867393D01*
X2512120D02*
X2511552Y1865830D01*
X2511552D02*
X2510416Y1864268D01*
X2508711Y1863487*
X2508711D02*
X2504734D01*
X2449734Y1976768D02*
X2450870Y1977549D01*
X2450870D02*
X2452575Y1979893D01*
Y1963487*
X2272802Y1975987D02*
Y1976768D01*
X2273370Y1978330*
X2273370D02*
X2273938Y1979112D01*
X2273938D02*
X2275075Y1979893D01*
X2277347*
X2277347D02*
X2278484Y1979112D01*
X2279052Y1978330*
X2279052D02*
X2279620Y1976768D01*
X2279620D02*
Y1975205D01*
X2279620D02*
X2279052Y1973643D01*
X2277916Y1971299*
X2277916D02*
X2272234Y1963487D01*
X2280188*
X2088370Y1979893D02*
X2094620D01*
X2094620D02*
X2091211Y1973643D01*
X2091211D02*
X2092916D01*
X2094052Y1972862*
X2094620Y1972080*
X2094620D02*
X2095188Y1969737D01*
X2095188D02*
Y1968174D01*
X2095188D02*
X2094620Y1965830D01*
X2094620D02*
X2093484Y1964268D01*
X2091779Y1963487*
X2091779D02*
X2090075D01*
X2088370Y1964268*
X2088370D02*
X2087802Y1965049D01*
X2087802D02*
X2087234Y1966612D01*
X1920416Y1979893D02*
X1914734Y1968955D01*
X1914734D02*
X1923256D01*
X1920416Y1979893D02*
Y1963487D01*
X2509279Y1317393D02*
X2504734Y1300987D01*
X2509279Y1317393D02*
X2513825Y1300987D01*
X2506438Y1306455D02*
X2512120D01*
X2504734Y1504893D02*
Y1488487D01*
Y1504893D02*
X2509847D01*
X2509847D02*
X2511552Y1504112D01*
X2512120Y1503330*
X2512120D02*
X2512688Y1501768D01*
X2512688D02*
Y1500205D01*
X2512688D02*
X2512120Y1498643D01*
X2512120D02*
X2511552Y1497862D01*
X2509847Y1497080*
X2504734D02*
X2509847D01*
X2509847D02*
X2511552Y1496299D01*
X2511552D02*
X2512120Y1495518D01*
X2512120D02*
X2512688Y1493955D01*
X2512688D02*
Y1491612D01*
X2512688D02*
X2512120Y1490049D01*
X2512120D02*
X2511552Y1489268D01*
X2509847Y1488487*
X2509847D02*
X2504734D01*
X2513256Y1688487D02*
X2512688Y1690049D01*
X2512688D02*
X2511552Y1691612D01*
X2510416Y1692393*
X2508143*
X2507006Y1691612*
X2507006D02*
X2505870Y1690049D01*
X2505870D02*
X2505302Y1688487D01*
X2504734Y1686143*
Y1682237*
X2505302Y1679893*
X2505870Y1678330*
X2505870D02*
X2507006Y1676768D01*
X2507006D02*
X2508143Y1675987D01*
X2510416*
X2511552Y1676768*
X2512688Y1678330*
X2512688D02*
X2513256Y1679893D01*
G54D23*
X2235103Y1308383D02*
G03X2235103I-374D01*
G01X2230925D02*
G03X2230925I-374D01*
G01X2226747D02*
G03X2226747I-374D01*
G01X2233014Y1306228D02*
G03X2233014I-374D01*
G01X2228836D02*
G03X2228836I-374D01*
G01X2237192D02*
G03X2237192I-374D01*
G01X2226615Y1282586D02*
G03X2226615I-374D01*
G01X2230794D02*
G03X2230794I-374D01*
G01X2228705Y1284741D02*
G03X2228705I-374D01*
G01X2232883D02*
G03X2232883I-374D01*
G01X2234972Y1282586D02*
G03X2234972I-374D01*
G01X2237061Y1284741D02*
G03X2237061I-374D01*
G54D24*
G01X2218234Y1264511D02*
X2218529Y1264714D01*
X2218529D02*
X2218972Y1265323D01*
X2218972D02*
Y1261058D01*
X2220302Y1264511D02*
X2220597Y1264714D01*
X2220597D02*
X2221041Y1265323D01*
X2221041D02*
Y1261058D01*
X2222370Y1262886D02*
X2225029D01*
X2228279Y1263901D02*
X2228131Y1263292D01*
X2228131D02*
X2227836Y1262886D01*
X2227836D02*
X2227393Y1262683D01*
X2227245*
X2227245D02*
X2226802Y1262886D01*
X2226506Y1263292*
X2226506D02*
X2226359Y1263901D01*
X2226359D02*
Y1264104D01*
X2226359D02*
X2226506Y1264714D01*
X2226506D02*
X2226802Y1265120D01*
X2226802D02*
X2227245Y1265323D01*
X2227245D02*
X2227393D01*
X2227393D02*
X2227836Y1265120D01*
X2227836D02*
X2228131Y1264714D01*
X2228131D02*
X2228279Y1263901D01*
X2228279D02*
Y1262886D01*
X2228279D02*
X2228131Y1261870D01*
X2228131D02*
X2227836Y1261261D01*
X2227836D02*
X2227393Y1261058D01*
X2227097*
X2227097D02*
X2226654Y1261261D01*
X2226654D02*
X2226506Y1261667D01*
X2229609Y1262886D02*
X2232268D01*
X2234484Y1265323D02*
X2234041Y1265120D01*
X2234041D02*
X2233745Y1264511D01*
X2233745D02*
X2233597Y1263495D01*
X2233597D02*
Y1262886D01*
X2233597D02*
X2233745Y1261870D01*
X2233745D02*
X2234041Y1261261D01*
X2234484Y1261058*
X2234779*
X2234779D02*
X2235222Y1261261D01*
X2235222D02*
X2235518Y1261870D01*
X2235518D02*
X2235666Y1262886D01*
Y1263495*
X2235666D02*
X2235518Y1264511D01*
X2235222Y1265120*
X2235222D02*
X2234779Y1265323D01*
X2234779D02*
X2234484D01*
X2238916Y1263901D02*
X2238768Y1263292D01*
X2238472Y1262886*
X2238472D02*
X2238029Y1262683D01*
X2238029D02*
X2237881D01*
X2237881D02*
X2237438Y1262886D01*
X2237438D02*
X2237143Y1263292D01*
X2236995Y1263901*
X2236995D02*
Y1264104D01*
X2236995D02*
X2237143Y1264714D01*
X2237438Y1265120*
X2237438D02*
X2237881Y1265323D01*
X2237881D02*
X2238029D01*
X2238029D02*
X2238472Y1265120D01*
X2238472D02*
X2238768Y1264714D01*
X2238916Y1263901*
X2238916D02*
Y1262886D01*
X2238768Y1261870*
X2238768D02*
X2238472Y1261261D01*
X2238472D02*
X2238029Y1261058D01*
X2238029D02*
X2237734D01*
X2237291Y1261261*
X2237143Y1261667*
G54D25*
X2364221Y1312169D02*
X2362585Y1306262D01*
X2364221Y1312169D02*
X2365857Y1306262D01*
X2363198Y1308231D02*
X2365244D01*
X2370562Y1311325D02*
X2370153Y1311887D01*
X2370153D02*
X2369539Y1312169D01*
X2369539D02*
X2368721D01*
X2368107Y1311887*
X2368107D02*
X2367698Y1311325D01*
X2367698D02*
Y1310762D01*
X2367698D02*
X2367903Y1310200D01*
X2368107Y1309919*
X2368107D02*
X2368516Y1309637D01*
X2368516D02*
X2369744Y1309075D01*
X2370153Y1308794*
X2370357Y1308512*
X2370357D02*
X2370562Y1307950D01*
Y1307106*
X2370562D02*
X2370153Y1306544D01*
X2369539Y1306262*
X2369539D02*
X2368721D01*
X2368721D02*
X2368107Y1306544D01*
X2368107D02*
X2367698Y1307106D01*
X2375266Y1311325D02*
X2374857Y1311887D01*
X2374857D02*
X2374244Y1312169D01*
X2373425*
X2373425D02*
X2372812Y1311887D01*
X2372812D02*
X2372403Y1311325D01*
Y1310762*
X2372403D02*
X2372607Y1310200D01*
X2372607D02*
X2372812Y1309919D01*
X2373221Y1309637*
X2373221D02*
X2374448Y1309075D01*
X2374448D02*
X2374857Y1308794D01*
X2374857D02*
X2375062Y1308512D01*
X2375062D02*
X2375266Y1307950D01*
X2375266D02*
Y1307106D01*
X2375266D02*
X2374857Y1306544D01*
X2374857D02*
X2374244Y1306262D01*
X2374244D02*
X2373425D01*
X2373425D02*
X2372812Y1306544D01*
X2372403Y1307106*
X2377107Y1312169D02*
Y1306262D01*
Y1312169D02*
X2379766D01*
X2377107Y1309356D02*
X2378744D01*
X2377107Y1306262D02*
X2379766D01*
X2381607Y1312169D02*
Y1306262D01*
Y1312169D02*
X2383244Y1306262D01*
X2384880Y1312169D02*
X2383244Y1306262D01*
X2384880Y1312169D02*
Y1306262D01*
X2386721Y1312169D02*
Y1306262D01*
Y1312169D02*
X2388562D01*
X2389175Y1311887*
X2389175D02*
X2389380Y1311606D01*
X2389380D02*
X2389585Y1311044D01*
Y1310481*
X2389585D02*
X2389380Y1309919D01*
X2389175Y1309637*
X2389175D02*
X2388562Y1309356D01*
X2386721D02*
X2388562D01*
X2388562D02*
X2389175Y1309075D01*
X2389175D02*
X2389380Y1308794D01*
X2389585Y1308231*
X2389585D02*
Y1307387D01*
X2389585D02*
X2389380Y1306825D01*
X2389175Y1306544*
X2389175D02*
X2388562Y1306262D01*
X2388562D02*
X2386721D01*
X2391425Y1312169D02*
Y1306262D01*
X2391425D02*
X2393880D01*
X2395721Y1312169D02*
X2397357Y1309356D01*
X2397357D02*
Y1306262D01*
X2398994Y1312169D02*
X2397357Y1309356D01*
X2404516Y1312169D02*
Y1306262D01*
Y1312169D02*
X2407380Y1306262D01*
Y1312169D02*
Y1306262D01*
X2409221Y1312169D02*
Y1307950D01*
X2409425Y1307106*
X2409425D02*
X2409835Y1306544D01*
X2410448Y1306262*
X2410448D02*
X2410857D01*
X2410857D02*
X2411471Y1306544D01*
X2411880Y1307106*
X2411880D02*
X2412085Y1307950D01*
Y1312169*
X2413925D02*
Y1306262D01*
Y1312169D02*
X2415562Y1306262D01*
X2417198Y1312169D02*
X2415562Y1306262D01*
X2417198Y1312169D02*
Y1306262D01*
X2419039Y1312169D02*
Y1306262D01*
Y1312169D02*
X2420880D01*
X2421494Y1311887*
X2421494D02*
X2421698Y1311606D01*
X2421698D02*
X2421903Y1311044D01*
Y1310481*
X2421903D02*
X2421698Y1309919D01*
X2421698D02*
X2421494Y1309637D01*
X2421494D02*
X2420880Y1309356D01*
X2419039D02*
X2420880D01*
X2420880D02*
X2421494Y1309075D01*
X2421698Y1308794*
X2421698D02*
X2421903Y1308231D01*
X2421903D02*
Y1307387D01*
X2421903D02*
X2421698Y1306825D01*
X2421698D02*
X2421494Y1306544D01*
X2420880Y1306262*
X2420880D02*
X2419039D01*
X2423744Y1312169D02*
Y1306262D01*
Y1312169D02*
X2426403D01*
X2423744Y1309356D02*
X2425380D01*
X2423744Y1306262D02*
X2426403D01*
X2428244Y1312169D02*
Y1306262D01*
Y1312169D02*
X2430085D01*
X2430698Y1311887*
X2430698D02*
X2430903Y1311606D01*
X2430903D02*
X2431107Y1311044D01*
X2431107D02*
Y1310481D01*
X2431107D02*
X2430903Y1309919D01*
X2430698Y1309637*
X2430698D02*
X2430085Y1309356D01*
X2430085D02*
X2428244D01*
X2429675D02*
X2431107Y1306262D01*
X2433153Y1310200D02*
X2432948Y1309919D01*
X2432948D02*
X2433153Y1309637D01*
X2433153D02*
X2433357Y1309919D01*
X2433357D02*
X2433153Y1310200D01*
Y1306825D02*
X2432948Y1306544D01*
X2432948D02*
X2433153Y1306262D01*
X2433153D02*
X2433357Y1306544D01*
X2433357D02*
X2433153Y1306825D01*
X2151291Y1266808D02*
X2151120Y1267276D01*
X2151120D02*
X2150779Y1267745D01*
X2150779D02*
X2150438Y1267979D01*
X2150438D02*
X2149756D01*
X2149756D02*
X2149416Y1267745D01*
X2149416D02*
X2149075Y1267276D01*
X2149075D02*
X2148904Y1266808D01*
X2148904D02*
X2148734Y1266104D01*
X2148734D02*
Y1264933D01*
X2148904Y1264229*
X2148904D02*
X2149075Y1263761D01*
X2149416Y1263292*
X2149756Y1263058*
X2149756D02*
X2150438D01*
X2150438D02*
X2150779Y1263292D01*
X2150779D02*
X2151120Y1263761D01*
X2151120D02*
X2151291Y1264229D01*
X2151291D02*
Y1264933D01*
X2150438D02*
X2151291D01*
X2152825D02*
X2154870D01*
X2154870D02*
Y1265401D01*
X2154870D02*
X2154700Y1265870D01*
X2154700D02*
X2154529Y1266104D01*
X2154529D02*
X2154188Y1266339D01*
X2154188D02*
X2153677D01*
X2153336Y1266104*
X2153336D02*
X2152995Y1265636D01*
X2152995D02*
X2152825Y1264933D01*
Y1264464*
X2152995Y1263761*
X2152995D02*
X2153336Y1263292D01*
X2153336D02*
X2153677Y1263058D01*
X2154188*
X2154188D02*
X2154529Y1263292D01*
X2154529D02*
X2154870Y1263761D01*
X2156404Y1266339D02*
Y1263058D01*
Y1265401D02*
X2156916Y1266104D01*
X2156916D02*
X2157256Y1266339D01*
X2157256D02*
X2157768D01*
X2158109Y1266104*
X2158109D02*
X2158279Y1265401D01*
X2158279D02*
Y1263058D01*
X2159813Y1264933D02*
X2161859D01*
Y1265401*
X2161859D02*
X2161688Y1265870D01*
X2161688D02*
X2161518Y1266104D01*
X2161518D02*
X2161177Y1266339D01*
X2160666*
X2160325Y1266104*
X2160325D02*
X2159984Y1265636D01*
X2159813Y1264933*
X2159813D02*
Y1264464D01*
X2159813D02*
X2159984Y1263761D01*
X2160325Y1263292*
X2160666Y1263058*
X2161177*
X2161518Y1263292*
X2161859Y1263761*
X2166461Y1267979D02*
Y1263058D01*
Y1267979D02*
X2167825Y1263058D01*
X2169188Y1267979D02*
X2167825Y1263058D01*
X2169188Y1267979D02*
Y1263058D01*
X2172768Y1265636D02*
X2172427Y1266104D01*
X2172427D02*
X2172086Y1266339D01*
X2172086D02*
X2171575D01*
X2171234Y1266104*
X2171234D02*
X2170893Y1265636D01*
X2170722Y1264933*
X2170722D02*
Y1264464D01*
X2170722D02*
X2170893Y1263761D01*
X2171234Y1263292*
X2171575Y1263058*
X2172086*
X2172086D02*
X2172427Y1263292D01*
X2172768Y1263761*
X2174302Y1267979D02*
Y1263058D01*
X2176688Y1267979D02*
X2174302Y1264698D01*
X2175154Y1265870D02*
X2176688Y1263058D01*
X2178222Y1264933D02*
X2180268D01*
Y1265401*
X2180268D02*
X2180097Y1265870D01*
X2180097D02*
X2179927Y1266104D01*
X2179927D02*
X2179586Y1266339D01*
X2179586D02*
X2179075D01*
X2178734Y1266104*
X2178734D02*
X2178393Y1265636D01*
X2178222Y1264933*
X2178222D02*
Y1264464D01*
X2178222D02*
X2178393Y1263761D01*
X2178734Y1263292*
X2179075Y1263058*
X2179586*
X2179586D02*
X2179927Y1263292D01*
X2180268Y1263761*
X2181802Y1266339D02*
Y1263058D01*
Y1265401D02*
X2182313Y1266104D01*
X2182313D02*
X2182654Y1266339D01*
X2182654D02*
X2183166D01*
X2183506Y1266104*
X2183506D02*
X2183677Y1265401D01*
X2183677D02*
Y1263058D01*
X2185211Y1266339D02*
Y1263058D01*
Y1265401D02*
X2185722Y1266104D01*
X2185722D02*
X2186063Y1266339D01*
X2186063D02*
X2186575D01*
X2186916Y1266104*
X2186916D02*
X2187086Y1265401D01*
X2187086D02*
Y1263058D01*
X2190666Y1266339D02*
Y1263058D01*
Y1265636D02*
X2190325Y1266104D01*
X2190325D02*
X2189984Y1266339D01*
X2189472*
X2189472D02*
X2189131Y1266104D01*
X2189131D02*
X2188791Y1265636D01*
X2188620Y1264933*
X2188620D02*
Y1264464D01*
X2188620D02*
X2188791Y1263761D01*
X2189131Y1263292*
X2189131D02*
X2189472Y1263058D01*
X2189472D02*
X2189984D01*
X2190325Y1263292*
X2190666Y1263761*
G54D42*
X1838123Y1941376D02*
Y1888876D01*
Y1941376D02*
X1854487D01*
X1859941Y1938876*
X1859941D02*
X1861759Y1936376D01*
X1861759D02*
X1863578Y1931376D01*
Y1923876*
X1861759Y1918876*
X1861759D02*
X1859941Y1916376D01*
X1859941D02*
X1854487Y1913876D01*
X1838123*
X1879941Y1941376D02*
Y1888876D01*
Y1941376D02*
X1896305D01*
X1901759Y1938876*
X1901759D02*
X1903578Y1936376D01*
X1905396Y1931376*
Y1926376*
X1903578Y1921376*
X1901759Y1918876*
X1901759D02*
X1896305Y1916376D01*
X1879941*
X1892668D02*
X1905396Y1888876D01*
X1921759Y1941376D02*
Y1888876D01*
Y1941376D02*
X1945396D01*
X1921759Y1916376D02*
X1936305D01*
X1921759Y1888876D02*
X1945396D01*
X1961759Y1941376D02*
Y1888876D01*
X1961759D02*
X1983578D01*
X1999941Y1941376D02*
Y1888876D01*
X2016305Y1941376D02*
Y1888876D01*
Y1941376D02*
X2030850Y1888876D01*
X2045396Y1941376D02*
X2030850Y1888876D01*
X2045396Y1941376D02*
Y1888876D01*
X2061759Y1941376D02*
Y1888876D01*
X2078123Y1941376D02*
Y1888876D01*
Y1941376D02*
X2103578Y1888876D01*
Y1941376D02*
Y1888876D01*
X2134487Y1941376D02*
X2119941Y1888876D01*
X2134487Y1941376D02*
X2149032Y1888876D01*
X2125396Y1906376D02*
X2143578D01*
X2165396Y1941376D02*
Y1888876D01*
Y1941376D02*
X2181759D01*
X2181759D02*
X2187214Y1938876D01*
X2189032Y1936376*
X2189032D02*
X2190850Y1931376D01*
X2190850D02*
Y1926376D01*
X2190850D02*
X2189032Y1921376D01*
X2189032D02*
X2187214Y1918876D01*
X2181759Y1916376*
X2181759D02*
X2165396D01*
X2178123D02*
X2190850Y1888876D01*
X2207214Y1941376D02*
X2221759Y1916376D01*
X2221759D02*
Y1888876D01*
X2236305Y1941376D02*
X2221759Y1916376D01*
G54D46*
X2015759Y1767751D02*
X2015669Y1768001D01*
X2015487Y1768251*
X2015305Y1768376*
X2014941*
X2014941D02*
X2014759Y1768251D01*
X2014759D02*
X2014578Y1768001D01*
X2014487Y1767751*
X2014396Y1767376*
Y1766751*
X2014487Y1766376*
X2014578Y1766126*
X2014759Y1765876*
X2014759D02*
X2014941Y1765751D01*
X2014941D02*
X2015305D01*
X2015487Y1765876*
X2015669Y1766126*
X2015759Y1766376*
X2016578Y1767876D02*
X2016759Y1768001D01*
X2016759D02*
X2017032Y1768376D01*
X2017032D02*
Y1765751D01*
X2014714Y1734251D02*
X2014623Y1734501D01*
X2014623D02*
X2014441Y1734751D01*
X2014441D02*
X2014259Y1734876D01*
X2014259D02*
X2013896D01*
X2013714Y1734751*
X2013532Y1734501*
X2013532D02*
X2013441Y1734251D01*
X2013441D02*
X2013350Y1733876D01*
X2013350D02*
Y1733251D01*
X2013350D02*
X2013441Y1732876D01*
X2013441D02*
X2013532Y1732626D01*
X2013532D02*
X2013714Y1732376D01*
X2013896Y1732251*
X2014259*
X2014259D02*
X2014441Y1732376D01*
X2014441D02*
X2014623Y1732626D01*
X2014623D02*
X2014714Y1732876D01*
X2015532Y1734376D02*
X2015714Y1734501D01*
X2015987Y1734876*
Y1732251*
X2017350Y1734876D02*
X2017078Y1734751D01*
X2016896Y1734376*
X2016805Y1733751*
Y1733376*
X2016896Y1732751*
X2017078Y1732376*
X2017350Y1732251*
X2017350D02*
X2017532D01*
X2017532D02*
X2017805Y1732376D01*
X2017987Y1732751*
X2018078Y1733376*
Y1733751*
X2017987Y1734376*
X2017805Y1734751*
X2017532Y1734876*
X2017532D02*
X2017350D01*
X2076623Y1794751D02*
X2076532Y1795001D01*
X2076532D02*
X2076350Y1795251D01*
X2076350D02*
X2076168Y1795376D01*
X2076168D02*
X2075805D01*
X2075623Y1795251*
X2075623D02*
X2075441Y1795001D01*
X2075441D02*
X2075350Y1794751D01*
X2075350D02*
X2075259Y1794376D01*
X2075259D02*
Y1793751D01*
X2075259D02*
X2075350Y1793376D01*
X2075350D02*
X2075441Y1793126D01*
X2075441D02*
X2075623Y1792876D01*
X2075623D02*
X2075805Y1792751D01*
X2076168*
X2076168D02*
X2076350Y1792876D01*
X2076350D02*
X2076532Y1793126D01*
X2076532D02*
X2076623Y1793376D01*
X2077441Y1794876D02*
X2077623Y1795001D01*
X2077623D02*
X2077896Y1795376D01*
Y1792751*
X2078714Y1794876D02*
X2078896Y1795001D01*
X2079168Y1795376*
X2079168D02*
Y1792751D01*
X2145248Y1726967D02*
X2144998Y1726876D01*
X2144998D02*
X2144748Y1726694D01*
X2144748D02*
X2144623Y1726512D01*
X2144623D02*
Y1726149D01*
X2144623D02*
X2144748Y1725967D01*
X2144748D02*
X2144998Y1725785D01*
X2144998D02*
X2145248Y1725694D01*
X2145248D02*
X2145623Y1725603D01*
X2145623D02*
X2146248D01*
X2146248D02*
X2146623Y1725694D01*
X2146623D02*
X2146873Y1725785D01*
X2146873D02*
X2147123Y1725967D01*
X2147123D02*
X2147248Y1726149D01*
X2147248D02*
Y1726512D01*
X2147248D02*
X2147123Y1726694D01*
X2147123D02*
X2146873Y1726876D01*
X2146873D02*
X2146623Y1726967D01*
X2145123Y1727785D02*
X2144998Y1727967D01*
X2144998D02*
X2144623Y1728239D01*
X2144623D02*
X2147248D01*
X2145248Y1729149D02*
X2145123D01*
X2145123D02*
X2144873Y1729239D01*
X2144873D02*
X2144748Y1729330D01*
X2144748D02*
X2144623Y1729512D01*
X2144623D02*
Y1729876D01*
X2144623D02*
X2144748Y1730058D01*
X2144748D02*
X2144873Y1730149D01*
X2144873D02*
X2145123Y1730239D01*
X2145123D02*
X2145373D01*
X2145373D02*
X2145623Y1730149D01*
X2145623D02*
X2145998Y1729967D01*
X2145998D02*
X2147248Y1729058D01*
X2147248D02*
Y1730330D01*
X2145623Y1774467D02*
X2145373Y1774376D01*
X2145373D02*
X2145123Y1774194D01*
X2145123D02*
X2144998Y1774012D01*
X2144998D02*
Y1773649D01*
X2144998D02*
X2145123Y1773467D01*
X2145123D02*
X2145373Y1773285D01*
X2145373D02*
X2145623Y1773194D01*
X2145623D02*
X2145998Y1773103D01*
X2145998D02*
X2146623D01*
X2146623D02*
X2146998Y1773194D01*
X2146998D02*
X2147248Y1773285D01*
X2147248D02*
X2147498Y1773467D01*
X2147498D02*
X2147623Y1773649D01*
X2147623D02*
Y1774012D01*
X2147623D02*
X2147498Y1774194D01*
X2147498D02*
X2147248Y1774376D01*
X2147248D02*
X2146998Y1774467D01*
X2145498Y1775285D02*
X2145373Y1775467D01*
X2145373D02*
X2144998Y1775739D01*
X2144998D02*
X2147623D01*
X2144998Y1776739D02*
Y1777739D01*
X2144998D02*
X2145998Y1777194D01*
X2145998D02*
Y1777467D01*
X2145998D02*
X2146123Y1777649D01*
X2146123D02*
X2146248Y1777739D01*
X2146248D02*
X2146623Y1777830D01*
X2146623D02*
X2146873D01*
X2146873D02*
X2147248Y1777739D01*
X2147248D02*
X2147498Y1777558D01*
X2147498D02*
X2147623Y1777285D01*
X2147623D02*
Y1777012D01*
X2147623D02*
X2147498Y1776739D01*
X2147498D02*
X2147373Y1776649D01*
X2147373D02*
X2147123Y1776558D01*
X2125123Y1775921D02*
X2124873Y1775830D01*
X2124873D02*
X2124623Y1775649D01*
X2124623D02*
X2124498Y1775467D01*
X2124498D02*
Y1775103D01*
X2124498D02*
X2124623Y1774921D01*
X2124623D02*
X2124873Y1774739D01*
X2124873D02*
X2125123Y1774649D01*
X2125123D02*
X2125498Y1774558D01*
X2125498D02*
X2126123D01*
X2126123D02*
X2126498Y1774649D01*
X2126498D02*
X2126748Y1774739D01*
X2126748D02*
X2126998Y1774921D01*
X2126998D02*
X2127123Y1775103D01*
X2127123D02*
Y1775467D01*
X2127123D02*
X2126998Y1775649D01*
X2126998D02*
X2126748Y1775830D01*
X2126748D02*
X2126498Y1775921D01*
X2124998Y1776739D02*
X2124873Y1776921D01*
X2124873D02*
X2124498Y1777194D01*
X2124498D02*
X2127123D01*
X2124498Y1778921D02*
X2126248Y1778012D01*
X2126248D02*
Y1779376D01*
X2124498Y1778921D02*
X2127123D01*
X2135748Y1726421D02*
X2135498Y1726330D01*
X2135498D02*
X2135248Y1726149D01*
X2135248D02*
X2135123Y1725967D01*
X2135123D02*
Y1725603D01*
X2135123D02*
X2135248Y1725421D01*
X2135248D02*
X2135498Y1725239D01*
X2135498D02*
X2135748Y1725149D01*
X2135748D02*
X2136123Y1725058D01*
X2136123D02*
X2136748D01*
X2136748D02*
X2137123Y1725149D01*
X2137123D02*
X2137373Y1725239D01*
X2137373D02*
X2137623Y1725421D01*
X2137623D02*
X2137748Y1725603D01*
X2137748D02*
Y1725967D01*
X2137748D02*
X2137623Y1726149D01*
X2137623D02*
X2137373Y1726330D01*
X2137373D02*
X2137123Y1726421D01*
X2135623Y1727239D02*
X2135498Y1727421D01*
X2135498D02*
X2135123Y1727694D01*
X2135123D02*
X2137748D01*
X2135123Y1729694D02*
Y1728785D01*
X2135123D02*
X2136248Y1728694D01*
X2136248D02*
X2136123Y1728785D01*
X2136123D02*
X2135998Y1729058D01*
X2135998D02*
Y1729330D01*
X2135998D02*
X2136123Y1729603D01*
X2136123D02*
X2136373Y1729785D01*
X2136373D02*
X2136748Y1729876D01*
X2136748D02*
X2136998Y1729785D01*
X2136998D02*
X2137373Y1729694D01*
X2137373D02*
X2137623Y1729512D01*
X2137623D02*
X2137748Y1729239D01*
X2137748D02*
Y1728967D01*
X2137748D02*
X2137623Y1728694D01*
X2137623D02*
X2137498Y1728603D01*
X2137498D02*
X2137248Y1728512D01*
X2151748Y1727012D02*
X2151498Y1726921D01*
X2151498D02*
X2151248Y1726739D01*
X2151248D02*
X2151123Y1726558D01*
X2151123D02*
Y1726194D01*
X2151123D02*
X2151248Y1726012D01*
X2151248D02*
X2151498Y1725830D01*
X2151498D02*
X2151748Y1725739D01*
X2151748D02*
X2152123Y1725649D01*
X2152123D02*
X2152748D01*
X2152748D02*
X2153123Y1725739D01*
X2153123D02*
X2153373Y1725830D01*
X2153373D02*
X2153623Y1726012D01*
X2153623D02*
X2153748Y1726194D01*
X2153748D02*
Y1726558D01*
X2153748D02*
X2153623Y1726739D01*
X2153623D02*
X2153373Y1726921D01*
X2153373D02*
X2153123Y1727012D01*
X2151623Y1727830D02*
X2151498Y1728012D01*
X2151498D02*
X2151123Y1728285D01*
X2151123D02*
X2153748D01*
X2151498Y1730194D02*
X2151248Y1730103D01*
X2151248D02*
X2151123Y1729830D01*
X2151123D02*
Y1729649D01*
X2151123D02*
X2151248Y1729376D01*
X2151248D02*
X2151623Y1729194D01*
X2151623D02*
X2152248Y1729103D01*
X2152248D02*
X2152873D01*
X2152873D02*
X2153373Y1729194D01*
X2153373D02*
X2153623Y1729376D01*
X2153623D02*
X2153748Y1729649D01*
X2153748D02*
Y1729739D01*
X2153748D02*
X2153623Y1730012D01*
X2153623D02*
X2153373Y1730194D01*
X2153373D02*
X2152998Y1730285D01*
X2152998D02*
X2152873D01*
X2152873D02*
X2152498Y1730194D01*
X2152498D02*
X2152248Y1730012D01*
X2152248D02*
X2152123Y1729739D01*
X2152123D02*
Y1729649D01*
X2152123D02*
X2152248Y1729376D01*
X2152248D02*
X2152498Y1729194D01*
X2152498D02*
X2152873Y1729103D01*
X2152123Y1774467D02*
X2151873Y1774376D01*
X2151873D02*
X2151623Y1774194D01*
X2151623D02*
X2151498Y1774012D01*
X2151498D02*
Y1773649D01*
X2151498D02*
X2151623Y1773467D01*
X2151623D02*
X2151873Y1773285D01*
X2151873D02*
X2152123Y1773194D01*
X2152123D02*
X2152498Y1773103D01*
X2152498D02*
X2153123D01*
X2153123D02*
X2153498Y1773194D01*
X2153498D02*
X2153748Y1773285D01*
X2153748D02*
X2153998Y1773467D01*
X2153998D02*
X2154123Y1773649D01*
X2154123D02*
Y1774012D01*
X2154123D02*
X2153998Y1774194D01*
X2153998D02*
X2153748Y1774376D01*
X2153748D02*
X2153498Y1774467D01*
X2151998Y1775285D02*
X2151873Y1775467D01*
X2151873D02*
X2151498Y1775739D01*
X2151498D02*
X2154123D01*
X2151498Y1777830D02*
X2154123Y1776921D01*
X2151498Y1776558D02*
Y1777830D01*
X2172123Y1750967D02*
X2171873Y1750876D01*
X2171873D02*
X2171623Y1750694D01*
X2171623D02*
X2171498Y1750512D01*
X2171498D02*
Y1750149D01*
X2171498D02*
X2171623Y1749967D01*
X2171623D02*
X2171873Y1749785D01*
X2171873D02*
X2172123Y1749694D01*
X2172123D02*
X2172498Y1749603D01*
X2172498D02*
X2173123D01*
X2173123D02*
X2173498Y1749694D01*
X2173498D02*
X2173748Y1749785D01*
X2173748D02*
X2173998Y1749967D01*
X2173998D02*
X2174123Y1750149D01*
X2174123D02*
Y1750512D01*
X2174123D02*
X2173998Y1750694D01*
X2173998D02*
X2173748Y1750876D01*
X2173748D02*
X2173498Y1750967D01*
X2171998Y1751785D02*
X2171873Y1751967D01*
X2171873D02*
X2171498Y1752239D01*
X2171498D02*
X2174123D01*
X2171498Y1753512D02*
X2171623Y1753239D01*
X2171623D02*
X2171873Y1753149D01*
X2171873D02*
X2172123D01*
X2172123D02*
X2172373Y1753239D01*
X2172373D02*
X2172498Y1753421D01*
X2172498D02*
X2172623Y1753785D01*
X2172623D02*
X2172748Y1754058D01*
X2172748D02*
X2172998Y1754239D01*
X2172998D02*
X2173248Y1754330D01*
X2173248D02*
X2173623D01*
X2173623D02*
X2173873Y1754239D01*
X2173873D02*
X2173998Y1754149D01*
X2173998D02*
X2174123Y1753876D01*
X2174123D02*
Y1753512D01*
X2174123D02*
X2173998Y1753239D01*
X2173998D02*
X2173873Y1753149D01*
X2173873D02*
X2173623Y1753058D01*
X2173623D02*
X2173248D01*
X2173248D02*
X2172998Y1753149D01*
X2172998D02*
X2172748Y1753330D01*
X2172748D02*
X2172623Y1753603D01*
X2172623D02*
X2172498Y1753967D01*
X2172498D02*
X2172373Y1754149D01*
X2172373D02*
X2172123Y1754239D01*
X2172123D02*
X2171873D01*
X2171873D02*
X2171623Y1754149D01*
X2171623D02*
X2171498Y1753876D01*
X2171498D02*
Y1753512D01*
X2158248Y1726512D02*
X2157998Y1726421D01*
X2157998D02*
X2157748Y1726239D01*
X2157748D02*
X2157623Y1726058D01*
X2157623D02*
Y1725694D01*
X2157623D02*
X2157748Y1725512D01*
X2157748D02*
X2157998Y1725330D01*
X2157998D02*
X2158248Y1725239D01*
X2158248D02*
X2158623Y1725149D01*
X2158623D02*
X2159248D01*
X2159248D02*
X2159623Y1725239D01*
X2159623D02*
X2159873Y1725330D01*
X2159873D02*
X2160123Y1725512D01*
X2160123D02*
X2160248Y1725694D01*
X2160248D02*
Y1726058D01*
X2160248D02*
X2160123Y1726239D01*
X2160123D02*
X2159873Y1726421D01*
X2159873D02*
X2159623Y1726512D01*
X2158123Y1727330D02*
X2157998Y1727512D01*
X2157998D02*
X2157623Y1727785D01*
X2157623D02*
X2160248D01*
X2158498Y1729785D02*
X2158873Y1729694D01*
X2158873D02*
X2159123Y1729512D01*
X2159123D02*
X2159248Y1729239D01*
X2159248D02*
Y1729149D01*
X2159248D02*
X2159123Y1728876D01*
X2159123D02*
X2158873Y1728694D01*
X2158873D02*
X2158498Y1728603D01*
X2158498D02*
X2158373D01*
X2158373D02*
X2157998Y1728694D01*
X2157998D02*
X2157748Y1728876D01*
X2157748D02*
X2157623Y1729149D01*
X2157623D02*
Y1729239D01*
X2157623D02*
X2157748Y1729512D01*
X2157748D02*
X2157998Y1729694D01*
X2157998D02*
X2158498Y1729785D01*
X2158498D02*
X2159123D01*
X2159123D02*
X2159748Y1729694D01*
X2159748D02*
X2160123Y1729512D01*
X2160123D02*
X2160248Y1729239D01*
X2160248D02*
Y1729058D01*
X2160248D02*
X2160123Y1728785D01*
X2160123D02*
X2159873Y1728694D01*
X2108350Y1768376D02*
X2108259Y1768626D01*
X2108259D02*
X2108078Y1768876D01*
X2107896Y1769001*
X2107532*
X2107532D02*
X2107350Y1768876D01*
X2107350D02*
X2107168Y1768626D01*
X2107168D02*
X2107078Y1768376D01*
X2106987Y1768001*
Y1767376*
X2107078Y1767001*
X2107168Y1766751*
X2107168D02*
X2107350Y1766501D01*
X2107350D02*
X2107532Y1766376D01*
X2107532D02*
X2107896D01*
X2108078Y1766501*
X2108259Y1766751*
X2108259D02*
X2108350Y1767001D01*
X2109259Y1768376D02*
Y1768501D01*
X2109259D02*
X2109350Y1768751D01*
X2109350D02*
X2109441Y1768876D01*
X2109441D02*
X2109623Y1769001D01*
X2109623D02*
X2109987D01*
X2110168Y1768876*
X2110168D02*
X2110259Y1768751D01*
X2110259D02*
X2110350Y1768501D01*
X2110350D02*
Y1768251D01*
X2110350D02*
X2110259Y1768001D01*
X2110259D02*
X2110078Y1767626D01*
X2109168Y1766376*
X2109168D02*
X2110441D01*
X2139123Y1774058D02*
X2138873Y1773967D01*
X2138873D02*
X2138623Y1773785D01*
X2138623D02*
X2138498Y1773603D01*
X2138498D02*
Y1773239D01*
X2138498D02*
X2138623Y1773058D01*
X2138623D02*
X2138873Y1772876D01*
X2138873D02*
X2139123Y1772785D01*
X2139123D02*
X2139498Y1772694D01*
X2139498D02*
X2140123D01*
X2140123D02*
X2140498Y1772785D01*
X2140498D02*
X2140748Y1772876D01*
X2140748D02*
X2140998Y1773058D01*
X2140998D02*
X2141123Y1773239D01*
X2141123D02*
Y1773603D01*
X2141123D02*
X2140998Y1773785D01*
X2140998D02*
X2140748Y1773967D01*
X2140748D02*
X2140498Y1774058D01*
X2139123Y1774967D02*
X2138998D01*
X2138998D02*
X2138748Y1775058D01*
X2138748D02*
X2138623Y1775149D01*
X2138623D02*
X2138498Y1775330D01*
X2138498D02*
Y1775694D01*
X2138498D02*
X2138623Y1775876D01*
X2138623D02*
X2138748Y1775967D01*
X2138748D02*
X2138998Y1776058D01*
X2138998D02*
X2139248D01*
X2139248D02*
X2139498Y1775967D01*
X2139498D02*
X2139873Y1775785D01*
X2139873D02*
X2141123Y1774876D01*
X2141123D02*
Y1776149D01*
X2138498Y1777512D02*
X2138623Y1777239D01*
X2138623D02*
X2138998Y1777058D01*
X2138998D02*
X2139623Y1776967D01*
X2139623D02*
X2139998D01*
X2139998D02*
X2140623Y1777058D01*
X2140623D02*
X2140998Y1777239D01*
X2140998D02*
X2141123Y1777512D01*
X2141123D02*
Y1777694D01*
X2141123D02*
X2140998Y1777967D01*
X2140998D02*
X2140623Y1778149D01*
X2140623D02*
X2139998Y1778239D01*
X2139998D02*
X2139623D01*
X2139623D02*
X2138998Y1778149D01*
X2138998D02*
X2138623Y1777967D01*
X2138623D02*
X2138498Y1777694D01*
X2138498D02*
Y1777512D01*
X2132623Y1775967D02*
X2132373Y1775876D01*
X2132373D02*
X2132123Y1775694D01*
X2132123D02*
X2131998Y1775512D01*
X2131998D02*
Y1775149D01*
X2131998D02*
X2132123Y1774967D01*
X2132123D02*
X2132373Y1774785D01*
X2132373D02*
X2132623Y1774694D01*
X2132623D02*
X2132998Y1774603D01*
X2132998D02*
X2133623D01*
X2133623D02*
X2133998Y1774694D01*
X2133998D02*
X2134248Y1774785D01*
X2134248D02*
X2134498Y1774967D01*
X2134498D02*
X2134623Y1775149D01*
X2134623D02*
Y1775512D01*
X2134623D02*
X2134498Y1775694D01*
X2134498D02*
X2134248Y1775876D01*
X2134248D02*
X2133998Y1775967D01*
X2132623Y1776876D02*
X2132498D01*
X2132498D02*
X2132248Y1776967D01*
X2132248D02*
X2132123Y1777058D01*
X2132123D02*
X2131998Y1777239D01*
X2131998D02*
Y1777603D01*
X2131998D02*
X2132123Y1777785D01*
X2132123D02*
X2132248Y1777876D01*
X2132248D02*
X2132498Y1777967D01*
X2132498D02*
X2132748D01*
X2132748D02*
X2132998Y1777876D01*
X2132998D02*
X2133373Y1777694D01*
X2133373D02*
X2134623Y1776785D01*
X2134623D02*
Y1778058D01*
X2132498Y1778876D02*
X2132373Y1779058D01*
X2132373D02*
X2131998Y1779330D01*
X2131998D02*
X2134623D01*
X2030805Y1716751D02*
X2030714Y1717001D01*
X2030532Y1717251*
X2030532D02*
X2030350Y1717376D01*
X2030350D02*
X2029987D01*
X2029805Y1717251*
X2029623Y1717001*
X2029623D02*
X2029532Y1716751D01*
X2029532D02*
X2029441Y1716376D01*
X2029441D02*
Y1715751D01*
X2029441D02*
X2029532Y1715376D01*
X2029532D02*
X2029623Y1715126D01*
X2029623D02*
X2029805Y1714876D01*
X2029987Y1714751*
X2030350*
X2030350D02*
X2030532Y1714876D01*
X2030532D02*
X2030714Y1715126D01*
X2030805Y1715376*
X2031714Y1716751D02*
Y1716876D01*
X2031805Y1717126*
X2031896Y1717251*
X2032078Y1717376*
X2032441*
X2032441D02*
X2032623Y1717251D01*
X2032623D02*
X2032714Y1717126D01*
X2032805Y1716876*
Y1716626*
X2032714Y1716376*
X2032532Y1716001*
X2032532D02*
X2031623Y1714751D01*
X2031623D02*
X2032896D01*
X2033805Y1716751D02*
Y1716876D01*
X2033896Y1717126*
X2033987Y1717251*
X2034168Y1717376*
X2034168D02*
X2034532D01*
X2034532D02*
X2034714Y1717251D01*
X2034805Y1717126*
X2034896Y1716876*
Y1716626*
X2034805Y1716376*
X2034623Y1716001*
X2034623D02*
X2033714Y1714751D01*
X2034987*
X2031805Y1794751D02*
X2031714Y1795001D01*
X2031532Y1795251*
X2031532D02*
X2031350Y1795376D01*
X2031350D02*
X2030987D01*
X2030805Y1795251*
X2030623Y1795001*
X2030623D02*
X2030532Y1794751D01*
X2030532D02*
X2030441Y1794376D01*
X2030441D02*
Y1793751D01*
X2030441D02*
X2030532Y1793376D01*
X2030532D02*
X2030623Y1793126D01*
X2030623D02*
X2030805Y1792876D01*
X2030987Y1792751*
X2031350*
X2031350D02*
X2031532Y1792876D01*
X2031532D02*
X2031714Y1793126D01*
X2031805Y1793376*
X2032714Y1794751D02*
Y1794876D01*
X2032805Y1795126*
X2032896Y1795251*
X2033078Y1795376*
X2033441*
X2033441D02*
X2033623Y1795251D01*
X2033623D02*
X2033714Y1795126D01*
X2033805Y1794876*
Y1794626*
X2033714Y1794376*
X2033532Y1794001*
X2033532D02*
X2032623Y1792751D01*
X2032623D02*
X2033896D01*
X2034896Y1795376D02*
X2035896D01*
X2035350Y1794376*
X2035350D02*
X2035623D01*
X2035623D02*
X2035805Y1794251D01*
X2035896Y1794126*
X2035987Y1793751*
Y1793501*
X2035896Y1793126*
X2035714Y1792876*
X2035441Y1792751*
X2035441D02*
X2035168D01*
X2035168D02*
X2034896Y1792876D01*
X2034805Y1793001*
X2034714Y1793251*
X2151259Y1716876D02*
X2151169Y1717126D01*
X2150987Y1717376*
X2150805Y1717501*
X2150441*
X2150441D02*
X2150259Y1717376D01*
X2150259D02*
X2150078Y1717126D01*
X2149987Y1716876*
X2149896Y1716501*
Y1715876*
X2149987Y1715501*
X2150078Y1715251*
X2150259Y1715001*
X2150259D02*
X2150441Y1714876D01*
X2150441D02*
X2150805D01*
X2150987Y1715001*
X2151169Y1715251*
X2151259Y1715501*
X2152169Y1716876D02*
Y1717001D01*
X2152259Y1717251*
X2152259D02*
X2152350Y1717376D01*
X2152350D02*
X2152532Y1717501D01*
X2152532D02*
X2152896D01*
X2153078Y1717376*
X2153169Y1717251*
X2153259Y1717001*
X2153259D02*
Y1716751D01*
X2153259D02*
X2153169Y1716501D01*
X2152987Y1716126*
X2152078Y1714876*
X2153350*
X2155078Y1717501D02*
X2154169Y1715751D01*
X2155532*
X2155078Y1717501D02*
Y1714876D01*
X2150759Y1794876D02*
X2150669Y1795126D01*
X2150487Y1795376*
X2150305Y1795501*
X2149941*
X2149941D02*
X2149759Y1795376D01*
X2149759D02*
X2149578Y1795126D01*
X2149487Y1794876*
X2149396Y1794501*
Y1793876*
X2149487Y1793501*
X2149578Y1793251*
X2149759Y1793001*
X2149759D02*
X2149941Y1792876D01*
X2149941D02*
X2150305D01*
X2150487Y1793001*
X2150669Y1793251*
X2150759Y1793501*
X2151669Y1794876D02*
Y1795001D01*
X2151759Y1795251*
X2151759D02*
X2151850Y1795376D01*
X2151850D02*
X2152032Y1795501D01*
X2152032D02*
X2152396D01*
X2152578Y1795376*
X2152669Y1795251*
X2152759Y1795001*
X2152759D02*
Y1794751D01*
X2152759D02*
X2152669Y1794501D01*
X2152487Y1794126*
X2151578Y1792876*
X2152850*
X2154850Y1795501D02*
X2153941D01*
X2153941D02*
X2153850Y1794376D01*
X2153850D02*
X2153941Y1794501D01*
X2153941D02*
X2154214Y1794626D01*
X2154487*
X2154759Y1794501*
X2154759D02*
X2154941Y1794251D01*
X2154941D02*
X2155032Y1793876D01*
X2155032D02*
X2154941Y1793626D01*
X2154941D02*
X2154850Y1793251D01*
X2154850D02*
X2154669Y1793001D01*
X2154396Y1792876*
X2154123*
X2154123D02*
X2153850Y1793001D01*
X2153850D02*
X2153759Y1793126D01*
X2153759D02*
X2153669Y1793376D01*
X1971350Y1795251D02*
X1971259Y1795501D01*
X1971259D02*
X1971078Y1795751D01*
X1970896Y1795876*
X1970532*
X1970532D02*
X1970350Y1795751D01*
X1970350D02*
X1970168Y1795501D01*
X1970168D02*
X1970078Y1795251D01*
X1969987Y1794876*
Y1794251*
X1970078Y1793876*
X1970168Y1793626*
X1970168D02*
X1970350Y1793376D01*
X1970350D02*
X1970532Y1793251D01*
X1970532D02*
X1970896D01*
X1971078Y1793376*
X1971259Y1793626*
X1971259D02*
X1971350Y1793876D01*
X1972259Y1795251D02*
Y1795376D01*
X1972259D02*
X1972350Y1795626D01*
X1972350D02*
X1972441Y1795751D01*
X1972441D02*
X1972623Y1795876D01*
X1972623D02*
X1972987D01*
X1973168Y1795751*
X1973168D02*
X1973259Y1795626D01*
X1973259D02*
X1973350Y1795376D01*
X1973350D02*
Y1795126D01*
X1973350D02*
X1973259Y1794876D01*
X1973259D02*
X1973078Y1794501D01*
X1972168Y1793251*
X1972168D02*
X1973441D01*
X1975350Y1795501D02*
X1975259Y1795751D01*
X1975259D02*
X1974987Y1795876D01*
X1974805*
X1974532Y1795751*
X1974532D02*
X1974350Y1795376D01*
X1974350D02*
X1974259Y1794751D01*
X1974259D02*
Y1794126D01*
X1974259D02*
X1974350Y1793626D01*
X1974350D02*
X1974532Y1793376D01*
X1974532D02*
X1974805Y1793251D01*
X1974896*
X1975168Y1793376*
X1975168D02*
X1975350Y1793626D01*
X1975350D02*
X1975441Y1794001D01*
X1975441D02*
Y1794126D01*
X1975441D02*
X1975350Y1794501D01*
X1975350D02*
X1975168Y1794751D01*
X1975168D02*
X1974896Y1794876D01*
X1974805*
X1974532Y1794751*
X1974532D02*
X1974350Y1794501D01*
X1974350D02*
X1974259Y1794126D01*
X2091305Y1716376D02*
X2091214Y1716626D01*
X2091032Y1716876*
X2091032D02*
X2090850Y1717001D01*
X2090850D02*
X2090487D01*
X2090305Y1716876*
X2090123Y1716626*
X2090123D02*
X2090032Y1716376D01*
X2090032D02*
X2089941Y1716001D01*
X2089941D02*
Y1715376D01*
X2089941D02*
X2090032Y1715001D01*
X2090032D02*
X2090123Y1714751D01*
X2090123D02*
X2090305Y1714501D01*
X2090487Y1714376*
X2090850*
X2090850D02*
X2091032Y1714501D01*
X2091032D02*
X2091214Y1714751D01*
X2091305Y1715001*
X2092214Y1716376D02*
Y1716501D01*
X2092305Y1716751*
X2092396Y1716876*
X2092578Y1717001*
X2092941*
X2092941D02*
X2093123Y1716876D01*
X2093123D02*
X2093214Y1716751D01*
X2093305Y1716501*
Y1716251*
X2093214Y1716001*
X2093032Y1715626*
X2093032D02*
X2092123Y1714376D01*
X2092123D02*
X2093396D01*
X2095487Y1717001D02*
X2094578Y1714376D01*
X2094214Y1717001D02*
X2095487D01*
X2091305Y1794376D02*
X2091214Y1794626D01*
X2091032Y1794876*
X2091032D02*
X2090850Y1795001D01*
X2090850D02*
X2090487D01*
X2090305Y1794876*
X2090123Y1794626*
X2090123D02*
X2090032Y1794376D01*
X2090032D02*
X2089941Y1794001D01*
X2089941D02*
Y1793376D01*
X2089941D02*
X2090032Y1793001D01*
X2090032D02*
X2090123Y1792751D01*
X2090123D02*
X2090305Y1792501D01*
X2090487Y1792376*
X2090850*
X2090850D02*
X2091032Y1792501D01*
X2091032D02*
X2091214Y1792751D01*
X2091305Y1793001*
X2092214Y1794376D02*
Y1794501D01*
X2092305Y1794751*
X2092396Y1794876*
X2092578Y1795001*
X2092941*
X2092941D02*
X2093123Y1794876D01*
X2093123D02*
X2093214Y1794751D01*
X2093305Y1794501*
Y1794251*
X2093214Y1794001*
X2093032Y1793626*
X2093032D02*
X2092123Y1792376D01*
X2092123D02*
X2093396D01*
X2094668Y1795001D02*
X2094396Y1794876D01*
X2094305Y1794626*
Y1794376*
X2094396Y1794126*
X2094578Y1794001*
X2094941Y1793876*
X2094941D02*
X2095214Y1793751D01*
X2095396Y1793501*
X2095487Y1793251*
Y1792876*
X2095396Y1792626*
X2095305Y1792501*
X2095032Y1792376*
X2095032D02*
X2094668D01*
X2094668D02*
X2094396Y1792501D01*
X2094305Y1792626*
X2094214Y1792876*
Y1793251*
X2094305Y1793501*
X2094487Y1793751*
X2094759Y1793876*
X2094759D02*
X2095123Y1794001D01*
X2095123D02*
X2095305Y1794126D01*
X2095396Y1794376*
Y1794626*
X2095305Y1794876*
X2095032Y1795001*
X2095032D02*
X2094668D01*
X1971350Y1716751D02*
X1971259Y1717001D01*
X1971259D02*
X1971078Y1717251D01*
X1970896Y1717376*
X1970532*
X1970532D02*
X1970350Y1717251D01*
X1970350D02*
X1970168Y1717001D01*
X1970168D02*
X1970078Y1716751D01*
X1969987Y1716376*
Y1715751*
X1970078Y1715376*
X1970168Y1715126*
X1970168D02*
X1970350Y1714876D01*
X1970350D02*
X1970532Y1714751D01*
X1970532D02*
X1970896D01*
X1971078Y1714876*
X1971259Y1715126*
X1971259D02*
X1971350Y1715376D01*
X1972259Y1716751D02*
Y1716876D01*
X1972259D02*
X1972350Y1717126D01*
X1972350D02*
X1972441Y1717251D01*
X1972441D02*
X1972623Y1717376D01*
X1972623D02*
X1972987D01*
X1973168Y1717251*
X1973168D02*
X1973259Y1717126D01*
X1973259D02*
X1973350Y1716876D01*
X1973350D02*
Y1716626D01*
X1973350D02*
X1973259Y1716376D01*
X1973259D02*
X1973078Y1716001D01*
X1972168Y1714751*
X1972168D02*
X1973441D01*
X1975441Y1716501D02*
X1975350Y1716126D01*
X1975350D02*
X1975168Y1715876D01*
X1975168D02*
X1974896Y1715751D01*
X1974805*
X1974532Y1715876*
X1974532D02*
X1974350Y1716126D01*
X1974350D02*
X1974259Y1716501D01*
X1974259D02*
Y1716626D01*
X1974259D02*
X1974350Y1717001D01*
X1974350D02*
X1974532Y1717251D01*
X1974532D02*
X1974805Y1717376D01*
X1974896*
X1975168Y1717251*
X1975168D02*
X1975350Y1717001D01*
X1975350D02*
X1975441Y1716501D01*
X1975441D02*
Y1715876D01*
X1975441D02*
X1975350Y1715251D01*
X1975350D02*
X1975168Y1714876D01*
X1975168D02*
X1974896Y1714751D01*
X1974714*
X1974441Y1714876*
X1974441D02*
X1974350Y1715126D01*
X2015350Y1759751D02*
X2015259Y1760001D01*
X2015259D02*
X2015078Y1760251D01*
X2014896Y1760376*
X2014532*
X2014532D02*
X2014350Y1760251D01*
X2014350D02*
X2014168Y1760001D01*
X2014168D02*
X2014078Y1759751D01*
X2013987Y1759376*
Y1758751*
X2014078Y1758376*
X2014168Y1758126*
X2014168D02*
X2014350Y1757876D01*
X2014350D02*
X2014532Y1757751D01*
X2014532D02*
X2014896D01*
X2015078Y1757876*
X2015259Y1758126*
X2015259D02*
X2015350Y1758376D01*
X2016350Y1760376D02*
X2017350D01*
X2017350D02*
X2016805Y1759376D01*
X2017078*
X2017259Y1759251*
X2017259D02*
X2017350Y1759126D01*
X2017350D02*
X2017441Y1758751D01*
X2017441D02*
Y1758501D01*
X2017441D02*
X2017350Y1758126D01*
X2017350D02*
X2017168Y1757876D01*
X2017168D02*
X2016896Y1757751D01*
X2016623*
X2016623D02*
X2016350Y1757876D01*
X2016350D02*
X2016259Y1758001D01*
X2016259D02*
X2016168Y1758251D01*
X2108305Y1760376D02*
X2108214Y1760626D01*
X2108032Y1760876*
X2108032D02*
X2107850Y1761001D01*
X2107850D02*
X2107487D01*
X2107305Y1760876*
X2107123Y1760626*
X2107123D02*
X2107032Y1760376D01*
X2107032D02*
X2106941Y1760001D01*
X2106941D02*
Y1759376D01*
X2106941D02*
X2107032Y1759001D01*
X2107032D02*
X2107123Y1758751D01*
X2107123D02*
X2107305Y1758501D01*
X2107487Y1758376*
X2107850*
X2107850D02*
X2108032Y1758501D01*
X2108032D02*
X2108214Y1758751D01*
X2108305Y1759001*
X2110032Y1761001D02*
X2109123Y1759251D01*
X2109123D02*
X2110487D01*
X2110032Y1761001D02*
Y1758376D01*
X2015305Y1778751D02*
X2015214Y1779001D01*
X2015032Y1779251*
X2015032D02*
X2014850Y1779376D01*
X2014850D02*
X2014487D01*
X2014305Y1779251*
X2014123Y1779001*
X2014123D02*
X2014032Y1778751D01*
X2014032D02*
X2013941Y1778376D01*
X2013941D02*
Y1777751D01*
X2013941D02*
X2014032Y1777376D01*
X2014032D02*
X2014123Y1777126D01*
X2014123D02*
X2014305Y1776876D01*
X2014487Y1776751*
X2014850*
X2014850D02*
X2015032Y1776876D01*
X2015032D02*
X2015214Y1777126D01*
X2015305Y1777376*
X2017305Y1779376D02*
X2016396D01*
X2016305Y1778251*
X2016396Y1778376*
X2016668Y1778501*
X2016668D02*
X2016941D01*
X2016941D02*
X2017214Y1778376D01*
X2017396Y1778126*
X2017487Y1777751*
X2017396Y1777501*
X2017305Y1777126*
X2017123Y1776876*
X2017123D02*
X2016850Y1776751D01*
X2016850D02*
X2016578D01*
X2016305Y1776876*
X2016214Y1777001*
X2016123Y1777251*
X2072248Y1712149D02*
X2071998Y1712058D01*
X2071998D02*
X2071748Y1711876D01*
X2071748D02*
X2071623Y1711694D01*
X2071623D02*
Y1711330D01*
X2071623D02*
X2071748Y1711149D01*
X2071748D02*
X2071998Y1710967D01*
X2071998D02*
X2072248Y1710876D01*
X2072248D02*
X2072623Y1710785D01*
X2072623D02*
X2073248D01*
X2073248D02*
X2073623Y1710876D01*
X2073623D02*
X2073873Y1710967D01*
X2073873D02*
X2074123Y1711149D01*
X2074123D02*
X2074248Y1711330D01*
X2074248D02*
Y1711694D01*
X2074248D02*
X2074123Y1711876D01*
X2074123D02*
X2073873Y1712058D01*
X2073873D02*
X2073623Y1712149D01*
X2071998Y1714058D02*
X2071748Y1713967D01*
X2071748D02*
X2071623Y1713694D01*
X2071623D02*
Y1713512D01*
X2071623D02*
X2071748Y1713239D01*
X2071748D02*
X2072123Y1713058D01*
X2072123D02*
X2072748Y1712967D01*
X2072748D02*
X2073373D01*
X2073373D02*
X2073873Y1713058D01*
X2073873D02*
X2074123Y1713239D01*
X2074123D02*
X2074248Y1713512D01*
X2074248D02*
Y1713603D01*
X2074248D02*
X2074123Y1713876D01*
X2074123D02*
X2073873Y1714058D01*
X2073873D02*
X2073498Y1714149D01*
X2073498D02*
X2073373D01*
X2073373D02*
X2072998Y1714058D01*
X2072998D02*
X2072748Y1713876D01*
X2072748D02*
X2072623Y1713603D01*
X2072623D02*
Y1713512D01*
X2072623D02*
X2072748Y1713239D01*
X2072748D02*
X2072998Y1713058D01*
X2072998D02*
X2073373Y1712967D01*
X2053248Y1712103D02*
X2052998Y1712012D01*
X2052998D02*
X2052748Y1711830D01*
X2052748D02*
X2052623Y1711649D01*
X2052623D02*
Y1711285D01*
X2052623D02*
X2052748Y1711103D01*
X2052748D02*
X2052998Y1710921D01*
X2052998D02*
X2053248Y1710830D01*
X2053248D02*
X2053623Y1710739D01*
X2053623D02*
X2054248D01*
X2054248D02*
X2054623Y1710830D01*
X2054623D02*
X2054873Y1710921D01*
X2054873D02*
X2055123Y1711103D01*
X2055123D02*
X2055248Y1711285D01*
X2055248D02*
Y1711649D01*
X2055248D02*
X2055123Y1711830D01*
X2055123D02*
X2054873Y1712012D01*
X2054873D02*
X2054623Y1712103D01*
X2052623Y1714194D02*
X2055248Y1713285D01*
X2052623Y1712921D02*
Y1714194D01*
X2015350Y1750751D02*
X2015259Y1751001D01*
X2015259D02*
X2015078Y1751251D01*
X2014896Y1751376*
X2014532*
X2014532D02*
X2014350Y1751251D01*
X2014350D02*
X2014168Y1751001D01*
X2014168D02*
X2014078Y1750751D01*
X2013987Y1750376*
Y1749751*
X2014078Y1749376*
X2014168Y1749126*
X2014168D02*
X2014350Y1748876D01*
X2014350D02*
X2014532Y1748751D01*
X2014532D02*
X2014896D01*
X2015078Y1748876*
X2015259Y1749126*
X2015259D02*
X2015350Y1749376D01*
X2016623Y1751376D02*
X2016350Y1751251D01*
X2016350D02*
X2016259Y1751001D01*
X2016259D02*
Y1750751D01*
X2016259D02*
X2016350Y1750501D01*
X2016350D02*
X2016532Y1750376D01*
X2016532D02*
X2016896Y1750251D01*
X2017168Y1750126*
X2017168D02*
X2017350Y1749876D01*
X2017350D02*
X2017441Y1749626D01*
X2017441D02*
Y1749251D01*
X2017441D02*
X2017350Y1749001D01*
X2017350D02*
X2017259Y1748876D01*
X2017259D02*
X2016987Y1748751D01*
X2016623*
X2016623D02*
X2016350Y1748876D01*
X2016350D02*
X2016259Y1749001D01*
X2016259D02*
X2016168Y1749251D01*
X2016168D02*
Y1749626D01*
X2016168D02*
X2016259Y1749876D01*
X2016259D02*
X2016441Y1750126D01*
X2016441D02*
X2016714Y1750251D01*
X2017078Y1750376*
X2017259Y1750501*
X2017259D02*
X2017350Y1750751D01*
X2017350D02*
Y1751001D01*
X2017350D02*
X2017259Y1751251D01*
X2017259D02*
X2016987Y1751376D01*
X2016623*
X2108396D02*
X2108305Y1751626D01*
X2108123Y1751876*
X2108123D02*
X2107941Y1752001D01*
X2107941D02*
X2107578D01*
X2107396Y1751876*
X2107214Y1751626*
X2107123Y1751376*
X2107123D02*
X2107032Y1751001D01*
X2107032D02*
Y1750376D01*
X2107032D02*
X2107123Y1750001D01*
X2107123D02*
X2107214Y1749751D01*
X2107396Y1749501*
X2107578Y1749376*
X2107941*
X2107941D02*
X2108123Y1749501D01*
X2108123D02*
X2108305Y1749751D01*
X2108396Y1750001*
X2110396Y1751126D02*
X2110305Y1750751D01*
X2110123Y1750501*
X2110123D02*
X2109850Y1750376D01*
X2109850D02*
X2109759D01*
X2109759D02*
X2109487Y1750501D01*
X2109305Y1750751*
X2109214Y1751126*
Y1751251*
X2109305Y1751626*
X2109487Y1751876*
X2109759Y1752001*
X2109759D02*
X2109850D01*
X2109850D02*
X2110123Y1751876D01*
X2110123D02*
X2110305Y1751626D01*
X2110396Y1751126*
Y1750501*
X2110305Y1749876*
X2110123Y1749501*
X2110123D02*
X2109850Y1749376D01*
X2109850D02*
X2109668D01*
X2109668D02*
X2109396Y1749501D01*
X2109305Y1749751*
G74*
X0Y0D02*
M02*
