*
*
G04 PowerPCB (Build Number 501.037) generated Gerber (RS-274-X) file*
G04 PC Version=2.1*
*
%IN "83232-A.pcb"*%
*
%MOIN*%
*
%FSLAX35Y35*%
*
*
*
*
G04 PC Standard Apertures*
*
*
G04 Thermal Relief Aperture macro.*
%AMTER*
1,1,$1,0,0*
1,0,$1-$2,0,0*
21,0,$3,$4,0,0,45*
21,0,$3,$4,0,0,135*
%
*
*
G04 Annular Aperture macro.*
%AMANN*
1,1,$1,0,0*
1,0,$2,0,0*
%
*
*
G04 Odd Aperture macro.*
%AMODD*
1,1,$1,0,0*
1,0,$1-0.005,0,0*
%
*
*
G04 PC Custom Aperture Macros*
*
*
*
*
*
*
G04 PC Aperture Table*
*
%ADD010C,0.01*%
%ADD012R,0.03X0.03*%
%ADD014C,0.005*%
%ADD022C,0.025*%
%ADD027C,0.02*%
%ADD031R,0.02756X0.02756*%
%ADD037C,0.01969*%
%ADD042C,0.05*%
%ADD043C,0.04*%
%ADD062R,0.03504X0.03504*%
%ADD063C,0.04331*%
%ADD064R,0.11811X0.11811*%
%ADD065C,0.11811*%
%ADD066C,0.01575*%
%ADD067R,0.01772X0.01772*%
%ADD068C,0.07087*%
*
*
*
*
G04 PC Custom Flashes*
G04 Layer Name 83232-A.pcb - flashes*
%LPD*%
*
*
G04 PC Circuitry*
G04 Layer Name 83232-A.pcb - circuitry*
%LPD*%
*
G54D10*
G01X1830000Y1627877D02*
Y1557011D01*
Y1541263D02*
G75*
G03Y1557011I0J7874D01*
G01Y1541263D02*
Y1470397D01*
X1830000D02*
X1892007D01*
X1892007D02*
Y1484177D01*
X1895944D02*
G03X1892007I-1967J0D01*
G01X1895944D02*
Y1470397D01*
X1895944D02*
X2096141D01*
X2096141D02*
Y1541263D01*
Y1557011D02*
G03Y1541263I0J-7873D01*
G01Y1557011D02*
Y1627877D01*
X2096141D02*
X1830000D01*
X1928342Y1449164D02*
Y1442602D01*
X1926751Y1449164D02*
X1929933D01*
X1933342D02*
X1932888Y1448852D01*
X1932433Y1448227*
X1932433D02*
X1932206Y1447602D01*
X1932206D02*
X1931979Y1446664D01*
X1931979D02*
Y1445102D01*
X1932206Y1444164*
X1932206D02*
X1932433Y1443539D01*
X1932433D02*
X1932888Y1442914D01*
X1932888D02*
X1933342Y1442602D01*
X1933342D02*
X1934251D01*
X1934251D02*
X1934706Y1442914D01*
X1934706D02*
X1935161Y1443539D01*
X1935161D02*
X1935388Y1444164D01*
X1935388D02*
X1935615Y1445102D01*
X1935615D02*
Y1446664D01*
X1935615D02*
X1935388Y1447602D01*
X1935161Y1448227*
X1934706Y1448852*
X1934706D02*
X1934251Y1449164D01*
X1934251D02*
X1933342D01*
X1937661D02*
Y1442602D01*
Y1449164D02*
X1939706D01*
X1939706D02*
X1940388Y1448852D01*
X1940615Y1448539*
X1940615D02*
X1940842Y1447914D01*
X1940842D02*
Y1446977D01*
X1940842D02*
X1940615Y1446352D01*
X1940615D02*
X1940388Y1446039D01*
X1940388D02*
X1939706Y1445727D01*
X1939706D02*
X1937661D01*
X1950161Y1448227D02*
X1949706Y1448852D01*
X1949706D02*
X1949024Y1449164D01*
X1949024D02*
X1948115D01*
X1948115D02*
X1947433Y1448852D01*
X1947433D02*
X1946979Y1448227D01*
Y1447602*
X1947206Y1446977*
X1947206D02*
X1947433Y1446664D01*
X1947433D02*
X1947888Y1446352D01*
X1949251Y1445727*
X1949251D02*
X1949706Y1445414D01*
X1949706D02*
X1949933Y1445102D01*
X1949933D02*
X1950161Y1444477D01*
Y1443539*
X1950161D02*
X1949706Y1442914D01*
X1949706D02*
X1949024Y1442602D01*
X1949024D02*
X1948115D01*
X1948115D02*
X1947433Y1442914D01*
X1947433D02*
X1946979Y1443539D01*
X1952206Y1449164D02*
Y1442602D01*
X1954251Y1449164D02*
Y1442602D01*
Y1449164D02*
X1955842D01*
X1955842D02*
X1956524Y1448852D01*
X1956524D02*
X1956979Y1448227D01*
X1957206Y1447602*
X1957206D02*
X1957433Y1446664D01*
X1957433D02*
Y1445102D01*
X1957433D02*
X1957206Y1444164D01*
X1957206D02*
X1956979Y1443539D01*
X1956979D02*
X1956524Y1442914D01*
X1956524D02*
X1955842Y1442602D01*
X1955842D02*
X1954251D01*
X1959479Y1449164D02*
Y1442602D01*
Y1449164D02*
X1962433D01*
X1959479Y1446039D02*
X1961297D01*
X1959479Y1442602D02*
X1962433D01*
X1968570Y1449164D02*
Y1442602D01*
X1971297*
X1975161Y1449164D02*
X1973342Y1442602D01*
X1975161Y1449164D02*
X1976979Y1442602D01*
X1974024Y1444789D02*
X1976297D01*
X1979024Y1449164D02*
X1980842Y1446039D01*
X1980842D02*
Y1442602D01*
X1982661Y1449164D02*
X1980842Y1446039D01*
X1984706Y1449164D02*
Y1442602D01*
Y1449164D02*
X1987661D01*
X1984706Y1446039D02*
X1986524D01*
X1984706Y1442602D02*
X1987661D01*
X1989706Y1449164D02*
Y1442602D01*
Y1449164D02*
X1991751D01*
X1991751D02*
X1992433Y1448852D01*
X1992433D02*
X1992661Y1448539D01*
X1992661D02*
X1992888Y1447914D01*
X1992888D02*
Y1447289D01*
X1992888D02*
X1992661Y1446664D01*
X1992661D02*
X1992433Y1446352D01*
X1992433D02*
X1991751Y1446039D01*
X1991751D02*
X1989706D01*
X1991297D02*
X1992888Y1442602D01*
X1999024Y1447914D02*
X1999479Y1448227D01*
X2000161Y1449164*
X2000161D02*
Y1442602D01*
X1899050Y1494683D02*
X1898136Y1496097D01*
X1898136D02*
X1898696Y1495036D01*
X1898696D02*
X1897636Y1495597D01*
X1897636D02*
X1899050Y1494683D01*
X1897945Y1495397D02*
X1898014D01*
X1898506D02*
X1898588D01*
X1898000Y1495362D02*
Y1495405D01*
X1899000Y1494715D02*
Y1494761D01*
X1883346Y1475909D02*
Y1482340D01*
X1886817Y1485810*
X1886817D02*
Y1488674D01*
X1888370Y1490227*
X1875951Y1479937D02*
G03X1876259Y1483159I-16662J3222D01*
G01X1876259D02*
G03X1876568Y1479937I16972J0D01*
G01X1877679Y1487083D02*
G03X1877400Y1486397I700J-685D01*
G01X1877399D02*
G03X1877120Y1487083I-978J0D01*
G01X1876259Y1475909D02*
Y1483714D01*
X1876259D02*
X1877400Y1484854D01*
X1877400D02*
Y1487497D01*
X1868864Y1479937D02*
G03X1869173Y1483159I-16662J3222D01*
X1869481Y1479937I16971J0*
G01X1870030Y1487083D02*
G03X1869750Y1486397I700J-685D01*
G01X1869750D02*
G03X1869470Y1487083I-979J0D01*
G01X1869173Y1475909D02*
Y1483178D01*
X1869173D02*
X1869750Y1483755D01*
X1869750D02*
Y1487497D01*
X1861777Y1479937D02*
G03X1862086Y1483159I-16661J3222D01*
G01X1862086D02*
G03X1862395Y1479937I16972J0D01*
G01X1862426Y1492579D02*
G03X1862146Y1491894I699J-684D01*
X1861866Y1492579I-979J0*
G01X1862086Y1475909D02*
Y1486185D01*
X1862086D02*
X1862146Y1486245D01*
Y1492994*
X1838464Y1475909D02*
Y1479551D01*
X1906659Y1479937D02*
G03X1906968Y1483159I-16661J3222D01*
G01X1906968D02*
G03X1907277Y1479937I16971J0D01*
G01X1907579Y1487083D02*
G03X1907300Y1486397I700J-685D01*
G01X1907299D02*
G03X1907020Y1487083I-978J0D01*
G01X1906968Y1475909D02*
Y1483301D01*
X1906968D02*
X1907300Y1483633D01*
Y1487497*
X1899573Y1479937D02*
G03X1899881Y1483159I-16662J3222D01*
G01X1899881D02*
G03X1900190Y1479937I16972J0D01*
G01X1899881Y1475909D02*
Y1483501D01*
X1899881D02*
X1900236Y1483856D01*
Y1489097*
X2042597Y1489051D02*
G03X2042317Y1488365I700J-685D01*
G01X2042317D02*
G03X2042037Y1489051I-979J0D01*
G01X2041542Y1475909D02*
Y1481829D01*
X2041542D02*
X2042250Y1482537D01*
Y1485417*
X2042317Y1485485*
X2042317D02*
Y1489465D01*
X2041542Y1475909D02*
X2041614D01*
X2046029Y1479937D02*
G03X2046338Y1483159I-16661J3222D01*
G01X2046338D02*
G03X2046647Y1479937I16972J0D01*
G01X2046338Y1475909D02*
Y1491957D01*
X2046338D02*
X2047096Y1492715D01*
X2034218Y1479937D02*
G03X2034527Y1483159I-16661J3222D01*
G01X2034527D02*
G03X2034836Y1479937I16972J0D01*
G01X2034944Y1491983D02*
G03X2034664Y1491297I700J-685D01*
G01X2034664D02*
G03X2034384Y1491983I-979J0D01*
G01X2034527Y1475909D02*
Y1485848D01*
X2034527D02*
X2034664Y1485985D01*
X2034664D02*
Y1492397D01*
X2008234Y1479937D02*
G03X2008543Y1483159I-16662J3222D01*
X2008851Y1479937I16971J0*
G01X2009748Y1487000D02*
G03X2009468Y1486314I700J-685D01*
G01X2009468D02*
G03X2009188Y1487000I-979J0D01*
G01X2008543Y1475909D02*
Y1483219D01*
X2008543D02*
X2009468Y1484144D01*
X2009468D02*
Y1487414D01*
X2001148Y1479937D02*
G03X2001456Y1483159I-16662J3222D01*
G01X2001456D02*
G03X2001765Y1479937I16972J0D01*
G01X2004066Y1486669D02*
G03X2004353Y1487351I-692J692D01*
G01X2004749Y1486956D02*
G03X2004066Y1486669I10J-979D01*
G01X2001456Y1475909D02*
Y1484059D01*
X2001456D02*
X2004844Y1487446D01*
X1994061Y1479937D02*
G03X1994370Y1483159I-16662J3222D01*
X1994678Y1479937I16971J0*
G01X1994370Y1475909D02*
Y1484088D01*
X1994400Y1484118*
Y1488530*
X1982250Y1479937D02*
G03X1982559Y1483159I-16662J3222D01*
X1982867Y1479937I16971J0*
G01X1982559Y1475909D02*
Y1484588D01*
X1984231Y1486260*
X1984231D02*
Y1489857D01*
X1972801Y1479937D02*
G03X1973110Y1483159I-16662J3222D01*
X1973418Y1479937I16971J0*
G01X1973110Y1475909D02*
Y1483257D01*
X1973110D02*
X1974731Y1484879D01*
Y1487570*
X1974731D02*
X1974731D01*
X1974731D02*
Y1489730D01*
X2081633Y1487567D02*
G03X2081920Y1488249I-691J692D01*
G01X2082316Y1487854D02*
G03X2081633Y1487567I10J-979D01*
G01X2079409Y1475909D02*
Y1482168D01*
X2080060Y1482819*
X2080060D02*
Y1485993D01*
X2080060D02*
X2082411Y1488344D01*
X2072014Y1479937D02*
G03X2072322Y1483159I-16662J3222D01*
G01X2072322D02*
G03X2072631Y1479937I16972J0D01*
G01X2074822Y1486719D02*
G03X2075109Y1487402I-692J693D01*
G01X2075505Y1487006D02*
G03X2074822Y1486719I10J-979D01*
G01X2072322Y1475909D02*
Y1484220D01*
X2072322D02*
X2075600Y1487497D01*
X2067289Y1479937D02*
G03X2067598Y1483159I-16662J3222D01*
X2067907Y1479937I16971J0*
G01X2068354Y1489258D02*
G03X2068074Y1488572I700J-685D01*
G01X2068074D02*
G03X2067794Y1489258I-978J0D01*
G01X2067598Y1475909D02*
Y1484316D01*
X2067598D02*
X2068074Y1484792D01*
X2068074D02*
Y1489672D01*
X2060203Y1479937D02*
G03X2060511Y1483159I-16662J3222D01*
G01X2060511D02*
G03X2060820Y1479937I16972J0D01*
G01X2061379Y1487083D02*
G03X2061100Y1486397I700J-685D01*
G01X2061099D02*
G03X2060820Y1487083I-978J0D01*
G01X2060511Y1475909D02*
Y1483173D01*
X2060511D02*
X2061100Y1483761D01*
Y1487497*
X1832830Y1494019D02*
Y1485185D01*
X1832830D02*
X1838464Y1479551D01*
X1910822Y1533519D02*
G03X1911109Y1534202I-692J693D01*
G01X1911505Y1533806D02*
G03X1910822Y1533519I10J-979D01*
G01X1832830Y1494019D02*
Y1501856D01*
X1832830D02*
X1859505Y1528531D01*
X1905833*
X1911600Y1534297*
X1869750Y1488597D02*
G03X1870030Y1487911I980J0D01*
G01X1869470D02*
G03X1869750Y1488597I-699J686D01*
G01X1873237Y1497073D02*
G03X1873524Y1497756I-691J693D01*
G01X1873920Y1497360D02*
G03X1873237Y1497073I10J-979D01*
G01X1869750Y1487497D02*
Y1493585D01*
X1869750D02*
X1874015Y1497851D01*
X1846979Y1487083D02*
G03X1846700Y1486397I700J-685D01*
G01X1846699D02*
G03X1846420Y1487083I-978J0D01*
G01X1847604Y1479937D02*
G03X1847913Y1483159I-16662J3222D01*
X1848222Y1479937I16971J0*
G01X1846700Y1487497D02*
Y1484492D01*
X1847913Y1483278*
X1847913D02*
Y1475909D01*
X1852748Y1490695D02*
G03X1853034Y1490012I979J10D01*
G01X1853034D02*
G03X1852352Y1490299I-691J-692D01*
G01X1854691Y1479937D02*
G03X1855000Y1483159I-16662J3222D01*
X1855308Y1479937I16971J0*
G01X1852257Y1490790D02*
X1855000Y1488047D01*
Y1475909*
X1835633Y1487402D02*
G03X1835920Y1486719I980J10D01*
G01X1835920D02*
G03X1835237Y1487006I-692J-692D01*
G01X1835142Y1487497D02*
X1840826Y1481813D01*
X1840826D02*
Y1475909D01*
X1874506Y1497756D02*
G03X1874793Y1497073I980J10D01*
G01X1874793D02*
G03X1874110Y1497360I-692J-692D01*
G01X1876667Y1488318D02*
G03X1877333Y1487993I732J652D01*
G01X1876915Y1487620D02*
G03X1876667Y1488318I-978J46D01*
G01X1874015Y1497851D02*
X1876000Y1495866D01*
X1876000D02*
Y1489067D01*
X1877400Y1487497*
X1872440Y1502397D02*
X1873712D01*
X1873712D02*
Y1497851D01*
X1873712D02*
X1874015D01*
X1879848Y1502397D02*
G03X1878830Y1501695I0J-1087D01*
G01Y1503100D02*
G03X1879848Y1502397I1018J385D01*
G01X1879848D02*
X1878830D01*
X1885122Y1498875D02*
G03X1885805Y1498588I693J693D01*
G01X1885409Y1498192D02*
G03X1885122Y1498875I-979J-9D01*
G01X1877559Y1502397D02*
X1881600D01*
X1881600D02*
X1885900Y1498097D01*
X1918028Y1488326D02*
Y1485811D01*
X1918028D02*
X1921141Y1482698D01*
X1921141D02*
Y1475909D01*
X1918028Y1488326D02*
X1920657Y1490955D01*
X1920657D02*
X1920715Y1490897D01*
X1954622Y1506672D02*
Y1501956D01*
X1954622D02*
X1955500D01*
X1954622Y1506672D02*
X1954682D01*
X1913028Y1490056D02*
Y1487747D01*
X1913028D02*
X1913028D01*
X1913028D02*
Y1484064D01*
X1913028D02*
X1914055Y1483037D01*
X1914055D02*
Y1475909D01*
X1913028Y1490056D02*
X1913384D01*
X1936478Y1488718D02*
X1938671Y1490911D01*
X1938671D02*
X1940328D01*
X1940328D02*
X1941500Y1489740D01*
Y1483098*
X1942401Y1482196*
X1942401D02*
Y1475909D01*
X1936478Y1488718D02*
X1936500Y1488697D01*
X1946691Y1552905D02*
G03X1946981Y1552223I980J14D01*
G01X1946981D02*
G03X1946297Y1552507I-688J-695D01*
G01X1947353Y1551855D02*
G03X1948015Y1551581I667J675D01*
G01X1947634Y1551195D02*
G03X1947353Y1551855I-948J-13D01*
G01X1946200Y1552997D02*
X1948110Y1551106D01*
X1942036Y1518178D02*
G03X1942741Y1518405I74J977D01*
G01X1942741D02*
G03X1942397Y1517750I631J-748D01*
G01X1943358Y1518924D02*
G03X1943691Y1519559I-610J726D01*
G01X1944040Y1519144D02*
G03X1943358Y1518924I-71J-945D01*
G01X1941900Y1517697D02*
X1944173Y1519610D01*
X1954506Y1549042D02*
G03X1954793Y1548359I980J10D01*
G01X1954793D02*
G03X1954110Y1548646I-692J-691D01*
G01X1955230Y1547922D02*
G03X1955892Y1547644I671J671D01*
G01X1955508Y1547261D02*
G03X1955230Y1547922I-948J-9D01*
G01X1954015Y1549137D02*
X1955984Y1547169D01*
X1954506Y1545105D02*
G03X1954793Y1544422I980J10D01*
G01X1954793D02*
G03X1954110Y1544709I-692J-691D01*
G01X1955230Y1543985D02*
G03X1955892Y1543707I671J671D01*
G01X1955508Y1543324D02*
G03X1955230Y1543985I-948J-9D01*
G01X1954015Y1545200D02*
X1955984Y1543232D01*
X1944779Y1487069D02*
G03X1944500Y1486384I700J-684D01*
X1944220Y1487069I-979J0*
G01X1944500Y1487484D02*
Y1484859D01*
X1944500D02*
X1947125Y1482233D01*
X1947125D02*
Y1475909D01*
X1963779Y1487018D02*
G03X1963500Y1486332I700J-685D01*
G01X1963499D02*
G03X1963220Y1487018I-978J0D01*
G01X1963500Y1487432D02*
Y1483058D01*
X1963500D02*
X1963661Y1482897D01*
Y1475909*
X1951090Y1487402D02*
G03X1951377Y1486719I980J10D01*
G01X1951377D02*
G03X1950694Y1487006I-692J-692D01*
G01X1953903Y1479937D02*
G03X1954212Y1483159I-16661J3222D01*
G01X1954212D02*
G03X1954521Y1479937I16972J0D01*
G01X1950599Y1487497D02*
X1954212Y1483884D01*
X1954212D02*
Y1475909D01*
X1958047Y1529943D02*
G03X1958730Y1530230I-9J980D01*
G01X1958730D02*
G03X1958443Y1529547I693J-692D01*
G01X1959167Y1530667D02*
G03X1959445Y1531329I-670J671D01*
G01X1959829Y1530945D02*
G03X1959167Y1530667I9J-948D01*
G01X1957952Y1529452D02*
X1959921Y1531421D01*
X1954110Y1533880D02*
G03X1954793Y1534167I-9J980D01*
G01X1954793D02*
G03X1954506Y1533484I693J-692D01*
G01X1955230Y1534604D02*
G03X1955508Y1535266I-670J671D01*
G01X1955892Y1534882D02*
G03X1955230Y1534604I9J-948D01*
G01X1954015Y1533389D02*
X1955984Y1535358D01*
X1954095Y1537691D02*
G03X1954768Y1537999I-40J979D01*
G01X1954768D02*
G03X1954503Y1537308I714J-669D01*
G01X1955255Y1538518D02*
G03X1955511Y1539188I-691J649D01*
G01X1955907Y1538817D02*
G03X1955255Y1538518I40J-947D01*
G01X1954015Y1537197D02*
X1955984Y1539295D01*
X1961984Y1529943D02*
G03X1962667Y1530230I-9J980D01*
G01X1962667D02*
G03X1962380Y1529547I693J-692D01*
G01X1963104Y1530667D02*
G03X1963382Y1531329I-670J671D01*
G01X1963766Y1530945D02*
G03X1963104Y1530667I9J-948D01*
G01X1961889Y1529452D02*
X1963858Y1531421D01*
X1909744Y1504277D02*
G03X1910430Y1503997I686J700D01*
G01X1910430D02*
G03X1909744Y1503717I0J-979D01*
G01X1909330Y1503997D02*
X1913126D01*
X1913126D02*
X1913226Y1503897D01*
X1913226D02*
X1925105D01*
X1925105D02*
X1925761Y1504553D01*
X1925761D02*
X1929891D01*
X1932047Y1502397*
X1932047D02*
X1932440D01*
X1921129Y1491177D02*
G03X1921815Y1490897I686J700D01*
G01X1921815D02*
G03X1921129Y1490617I0J-979D01*
G01X1927919Y1479937D02*
G03X1928228Y1483159I-16662J3222D01*
X1928537Y1479937I16971J0*
G01X1920715Y1490897D02*
X1923685D01*
X1923685D02*
X1925418Y1489165D01*
Y1486103*
X1925418D02*
X1928228Y1483293D01*
Y1475909*
X1905362Y1499893D02*
G03X1906024Y1500224I-73J977D01*
G01X1906024D02*
G03X1905783Y1499524I737J-644D01*
G01X1908605Y1503170D02*
G03X1908847Y1503870I-736J646D01*
G01X1909268Y1503501D02*
G03X1908605Y1503170I74J-976D01*
G01X1905300Y1499397D02*
X1909330Y1503997D01*
X1929312Y1488460D02*
G03X1929032Y1487774I700J-685D01*
G01X1929032D02*
G03X1928752Y1488460I-978J0D01*
G01X1929032Y1488874D02*
Y1486774D01*
X1929032D02*
X1931651Y1484155D01*
X1931651D02*
X1932696D01*
X1932696D02*
X1935314Y1481537D01*
X1935314D02*
Y1475909D01*
X1929447Y1489154D02*
G03X1930132Y1488874I685J700D01*
G01X1930132D02*
G03X1929447Y1488594I0J-979D01*
G01X1935460Y1489056D02*
G03X1936199Y1489097I319J926D01*
G01X1936017Y1488568D02*
G03X1935460Y1489056I-876J-437D01*
G01X1929032Y1488874D02*
X1932156D01*
X1932156D02*
X1932704Y1489422D01*
X1932704D02*
X1934400D01*
X1936500Y1488697*
X1897636Y1496097D02*
X1900236Y1493497D01*
Y1489097*
X1958441Y1545190D02*
G03X1958711Y1544501I979J-12D01*
G01X1958711D02*
G03X1958035Y1544804I-708J-675D01*
G01X1959186Y1544003D02*
G03X1959840Y1543709I687J655D01*
G01X1959448Y1543335D02*
G03X1959186Y1544003I-948J13D01*
G01X1957952Y1545297D02*
X1959921Y1543232D01*
X1958047Y1537817D02*
G03X1958730Y1538104I-9J980D01*
G01X1958730D02*
G03X1958443Y1537421I693J-692D01*
G01X1959167Y1538541D02*
G03X1959445Y1539203I-670J671D01*
G01X1959829Y1538819D02*
G03X1959167Y1538541I9J-948D01*
G01X1957952Y1537326D02*
X1959921Y1539295D01*
X1912069Y1521005D02*
Y1520614D01*
X1912069D02*
X1915440D01*
X1915440D02*
Y1520397D01*
X1961984Y1537817D02*
G03X1962667Y1538104I-9J980D01*
G01X1962667D02*
G03X1962380Y1537421I693J-692D01*
G01X1963104Y1538541D02*
G03X1963382Y1539203I-670J671D01*
G01X1963766Y1538819D02*
G03X1963104Y1538541I9J-948D01*
G01X1961889Y1537326D02*
X1963858Y1539295D01*
X1962328Y1545158D02*
G03X1962615Y1544475I980J10D01*
X1961932Y1544762I-692J-692*
G01X1963104Y1543985D02*
G03X1963766Y1543707I671J671D01*
G01X1963382Y1543324D02*
G03X1963104Y1543985I-948J-9D01*
G01X1961837Y1545253D02*
X1963858Y1543232D01*
X1912069Y1537297D02*
Y1537040D01*
X1912069D02*
X1915440D01*
X1915440D02*
Y1536897D01*
X1958047Y1533880D02*
G03X1958730Y1534167I-9J980D01*
G01X1958730D02*
G03X1958443Y1533484I693J-692D01*
G01X1959167Y1534604D02*
G03X1959445Y1535266I-670J671D01*
G01X1959829Y1534882D02*
G03X1959167Y1534604I9J-948D01*
G01X1957952Y1533389D02*
X1959921Y1535358D01*
X1954110Y1529943D02*
G03X1954793Y1530230I-9J980D01*
G01X1954793D02*
G03X1954506Y1529547I693J-692D01*
G01X1955230Y1530667D02*
G03X1955508Y1531329I-670J671D01*
G01X1955892Y1530945D02*
G03X1955230Y1530667I9J-948D01*
G01X1954015Y1529452D02*
X1955984Y1531421D01*
X1961984Y1533880D02*
G03X1962667Y1534167I-9J980D01*
G01X1962667D02*
G03X1962380Y1533484I693J-692D01*
G01X1963104Y1534604D02*
G03X1963382Y1535266I-670J671D01*
G01X1963766Y1534882D02*
G03X1963104Y1534604I9J-948D01*
G01X1961889Y1533389D02*
X1963858Y1535358D01*
X1913520Y1556708D02*
G03X1913575Y1555969I932J-301D01*
G01X1913575D02*
G03X1913019Y1556459I-876J-435D01*
G01X1913085Y1556954D02*
X1914169Y1554775D01*
X1914169D02*
X1914605Y1553897D01*
X1914605D02*
X1915440D01*
X1913158Y1548409D02*
G03X1913386Y1547705I977J-72D01*
X1912730Y1548049I-749J-631*
G01X1912677Y1548546D02*
X1914909Y1545897D01*
X1914909D02*
X1915440D01*
X1958443Y1549042D02*
G03X1958730Y1548359I980J10D01*
G01X1958730D02*
G03X1958047Y1548646I-692J-691D01*
G01X1959167Y1547922D02*
G03X1959829Y1547644I671J671D01*
G01X1959445Y1547261D02*
G03X1959167Y1547922I-948J-9D01*
G01X1957952Y1549137D02*
X1959921Y1547169D01*
X1962380Y1549042D02*
G03X1962667Y1548359I980J10D01*
G01X1962667D02*
G03X1961984Y1548646I-692J-691D01*
G01X1963104Y1547922D02*
G03X1963766Y1547644I671J671D01*
G01X1963382Y1547261D02*
G03X1963104Y1547922I-948J-9D01*
G01X1961889Y1549137D02*
X1963858Y1547169D01*
X1967795Y1531421D02*
Y1531389D01*
X1967795D02*
X1971732D01*
X1971732D02*
Y1531421D01*
X1968270Y1535266D02*
G03X1968548Y1534604I949J9D01*
G01X1968548D02*
G03X1967887Y1534882I-670J-670D01*
G01X1968985Y1534167D02*
G03X1969668Y1533880I693J693D01*
G01X1969272Y1533484D02*
G03X1968985Y1534167I-978J-9D01*
G01X1967795Y1535358D02*
X1969763Y1533389D01*
X1968270Y1539203D02*
G03X1968548Y1538541I949J9D01*
G01X1968548D02*
G03X1967887Y1538819I-670J-670D01*
G01X1968985Y1538104D02*
G03X1969668Y1537817I693J693D01*
G01X1969272Y1537421D02*
G03X1968985Y1538104I-978J-9D01*
G01X1967795Y1539295D02*
X1969763Y1537326D01*
X1967875Y1543709D02*
G03X1968530Y1544003I-31J949D01*
X1968268Y1543335I687J-654*
G01X1969004Y1544501D02*
G03X1969275Y1545190I-708J676D01*
G01X1969680Y1544804D02*
G03X1969004Y1544501I34J-978D01*
G01X1967795Y1543232D02*
X1969763Y1545297D01*
X1967868Y1547647D02*
G03X1968518Y1547951I-45J948D01*
G01X1968518D02*
G03X1968266Y1547279I697J-643D01*
G01X1969016Y1548490D02*
G03X1969276Y1549183I-718J665D01*
G01X1969687Y1548803D02*
G03X1969016Y1548490I49J-978D01*
G01X1967795Y1547169D02*
X1969763Y1549297D01*
X1967887Y1551581D02*
G03X1968548Y1551859I-9J949D01*
G01X1968548D02*
G03X1968270Y1551198I671J-670D01*
G01X1968985Y1552296D02*
G03X1969272Y1552979I-691J693D01*
G01X1969668Y1552583D02*
G03X1968985Y1552296I10J-978D01*
G01X1967795Y1551106D02*
X1969763Y1553074D01*
X1963858Y1551106D02*
Y1550797D01*
X1963858D02*
X1967795D01*
X1967795D02*
Y1551106D01*
X1959921D02*
Y1551137D01*
X1959921D02*
X1963858D01*
X1963858D02*
Y1551106D01*
X1956459Y1551014D02*
G03X1956737Y1550352I949J9D01*
G01X1956737D02*
G03X1956076Y1550630I-670J-670D01*
G01X1957174Y1549915D02*
G03X1957857Y1549628I693J693D01*
G01X1957461Y1549232D02*
G03X1957174Y1549915I-978J-9D01*
G01X1955984Y1551106D02*
X1957952Y1549137D01*
X1922905Y1538169D02*
G03X1923453Y1538668I-335J920D01*
G01X1923646Y1538142D02*
G03X1922905Y1538169I-403J-892D01*
G01X1920559Y1536897D02*
Y1537775D01*
X1920559D02*
X1921830D01*
X1921830D02*
X1923938Y1538547D01*
X1923000Y1547399D02*
G03X1923474Y1547968I-460J864D01*
G01X1923737Y1547474D02*
G03X1923000Y1547399I-275J-939D01*
G01X1920559Y1545897D02*
Y1546775D01*
X1920559D02*
X1921830D01*
X1921830D02*
X1923971Y1547916D01*
X1953604Y1496838D02*
G03X1954622Y1497489I0J1120D01*
G01Y1496187D02*
G03X1953604Y1496838I-1017J-468D01*
G01X1953604D02*
X1954622D01*
X1932440Y1502397D02*
X1932834D01*
X1932834D02*
X1935212Y1504775D01*
X1935212D02*
X1943137D01*
X1943137D02*
X1946743Y1501169D01*
X1946743D02*
X1950309D01*
X1952849Y1498629*
Y1497011*
X1953022Y1496838*
X1953022D02*
X1955500D01*
X1939915Y1499101D02*
G03X1940451Y1498590I894J401D01*
G01X1939940Y1498361D02*
G03X1939915Y1499101I-918J339D01*
G01X1937559Y1502397D02*
X1938437D01*
X1938437D02*
X1938830Y1501519D01*
X1938830D02*
X1940365Y1498097D01*
X1922848Y1520397D02*
G03X1921830Y1519695I0J-1087D01*
G01Y1521100D02*
G03X1922848Y1520397I1018J385D01*
G01X1922848D02*
X1921830D01*
X1928700D02*
G03X1929385Y1520677I0J980D01*
G01Y1520117D02*
G03X1928700Y1520397I-685J-699D01*
G01X1920559D02*
X1929800D01*
X1922706Y1552178D02*
G03X1923395Y1551905I679J707D01*
G01X1923007Y1551501D02*
G03X1922706Y1552178I-979J-29D01*
G01X1920559Y1553897D02*
X1920916D01*
X1920916D02*
X1923500Y1551416D01*
X2050852Y1529895D02*
G03X2051244Y1529730I398J399D01*
G01X2051017Y1529503D02*
G03X2050852Y1529895I-563J-5D01*
G01X2051299Y1529448D02*
X2048298Y1532449D01*
X2048298D02*
X2050894Y1535046D01*
X2051042Y1534897*
X1984375Y1493430D02*
G03X1984662Y1494112I-692J692D01*
G01X1985058Y1493716D02*
G03X1984375Y1493430I10J-978D01*
G01X1983668Y1490420D02*
Y1492722D01*
X1983668D02*
X1985153Y1494207D01*
X1983668Y1490420D02*
X1984231Y1489857D01*
X1996444Y1496708D02*
G03X1996731Y1497391I-692J693D01*
G01X1997127Y1496995D02*
G03X1996444Y1496708I10J-978D01*
G01X1992519Y1490411D02*
Y1492321D01*
X1992519D02*
X1995166Y1494968D01*
X1995166D02*
Y1495431D01*
X1995166D02*
X1997222Y1497486D01*
X1992519Y1490411D02*
X1994400Y1488530D01*
X2028804Y1551943D02*
G03X2029197Y1551778I399J398D01*
G01X2028969Y1551550D02*
G03X2028804Y1551943I-562J-5D01*
G01X2027917Y1557397D02*
Y1552830D01*
X2027917D02*
X2029251Y1551496D01*
X2027917Y1557397D02*
X2028000D01*
X2032562Y1526061D02*
G03X2032401Y1525666I402J-394D01*
G01X2032401D02*
G03X2032240Y1526061I-562J0D01*
G01X2019897Y1524007D02*
X2021997Y1524822D01*
X2021997D02*
X2024446D01*
X2024446D02*
X2025992Y1523276D01*
X2025992D02*
X2030171D01*
X2032401Y1525506*
X2032401D02*
Y1526299D01*
X2019897Y1524007D02*
X2019901Y1523996D01*
X2047702Y1548793D02*
G03X2048095Y1548628I398J398D01*
G01X2047867Y1548401D02*
G03X2047702Y1548793I-562J-5D01*
G01X2046574Y1549921D02*
X2048149Y1548346D01*
X2005933Y1557948D02*
G03X2005982Y1557208I929J-309D01*
G01X2005982D02*
G03X2005430Y1557702I-880J-428D01*
G01X2005500Y1558197D02*
X2007169Y1554775D01*
X2007169D02*
X2007597Y1553897D01*
X2007597D02*
X2008440D01*
X2004882Y1545197D02*
Y1545647D01*
X2004882D02*
X2008440D01*
X2008440D02*
Y1545897D01*
X1974616Y1489730D02*
X1974731D01*
X1985153Y1494207D02*
X1985345Y1494400D01*
X1986859Y1492886*
X1986859*
X1988264Y1491480*
X1988264D02*
Y1489942D01*
X1988264D02*
X1989400Y1488807D01*
Y1483273*
X1989400D02*
X1989645Y1483028D01*
X1989645D02*
Y1475909D01*
X2005069Y1535621D02*
Y1536019D01*
X2005069D02*
X2008440D01*
X2008440D02*
Y1536897D01*
X2036100Y1521997D02*
G03X2036379Y1521311I979J0D01*
G01X2035820D02*
G03X2036099Y1521997I-699J686D01*
G01X2038861Y1526061D02*
G03X2038700Y1525666I402J-394D01*
G01X2038700D02*
G03X2038539Y1526061I-562J0D01*
G01X2036100Y1520897D02*
Y1522906D01*
X2038700Y1525506*
X2038700D02*
Y1526299D01*
X2036566Y1520718D02*
G03X2036730Y1519996I967J-159D01*
G01X2036730D02*
G03X2036108Y1520397I-801J-561D01*
G01X2036100Y1520897D02*
X2037500Y1518897D01*
X2037500D02*
Y1517497D01*
X2037500D02*
X2038500D01*
X2048000Y1556997D02*
G03X2048279Y1556311I979J0D01*
G01X2047720D02*
G03X2047999Y1556997I-699J686D01*
G01Y1557549D02*
G03X2047297Y1558566I-1086J0D01*
G01X2048702D02*
G03X2048000Y1557549I385J-1016D01*
G01X2048000D02*
Y1558566D01*
Y1555897D02*
Y1559838D01*
X2028000Y1558497D02*
G03X2028279Y1557811I979J0D01*
G01X2027720D02*
G03X2027999Y1558497I-699J686D01*
G01X2028000Y1558277D02*
G03X2027200Y1559397I-1184J0D01*
G01X2028800D02*
G03X2028000Y1558277I384J-1119D01*
G01X2028000D02*
Y1559397D01*
Y1557397D02*
Y1560797D01*
X1972394Y1507582D02*
G03X1972681Y1506899I980J10D01*
X1971998Y1507186I-692J-692*
G01X1974500Y1504245D02*
G03X1975202Y1503228I1087J0D01*
G01X1973797D02*
G03X1974499Y1504245I-384J1017D01*
G01X1974500D02*
Y1503228D01*
X1971903Y1507677D02*
X1974500Y1505080D01*
X1974500D02*
Y1501956D01*
X1975202Y1495566D02*
G03X1974500Y1494549I385J-1016D01*
G01X1974499D02*
G03X1973797Y1495566I-1086J0D01*
G01X1974500Y1494549D02*
Y1495566D01*
X1972851Y1492914D02*
X1973448D01*
X1973448D02*
X1974500Y1493966D01*
X1974500D02*
Y1496838D01*
X1997222Y1498586D02*
G03X1997502Y1497901I979J0D01*
G01X1996942D02*
G03X1997222Y1498586I-699J685D01*
G01Y1497486D02*
Y1502397D01*
X1997222D02*
X1997559D01*
X2045680Y1542991D02*
G03X2046355Y1543297I-36J979D01*
X2046087Y1542606I712J-672*
G01X2047715Y1544737D02*
G03X2047869Y1545134I-408J386D01*
G01X2048103Y1544913D02*
G03X2047715Y1544737I21J-562D01*
G01X2045600Y1542497D02*
X2048149Y1545196D01*
X2022407Y1479937D02*
G03X2022716Y1483159I-16661J3222D01*
G01X2022716D02*
G03X2023025Y1479937I16971J0D01*
G01X2020457Y1490576D02*
X2020488D01*
X2020488D02*
Y1485792D01*
X2020488D02*
X2022716Y1483565D01*
X2022716D02*
Y1475909D01*
X2027107Y1487006D02*
G03X2026827Y1486320I700J-685D01*
G01X2026827D02*
G03X2026547Y1487006I-979J0D01*
G01X2027132Y1479937D02*
G03X2027440Y1483159I-16662J3222D01*
G01X2027440D02*
G03X2027749Y1479937I16972J0D01*
G01X2026827Y1487420D02*
Y1484178D01*
X2026827D02*
X2027440Y1483565D01*
X2027440D02*
Y1475909D01*
X2015266Y1491383D02*
G03X2014986Y1490697I700J-685D01*
G01X2014986D02*
G03X2014706Y1491383I-979J0D01*
G01X2015321Y1479937D02*
G03X2015629Y1483159I-16662J3222D01*
G01X2015629D02*
G03X2015938Y1479937I16972J0D01*
G01X2014986Y1491797D02*
Y1484595D01*
X2014986D02*
X2015629Y1483951D01*
X2015629D02*
Y1475909D01*
X2035764Y1510864D02*
G03X2036450Y1510584I686J700D01*
G01X2036450D02*
G03X2035764Y1510304I0J-979D01*
G01X2035350Y1510584D02*
X2038500D01*
Y1511297*
X1974191Y1533294D02*
G03X1974478Y1532611I980J10D01*
G01X1974478D02*
G03X1973795Y1532898I-692J-691D01*
G01X1974915Y1532174D02*
G03X1975577Y1531896I671J671D01*
G01X1975193Y1531513D02*
G03X1974915Y1532174I-948J-9D01*
G01X1973700Y1533389D02*
X1975669Y1531421D01*
X2045914Y1512618D02*
G03X2046600Y1512338I686J700D01*
G01X2046600D02*
G03X2045914Y1512058I0J-979D01*
G01X2046104Y1512338D02*
G03X2047122Y1512989I0J1120D01*
G01Y1511687D02*
G03X2046104Y1512338I-1017J-468D01*
G01X2046104D02*
X2047122D01*
X2045500D02*
X2048000D01*
X2012600Y1542347D02*
X2013009D01*
X2013009D02*
Y1545897D01*
X2013009D02*
X2013559D01*
X2017194Y1556788D02*
G03X2017877Y1557075I-9J980D01*
G01X2017877D02*
G03X2017590Y1556392I693J-692D01*
G01X2034499Y1560080D02*
G03X2033380Y1560797I-1119J-515D01*
G01X2033380D02*
G03X2034499Y1561514I0J1234D01*
G01X2033380Y1560797D02*
X2034500D01*
X2017100Y1556297D02*
X2024500Y1563697D01*
X2024500D02*
X2029957D01*
X2029957D02*
X2032857Y1560797D01*
X2032857D02*
X2035500D01*
X2035593Y1551780D02*
G03X2035978Y1551962I-30J562D01*
X2035830Y1551563I415J-379*
G01X2036457Y1552486D02*
G03X2036713Y1553181I-722J661D01*
G01X2037126Y1552803D02*
G03X2036457Y1552486I54J-978D01*
G01X2035551Y1551496D02*
X2037200Y1553297D01*
X2048343Y1526086D02*
G03X2048240Y1525673I455J-331D01*
G01X2048240D02*
G03X2048024Y1526040I-556J-80D01*
G01X2048341Y1524986D02*
G03X2048717Y1524348I969J141D01*
G01X2048163Y1524267D02*
G03X2048341Y1524986I-791J577D01*
G01X2048149Y1526299D02*
X2048500Y1523897D01*
X2048149Y1532598D02*
X2048298Y1532449D01*
X2048204Y1545479D02*
G03X2048596Y1545643I-5J563D01*
G01X2048596D02*
G03X2048431Y1545251I398J-397D01*
G01X2050852Y1547899D02*
G03X2051017Y1548291I-398J398D01*
G01X2051244Y1548064D02*
G03X2050852Y1547899I6J-562D01*
G01X2048149Y1545196D02*
X2051299Y1548346D01*
X2048164Y1551783D02*
G03X2048530Y1552000I-82J557D01*
G01X2048530D02*
G03X2048421Y1551589I450J-338D01*
G01X2048825Y1552390D02*
G03X2049015Y1553105I-781J590D01*
G01X2049461Y1552768D02*
G03X2048825Y1552390I145J-968D01*
G01X2048149Y1551496D02*
X2049488Y1553267D01*
X2015318Y1553297D02*
X2016646Y1552944D01*
X2015500Y1553297*
X2015500D02*
X2016646Y1553651D01*
X2015318Y1553297*
X2015694Y1553397D02*
X2015824D01*
X2016000Y1553116D02*
Y1553143D01*
Y1553451D02*
Y1553479D01*
X1972207Y1531329D02*
G03X1972485Y1530667I949J9D01*
G01X1972485D02*
G03X1971824Y1530945I-670J-670D01*
G01X1972922Y1530230D02*
G03X1973605Y1529943I693J693D01*
G01X1973209Y1529547D02*
G03X1972922Y1530230I-978J-9D01*
G01X1971732Y1531421D02*
X1973700Y1529452D01*
X1984022Y1535287D02*
G03X1984330Y1534639I947J53D01*
G01X1984330D02*
G03X1983656Y1534887I-639J-699D01*
G01X1984987Y1534039D02*
G03X1985682Y1533783I661J723D01*
G01X1985305Y1533370D02*
G03X1984987Y1534039I-977J-54D01*
G01X1983543Y1535358D02*
X1985800Y1533297D01*
X1976144Y1535266D02*
G03X1976422Y1534604I949J9D01*
G01X1976422D02*
G03X1975761Y1534882I-670J-670D01*
G01X1976859Y1534167D02*
G03X1977542Y1533880I693J693D01*
G01X1977146Y1533484D02*
G03X1976859Y1534167I-978J-9D01*
G01X1975669Y1535358D02*
X1977637Y1533389D01*
X1972207Y1535266D02*
G03X1972485Y1534604I949J9D01*
G01X1972485D02*
G03X1971824Y1534882I-670J-670D01*
G01X1972922Y1534167D02*
G03X1973605Y1533880I693J693D01*
G01X1973209Y1533484D02*
G03X1972922Y1534167I-978J-9D01*
G01X1971732Y1535358D02*
X1973700Y1533389D01*
X1976144Y1539203D02*
G03X1976422Y1538541I949J9D01*
G01X1976422D02*
G03X1975761Y1538819I-670J-670D01*
G01X1976859Y1538104D02*
G03X1977542Y1537817I693J693D01*
G01X1977146Y1537421D02*
G03X1976859Y1538104I-978J-9D01*
G01X1975669Y1539295D02*
X1977637Y1537326D01*
X1972207Y1539203D02*
G03X1972485Y1538541I949J9D01*
G01X1972485D02*
G03X1971824Y1538819I-670J-670D01*
G01X1973026Y1538001D02*
G03X1973709Y1537714I693J693D01*
G01X1973313Y1537318D02*
G03X1973026Y1538001I-979J-9D01*
G01X1971732Y1539295D02*
X1973804Y1537223D01*
X1975749Y1543709D02*
G03X1976403Y1544004I-33J949D01*
G01X1976403D02*
G03X1976142Y1543336I688J-653D01*
G01X1976880Y1544506D02*
G03X1977149Y1545196I-710J675D01*
G01X1977555Y1544810D02*
G03X1976880Y1544506I35J-978D01*
G01X1975669Y1543232D02*
X1977637Y1545303D01*
X1971824Y1543707D02*
G03X1972485Y1543985I-9J949D01*
G01X1972485D02*
G03X1972207Y1543324I671J-670D01*
G01X1973025Y1544525D02*
G03X1973312Y1545208I-691J693D01*
G01X1973708Y1544812D02*
G03X1973025Y1544525I10J-978D01*
G01X1971732Y1543232D02*
X1973803Y1545303D01*
X1971804Y1547648D02*
G03X1972454Y1547952I-47J947D01*
G01X1972454D02*
G03X1972203Y1547280I698J-642D01*
G01X1972955Y1548495D02*
G03X1973214Y1549188I-720J664D01*
G01X1973625Y1548809D02*
G03X1972955Y1548495I50J-978D01*
G01X1971732Y1547169D02*
X1973700Y1549303D01*
X1975761Y1551581D02*
G03X1976422Y1551859I-9J949D01*
G01X1976422D02*
G03X1976144Y1551198I671J-670D01*
G01X1976859Y1552296D02*
G03X1977146Y1552979I-691J693D01*
G01X1977542Y1552583D02*
G03X1976859Y1552296I10J-978D01*
G01X1975669Y1551106D02*
X1977637Y1553074D01*
X1971824Y1551581D02*
G03X1972485Y1551859I-9J949D01*
G01X1972485D02*
G03X1972207Y1551198I671J-670D01*
G01X1972922Y1552296D02*
G03X1973209Y1552979I-691J693D01*
G01X1973605Y1552583D02*
G03X1972922Y1552296I10J-978D01*
G01X1971732Y1551106D02*
X1973700Y1553074D01*
X1979683Y1559458D02*
G03X1980335Y1559757I-39J948D01*
X1980078Y1559087I692J-649*
G01X1980747Y1560195D02*
G03X1981012Y1560887I-714J671D01*
G01X1981420Y1560503D02*
G03X1980747Y1560195I41J-977D01*
G01X1979606Y1558980D02*
X1981500Y1560997D01*
X2016313Y1535598D02*
G03X2017049Y1535680I268J942D01*
G01X2016896Y1535141D02*
G03X2016313Y1535598I-850J-485D01*
G01X2013559Y1536897D02*
Y1536019D01*
X2013559D02*
X2014830D01*
X2014830D02*
X2017371Y1535297D01*
X1992440Y1500502D02*
G03X1991789Y1501519I-1119J0D01*
G01X1993092D02*
G03X1992440Y1500502I469J-1016D01*
G01X1992440D02*
Y1501519D01*
X1992596Y1496373D02*
G03X1992876Y1495688I979J0D01*
G01X1992316D02*
G03X1992596Y1496373I-699J685D01*
G01X1992440Y1502397D02*
Y1498724D01*
X1992440D02*
X1992596Y1498569D01*
Y1495273*
X2041499Y1557549D02*
G03X2040797Y1558566I-1086J0D01*
G01X2042202D02*
G03X2041500Y1557549I385J-1016D01*
G01X2041500D02*
Y1558566D01*
Y1559838D02*
Y1556966D01*
X2041500D02*
X2043347Y1555119D01*
X2043347D02*
X2044525D01*
X2044525D02*
X2046574Y1553070D01*
X2013559Y1553897D02*
Y1553683D01*
X2013818*
X2013818D02*
Y1553297D01*
X2013818D02*
X2017000D01*
X2049895Y1559838D02*
G03X2048877Y1559187I0J-1119D01*
G01Y1560489D02*
G03X2049895Y1559838I1018J469D01*
G01X2049895D02*
X2048877D01*
X2049877D02*
G03X2050563Y1560118I0J980D01*
G01Y1559558D02*
G03X2049877Y1559838I-685J-699D01*
G01X2048000D02*
X2050977D01*
X2048000Y1517456D02*
X2048107D01*
X2048107D02*
Y1521197D01*
X2048107D02*
X2048300D01*
X2054179Y1489769D02*
G03X2054466Y1490452I-692J693D01*
G01X2054862Y1490056D02*
G03X2054179Y1489769I10J-979D01*
G01X2053164Y1484233D02*
Y1488754D01*
X2054957Y1490547*
X2053116Y1479937D02*
G03X2053425Y1483159I-16662J3222D01*
X2053733Y1479937I16971J0*
G01X2053164Y1484233D02*
X2053425Y1483972D01*
X2053425D02*
Y1475909D01*
X2070914Y1542277D02*
G03X2071600Y1541997I686J700D01*
G01X2071600D02*
G03X2070914Y1541717I0J-979D01*
G01X2073999Y1541280D02*
G03X2072880Y1541997I-1119J-515D01*
G01X2072880D02*
G03X2073999Y1542714I0J1234D01*
G01X2072880Y1541997D02*
X2074000D01*
X2070500D02*
X2075000D01*
X2055984Y1507397D02*
X2056476D01*
X2056476D02*
Y1505297D01*
X2056476D02*
X2056898Y1504875D01*
X2056898D02*
Y1502397D01*
X2056898D02*
X2057559D01*
X2070914Y1536077D02*
G03X2071600Y1535797I686J700D01*
G01X2071600D02*
G03X2070914Y1535517I0J-979D01*
G01X2073999Y1535080D02*
G03X2072880Y1535797I-1119J-515D01*
G01X2072880D02*
G03X2073999Y1536514I0J1234D01*
G01X2072880Y1535797D02*
X2074000D01*
X2070500D02*
X2075000D01*
X2054728Y1526232D02*
G03X2054876Y1525833I563J-18D01*
X2054491Y1526014I-415J-380*
G01X2055356Y1525308D02*
G03X2056026Y1524992I723J662D01*
G01X2055613Y1524613D02*
G03X2055356Y1525308I-978J33D01*
G01X2054448Y1526299D02*
X2056100Y1524497D01*
X2054467Y1532885D02*
G03X2054836Y1533097I-75J558D01*
G01X2054836D02*
G03X2054721Y1532687I445J-344D01*
G01X2055325Y1533728D02*
G03X2055524Y1534441I-773J601D01*
G01X2055967Y1534098D02*
G03X2055325Y1533728I132J-970D01*
G01X2054448Y1532598D02*
X2056000Y1534597D01*
X2054645Y1544987D02*
G03X2054549Y1544572I460J-324D01*
G01X2054549D02*
G03X2054327Y1544936I-555J-88D01*
G01X2054660Y1543883D02*
G03X2055045Y1543251I967J156D01*
G01X2054493Y1543162D02*
G03X2054660Y1543883I-799J565D01*
G01X2054448Y1545196D02*
X2054835Y1542797D01*
X2054448Y1552128D02*
G03X2054609Y1551734I564J0D01*
G01X2054287D02*
G03X2054448Y1552128I-401J394D01*
G01X2054499Y1557549D02*
G03X2053797Y1558566I-1086J0D01*
G01X2055202D02*
G03X2054500Y1557549I385J-1016D01*
G01X2054500D02*
Y1558566D01*
X2054448Y1551496D02*
Y1555149D01*
X2054448D02*
X2054500Y1555200D01*
X2054500D02*
Y1559838D01*
X2057653Y1529730D02*
G03X2058045Y1529895I-5J564D01*
G01X2058045D02*
G03X2057880Y1529503I398J-397D01*
G01X2060300Y1532151D02*
G03X2060465Y1532543I-397J398D01*
G01X2060693Y1532316D02*
G03X2060300Y1532151I6J-562D01*
G01X2057598Y1529448D02*
X2060748Y1532598D01*
X2057880Y1548291D02*
G03X2058045Y1547899I563J6D01*
G01X2058045D02*
G03X2057653Y1548064I-397J-397D01*
G01X2060300Y1545643D02*
G03X2060693Y1545479I399J399D01*
G01X2060465Y1545251D02*
G03X2060300Y1545643I-562J-5D01*
G01X2057598Y1548346D02*
X2060748Y1545196D01*
X2061030Y1526244D02*
G03X2061195Y1525852I563J6D01*
X2060802Y1526017I-398J-398*
G01X2062121Y1522576D02*
G03X2062401Y1521890I980J0D01*
G01X2061841D02*
G03X2062121Y1522576I-699J686D01*
G01X2060748Y1526299D02*
X2062121Y1524925D01*
X2062121D02*
Y1521476D01*
X2060766Y1532885D02*
G03X2061135Y1533097I-75J558D01*
G01X2061135D02*
G03X2061021Y1532687I445J-344D01*
G01X2061625Y1533728D02*
G03X2061824Y1534442I-773J601D01*
G01X2062267Y1534098D02*
G03X2061625Y1533728I132J-970D01*
G01X2060748Y1532598D02*
X2062300Y1534597D01*
X2060986Y1545357D02*
G03X2061380Y1545197I394J403D01*
X2060986Y1545036I0J-563*
G01X2062100Y1545197D02*
G03X2062785Y1545477I-0J980D01*
G01Y1544917D02*
G03X2062100Y1545197I-685J-700D01*
G01X2060748Y1545196D02*
X2063200Y1545197D01*
X2060838Y1551768D02*
G03X2061249Y1551881I67J559D01*
G01X2061249D02*
G03X2061034Y1551513I343J-445D01*
G01X2061828Y1552326D02*
G03X2062200Y1552966I-597J777D01*
G01X2062542Y1552523D02*
G03X2061828Y1552326I-116J-972D01*
G01X2060748Y1551496D02*
X2062700Y1552997D01*
X2055210Y1498147D02*
G03X2055490Y1497461I980J0D01*
G01X2054930D02*
G03X2055210Y1498147I-699J686D01*
G01X2052440Y1502397D02*
X2052834D01*
X2052834D02*
X2055210Y1500021D01*
X2055210D02*
Y1497047D01*
X2063089Y1511822D02*
G03X2063775Y1512102I0J980D01*
G01Y1511542D02*
G03X2063089Y1511822I-685J-699D01*
G01X2061000Y1511297D02*
Y1511822D01*
X2061000D02*
X2064189D01*
X2061000Y1517497D02*
X2062000D01*
X2062000D02*
Y1521476D01*
X2062121*
X2056395Y1559838D02*
G03X2055377Y1559187I0J-1119D01*
G01Y1560489D02*
G03X2056395Y1559838I1018J469D01*
G01X2056395D02*
X2055377D01*
X2055900D02*
G03X2056585Y1560118I0J980D01*
G01Y1559558D02*
G03X2055900Y1559838I-685J-699D01*
G01X2054500D02*
X2057000D01*
X2055377Y1512989D02*
G03X2056395Y1512338I1018J469D01*
G01X2056395D02*
G03X2055377Y1511687I0J-1119D01*
G01X2056395Y1512338D02*
X2055377D01*
X2056400D02*
G03X2057085Y1512618I0J980D01*
G01Y1512058D02*
G03X2056400Y1512338I-685J-699D01*
G01X2054500D02*
X2057500D01*
X2054500Y1519745D02*
G03X2055202Y1518728I1087J0D01*
G01X2053797D02*
G03X2054499Y1519745I-384J1017D01*
G01X2054500D02*
Y1518728D01*
X2054779Y1521483D02*
G03X2054500Y1520797I700J-685D01*
G01X2054499D02*
G03X2054220Y1521483I-978J0D01*
G01X2054500Y1517456D02*
Y1521897D01*
X1875984Y1575397D02*
X1876476D01*
X1876476D02*
Y1577497D01*
X1876476D02*
X1876898Y1577919D01*
X1876898D02*
Y1580397D01*
X1876898D02*
X1877559D01*
X1874295Y1585483D02*
G03X1874015Y1584797I700J-685D01*
G01X1874015D02*
G03X1873735Y1585483I-979J0D01*
G01X1872440Y1580397D02*
X1873093D01*
X1873093D02*
Y1582875D01*
X1873093D02*
X1874015Y1583797D01*
X1874015D02*
Y1585897D01*
X1918200Y1572597D02*
Y1570751D01*
X1918200D02*
X1920559Y1568392D01*
X1918200Y1572597D02*
Y1573426D01*
X1933313Y1588539*
X1952821*
X1955362Y1585997*
X1955362D02*
X1973918D01*
X1973918D02*
X1974918Y1586997D01*
X1974918D02*
X1980650D01*
X1980650D02*
X1989627Y1578019D01*
X1989627D02*
X1999744D01*
X1999744D02*
X2006615Y1584890D01*
X2008126*
X2017122Y1593885*
X2017122D02*
Y1597547D01*
X1950595Y1560633D02*
G03X1950924Y1559970I978J71D01*
G01X1950924D02*
G03X1950225Y1560213I-647J-734D01*
G01X1951248Y1559684D02*
G03X1951925Y1559449I627J712D01*
G01X1951566Y1559042D02*
G03X1951248Y1559684I-945J-68D01*
G01X1950100Y1560697D02*
X1952047Y1558980D01*
X1936264Y1586125D02*
G03X1935984Y1585439I700J-685D01*
X1935704Y1586125I-979J0*
G01X1935984Y1586539D02*
Y1584439D01*
X1937548Y1582875*
X1937548D02*
Y1580397D01*
X1937548D02*
X1937559D01*
X1913091Y1565177D02*
G03X1913777Y1564897I686J700D01*
G01X1913777D02*
G03X1913091Y1564617I0J-979D01*
G01X1914169Y1564195D02*
G03X1913151Y1564897I-1017J-385D01*
G01X1913151D02*
G03X1914169Y1565600I0J1088D01*
G01X1913151Y1564897D02*
X1914169D01*
X1912677D02*
X1915440D01*
X1970157Y1622983D02*
G03X1969877Y1622297I700J-685D01*
G01X1969877D02*
G03X1969598Y1622983I-978J0D01*
G01X1969877Y1616248D02*
Y1623397D01*
X1922848Y1564897D02*
G03X1921830Y1564195I0J-1087D01*
G01Y1565600D02*
G03X1922848Y1564897I1018J385D01*
G01X1922848D02*
X1921830D01*
X1932700Y1565497D02*
G03X1933385Y1565777I0J980D01*
G01Y1565217D02*
G03X1932700Y1565497I-685J-699D01*
G01X1920559Y1564897D02*
X1927265D01*
X1927265D02*
X1927865Y1565497D01*
X1927865D02*
X1933800D01*
X1920559Y1566792D02*
G03X1921210Y1565775I1120J0D01*
G01X1919907D02*
G03X1920559Y1566792I-468J1017D01*
G01X1920559D02*
Y1565775D01*
Y1564897D02*
Y1568392D01*
X1933015Y1576828D02*
G03X1933295Y1576142I980J0D01*
G01X1932735D02*
G03X1933015Y1576828I-699J686D01*
G01X1932440Y1580397D02*
X1933015D01*
X1933015D02*
Y1575728D01*
X1978719Y1576436D02*
G03X1979301Y1576895I-270J942D01*
G01X1979301D02*
G03X1979206Y1576161I852J-482D01*
G01X1978759Y1575938D02*
X1981284Y1580397D01*
X1981284D02*
X1982059D01*
X2016050Y1623397D02*
X2016515D01*
X2016515D02*
Y1616248D01*
X2017122*
X2025314Y1567164D02*
G03X2026000Y1566884I686J700D01*
G01X2026000D02*
G03X2025314Y1566604I0J-979D01*
G01X2024900Y1566884D02*
X2028000D01*
X2028000D02*
Y1566997D01*
X2047500Y1568397D02*
Y1566028D01*
X2047500D02*
X2047821Y1565707D01*
Y1564956*
X2047821D02*
X2048000D01*
X2039127Y1567737D02*
G03X2039499Y1567096I971J134D01*
G01X2039499D02*
G03X2038785Y1567294I-599J-774D01*
G01X2038628Y1567769D02*
X2041500Y1565549D01*
X2041500D02*
Y1564956D01*
X2032814Y1567164D02*
G03X2033500Y1566884I686J700D01*
G01X2033500D02*
G03X2032814Y1566604I0J-979D01*
G01X2032400Y1566884D02*
X2035500D01*
X2035500D02*
Y1566997D01*
X1997216Y1585797D02*
G03X1996936Y1585111I700J-685D01*
G01X1996936D02*
G03X1996656Y1585797I-979J0D01*
G01X1996936Y1586211D02*
Y1580397D01*
X1996936D02*
X1997559D01*
X1975800Y1584997D02*
X1976286D01*
X1976286D02*
Y1580397D01*
X1976286D02*
X1976940D01*
X1978031Y1622983D02*
G03X1977751Y1622297I700J-685D01*
G01X1977751D02*
G03X1977472Y1622983I-978J0D01*
G01X1977751Y1616248D02*
Y1623397D01*
X1985905Y1622983D02*
G03X1985625Y1622297I700J-685D01*
G01X1985625D02*
G03X1985346Y1622983I-978J0D01*
G01X1985625Y1616248D02*
Y1623397D01*
X1993779Y1622983D02*
G03X1993500Y1622297I700J-685D01*
G01X1993499D02*
G03X1993220Y1622983I-978J0D01*
G01X1993500Y1616248D02*
Y1623397D01*
X2001653Y1622983D02*
G03X2001374Y1622297I700J-685D01*
G01X2001374D02*
G03X2001094Y1622983I-979J0D01*
G01X2001374Y1616248D02*
Y1623397D01*
X2009527Y1622983D02*
G03X2009248Y1622297I700J-685D01*
G01X2009248D02*
G03X2008968Y1622983I-979J0D01*
G01X2009248Y1616248D02*
Y1623397D01*
X1992440Y1580397D02*
X1992921D01*
X1992921D02*
Y1584734D01*
X1993279*
X2035500Y1560797D02*
Y1560276D01*
X2041500*
Y1559838*
X2053600Y1568397D02*
X2053622D01*
X2053622D02*
Y1564956D01*
X2053622D02*
X2054500D01*
X2057059Y1580397D02*
X2057589D01*
X2057589D02*
Y1585897D01*
X2057589D02*
X2057984D01*
X2052295Y1585983D02*
G03X2052015Y1585297I700J-685D01*
G01X2052015D02*
G03X2051735Y1585983I-979J0D01*
G01X2051940Y1580397D02*
X2052015D01*
X2052015D02*
Y1586397D01*
G54D12*
X2028000Y1560397D02*
Y1561197D01*
Y1566597D02*
Y1567397D01*
X2038500Y1517897D02*
Y1517097D01*
Y1511697D02*
Y1510897D01*
X2075000Y1535397D02*
Y1536197D01*
Y1541597D02*
Y1542397D01*
X2061000Y1517897D02*
Y1517097D01*
Y1511697D02*
Y1510897D01*
X2035500Y1560397D02*
Y1561197D01*
Y1566597D02*
Y1567397D01*
G54D14*
X1880475Y1480187D02*
G03X1880984Y1483609I-11256J3422D01*
X1881492Y1480187I11765J0*
G01X1880984Y1483609D02*
Y1480187D01*
X1938620Y1511736D02*
G03X1939627Y1512147I0J1439D01*
G01Y1511325D02*
G03X1938620Y1511736I-1006J-1027D01*
G01X1938620D02*
G03X1939512Y1511857I0J3335D01*
G01Y1511614D02*
G03X1938620Y1511736I-891J-3212D01*
G01X1880984Y1475909D02*
Y1486181D01*
X1887132Y1492329*
Y1495636*
X1900748Y1509251*
X1900748D02*
X1936299D01*
X1936299D02*
X1938228Y1511181D01*
Y1511578*
X1938228D02*
X1938385Y1511736D01*
X1938385D02*
X1940236D01*
X1873388Y1480187D02*
G03X1873897Y1483609I-11255J3422D01*
G01X1873897D02*
G03X1874406Y1480187I11765J0D01*
G01X1873897Y1483609D02*
Y1480187D01*
Y1475909D02*
Y1485306D01*
X1873897D02*
X1874750Y1486158D01*
X1874750D02*
Y1489197D01*
X1871026Y1480187D02*
G03X1871535Y1483609I-11255J3422D01*
X1872044Y1480187I11765J0*
G01X1871535Y1483609D02*
Y1480187D01*
X1873419Y1488576D02*
G03X1873000Y1487547I1050J-1028D01*
G01X1873000D02*
G03X1872580Y1488576I-1469J0D01*
G01X1873123Y1488457D02*
G03X1873000Y1487547I3283J-909D01*
G01X1872999D02*
G03X1872876Y1488457I-3405J0D01*
G01X1871535Y1475909D02*
Y1484694D01*
X1873000Y1486158*
X1873000D02*
Y1489197D01*
X1866302Y1480187D02*
G03X1866811Y1483609I-11256J3422D01*
X1867319Y1480187I11765J0*
G01X1866811Y1483609D02*
Y1480187D01*
Y1475909D02*
Y1486099D01*
X1863940Y1480187D02*
G03X1864448Y1483609I-11256J3422D01*
G01X1864448D02*
G03X1864957Y1480187I11766J0D01*
G01X1864448Y1483609D02*
Y1480187D01*
X1939093Y1514531D02*
G03X1939515Y1515533I-1016J1017D01*
G01X1940096Y1514952D02*
G03X1939093Y1514530I15J-1438D01*
G01Y1514531D02*
G03X1939638Y1515246I-2357J2358D01*
G01X1939809Y1515075D02*
G03X1939093Y1514531I1643J-2902D01*
G01X1864448Y1475909D02*
Y1500744D01*
X1864448D02*
X1872430Y1508725D01*
X1872430D02*
Y1509924D01*
X1872430D02*
X1873953Y1511447D01*
X1873953D02*
X1875689D01*
X1875689D02*
X1878089Y1509047D01*
X1878089D02*
X1896290D01*
X1896290D02*
X1898610Y1511367D01*
X1898610D02*
X1907987D01*
X1907987D02*
X1909371Y1512751D01*
X1909371D02*
X1934827D01*
X1934827D02*
X1935780Y1513704D01*
X1935780D02*
X1938267D01*
X1938267D02*
X1940236Y1515673D01*
X1859724Y1475909D02*
Y1482841D01*
X1859724D02*
X1860650Y1483767D01*
Y1487401*
X1857362Y1475909D02*
Y1483189D01*
X1859650Y1485477*
Y1487497*
X1852129Y1480187D02*
G03X1852637Y1483609I-11256J3422D01*
G01X1852637D02*
G03X1853146Y1480187I11766J0D01*
G01X1852637Y1483609D02*
Y1480187D01*
Y1475909D02*
Y1487934D01*
X1851019Y1486876D02*
G03X1850600Y1485847I1050J-1028D01*
G01X1850600D02*
G03X1850180Y1486876I-1469J0D01*
G01X1850723Y1486757D02*
G03X1850600Y1485847I3283J-909D01*
G01X1850599D02*
G03X1850476Y1486757I-3405J0D01*
G01X1850275Y1475909D02*
Y1483305D01*
X1850275D02*
X1850600Y1483629D01*
X1850600D02*
Y1487497D01*
X1845551Y1475909D02*
Y1482967D01*
X1842680Y1480187D02*
G03X1843188Y1483609I-11256J3422D01*
G01X1843188D02*
G03X1843697Y1480187I11766J0D01*
G01X1843188Y1483609D02*
Y1480187D01*
X1843619Y1488276D02*
G03X1843200Y1487247I1050J-1028D01*
G01X1843200D02*
G03X1842780Y1488276I-1469J0D01*
G01X1843323Y1488157D02*
G03X1843200Y1487247I3283J-909D01*
G01X1843199D02*
G03X1843076Y1488157I-3405J0D01*
G01X1843188Y1475909D02*
Y1484161D01*
X1843188D02*
X1843200Y1484172D01*
X1843200D02*
Y1488897D01*
X1968385Y1475909D02*
Y1483577D01*
X1965514Y1480187D02*
G03X1966023Y1483609I-11255J3422D01*
G01X1966023D02*
G03X1966532Y1480187I11765J0D01*
G01X1966023Y1483609D02*
Y1480187D01*
Y1475909D02*
Y1488480D01*
X1966023D02*
X1967135Y1489591D01*
X1967135D02*
Y1490497D01*
X1918779Y1475909D02*
Y1482434D01*
X1908822Y1480187D02*
G03X1909330Y1483609I-11256J3422D01*
G01X1909330D02*
G03X1909839Y1480187I11766J0D01*
G01X1909330Y1483609D02*
Y1480187D01*
Y1475909D02*
Y1484003D01*
X1904097Y1480187D02*
G03X1904606Y1483609I-11256J3422D01*
X1905114Y1480187I11765J0*
G01X1904606Y1483609D02*
Y1480187D01*
X1933354Y1498531D02*
G03X1934378Y1498101I1039J1039D01*
G01X1933784Y1497507D02*
G03X1933354Y1498531I-1468J-14D01*
G01X1933354D02*
G03X1934085Y1497975I2409J2409D01*
G01X1933910Y1497800D02*
G03X1933354Y1498531I-2964J-1677D01*
G01X1904606Y1475909D02*
Y1487278D01*
X1904606D02*
X1907075Y1489747D01*
X1907075D02*
X1908955D01*
X1908955D02*
X1913855Y1494647D01*
X1913855D02*
X1921928D01*
X1921928D02*
X1923193Y1495912D01*
X1925288*
X1925288D02*
X1928306Y1498929D01*
X1928306D02*
X1932956D01*
X1932956D02*
X1934520Y1497364D01*
X1901735Y1480187D02*
G03X1902244Y1483609I-11256J3422D01*
X1902752Y1480187I11765J0*
G01X1902244Y1483609D02*
Y1480187D01*
Y1475909D02*
Y1486330D01*
X1902244D02*
X1906660Y1490747D01*
X1906660D02*
X1907133D01*
X1907133D02*
X1908441Y1492055D01*
X1908441D02*
X1908500Y1491997D01*
X2048192Y1480187D02*
G03X2048700Y1483609I-11256J3422D01*
G01X2048700D02*
G03X2049209Y1480187I11766J0D01*
G01X2048700Y1483609D02*
Y1480187D01*
Y1475909D02*
Y1484254D01*
X2006735Y1488678D02*
G03X2006511Y1489766I-1444J269D01*
G01X2007336Y1489612D02*
G03X2006735Y1488678I843J-1203D01*
X2006780Y1489595I-3348J625*
G01X2007024Y1489550D02*
G03X2006735Y1488678I3059J-1497D01*
G01X2003818Y1475909D02*
Y1482816D01*
X2003818D02*
X2006692Y1485689D01*
X2006692D02*
Y1488450D01*
X2006692D02*
X2007038Y1490300D01*
X1986774Y1480187D02*
G03X1987283Y1483609I-11255J3422D01*
X1987792Y1480187I11765J0*
G01X1987283Y1483609D02*
Y1480187D01*
X1987819Y1486876D02*
G03X1987400Y1485847I1050J-1028D01*
G01X1987400D02*
G03X1986980Y1486876I-1469J0D01*
G01X1987523Y1486757D02*
G03X1987400Y1485847I3283J-909D01*
G01X1987399D02*
G03X1987276Y1486757I-3405J0D01*
G01X1987283Y1475909D02*
Y1483770D01*
X1987283D02*
X1987400Y1483887D01*
Y1487497*
X1986429Y1490285D02*
G03X1986009Y1489257I1050J-1027D01*
G01X1986009D02*
G03X1985589Y1490285I-1469J0D01*
G01X1986133Y1490167D02*
G03X1986009Y1489257I3283J-909D01*
G01X1986009D02*
G03X1985885Y1490167I-3405J0D01*
G01X1984921Y1475909D02*
Y1483242D01*
X1984921D02*
X1985565Y1483887D01*
X1985565D02*
Y1488375D01*
X1985565D02*
X1986009Y1488819D01*
X1986009D02*
Y1490907D01*
X1982073Y1494652D02*
G03X1981653Y1493623I1049J-1028D01*
G01X1981653D02*
G03X1981233Y1494652I-1469J0D01*
G01X1981777Y1494534D02*
G03X1981653Y1493623I3282J-910D01*
G01X1981653D02*
G03X1981529Y1494534I-3406J0D01*
G01X1980196Y1475909D02*
Y1482576D01*
X1980196D02*
X1980481Y1482860D01*
X1980481D02*
Y1491002D01*
X1980481D02*
X1981653Y1492174D01*
X1981653D02*
Y1495273D01*
X2023091Y1504660D02*
G03X2023878Y1505445I-566J1356D01*
G01X2024202Y1504670D02*
G03X2023091Y1504660I-542J-1365D01*
G01X2023091D02*
G03X2023883Y1505126I-1314J3142D01*
G01X2023979Y1504897D02*
G03X2023091Y1504660I428J-3378D01*
G01X1977834Y1475909D02*
Y1482917D01*
X1977834D02*
X1979481Y1484563D01*
X1979481D02*
Y1495576D01*
X1979481D02*
X1983279Y1499374D01*
X1983279D02*
X1985062D01*
X1985062D02*
X1990213Y1504525D01*
X1990213D02*
X2022769D01*
X2022769D02*
X2024613Y1505297D01*
X2027463Y1506986D02*
G03X2028492Y1507406I0J1470D01*
G01Y1506566D02*
G03X2027463Y1506986I-1028J-1049D01*
G01X2027463D02*
G03X2028374Y1507110I0J3407D01*
G01Y1506862D02*
G03X2027463Y1506986I-910J-3282D01*
G01X1975472Y1475909D02*
Y1483257D01*
X1975472D02*
X1978481Y1486266D01*
X1978481D02*
Y1495991D01*
X1985215Y1502725*
X1985215D02*
X1986854D01*
X1986854D02*
X1989656Y1505527D01*
X1989656D02*
X2022101D01*
X2022101D02*
X2023621Y1507047D01*
X2023621D02*
X2026270D01*
X2026270D02*
X2026331Y1506986D01*
X2026331D02*
X2029113D01*
X1970748Y1475909D02*
Y1483257D01*
X1970748D02*
X1973481Y1485991D01*
Y1487497*
X2074685Y1475909D02*
Y1482697D01*
X2077350Y1485362*
Y1487497*
X1859323Y1493867D02*
Y1489604D01*
X1859323D02*
X1859650Y1489278D01*
X1860396Y1492994D02*
Y1491002D01*
X1860650Y1490748*
X1878113Y1480187D02*
G03X1878622Y1483609I-11256J3422D01*
X1879130Y1480187I11765J0*
G01X1878622Y1483609D02*
Y1480187D01*
Y1475909D02*
Y1483765D01*
X1878622D02*
X1879150Y1484293D01*
X1874419Y1492076D02*
G03X1874000Y1491047I1050J-1028D01*
G01X1874000D02*
G03X1873580Y1492076I-1469J0D01*
G01X1874123Y1491957D02*
G03X1874000Y1491047I3283J-909D01*
G01X1873999D02*
G03X1873876Y1491957I-3405J0D01*
G01X1874000Y1492697D02*
Y1490760D01*
X1874750Y1490010*
X1844950Y1487497D02*
Y1483568D01*
X1844950D02*
X1845551Y1482967D01*
X1865850Y1492597D02*
Y1487060D01*
X1866811Y1486099*
X1850507Y1490790D02*
Y1490065D01*
X1852637Y1487934*
X1859323Y1493867D02*
X1859827Y1495717D01*
X1859827D02*
X1859900Y1495697D01*
X1859650Y1487497D02*
Y1489278D01*
X1935014Y1511736D02*
G03X1935593Y1511937I0J932D01*
G01Y1511534D02*
G03X1935014Y1511736I-578J-729D01*
G01X1935564*
X1865850Y1492597D02*
Y1500016D01*
X1865850D02*
X1872069Y1506236D01*
X1872069D02*
X1895445D01*
X1895445D02*
X1899544Y1510335D01*
X1908485*
X1909886Y1511736*
X1936299*
X1939093Y1518468D02*
G03X1939515Y1519470I-1016J1017D01*
G01X1940096Y1518889D02*
G03X1939093Y1518468I15J-1438D01*
G01X1939093D02*
G03X1939638Y1519183I-2357J2358D01*
G01X1939809Y1519012D02*
G03X1939093Y1518468I1643J-2902D01*
G01X1860396Y1492994D02*
Y1493718D01*
X1860396D02*
X1862549Y1495872D01*
Y1500701*
X1871128Y1509280*
X1871128D02*
Y1510037D01*
X1871128D02*
X1873717Y1512625D01*
X1873717D02*
X1896466D01*
X1896466D02*
X1898632Y1514791D01*
X1898632D02*
X1932929D01*
X1932929D02*
X1935780Y1517641D01*
X1935780D02*
X1938267D01*
X1938267D02*
X1940236Y1519610D01*
X1860650Y1487401D02*
Y1490748D01*
X1935156Y1518468D02*
G03X1935578Y1519470I-1016J1017D01*
G01X1936159Y1518889D02*
G03X1935156Y1518468I15J-1438D01*
G01X1935156D02*
G03X1935701Y1519183I-2357J2358D01*
G01X1935872Y1519012D02*
G03X1935156Y1518468I1643J-2902D01*
G01X1850507Y1490790D02*
Y1491515D01*
X1859297Y1500305*
X1860296*
X1860296D02*
X1869826Y1509835D01*
X1869826D02*
Y1510149D01*
X1869826D02*
X1873381Y1513703D01*
X1873381D02*
X1895261D01*
X1895261D02*
X1897370Y1515813D01*
X1932502*
X1936299Y1519610*
X1879150Y1487497D02*
Y1484293D01*
X1874750Y1489197D02*
Y1490010D01*
X1865733Y1509630D02*
G03X1866163Y1510655I-1038J1040D01*
G01X1866757Y1510061D02*
G03X1865733Y1509630I15J-1469D01*
G01X1865733D02*
G03X1866289Y1510362I-2408J2409D01*
G01X1866464Y1510186D02*
G03X1865733Y1509630I1678J-2963D01*
G01X1844950Y1487497D02*
Y1488847D01*
X1844950D02*
X1866900Y1510797D01*
X1879721Y1511217D02*
G03X1880750Y1510797I1029J1050D01*
G01X1880750D02*
G03X1879721Y1510377I0J-1469D01*
G01X1879839Y1510921D02*
G03X1880750Y1510797I911J3283D01*
G01X1880750D02*
G03X1879839Y1510673I0J-3405D01*
G01X1935156Y1514531D02*
G03X1935578Y1515533I-1016J1017D01*
G01X1936159Y1514952D02*
G03X1935156Y1514530I15J-1438D01*
G01Y1514531D02*
G03X1935701Y1515246I-2357J2358D01*
G01X1935872Y1515075D02*
G03X1935156Y1514531I1643J-2902D01*
G01X1879100Y1510797D02*
X1896539D01*
X1896539D02*
X1899511Y1513770D01*
X1899511D02*
X1934396D01*
X1936299Y1515673*
X1878844Y1490183D02*
G03X1879017Y1489085I1431J-336D01*
G01X1879017D02*
G03X1878126Y1489748I-1256J-759D01*
G01X1878652Y1489928D02*
G03X1879017Y1489085I3280J920D01*
G01X1879017D02*
G03X1878440Y1489800I-2913J-1762D01*
G01X1878163Y1490497D02*
X1879150Y1488867D01*
Y1487497*
X1848407Y1490600D02*
G03X1849173Y1491405I-601J1341D01*
G01X1849173D02*
G03X1849189Y1490294I1368J-536D01*
G01X1848726Y1490602D02*
G03X1849173Y1491405I-2723J2046D01*
G01X1849173D02*
G03X1848956Y1490512I3172J-1243D01*
G01X1939093Y1522405D02*
G03X1939515Y1523407I-1016J1017D01*
G01X1940096Y1522826D02*
G03X1939093Y1522405I15J-1438D01*
G01X1939093D02*
G03X1939638Y1523120I-2357J2358D01*
G01X1939809Y1522949D02*
G03X1939093Y1522405I1643J-2902D01*
G01X1848571Y1489868D02*
X1849296Y1491718D01*
X1849296D02*
X1863528Y1505950D01*
X1863528D02*
X1864527D01*
X1864527D02*
X1868720Y1510143D01*
X1868720D02*
Y1510457D01*
X1868720D02*
X1873123Y1514860D01*
X1894315*
X1896496Y1517041*
X1931242*
X1931242D02*
X1935780Y1521578D01*
X1935780D02*
X1938267D01*
X1938267D02*
X1940236Y1523547D01*
X1863621Y1519517D02*
G03X1864650Y1519097I1029J1050D01*
G01X1864650D02*
G03X1863621Y1518677I0J-1469D01*
G01X1863739Y1519221D02*
G03X1864650Y1519097I911J3283D01*
G01X1864650D02*
G03X1863739Y1518973I0J-3405D01*
G01X1934828Y1526815D02*
G03X1935575Y1527606I-594J1310D01*
G01X1935915Y1526858D02*
G03X1934828Y1526815I-491J-1352D01*
G01X1934828D02*
G03X1935589Y1527295I-1379J3037D01*
G01X1935690Y1527074D02*
G03X1934828Y1526815I518J-3294D01*
G01X1863000Y1519097D02*
X1870598D01*
X1870598D02*
X1873272Y1521771D01*
X1873272D02*
X1906717D01*
X1906717D02*
X1910336Y1525391D01*
X1910336D02*
X1933233D01*
X1934515Y1526673*
X1934515D02*
X1936299Y1527484D01*
X1845821Y1511817D02*
G03X1846850Y1511397I1029J1050D01*
G01X1846850D02*
G03X1845821Y1510977I0J-1469D01*
G01X1845939Y1511521D02*
G03X1846850Y1511397I911J3283D01*
G01X1846850D02*
G03X1845939Y1511273I0J-3405D01*
G01X1939093Y1526342D02*
G03X1939515Y1527344I-1016J1017D01*
G01X1940096Y1526763D02*
G03X1939093Y1526342I15J-1438D01*
G01X1939093D02*
G03X1939638Y1527057I-2357J2358D01*
G01X1939809Y1526886D02*
G03X1939093Y1526342I1643J-2902D01*
G01X1845200Y1511397D02*
X1858350D01*
X1858350D02*
X1864825Y1517872D01*
X1864825D02*
X1876535D01*
X1876535D02*
X1878358Y1519696D01*
X1878358D02*
X1907105D01*
X1911144Y1523734*
X1911144D02*
X1932991D01*
X1932991D02*
X1934772Y1525515D01*
X1934772D02*
X1938267D01*
X1938267D02*
X1940236Y1527484D01*
X1845021Y1493617D02*
G03X1846050Y1493197I1029J1050D01*
G01X1846050D02*
G03X1845021Y1492777I0J-1469D01*
G01X1845139Y1493321D02*
G03X1846050Y1493197I911J3283D01*
G01X1846050D02*
G03X1845139Y1493073I0J-3405D01*
G01X1935156Y1522405D02*
G03X1935578Y1523407I-1016J1017D01*
G01X1936159Y1522826D02*
G03X1935156Y1522405I15J-1438D01*
G01X1935156D02*
G03X1935701Y1523120I-2357J2358D01*
G01X1935872Y1522949D02*
G03X1935156Y1522405I1643J-2902D01*
G01X1844400Y1493197D02*
X1846537D01*
X1846537D02*
X1869706Y1516366D01*
X1884615*
X1884615D02*
X1886796Y1518547D01*
X1886796D02*
X1903402D01*
X1903402D02*
X1903680Y1518269D01*
X1903680D02*
X1931021D01*
X1931021D02*
X1936299Y1523547D01*
X1889574Y1496166D02*
G03X1890598Y1496596I-14J1469D01*
G01X1890598D02*
G03X1890168Y1495572I1040J-1038D01*
G01X1889867Y1496040D02*
G03X1890598Y1496596I-1676J2965D01*
G01X1890598D02*
G03X1890042Y1495865I2409J-2408D01*
G01X1889432Y1495429D02*
X1891850Y1497847D01*
X1891850D02*
X1899368D01*
X1899368D02*
X1900068Y1497147D01*
X1900068D02*
X1912400D01*
X1912400D02*
X1915182Y1499929D01*
X1915182D02*
X1935542D01*
X1935542D02*
X1942750Y1492722D01*
X1942750D02*
Y1484276D01*
X1944763Y1482262*
X1944763D02*
Y1475909D01*
X1870921Y1531317D02*
G03X1871950Y1530897I1029J1050D01*
G01X1871950D02*
G03X1870921Y1530477I0J-1469D01*
G01X1871039Y1531021D02*
G03X1871950Y1530897I911J3283D01*
G01X1871950D02*
G03X1871039Y1530773I0J-3405D01*
G01X1939093Y1544374D02*
G03X1940096Y1543953I1018J1017D01*
G01X1939515Y1543371D02*
G03X1939093Y1544374I-1438J-13D01*
G01X1939093D02*
G03X1939809Y1543830I2359J2358D01*
G01X1939638Y1543658D02*
G03X1939093Y1544374I-2902J-1641D01*
G01X1870300Y1530897D02*
X1902184D01*
X1902184D02*
X1910902Y1539615D01*
X1918491*
X1919716Y1540840*
X1924974*
X1924974D02*
X1929082Y1544947D01*
X1929082D02*
X1932524D01*
X1932524D02*
X1933200Y1544272D01*
X1933200D02*
X1934768D01*
X1934768D02*
X1935462Y1544966D01*
X1935462D02*
X1938501D01*
X1938501D02*
X1940236Y1543232D01*
X1864242Y1522933D02*
G03X1865266Y1523364I-14J1470D01*
G01X1865266D02*
G03X1864836Y1522340I1039J-1038D01*
G01X1864535Y1522808D02*
G03X1865266Y1523364I-1677J2965D01*
G01X1865266D02*
G03X1864710Y1522633I2409J-2408D01*
G01X1943031Y1542090D02*
G03X1943452Y1543092I-1017J1017D01*
G01X1944033Y1542511D02*
G03X1943031Y1542090I15J-1438D01*
X1943575Y1542805I-2358J2358*
G01X1943746Y1542634D02*
G03X1943031Y1542090I1643J-2902D01*
G01X1864100Y1522197D02*
X1868300Y1526397D01*
X1868300D02*
X1906717D01*
X1906717D02*
X1914205Y1533885D01*
X1914205D02*
X1925085D01*
X1925085D02*
X1932464Y1541263D01*
X1932464D02*
X1942204D01*
X1942204D02*
X1944173Y1543232D01*
X1960450Y1504597D02*
Y1507567D01*
X1961655Y1508772*
X1948849Y1487497D02*
Y1488222D01*
X1948849D02*
X1949582Y1488955D01*
X1965621Y1497144D02*
Y1496035D01*
X1965621D02*
X1967135Y1494522D01*
X1958187Y1513938D02*
Y1511736D01*
X1958779Y1514531D02*
G03X1959200Y1515533I-1017J1017D01*
G01X1959781Y1514952D02*
G03X1958779Y1514530I15J-1438D01*
G01Y1514531D02*
G03X1959323Y1515246I-2358J2358D01*
G01X1959494Y1515075D02*
G03X1958779Y1514531I1643J-2902D01*
G01X1958187Y1513938D02*
X1959921Y1515673D01*
X1947125Y1506672D02*
Y1508157D01*
X1948110Y1509142*
X1953361Y1489543D02*
Y1490588D01*
X1953361D02*
X1954100Y1491327D01*
X1947950Y1493897D02*
Y1494910D01*
X1948000Y1494960*
X1967481Y1487497D02*
Y1484482D01*
X1968385Y1483577*
X1916778Y1486992D02*
Y1484435D01*
X1916778D02*
X1918779Y1482434D01*
X1909278Y1487497D02*
Y1484055D01*
X1909278D02*
X1909330Y1484003D01*
X1962716Y1561775D02*
G03X1963137Y1562777I-1017J1017D01*
G01X1963718Y1562196D02*
G03X1962716Y1561775I15J-1438D01*
X1963260Y1562491I-2358J2358*
G01X1963431Y1562319D02*
G03X1962716Y1561775I1643J-2902D01*
G01X1946375Y1559047D02*
Y1558261D01*
X1946375D02*
X1947391Y1557246D01*
X1947391D02*
X1960639D01*
X1960639D02*
X1961889Y1558496D01*
X1961889D02*
Y1560948D01*
X1961889D02*
X1963858Y1562917D01*
X1937050Y1494297D02*
G03X1938078Y1494717I0J1470D01*
G01Y1493877D02*
G03X1937050Y1494297I-1028J-1049D01*
G01X1937050D02*
G03X1937960Y1494421I0J3407D01*
G01Y1494173D02*
G03X1937050Y1494297I-910J-3281D01*
G01X1909278Y1487497D02*
Y1488425D01*
X1909278D02*
X1914500Y1493647D01*
X1914500D02*
X1922519D01*
X1922519D02*
X1923784Y1494912D01*
X1926280*
X1926280D02*
X1929298Y1497929D01*
X1929298D02*
X1931403D01*
X1931403D02*
X1933718Y1495614D01*
X1933718D02*
X1935031D01*
X1935031D02*
X1936349Y1494297D01*
X1936349D02*
X1938700D01*
X1959192Y1492805D02*
G03X1960196Y1492329I1084J992D01*
G01X1959576Y1491762D02*
G03X1959192Y1492805I-1468J51D01*
X1959897Y1492217I2513J2299*
G01X1959715Y1492049D02*
G03X1959192Y1492805I-3036J-1543D01*
G01X1947125Y1506672D02*
Y1505947D01*
X1947125D02*
X1949401Y1503671D01*
X1949401D02*
X1949575D01*
X1953848Y1499397*
X1953848D02*
X1957151D01*
X1957151D02*
X1959055Y1497493D01*
X1959055D02*
Y1492954D01*
X1959055D02*
X1960305Y1491587D01*
X1964133Y1494664D02*
G03X1965157Y1494233I1039J1039D01*
G01X1964563Y1493640D02*
G03X1964133Y1494664I-1468J-14D01*
X1964864Y1494108I2409J2409*
G01X1964689Y1493933D02*
G03X1964133Y1494664I-2964J-1677D01*
G01X1960450Y1504597D02*
Y1501928D01*
X1960450D02*
X1961105Y1501273D01*
X1961105D02*
Y1497691D01*
X1961105D02*
X1965300Y1493497D01*
X1961655Y1513704D02*
Y1508772D01*
X1960233Y1495767D02*
G03X1961257Y1495337I1039J1039D01*
G01X1960663Y1494743D02*
G03X1960233Y1495767I-1468J-14D01*
X1960964Y1495211I2409J2409*
G01X1960789Y1495036D02*
G03X1960233Y1495767I-2964J-1677D01*
G01X1958187Y1511736D02*
Y1510501D01*
X1958187D02*
X1958850Y1509838D01*
X1958850D02*
Y1500170D01*
X1958850D02*
X1960073Y1498946D01*
X1960073D02*
Y1495926D01*
X1960073D02*
X1961400Y1494600D01*
X1948849Y1487497D02*
Y1484859D01*
X1948849D02*
X1951850Y1481859D01*
Y1475909*
X1949582Y1489680D02*
Y1488955D01*
X1947950Y1493897D02*
Y1492605D01*
X1949582Y1490972*
X1949582D02*
Y1489680D01*
X1933562Y1492233D02*
G03X1933298Y1493312I-1453J217D01*
G01X1934129Y1493188D02*
G03X1933562Y1492233I886J-1172D01*
X1933574Y1493151I-3369J503*
G01X1933819Y1493115D02*
G03X1933562Y1492233I3112J-1385D01*
G01X1916778Y1486992D02*
Y1489435D01*
X1916778D02*
X1919990Y1492647D01*
X1919990D02*
X1923110D01*
X1923110D02*
X1924375Y1493912D01*
X1926063*
X1928602Y1491372*
X1928602D02*
X1929267D01*
X1929267D02*
X1930223Y1490416D01*
X1930223D02*
X1931931D01*
X1933529Y1492014*
X1933529D02*
X1933805Y1493864D01*
X1956066Y1480187D02*
G03X1956574Y1483609I-11256J3422D01*
G01X1956574D02*
G03X1957083Y1480187I11766J0D01*
G01X1956574Y1483609D02*
Y1480187D01*
X1953361Y1489543D02*
Y1487219D01*
X1953361D02*
X1956574Y1484006D01*
X1956574D02*
Y1475909D01*
X1968763Y1499201D02*
G03X1969193Y1500225I-1039J1039D01*
G01X1969787Y1499631D02*
G03X1968763Y1499201I15J-1469D01*
X1969319Y1499932I-2408J2408*
G01X1969494Y1499757D02*
G03X1968763Y1499201I1677J-2964D01*
G01X1965621Y1497144D02*
Y1497869D01*
X1965621D02*
X1966729Y1498977D01*
X1966729D02*
X1968539D01*
X1969929Y1500367*
X1967135Y1490497D02*
Y1494522D01*
X2025450Y1510340D02*
G03X2026478Y1510760I0J1470D01*
G01Y1509920D02*
G03X2025450Y1510340I-1028J-1048D01*
G01X2025450D02*
G03X2026360Y1510464I0J3407D01*
G01Y1510216D02*
G03X2025450Y1510340I-910J-3281D01*
G01X1967481Y1487497D02*
Y1488343D01*
X1969618Y1490479*
X1969618D02*
Y1492156D01*
X1969618D02*
X1972372Y1494910D01*
X1972372D02*
Y1498920D01*
X1972372D02*
X1972848Y1499397D01*
X1972848D02*
X1978914D01*
X1978914D02*
X1986767Y1507250D01*
X1988239*
X1988523Y1507534*
X1988523D02*
X2013862D01*
X2013862D02*
X2016588Y1510261D01*
X2023547*
X2023627Y1510340*
X2023627D02*
X2027100D01*
X1939919Y1488290D02*
G03X1939500Y1487261I1050J-1028D01*
G01X1939500D02*
G03X1939080Y1488290I-1469J0D01*
G01X1939623Y1488172D02*
G03X1939500Y1487261I3283J-910D01*
G01X1939499D02*
G03X1939376Y1488172I-3405J0D01*
G01X1939530Y1480187D02*
G03X1940039Y1483609I-11255J3422D01*
X1940548Y1480187I11765J0*
G01X1940039Y1483609D02*
Y1480187D01*
X1939500Y1488911D02*
Y1484276D01*
X1940039Y1483736*
X1940039D02*
Y1475909D01*
X1925986Y1492019D02*
G03X1926416Y1490995I1469J15D01*
G01X1926416D02*
G03X1925392Y1491425I-1038J-1038D01*
G01X1925860Y1491726D02*
G03X1926416Y1490995I2965J1678D01*
G01X1926416D02*
G03X1925685Y1491551I-2408J-2408D01*
G01X1925249Y1492162D02*
X1926975Y1490436D01*
X1926975D02*
Y1486688D01*
X1926975D02*
X1930590Y1483073D01*
X1930590D02*
Y1475909D01*
X1942008Y1514417D02*
G03X1943068Y1514753I119J1465D01*
X1942546Y1513772I940J-1129*
G01X1942289Y1514266D02*
G03X1943068Y1514753I-1400J3105D01*
X1942447Y1514075I2179J-2617*
G01X1942931Y1514639D02*
G03X1943442Y1515599I-919J1106D01*
G01X1943968Y1514968D02*
G03X1942931Y1514639I-115J-1434D01*
G01X1942931D02*
G03X1943539Y1515303I-2132J2563D01*
G01X1943694Y1515116D02*
G03X1942931Y1514639I1371J-3039D01*
G01X1941800Y1513697D02*
X1944173Y1515673D01*
X1954267Y1526044D02*
G03X1955243Y1526576I-162J1461D01*
X1954918Y1525513I1138J-929*
G01X1954571Y1525949D02*
G03X1955243Y1526576I-1967J2780D01*
X1954763Y1525792I2639J-2153*
G01X1954962Y1526232D02*
G03X1955281Y1527272I-1113J910D01*
G01X1955918Y1526752D02*
G03X1954962Y1526232I159J-1428D01*
G01X1954962D02*
G03X1955432Y1526999I-2582J2109D01*
G01X1955620Y1526846D02*
G03X1954962Y1526232I1926J-2721D01*
G01X1954200Y1525297D02*
X1955984Y1527484D01*
X1911448Y1486876D02*
G03X1911028Y1485847I1050J-1028D01*
G01X1911028D02*
G03X1910608Y1486876I-1468J0D01*
G01X1911152Y1486757D02*
G03X1911028Y1485847I3283J-909D01*
G01X1911028D02*
G03X1910904Y1486757I-3405J0D01*
G01X1911028Y1487497D02*
Y1484064D01*
X1911028D02*
X1911692Y1483399D01*
X1911692D02*
Y1475909D01*
X1951215Y1509791D02*
G03X1951835Y1510713I-818J1220D01*
X1952037Y1509620I1439J-298*
G01X1951528Y1509847D02*
G03X1951835Y1510713I-3028J1558D01*
X1951771Y1509796I3335J-691*
G01X1951719Y1510154D02*
G03X1951521Y1511224I-1408J292D01*
G01X1952326Y1511057D02*
G03X1951719Y1510154I802J-1194D01*
G01X1951719D02*
G03X1951781Y1511051I-3265J677D01*
G01X1952018Y1511002D02*
G03X1951719Y1510154I2966J-1524D01*
G01X1951500Y1509097D02*
X1952047Y1511736D01*
X1916821Y1507317D02*
G03X1917850Y1506897I1029J1050D01*
G01X1917850D02*
G03X1916821Y1506477I0J-1469D01*
G01X1916939Y1507021D02*
G03X1917850Y1506897I911J3283D01*
G01X1917850D02*
G03X1916939Y1506773I0J-3405D01*
G01X1943031Y1510593D02*
G03X1943452Y1511596I-1017J1018D01*
G01X1944033Y1511015D02*
G03X1943031Y1510593I15J-1438D01*
G01X1943031D02*
G03X1943575Y1511309I-2358J2359D01*
G01X1943746Y1511138D02*
G03X1943031Y1510593I1643J-2902D01*
G01X1916200Y1506897D02*
X1919422D01*
X1919422D02*
X1920759Y1508235D01*
X1920759D02*
X1936948D01*
X1938691Y1509978*
X1938691D02*
X1942415D01*
X1942415D02*
X1944173Y1511736D01*
X1958289Y1526242D02*
G03X1959280Y1526744I-119J1465D01*
G01X1959280D02*
G03X1958924Y1525692I1111J-961D01*
G01X1958590Y1526137D02*
G03X1959280Y1526744I-1884J2838D01*
G01X1959280D02*
G03X1958778Y1525975I2575J-2230D01*
G01X1958863Y1526263D02*
G03X1959212Y1527293I-1086J942D01*
G01X1959833Y1526755D02*
G03X1958863Y1526263I117J-1433D01*
X1959355Y1527016I-2520J2184*
G01X1959538Y1526857D02*
G03X1958863Y1526263I1846J-2777D01*
G01X1958200Y1525497D02*
X1959921Y1527484D01*
X1949496Y1507092D02*
G03X1950525Y1506672I1029J1050D01*
G01X1950525D02*
G03X1949496Y1506252I0J-1468D01*
G01X1949614Y1506796D02*
G03X1950525Y1506672I911J3283D01*
G01X1950525D02*
G03X1949614Y1506548I0J-3405D01*
G01X1954842Y1514531D02*
G03X1955263Y1515533I-1017J1017D01*
G01X1955844Y1514952D02*
G03X1954842Y1514530I15J-1438D01*
G01Y1514531D02*
G03X1955386Y1515246I-2358J2358D01*
G01X1955557Y1515075D02*
G03X1954842Y1514531I1643J-2902D01*
G01X1948875Y1506672D02*
X1951550D01*
X1951550D02*
X1954015Y1509138D01*
X1954015D02*
Y1513704D01*
X1954015D02*
X1955984Y1515673D01*
X1934269Y1487279D02*
G03X1934699Y1486255I1469J15D01*
G01X1934699D02*
G03X1933675Y1486685I-1038J-1038D01*
G01X1934143Y1486986D02*
G03X1934699Y1486255I2965J1678D01*
G01X1934699D02*
G03X1933968Y1486811I-2408J-2408D01*
G01X1933532Y1487422D02*
X1937677Y1483277D01*
X1937677D02*
Y1475909D01*
X1985893Y1539597D02*
G03X1986959Y1539813I270J1414D01*
G01X1986805Y1539005D02*
G03X1985893Y1539597I-1181J-820D01*
G01X1985893D02*
G03X1986791Y1539550I625J3276D01*
G01X1986746Y1539311D02*
G03X1985893Y1539597I-1477J-2989D01*
G01X1969800Y1540897D02*
Y1541029D01*
X1969800D02*
X1984261D01*
X1984261D02*
X1985646Y1539645D01*
X1987480Y1539295*
X1948419Y1496476D02*
G03X1948000Y1495447I1050J-1028D01*
G01X1948000D02*
G03X1947580Y1496476I-1469J0D01*
G01X1948123Y1496357D02*
G03X1948000Y1495447I3283J-909D01*
G01X1947999D02*
G03X1947876Y1496357I-3405J0D01*
G01X1948000Y1497097D02*
Y1494960D01*
X1970590Y1524689D02*
G03X1971592Y1524268I1017J1017D01*
G01X1971011Y1523686D02*
G03X1970590Y1524689I-1438J-13D01*
X1971305Y1524145I2358J2358*
G01X1971134Y1523973D02*
G03X1970590Y1524689I-2902J-1641D01*
G01X1965700Y1529697D02*
Y1529686D01*
X1965700D02*
X1968045D01*
X1968045D02*
X1969763Y1527968D01*
X1969763D02*
Y1525515D01*
X1969763D02*
X1971732Y1523547D01*
X1942507Y1522339D02*
G03X1943510Y1522818I-84J1468D01*
X1943128Y1521774I1087J-988*
G01X1942806Y1522228D02*
G03X1943510Y1522818I-1815J2882D01*
X1942989Y1522061I2520J-2291*
G01X1943086Y1522352D02*
G03X1943459Y1523373I-1064J968D01*
G01X1944068Y1522820D02*
G03X1943086Y1522352I82J-1435D01*
X1943596Y1523093I-2466J2244*
G01X1943775Y1522929D02*
G03X1943086Y1522352I1778J-2820D01*
G01X1942400Y1521597D02*
X1944173Y1523547D01*
X1950406Y1530239D02*
G03X1951409Y1530719I-84J1468D01*
X1951028Y1529675I1088J-988*
G01X1950705Y1530128D02*
G03X1951409Y1530719I-1817J2881D01*
X1950889Y1529961I2522J-2290*
G01X1950961Y1530225D02*
G03X1951333Y1531247I-1064J967D01*
G01X1951942Y1530694D02*
G03X1950961Y1530225I84J-1435D01*
G01X1950961D02*
G03X1951470Y1530966I-2468J2242D01*
G01X1951650Y1530803D02*
G03X1950961Y1530225I1779J-2819D01*
G01X1950300Y1529497D02*
X1952047Y1531421D01*
X1938099Y1538020D02*
G03X1939154Y1538369I99J1466D01*
G01X1939154D02*
G03X1938645Y1537382I955J-1116D01*
G01X1938381Y1537872D02*
G03X1939154Y1538369I-1440J3087D01*
G01X1939154D02*
G03X1938542Y1537684I2213J-2588D01*
G01X1939008Y1538245D02*
G03X1939506Y1539212I-934J1094D01*
G01X1940040Y1538587D02*
G03X1939008Y1538245I-96J-1435D01*
X1939607Y1538916I-2166J2535*
G01X1939764Y1538732D02*
G03X1939008Y1538245I1411J-3021D01*
G01X1937900Y1537297D02*
X1940236Y1539295D01*
X1946492Y1534141D02*
G03X1947484Y1534641I-114J1466D01*
G01X1947484D02*
G03X1947124Y1533589I1108J-966D01*
G01X1946792Y1534036D02*
G03X1947484Y1534641I-1874J2844D01*
G01X1947484D02*
G03X1946979Y1533873I2567J-2239D01*
G01X1947048Y1534140D02*
G03X1947400Y1535170I-1083J946D01*
G01X1948020Y1534629D02*
G03X1947048Y1534140I112J-1433D01*
G01X1947048D02*
G03X1947542Y1534892I-2512J2193D01*
G01X1947725Y1534732D02*
G03X1947048Y1534140I1836J-2783D01*
G01X1946400Y1533397D02*
X1948110Y1535358D01*
X1950393Y1538041D02*
G03X1951386Y1538539I-112J1466D01*
G01X1951386D02*
G03X1951025Y1537488I1106J-966D01*
G01X1950693Y1537935D02*
G03X1951386Y1538539I-1870J2847D01*
G01X1951386D02*
G03X1950880Y1537772I2564J-2242D01*
G01X1950983Y1538079D02*
G03X1951337Y1539107I-1082J947D01*
G01X1951956Y1538566D02*
G03X1950983Y1538079I110J-1433D01*
G01X1950983D02*
G03X1951479Y1538830I-2509J2196D01*
G01X1951661Y1538670D02*
G03X1950983Y1538079I1833J-2786D01*
G01X1950300Y1537297D02*
X1952047Y1539295D01*
X1923448Y1488104D02*
G03X1923028Y1487076I1050J-1027D01*
G01X1923028D02*
G03X1922608Y1488104I-1468J0D01*
G01X1923152Y1487986D02*
G03X1923028Y1487076I3283J-909D01*
G01X1923028D02*
G03X1922904Y1487986I-3405J0D01*
G01X1923028Y1488726D02*
Y1486130D01*
X1923028D02*
X1925866Y1483293D01*
Y1475909*
X1901942Y1499633D02*
G03X1902966Y1500064I-14J1470D01*
G01X1902966D02*
G03X1902536Y1499040I1039J-1038D01*
G01X1902235Y1499508D02*
G03X1902966Y1500064I-1677J2965D01*
G01X1902966D02*
G03X1902410Y1499333I2409J-2408D01*
G01X1946968Y1514531D02*
G03X1947389Y1515533I-1017J1017D01*
G01X1947970Y1514952D02*
G03X1946968Y1514530I15J-1438D01*
G01Y1514531D02*
G03X1947512Y1515246I-2358J2358D01*
G01X1947683Y1515075D02*
G03X1946968Y1514531I1643J-2902D01*
G01X1901800Y1498897D02*
X1905344Y1502442D01*
Y1502486*
X1908605Y1505747*
X1908605D02*
X1914839D01*
X1914839D02*
X1915439Y1505147D01*
X1915439D02*
X1920458D01*
X1920458D02*
X1922446Y1507135D01*
X1937276*
X1937276D02*
X1939097Y1508955D01*
X1939097D02*
X1943845D01*
X1943845D02*
X1946141Y1511252D01*
X1946141D02*
Y1513704D01*
X1946141D02*
X1948110Y1515673D01*
X1926338Y1531987D02*
G03X1927362Y1532418I-14J1470D01*
G01X1927362D02*
G03X1926932Y1531393I1039J-1039D01*
G01X1926631Y1531862D02*
G03X1927362Y1532418I-1677J2965D01*
G01X1927362D02*
G03X1926806Y1531686I2409J-2408D01*
G01X1934683Y1535358D02*
G03X1935690Y1535769I0J1439D01*
G01Y1534947D02*
G03X1934683Y1535358I-1006J-1027D01*
G01X1934683D02*
G03X1935575Y1535479I0J3335D01*
G01Y1535236D02*
G03X1934683Y1535358I-891J-3212D01*
G01X1926195Y1531251D02*
X1930302Y1535358D01*
X1930302D02*
X1936299D01*
X1942577Y1538043D02*
G03X1943559Y1538562I-144J1463D01*
G01X1943559D02*
G03X1943220Y1537504I1127J-943D01*
G01X1942880Y1537944D02*
G03X1943559Y1538562I-1932J2805D01*
G01X1943559D02*
G03X1943069Y1537785I2612J-2186D01*
G01X1943135Y1538056D02*
G03X1943467Y1539092I-1102J924D01*
G01X1944097Y1538564D02*
G03X1943135Y1538056I142J-1430D01*
G01X1943135D02*
G03X1943615Y1538817I-2555J2142D01*
G01X1943801Y1538662D02*
G03X1943135Y1538056I1891J-2746D01*
G01X1942500Y1537297D02*
X1944173Y1539295D01*
X1920765Y1487355D02*
G03X1921195Y1486330I1469J15D01*
G01X1921195D02*
G03X1920171Y1486761I-1038J-1038D01*
G01X1920639Y1487062D02*
G03X1921195Y1486330I2965J1677D01*
G01X1921195D02*
G03X1920464Y1486886I-2408J-2407D01*
G01X1922995Y1480187D02*
G03X1923503Y1483609I-11256J3422D01*
G01X1923503D02*
G03X1924012Y1480187I11766J0D01*
G01X1923503Y1483609D02*
Y1480187D01*
X1920028Y1487497D02*
X1923503Y1484022D01*
X1923503D02*
Y1475909D01*
X1950390Y1518342D02*
G03X1951381Y1518843I-118J1465D01*
G01X1951381D02*
G03X1951024Y1517791I1110J-962D01*
G01X1950691Y1518237D02*
G03X1951381Y1518843I-1881J2839D01*
G01X1951381D02*
G03X1950878Y1518075I2573J-2232D01*
G01X1950988Y1518390D02*
G03X1951337Y1519420I-1086J943D01*
G01X1951958Y1518881D02*
G03X1950988Y1518390I116J-1433D01*
X1951480Y1519142I-2518J2186*
G01X1951664Y1518983D02*
G03X1950988Y1518390I1842J-2778D01*
G01X1950300Y1517597D02*
X1952047Y1519610D01*
X1945992Y1518322D02*
G03X1947044Y1518681I86J1467D01*
X1946544Y1517689I965J-1107*
G01X1946276Y1518176D02*
G03X1947044Y1518681I-1469J3074D01*
X1946439Y1517990I2237J-2568*
G01X1946892Y1518549D02*
G03X1947381Y1519520I-944J1085D01*
G01X1947921Y1518900D02*
G03X1946892Y1518549I-83J-1435D01*
X1947484Y1519226I-2190J2514*
G01X1947643Y1519043D02*
G03X1946892Y1518549I1439J-3008D01*
G01X1945800Y1517597D02*
X1948110Y1519610D01*
X1950399Y1534140D02*
G03X1951397Y1534629I-98J1467D01*
G01X1951397D02*
G03X1951026Y1533582I1097J-977D01*
G01X1950699Y1534032D02*
G03X1951397Y1534629I-1844J2863D01*
G01X1951397D02*
G03X1950884Y1533867I2544J-2265D01*
G01X1950972Y1534152D02*
G03X1951335Y1535177I-1073J957D01*
G01X1951949Y1534630D02*
G03X1950972Y1534152I97J-1434D01*
G01X1950972D02*
G03X1951474Y1534898I-2489J2219D01*
G01X1951655Y1534736D02*
G03X1950972Y1534152I1807J-2802D01*
G01X1950300Y1533397D02*
X1952047Y1535358D01*
X1915448Y1486876D02*
G03X1915028Y1485847I1050J-1028D01*
G01X1915028D02*
G03X1914608Y1486876I-1468J0D01*
G01X1915152Y1486757D02*
G03X1915028Y1485847I3283J-909D01*
G01X1915028D02*
G03X1914904Y1486757I-3405J0D01*
G01X1915028Y1487497D02*
Y1484435D01*
X1915028D02*
X1916417Y1483046D01*
Y1475909*
X1946193Y1537741D02*
G03X1947186Y1538239I-112J1466D01*
X1946825Y1537188I1106J-967*
G01X1946493Y1537635D02*
G03X1947186Y1538239I-1870J2847D01*
X1946680Y1537472I2564J-2242*
G01X1947046Y1538079D02*
G03X1947400Y1539108I-1082J947D01*
G01X1948019Y1538566D02*
G03X1947046Y1538079I110J-1433D01*
G01X1947046D02*
G03X1947542Y1538830I-2509J2196D01*
G01X1947724Y1538670D02*
G03X1947046Y1538079I1832J-2786D01*
G01X1946100Y1536997D02*
X1948110Y1539295D01*
X1946374Y1522527D02*
G03X1947416Y1522912I50J1468D01*
G01X1947416D02*
G03X1946941Y1521907I993J-1083D01*
G01X1946661Y1522388D02*
G03X1947416Y1522912I-1545J3036D01*
G01X1947416D02*
G03X1946829Y1522205I2301J-2512D01*
G01X1946919Y1522456D02*
G03X1947383Y1523439I-971J1061D01*
G01X1947939Y1522833D02*
G03X1946919Y1522456I-48J-1437D01*
X1947494Y1523147I-2252J2459*
G01X1947658Y1522968D02*
G03X1946919Y1522456I1513J-2971D01*
G01X1946200Y1521797D02*
X1948110Y1523547D01*
X1934473Y1538063D02*
G03X1935497Y1538493I-14J1469D01*
G01X1935497D02*
G03X1935067Y1537469I1039J-1038D01*
G01X1934766Y1537937D02*
G03X1935497Y1538493I-1677J2965D01*
X1934941Y1537762I2409J-2408*
G01X1935156Y1538153D02*
G03X1935578Y1539155I-1016J1017D01*
G01X1936159Y1538574D02*
G03X1935156Y1538153I15J-1438D01*
G01X1935156D02*
G03X1935701Y1538868I-2357J2358D01*
G01X1935872Y1538697D02*
G03X1935156Y1538153I1643J-2902D01*
G01X1934330Y1537326D02*
X1936299Y1539295D01*
X1903421Y1525017D02*
G03X1904450Y1524597I1029J1050D01*
G01X1904450D02*
G03X1903421Y1524177I0J-1469D01*
G01X1903539Y1524721D02*
G03X1904450Y1524597I911J3283D01*
G01X1904450D02*
G03X1903539Y1524473I0J-3405D01*
G01X1939093Y1530279D02*
G03X1939515Y1531281I-1016J1017D01*
G01X1940096Y1530700D02*
G03X1939093Y1530279I15J-1438D01*
G01X1939093D02*
G03X1939638Y1530994I-2357J2358D01*
G01X1939809Y1530823D02*
G03X1939093Y1530279I1643J-2902D01*
G01X1902800Y1524597D02*
X1906717D01*
X1906717D02*
X1908557Y1526437D01*
X1908557D02*
X1928571D01*
X1928571D02*
X1931586Y1529452D01*
X1931586D02*
X1938267D01*
X1938267D02*
X1940236Y1531421D01*
X1942258Y1526230D02*
G03X1943291Y1526639I16J1470D01*
X1942839Y1525624I1017J-1060*
G01X1942548Y1526098D02*
G03X1943291Y1526639I-1613J3000D01*
X1942719Y1525919I2357J-2459*
G01X1943006Y1526366D02*
G03X1943449Y1527360I-994J1039D01*
G01X1944018Y1526766D02*
G03X1943006Y1526366I-15J-1438D01*
G01X1943006D02*
G03X1943566Y1527070I-2306J2408D01*
G01X1943734Y1526895D02*
G03X1943006Y1526366I1580J-2936D01*
G01X1942100Y1525497D02*
X1944173Y1527484D01*
X1942505Y1534140D02*
G03X1943506Y1534621I-88J1467D01*
G01X1943506D02*
G03X1943128Y1533576I1090J-985D01*
G01X1942804Y1534029D02*
G03X1943506Y1534621I-1823J2877D01*
G01X1943506D02*
G03X1942988Y1533863I2527J-2284D01*
G01X1943089Y1534160D02*
G03X1943460Y1535182I-1066J965D01*
G01X1944070Y1534631D02*
G03X1943089Y1534160I86J-1435D01*
G01X1943089D02*
G03X1943597Y1534902I-2472J2237D01*
G01X1943777Y1534739D02*
G03X1943089Y1534160I1786J-2815D01*
G01X1942400Y1533397D02*
X1944173Y1535358D01*
X1918421Y1529517D02*
G03X1919450Y1529097I1029J1050D01*
G01X1919450D02*
G03X1918421Y1528677I0J-1469D01*
G01X1918539Y1529221D02*
G03X1919450Y1529097I911J3283D01*
G01X1919450D02*
G03X1918539Y1528973I0J-3405D01*
G01X1934683Y1531421D02*
G03X1935690Y1531832I0J1439D01*
G01Y1531010D02*
G03X1934683Y1531421I-1006J-1027D01*
G01X1934683D02*
G03X1935575Y1531542I0J3335D01*
G01Y1531299D02*
G03X1934683Y1531421I-891J-3212D01*
G01X1917800Y1529097D02*
X1920764D01*
X1920764D02*
X1921814Y1528047D01*
X1921814D02*
X1928571D01*
X1928571D02*
X1931945Y1531421D01*
X1936299*
X1949905Y1514419D02*
G03X1950962Y1514760I110J1465D01*
X1950445Y1513776I946J-1124*
G01X1950186Y1514268D02*
G03X1950962Y1514760I-1417J3098D01*
X1950345Y1514079I2194J-2606*
G01X1950811Y1514633D02*
G03X1951317Y1515595I-926J1100D01*
G01X1951846Y1514966D02*
G03X1950811Y1514633I-108J-1433D01*
X1951415Y1515299I-2147J2551*
G01X1951571Y1515114D02*
G03X1950811Y1514633I1387J-3032D01*
G01X1949700Y1513697D02*
X1952047Y1515673D01*
X1946157Y1530130D02*
G03X1947190Y1530539I16J1470D01*
G01X1947190D02*
G03X1946739Y1529524I1018J-1060D01*
G01X1946448Y1529999D02*
G03X1947190Y1530539I-1614J2999D01*
G01X1947190D02*
G03X1946619Y1529820I2358J-2458D01*
G01X1946944Y1530303D02*
G03X1947386Y1531296I-995J1038D01*
G01X1947955Y1530703D02*
G03X1946944Y1530303I-14J-1438D01*
X1947503Y1531007I-2307J2407*
G01X1947671Y1530832D02*
G03X1946944Y1530303I1581J-2935D01*
G01X1946000Y1529397D02*
X1948110Y1531421D01*
X1931800Y1543197D02*
Y1543214D01*
X1931800D02*
X1936299D01*
X1936299D02*
Y1543232D01*
X1942572Y1530144D02*
G03X1943551Y1530669I-153J1461D01*
X1943219Y1529608I1133J-936*
G01X1942875Y1530046D02*
G03X1943551Y1530669I-1948J2794D01*
X1943066Y1529888I2625J-2170*
G01X1943143Y1530176D02*
G03X1943468Y1531214I-1107J917D01*
G01X1944102Y1530690D02*
G03X1943143Y1530176I150J-1430D01*
G01X1943143D02*
G03X1943618Y1530940I-2569J2125D01*
G01X1943805Y1530785D02*
G03X1943143Y1530176I1909J-2733D01*
G01X1942500Y1529397D02*
X1944173Y1531421D01*
X1947121Y1525917D02*
G03X1948150Y1525497I1029J1050D01*
G01X1948150D02*
G03X1947121Y1525077I0J-1469D01*
G01X1947239Y1525621D02*
G03X1948150Y1525497I911J3283D01*
G01X1948150D02*
G03X1947239Y1525373I0J-3405D01*
G01X1950905Y1526342D02*
G03X1951326Y1527344I-1017J1017D01*
G01X1951907Y1526763D02*
G03X1950905Y1526342I15J-1438D01*
X1951449Y1527057I-2358J2358*
G01X1951620Y1526886D02*
G03X1950905Y1526342I1643J-2902D01*
G01X1946500Y1525497D02*
X1950060D01*
X1950060D02*
X1952047Y1527484D01*
X1950402Y1522340D02*
G03X1951401Y1522826I-95J1467D01*
X1951027Y1521780I1094J-980*
G01X1950701Y1522231D02*
G03X1951401Y1522826I-1836J2868D01*
X1950885Y1522065I2537J-2273*
G01X1950969Y1522344D02*
G03X1951335Y1523368I-1071J960D01*
G01X1951947Y1522819D02*
G03X1950969Y1522344I93J-1434D01*
X1951473Y1523088I-2483J2226*
G01X1951654Y1522927D02*
G03X1950969Y1522344I1798J-2808D01*
G01X1950300Y1521597D02*
X1952047Y1523547D01*
X1923321Y1530217D02*
G03X1924350Y1529797I1029J1050D01*
G01X1924350D02*
G03X1923321Y1529377I0J-1469D01*
G01X1923439Y1529921D02*
G03X1924350Y1529797I911J3283D01*
G01X1924350D02*
G03X1923439Y1529673I0J-3405D01*
G01X1939093Y1534216D02*
G03X1939515Y1535218I-1016J1017D01*
G01X1940096Y1534637D02*
G03X1939093Y1534216I15J-1438D01*
G01X1939093D02*
G03X1939638Y1534931I-2357J2358D01*
G01X1939809Y1534760D02*
G03X1939093Y1534216I1643J-2902D01*
G01X1922700Y1529797D02*
X1924862D01*
X1924862D02*
X1925158Y1529501D01*
X1925158D02*
X1928571D01*
X1928571D02*
X1932460Y1533389D01*
X1932460D02*
X1938267D01*
X1938267D02*
X1940236Y1535358D01*
X1954519Y1492876D02*
G03X1954100Y1491847I1050J-1028D01*
G01X1954100D02*
G03X1953680Y1492876I-1469J0D01*
G01X1954223Y1492757D02*
G03X1954100Y1491847I3283J-909D01*
G01X1954099D02*
G03X1953976Y1492757I-3405J0D01*
G01X1954100Y1493497D02*
Y1491327D01*
X1962197Y1526241D02*
G03X1963193Y1526733I-104J1466D01*
G01X1963193D02*
G03X1962826Y1525684I1101J-973D01*
G01X1962497Y1526133D02*
G03X1963193Y1526733I-1854J2857D01*
G01X1963193D02*
G03X1962683Y1525969I2551J-2257D01*
G01X1962787Y1526274D02*
G03X1963147Y1527301I-1076J954D01*
G01X1963762Y1526756D02*
G03X1962787Y1526274I103J-1434D01*
G01X1962787D02*
G03X1963287Y1527022I-2496J2210D01*
G01X1963469Y1526861D02*
G03X1962787Y1526274I1816J-2796D01*
G01X1962100Y1525497D02*
X1963858Y1527484D01*
X1959419Y1486876D02*
G03X1959000Y1485847I1050J-1028D01*
G01X1959000D02*
G03X1958580Y1486876I-1469J0D01*
G01X1959123Y1486757D02*
G03X1959000Y1485847I3283J-909D01*
G01X1958999D02*
G03X1958876Y1486757I-3405J0D01*
G01X1959000Y1487497D02*
Y1485196D01*
X1961299Y1482897*
Y1475909*
X1955531Y1488922D02*
G03X1955111Y1487893I1049J-1028D01*
G01X1955111D02*
G03X1954691Y1488922I-1469J0D01*
G01X1955235Y1488804D02*
G03X1955111Y1487893I3282J-910D01*
G01X1955111D02*
G03X1954987Y1488804I-3406J0D01*
G01X1955111Y1489543D02*
Y1487219D01*
X1955111D02*
X1958937Y1483393D01*
X1958937D02*
Y1475909D01*
X1950837Y1548958D02*
G03X1951272Y1547936I1469J22D01*
G01X1951272D02*
G03X1950246Y1548362I-1033J-1043D01*
G01X1950712Y1548665D02*
G03X1951272Y1547936I2957J1692D01*
G01X1951272D02*
G03X1950538Y1548489I-2396J-2419D01*
G01X1950899Y1548305D02*
G03X1951904Y1547889I1012J1023D01*
G01X1951325Y1547305D02*
G03X1950899Y1548305I-1437J-21D01*
G01X1950899D02*
G03X1951618Y1547765I2347J2370D01*
G01X1951447Y1547592D02*
G03X1950899Y1548305I-2894J-1655D01*
G01X1950100Y1549097D02*
X1952047Y1547169D01*
X1950446Y1545120D02*
G03X1950965Y1544138I1462J145D01*
X1949906Y1544476I-943J-1126*
G01X1950346Y1544817D02*
G03X1950965Y1544138I2806J1933D01*
X1950187Y1544627I-2186J-2611*
G01X1950808Y1544269D02*
G03X1951844Y1543938I924J1103D01*
G01X1951316Y1543307D02*
G03X1950808Y1544269I-1430J-140D01*
G01X1950808D02*
G03X1951569Y1543790I2141J2557D01*
G01X1951414Y1543604D02*
G03X1950808Y1544269I-2746J-1891D01*
G01X1949700Y1545197D02*
X1952047Y1543232D01*
X1946478Y1541943D02*
G03X1947461Y1542460I-141J1463D01*
G01X1947461D02*
G03X1947121Y1541403I1125J-944D01*
G01X1946781Y1541843D02*
G03X1947461Y1542460I-1927J2809D01*
G01X1947461D02*
G03X1946970Y1541684I2608J-2191D01*
G01X1947070Y1541995D02*
G03X1947404Y1543031I-1100J926D01*
G01X1948033Y1542502D02*
G03X1947070Y1541995I139J-1432D01*
G01X1947070D02*
G03X1947551Y1542755I-2552J2146D01*
G01X1947737Y1542599D02*
G03X1947070Y1541995I1886J-2749D01*
G01X1946400Y1541197D02*
X1948110Y1543232D01*
X1966221Y1557417D02*
G03X1967250Y1556997I1029J1050D01*
G01X1967250D02*
G03X1966221Y1556577I0J-1469D01*
G01X1966339Y1557121D02*
G03X1967250Y1556997I911J3283D01*
G01X1967250D02*
G03X1966339Y1556873I0J-3405D01*
G01X1970590Y1556185D02*
G03X1971592Y1555764I1017J1017D01*
G01X1971011Y1555182D02*
G03X1970590Y1556185I-1438J-13D01*
G01X1970590D02*
G03X1971305Y1555641I2358J2358D01*
G01X1971134Y1555469D02*
G03X1970590Y1556185I-2902J-1641D01*
G01X1965600Y1556997D02*
X1969777D01*
X1969777D02*
X1971732Y1555043D01*
X1920121Y1551017D02*
G03X1921150Y1550597I1029J1050D01*
G01X1921150D02*
G03X1920121Y1550177I0J-1469D01*
G01X1920239Y1550721D02*
G03X1921150Y1550597I911J3283D01*
G01X1921150D02*
G03X1920239Y1550473I0J-3405D01*
G01X1939093Y1552248D02*
G03X1940096Y1551827I1018J1017D01*
G01X1939515Y1551245D02*
G03X1939093Y1552248I-1438J-13D01*
G01X1939093D02*
G03X1939809Y1551704I2359J2358D01*
G01X1939638Y1551532D02*
G03X1939093Y1552248I-2902J-1641D01*
G01X1919500Y1550597D02*
X1921596D01*
X1921596D02*
X1922528Y1549666D01*
X1925840*
X1925840D02*
X1932952Y1556777D01*
X1932952D02*
X1937017D01*
X1937017D02*
X1938267Y1555527D01*
X1938267D02*
Y1553074D01*
X1938267D02*
X1940236Y1551106D01*
X1913021Y1543217D02*
G03X1914050Y1542797I1029J1050D01*
G01X1914050D02*
G03X1913021Y1542377I0J-1469D01*
G01X1913139Y1542921D02*
G03X1914050Y1542797I911J3283D01*
G01X1914050D02*
G03X1913139Y1542673I0J-3405D01*
G01X1943031Y1549964D02*
G03X1943452Y1550966I-1017J1017D01*
G01X1944033Y1550385D02*
G03X1943031Y1549964I15J-1438D01*
X1943575Y1550679I-2358J2358*
G01X1943746Y1550508D02*
G03X1943031Y1549964I1643J-2902D01*
G01X1912400Y1542797D02*
X1914527D01*
X1914527D02*
X1915305Y1543576D01*
X1915305D02*
X1923600D01*
X1923600D02*
X1930984Y1550959D01*
X1930984D02*
X1933700D01*
X1933700D02*
X1935580Y1552840D01*
X1935580D02*
X1937017D01*
X1937017D02*
X1938267Y1551590D01*
X1938267D02*
Y1550622D01*
X1938267D02*
X1939517Y1549372D01*
X1939517D02*
X1942438D01*
X1942438D02*
X1944173Y1551106D01*
X1904542Y1537333D02*
G03X1905566Y1537764I-14J1470D01*
G01X1905566D02*
G03X1905136Y1536740I1039J-1038D01*
G01X1904835Y1537208D02*
G03X1905566Y1537764I-1677J2965D01*
G01X1905566D02*
G03X1905010Y1537033I2409J-2408D01*
G01X1946968Y1546027D02*
G03X1947389Y1547029I-1017J1017D01*
G01X1947970Y1546448D02*
G03X1946968Y1546027I15J-1438D01*
X1947512Y1546742I-2358J2358*
G01X1947683Y1546571D02*
G03X1946968Y1546027I1643J-2902D01*
G01X1904400Y1536597D02*
X1908644Y1540841D01*
X1908644D02*
X1914262D01*
X1914262D02*
X1915803Y1542382D01*
X1915803D02*
X1924974D01*
X1924974D02*
X1931495Y1548903D01*
X1931495D02*
X1937017D01*
X1937017D02*
X1938267Y1547653D01*
X1938267D02*
Y1546685D01*
X1938267D02*
X1939517Y1545435D01*
X1939517D02*
X1946375D01*
X1946375D02*
X1948110Y1547169D01*
X1950738Y1552965D02*
G03X1951182Y1551947I1469J35D01*
G01X1951182D02*
G03X1950152Y1552363I-1023J-1053D01*
G01X1950616Y1552670D02*
G03X1951182Y1551947I2942J1719D01*
G01X1951182D02*
G03X1950443Y1552493I-2374J-2441D01*
G01X1950889Y1552232D02*
G03X1951897Y1551825I1003J1032D01*
G01X1951324Y1551235D02*
G03X1950889Y1552232I-1437J-33D01*
G01X1950889D02*
G03X1951612Y1551698I2325J2391D01*
G01X1951443Y1551524D02*
G03X1950889Y1552232I-2879J-1682D01*
G01X1950000Y1553097D02*
X1952047Y1551106D01*
X1954921Y1553417D02*
G03X1955950Y1552997I1029J1050D01*
G01X1955950D02*
G03X1954921Y1552577I0J-1469D01*
G01X1955039Y1553121D02*
G03X1955950Y1552997I911J3283D01*
G01X1955950D02*
G03X1955039Y1552873I0J-3405D01*
G01X1962716Y1557838D02*
G03X1963137Y1558840I-1017J1017D01*
G01X1963718Y1558259D02*
G03X1962716Y1557838I15J-1438D01*
X1963260Y1558554I-2358J2358*
G01X1963431Y1558382D02*
G03X1962716Y1557838I1643J-2902D01*
G01X1954300Y1552997D02*
X1960328D01*
X1960328D02*
X1961889Y1554559D01*
X1961889D02*
Y1557011D01*
X1961889D02*
X1963858Y1558980D01*
X1965979Y1553543D02*
G03X1966964Y1554058I-137J1463D01*
G01X1966964D02*
G03X1966621Y1553001I1123J-947D01*
G01X1966282Y1553442D02*
G03X1966964Y1554058I-1921J2813D01*
G01X1966964D02*
G03X1966471Y1553283I2603J-2196D01*
G01X1966753Y1553808D02*
G03X1967088Y1554843I-1099J928D01*
G01X1967717Y1554313D02*
G03X1966753Y1553808I135J-1432D01*
G01X1966753D02*
G03X1967235Y1554568I-2548J2151D01*
G01X1967420Y1554411D02*
G03X1966753Y1553808I1882J-2753D01*
G01X1965900Y1552797D02*
X1967795Y1555043D01*
X1964269Y1511127D02*
G03X1963858Y1510120I1028J-1006D01*
G01X1963858D02*
G03X1963447Y1511127I-1438J0D01*
G01X1963979Y1511012D02*
G03X1963858Y1510120I3214J-891D01*
G01X1963858D02*
G03X1963736Y1511012I-3334J0D01*
G01X1964700Y1506572D02*
G03X1965119Y1505543I1469J0D01*
G01X1964280D02*
G03X1964700Y1506572I-1049J1029D01*
G01X1964700D02*
G03X1964823Y1505662I3406J0D01*
G01X1964576D02*
G03X1964699Y1506572I-3282J910D01*
G01X1963858Y1511736D02*
Y1508758D01*
X1964700Y1507916*
Y1504922*
X1948521Y1511127D02*
G03X1948110Y1510120I1028J-1006D01*
G01X1948110D02*
G03X1947699Y1511127I-1438J0D01*
G01X1948231Y1511012D02*
G03X1948110Y1510120I3214J-891D01*
G01X1948110D02*
G03X1947988Y1511012I-3334J0D01*
G01X1948110Y1511736D02*
Y1509142D01*
X1968517Y1515538D02*
G03X1968945Y1514538I1438J25D01*
G01X1968945D02*
G03X1967939Y1514953I-1009J-1023D01*
G01X1968396Y1515251D02*
G03X1968945Y1514538I2891J1662D01*
G01X1968945D02*
G03X1968225Y1515078I-2341J-2373D01*
G01X1968725Y1514756D02*
G03X1969752Y1514332I1032J1046D01*
G01X1969162Y1513734D02*
G03X1968725Y1514756I-1468J-24D01*
X1969460Y1514205I2392J2425*
G01X1969286Y1514028D02*
G03X1968725Y1514756I-2952J-1697D01*
G01X1967795Y1515673D02*
X1969900Y1513597D01*
X1960642Y1519470D02*
G03X1961063Y1518468I1438J15D01*
X1960060Y1518889I-1016J-1017*
G01X1960519Y1519183D02*
G03X1961063Y1518468I2902J1643D01*
X1960347Y1519012I-2357J-2358*
G01X1959921Y1519610D02*
X1961655Y1517875D01*
X1961655D02*
Y1513704D01*
X1956708Y1519487D02*
G03X1957153Y1518495I1438J49D01*
G01X1957153D02*
G03X1956140Y1518892I-992J-1040D01*
G01X1956592Y1519198D02*
G03X1957153Y1518495I2862J1711D01*
G01X1957153D02*
G03X1956424Y1519022I-2301J-2413D01*
G01X1957005Y1518636D02*
G03X1958040Y1518230I1014J1063D01*
G01X1957460Y1517622D02*
G03X1957005Y1518636I-1468J-49D01*
G01X1957005D02*
G03X1957750Y1518097I2351J2465D01*
G01X1957579Y1517918D02*
G03X1957005Y1518636I-2923J-1747D01*
G01X1955984Y1519610D02*
X1958200Y1517497D01*
X1968523Y1523450D02*
G03X1969002Y1522473I1435J98D01*
G01X1969002D02*
G03X1967976Y1522835I-955J-1074D01*
G01X1968417Y1523156D02*
G03X1969002Y1522473I2801J1809D01*
G01X1969002D02*
G03X1968255Y1522975I-2215J-2491D01*
G01X1968867Y1522594D02*
G03X1969914Y1522224I976J1098D01*
G01X1969356Y1521596D02*
G03X1968867Y1522594I-1465J-100D01*
X1969629Y1522081I2263J2545*
G01X1969464Y1521896D02*
G03X1968867Y1522594I-2860J-1847D01*
G01X1967795Y1523547D02*
X1970100Y1521497D01*
X1960642Y1523407D02*
G03X1961063Y1522405I1438J15D01*
X1960060Y1522826I-1016J-1017*
G01X1960519Y1523120D02*
G03X1961063Y1522405I2902J1643D01*
X1960347Y1522949I-2357J-2358*
G01X1959921Y1523547D02*
X1961889Y1521578D01*
X1961889D02*
Y1519126D01*
X1961889D02*
X1963374Y1517641D01*
X1963374D02*
X1964342D01*
X1964342D02*
X1965826Y1516157D01*
X1965826D02*
Y1511252D01*
X1965826D02*
X1967113Y1509965D01*
X1967706*
X1967706D02*
X1969460Y1508211D01*
X1969460D02*
Y1506928D01*
X1969460D02*
X1971679Y1504709D01*
X1971679D02*
Y1500367D01*
X1956703Y1523397D02*
G03X1957110Y1522389I1438J-3D01*
G01X1957110D02*
G03X1956113Y1522824I-1030J-1002D01*
G01X1956576Y1523112D02*
G03X1957110Y1522389I2924J1603D01*
G01X1957110D02*
G03X1956402Y1522943I-2389J-2325D01*
G01X1956749Y1522761D02*
G03X1957767Y1522316I1053J1025D01*
G01X1957165Y1521731D02*
G03X1956749Y1522761I-1469J5D01*
X1957472Y1522195I2441J2376*
G01X1957295Y1522022D02*
G03X1956749Y1522761I-2987J-1636D01*
G01X1955984Y1523547D02*
X1957900Y1521578D01*
X1944295Y1547893D02*
G03X1945288Y1548337I-47J1438D01*
G01X1945288D02*
G03X1944890Y1547325I1041J-992D01*
G01X1944585Y1547776D02*
G03X1945288Y1548337I-1709J2864D01*
G01X1945288D02*
G03X1944760Y1547609I2413J-2301D01*
G01X1945160Y1548204D02*
G03X1945567Y1549238I-1062J1014D01*
G01X1946174Y1548658D02*
G03X1945160Y1548204I49J-1468D01*
G01X1945160D02*
G03X1945699Y1548948I-2463J2352D01*
G01X1945878Y1548777D02*
G03X1945160Y1548204I1747J-2924D01*
G01X1944173Y1547169D02*
X1946300Y1549397D01*
X2046574Y1551496D02*
Y1549921D01*
X1990650Y1487497D02*
Y1488687D01*
X1990650*
X2006181Y1475909D02*
Y1482633D01*
X2007692Y1484144*
X2007692D02*
Y1488288D01*
X2007692D02*
X2008788Y1489383D01*
X1970622Y1497285D02*
G03X1971041Y1496257I1469J0D01*
G01X1970202D02*
G03X1970622Y1497285I-1049J1028D01*
G01X1970622D02*
G03X1970745Y1496375I3406J0D01*
G01X1970498D02*
G03X1970622Y1497285I-3282J910D01*
G01Y1495635D02*
Y1498585D01*
X1971679Y1499642*
X2010396Y1480187D02*
G03X2010905Y1483609I-11255J3422D01*
G01X2010905D02*
G03X2011414Y1480187I11765J0D01*
G01X2010905Y1483609D02*
Y1480187D01*
Y1475909D02*
Y1483831D01*
X2010905D02*
X2011218Y1484144D01*
X2020043Y1501754D02*
Y1502479D01*
X2021078Y1503515*
X2021078D02*
X2026489D01*
X2026489D02*
X2027816Y1504842D01*
X2027816D02*
X2029444D01*
X2030863Y1506261*
X2031656Y1480187D02*
G03X2032165Y1483609I-11255J3422D01*
X2032674Y1480187I11765J0*
G01X2032165Y1483609D02*
Y1480187D01*
Y1475909D02*
Y1484587D01*
X2032165D02*
X2032450Y1484872D01*
X2039251Y1475909D02*
Y1483165D01*
X2039251D02*
X2041000Y1484913D01*
X2040567Y1489465D02*
Y1490190D01*
X2040567D02*
X2041150Y1490772D01*
X2010850Y1542347D02*
Y1543584D01*
X2010962Y1543697*
X1972866Y1489730D02*
Y1488921D01*
X1972866D02*
X1973481Y1488306D01*
X2040828Y1536826D02*
Y1536101D01*
X2043387Y1533542*
X2043553Y1522443D02*
Y1520718D01*
X2043553D02*
X2043950Y1520322D01*
X2049919Y1502397D02*
Y1507066D01*
X2049919D02*
X2050250Y1507397D01*
X2049761Y1526299D02*
Y1526936D01*
X2049761D02*
X2050699Y1527874D01*
X2050699D02*
X2051898D01*
X2051898D02*
X2052836Y1528812D01*
X2039417Y1521380D02*
Y1523730D01*
X2041033Y1519764D02*
G03X2042057Y1519333I1039J1039D01*
G01X2041463Y1518740D02*
G03X2041033Y1519764I-1468J-14D01*
X2041764Y1519208I2409J2409*
G01X2041589Y1519033D02*
G03X2041033Y1519764I-2964J-1677D01*
G01X2039417Y1521380D02*
X2042200Y1518597D01*
X2048350Y1488297D02*
Y1484605D01*
X2048700Y1484254*
X1991499Y1480187D02*
G03X1992007Y1483609I-11256J3422D01*
G01X1992007D02*
G03X1992516Y1480187I11766J0D01*
G01X1992007Y1483609D02*
Y1480187D01*
X1990650Y1487497D02*
Y1485282D01*
X1992007Y1483924*
X1992007D02*
Y1475909D01*
X1990650Y1489147D02*
Y1488687D01*
X2035654Y1535335D02*
Y1532598D01*
X2044164Y1546032D02*
G03X2044897Y1545724I744J745D01*
G01X2044472Y1545298D02*
G03X2044164Y1546032I-1052J-9D01*
G01X2044164D02*
X2044620Y1545576D01*
X2040306Y1544572D02*
Y1545826D01*
X2040306D02*
X2041213Y1546734D01*
X2041213D02*
X2043462D01*
X2043462D02*
X2045000Y1545196D01*
X2040306Y1544572D02*
X2041243Y1542893D01*
X2041243D02*
X2041250Y1542897D01*
X2008788Y1490300D02*
Y1489383D01*
X1971679Y1500367D02*
Y1499642D01*
X2011218Y1487414D02*
Y1484144D01*
X2029294Y1480187D02*
G03X2029803Y1483609I-11256J3422D01*
X2030311Y1480187I11765J0*
G01X2029803Y1483609D02*
Y1480187D01*
X2020043Y1501754D02*
Y1499258D01*
X2020043D02*
X2025730Y1493571D01*
X2025730D02*
Y1490592D01*
X2025730D02*
X2027163Y1489158D01*
X2027163D02*
X2027563D01*
X2027563D02*
X2029803Y1486919D01*
X2029803D02*
Y1475909D01*
X2030863Y1506986D02*
Y1506261D01*
X2032450Y1488897D02*
Y1484872D01*
X2041000Y1487497D02*
Y1484913D01*
X2040567Y1489465D02*
Y1488697D01*
X2040567D02*
X2041000Y1488265D01*
Y1487497*
X2041150Y1491497D02*
Y1490772D01*
X2041014Y1533434D02*
G03X2041748Y1533126I745J745D01*
G01X2041322Y1532700D02*
G03X2041014Y1533434I-1052J-10D01*
G01X2041470Y1532978*
X2010850Y1542347D02*
Y1541622D01*
X2010850D02*
X2012661Y1539811D01*
X2012661D02*
X2017064D01*
X2017064D02*
X2021228Y1535647D01*
X2021228D02*
X2025414D01*
X2025414D02*
X2026779Y1537011D01*
X2026779D02*
X2032239D01*
X2032239D02*
X2033621Y1538394D01*
X2033621D02*
X2037121D01*
X2037121D02*
X2040257Y1535258D01*
X2040257D02*
Y1534191D01*
X2040257D02*
X2041850Y1532598D01*
X2010962Y1545897D02*
Y1543697D01*
X2016133Y1507330D02*
G03X2016563Y1508355I-1038J1040D01*
G01X2017157Y1507761D02*
G03X2016133Y1507330I15J-1469D01*
G01X2016133D02*
G03X2016689Y1508062I-2408J2409D01*
G01X2016864Y1507886D02*
G03X2016133Y1507330I1678J-2963D01*
G01X1972866Y1489730D02*
Y1490455D01*
X1972866D02*
X1977054Y1494643D01*
X1977054D02*
Y1495978D01*
X1977054D02*
X1987224Y1506148D01*
X1988706*
X1988706D02*
X1989090Y1506531D01*
X2015333*
X2015333D02*
X2017300Y1508497D01*
X1973481Y1487497D02*
Y1488306D01*
X2040828Y1536826D02*
Y1537551D01*
X2043000Y1539723*
X2043000D02*
Y1544031D01*
X2043387Y1532598D02*
Y1533542D01*
X2045300Y1525853D02*
G03X2045000Y1525116I753J-736D01*
G01X2044999D02*
G03X2044699Y1525853I-1052J0D01*
G01X2045000Y1525116D02*
Y1525761D01*
X2043553Y1522443D02*
Y1523192D01*
X2043553D02*
X2045000Y1524638D01*
Y1526299*
X2043950Y1518597D02*
Y1520322D01*
X2039417Y1523730D02*
Y1524455D01*
X2040275Y1525313*
X2040275D02*
Y1526898D01*
X2040275D02*
X2041213Y1527837D01*
X2041213D02*
X2042829D01*
X2042829D02*
X2043574Y1528581D01*
X2044951Y1529519*
X2044951D02*
X2045000Y1529448D01*
X2049919Y1502397D02*
Y1500709D01*
X2050869Y1499758*
X2050869D02*
X2051313D01*
X2051313D02*
X2053155Y1497917D01*
Y1496627*
X2053155D02*
X2054485Y1495297D01*
X2055424*
X2055424D02*
X2059550Y1491172D01*
Y1489147*
X2049761Y1526299D02*
Y1525386D01*
X2049761D02*
X2050250Y1524898D01*
Y1523897*
X2053050Y1493547D02*
G03X2054078Y1493967I0J1470D01*
G01Y1493127D02*
G03X2053050Y1493547I-1028J-1049D01*
X2053960Y1493671I0J3406*
G01Y1493423D02*
G03X2053050Y1493547I-910J-3282D01*
G01X2048350Y1488297D02*
Y1490622D01*
X2048350D02*
X2051274Y1493547D01*
X2051274D02*
X2054700D01*
X2046574Y1553070D02*
Y1551496D01*
X1995141Y1491864D02*
G03X1996169Y1491444I1028J1050D01*
G01X1996169D02*
G03X1995141Y1491024I0J-1469D01*
G01X1995259Y1491568D02*
G03X1996169Y1491444I910J3283D01*
G01X1996169D02*
G03X1995259Y1491320I0J-3406D01*
G01X1994519Y1491444D02*
X1998570D01*
X1998570D02*
X1998784Y1491658D01*
X1998784D02*
X2003142D01*
X2003142D02*
X2003453Y1491347D01*
X2003453D02*
X2005610D01*
X2005610D02*
X2006313Y1492050D01*
X2007762*
X2007762D02*
X2008788Y1491024D01*
X2008788D02*
Y1490300D01*
X2023747Y1487476D02*
G03X2023327Y1486447I1050J-1028D01*
G01X2023327D02*
G03X2022907Y1487476I-1469J0D01*
G01X2023451Y1487357D02*
G03X2023327Y1486447I3283J-909D01*
G01X2023327D02*
G03X2023203Y1487357I-3406J0D01*
G01X2023327Y1488097D02*
Y1485316D01*
X2023327D02*
X2025078Y1483565D01*
X2025078D02*
Y1475909D01*
X2017747Y1486876D02*
G03X2017327Y1485847I1050J-1028D01*
G01X2017327D02*
G03X2016907Y1486876I-1469J0D01*
G01X2017451Y1486757D02*
G03X2017327Y1485847I3283J-909D01*
G01X2017327D02*
G03X2017203Y1486757I-3406J0D01*
G01X2017327Y1487497D02*
Y1483799D01*
X2017327D02*
X2017992Y1483135D01*
Y1475909*
X2002989Y1498565D02*
G03X2004018Y1498145I1029J1050D01*
G01X2004018D02*
G03X2002989Y1497725I0J-1469D01*
G01X2003107Y1498269D02*
G03X2004018Y1498145I911J3283D01*
G01X2004018D02*
G03X2003107Y1498021I0J-3406D01*
G01X2002368Y1498145D02*
X2004329D01*
X2004329D02*
X2005355Y1499171D01*
X2011092*
X2011092D02*
X2012118Y1498146D01*
Y1496804*
X2012118D02*
X2015375Y1493547D01*
X2015375D02*
X2015711D01*
X2015711D02*
X2017722Y1491536D01*
X2017722D02*
Y1490207D01*
X2019158Y1488771*
Y1483763*
X2020354Y1482567*
Y1475909*
X1996819Y1486876D02*
G03X1996400Y1485847I1050J-1028D01*
G01X1996400D02*
G03X1995980Y1486876I-1469J0D01*
G01X1996523Y1486757D02*
G03X1996400Y1485847I3283J-909D01*
G01X1996399D02*
G03X1996276Y1486757I-3405J0D01*
G01X1996223Y1480187D02*
G03X1996732Y1483609I-11256J3422D01*
X1997240Y1480187I11765J0*
G01X1996732Y1483609D02*
Y1480187D01*
X1996400Y1487497D02*
Y1484899D01*
X1996400D02*
X1996732Y1484567D01*
Y1475909*
X1990519Y1490997D02*
X1990650D01*
X1990650D02*
Y1489147D01*
X1998630Y1488857D02*
G03X1998210Y1487828I1050J-1028D01*
G01X1998210D02*
G03X1997790Y1488857I-1468J0D01*
G01X1998334Y1488739D02*
G03X1998210Y1487828I3283J-910D01*
G01X1998210D02*
G03X1998086Y1488739I-3405J0D01*
G01X1998585Y1480187D02*
G03X1999094Y1483609I-11255J3422D01*
X1999603Y1480187I11765J0*
G01X1999094Y1483609D02*
Y1480187D01*
X1998210Y1489478D02*
Y1484899D01*
X1998210D02*
X1999094Y1484016D01*
Y1475909*
X2009504Y1493490D02*
X2009586D01*
X2009586D02*
Y1491640D01*
X2009586D02*
X2011218Y1490008D01*
X2011218D02*
Y1487414D01*
X1997381Y1493683D02*
G03X1998134Y1492867I1376J515D01*
G01X1998134D02*
G03X1997025Y1492922I-621J-1330D01*
G01X1997362Y1493365D02*
G03X1998134Y1492867I2216J2588D01*
G01X1998134D02*
G03X1997257Y1493140I-1442J-3085D01*
G01X2012759Y1480187D02*
G03X2013267Y1483609I-11256J3422D01*
G01X2013267D02*
G03X2013776Y1480187I11766J0D01*
G01X2013267Y1483609D02*
Y1480187D01*
X1996640Y1493566D02*
X1998422Y1492732D01*
X1998422D02*
X2001205D01*
X2001205D02*
X2003713Y1495240D01*
X2003713D02*
X2010228D01*
X2010228D02*
X2012727Y1492742D01*
X2012727D02*
Y1486704D01*
X2012727D02*
X2013267Y1486164D01*
X2013267D02*
Y1475909D01*
X2037642Y1498833D02*
G03X2038666Y1499264I-14J1470D01*
G01X2038666D02*
G03X2038236Y1498240I1039J-1038D01*
G01X2037935Y1498708D02*
G03X2038666Y1499264I-1677J2965D01*
G01X2038666D02*
G03X2038110Y1498533I2409J-2408D01*
G01X2045723Y1521822D02*
G03X2045303Y1520793I1050J-1028D01*
G01X2045303D02*
G03X2044883Y1521822I-1469J0D01*
G01X2045427Y1521704D02*
G03X2045303Y1520793I3283J-910D01*
G01X2045303D02*
G03X2045179Y1521704I-3406J0D01*
G01X2037500Y1498097D02*
X2042250Y1502847D01*
X2042250D02*
Y1513161D01*
X2045303Y1516214*
X2045303D02*
Y1522443D01*
X2022529Y1501612D02*
G03X2022959Y1500587I1469J15D01*
G01X2022959D02*
G03X2021935Y1501018I-1038J-1038D01*
G01X2022403Y1501319D02*
G03X2022959Y1500587I2965J1677D01*
G01X2022959D02*
G03X2022228Y1501143I-2408J-2407D01*
G01X2021793Y1501754D02*
X2023575Y1499972D01*
X2023575D02*
Y1499147D01*
X2023575D02*
X2026792Y1495930D01*
X2027910*
X2032450Y1491390*
X2032450D02*
Y1488897D01*
X2026536Y1499255D02*
G03X2026966Y1498230I1469J15D01*
G01X2026966D02*
G03X2025942Y1498661I-1038J-1038D01*
G01X2026410Y1498962D02*
G03X2026966Y1498230I2965J1677D01*
G01X2026966D02*
G03X2026235Y1498786I-2408J-2407D01*
G01X2036381Y1480187D02*
G03X2036889Y1483609I-11256J3422D01*
G01X2036889D02*
G03X2037398Y1480187I11766J0D01*
G01X2036889Y1483609D02*
Y1480187D01*
X2025800Y1499397D02*
X2027517Y1497680D01*
X2029291*
X2031824Y1495147*
X2031824D02*
X2034389D01*
X2034389D02*
X2036889Y1492646D01*
X2036889D02*
Y1475909D01*
X2020718Y1547792D02*
G03X2021746Y1547372I1028J1050D01*
G01X2021746D02*
G03X2020718Y1546952I0J-1468D01*
G01X2020836Y1547496D02*
G03X2021746Y1547372I910J3283D01*
G01X2021746D02*
G03X2020836Y1547248I0J-3405D01*
G01X2028069Y1548346D02*
G03X2028806Y1548647I0J1053D01*
G01Y1548045D02*
G03X2028069Y1548346I-736J-751D01*
G01X2028069D02*
X2028714D01*
X2020096Y1547372D02*
X2023202D01*
X2023202D02*
X2024176Y1548346D01*
X2024176D02*
X2029251D01*
X2030067Y1502555D02*
G03X2030497Y1501530I1469J15D01*
G01X2030497D02*
G03X2029473Y1501961I-1038J-1038D01*
G01X2029941Y1502262D02*
G03X2030497Y1501530I2965J1677D01*
G01X2030497D02*
G03X2029766Y1502086I-2408J-2407D01*
G01X2029330Y1502697D02*
X2031509Y1500518D01*
X2031509D02*
X2033120D01*
X2033120D02*
X2035383Y1498255D01*
X2035383D02*
Y1497739D01*
X2035383D02*
X2038325Y1494797D01*
X2038325D02*
X2038574D01*
X2038574D02*
X2041150Y1492222D01*
X2041150D02*
Y1491497D01*
X2023951Y1521952D02*
G03X2024730Y1521161I1359J559D01*
G01X2024730D02*
G03X2023619Y1521181I-579J-1350D01*
G01X2023943Y1521634D02*
G03X2024730Y1521161I2131J2657D01*
G01X2024730D02*
G03X2023845Y1521406I-1343J-3130D01*
G01X2023214Y1521812D02*
X2025044Y1521026D01*
X2025044D02*
X2032452D01*
X2032452D02*
X2037125Y1525699D01*
X2037125D02*
Y1526898D01*
X2037125D02*
X2038064Y1527836D01*
X2038064D02*
X2039679D01*
X2039679D02*
X2040424Y1528581D01*
X2040424D02*
X2041801Y1529519D01*
X2041801D02*
X2041850Y1529448D01*
X2002436Y1553284D02*
G03X2002866Y1552260I1469J15D01*
G01X2002866D02*
G03X2001842Y1552691I-1038J-1038D01*
G01X2002310Y1552992D02*
G03X2002866Y1552260I2965J1677D01*
G01X2002866D02*
G03X2002135Y1552816I-2408J-2408D01*
G01X2001700Y1553427D02*
X2006107Y1549020D01*
X2009528*
X2010962Y1547586*
X2010962D02*
Y1545897D01*
X2012741Y1550737D02*
G03X2013770Y1550317I1029J1050D01*
G01X2013770D02*
G03X2012741Y1549897I0J-1468D01*
G01X2012859Y1550441D02*
G03X2013770Y1550317I911J3283D01*
G01X2013770D02*
G03X2012859Y1550193I0J-3405D01*
G01X2012120Y1550317D02*
X2014763D01*
X2014763D02*
X2018240Y1546840D01*
X2018240D02*
Y1546753D01*
X2018240D02*
X2019371Y1545622D01*
X2019371D02*
X2023220D01*
X2023220D02*
X2024369Y1546771D01*
X2024369D02*
X2030268D01*
X2030268D02*
X2030975Y1547479D01*
X2030975D02*
X2032353Y1548417D01*
X2032401Y1548346*
X2035082Y1536501D02*
G03X2035513Y1535477I1470J15D01*
X2034488Y1535907I-1039J-1038*
G01X2034957Y1536208D02*
G03X2035513Y1535477I2965J1678D01*
X2034781Y1536033I-2408J-2408*
G01X2034346Y1536644D02*
X2035654Y1535335D01*
X2025621Y1528117D02*
G03X2026650Y1527697I1029J1050D01*
G01X2026650D02*
G03X2025621Y1527277I0J-1469D01*
G01X2025739Y1527821D02*
G03X2026650Y1527697I911J3283D01*
G01X2026650D02*
G03X2025739Y1527573I0J-3405D01*
G01X2025000Y1527697D02*
X2027500D01*
X2027500D02*
X2027677Y1527874D01*
X2030254*
X2030254D02*
X2030970Y1528589D01*
X2030970D02*
X2032347Y1529527D01*
X2032347D02*
X2032401Y1529448D01*
X2037164Y1542735D02*
G03X2037961Y1543509I-548J1363D01*
G01X2037961D02*
G03X2037933Y1542398I1347J-589D01*
G01X2037483Y1542724D02*
G03X2037961Y1543509I-2641J2151D01*
G01X2037961D02*
G03X2037710Y1542625I3121J-1366D01*
G01X2038226Y1544113D02*
G03X2038246Y1544909I-964J423D01*
G01X2038797Y1544668D02*
G03X2038226Y1544113I394J-976D01*
G01X2038226D02*
X2038485Y1544704D01*
X2037300Y1541997D02*
X2038700Y1545196D01*
X2027532Y1525514D02*
G03X2028410Y1524834I1272J736D01*
G01X2028410D02*
G03X2027307Y1524705I-392J-1415D01*
G01X2027567Y1525197D02*
G03X2028410Y1524834I1756J2919D01*
G01X2028410D02*
G03X2027500Y1524958I-911J-3281D01*
G01X2026821Y1525276D02*
X2028671Y1524761D01*
X2028671D02*
X2029888D01*
X2029888D02*
X2030826Y1525699D01*
X2030826D02*
Y1526898D01*
X2030826D02*
X2031802Y1527874D01*
X2033411*
X2034122Y1528585*
X2034122D02*
X2035500Y1529523D01*
X2035500D02*
X2035551Y1529448D01*
X2024721Y1533317D02*
G03X2025750Y1532897I1029J1050D01*
G01X2025750D02*
G03X2024721Y1532477I0J-1469D01*
G01X2024839Y1533021D02*
G03X2025750Y1532897I911J3283D01*
G01X2025750D02*
G03X2024839Y1532773I0J-3405D01*
G01X2031305Y1533041D02*
G03X2032101Y1533044I395J976D01*
G01X2031875Y1532486D02*
G03X2031305Y1533041I-964J-420D01*
G01X2031305D02*
X2031903Y1532799D01*
X2024100Y1532897D02*
X2026663D01*
X2026663D02*
X2027901Y1534135D01*
X2027901D02*
X2029888D01*
X2029888D02*
X2030764Y1533260D01*
X2032401Y1532598*
X2033678Y1542137D02*
G03X2034490Y1542896I-522J1374D01*
G01X2034490D02*
G03X2034441Y1541786I1335J-615D01*
G01X2033997Y1542121D02*
G03X2034490Y1542896I-2600J2201D01*
G01X2034490D02*
G03X2034222Y1542017I3094J-1425D01*
G01X2035056Y1544123D02*
G03X2035091Y1544918I-956J440D01*
G01X2035638Y1544666D02*
G03X2035056Y1544123I374J-983D01*
G01X2035326Y1544708*
X2033800Y1541397D02*
X2035551Y1545196D01*
X2011721Y1530717D02*
G03X2012750Y1530297I1029J1050D01*
G01X2012750D02*
G03X2011721Y1529877I0J-1469D01*
G01X2011839Y1530421D02*
G03X2012750Y1530297I911J3283D01*
G01X2012750D02*
G03X2011839Y1530173I0J-3405D01*
G01X2011100Y1530297D02*
X2015287D01*
X2015287D02*
X2015537Y1530047D01*
X2015537D02*
X2027500D01*
X2027500D02*
X2028476Y1531023D01*
X2028476D02*
X2042449D01*
X2042449D02*
X2043387Y1531961D01*
X2043387D02*
Y1532598D01*
X1973507Y1557718D02*
G03X1974565Y1558056I115J1465D01*
G01X1974565D02*
G03X1974046Y1557074I943J-1126D01*
G01X1973787Y1557567D02*
G03X1974565Y1558056I-1407J3102D01*
G01X1974565D02*
G03X1973946Y1557377I2186J-2611D01*
G01X1974430Y1557943D02*
G03X1974938Y1558905I-922J1104D01*
G01X1975466Y1558274D02*
G03X1974430Y1557943I-112J-1433D01*
G01X1974430D02*
G03X1975036Y1558608I-2139J2558D01*
G01X1975191Y1558422D02*
G03X1974430Y1557943I1379J-3036D01*
G01X1973300Y1556997D02*
X1975669Y1558980D01*
X2020146Y1551292D02*
G03X2021174Y1550872I1028J1050D01*
G01X2021174D02*
G03X2020146Y1550452I0J-1468D01*
G01X2020264Y1550996D02*
G03X2021174Y1550872I910J3283D01*
G01X2021174D02*
G03X2020264Y1550748I0J-3405D01*
G01X2041014Y1549182D02*
G03X2041748Y1548874I745J745D01*
G01X2041322Y1548448D02*
G03X2041014Y1549182I-1052J-10D01*
G01X2041470Y1548726*
X2019524Y1550872D02*
X2021387D01*
X2021387D02*
X2021962Y1551447D01*
X2021962D02*
X2025275D01*
X2025275D02*
X2026801Y1549921D01*
X2026801D02*
X2040275D01*
X2040275D02*
X2041850Y1548346D01*
X2021885Y1541491D02*
G03X2022909Y1541921I-14J1469D01*
G01X2022909D02*
G03X2022479Y1540897I1039J-1038D01*
G01X2022178Y1541365D02*
G03X2022909Y1541921I-1677J2965D01*
G01X2022909D02*
G03X2022353Y1541190I2409J-2408D01*
G01X2021742Y1540754D02*
X2023135Y1542147D01*
X2023135D02*
X2025967D01*
X2025967D02*
X2026350Y1541765D01*
X2027800*
X2028366Y1542331*
X2030101*
X2031538Y1543768*
X2032476Y1545145*
X2029274Y1541051D02*
G03X2030382Y1541137I449J1399D01*
G01X2030382D02*
G03X2029651Y1540300I659J-1313D01*
G01X2029513Y1540839D02*
G03X2030382Y1541137I-657J3343D01*
G01X2030382D02*
G03X2029624Y1540618I1527J-3045D01*
G01X2037864Y1547510D02*
G03X2038173Y1548244I-743J745D01*
G01X2038598Y1547818D02*
G03X2037864Y1547510I11J-1052D01*
G01X2037864D02*
X2038320Y1547966D01*
X2028907Y1540397D02*
X2030650Y1541271D01*
X2033976Y1544597*
Y1545796*
X2034914Y1546734*
X2037088*
X2037088D02*
X2038700Y1548346D01*
X2027696Y1543934D02*
G03X2028725Y1543515I1029J1050D01*
X2027696Y1543095I0J-1469*
G01X2027814Y1543638D02*
G03X2028725Y1543515I911J3283D01*
X2027814Y1543391I0J-3406*
G01X2027075Y1543515D02*
X2029744D01*
X2030808Y1544578*
X2030808D02*
Y1545777D01*
X2030808D02*
X2031764Y1546734D01*
X2031764D02*
X2033380D01*
X2033380D02*
X2034125Y1547479D01*
X2034125D02*
X2035502Y1548417D01*
X2035502D02*
X2035551Y1548346D01*
X2038636Y1534476D02*
G03X2038494Y1533374I1279J-724D01*
G01X2038494D02*
G03X2037825Y1534260I-1419J-376D01*
G01X2038381Y1534286D02*
G03X2038494Y1533374I3406J-37D01*
G01X2038494D02*
G03X2038141Y1534222I-3291J-873D01*
G01X2038397Y1533741D02*
G03X2038877Y1533105I1018J270D01*
G01X2038295Y1532951D02*
G03X2038397Y1533741I-915J520D01*
G01X2038397D02*
X2038562Y1533117D01*
X2038071Y1534969D02*
X2038700Y1532598D01*
X2015567Y1524935D02*
G03X2016596Y1524515I1029J1050D01*
G01X2016596D02*
G03X2015567Y1524095I0J-1468D01*
G01X2015686Y1524639D02*
G03X2016596Y1524515I910J3283D01*
G01X2016596D02*
G03X2015686Y1524391I0J-3405D01*
G01X2014946Y1524515D02*
X2016859D01*
X2016859D02*
X2019128Y1522246D01*
X2019128D02*
X2021172D01*
X2021172D02*
X2022488Y1523562D01*
X2023939*
X2025475Y1522026*
X2030688*
X2030688D02*
X2033976Y1525313D01*
X2033976D02*
Y1526898D01*
X2033976D02*
X2034933Y1527855D01*
X2036549*
X2037275Y1528581*
X2038652Y1529519*
X2038652D02*
X2038700Y1529448D01*
X1998821Y1513217D02*
G03X1999850Y1512797I1029J1050D01*
G01X1999850D02*
G03X1998821Y1512377I0J-1469D01*
G01X1998939Y1512921D02*
G03X1999850Y1512797I911J3283D01*
G01X1999850D02*
G03X1998939Y1512673I0J-3405D01*
G01X1998200Y1512797D02*
X2004662D01*
X2004662D02*
X2004973Y1512486D01*
X2004973D02*
X2011036D01*
X2011036D02*
X2011944Y1513394D01*
X2011944D02*
X2015767D01*
X2015767D02*
X2016463Y1514090D01*
X2016463D02*
X2031276D01*
X2031276D02*
X2031619Y1513747D01*
X2031619D02*
X2035607D01*
X2035607D02*
X2036257Y1514397D01*
X2036257D02*
X2040474D01*
X2040474D02*
X2043950Y1517872D01*
X2043950D02*
Y1518597D01*
X2039673Y1555408D02*
G03X2040103Y1554384I1469J15D01*
G01X2040103D02*
G03X2039079Y1554814I-1038J-1038D01*
G01X2039547Y1555115D02*
G03X2040103Y1554384I2965J1678D01*
G01X2040103D02*
G03X2039372Y1554940I-2408J-2408D01*
G01X2044164Y1549182D02*
G03X2044897Y1548874I744J745D01*
G01X2044472Y1548448D02*
G03X2044164Y1549182I-1052J-10D01*
G01X2044620Y1548726*
X2038937Y1555551D02*
X2040802Y1553685D01*
X2040802D02*
X2041834D01*
X2041834D02*
X2043425Y1552095D01*
Y1549921*
X2045000Y1548346*
X1981946Y1549027D02*
G03X1982474Y1548049I1461J157D01*
X1981413Y1548378I-933J-1134*
G01X1981849Y1548723D02*
G03X1982474Y1548049I2789J1956D01*
X1981692Y1548531I-2164J-2630*
G01X1982295Y1548195D02*
G03X1983334Y1547873I915J1111D01*
G01X1982812Y1547238D02*
G03X1982295Y1548195I-1430J-153D01*
G01X1982295D02*
G03X1983061Y1547723I2120J2575D01*
G01X1982907Y1547535D02*
G03X1982295Y1548195I-2730J-1914D01*
G01X1981200Y1549097D02*
X1983543Y1547169D01*
X2043314Y1536683D02*
G03X2043745Y1535659I1470J15D01*
G01X2043745D02*
G03X2042720Y1536089I-1039J-1038D01*
G01X2043189Y1536390D02*
G03X2043745Y1535659I2964J1678D01*
G01X2043745D02*
G03X2043013Y1536215I-2408J-2408D01*
G01X2045000Y1533780D02*
G03X2045300Y1533043I1053J0D01*
G01X2044699D02*
G03X2044999Y1533780I-752J737D01*
G01X2045000D02*
Y1533135D01*
X2042578Y1536826D02*
X2045000Y1534404D01*
X2045000D02*
Y1532598D01*
X2047313Y1528612D02*
G03X2047621Y1529346I-744J745D01*
G01X2048047Y1528921D02*
G03X2047313Y1528612I11J-1052D01*
G01X2047313D02*
X2047769Y1529068D01*
X2041167Y1523730D02*
X2041311Y1523586D01*
X2041311D02*
X2043425Y1525699D01*
X2043425D02*
Y1526898D01*
X2043425D02*
X2044363Y1527836D01*
X2044363D02*
X2046537D01*
X2046537D02*
X2048149Y1529448D01*
X2050239Y1540711D02*
G03X2051331Y1540504I800J1233D01*
X2050406Y1539888I292J-1440*
G01X2050414Y1540444D02*
G03X2051331Y1540504I240J3398D01*
X2050463Y1540201I677J-3338*
G01X2049714Y1540176D02*
X2051564Y1540551D01*
X2053085Y1542072*
X2053085D02*
Y1542797D01*
X2049621Y1537517D02*
G03X2050650Y1537097I1029J1050D01*
G01X2050650D02*
G03X2049621Y1536677I0J-1469D01*
G01X2049739Y1537221D02*
G03X2050650Y1537097I911J3283D01*
G01X2050650D02*
G03X2049739Y1536973I0J-3405D01*
G01X2049000Y1537097D02*
X2055974D01*
X2055974D02*
X2057750Y1535322D01*
Y1534235*
X2032401Y1545196D02*
X2032476Y1545145D01*
X2035551Y1532598D02*
X2035654D01*
X2042377Y1545091D02*
G03X2042680Y1544355I1053J4D01*
G01X2042680D02*
G03X2041949Y1544668I-748J-739D01*
G01X2042680Y1544355D02*
X2042227Y1544814D01*
X2041850Y1545196D02*
X2043000Y1544031D01*
X1996068Y1511907D02*
G03X1996866Y1511168I1304J608D01*
G01X1996866D02*
G03X1995779Y1511137I-505J-1346D01*
G01X1996074Y1511595D02*
G03X1996866Y1511168I1964J2695D01*
G01X1996866D02*
G03X1995989Y1511368I-1171J-3121D01*
G01X2010664Y1511290D02*
G03X2011692Y1511709I0J1469D01*
G01Y1510870D02*
G03X2010664Y1511290I-1027J-1049D01*
X2011574Y1511413I0J3406*
G01Y1511166D02*
G03X2010664Y1511290I-909J-3282D01*
G01X1995354Y1511736D02*
X1997188Y1511047D01*
X1997188D02*
X2010221D01*
X2010221D02*
X2010464Y1511290D01*
X2012314*
X1992138Y1511596D02*
G03X1992559Y1510593I1438J15D01*
G01X1992559D02*
G03X1991556Y1511015I-1016J-1016D01*
G01X1992015Y1511309D02*
G03X1992559Y1510593I2902J1643D01*
G01X1992559D02*
G03X1991843Y1511138I-2357J-2357D01*
G01X2029433Y1512864D02*
G03X2030457Y1512433I1039J1039D01*
G01X2029863Y1511840D02*
G03X2029433Y1512864I-1468J-14D01*
X2030164Y1512308I2409J2409*
G01X2029989Y1512133D02*
G03X2029433Y1512864I-2964J-1677D01*
G01X1991417Y1511736D02*
X1993613Y1509540D01*
X1993613D02*
X2013039D01*
X2015833Y1512334*
X2015833D02*
X2016451D01*
X2016451D02*
X2017207Y1513090D01*
X2017207D02*
X2029206D01*
X2029206D02*
X2030600Y1511697D01*
X1972460Y1511641D02*
G03X1972942Y1510666I1435J103D01*
X1971915Y1511025I-952J-1077*
G01X1972355Y1511347D02*
G03X1972942Y1510666I2796J1817D01*
X1972194Y1511165I-2208J-2498*
G01X1974167Y1509583D02*
G03X1975216Y1509216I973J1101D01*
G01X1974659Y1508587D02*
G03X1974167Y1509583I-1465J-104D01*
X1974931Y1509073I2256J2552*
G01X1974767Y1508887D02*
G03X1974167Y1509583I-2856J-1855D01*
G01X1971732Y1511736D02*
X1975403Y1508490D01*
X1995962Y1516084D02*
G03X1996969Y1515673I1007J1028D01*
G01X1996969D02*
G03X1995962Y1515262I0J-1438D01*
G01X1996078Y1515794D02*
G03X1996969Y1515673I891J3214D01*
G01X1996969D02*
G03X1996078Y1515551I0J-3334D01*
G01X2013106Y1515211D02*
G03X2014135Y1515631I0J1470D01*
G01Y1514791D02*
G03X2013106Y1515211I-1028J-1049D01*
G01X2013106D02*
G03X2014016Y1515335I0J3407D01*
G01Y1515087D02*
G03X2013106Y1515211I-909J-3282D01*
G01X1995354Y1515673D02*
X2003230D01*
X2003230D02*
X2003544Y1515986D01*
X2003544D02*
X2011036D01*
X2011036D02*
X2011811Y1515211D01*
X2011811D02*
X2014756D01*
X1992146Y1515590D02*
G03X1992644Y1514623I1434J126D01*
G01X1992644D02*
G03X1991612Y1514965I-934J-1093D01*
G01X1992046Y1515294D02*
G03X1992644Y1514623I2766J1863D01*
G01X1992644D02*
G03X1991888Y1515110I-2166J-2534D01*
G01X1992135Y1515059D02*
G03X1993189Y1514709I955J1117D01*
G01X1992643Y1514071D02*
G03X1992135Y1515059I-1463J-128D01*
X1992907Y1514561I2214J2589*
G01X1992746Y1514373D02*
G03X1992135Y1515059I-2825J-1902D01*
G01X1991417Y1515673D02*
X1993389Y1513986D01*
X1988201Y1515533D02*
G03X1988622Y1514531I1438J15D01*
G01Y1514530D02*
G03X1987619Y1514952I-1016J-1016D01*
G01X1988078Y1515246D02*
G03X1988622Y1514531I2902J1643D01*
G01X1988622D02*
G03X1987906Y1515075I-2357J-2358D01*
G01X1987480Y1515673D02*
X1989448Y1513704D01*
X1989448D02*
Y1511252D01*
X1989448D02*
X1992160Y1508540D01*
X1992160D02*
X2013453D01*
X2016211Y1511297*
X2016211D02*
X2020082D01*
X2020082D02*
X2020875Y1512090D01*
X2020875D02*
X2027824D01*
X2027824D02*
X2028961Y1510954D01*
X2028961D02*
Y1510237D01*
X2028961D02*
X2030863Y1508335D01*
X2030863D02*
Y1506986D01*
X1984263Y1515530D02*
G03X1984679Y1514525I1439J7D01*
G01X1984679D02*
G03X1983679Y1514951I-1021J-1012D01*
G01X1984138Y1515243D02*
G03X1984679Y1514525I2911J1628D01*
G01X1984679D02*
G03X1983966Y1515073I-2369J-2346D01*
G01X1984239Y1514970D02*
G03X1985261Y1514534I1044J1034D01*
G01X1984664Y1513943D02*
G03X1984239Y1514970I-1469J-6D01*
X1984967Y1514410I2421J2396*
G01X1984791Y1514236D02*
G03X1984239Y1514970I-2972J-1662D01*
G01X1983543Y1515673D02*
X1985400Y1513797D01*
X1980335Y1515587D02*
G03X1980830Y1514619I1434J122D01*
X1979798Y1514964I-938J-1090*
G01X1980234Y1515292D02*
G03X1980830Y1514619I2772J1853D01*
X1980075Y1515108I-2176J-2526*
G01X1980649Y1514774D02*
G03X1981703Y1514421I959J1114D01*
G01X1981155Y1513785D02*
G03X1980649Y1514774I-1464J-124D01*
G01X1980649D02*
G03X1981420Y1514274I2223J2581D01*
G01X1981258Y1514086D02*
G03X1980649Y1514774I-2831J-1892D01*
G01X1979606Y1515673D02*
X1981900Y1513697D01*
X1976379Y1515486D02*
G03X1976733Y1514458I1437J-79D01*
G01X1976733D02*
G03X1975760Y1514944I-1081J-947D01*
G01X1976237Y1515208D02*
G03X1976733Y1514458I3005J1447D01*
G01X1976733D02*
G03X1976055Y1515048I-2507J-2197D01*
G01X1976312Y1514938D02*
G03X1977306Y1514441I1106J969D01*
G01X1976674Y1513888D02*
G03X1976312Y1514938I-1466J82D01*
G01X1976312D02*
G03X1977005Y1514335I2563J2245D01*
G01X1976819Y1514172D02*
G03X1976312Y1514938I-3068J-1478D01*
G01X1975669Y1515673D02*
X1977400Y1513697D01*
X1972456Y1515549D02*
G03X1972899Y1514556I1438J46D01*
X1971887Y1514955I-995J-1039*
G01X1972339Y1515259D02*
G03X1972899Y1514556I2866J1705D01*
X1972171Y1515084I-2306J-2408*
G01X1972708Y1514738D02*
G03X1973741Y1514330I1016J1062D01*
G01X1973160Y1513724D02*
G03X1972708Y1514738I-1468J-46D01*
G01X1972708D02*
G03X1973451Y1514198I2356J2461D01*
G01X1973280Y1514019D02*
G03X1972708Y1514738I-2927J-1740D01*
G01X1971732Y1515673D02*
X1973900Y1513597D01*
X1995962Y1520021D02*
G03X1996969Y1519610I1007J1028D01*
G01X1996969D02*
G03X1995962Y1519199I0J-1438D01*
G01X1996078Y1519731D02*
G03X1996969Y1519610I891J3214D01*
G01X1996969D02*
G03X1996078Y1519488I0J-3334D01*
G01X2017913Y1518833D02*
G03X2018942Y1519253I0J1469D01*
G01Y1518413D02*
G03X2017913Y1518833I-1028J-1049D01*
G01X2017913D02*
G03X2018824Y1518957I0J3406D01*
G01Y1518709D02*
G03X2017913Y1518833I-910J-3282D01*
G01X1995354Y1519610D02*
X2014649D01*
X2014649D02*
X2015426Y1518833D01*
X2015426D02*
X2019563D01*
X1992145Y1519516D02*
G03X1992628Y1518541I1435J105D01*
G01X1992628D02*
G03X1991601Y1518899I-950J-1078D01*
G01X1992040Y1519222D02*
G03X1992628Y1518541I2794J1821D01*
G01X1992628D02*
G03X1991880Y1519040I-2204J-2500D01*
G01X1992462Y1518688D02*
G03X1993511Y1518323I972J1103D01*
G01X1992956Y1517693D02*
G03X1992462Y1518688I-1465J-106D01*
G01X1992462D02*
G03X1993227Y1518179I2253J2556D01*
G01X1993063Y1517993D02*
G03X1992462Y1518688I-2853J-1859D01*
G01X1991417Y1519610D02*
X1993700Y1517597D01*
X1988211Y1519540D02*
G03X1988726Y1518582I1430J152D01*
G01X1988726D02*
G03X1987688Y1518906I-914J-1109D01*
G01X1988116Y1519243D02*
G03X1988726Y1518582I2732J1912D01*
G01X1988726D02*
G03X1987961Y1519055I-2120J-2572D01*
G01X1988526Y1518747D02*
G03X1989587Y1518416I935J1134D01*
G01X1989053Y1517768D02*
G03X1988526Y1518747I-1461J-154D01*
G01X1988526D02*
G03X1989308Y1518263I2168J2628D01*
G01X1989150Y1518072D02*
G03X1988526Y1518747I-2790J-1953D01*
G01X1987480Y1519610D02*
X1989800Y1517697D01*
X1984252Y1519420D02*
G03X1984602Y1518390I1436J-86D01*
X1983631Y1518881I-1086J-942*
G01X1984109Y1519142D02*
G03X1984602Y1518390I3011J1433D01*
X1983926Y1518983I-2518J-2185*
G01X1984218Y1518832D02*
G03X1985209Y1518330I1110J963D01*
G01X1984575Y1517779D02*
G03X1984218Y1518832I-1466J89D01*
G01X1984218D02*
G03X1984908Y1518225I2573J2232D01*
G01X1984721Y1518063D02*
G03X1984218Y1518832I-3075J-1463D01*
G01X1983543Y1519610D02*
X1985300Y1517585D01*
X1980312Y1519409D02*
G03X1980646Y1518374I1435J-108D01*
X1979683Y1518880I-1100J-926*
G01X1980165Y1519134D02*
G03X1980646Y1518374I3033J1387D01*
X1979979Y1518978I-2551J-2147*
G01X1980237Y1518860D02*
G03X1981221Y1518343I1125J946D01*
G01X1980578Y1517802D02*
G03X1980237Y1518860I-1464J111D01*
G01X1980237D02*
G03X1980918Y1518243I2607J2193D01*
G01X1980728Y1518083D02*
G03X1980237Y1518860I-3096J-1416D01*
G01X1979606Y1519610D02*
X1981300Y1517597D01*
X1972447Y1519445D02*
G03X1972833Y1518428I1439J-35D01*
X1971846Y1518884I-1052J-980*
G01X1972314Y1519163D02*
G03X1972833Y1518428I2959J1538D01*
X1972137Y1518997I-2439J-2273*
G01X1972575Y1518704D02*
G03X1973584Y1518238I1076J1002D01*
G01X1972969Y1517666D02*
G03X1972575Y1518704I-1468J36D01*
G01X1972575D02*
G03X1973287Y1518123I2493J2323D01*
G01X1973105Y1517954D02*
G03X1972575Y1518704I-3021J-1571D01*
G01X1971732Y1519610D02*
X1973700Y1517497D01*
X1996062Y1523741D02*
G03X1996884Y1523028I1284J649D01*
X1995798Y1522962I-462J-1362*
G01X1996079Y1523429D02*
G03X1996884Y1523028I1876J2757D01*
X1996001Y1523199I-1071J-3158*
G01X1996737Y1523077D02*
G03X1997846Y1523144I472J1392D01*
G01X1997576Y1522349D02*
G03X1996737Y1523077I-1310J-662D01*
G01X1996737D02*
G03X1997639Y1522902I1095J3226D01*
G01X1997559Y1522668D02*
G03X1996737Y1523077I-1916J-2816D01*
G01X1995354Y1523547D02*
X1998300Y1522547D01*
X1992148Y1523480D02*
G03X1992667Y1522524I1430J157D01*
G01X1992667D02*
G03X1991627Y1522843I-910J-1113D01*
G01X1992054Y1523182D02*
G03X1992667Y1522524I2725J1923D01*
G01X1992667D02*
G03X1991900Y1522994I-2111J-2580D01*
G01X1992523Y1522642D02*
G03X1993584Y1522316I930J1137D01*
G01X1993053Y1521666D02*
G03X1992523Y1522642I-1460J-160D01*
G01X1992523D02*
G03X1993305Y1522161I2157J2637D01*
G01X1993149Y1521970D02*
G03X1992523Y1522642I-2783J-1963D01*
G01X1991417Y1523547D02*
X1993800Y1521597D01*
X1988195Y1523382D02*
G03X1988582Y1522366I1439J-33D01*
G01X1988582D02*
G03X1987594Y1522821I-1051J-981D01*
G01X1988063Y1523100D02*
G03X1988582Y1522366I2957J1541D01*
G01X1988582D02*
G03X1987885Y1522935I-2437J-2275D01*
G01X1988174Y1522803D02*
G03X1989182Y1522338I1074J1003D01*
G01X1988569Y1521765D02*
G03X1988174Y1522803I-1469J36D01*
G01X1988174D02*
G03X1988885Y1522222I2490J2325D01*
G01X1988704Y1522053D02*
G03X1988174Y1522803I-3020J-1573D01*
G01X1987480Y1523547D02*
X1989300Y1521597D01*
X1984270Y1523442D02*
G03X1984739Y1522461I1436J84D01*
X1983717Y1522833I-967J-1064*
G01X1984160Y1523150D02*
G03X1984739Y1522461I2821J1779D01*
X1983997Y1522970I-2242J-2468*
G01X1984578Y1522606D02*
G03X1985622Y1522226I988J1088D01*
G01X1985057Y1521604D02*
G03X1984578Y1522606I-1466J-84D01*
G01X1984578D02*
G03X1985335Y1522086I2290J2522D01*
G01X1985169Y1521903D02*
G03X1984578Y1522606I-2880J-1817D01*
G01X1983543Y1523547D02*
X1985800Y1521497D01*
X1980310Y1523340D02*
G03X1980635Y1522302I1434J-121D01*
X1979676Y1522816I-1108J-916*
G01X1980161Y1523066D02*
G03X1980635Y1522302I3045J1360D01*
X1979974Y1522911I-2570J-2124*
G01X1980248Y1522769D02*
G03X1981227Y1522244I1133J936D01*
G01X1980580Y1521709D02*
G03X1980248Y1522769I-1463J124D01*
G01X1980248D02*
G03X1980924Y1522146I2626J2170D01*
G01X1980733Y1521988D02*
G03X1980248Y1522769I-3110J-1388D01*
G01X1979606Y1523547D02*
X1981300Y1521497D01*
X1976390Y1523407D02*
G03X1976811Y1522405I1438J15D01*
G01X1976811D02*
G03X1975808Y1522826I-1016J-1017D01*
G01X1976267Y1523120D02*
G03X1976811Y1522405I2902J1643D01*
G01X1976811D02*
G03X1976095Y1522949I-2357J-2358D01*
G01X1977700Y1519247D02*
G03X1978119Y1518219I1469J0D01*
G01X1977280D02*
G03X1977700Y1519247I-1049J1028D01*
G01X1977700D02*
G03X1977823Y1518337I3406J0D01*
G01X1977576D02*
G03X1977699Y1519247I-3282J910D01*
G01X1975669Y1523547D02*
X1977700Y1521516D01*
X1977700D02*
Y1517597D01*
X1995962Y1527895D02*
G03X1996969Y1527484I1007J1028D01*
G01X1996969D02*
G03X1995962Y1527073I0J-1438D01*
G01X1996078Y1527605D02*
G03X1996969Y1527484I891J3214D01*
G01X1996969D02*
G03X1996078Y1527362I0J-3334D01*
G01X2004633Y1524964D02*
G03X2005657Y1524533I1039J1039D01*
G01X2005063Y1523940D02*
G03X2004633Y1524964I-1468J-14D01*
X2005364Y1524408I2409J2409*
G01X2005189Y1524233D02*
G03X2004633Y1524964I-2964J-1677D01*
G01X1995354Y1527484D02*
X2003188D01*
X2004433Y1526239*
Y1525164*
X2005800Y1523797*
X1992138Y1527344D02*
G03X1992559Y1526342I1438J15D01*
G01X1992559D02*
G03X1991556Y1526763I-1016J-1017D01*
G01X1992015Y1527057D02*
G03X1992559Y1526342I2902J1643D01*
G01X1992559D02*
G03X1991843Y1526886I-2357J-2358D01*
G01X2010147Y1522715D02*
G03X2011175Y1523135I0J1469D01*
G01Y1522295D02*
G03X2010147Y1522715I-1027J-1049D01*
X2011057Y1522839I0J3406*
G01Y1522591D02*
G03X2010147Y1522715I-909J-3282D01*
G01X1991417Y1527484D02*
X1993385Y1525515D01*
X1993385D02*
X1999006D01*
X1999006D02*
X2002475Y1522047D01*
X2002475D02*
X2007902D01*
X2007902D02*
X2008569Y1522715D01*
X2008569D02*
X2011797D01*
X1988189Y1527293D02*
G03X1988537Y1526262I1436J-88D01*
G01X1988537D02*
G03X1987567Y1526755I-1087J-940D01*
G01X1988045Y1527016D02*
G03X1988537Y1526262I3014J1429D01*
G01X1988537D02*
G03X1987862Y1526857I-2521J-2181D01*
G01X1988120Y1526745D02*
G03X1989110Y1526242I1111J962D01*
G01X1988475Y1525692D02*
G03X1988120Y1526745I-1466J91D01*
X1988809Y1526137I2575J2229*
G01X1988622Y1525975D02*
G03X1988120Y1526745I-3077J-1459D01*
G01X1987480Y1527484D02*
X1989200Y1525497D01*
X1984266Y1527356D02*
G03X1984704Y1526361I1438J39D01*
X1983694Y1526765I-1000J-1034*
G01X1984148Y1527067D02*
G03X1984704Y1526361I2875J1690D01*
X1983979Y1526893I-2318J-2396*
G01X1984514Y1526544D02*
G03X1985545Y1526131I1022J1057D01*
G01X1984961Y1525527D02*
G03X1984514Y1526544I-1468J-38D01*
G01X1984514D02*
G03X1985254Y1526001I2368J2449D01*
G01X1985082Y1525822D02*
G03X1984514Y1526544I-2936J-1725D01*
G01X1983543Y1527484D02*
X1985700Y1525397D01*
X1980313Y1527287D02*
G03X1980654Y1526255I1436J-98D01*
X1979688Y1526754I-1094J-933*
G01X1980168Y1527011D02*
G03X1980654Y1526255I3024J1407D01*
X1979983Y1526854I-2537J-2163*
G01X1980229Y1526753D02*
G03X1981216Y1526242I1118J953D01*
G01X1980577Y1525698D02*
G03X1980229Y1526753I-1465J101D01*
G01X1980229D02*
G03X1980914Y1526140I2592J2210D01*
G01X1980725Y1525980D02*
G03X1980229Y1526753I-3087J-1436D01*
G01X1979606Y1527484D02*
X1981300Y1525497D01*
X1976391Y1527352D02*
G03X1976823Y1526354I1439J30D01*
X1975816Y1526764I-1006J-1028*
G01X1976271Y1527064D02*
G03X1976823Y1526354I2885J1672D01*
X1976101Y1526890I-2333J-2382*
G01X1976621Y1526552D02*
G03X1977649Y1526132I1028J1051D01*
G01X1977062Y1525532D02*
G03X1976621Y1526552I-1469J-29D01*
X1977358Y1526003I2383J2433*
G01X1977184Y1525826D02*
G03X1976621Y1526552I-2946J-1707D01*
G01X1975669Y1527484D02*
X1977800Y1525397D01*
X1992138Y1531281D02*
G03X1992559Y1530279I1438J15D01*
G01X1992559D02*
G03X1991556Y1530700I-1016J-1017D01*
G01X1992015Y1530994D02*
G03X1992559Y1530279I2902J1643D01*
G01X1992559D02*
G03X1991843Y1530823I-2357J-2358D01*
G01X2032350Y1515497D02*
G03X2033378Y1515917I0J1470D01*
G01Y1515077D02*
G03X2032350Y1515497I-1028J-1049D01*
G01X2032350D02*
G03X2033260Y1515621I0J3407D01*
G01Y1515373D02*
G03X2032350Y1515497I-910J-3281D01*
G01X1991417Y1531421D02*
X1993385Y1529452D01*
X1993385D02*
X2007534D01*
X2007534D02*
X2014345Y1522642D01*
X2017231*
X2018958Y1520914*
X2018958D02*
X2020796D01*
X2020796D02*
X2026214Y1515497D01*
X2026214D02*
X2034000D01*
X1988204Y1531297D02*
G03X1988647Y1530304I1438J47D01*
G01X1988647D02*
G03X1987635Y1530703I-994J-1039D01*
G01X1988087Y1531008D02*
G03X1988647Y1530304I2866J1706D01*
G01X1988647D02*
G03X1987919Y1530833I-2305J-2409D01*
G01X1988507Y1530438D02*
G03X1989541Y1530030I1016J1062D01*
G01X1988960Y1529423D02*
G03X1988507Y1530438I-1468J-46D01*
G01X1988507D02*
G03X1989251Y1529898I2355J2461D01*
G01X1989079Y1529719D02*
G03X1988507Y1530438I-2926J-1742D01*
G01X1987480Y1531421D02*
X1989700Y1529297D01*
X1984273Y1531342D02*
G03X1984776Y1530378I1432J134D01*
G01X1984776D02*
G03X1983742Y1530714I-928J-1098D01*
G01X1984174Y1531046D02*
G03X1984776Y1530378I2756J1878D01*
G01X1984776D02*
G03X1984017Y1530861I-2152J-2546D01*
G01X1984440Y1530663D02*
G03X1985496Y1530319I949J1122D01*
G01X1984954Y1529678D02*
G03X1984440Y1530663I-1462J-137D01*
X1985215Y1530169I2199J2601*
G01X1985055Y1529980D02*
G03X1984440Y1530663I-2814J-1918D01*
G01X1983543Y1531421D02*
X1985700Y1529597D01*
X1980322Y1531257D02*
G03X1980710Y1530241I1438J-32D01*
G01X1980710D02*
G03X1979721Y1530696I-1050J-982D01*
G01X1980189Y1530975D02*
G03X1980710Y1530241I2956J1545D01*
G01X1980710D02*
G03X1980012Y1530809I-2435J-2277D01*
G01X1980372Y1530602D02*
G03X1981381Y1530138I1073J1004D01*
G01X1980768Y1529564D02*
G03X1980372Y1530602I-1468J34D01*
G01X1980372D02*
G03X1981085Y1530022I2487J2328D01*
G01X1980904Y1529853D02*
G03X1980372Y1530602I-3018J-1578D01*
G01X1979606Y1531421D02*
X1981500Y1529397D01*
X1996075Y1535218D02*
G03X1996496Y1534216I1438J15D01*
G01X1996496D02*
G03X1995493Y1534637I-1016J-1017D01*
G01X1995952Y1534931D02*
G03X1996496Y1534216I2902J1643D01*
G01X1996496D02*
G03X1995780Y1534760I-2357J-2358D01*
G01X1995354Y1535358D02*
X1997297Y1533415D01*
X1997297D02*
X2008409D01*
X2008409D02*
X2008541Y1533547D01*
X2008541D02*
X2020185D01*
X2020185D02*
X2021285Y1534647D01*
X2021285D02*
X2026414D01*
X2026414D02*
X2026902Y1535135D01*
X2026902D02*
X2031825D01*
X2031825D02*
Y1534922D01*
X1992138Y1535218D02*
G03X1992559Y1534216I1438J15D01*
G01X1992559D02*
G03X1991556Y1534637I-1016J-1017D01*
G01X1992015Y1534931D02*
G03X1992559Y1534216I2902J1643D01*
G01X1992559D02*
G03X1991843Y1534760I-2357J-2358D01*
G01X2016950Y1531797D02*
G03X2017978Y1532217I0J1470D01*
G01Y1531377D02*
G03X2016950Y1531797I-1028J-1049D01*
G01X2016950D02*
G03X2017860Y1531921I0J3407D01*
G01Y1531673D02*
G03X2016950Y1531797I-910J-3281D01*
G01X1991417Y1535358D02*
X1993385Y1533389D01*
X1993385D02*
X1995873D01*
X1995873D02*
X1997031Y1532231D01*
X1997031D02*
X2013978D01*
X2013978D02*
X2014412Y1531797D01*
X2014412D02*
X2018600D01*
X1992140Y1539170D02*
G03X1992582Y1538175I1439J43D01*
G01X1992582D02*
G03X1991571Y1538577I-996J-1036D01*
G01X1992023Y1538880D02*
G03X1992582Y1538175I2869J1700D01*
G01X1992582D02*
G03X1991855Y1538706I-2310J-2403D01*
G01X1992410Y1538340D02*
G03X1993442Y1537931I1018J1060D01*
G01X1992860Y1537325D02*
G03X1992410Y1538340I-1468J-43D01*
G01X1992410D02*
G03X1993152Y1537799I2360J2457D01*
G01X1992980Y1537620D02*
G03X1992410Y1538340I-2930J-1735D01*
G01X1991417Y1539295D02*
X1993600Y1537197D01*
X1984253Y1539109D02*
G03X1984610Y1538082I1437J-76D01*
X1983636Y1538566I-1080J-949*
G01X1984112Y1538831D02*
G03X1984610Y1538082I3002J1453D01*
X1983930Y1538671I-2504J-2202*
G01X1984210Y1538536D02*
G03X1985204Y1538041I1104J971D01*
G01X1984574Y1537487D02*
G03X1984210Y1538536I-1467J79D01*
G01X1984210D02*
G03X1984904Y1537934I2558J2250D01*
G01X1984718Y1537771D02*
G03X1984210Y1538536I-3065J-1483D01*
G01X1983543Y1539295D02*
X1985300Y1537297D01*
X1980330Y1539171D02*
G03X1980773Y1538178I1438J47D01*
G01X1980773D02*
G03X1979761Y1538577I-993J-1039D01*
G01X1980213Y1538882D02*
G03X1980773Y1538178I2865J1707D01*
G01X1980773D02*
G03X1980045Y1538707I-2304J-2409D01*
G01X1980607Y1538337D02*
G03X1981641Y1537930I1016J1063D01*
G01X1981060Y1537323D02*
G03X1980607Y1538337I-1468J-47D01*
G01X1980607D02*
G03X1981350Y1537798I2354J2463D01*
G01X1981179Y1537619D02*
G03X1980607Y1538337I-2925J-1743D01*
G01X1979606Y1539295D02*
X1981800Y1537197D01*
X1995962Y1543643D02*
G03X1996969Y1543232I1007J1028D01*
G01X1996969D02*
G03X1995962Y1542821I0J-1438D01*
G01X1996078Y1543353D02*
G03X1996969Y1543232I891J3214D01*
G01X1996969D02*
G03X1996078Y1543111I0J-3334D01*
G01X2001981Y1539816D02*
G03X2003005Y1539385I1039J1039D01*
G01X2002411Y1538792D02*
G03X2001981Y1539816I-1468J-14D01*
X2002712Y1539260I2409J2409*
G01X2002537Y1539085D02*
G03X2001981Y1539816I-2964J-1677D01*
G01X1995354Y1543232D02*
X1998708D01*
X2001194Y1540745*
X2001194D02*
Y1540602D01*
X2001194D02*
X2003148Y1538649D01*
X1991578Y1543948D02*
G03X1992593Y1544339I29J1439D01*
G01X1992593D02*
G03X1992142Y1543349I986J-1047D01*
G01X1991861Y1543816D02*
G03X1992593Y1544339I-1552J2952D01*
G01X1992593D02*
G03X1992027Y1543640I2286J-2428D01*
G01X1992198Y1543967D02*
G03X1992659Y1544977I-1006J1070D01*
G01X1993235Y1544365D02*
G03X1992198Y1543967I-29J-1468D01*
X1992776Y1544680I-2334J2481*
G01X1992946Y1544500D02*
G03X1992198Y1543967I1586J-3014D01*
G01X1991417Y1543232D02*
X1993400Y1545097D01*
X1987681Y1543938D02*
G03X1988716Y1544271I110J1435D01*
G01X1988716D02*
G03X1988210Y1543308I926J-1100D01*
G01X1987956Y1543791D02*
G03X1988716Y1544271I-1384J3033D01*
G01X1988716D02*
G03X1988112Y1543605I2146J-2552D01*
G01X1988436Y1544036D02*
G03X1988954Y1545019I-944J1125D01*
G01X1989494Y1544376D02*
G03X1988436Y1544036I-111J-1465D01*
G01X1988436D02*
G03X1989054Y1544716I-2190J2608D01*
G01X1989213Y1544526D02*
G03X1988436Y1544036I1415J-3097D01*
G01X1987480Y1543232D02*
X1989700Y1545097D01*
X1984264Y1543092D02*
G03X1984685Y1542090I1438J15D01*
G01X1984685D02*
G03X1983682Y1542511I-1016J-1017D01*
G01X1984141Y1542805D02*
G03X1984685Y1542090I2902J1643D01*
G01X1984685D02*
G03X1983969Y1542634I-2357J-2358D01*
G01X1997150Y1540665D02*
G03X1998178Y1541085I0J1470D01*
G01Y1540245D02*
G03X1997150Y1540665I-1028J-1049D01*
G01X1997150D02*
G03X1998060Y1540789I0J3407D01*
G01Y1540541D02*
G03X1997150Y1540665I-910J-3282D01*
G01X1983543Y1543232D02*
X1985511Y1541263D01*
X1985511D02*
X1996095D01*
X1996095D02*
X1996693Y1540665D01*
X1996693D02*
X1998800D01*
X1979745Y1543953D02*
G03X1980748Y1544374I-13J1438D01*
G01X1980748D02*
G03X1980327Y1543371I1017J-1016D01*
G01X1980032Y1543830D02*
G03X1980748Y1544374I-1641J2902D01*
G01X1980748D02*
G03X1980204Y1543658I2358J-2357D01*
G01X1983550Y1545097D02*
G03X1984578Y1545517I0J1470D01*
G01Y1544677D02*
G03X1983550Y1545097I-1028J-1049D01*
G01X1983550D02*
G03X1984460Y1545221I0J3407D01*
G01Y1544973D02*
G03X1983550Y1545097I-910J-3281D01*
G01X1979606Y1543232D02*
X1981471Y1545097D01*
X1981471D02*
X1985200D01*
X1996065Y1546986D02*
G03X1996425Y1545959I1437J-72D01*
G01X1996425D02*
G03X1995449Y1546441I-1077J-952D01*
G01X1995925Y1546707D02*
G03X1996425Y1545959I2997J1463D01*
G01X1996425D02*
G03X1995743Y1546546I-2496J-2209D01*
G01X1996006Y1546433D02*
G03X1997002Y1545941I1100J974D01*
G01X1996373Y1545384D02*
G03X1996006Y1546433I-1467J74D01*
X1996702Y1545833I2550J2258*
G01X1996516Y1545669D02*
G03X1996006Y1546433I-3060J-1494D01*
G01X1995354Y1547169D02*
X1997100Y1545197D01*
X1991556Y1547890D02*
G03X1992559Y1548311I-13J1438D01*
G01X1992559D02*
G03X1992138Y1547308I1017J-1016D01*
G01X1991843Y1547767D02*
G03X1992559Y1548311I-1641J2902D01*
G01X1992559D02*
G03X1992015Y1547595I2358J-2357D01*
G01X1997169Y1548427D02*
G03X1998198Y1548847I0J1470D01*
G01Y1548007D02*
G03X1997169Y1548427I-1028J-1049D01*
G01X1997169D02*
G03X1998080Y1548551I0J3407D01*
G01Y1548303D02*
G03X1997169Y1548427I-910J-3282D01*
G01X1991417Y1547169D02*
X1993151Y1548903D01*
X1993151D02*
X1996283D01*
X1996283D02*
X1996759Y1548427D01*
X1998819*
X1987635Y1547886D02*
G03X1988647Y1548286I17J1439D01*
X1988204Y1547292I995J-1039*
G01X1987919Y1547757D02*
G03X1988647Y1548286I-1577J2938D01*
X1988087Y1547582I2306J-2409*
G01X1988407Y1548056D02*
G03X1988860Y1549071I-1015J1062D01*
G01X1989441Y1548464D02*
G03X1988407Y1548056I-17J-1468D01*
G01X1988407D02*
G03X1988979Y1548775I-2354J2462D01*
G01X1989151Y1548596D02*
G03X1988407Y1548056I1612J-3000D01*
G01X1987480Y1547169D02*
X1989600Y1549197D01*
X1975882Y1547871D02*
G03X1976923Y1548186I135J1433D01*
G01X1976923D02*
G03X1976400Y1547233I907J-1116D01*
G01X1976155Y1547719D02*
G03X1976923Y1548186I-1332J3058D01*
G01X1976923D02*
G03X1976308Y1547531I2101J-2589D01*
G01X1976518Y1547858D02*
G03X1977052Y1548832I-925J1141D01*
G01X1977581Y1548180D02*
G03X1976518Y1547858I-136J-1463D01*
G01X1976518D02*
G03X1977147Y1548527I-2145J2645D01*
G01X1977303Y1548335D02*
G03X1976518Y1547858I1361J-3122D01*
G01X1975669Y1547169D02*
X1977800Y1548897D01*
X1995962Y1551517D02*
G03X1996969Y1551106I1007J1028D01*
G01X1996969D02*
G03X1995962Y1550695I0J-1438D01*
G01X1996078Y1551227D02*
G03X1996969Y1551106I891J3214D01*
G01X1996969D02*
G03X1996078Y1550985I0J-3334D01*
G01X2001507Y1547815D02*
G03X2001927Y1546786I1470J0D01*
G01X2001087D02*
G03X2001507Y1547815I-1048J1029D01*
G01X2001507D02*
G03X2001631Y1546905I3407J0D01*
G01X2001383D02*
G03X2001507Y1547815I-3281J910D01*
G01X1995354Y1551106D02*
X1998615D01*
X1998615D02*
X2001507Y1548214D01*
X2001507D02*
Y1546165D01*
X1991556Y1551827D02*
G03X1992559Y1552248I-13J1438D01*
G01X1992559D02*
G03X1992138Y1551245I1017J-1016D01*
G01X1991843Y1551704D02*
G03X1992559Y1552248I-1641J2902D01*
G01X1992559D02*
G03X1992015Y1551532I2358J-2357D01*
G01X1997050Y1553997D02*
G03X1998078Y1554417I0J1470D01*
G01Y1553577D02*
G03X1997050Y1553997I-1028J-1049D01*
G01X1997050D02*
G03X1997960Y1554121I0J3407D01*
G01Y1553873D02*
G03X1997050Y1553997I-910J-3281D01*
G01X1991417Y1551106D02*
X1993385Y1553074D01*
X1993385D02*
X1995882D01*
X1995882D02*
X1996805Y1553997D01*
X1996805D02*
X1998700D01*
X1987607Y1551829D02*
G03X1988602Y1552268I-39J1438D01*
X1988198Y1551258I1035J-999*
G01X1987896Y1551711D02*
G03X1988602Y1552268I-1692J2874D01*
X1988070Y1551542I2399J-2316*
G01X1988353Y1552010D02*
G03X1988766Y1553042I-1056J1021D01*
G01X1989370Y1552458D02*
G03X1988353Y1552010I40J-1468D01*
G01X1988353D02*
G03X1988897Y1552751I-2449J2367D01*
G01X1989075Y1552579D02*
G03X1988353Y1552010I1729J-2934D01*
G01X1987480Y1551106D02*
X1989500Y1553197D01*
X1983619Y1551836D02*
G03X1984582Y1552343I-138J1432D01*
X1984249Y1551307I1102J-925*
G01X1983916Y1551738D02*
G03X1984582Y1552343I-1887J2750D01*
X1984101Y1551582I2553J-2144*
G01X1984238Y1551934D02*
G03X1984578Y1552991I-1124J945D01*
G01X1985221Y1552451D02*
G03X1984238Y1551934I143J-1462D01*
G01X1984238D02*
G03X1984729Y1552710I-2607J2191D01*
G01X1984919Y1552551D02*
G03X1984238Y1551934I1928J-2807D01*
G01X1983543Y1551106D02*
X1985300Y1553197D01*
X1979687Y1551836D02*
G03X1980652Y1552336I-130J1432D01*
G01X1980652D02*
G03X1980313Y1551303I1096J-931D01*
G01X1979983Y1551736D02*
G03X1980652Y1552336I-1870J2761D01*
G01X1980652D02*
G03X1980167Y1551579I2541J-2159D01*
G01X1980230Y1551840D02*
G03X1980577Y1552896I-1118J952D01*
G01X1981217Y1552352D02*
G03X1980230Y1551840I133J-1463D01*
G01X1980230D02*
G03X1980726Y1552614I-2593J2207D01*
G01X1980915Y1552453D02*
G03X1980230Y1551840I1910J-2819D01*
G01X1979606Y1551106D02*
X1981300Y1553097D01*
X1995962Y1555454D02*
G03X1996969Y1555043I1007J1028D01*
G01X1996969D02*
G03X1995962Y1554632I0J-1438D01*
G01X1996078Y1555164D02*
G03X1996969Y1555043I891J3214D01*
G01X1996969D02*
G03X1996078Y1554922I0J-3334D01*
G01X2023133Y1538564D02*
G03X2024157Y1538133I1039J1039D01*
G01X2023563Y1537540D02*
G03X2023133Y1538564I-1468J-14D01*
X2023864Y1538008I2409J2409*
G01X2023689Y1537833D02*
G03X2023133Y1538564I-2964J-1677D01*
G01X1995354Y1555043D02*
X1997229D01*
X1997229D02*
X1997934Y1555747D01*
X1997934D02*
X2002117D01*
X2002117D02*
X2006970Y1550895D01*
X2009068*
X2011666Y1548296*
X2011666D02*
X2015370D01*
X2015370D02*
X2016660Y1547006D01*
X2016660D02*
Y1543362D01*
X2016660D02*
X2021167Y1538855D01*
X2022842*
X2024300Y1537397*
X1991561Y1555763D02*
G03X1992567Y1556177I-4J1439D01*
G01X1992567D02*
G03X1992139Y1555177I1010J-1023D01*
G01X1991847Y1555638D02*
G03X1992567Y1556177I-1621J2914D01*
G01X1992567D02*
G03X1992018Y1555465I2342J-2373D01*
G01X1992325Y1555938D02*
G03X1992762Y1556960I-1031J1047D01*
G01X1993352Y1556362D02*
G03X1992325Y1555938I5J-1469D01*
G01X1992325D02*
G03X1992886Y1556666I-2391J2426D01*
G01X1993060Y1556489D02*
G03X1992325Y1555938I1657J-2975D01*
G01X1991417Y1555043D02*
X1993500Y1557097D01*
X1987631Y1555761D02*
G03X1988641Y1556166I9J1439D01*
G01X1988641D02*
G03X1988203Y1555170I1000J-1033D01*
G01X1987916Y1555634D02*
G03X1988641Y1556166I-1593J2929D01*
G01X1988641D02*
G03X1988085Y1555459I2319J-2396D01*
G01X1988314Y1555850D02*
G03X1988761Y1556867I-1021J1056D01*
G01X1989345Y1556263D02*
G03X1988314Y1555850I-8J-1468D01*
X1988882Y1556572I-2368J2448*
G01X1989054Y1556394D02*
G03X1988314Y1555850I1629J-2991D01*
G01X1987480Y1555043D02*
X1989500Y1556997D01*
X1983716Y1555756D02*
G03X1984737Y1556130I53J1438D01*
G01X1984737D02*
G03X1984269Y1555148I969J-1063D01*
G01X1983997Y1555620D02*
G03X1984737Y1556130I-1504J2976D01*
G01X1984737D02*
G03X1984160Y1555441I2245J-2465D01*
G01X1984579Y1555986D02*
G03X1985057Y1556989I-988J1087D01*
G01X1985623Y1556368D02*
G03X1984579Y1555986I-53J-1467D01*
G01X1984579D02*
G03X1985169Y1556691I-2292J2520D01*
G01X1985336Y1556508D02*
G03X1984579Y1555986I1537J-3040D01*
G01X1983543Y1555043D02*
X1985800Y1557097D01*
X1979769Y1555759D02*
G03X1980785Y1556147I32J1438D01*
X1980331Y1555159I983J-1049*
G01X1980051Y1555626D02*
G03X1980785Y1556147I-1545J2955D01*
X1980217Y1555449I2280J-2433*
G01X1980595Y1555969D02*
G03X1981059Y1556979I-1003J1073D01*
G01X1981633Y1556366D02*
G03X1980595Y1555969I-32J-1468D01*
G01X1980595D02*
G03X1981175Y1556682I-2327J2487D01*
G01X1981344Y1556501D02*
G03X1980595Y1555969I1580J-3017D01*
G01X1979606Y1555043D02*
X1981800Y1557097D01*
X1975822Y1555761D02*
G03X1976833Y1556163I13J1439D01*
G01X1976833D02*
G03X1976392Y1555169I997J-1036D01*
G01X1976106Y1555632D02*
G03X1976833Y1556163I-1585J2934D01*
G01X1976833D02*
G03X1976275Y1555458I2312J-2402D01*
G01X1976522Y1555864D02*
G03X1976971Y1556880I-1019J1059D01*
G01X1977554Y1556275D02*
G03X1976522Y1555864I-12J-1469D01*
X1977092Y1556584I-2362J2454*
G01X1977263Y1556406D02*
G03X1976522Y1555864I1621J-2996D01*
G01X1975669Y1555043D02*
X1977710Y1557008D01*
X1991577Y1559696D02*
G03X1992591Y1560089I26J1439D01*
G01X1992591D02*
G03X1992141Y1559099I988J-1045D01*
G01X1991860Y1559565D02*
G03X1992591Y1560089I-1558J2948D01*
G01X1992591D02*
G03X1992027Y1559389I2290J-2423D01*
G01X1992300Y1559814D02*
G03X1992759Y1560826I-1008J1069D01*
G01X1993336Y1560215D02*
G03X1992300Y1559814I-26J-1468D01*
G01X1992300D02*
G03X1992877Y1560529I-2338J2477D01*
G01X1993047Y1560349D02*
G03X1992300Y1559814I1592J-3010D01*
G01X1991417Y1558980D02*
X1993500Y1560947D01*
X1983611Y1559711D02*
G03X1984568Y1560228I-154J1430D01*
G01X1984568D02*
G03X1984247Y1559189I1112J-912D01*
G01X1983909Y1559616D02*
G03X1984568Y1560228I-1917J2729D01*
G01X1984568D02*
G03X1984096Y1559462I2577J-2115D01*
G01X1984152Y1559722D02*
G03X1984481Y1560783I-1134J933D01*
G01X1985130Y1560250D02*
G03X1984152Y1559722I158J-1460D01*
G01X1984152D02*
G03X1984634Y1560504I-2631J2162D01*
G01X1984826Y1560347D02*
G03X1984152Y1559722I1959J-2786D01*
G01X1983543Y1558980D02*
X1985200Y1560997D01*
X1971862Y1559702D02*
G03X1972860Y1560136I-31J1439D01*
G01X1972860D02*
G03X1972451Y1559128I1030J-1003D01*
G01X1972151Y1559583D02*
G03X1972860Y1560136I-1678J2882D01*
G01X1972860D02*
G03X1972324Y1559414I2387J-2328D01*
G01X1972547Y1559816D02*
G03X1972965Y1560845I-1051J1026D01*
G01X1973566Y1560259D02*
G03X1972547Y1559816I33J-1468D01*
G01X1972547D02*
G03X1973094Y1560554I-2437J2379D01*
G01X1973272Y1560381D02*
G03X1972547Y1559816I1714J-2943D01*
G01X1971732Y1558980D02*
X1973700Y1560997D01*
X2081771Y1475909D02*
Y1483594D01*
X2081771D02*
X2084161Y1485984D01*
X2084133Y1475909D02*
Y1482906D01*
X2084133D02*
X2085161Y1483934D01*
X2077047Y1475909D02*
Y1481977D01*
X2077047D02*
X2078350Y1483280D01*
X2075319Y1497176D02*
G03X2074900Y1496147I1050J-1028D01*
G01X2074900D02*
G03X2074480Y1497176I-1469J0D01*
G01X2075023Y1497057D02*
G03X2074900Y1496147I3283J-909D01*
G01X2074899D02*
G03X2074776Y1497057I-3405J0D01*
G01X2074900Y1497797D02*
Y1492365D01*
X2077350Y1489915*
X2052911Y1545196D02*
Y1544128D01*
X2053085Y1543954*
X2065850Y1518892D02*
Y1523138D01*
X2066871Y1524159*
X2062850Y1487497D02*
Y1493947D01*
X2062850D02*
X2065939Y1497037D01*
X2064850Y1518937D02*
Y1524622D01*
X2065871Y1525643*
X2066850Y1518847D02*
Y1521654D01*
X2067871Y1522675*
X2057640Y1480187D02*
G03X2058149Y1483609I-11255J3422D01*
G01X2058149D02*
G03X2058658Y1480187I11765J0D01*
G01X2058149Y1483609D02*
Y1480187D01*
Y1475909D02*
Y1487022D01*
X2058149D02*
X2059550Y1488422D01*
X2051250Y1511378D02*
Y1526250D01*
X2051299Y1526299*
X2052911Y1526936D02*
Y1524586D01*
X2053000Y1524497*
X2057750Y1534235D02*
Y1532598D01*
X2052911Y1526936D02*
X2053786Y1527811D01*
X2053786D02*
X2054448Y1529448D01*
X2054448D02*
X2054448D01*
X2084161Y1488344D02*
Y1485984D01*
X2085161Y1487519D02*
Y1483934D01*
X2078350Y1487638D02*
Y1483280D01*
X2077350Y1487497D02*
Y1489915D01*
X2053612Y1547510D02*
G03X2053921Y1548244I-743J745D01*
G01X2054346Y1547818D02*
G03X2053612Y1547510I11J-1052D01*
G01X2053612D02*
X2054068Y1547966D01*
X2052911Y1545196D02*
Y1546809D01*
X2054448Y1548346*
X2053085Y1542797D02*
Y1543954D01*
X2068000Y1498247D02*
G03X2068419Y1497219I1469J0D01*
G01X2067580D02*
G03X2068000Y1498247I-1049J1028D01*
G01X2068000D02*
G03X2068123Y1497337I3406J0D01*
G01X2067876D02*
G03X2067999Y1498247I-3282J910D01*
G01X2065850Y1518892D02*
Y1515239D01*
X2065850D02*
X2068000Y1513089D01*
X2068000D02*
Y1496597D01*
X2066871Y1530068D02*
Y1524159D01*
X2061800Y1497547D02*
G03X2062219Y1496519I1469J0D01*
G01X2061380D02*
G03X2061800Y1497547I-1049J1028D01*
G01X2061800D02*
G03X2061923Y1496637I3406J0D01*
G01X2061676D02*
G03X2061799Y1497547I-3282J910D01*
G01X2051250Y1511378D02*
X2053146Y1509482D01*
X2056374*
X2061800Y1504056*
X2061800D02*
Y1495897D01*
X2062365Y1480187D02*
G03X2062874Y1483609I-11256J3422D01*
X2063382Y1480187I11765J0*
G01X2062874Y1483609D02*
Y1480187D01*
X2062850Y1487497D02*
Y1484041D01*
X2062850D02*
X2062874Y1484017D01*
X2062874D02*
Y1475909D01*
X2065939Y1511822D02*
Y1497037D01*
X2064850Y1518937D02*
Y1514348D01*
X2064850D02*
X2065939Y1513259D01*
X2065939D02*
Y1511822D01*
X2065871Y1528176D02*
Y1525643D01*
X2072100Y1489147D02*
G03X2072519Y1488119I1469J0D01*
G01X2071680D02*
G03X2072100Y1489147I-1049J1028D01*
G01X2072100D02*
G03X2072223Y1488237I3406J0D01*
G01X2071976D02*
G03X2072099Y1489147I-3282J910D01*
G01X2066850Y1518847D02*
Y1516130D01*
X2066850D02*
X2072100Y1510880D01*
X2072100D02*
Y1487497D01*
X2067871Y1529672D02*
Y1522675D01*
X2059550Y1489147D02*
Y1488422D01*
X2050250Y1523897D02*
Y1507397D01*
X2052836Y1529448D02*
Y1528812D01*
X2081500Y1491955D02*
G03X2081930Y1490930I1469J15D01*
G01X2081930D02*
G03X2080906Y1491361I-1038J-1038D01*
G01X2081374Y1491662D02*
G03X2081930Y1490930I2965J1677D01*
G01X2081930D02*
G03X2081199Y1491486I-2408J-2407D01*
G01X2080763Y1492097D02*
X2082419Y1490442D01*
X2082789*
X2084161Y1489069*
X2084161D02*
Y1488344D01*
X2069221Y1521017D02*
G03X2070250Y1520597I1029J1050D01*
G01X2070250D02*
G03X2069221Y1520177I0J-1469D01*
G01X2069339Y1520721D02*
G03X2070250Y1520597I911J3283D01*
G01X2070250D02*
G03X2069339Y1520473I0J-3405D01*
G01X2068600Y1520597D02*
X2071174D01*
X2071174D02*
X2082994Y1508778D01*
Y1492083*
X2085161Y1489915*
X2085161D02*
Y1487519D01*
X2072336Y1517555D02*
G03X2072766Y1516530I1469J15D01*
G01X2072766D02*
G03X2071742Y1516961I-1038J-1038D01*
G01X2072210Y1517262D02*
G03X2072766Y1516530I2965J1677D01*
G01X2072766D02*
G03X2072035Y1517086I-2408J-2407D01*
G01X2071600Y1517697D02*
X2077450Y1511847D01*
X2077450D02*
Y1493201D01*
X2078350Y1492301*
Y1487638*
X2066436Y1493655D02*
G03X2066866Y1492630I1469J15D01*
G01X2066866D02*
G03X2065842Y1493061I-1038J-1038D01*
G01X2066310Y1493362D02*
G03X2066866Y1492630I2965J1677D01*
G01X2066866D02*
G03X2066135Y1493186I-2408J-2407D01*
G01X2069451Y1480187D02*
G03X2069960Y1483609I-11255J3422D01*
G01X2069960D02*
G03X2070469Y1480187I11765J0D01*
G01X2069960Y1483609D02*
Y1480187D01*
X2065700Y1493797D02*
X2067541Y1491956D01*
X2067541D02*
X2068266D01*
X2069960Y1490261*
X2069960D02*
Y1475909D01*
X2065019Y1486876D02*
G03X2064600Y1485847I1050J-1028D01*
G01X2064600D02*
G03X2064180Y1486876I-1469J0D01*
G01X2064723Y1486757D02*
G03X2064600Y1485847I3283J-909D01*
G01X2064599D02*
G03X2064476Y1486757I-3405J0D01*
G01X2064600Y1487497D02*
Y1483785D01*
X2065236Y1483149*
Y1475909*
X2050519Y1487676D02*
G03X2050100Y1486647I1050J-1028D01*
G01X2050100D02*
G03X2049680Y1487676I-1469J0D01*
G01X2050223Y1487557D02*
G03X2050100Y1486647I3283J-909D01*
G01X2050099D02*
G03X2049976Y1487557I-3405J0D01*
G01X2050554Y1480187D02*
G03X2051062Y1483609I-11256J3422D01*
G01X2051062D02*
G03X2051571Y1480187I11766J0D01*
G01X2051062Y1483609D02*
Y1480187D01*
X2050100Y1488297D02*
Y1484935D01*
X2050100D02*
X2051062Y1483972D01*
X2051062D02*
Y1475909D01*
X2055584Y1486876D02*
G03X2055164Y1485847I1049J-1028D01*
G01X2055164D02*
G03X2054744Y1486876I-1469J0D01*
G01X2055288Y1486757D02*
G03X2055164Y1485847I3282J-909D01*
G01X2055164D02*
G03X2055040Y1486757I-3406J0D01*
G01X2055164Y1487497D02*
Y1483778D01*
X2055164D02*
X2055787Y1483155D01*
X2055787D02*
Y1475909D01*
X2051826Y1532496D02*
G03X2052135Y1531762I1053J11D01*
X2051401Y1532070I-744J-744*
G01X2052135Y1531762D02*
X2051679Y1532218D01*
X2051299Y1532598D02*
X2052836Y1531061D01*
X2052836D02*
Y1529448D01*
X2051606Y1544756D02*
G03X2051317Y1544014I764J-725D01*
G01X2051317D02*
G03X2051005Y1544747I-1052J-15D01*
G01X2051317Y1544014D02*
X2051307Y1544659D01*
X2051310Y1544447D02*
G03X2051745Y1543425I1470J22D01*
G01X2050906Y1543412D02*
G03X2051310Y1544447I-1064J1013D01*
G01X2051310D02*
G03X2051448Y1543539I3406J52D01*
G01X2051200Y1543535D02*
G03X2051310Y1544447I-3295J860D01*
G01X2051299Y1545196D02*
X2051335Y1542797D01*
X2051826Y1551393D02*
G03X2052135Y1550660I1053J11D01*
X2051401Y1550968I-744J-744*
G01X2052135Y1550660D02*
X2051679Y1551116D01*
X2051299Y1551496D02*
X2052874Y1549921D01*
X2055048*
X2056023Y1548945*
X2056023D02*
Y1544340D01*
X2056023D02*
X2065871Y1534493D01*
Y1528176*
X2058092Y1526088D02*
G03X2058239Y1525305I1032J-211D01*
G01X2058239D02*
G03X2057587Y1525761I-884J-570D01*
G01X2058239Y1525305D02*
X2057889Y1525847D01*
X2058705Y1524584D02*
G03X2059615Y1523947I1235J796D01*
G01X2058910Y1523492D02*
G03X2058705Y1524584I-1439J295D01*
X2059302Y1523886I2862J1847*
G01X2059094Y1523751D02*
G03X2058705Y1524584I-3251J-1014D01*
G01X2057598Y1526299D02*
X2059600Y1523197D01*
X2057598Y1532598D02*
X2057750D01*
X2058126Y1545094D02*
G03X2058434Y1544360I1053J11D01*
G01X2058434D02*
G03X2057700Y1544669I-744J-743D01*
G01X2058434Y1544360D02*
X2057978Y1544816D01*
X2057598Y1545196D02*
X2066871Y1535923D01*
X2066871D02*
Y1530068D01*
X2058126Y1551393D02*
G03X2058434Y1550660I1053J11D01*
X2057700Y1550968I-744J-744*
G01X2058434Y1550660D02*
X2057978Y1551116D01*
X2064453Y1549771D02*
G03X2065563Y1549807I511J1378D01*
G01X2065271Y1549020D02*
G03X2064452Y1549771I-1329J-626D01*
G01X2064453D02*
G03X2065349Y1549571I1184J3194D01*
G01X2065263Y1549338D02*
G03X2064452Y1549771I-1994J-2760D01*
G01X2057598Y1551496D02*
X2059210Y1549883D01*
X2059210D02*
X2064150D01*
X2064150D02*
X2066000Y1549197D01*
X2061270Y1529573D02*
G03X2061854Y1529031I955J443D01*
G01X2061854D02*
G03X2061058Y1529010I-371J-984D01*
G01X2061854Y1529031D02*
X2061250Y1529259D01*
X2062577Y1528758D02*
G03X2063688Y1528788I519J1375D01*
G01X2063391Y1528002D02*
G03X2062577Y1528758I-1332J-618D01*
G01X2062577D02*
G03X2063472Y1528553I1202J3188D01*
G01X2063385Y1528321D02*
G03X2062577Y1528758I-2009J-2749D01*
G01X2060748Y1529448D02*
X2064121Y1528176D01*
X2061275Y1548244D02*
G03X2061584Y1547510I1053J11D01*
X2060850Y1547818I-744J-744*
G01X2061584Y1547510D02*
X2061128Y1547966D01*
X2060748Y1548346D02*
X2062026Y1547068D01*
X2063804*
X2067871Y1543001*
Y1529672*
X1969998Y1570791D02*
Y1572895D01*
X1969998D02*
X1970397Y1573294D01*
X1946375Y1559047D02*
Y1560897D01*
X1946375D02*
X1946500D01*
X1970590Y1567996D02*
G03X1971592Y1567575I1017J1017D01*
G01X1971011Y1566993D02*
G03X1970590Y1567996I-1438J-13D01*
G01X1970590D02*
G03X1971305Y1567452I2358J2358D01*
G01X1971134Y1567280D02*
G03X1970590Y1567996I-2902J-1641D01*
G01X1969998Y1570791D02*
Y1568588D01*
X1969998D02*
X1971732Y1566854D01*
X1966731Y1560731D02*
G03X1967127Y1559693I1469J-33D01*
G01X1967127D02*
G03X1966118Y1560157I-1072J-1004D01*
G01X1966596Y1560442D02*
G03X1967127Y1559693I3018J1579D01*
G01X1967127D02*
G03X1966415Y1560273I-2485J-2328D01*
G01X1966691Y1560159D02*
G03X1967679Y1559705I1050J983D01*
G01X1967079Y1559143D02*
G03X1966691Y1560159I-1438J33D01*
X1967388Y1559591I2434J2279*
G01X1967211Y1559426D02*
G03X1966691Y1560159I-2954J-1546D01*
G01X1966000Y1560897D02*
X1967795Y1558980D01*
X1924821Y1574817D02*
G03X1925850Y1574397I1029J1050D01*
G01X1925850D02*
G03X1924821Y1573977I0J-1469D01*
G01X1924939Y1574521D02*
G03X1925850Y1574397I911J3283D01*
G01X1925850D02*
G03X1924939Y1574273I0J-3405D01*
G01X1975669Y1572406D02*
G03X1976080Y1571399I1439J0D01*
G01X1975258D02*
G03X1975669Y1572406I-1027J1007D01*
G01X1975669D02*
G03X1975790Y1571515I3335J0D01*
G01X1975548D02*
G03X1975669Y1572406I-3213J891D01*
G01X1924200Y1574397D02*
X1928960D01*
X1928960D02*
X1929380Y1573978D01*
X1936612*
X1942481Y1579847*
X1942481D02*
X1962825D01*
X1962825D02*
X1963104Y1579569D01*
X1969917*
X1975669Y1573817*
Y1570791*
X1945421Y1576217D02*
G03X1946450Y1575797I1029J1050D01*
G01X1946450D02*
G03X1945421Y1575377I0J-1469D01*
G01X1945539Y1575921D02*
G03X1946450Y1575797I911J3283D01*
G01X1946450D02*
G03X1945539Y1575673I0J-3405D01*
G01X1944800Y1575797D02*
X1947687D01*
X1947687D02*
X1949737Y1577847D01*
X1949737D02*
X1961179D01*
X1961179D02*
X1961823Y1577203D01*
X1961823D02*
X1969063D01*
X1969063D02*
X1970397Y1575869D01*
X1970397D02*
Y1575144D01*
X1920821Y1573017D02*
G03X1921850Y1572597I1029J1050D01*
G01X1921850D02*
G03X1920821Y1572177I0J-1469D01*
G01X1920939Y1572721D02*
G03X1921850Y1572597I911J3283D01*
G01X1921850D02*
G03X1920939Y1572473I0J-3405D01*
G01X1920200Y1572597D02*
X1937907D01*
X1937907D02*
X1944157Y1578847D01*
X1944157D02*
X1962105D01*
X1962105D02*
X1962440Y1578512D01*
X1969560*
X1973950Y1574122*
X1973950D02*
Y1573397D01*
X1951721Y1576117D02*
G03X1952750Y1575697I1029J1050D01*
G01X1952750D02*
G03X1951721Y1575277I0J-1469D01*
G01X1951839Y1575821D02*
G03X1952750Y1575697I911J3283D01*
G01X1952750D02*
G03X1951839Y1575573I0J-3405D01*
G01X1966653Y1567996D02*
G03X1967655Y1567575I1017J1017D01*
G01X1967074Y1566993D02*
G03X1966653Y1567996I-1438J-13D01*
G01X1966653D02*
G03X1967368Y1567452I2358J2358D01*
G01X1967197Y1567280D02*
G03X1966653Y1567996I-2902J-1641D01*
G01X1951100Y1575697D02*
X1953470D01*
X1953470D02*
X1954620Y1576847D01*
X1954620D02*
X1960254D01*
X1960254D02*
X1965826Y1571275D01*
X1965826D02*
Y1568822D01*
X1965826D02*
X1967795Y1566854D01*
X1942300Y1566547D02*
G03X1942719Y1565519I1469J0D01*
G01X1941880D02*
G03X1942300Y1566547I-1049J1028D01*
G01X1942300D02*
G03X1942423Y1565637I3406J0D01*
G01X1942176D02*
G03X1942299Y1566547I-3282J910D01*
G01X1962716Y1571933D02*
G03X1963718Y1571512I1017J1017D01*
G01X1963137Y1570930D02*
G03X1962716Y1571933I-1438J-13D01*
G01X1962716D02*
G03X1963431Y1571389I2358J2358D01*
G01X1963260Y1571217D02*
G03X1962716Y1571933I-2902J-1641D01*
G01X1942300Y1564897D02*
Y1567433D01*
X1942300D02*
X1943689Y1568822D01*
X1943689D02*
X1948594D01*
X1948594D02*
X1950078Y1570307D01*
X1950078D02*
Y1571275D01*
X1950078D02*
X1953193Y1574390D01*
X1953193D02*
X1954098D01*
X1954098D02*
X1955555Y1575847D01*
X1955555D02*
X1958801D01*
X1958801D02*
X1963858Y1570791D01*
X1954821Y1561217D02*
G03X1955850Y1560797I1029J1050D01*
G01X1955850D02*
G03X1954821Y1560377I0J-1469D01*
G01X1954939Y1560921D02*
G03X1955850Y1560797I911J3283D01*
G01X1955850D02*
G03X1954939Y1560673I0J-3405D01*
G01X1962716Y1565712D02*
G03X1963137Y1566714I-1017J1017D01*
G01X1963718Y1566133D02*
G03X1962716Y1565712I15J-1438D01*
X1963260Y1566428I-2358J2358*
G01X1963431Y1566256D02*
G03X1962716Y1565712I1643J-2902D01*
G01X1954200Y1560797D02*
X1960254D01*
X1960254D02*
X1961889Y1562433D01*
X1961889D02*
Y1564885D01*
X1961889D02*
X1963858Y1566854D01*
X1958170Y1565833D02*
G03X1959214Y1566213I57J1468D01*
G01X1959214D02*
G03X1958735Y1565211I988J-1088D01*
G01X1958457Y1565693D02*
G03X1959214Y1566213I-1531J3043D01*
G01X1959214D02*
G03X1958623Y1565510I2289J-2522D01*
G01X1958724Y1565768D02*
G03X1959194Y1566750I-965J1066D01*
G01X1959746Y1566141D02*
G03X1958724Y1565768I-54J-1437D01*
G01X1958724D02*
G03X1959303Y1566457I-2240J2470D01*
G01X1959466Y1566277D02*
G03X1958724Y1565768I1499J-2978D01*
G01X1957992Y1565104D02*
X1959921Y1566854D01*
X1950821Y1565317D02*
G03X1951850Y1564897I1029J1050D01*
G01X1951850D02*
G03X1950821Y1564477I0J-1469D01*
G01X1950939Y1565021D02*
G03X1951850Y1564897I911J3283D01*
G01X1951850D02*
G03X1950939Y1564773I0J-3405D01*
G01X1958779Y1569649D02*
G03X1959200Y1570651I-1017J1017D01*
G01X1959781Y1570070D02*
G03X1958779Y1569649I15J-1438D01*
X1959323Y1570365I-2358J2358*
G01X1959494Y1570193D02*
G03X1958779Y1569649I1643J-2902D01*
G01X1950200Y1564897D02*
X1952543D01*
X1952543D02*
X1954015Y1566370D01*
X1954015D02*
Y1567338D01*
X1954015D02*
X1955500Y1568822D01*
X1955500D02*
X1957952D01*
X1957952D02*
X1959921Y1570791D01*
X1968515Y1562775D02*
G03X1968933Y1561771I1439J9D01*
X1967932Y1562195I-1020J-1013*
G01X1968391Y1562488D02*
G03X1968933Y1561771I2909J1632D01*
X1968219Y1562317I-2366J-2349*
G01X1968737Y1561968D02*
G03X1969760Y1561534I1043J1036D01*
G01X1969164Y1560942D02*
G03X1968737Y1561968I-1469J-9D01*
X1969466Y1561409I2417J2400*
G01X1969290Y1561235D02*
G03X1968737Y1561968I-2969J-1666D01*
G01X1967795Y1562917D02*
X1969900Y1560797D01*
X1967795Y1570791D02*
X1967886D01*
X1967886D02*
Y1572625D01*
X1967886D02*
X1968555Y1573294D01*
X1968555D02*
Y1575144D01*
X1968555D02*
X1968647D01*
X1973935Y1570791D02*
Y1572083D01*
X1973935D02*
X1973950Y1572098D01*
X1977872Y1568588D02*
Y1570791D01*
X1978464Y1567996D02*
G03X1979466Y1567575I1017J1017D01*
G01X1978885Y1566993D02*
G03X1978464Y1567996I-1438J-13D01*
G01X1978464D02*
G03X1979179Y1567452I2358J2358D01*
G01X1979008Y1567280D02*
G03X1978464Y1567996I-2902J-1641D01*
G01X1977872Y1568588D02*
X1979606Y1566854D01*
X1980932Y1573497D02*
Y1572760D01*
X1980932D02*
X1981926Y1571766D01*
X1981926D02*
X1983538Y1570783D01*
X1983538D02*
X1983543Y1570791D01*
X1974118Y1591674D02*
X1975968Y1591332D01*
X1975968D02*
X1983072D01*
X1985625Y1593885*
X1985625D02*
Y1597547D01*
X1974118Y1591674D02*
X1974128Y1591726D01*
X1970397Y1575144D02*
Y1573294D01*
X1974527Y1567996D02*
G03X1975529Y1567575I1017J1017D01*
G01X1974948Y1566993D02*
G03X1974527Y1567996I-1438J-13D01*
G01X1974527D02*
G03X1975242Y1567452I2358J2358D01*
G01X1975071Y1567280D02*
G03X1974527Y1567996I-2902J-1641D01*
G01X1973935Y1570791D02*
Y1568588D01*
X1973935D02*
X1975669Y1566854D01*
X1973950Y1573397D02*
Y1572098D01*
X1983564Y1575915D02*
G03X1984592Y1576335I0J1469D01*
G01Y1575495D02*
G03X1983564Y1575915I-1027J-1049D01*
X1984474Y1576039I0J3406*
G01Y1575791D02*
G03X1983564Y1575915I-909J-3282D01*
G01X1980932Y1573497D02*
Y1574222D01*
X1980932D02*
X1982625Y1575915D01*
X1985214*
X2062418Y1575729D02*
G03X2063446Y1576149I0J1470D01*
G01Y1575309D02*
G03X2062418Y1575729I-1027J-1049D01*
X2063328Y1575853I0J3407*
G01Y1575605D02*
G03X2062418Y1575729I-909J-3282D01*
G01X1977872Y1570791D02*
Y1572576D01*
X1977872D02*
X1982960Y1577665D01*
X1982960D02*
X1987153D01*
X1988048Y1576769*
X1988048D02*
X2000262D01*
X2000262D02*
X2000667Y1577174D01*
X2049338*
X2049338D02*
X2049912Y1577747D01*
X2049912D02*
X2057462D01*
X2057462D02*
X2059480Y1575729D01*
X2059480D02*
X2064068D01*
X1972821Y1588417D02*
G03X1973850Y1587997I1029J1050D01*
G01X1973850D02*
G03X1972821Y1587577I0J-1469D01*
G01X1972939Y1588121D02*
G03X1973850Y1587997I911J3283D01*
G01X1973850D02*
G03X1972939Y1587873I0J-3405D01*
G01X1972200Y1587997D02*
X1974096D01*
X1974096D02*
X1975389Y1589289D01*
X1975389D02*
X1988904D01*
X1988904D02*
X1993500Y1593885D01*
X1993500D02*
Y1597547D01*
X1999321Y1589817D02*
G03X2000350Y1589397I1029J1050D01*
G01X2000350D02*
G03X1999321Y1588977I0J-1469D01*
G01X1999439Y1589521D02*
G03X2000350Y1589397I911J3283D01*
G01X2000350D02*
G03X1999439Y1589273I0J-3405D01*
G01X1998700Y1589397D02*
X2004759D01*
X2004759D02*
X2009248Y1593885D01*
X2009248D02*
Y1597547D01*
X1991791Y1588082D02*
G03X1992815Y1588513I-14J1470D01*
G01X1992815D02*
G03X1992385Y1587489I1039J-1038D01*
G01X1992084Y1587957D02*
G03X1992815Y1588513I-1677J2965D01*
G01X1992815D02*
G03X1992259Y1587782I2409J-2408D01*
G01X1991648Y1587346D02*
X1995642Y1591340D01*
X1995642D02*
X1998828D01*
X2001374Y1593885*
X2001374D02*
Y1597547D01*
X1985893Y1571093D02*
G03X1986959Y1571309I270J1414D01*
G01X1986805Y1570501D02*
G03X1985893Y1571093I-1181J-820D01*
G01X1985893D02*
G03X1986791Y1571046I625J3276D01*
G01X1986746Y1570807D02*
G03X1985893Y1571093I-1477J-2989D01*
G01X1982682Y1573497D02*
X1983289D01*
X1983289D02*
X1985646Y1571141D01*
X1987480Y1570791*
X1995876Y1563433D02*
G03X1996941Y1563216I799J1197D01*
G01X1996941D02*
G03X1996028Y1562625I266J-1413D01*
G01X1996043Y1563170D02*
G03X1996941Y1563216I281J3323D01*
G01X1996941D02*
G03X1996088Y1562932I617J-3277D01*
G01X1997878Y1563392D02*
G03X1998811Y1563995I-271J1444D01*
G01X1998966Y1563170D02*
G03X1997878Y1563392I-815J-1221D01*
X1998750Y1563682I-629J3348*
G01X1998795Y1563439D02*
G03X1997878Y1563392I-286J-3394D01*
G01X1995354Y1562917D02*
X1999500Y1563697D01*
X1988204Y1562794D02*
G03X1988648Y1561801I1438J48D01*
G01X1988648D02*
G03X1987636Y1562199I-993J-1039D01*
G01X1988087Y1562504D02*
G03X1988648Y1561801I2864J1709D01*
G01X1988648D02*
G03X1987920Y1562329I-2302J-2411D01*
G01X1988506Y1561937D02*
G03X1989540Y1561530I1015J1063D01*
G01X1988960Y1560923D02*
G03X1988506Y1561937I-1468J-48D01*
G01X1988506D02*
G03X1989250Y1561398I2353J2463D01*
G01X1989079Y1561218D02*
G03X1988506Y1561937I-2924J-1744D01*
G01X1987480Y1562917D02*
X1989700Y1560797D01*
X1983600Y1563649D02*
G03X1984549Y1564180I-175J1428D01*
G01X1984549D02*
G03X1984243Y1563137I1126J-895D01*
G01X1983899Y1563559D02*
G03X1984549Y1564180I-1958J2699D01*
G01X1984549D02*
G03X1984089Y1563408I2609J-2076D01*
G01X1984172Y1563706D02*
G03X1984484Y1564773I-1149J916D01*
G01X1985141Y1564249D02*
G03X1984172Y1563706I180J-1457D01*
G01X1984172D02*
G03X1984642Y1564496I-2664J2123D01*
G01X1984836Y1564341D02*
G03X1984172Y1563706I2000J-2756D01*
G01X1983543Y1562917D02*
X1985200Y1564997D01*
X1979725Y1563641D02*
G03X1980716Y1564090I-53J1438D01*
G01X1980716D02*
G03X1980323Y1563076I1045J-988D01*
G01X1980015Y1563526D02*
G03X1980716Y1564090I-1720J2856D01*
G01X1980716D02*
G03X1980192Y1563359I2423J-2291D01*
G01X1980440Y1563799D02*
G03X1980842Y1564834I-1066J1010D01*
G01X1981452Y1564257D02*
G03X1980440Y1563799I56J-1467D01*
G01X1980440D02*
G03X1980976Y1564545I-2473J2341D01*
G01X1981156Y1564375D02*
G03X1980440Y1563799I1759J-2917D01*
G01X1979606Y1562917D02*
X1981574Y1564997D01*
X1975797Y1563640D02*
G03X1976792Y1564077I-38J1438D01*
G01X1976792D02*
G03X1976387Y1563068I1034J-999D01*
G01X1976085Y1563521D02*
G03X1976792Y1564077I-1688J2876D01*
G01X1976792D02*
G03X1976260Y1563353I2397J-2318D01*
G01X1976427Y1563700D02*
G03X1976840Y1564731I-1055J1022D01*
G01X1977444Y1564147D02*
G03X1976427Y1563700I39J-1468D01*
X1976971Y1564440I-2447J2369*
G01X1977149Y1564268D02*
G03X1976427Y1563700I1725J-2937D01*
G01X1975669Y1562917D02*
X1977574Y1564885D01*
X1971886Y1563635D02*
G03X1972897Y1564035I15J1438D01*
G01X1972897D02*
G03X1972455Y1563041I997J-1037D01*
G01X1972170Y1563506D02*
G03X1972897Y1564035I-1581J2936D01*
G01X1972897D02*
G03X1972338Y1563331I2310J-2405D01*
G01X1972709Y1563855D02*
G03X1973160Y1564870I-1017J1060D01*
G01X1973742Y1564264D02*
G03X1972709Y1563855I-14J-1469D01*
G01X1972709D02*
G03X1973280Y1564574I-2358J2458D01*
G01X1973452Y1564396D02*
G03X1972709Y1563855I1616J-2998D01*
G01X1971732Y1562917D02*
X1973900Y1564997D01*
X1995677Y1567513D02*
G03X1996756Y1567657I364J1392D01*
X1996086Y1566799I715J-1248*
G01X1995922Y1567319D02*
G03X1996756Y1567657I-823J3232D01*
X1996043Y1567108I1657J-2894*
G01X1996268Y1567377D02*
G03X1996952Y1568253I-730J1276D01*
G01X1997369Y1567524D02*
G03X1996268Y1567377I-370J-1421D01*
G01X1996268D02*
G03X1996996Y1567937I-1692J2956D01*
G01X1997119Y1567722D02*
G03X1996268Y1567377I842J-3300D01*
G01X1995354Y1566854D02*
X1997700Y1568197D01*
X1991556Y1567575D02*
G03X1992559Y1567996I-13J1438D01*
G01X1992559D02*
G03X1992138Y1566993I1017J-1016D01*
G01X1991843Y1567452D02*
G03X1992559Y1567996I-1641J2902D01*
G01X1992559D02*
G03X1992015Y1567280I2358J-2357D01*
G01X2000980Y1572183D02*
G03X2001410Y1573208I-1038J1040D01*
G01X2002004Y1572614D02*
G03X2000980Y1572183I15J-1469D01*
G01X2000980D02*
G03X2001536Y1572915I-2408J2409D01*
G01X2001711Y1572740D02*
G03X2000980Y1572183I1678J-2964D01*
G01X1991417Y1566854D02*
X1993385Y1568822D01*
X1993385D02*
X1995844D01*
X1995844D02*
X1997630Y1570608D01*
X1997630D02*
X1999404D01*
X1999404D02*
X2002146Y1573350D01*
X1988201Y1566714D02*
G03X1988622Y1565712I1438J15D01*
G01X1988622D02*
G03X1987619Y1566133I-1016J-1017D01*
G01X1988078Y1566428D02*
G03X1988622Y1565712I2902J1642D01*
G01X1988622D02*
G03X1987906Y1566256I-2357J-2358D01*
G01X2028750Y1570197D02*
G03X2029778Y1570617I0J1470D01*
G01Y1569777D02*
G03X2028750Y1570197I-1028J-1049D01*
G01X2028750D02*
G03X2029660Y1570321I0J3407D01*
G01Y1570073D02*
G03X2028750Y1570197I-910J-3281D01*
G01X1987480Y1566854D02*
X1989214Y1565120D01*
X1989214D02*
X1997772D01*
X2001293Y1568641*
X2001293D02*
X2018450D01*
X2018450D02*
X2020007Y1570197D01*
X2020007D02*
X2030400D01*
X1983682Y1567575D02*
G03X1984685Y1567996I-13J1438D01*
G01X1984685D02*
G03X1984264Y1566993I1017J-1016D01*
G01X1983969Y1567452D02*
G03X1984685Y1567996I-1641J2902D01*
G01X1984685D02*
G03X1984141Y1567280I2358J-2357D01*
G01X2040958Y1575589D02*
G03X2041982Y1575158I1039J1039D01*
G01X2041388Y1574565D02*
G03X2040958Y1575589I-1469J-14D01*
X2041689Y1575033I2408J2409*
G01X2041514Y1574857D02*
G03X2040958Y1575589I-2964J-1676D01*
G01X1983543Y1566854D02*
X1985511Y1568822D01*
X1985511D02*
X1987964D01*
X1987964D02*
X1989448Y1570307D01*
X1989448D02*
Y1571275D01*
X1989448D02*
X1990698Y1572525D01*
X1990698D02*
X1993158D01*
X1993158D02*
X1996402Y1575769D01*
X1996402D02*
X2000676D01*
X2000676D02*
X2001007Y1576100D01*
X2001007D02*
X2040446D01*
X2040446D02*
X2042124Y1574422D01*
X1995659Y1571459D02*
G03X1996732Y1571633I323J1402D01*
G01X1996732D02*
G03X1996087Y1570757I750J-1226D01*
G01X1995908Y1571272D02*
G03X1996732Y1571633I-914J3207D01*
G01X1996732D02*
G03X1996035Y1571065I1739J-2844D01*
G01X1997592Y1572159D02*
G03X1998250Y1573053I-766J1254D01*
G01X1998688Y1572337D02*
G03X1997592Y1572159I-329J-1431D01*
X1998304Y1572739I-1776J2906*
G01X1998433Y1572528D02*
G03X1997592Y1572159I935J-3275D01*
G01X1995354Y1570791D02*
X1999000Y1573019D01*
X1991937Y1571309D02*
G03X1993004Y1571093I797J1198D01*
G01X1993004D02*
G03X1992091Y1570501I269J-1412D01*
G01X1992105Y1571046D02*
G03X1993004Y1571093I274J3323D01*
G01X1993004D02*
G03X1992151Y1570807I624J-3275D01*
G01X2056150Y1573697D02*
G03X2057178Y1574117I0J1470D01*
G01Y1573277D02*
G03X2056150Y1573697I-1028J-1049D01*
G01X2056150D02*
G03X2057060Y1573821I0J3407D01*
G01Y1573573D02*
G03X2056150Y1573697I-910J-3281D01*
G01X1991417Y1570791D02*
X1993251Y1571141D01*
X1993251D02*
X1996880Y1574769D01*
X1996880D02*
X2001091D01*
X2001091D02*
X2001422Y1575100D01*
X2001422D02*
X2038971D01*
X2038971D02*
X2041400Y1572672D01*
X2041400D02*
X2048887D01*
X2048887D02*
X2049912Y1573697D01*
X2049912D02*
X2057800D01*
X1980332Y1570685D02*
G03X1980800Y1569703I1437J81D01*
X1979779Y1570077I-968J-1063*
G01X1980223Y1570393D02*
G03X1980800Y1569703I2823J1775D01*
X1980059Y1570213I-2245J-2464*
G01X1980355Y1570108D02*
G03X1981398Y1569726I990J1087D01*
G01X1980832Y1569105D02*
G03X1980355Y1570108I-1466J-82D01*
G01X1980355D02*
G03X1981111Y1569587I2294J2518D01*
G01X1980944Y1569404D02*
G03X1980355Y1570108I-2883J-1813D01*
G01X1979606Y1570791D02*
X1981574Y1568997D01*
X1971435Y1571462D02*
G03X1972017Y1572381I-833J1173D01*
G01X1972017D02*
G03X1972244Y1571317I1416J-253D01*
G01X1971740Y1571525D02*
G03X1972017Y1572381I-3005J1445D01*
G01X1972017D02*
G03X1971979Y1571482I3283J-588D01*
G01X1971908Y1571773D02*
G03X1971676Y1572860I-1446J260D01*
G01X1972503Y1572711D02*
G03X1971908Y1571773I852J-1197D01*
G01X1971908D02*
G03X1971947Y1572691I-3352J602D01*
G01X1972191Y1572647D02*
G03X1971908Y1571773I3070J-1475D01*
G01X1971732Y1570791D02*
X1972200Y1573397D01*
G54D22*
X1877795Y1599143D02*
X1881087Y1607105D01*
X1881087D02*
X1877795Y1603242D01*
X1874503Y1607105*
X1874503D02*
X1877795Y1599143D01*
X1877276Y1600397D02*
X1878313D01*
X1876243Y1602897D02*
X1879347D01*
X1875209Y1605397D02*
X1875958D01*
X1879631D02*
X1880381D01*
X1875000Y1605904D02*
Y1606522D01*
X1877500Y1599857D02*
Y1603588D01*
X1880000Y1604476D02*
Y1605829D01*
X1878679Y1614968D02*
G03X1885037Y1617639I-92J9122D01*
G01X1885037D02*
G03X1882365Y1611282I6451J-6449D01*
G01X1880498Y1614188D02*
G03X1885037Y1617639I-10412J18404D01*
G01X1885037D02*
G03X1881585Y1613100I14952J-14951D01*
G01X1925553Y1617639D02*
G03X1931910Y1614968I6450J6451D01*
G01X1928224Y1611282D02*
G03X1925553Y1617639I-9121J-92D01*
G01X1925553D02*
G03X1930092Y1614188I14952J14953D01*
G01X1929004Y1613100D02*
G03X1925553Y1617639I-18403J-10412D01*
G01X1877795Y1610397D02*
X1885450Y1618053D01*
X1885450D02*
X1925139D01*
X1925139D02*
X1932795Y1610397D01*
X1877795D02*
Y1595393D01*
X1877795D02*
X1901668Y1571520D01*
X1901668D02*
Y1538606D01*
G54D27*
X1888370Y1490227D03*
X1885900Y1498097D03*
X1874678Y1509697D03*
X1877400Y1487497D03*
X1869750D03*
X1884800D03*
X1846700D03*
X1852257Y1490790D03*
X1862146Y1492994D03*
X1856205Y1493909D03*
X1835142Y1487497D03*
X1874015Y1497851D03*
X1859900Y1495697D03*
X1857900Y1487497D03*
X1867600Y1492597D03*
X1869700Y1497497D03*
X1881300Y1488993D03*
X1850600Y1487497D03*
X1879100Y1510797D03*
X1878163Y1490497D03*
X1874000Y1492697D03*
X1848571Y1489868D03*
X1863000Y1519097D03*
X1866900Y1510797D03*
X1843200Y1488897D03*
X1873000Y1489197D03*
X1845200Y1511397D03*
X1844400Y1493197D03*
X1889432Y1495429D03*
X1870300Y1530897D03*
X1865900Y1515897D03*
X1864100Y1522197D03*
X1903315Y1493427D03*
X1901668Y1538606D03*
X1897892Y1491885D03*
X1946200Y1552997D03*
X1941900Y1517697D03*
X1929800Y1520397D03*
X1940365Y1498097D03*
X1954015Y1549137D03*
X1923500Y1551416D03*
X1954015Y1545200D03*
X1969763Y1553074D03*
X1923971Y1547916D03*
X1944500Y1487484D03*
X1963500Y1487432D03*
X1950599Y1487497D03*
X1957952Y1529452D03*
X1954015Y1533389D03*
X1923938Y1538547D03*
X1954015Y1537197D03*
X1954682Y1506672D03*
X1961889Y1529452D03*
X1939500Y1488911D03*
X1949700Y1493897D03*
X1925249Y1492162D03*
X1931206Y1492166D03*
X1936588Y1491697D03*
X1941800Y1513697D03*
X1938700Y1494297D03*
X1954200Y1525297D03*
X1911028Y1487497D03*
X1958200Y1517497D03*
X1960305Y1491587D03*
X1965300Y1493497D03*
X1936500Y1488697D03*
X1909330Y1503997D03*
X1947832Y1489680D03*
X1907300Y1487497D03*
X1920715Y1490897D03*
X1905300Y1499397D03*
X1929032Y1488874D03*
X1913384Y1490056D03*
X1897636Y1496097D03*
X1957952Y1545297D03*
X1969763Y1549297D03*
X1957952Y1537326D03*
X1912069Y1521005D03*
X1961889Y1537326D03*
X1969763Y1545297D03*
X1961837Y1545253D03*
X1912069Y1537297D03*
X1969763Y1533389D03*
X1957952D03*
X1954015Y1529452D03*
X1961889Y1533389D03*
X1913085Y1556954D03*
X1912677Y1548546D03*
X1969763Y1537326D03*
X1957952Y1549137D03*
X1961889D03*
X1957305Y1493537D03*
X1951500Y1509097D03*
X1916200Y1506897D03*
X1961400Y1494600D03*
X1962887Y1501785D03*
X1958200Y1525497D03*
X1948875Y1506672D03*
X1933532Y1487422D03*
X1969800Y1540897D03*
X1948000Y1497097D03*
X1957900Y1521578D03*
X1946200Y1492997D03*
X1965700Y1529697D03*
X1942400Y1521597D03*
X1950300Y1529497D03*
X1937900Y1537297D03*
X1930601Y1496179D03*
X1946400Y1533397D03*
X1908500Y1491997D03*
X1950300Y1537297D03*
X1923028Y1488726D03*
X1901800Y1498897D03*
X1926195Y1531251D03*
X1924000Y1497662D03*
X1942500Y1537297D03*
X1920028Y1487497D03*
X1950300Y1517597D03*
X1945800D03*
X1950300Y1533397D03*
X1915028Y1487497D03*
X1946100Y1536997D03*
X1933805Y1493864D03*
X1946200Y1521797D03*
X1893000Y1516797D03*
X1928667Y1493870D03*
X1934330Y1537326D03*
X1902800Y1524597D03*
X1942100Y1525497D03*
X1942400Y1533397D03*
X1934520Y1497364D03*
X1917800Y1529097D03*
X1949700Y1513697D03*
X1946000Y1529397D03*
X1931800Y1543197D03*
X1942500Y1529397D03*
X1946500Y1525497D03*
X1939671Y1507026D03*
X1950300Y1521597D03*
X1890200Y1487697D03*
X1922700Y1529797D03*
X1921000Y1496397D03*
X1966100Y1541197D03*
X1954100Y1493497D03*
X1969900Y1513597D03*
X1962200Y1504597D03*
X1962100Y1525497D03*
X1964700Y1504922D03*
X1969200Y1503997D03*
X1965385Y1490497D03*
X1959000Y1487497D03*
X1967371Y1497144D03*
X1969929Y1500367D03*
X1955111Y1489543D03*
X1956500Y1509197D03*
X1965800Y1537697D03*
X1969231Y1487497D03*
X1895300Y1492497D03*
X1967018Y1508178D03*
X1929000Y1560297D03*
X1950100Y1549097D03*
X1897600Y1541697D03*
X1949700Y1545197D03*
X1911600Y1534297D03*
X1946400Y1541197D03*
X1933924Y1546022D03*
X1965600Y1556997D03*
X1934031Y1553766D03*
X1919500Y1550597D03*
X1912400Y1542797D03*
X1904400Y1536597D03*
X1946300Y1549397D03*
X1916300Y1548797D03*
X1950000Y1553097D03*
X1911600Y1554197D03*
X1954300Y1552997D03*
X1950676Y1497973D03*
X1965900Y1552797D03*
X1985800Y1533297D03*
X1973700Y1553074D03*
X2005500Y1558197D03*
X2004882Y1545197D03*
X1977637Y1545303D03*
X1992596Y1495273D03*
X2049488Y1553267D03*
X1992400Y1487497D03*
X2048500Y1523897D03*
X1974616Y1489730D03*
X1985153Y1494207D03*
X2005069Y1535621D03*
X1977637Y1533389D03*
X2036100Y1520897D03*
X2048000Y1555897D03*
X2028000Y1557397D03*
X1971903Y1507677D03*
X2048300Y1521197D03*
X1977637Y1537326D03*
X1973700Y1529452D03*
X2011797Y1522715D03*
X1985700Y1525397D03*
X2019563Y1518833D03*
X1998300Y1522547D03*
X1989700Y1529297D03*
X1981759Y1509811D03*
X2004885Y1493097D03*
X2002625Y1525572D03*
X1989200Y1525497D03*
X2007038Y1490300D03*
X1993700Y1517597D03*
X1994519Y1491444D03*
X1989800Y1517697D03*
X2023327Y1488097D03*
X2010311Y1514236D03*
X1985300Y1517585D03*
X2012314Y1511290D03*
X2017327Y1487497D03*
X2016542Y1520768D03*
X1989300Y1521597D03*
X2014756Y1515211D03*
X2002368Y1498145D03*
X1993800Y1521597D03*
X2005868Y1497097D03*
X1970622Y1495635D03*
X1996400Y1487497D03*
X1990519Y1490997D03*
X1973900Y1513597D03*
X1975403Y1508490D03*
X2001322Y1487432D03*
X1998210Y1489478D03*
X2017000Y1553297D03*
X1972851Y1492914D03*
X1997222Y1497486D03*
X2019901Y1523996D03*
X2045600Y1542497D03*
X2042317Y1489465D03*
X2020457Y1490576D03*
X2009468Y1487414D03*
X2004844Y1487446D03*
X2047096Y1492715D03*
X2034664Y1492397D03*
X2026827Y1487420D03*
X2014986Y1491797D03*
X2037200Y1553297D03*
X2035350Y1510584D03*
X1973803Y1545303D03*
X1973700Y1533389D03*
Y1549303D03*
X2017371Y1535297D03*
X1973804Y1537223D03*
X2045500Y1512338D03*
X1977637Y1553074D03*
X2012600Y1542347D03*
X2001710Y1489908D03*
X2009504Y1493490D03*
X2013868Y1498015D03*
X1996640Y1493566D03*
X1993389Y1513986D03*
X2018600Y1531797D03*
X2037500Y1498097D03*
X2045303Y1522443D03*
X1981500Y1529397D03*
X2040000Y1497097D03*
X2031825Y1534922D03*
X1993600Y1537197D03*
X1988888Y1493685D03*
X1985300Y1537297D03*
X1987400Y1487497D03*
X1973700Y1517497D03*
X2021752Y1507909D03*
X1985400Y1513797D03*
X2012400Y1517097D03*
X1985800Y1521497D03*
X2030600Y1511697D03*
X2021793Y1501754D03*
X1981900Y1513697D03*
X2033266Y1497897D03*
X1977700Y1517597D03*
X2025800Y1499397D03*
X1983694Y1506796D03*
X1977800Y1525397D03*
X2025242Y1540397D03*
X2039250Y1487497D03*
X1977400Y1513697D03*
X1981300Y1521497D03*
Y1517597D03*
X1985700Y1529597D03*
X2034000Y1515497D03*
X2039700Y1538897D03*
X2024300Y1537397D03*
X2005800Y1523797D03*
X1981300Y1525497D03*
X2020096Y1547372D03*
X2010368Y1497421D03*
X2029330Y1502697D03*
X2023214Y1521812D03*
X2023957Y1491097D03*
X1982231Y1489028D03*
X2001700Y1553427D03*
X1986009Y1490907D03*
X1981800Y1557097D03*
X2012120Y1550317D03*
X2039400Y1491497D03*
X1970100Y1521497D03*
X2034346Y1536644D03*
X2027900Y1490897D03*
X1989700Y1545097D03*
X2025000Y1527697D03*
X2030700Y1488897D03*
X1993400Y1545097D03*
X2037300Y1541997D03*
X2017300Y1508497D03*
X2026821Y1525276D03*
X2027468Y1493897D03*
X2024100Y1532897D03*
X1978000Y1529397D03*
X1989500Y1553197D03*
X2033800Y1541397D03*
X2016100Y1495297D03*
X2011100Y1530297D03*
X1976731Y1487497D03*
X1973300Y1556997D03*
X2019524Y1550872D03*
X2024613Y1505297D03*
X1998700Y1553997D03*
X2021742Y1540754D03*
X1981300Y1553097D03*
X2028907Y1540397D03*
X2029113Y1506986D03*
X2027075Y1543515D03*
X2027100Y1510340D03*
X2038071Y1534969D03*
X2030800Y1553197D03*
X2014946Y1524515D03*
X1971731Y1487497D03*
X1997100Y1545197D03*
X2041250Y1542897D03*
X2031853Y1539101D03*
X1998350Y1535165D03*
X1987702Y1509152D03*
X1981653Y1495273D03*
X1998800Y1540665D03*
X1998200Y1512797D03*
X1999640Y1494482D03*
X2019910Y1543872D03*
X1985200Y1545097D03*
X2038937Y1555551D03*
X1981200Y1549097D03*
X2042200Y1518597D03*
X2042578Y1536826D03*
X1989500Y1556997D03*
X2041167Y1523730D03*
X2022700Y1549697D03*
X1989600Y1549197D03*
X1985300Y1553197D03*
X2049714Y1540176D03*
X1998819Y1548427D03*
X1993500Y1557097D03*
X1981800Y1537197D03*
X2049000Y1537097D03*
X2001507Y1546165D03*
X1997600Y1557497D03*
X1977800Y1548897D03*
X1985800Y1557097D03*
X2003148Y1538649D03*
X2017100Y1556297D03*
X1977710Y1557008D03*
X2055210Y1497047D03*
X2050977Y1559838D03*
X2062700Y1552997D03*
X2080763Y1492097D03*
X2075600Y1487497D03*
X2068074Y1489672D03*
X2082411Y1488344D03*
X2061100Y1487497D03*
X2054957Y1490547D03*
X2063200Y1545197D03*
X2062300Y1534597D03*
X2051042Y1534897D03*
X2064189Y1511822D03*
X2070500Y1541997D03*
X2057500Y1512338D03*
X2055984Y1507397D03*
X2068600Y1520597D03*
X2071600Y1517697D03*
X2074900Y1497797D03*
X2080000Y1495097D03*
X2068600Y1517097D03*
X2050900Y1490697D03*
X2065700Y1493797D03*
X2062700Y1530997D03*
X2064600Y1487497D03*
X2066000Y1549197D03*
X2057800Y1489147D03*
X2068000Y1496597D03*
X2051100Y1497497D03*
X2051335Y1542797D03*
X2050100Y1488297D03*
X2061800Y1495897D03*
X2072100Y1487497D03*
X2064121Y1528176D03*
X2054700Y1493547D03*
X2055164Y1487497D03*
X2053000Y1524497D03*
X2059178Y1497518D03*
X2059600Y1523197D03*
X2056100Y1524497D03*
X2054835Y1542797D03*
X2056000Y1534597D03*
X2054500Y1521897D03*
X2057000Y1559838D03*
X2062121Y1521476D03*
X2070500Y1535797D03*
X1875984Y1575397D03*
X1874015Y1585897D03*
X1860200Y1568297D03*
X1866100Y1566297D03*
X1887600Y1599997D03*
X1862200Y1572197D03*
X1864200Y1570297D03*
X1887800Y1574197D03*
X1933800Y1565497D03*
X1950100Y1560697D03*
X1935984Y1586539D03*
X1910300Y1601797D03*
X1927037Y1592155D03*
X1903070Y1586023D03*
X1933015Y1575728D03*
X1969877Y1623397D03*
X1912677Y1564897D03*
X1966000Y1583697D03*
Y1560897D03*
X1924200Y1574397D03*
X1944800Y1575797D03*
X1965900Y1564797D03*
X1968647Y1575144D03*
X1920200Y1572597D03*
X1951100Y1575697D03*
X1969900Y1560797D03*
X1964078Y1581376D03*
X1957100Y1574097D03*
X1942300Y1564897D03*
X1946500Y1560897D03*
X1954200Y1560797D03*
X1957992Y1565104D03*
X1950200Y1564897D03*
X2039488Y1586496D03*
X1978759Y1575938D03*
X1981500Y1560997D03*
X1993279Y1584734D03*
X2013800Y1601797D03*
X2004800Y1586417D03*
X2016050Y1623397D03*
X2024900Y1566884D03*
X2001374Y1623397D03*
X2047500Y1568397D03*
X2038628Y1567769D03*
X2032400Y1566884D03*
X1993500Y1623397D03*
X2009248D03*
X1985625D03*
X1996936Y1586211D03*
X1977751Y1623397D03*
X1975800Y1584997D03*
X1974128Y1591726D03*
X1972200Y1587997D03*
Y1573397D03*
X1998700Y1589397D03*
X1991648Y1587346D03*
X1973700Y1560997D03*
X2011000Y1570397D03*
X1997700Y1568197D03*
X1999500Y1563697D03*
X1973900Y1564997D03*
X1993500Y1560947D03*
X1992370Y1574275D03*
X2028830Y1578997D03*
X1986182Y1573347D03*
X1989600Y1575019D03*
X1985214Y1575915D03*
X1988370Y1584968D03*
X1981574Y1568997D03*
X1982682Y1573497D03*
X2002146Y1573350D03*
X1989700Y1560797D03*
X1999000Y1573019D03*
X1986085Y1586218D03*
X1977574Y1564885D03*
X1981574Y1564997D03*
X2044400Y1562297D03*
X1985200Y1560997D03*
X2039500Y1572097D03*
X2044400Y1566197D03*
X1985200Y1564997D03*
X2030400Y1570197D03*
X2042124Y1574422D03*
X2054000Y1575997D03*
X2052015Y1586397D03*
X2053600Y1568397D03*
X2057984Y1585897D03*
X2050200Y1600697D03*
X2050500Y1568197D03*
X2057800Y1573697D03*
X2064068Y1575729D03*
G54D31*
X1920952Y1553897D02*
X1920165D01*
X1915834D02*
X1915047D01*
X1920952Y1520397D02*
X1920165D01*
X1915834D02*
X1915047D01*
X1982452Y1580397D02*
X1981665D01*
X1977334D02*
X1976547D01*
X2048000Y1517850D02*
Y1517062D01*
Y1512732D02*
Y1511944D01*
Y1559444D02*
Y1560232D01*
Y1564562D02*
Y1565350D01*
X2054500Y1517850D02*
Y1517062D01*
Y1512732D02*
Y1511944D01*
Y1559444D02*
Y1560232D01*
Y1564562D02*
Y1565350D01*
X2008047Y1553897D02*
X2008834D01*
X2013165D02*
X2013952D01*
X2041500Y1559444D02*
Y1560232D01*
Y1564562D02*
Y1565350D01*
X1937952Y1502397D02*
X1937165D01*
X1932834D02*
X1932047D01*
X1937952Y1580397D02*
X1937165D01*
X1932834D02*
X1932047D01*
X2052047Y1502397D02*
X2052834D01*
X2057165D02*
X2057952D01*
X2051547Y1580397D02*
X2052334D01*
X2056665D02*
X2057452D01*
X1877952D02*
X1877165D01*
X1872834D02*
X1872047D01*
X1992047Y1502397D02*
X1992834D01*
X1997165D02*
X1997952D01*
X1992047Y1580397D02*
X1992834D01*
X1997165D02*
X1997952D01*
X1877952Y1502397D02*
X1877165D01*
X1872834D02*
X1872047D01*
X1920952Y1545897D02*
X1920165D01*
X1915834D02*
X1915047D01*
X2008047D02*
X2008834D01*
X2013165D02*
X2013952D01*
X1920952Y1564897D02*
X1920165D01*
X1915834D02*
X1915047D01*
X1974500Y1502350D02*
Y1501562D01*
Y1497232D02*
Y1496444D01*
X1955500Y1502350D02*
Y1501562D01*
Y1497232D02*
Y1496444D01*
X1920952Y1536897D02*
X1920165D01*
X1915834D02*
X1915047D01*
X2008047D02*
X2008834D01*
X2013165D02*
X2013952D01*
G54D37*
X1936299Y1570791D03*
X1940236D03*
X1944173D03*
X1948110D03*
X1952047D03*
X1955984D03*
X1959921D03*
X1963858D03*
X1967795D03*
X1971732D03*
X1975669D03*
X1979606D03*
X1983543D03*
X1987480D03*
X1991417D03*
X1995354D03*
X1936299Y1566854D03*
X1940236D03*
X1944173D03*
X1948110D03*
X1952047D03*
X1955984D03*
X1959921D03*
X1963858D03*
X1967795D03*
X1971732D03*
X1975669D03*
X1979606D03*
X1983543D03*
X1987480D03*
X1991417D03*
X1995354D03*
X1936299Y1562917D03*
X1940236D03*
X1944173D03*
X1948110D03*
X1952047D03*
X1955984D03*
X1959921D03*
X1963858D03*
X1967795D03*
X1971732D03*
X1975669D03*
X1979606D03*
X1983543D03*
X1987480D03*
X1991417D03*
X1995354D03*
X1936299Y1558980D03*
X1940236D03*
X1944173D03*
X1948110D03*
X1952047D03*
X1955984D03*
X1959921D03*
X1963858D03*
X1967795D03*
X1971732D03*
X1975669D03*
X1979606D03*
X1983543D03*
X1987480D03*
X1991417D03*
X1995354D03*
X1936299Y1555043D03*
X1940236D03*
X1944173D03*
X1948110D03*
X1952047D03*
X1955984D03*
X1959921D03*
X1963858D03*
X1967795D03*
X1971732D03*
X1975669D03*
X1979606D03*
X1983543D03*
X1987480D03*
X1991417D03*
X1995354D03*
X1936299Y1551106D03*
X1940236D03*
X1944173D03*
X1948110D03*
X1952047D03*
X1955984D03*
X1959921D03*
X1963858D03*
X1967795D03*
X1971732D03*
X1975669D03*
X1979606D03*
X1983543D03*
X1987480D03*
X1991417D03*
X1995354D03*
X1936299Y1547169D03*
X1940236D03*
X1944173D03*
X1948110D03*
X1952047D03*
X1955984D03*
X1959921D03*
X1963858D03*
X1967795D03*
X1971732D03*
X1975669D03*
X1979606D03*
X1983543D03*
X1987480D03*
X1991417D03*
X1995354D03*
X1936299Y1543232D03*
X1940236D03*
X1944173D03*
X1948110D03*
X1952047D03*
X1955984D03*
X1959921D03*
X1963858D03*
X1967795D03*
X1971732D03*
X1975669D03*
X1979606D03*
X1983543D03*
X1987480D03*
X1991417D03*
X1995354D03*
X1936299Y1539295D03*
X1940236D03*
X1944173D03*
X1948110D03*
X1952047D03*
X1955984D03*
X1959921D03*
X1963858D03*
X1967795D03*
X1971732D03*
X1975669D03*
X1979606D03*
X1983543D03*
X1987480D03*
X1991417D03*
X1995354D03*
X1936299Y1535358D03*
X1940236D03*
X1944173D03*
X1948110D03*
X1952047D03*
X1955984D03*
X1959921D03*
X1963858D03*
X1967795D03*
X1971732D03*
X1975669D03*
X1979606D03*
X1983543D03*
X1987480D03*
X1991417D03*
X1995354D03*
X1936299Y1531421D03*
X1940236D03*
X1944173D03*
X1948110D03*
X1952047D03*
X1955984D03*
X1959921D03*
X1963858D03*
X1967795D03*
X1971732D03*
X1975669D03*
X1979606D03*
X1983543D03*
X1987480D03*
X1991417D03*
X1995354D03*
X1936299Y1527484D03*
X1940236D03*
X1944173D03*
X1948110D03*
X1952047D03*
X1955984D03*
X1959921D03*
X1963858D03*
X1967795D03*
X1971732D03*
X1975669D03*
X1979606D03*
X1983543D03*
X1987480D03*
X1991417D03*
X1995354D03*
X1936299Y1523547D03*
X1940236D03*
X1944173D03*
X1948110D03*
X1952047D03*
X1955984D03*
X1959921D03*
X1963858D03*
X1967795D03*
X1971732D03*
X1975669D03*
X1979606D03*
X1983543D03*
X1987480D03*
X1991417D03*
X1995354D03*
X1936299Y1519610D03*
X1940236D03*
X1944173D03*
X1948110D03*
X1952047D03*
X1955984D03*
X1959921D03*
X1963858D03*
X1967795D03*
X1971732D03*
X1975669D03*
X1979606D03*
X1983543D03*
X1987480D03*
X1991417D03*
X1995354D03*
X1936299Y1515673D03*
X1940236D03*
X1944173D03*
X1948110D03*
X1952047D03*
X1955984D03*
X1959921D03*
X1963858D03*
X1967795D03*
X1971732D03*
X1975669D03*
X1979606D03*
X1983543D03*
X1987480D03*
X1991417D03*
X1995354D03*
X1936299Y1511736D03*
X1940236D03*
X1944173D03*
X1948110D03*
X1952047D03*
X1955984D03*
X1959921D03*
X1963858D03*
X1967795D03*
X1971732D03*
X1975669D03*
X1979606D03*
X1983543D03*
X1987480D03*
X1991417D03*
X1995354D03*
G54D42*
X1740000Y1727897D02*
Y1675397D01*
Y1727897D02*
X1756363D01*
X1756363D02*
X1761818Y1725397D01*
X1761818D02*
X1763636Y1722897D01*
X1763636D02*
X1765454Y1717897D01*
X1765454D02*
Y1710397D01*
X1765454D02*
X1763636Y1705397D01*
X1763636D02*
X1761818Y1702897D01*
X1761818D02*
X1756363Y1700397D01*
X1756363D02*
X1740000D01*
X1781818Y1727897D02*
Y1675397D01*
Y1727897D02*
X1798181D01*
X1798181D02*
X1803636Y1725397D01*
X1803636D02*
X1805454Y1722897D01*
X1805454D02*
X1807272Y1717897D01*
X1807272D02*
Y1712897D01*
X1807272D02*
X1805454Y1707897D01*
X1805454D02*
X1803636Y1705397D01*
X1803636D02*
X1798181Y1702897D01*
X1798181D02*
X1781818D01*
X1794545D02*
X1807272Y1675397D01*
X1823636Y1727897D02*
Y1675397D01*
Y1727897D02*
X1847272D01*
X1823636Y1702897D02*
X1838181D01*
X1823636Y1675397D02*
X1847272D01*
X1863636Y1727897D02*
Y1675397D01*
X1863636D02*
X1885454D01*
X1901818Y1727897D02*
Y1675397D01*
X1918181Y1727897D02*
Y1675397D01*
Y1727897D02*
X1932727Y1675397D01*
X1947272Y1727897D02*
X1932727Y1675397D01*
X1947272Y1727897D02*
Y1675397D01*
X1963636Y1727897D02*
Y1675397D01*
X1980000Y1727897D02*
Y1675397D01*
Y1727897D02*
X2005454Y1675397D01*
Y1727897D02*
Y1675397D01*
X2036363Y1727897D02*
X2021818Y1675397D01*
X2036363Y1727897D02*
X2050909Y1675397D01*
X2027272Y1692897D02*
X2045454D01*
X2067272Y1727897D02*
Y1675397D01*
Y1727897D02*
X2083636D01*
X2083636D02*
X2089090Y1725397D01*
X2089090D02*
X2090909Y1722897D01*
X2090909D02*
X2092727Y1717897D01*
X2092727D02*
Y1712897D01*
X2092727D02*
X2090909Y1707897D01*
X2090909D02*
X2089090Y1705397D01*
X2089090D02*
X2083636Y1702897D01*
X2083636D02*
X2067272D01*
X2080000D02*
X2092727Y1675397D01*
X2109090Y1727897D02*
X2123636Y1702897D01*
X2123636D02*
Y1675397D01*
X2138181Y1727897D02*
X2123636Y1702897D01*
G54D43*
X1840000Y1571397D03*
X2037500Y1616397D03*
X2087500Y1518897D03*
G54D62*
X2017122Y1619909D02*
Y1612586D01*
Y1601208D02*
Y1593885D01*
X2009248Y1619909D02*
Y1612586D01*
Y1601208D02*
Y1593885D01*
X2001374Y1619909D02*
Y1612586D01*
Y1601208D02*
Y1593885D01*
X1993500Y1619909D02*
Y1612586D01*
Y1601208D02*
Y1593885D01*
X1985625Y1619909D02*
Y1612586D01*
Y1601208D02*
Y1593885D01*
X1977751Y1619909D02*
Y1612586D01*
Y1601208D02*
Y1593885D01*
X1969877Y1619909D02*
Y1612586D01*
Y1601208D02*
Y1593885D01*
G54D63*
X2013185Y1606897D03*
X1973814D03*
G54D64*
X1917204Y1610397D03*
X1846614D03*
X2057704Y1609897D03*
G54D65*
X1932795Y1610397D03*
X1862204D03*
X1877795D03*
X1893149D03*
X2073295Y1609897D03*
G54D66*
X2060748Y1551496D03*
Y1548346D03*
Y1545196D03*
Y1532598D03*
Y1529448D03*
Y1526299D03*
X2057598Y1551496D03*
Y1548346D03*
Y1545196D03*
Y1532598D03*
Y1529448D03*
Y1526299D03*
X2054448Y1551496D03*
Y1548346D03*
Y1545196D03*
Y1532598D03*
Y1529448D03*
Y1526299D03*
X2051299Y1551496D03*
Y1548346D03*
Y1545196D03*
Y1532598D03*
Y1529448D03*
Y1526299D03*
X2048149Y1551496D03*
Y1548346D03*
Y1545196D03*
Y1532598D03*
Y1529448D03*
Y1526299D03*
X2045000Y1551496D03*
Y1548346D03*
Y1545196D03*
Y1532598D03*
Y1529448D03*
Y1526299D03*
X2041850Y1551496D03*
Y1548346D03*
Y1545196D03*
Y1532598D03*
Y1529448D03*
Y1526299D03*
X2038700Y1551496D03*
Y1548346D03*
Y1545196D03*
Y1532598D03*
Y1529448D03*
Y1526299D03*
X2035551Y1551496D03*
Y1548346D03*
Y1545196D03*
Y1532598D03*
Y1529448D03*
Y1526299D03*
X2032401Y1551496D03*
Y1548346D03*
Y1545196D03*
Y1532598D03*
Y1529448D03*
Y1526299D03*
X2029251Y1551496D03*
Y1548346D03*
Y1545196D03*
Y1532598D03*
Y1529448D03*
Y1526299D03*
G54D67*
X1838464Y1472267D02*
Y1479551D01*
X1840826Y1472267D02*
Y1479551D01*
X1843188Y1472267D02*
Y1479551D01*
X1845551Y1472267D02*
Y1479551D01*
X1847913Y1472267D02*
Y1479551D01*
X1850275Y1472267D02*
Y1479551D01*
X1852637Y1472267D02*
Y1479551D01*
X1855000Y1472267D02*
Y1479551D01*
X1857362Y1472267D02*
Y1479551D01*
X1859724Y1472267D02*
Y1479551D01*
X1862086Y1472267D02*
Y1479551D01*
X1864448Y1472267D02*
Y1479551D01*
X1866811Y1472267D02*
Y1479551D01*
X1869173Y1472267D02*
Y1479551D01*
X1871535Y1472267D02*
Y1479551D01*
X1873897Y1472267D02*
Y1479551D01*
X1876259Y1472267D02*
Y1479551D01*
X1878622Y1472267D02*
Y1479551D01*
X1880984Y1472267D02*
Y1479551D01*
X1883346Y1472267D02*
Y1479551D01*
X1899881Y1472267D02*
Y1479551D01*
X1902244Y1472267D02*
Y1479551D01*
X1904606Y1472267D02*
Y1479551D01*
X1906968Y1472267D02*
Y1479551D01*
X1909330Y1472267D02*
Y1479551D01*
X1911692Y1472267D02*
Y1479551D01*
X1914055Y1472267D02*
Y1479551D01*
X1916417Y1472267D02*
Y1479551D01*
X1918779Y1472267D02*
Y1479551D01*
X1921141Y1472267D02*
Y1479551D01*
X1923503Y1472267D02*
Y1479551D01*
X1925866Y1472267D02*
Y1479551D01*
X1928228Y1472267D02*
Y1479551D01*
X1930590Y1472267D02*
Y1479551D01*
X1932952Y1472267D02*
Y1479551D01*
X1935314Y1472267D02*
Y1479551D01*
X1937677Y1472267D02*
Y1479551D01*
X1940039Y1472267D02*
Y1479551D01*
X1942401Y1472267D02*
Y1479551D01*
X1944763Y1472267D02*
Y1479551D01*
X1947125Y1472267D02*
Y1479551D01*
X1949488Y1472267D02*
Y1479551D01*
X1951850Y1472267D02*
Y1479551D01*
X1954212Y1472267D02*
Y1479551D01*
X1956574Y1472267D02*
Y1479551D01*
X1958937Y1472267D02*
Y1479551D01*
X1961299Y1472267D02*
Y1479551D01*
X1963661Y1472267D02*
Y1479551D01*
X1966023Y1472267D02*
Y1479551D01*
X1968385Y1472267D02*
Y1479551D01*
X1970748Y1472267D02*
Y1479551D01*
X1973110Y1472267D02*
Y1479551D01*
X1975472Y1472267D02*
Y1479551D01*
X1977834Y1472267D02*
Y1479551D01*
X1980196Y1472267D02*
Y1479551D01*
X1982559Y1472267D02*
Y1479551D01*
X1984921Y1472267D02*
Y1479551D01*
X1987283Y1472267D02*
Y1479551D01*
X1989645Y1472267D02*
Y1479551D01*
X1992007Y1472267D02*
Y1479551D01*
X1994370Y1472267D02*
Y1479551D01*
X1996732Y1472267D02*
Y1479551D01*
X1999094Y1472267D02*
Y1479551D01*
X2001456Y1472267D02*
Y1479551D01*
X2003818Y1472267D02*
Y1479551D01*
X2006181Y1472267D02*
Y1479551D01*
X2008543Y1472267D02*
Y1479551D01*
X2010905Y1472267D02*
Y1479551D01*
X2013267Y1472267D02*
Y1479551D01*
X2015629Y1472267D02*
Y1479551D01*
X2017992Y1472267D02*
Y1479551D01*
X2020354Y1472267D02*
Y1479551D01*
X2022716Y1472267D02*
Y1479551D01*
X2025078Y1472267D02*
Y1479551D01*
X2027440Y1472267D02*
Y1479551D01*
X2029803Y1472267D02*
Y1479551D01*
X2032165Y1472267D02*
Y1479551D01*
X2034527Y1472267D02*
Y1479551D01*
X2036889Y1472267D02*
Y1479551D01*
X2039251Y1472267D02*
Y1479551D01*
X2041614Y1472267D02*
Y1479551D01*
X2043976Y1472267D02*
Y1479551D01*
X2046338Y1472267D02*
Y1479551D01*
X2048700Y1472267D02*
Y1479551D01*
X2051062Y1472267D02*
Y1479551D01*
X2053425Y1472267D02*
Y1479551D01*
X2055787Y1472267D02*
Y1479551D01*
X2058149Y1472267D02*
Y1479551D01*
X2060511Y1472267D02*
Y1479551D01*
X2062874Y1472267D02*
Y1479551D01*
X2065236Y1472267D02*
Y1479551D01*
X2067598Y1472267D02*
Y1479551D01*
X2069960Y1472267D02*
Y1479551D01*
X2072322Y1472267D02*
Y1479551D01*
X2074685Y1472267D02*
Y1479551D01*
X2077047Y1472267D02*
Y1479551D01*
X2079409Y1472267D02*
Y1479551D01*
X2081771Y1472267D02*
Y1479551D01*
X2084133Y1472267D02*
Y1479551D01*
X2086496Y1472267D02*
Y1479551D01*
G54D68*
X1837874Y1494019D03*
X2088267D03*
G74*
X0Y0D02*
M02*
