*
*
G04 PowerPCB (Build Number 501.037) generated Gerber (RS-274-X) file*
G04 PC Version=2.1*
*
%IN "83232-A.pcb"*%
*
%MOIN*%
*
%FSLAX35Y35*%
*
*
*
*
G04 PC Standard Apertures*
*
*
G04 Thermal Relief Aperture macro.*
%AMTER*
1,1,$1,0,0*
1,0,$1-$2,0,0*
21,0,$3,$4,0,0,45*
21,0,$3,$4,0,0,135*
%
*
*
G04 Annular Aperture macro.*
%AMANN*
1,1,$1,0,0*
1,0,$2,0,0*
%
*
*
G04 Odd Aperture macro.*
%AMODD*
1,1,$1,0,0*
1,0,$1-0.005,0,0*
%
*
*
G04 PC Custom Aperture Macros*
*
*
*
*
*
*
G04 PC Aperture Table*
*
%ADD010C,0.01*%
%ADD014C,0.005*%
%ADD027C,0.02*%
%ADD042C,0.05*%
%ADD063C,0.04331*%
%ADD065C,0.11811*%
%ADD068C,0.07087*%
*
*
*
*
G04 PC Custom Flashes*
G04 Layer Name 83232-A.pcb - flashes*
%LPD*%
*
*
G04 PC Circuitry*
G04 Layer Name 83232-A.pcb - circuitry*
%LPD*%
*
G54D10*
G01X1830000Y1627877D02*
Y1557011D01*
Y1541263D02*
G75*
G03Y1557011I0J7874D01*
G01Y1541263D02*
Y1470397D01*
X1830000D02*
X1892007D01*
X1892007D02*
Y1484177D01*
X1895944D02*
G03X1892007I-1967J0D01*
G01X1895944D02*
Y1470397D01*
X1895944D02*
X2096141D01*
X2096141D02*
Y1541263D01*
Y1557011D02*
G03Y1541263I0J-7873D01*
G01Y1557011D02*
Y1627877D01*
X2096141D02*
X1830000D01*
X1941751Y1449164D02*
Y1442602D01*
X1941751D02*
X1944479D01*
X1948342Y1449164D02*
X1946524Y1442602D01*
X1948342Y1449164D02*
X1950161Y1442602D01*
X1947206Y1444789D02*
X1949479D01*
X1952206Y1449164D02*
X1954024Y1446039D01*
X1954024D02*
Y1442602D01*
X1955842Y1449164D02*
X1954024Y1446039D01*
X1957888Y1449164D02*
Y1442602D01*
Y1449164D02*
X1960842D01*
X1957888Y1446039D02*
X1959706D01*
X1957888Y1442602D02*
X1960842D01*
X1962888Y1449164D02*
Y1442602D01*
Y1449164D02*
X1964933D01*
X1964933D02*
X1965615Y1448852D01*
X1965615D02*
X1965842Y1448539D01*
X1965842D02*
X1966070Y1447914D01*
X1966070D02*
Y1447289D01*
X1966070D02*
X1965842Y1446664D01*
X1965842D02*
X1965615Y1446352D01*
X1965615D02*
X1964933Y1446039D01*
X1964933D02*
X1962888D01*
X1964479D02*
X1966070Y1442602D01*
X1972661Y1449164D02*
X1975161D01*
X1975161D02*
X1973797Y1446664D01*
X1973797D02*
X1974479D01*
X1974479D02*
X1974933Y1446352D01*
X1974933D02*
X1975161Y1446039D01*
X1975161D02*
X1975388Y1445102D01*
Y1444477*
X1975161Y1443539*
X1975161D02*
X1974706Y1442914D01*
X1974706D02*
X1974024Y1442602D01*
X1974024D02*
X1973342D01*
X1973342D02*
X1972661Y1442914D01*
X1972661D02*
X1972433Y1443227D01*
X1972433D02*
X1972206Y1443852D01*
X1912014Y1534577D02*
G03X1912700Y1534297I686J700D01*
G01X1912700D02*
G03X1912014Y1534017I0J-979D01*
G01X2016322Y1555519D02*
G03X2016609Y1556202I-692J693D01*
G01X2017005Y1555806D02*
G03X2016322Y1555519I10J-979D01*
G01X1911600Y1534297D02*
X1925495D01*
X1925495D02*
X1930524Y1539326D01*
X1930524D02*
X1944370D01*
X1944370D02*
X1944500Y1539197D01*
X1944500D02*
X1948300D01*
X1948300D02*
X1950366Y1541263D01*
X1950366D02*
X1961299D01*
X1961299D02*
X1967333Y1547297D01*
X1967333D02*
X1970592D01*
X1970592D02*
X1971783Y1546106D01*
X1971783D02*
Y1544495D01*
X1971783D02*
X1972975Y1543303D01*
X1972975D02*
X1978672D01*
X1978672D02*
X1984700Y1549332D01*
X1984700D02*
X1986541D01*
X1986541D02*
X1988407Y1551197D01*
X1988407D02*
X1992679D01*
X1992679D02*
X1992909Y1551427D01*
X1992909D02*
X2006464D01*
X2006464D02*
X2008602Y1553565D01*
X2008602D02*
X2014367D01*
X2014367D02*
X2017100Y1556297D01*
X2048414Y1556177D02*
G03X2049100Y1555897I686J700D01*
G01X2049100D02*
G03X2048414Y1555617I0J-979D01*
G01X2061600Y1552997D02*
G03X2062285Y1553277I0J980D01*
G01Y1552717D02*
G03X2061600Y1552997I-685J-699D01*
G01X2048000Y1555897D02*
X2053900D01*
X2053900D02*
X2056800Y1552997D01*
X2056800D02*
X2062700D01*
G54D14*
X1903315Y1491427D02*
X1903845Y1492897D01*
X1903315Y1492177*
X1903315D02*
X1902784Y1492897D01*
X1902784D02*
X1903315Y1491427D01*
X1903145Y1491897D02*
X1903484D01*
X1902964Y1492397D02*
X1903152D01*
X1903477D02*
X1903665D01*
X1903000Y1492300D02*
Y1492605D01*
X1903500Y1491940D02*
Y1492428D01*
X1890200Y1489697D02*
X1889669Y1488227D01*
X1889669D02*
X1890200Y1488947D01*
X1890200D02*
X1890730Y1488227D01*
X1890730D02*
X1890200Y1489697D01*
X1889730Y1488397D02*
X1889794D01*
X1890605D02*
X1890669D01*
X1889911Y1488897D02*
X1890163D01*
X1890236D02*
X1890488D01*
X1890091Y1489397D02*
X1890308D01*
X1890000Y1488676D02*
Y1489143D01*
X1890500Y1488540D02*
Y1488866D01*
X2037488Y1586496D02*
X2038957Y1585965D01*
X2038957D02*
X2038238Y1586496D01*
X2038957Y1587026*
X2038957D02*
X2037488Y1586496D01*
X2037760Y1586397D02*
X2038371D01*
X2038601Y1586897D02*
X2038783D01*
X2037500Y1586491D02*
Y1586500D01*
X2038000Y1586311D02*
Y1586680D01*
X2038500Y1586130D02*
Y1586303D01*
Y1586688D02*
Y1586861D01*
X1860042Y1496433D02*
G03X1861066Y1496864I-14J1470D01*
G01X1861066D02*
G03X1860636Y1495840I1039J-1038D01*
G01X1860335Y1496308D02*
G03X1861066Y1496864I-1677J2965D01*
G01X1861066D02*
G03X1860510Y1496133I2409J-2408D01*
G01X1940750Y1521597D02*
G03X1941778Y1522017I0J1470D01*
G01Y1521177D02*
G03X1940750Y1521597I-1028J-1049D01*
G01X1940750D02*
G03X1941660Y1521721I0J3407D01*
G01Y1521473D02*
G03X1940750Y1521597I-910J-3281D01*
G01X1859900Y1495697D02*
X1867068Y1502865D01*
X1867068D02*
Y1504562D01*
X1867068D02*
X1881407Y1518901D01*
X1881407D02*
X1921626D01*
X1921626D02*
X1924872Y1522147D01*
X1924872D02*
X1935262D01*
X1935262D02*
X1935812Y1521597D01*
X1935812D02*
X1942400D01*
X1858042Y1488233D02*
G03X1859066Y1488664I-14J1470D01*
G01X1859066D02*
G03X1858636Y1487640I1039J-1038D01*
G01X1858335Y1488108D02*
G03X1859066Y1488664I-1677J2965D01*
G01X1859066D02*
G03X1858510Y1487933I2409J-2408D01*
G01X1950719Y1528876D02*
G03X1950300Y1527847I1050J-1028D01*
G01X1950300D02*
G03X1949880Y1528876I-1469J0D01*
G01X1950423Y1528757D02*
G03X1950300Y1527847I3283J-909D01*
G01X1950299D02*
G03X1950176Y1528757I-3405J0D01*
G01X1857900Y1487497D02*
X1860427Y1490024D01*
X1860427D02*
X1861651D01*
X1861651D02*
X1865923Y1494296D01*
Y1496195*
X1865923D02*
X1873875Y1504147D01*
X1873875D02*
X1874930D01*
X1874930D02*
X1883384Y1512601D01*
X1914753*
X1914753D02*
X1917775Y1515622D01*
X1917775D02*
X1942299D01*
X1942299D02*
X1943850Y1517172D01*
X1943850D02*
Y1518122D01*
X1943850D02*
X1945425Y1519697D01*
X1945425D02*
X1946574D01*
X1946574D02*
X1948250Y1521372D01*
X1948250D02*
Y1523810D01*
X1950300Y1525860*
Y1529497*
X1868221Y1493017D02*
G03X1869250Y1492597I1029J1050D01*
G01X1869250D02*
G03X1868221Y1492177I0J-1469D01*
G01X1868339Y1492721D02*
G03X1869250Y1492597I911J3283D01*
G01X1869250D02*
G03X1868339Y1492473I0J-3405D01*
G01X1949133Y1516430D02*
G03X1949563Y1517455I-1038J1040D01*
G01X1950157Y1516861D02*
G03X1949133Y1516430I15J-1469D01*
G01X1949133D02*
G03X1949689Y1517162I-2408J2409D01*
G01X1949864Y1516986D02*
G03X1949133Y1516430I1678J-2963D01*
G01X1867600Y1492597D02*
X1871331D01*
X1871331D02*
X1888828Y1510094D01*
X1888828D02*
X1942797D01*
X1942797D02*
X1950300Y1517597D01*
X1869842Y1498233D02*
G03X1870866Y1498664I-14J1470D01*
G01X1870866D02*
G03X1870436Y1497640I1039J-1038D01*
G01X1870135Y1498108D02*
G03X1870866Y1498664I-1677J2965D01*
G01X1870866D02*
G03X1870310Y1497933I2409J-2408D01*
G01X1946219Y1516976D02*
G03X1945800Y1515947I1050J-1028D01*
G01X1945800D02*
G03X1945380Y1516976I-1469J0D01*
G01X1945923Y1516857D02*
G03X1945800Y1515947I3283J-909D01*
G01X1945799D02*
G03X1945676Y1516857I-3405J0D01*
G01X1869700Y1497497D02*
X1883799Y1511597D01*
X1883799D02*
X1942174D01*
X1942174D02*
X1945800Y1515222D01*
X1945800D02*
Y1517597D01*
X1850742Y1488233D02*
G03X1851766Y1488664I-14J1470D01*
G01X1851766D02*
G03X1851336Y1487640I1039J-1038D01*
G01X1851035Y1488108D02*
G03X1851766Y1488664I-1677J2965D01*
G01X1851766D02*
G03X1851210Y1487933I2409J-2408D01*
G01X1940450Y1525497D02*
G03X1941478Y1525917I0J1470D01*
G01Y1525077D02*
G03X1940450Y1525497I-1028J-1049D01*
G01X1940450D02*
G03X1941360Y1525621I0J3407D01*
G01Y1525373D02*
G03X1940450Y1525497I-910J-3281D01*
G01X1850600Y1487497D02*
X1852025Y1488923D01*
X1852864*
X1852864D02*
X1854231Y1490289D01*
X1854231D02*
Y1494410D01*
X1854231D02*
X1882622Y1522801D01*
X1882622D02*
X1919909D01*
X1919909D02*
X1922605Y1525497D01*
X1922605D02*
X1942100D01*
X1874621Y1493117D02*
G03X1875650Y1492697I1029J1050D01*
G01X1875650D02*
G03X1874621Y1492277I0J-1469D01*
G01X1874739Y1492821D02*
G03X1875650Y1492697I911J3283D01*
G01X1875650D02*
G03X1874739Y1492573I0J-3405D01*
G01X1948533Y1512530D02*
G03X1948963Y1513555I-1038J1040D01*
G01X1949557Y1512961D02*
G03X1948533Y1512530I15J-1469D01*
G01X1948533D02*
G03X1949089Y1513262I-2408J2409D01*
G01X1949264Y1513086D02*
G03X1948533Y1512530I1678J-2963D01*
G01X1874000Y1492697D02*
X1875950D01*
X1875950D02*
X1876647Y1493394D01*
X1884296*
X1896650Y1505747*
X1896650D02*
X1912465D01*
X1912465D02*
X1913065Y1505147D01*
X1913065D02*
X1926121D01*
X1926121D02*
X1930034Y1509060D01*
X1945062*
X1945062D02*
X1949700Y1513697D01*
X1867042Y1511533D02*
G03X1868066Y1511964I-14J1470D01*
G01X1868066D02*
G03X1867636Y1510940I1039J-1038D01*
G01X1867335Y1511408D02*
G03X1868066Y1511964I-1677J2965D01*
G01X1868066D02*
G03X1867510Y1511233I2409J-2408D01*
G01X1944833Y1528230D02*
G03X1945263Y1529255I-1038J1040D01*
G01X1945857Y1528661D02*
G03X1944833Y1528230I15J-1469D01*
G01X1944833D02*
G03X1945389Y1528962I-2408J2409D01*
G01X1945564Y1528786D02*
G03X1944833Y1528230I1678J-2963D01*
G01X1866900Y1510797D02*
X1883400Y1527297D01*
X1883400D02*
X1943900D01*
X1943900D02*
X1946000Y1529397D01*
X1843342Y1489633D02*
G03X1844366Y1490064I-14J1470D01*
G01X1844366D02*
G03X1843936Y1489040I1039J-1038D01*
G01X1843635Y1489508D02*
G03X1844366Y1490064I-1677J2965D01*
G01X1844366D02*
G03X1843810Y1489333I2409J-2408D01*
G01X1941333Y1530564D02*
G03X1942357Y1530133I1039J1039D01*
G01X1941763Y1529540D02*
G03X1941333Y1530564I-1468J-14D01*
X1942064Y1530008I2409J2409*
G01X1941889Y1529833D02*
G03X1941333Y1530564I-2964J-1677D01*
G01X1843200Y1488897D02*
X1855650Y1501347D01*
X1855650D02*
Y1502022D01*
X1855650D02*
X1885675Y1532047D01*
X1885675D02*
X1918171D01*
X1918171D02*
X1919124Y1533001D01*
X1919124D02*
X1938896D01*
X1942500Y1529397*
X1873142Y1489933D02*
G03X1874166Y1490364I-14J1470D01*
G01X1874166D02*
G03X1873736Y1489340I1039J-1038D01*
G01X1873435Y1489808D02*
G03X1874166Y1490364I-1677J2965D01*
G01X1874166D02*
G03X1873610Y1489633I2409J-2408D01*
G01X1938504Y1505859D02*
G03X1938935Y1506883I-1038J1039D01*
G01X1939529Y1506289D02*
G03X1938504Y1505859I15J-1468D01*
G01X1938504D02*
G03X1939060Y1506590I-2407J2409D01*
G01X1939236Y1506415D02*
G03X1938504Y1505859I1677J-2964D01*
G01X1873000Y1489197D02*
X1875015Y1491213D01*
X1875980*
X1875980D02*
X1877090Y1492323D01*
X1877090D02*
X1890093D01*
X1899468Y1501697*
X1899468D02*
X1934343D01*
X1934343D02*
X1939671Y1507026D01*
X1866042Y1516633D02*
G03X1867066Y1517064I-14J1470D01*
G01X1867066D02*
G03X1866636Y1516040I1039J-1038D01*
G01X1866335Y1516508D02*
G03X1867066Y1517064I-1677J2965D01*
G01X1867066D02*
G03X1866510Y1516333I2409J-2408D01*
G01X1944750Y1541197D02*
G03X1945778Y1541617I0J1470D01*
G01Y1540777D02*
G03X1944750Y1541197I-1028J-1049D01*
G01X1944750D02*
G03X1945660Y1541321I0J3407D01*
G01Y1541073D02*
G03X1944750Y1541197I-910J-3281D01*
G01X1865900Y1515897D02*
X1884608Y1534606D01*
X1884608D02*
X1894094D01*
X1900118Y1540629*
X1900118D02*
X1928346D01*
X1928346D02*
X1928914Y1541197D01*
X1928914D02*
X1946400D01*
X1952157Y1530114D02*
Y1523009D01*
X1952157D02*
X1953050Y1522117D01*
X1964350Y1539147D02*
Y1541197D01*
X1964633Y1538864D02*
G03X1965657Y1538433I1039J1039D01*
G01X1965063Y1537840D02*
G03X1964633Y1538864I-1468J-14D01*
X1965364Y1538308I2409J2409*
G01X1965189Y1538133D02*
G03X1964633Y1538864I-2964J-1677D01*
G01X1964350Y1539147D02*
X1965800Y1537697D01*
X1930039Y1490999D02*
G03X1930469Y1492023I-1038J1039D01*
G01X1931063Y1491430D02*
G03X1930039Y1490999I15J-1469D01*
G01X1930039D02*
G03X1930595Y1491731I-2408J2409D01*
G01X1930770Y1491555D02*
G03X1930039Y1490999I1678J-2964D01*
G01X1903315Y1493427D02*
Y1488830D01*
X1903315D02*
X1906398Y1485747D01*
X1906398D02*
X1923315D01*
X1923315D02*
X1928309Y1490741D01*
X1928309D02*
X1929781D01*
X1931206Y1492166*
X1984133Y1536130D02*
G03X1984563Y1537155I-1038J1040D01*
G01X1985157Y1536561D02*
G03X1984133Y1536130I15J-1469D01*
G01X1984133D02*
G03X1984689Y1536862I-2408J2409D01*
G01X1984864Y1536686D02*
G03X1984133Y1536130I1678J-2963D01*
G01X1947986Y1497105D02*
X1948957Y1498751D01*
X1952529Y1502323*
X1952807*
X1952807D02*
X1963300Y1512815D01*
X1963300D02*
Y1517172D01*
X1963300D02*
X1971602Y1525475D01*
X1971602D02*
X1972198D01*
X1975850Y1529127*
Y1529722*
X1975850D02*
X1977745Y1531618D01*
X1977745D02*
X1979620D01*
X1985300Y1537297*
X1947986Y1497105D02*
X1948000Y1497097D01*
X1953050Y1516710D02*
Y1522117D01*
X2061050Y1530997D02*
G03X2062078Y1531417I0J1470D01*
G01Y1530577D02*
G03X2061050Y1530997I-1028J-1049D01*
G01X2061050D02*
G03X2061960Y1531121I0J3407D01*
G01Y1530873D02*
G03X2061050Y1530997I-910J-3281D01*
G01X1964350Y1541197D02*
Y1541922D01*
X1964350D02*
X1965375Y1542947D01*
X1965375D02*
X1970894D01*
X1970894D02*
X1971788Y1542053D01*
X1971788D02*
X1979435D01*
X1979435D02*
X1984329Y1546947D01*
X1984329D02*
X1997824D01*
X1997824D02*
X1998095Y1546677D01*
X1999544*
X1999544D02*
X2000782Y1547915D01*
X2000782D02*
X2004665D01*
X2004665D02*
X2006957Y1545622D01*
X2006957D02*
X2036149D01*
X2036149D02*
X2039275Y1542497D01*
Y1542398*
X2041811Y1539861*
X2041811D02*
X2042810D01*
X2042810D02*
X2050437Y1532234D01*
X2050437D02*
X2058995D01*
X2058995D02*
X2060232Y1530997D01*
X2060232D02*
X2062700D01*
X1949842Y1494633D02*
G03X1950866Y1495064I-14J1470D01*
G01X1950866D02*
G03X1950436Y1494040I1039J-1038D01*
G01X1950135Y1494508D02*
G03X1950866Y1495064I-1677J2965D01*
G01X1950866D02*
G03X1950310Y1494333I2409J-2408D01*
G01X1984050Y1525397D02*
G03X1985078Y1525817I0J1470D01*
G01Y1524977D02*
G03X1984050Y1525397I-1028J-1049D01*
G01X1984050D02*
G03X1984960Y1525521I0J3407D01*
G01Y1525273D02*
G03X1984050Y1525397I-910J-3281D01*
G01X1949700Y1493897D02*
X1955317Y1499515D01*
X1955317D02*
Y1501604D01*
X1955317D02*
X1977160Y1523447D01*
X1977160D02*
X1981812D01*
X1981812D02*
X1983762Y1525397D01*
X1983762D02*
X1985700D01*
X1937209Y1492117D02*
G03X1938238Y1491697I1029J1050D01*
G01X1938238D02*
G03X1937209Y1491277I0J-1469D01*
G01X1937327Y1491821D02*
G03X1938238Y1491697I911J3283D01*
G01X1938238D02*
G03X1937327Y1491573I0J-3405D01*
G01X1980109Y1509811D02*
G03X1981138Y1510231I0J1470D01*
G01Y1509391D02*
G03X1980109Y1509811I-1028J-1048D01*
G01X1980109D02*
G03X1981019Y1509935I0J3407D01*
G01Y1509687D02*
G03X1980109Y1509811I-909J-3281D01*
G01X1936588Y1491697D02*
X1941731D01*
X1941731D02*
X1942181Y1491247D01*
X1942181D02*
X1946924D01*
X1946924D02*
X1947466Y1491788D01*
X1947466D02*
X1950066D01*
X1950066D02*
X1951900Y1493622D01*
X1951900D02*
Y1494227D01*
X1951900D02*
X1959209Y1501537D01*
X1959209D02*
Y1504082D01*
X1959209D02*
X1965367Y1510240D01*
X1965367D02*
X1977804D01*
X1977804D02*
X1978233Y1509811D01*
X1978233D02*
X1981759D01*
X1961042Y1491445D02*
G03X1961472Y1490421I1469J15D01*
G01X1961472D02*
G03X1960448Y1490851I-1038J-1039D01*
G01X1960916Y1491152D02*
G03X1961472Y1490421I2965J1677D01*
G01X1961472D02*
G03X1960741Y1490977I-2408J-2408D01*
G01X1960305Y1491587D02*
X1962162Y1489731D01*
X1963676*
X1963676D02*
X1965250Y1488157D01*
X1965250D02*
Y1487589D01*
X1965250D02*
X1969092Y1483747D01*
X1969092D02*
X1997953D01*
X1997953D02*
X2001480Y1487274D01*
X1966036Y1493355D02*
G03X1966466Y1492330I1469J15D01*
G01X1966466D02*
G03X1965442Y1492761I-1038J-1038D01*
G01X1965910Y1493062D02*
G03X1966466Y1492330I2965J1677D01*
G01X1966466D02*
G03X1965735Y1492886I-2408J-2407D01*
G01X1998630Y1488857D02*
G03X1998210Y1487828I1050J-1028D01*
G01X1998210D02*
G03X1997790Y1488857I-1468J0D01*
G01X1998334Y1488739D02*
G03X1998210Y1487828I3283J-910D01*
G01X1998210D02*
G03X1998086Y1488739I-3405J0D01*
G01X1965300Y1493497D02*
X1968079Y1490718D01*
X1968079D02*
X1971010D01*
X1971010D02*
X1975981Y1485747D01*
X1975981D02*
X1997124D01*
X1997124D02*
X1998210Y1486833D01*
X1998210D02*
Y1489478D01*
X1957725Y1492916D02*
G03X1957305Y1491887I1050J-1028D01*
G01X1957305D02*
G03X1956885Y1492916I-1468J0D01*
G01X1957429Y1492797D02*
G03X1957305Y1491887I3283J-909D01*
G01X1957305D02*
G03X1957181Y1492797I-3405J0D01*
G01X1957305Y1493537D02*
Y1491677D01*
X1957305D02*
X1961250Y1487732D01*
X1961250D02*
Y1487208D01*
X1965710Y1482747*
X1965710D02*
X1999112D01*
X1999112D02*
X2003072Y1486708D01*
X2003072D02*
Y1487432D01*
X1962021Y1495020D02*
G03X1963050Y1494600I1029J1050D01*
G01X1963050D02*
G03X1962021Y1494180I0J-1468D01*
G01X1962139Y1494724D02*
G03X1963050Y1494600I911J3283D01*
G01X1963050D02*
G03X1962139Y1494476I0J-3405D01*
G01X2007854Y1493490D02*
G03X2008882Y1493910I0J1470D01*
G01Y1493071D02*
G03X2007854Y1493490I-1027J-1049D01*
G01X2007854D02*
G03X2008764Y1493614I0J3407D01*
G01Y1493367D02*
G03X2007854Y1493490I-909J-3282D01*
G01X1961400Y1494600D02*
X1963589D01*
X1963589D02*
X1964236Y1495247D01*
X1964236D02*
X1967280D01*
X1967280D02*
X1968641Y1493885D01*
X1968641D02*
X1971346D01*
X1971346D02*
X1972126Y1494665D01*
X1977528*
X1979887Y1497023*
X1979887D02*
X1994265D01*
X1994265D02*
X1995552Y1495736D01*
X1995552D02*
X1998066D01*
X1998066D02*
X1998562Y1496232D01*
X1998562D02*
X2000375D01*
X2000375D02*
X2001510Y1495097D01*
X2001510D02*
X2005704D01*
X2005704D02*
X2007310Y1493490D01*
X2007310D02*
X2009504D01*
X1963508Y1502205D02*
G03X1964537Y1501785I1029J1049D01*
G01X1964537D02*
G03X1963508Y1501365I0J-1469D01*
G01X1963627Y1501909D02*
G03X1964537Y1501785I910J3282D01*
G01X1964537D02*
G03X1963627Y1501661I0J-3406D01*
G01X2012701Y1499182D02*
G03X2013725Y1498751I1039J1039D01*
G01X2013131Y1498157D02*
G03X2012701Y1499182I-1468J-14D01*
X2013432Y1498626I2409J2408*
G01X2013257Y1498450D02*
G03X2012701Y1499182I-2964J-1676D01*
G01X1962887Y1501785D02*
X1965888D01*
X1966220Y1502117*
X1966220D02*
X1972098D01*
X1972098D02*
X1972192Y1502023D01*
X1972192D02*
X1992008D01*
X1992008D02*
X1993221Y1503236D01*
X1993221D02*
X2007811D01*
X2007811D02*
X2009165Y1501882D01*
X2009165D02*
X2010000D01*
X2010000D02*
X2013868Y1498015D01*
X1933532Y1489072D02*
G03X1933952Y1488043I1470J0D01*
G01X1933113D02*
G03X1933532Y1489072I-1049J1029D01*
G01X1933532D02*
G03X1933656Y1488161I3407J0D01*
G01X1933409D02*
G03X1933532Y1489072I-3282J911D01*
G01X1949295Y1506051D02*
G03X1948875Y1505022I1049J-1028D01*
G01X1948875D02*
G03X1948455Y1506051I-1469J0D01*
G01X1948999Y1505933D02*
G03X1948875Y1505022I3282J-910D01*
G01X1948875D02*
G03X1948751Y1505933I-3406J0D01*
G01X1933532Y1487422D02*
Y1491117D01*
X1933532D02*
X1936252Y1493837D01*
X1936252D02*
Y1494325D01*
X1936252D02*
X1938125Y1496197D01*
X1938125D02*
X1940939D01*
X1940939D02*
X1948875Y1504132D01*
X1948875D02*
Y1506672D01*
X1946200Y1494647D02*
G03X1946619Y1493619I1469J0D01*
G01X1945780D02*
G03X1946200Y1494647I-1049J1028D01*
G01X1946200D02*
G03X1946323Y1493737I3406J0D01*
G01X1946076D02*
G03X1946199Y1494647I-3282J910D01*
G01X1958319Y1520957D02*
G03X1957900Y1519928I1050J-1028D01*
G01X1957900D02*
G03X1957480Y1520957I-1469J0D01*
G01X1958023Y1520839D02*
G03X1957900Y1519928I3283J-910D01*
G01X1957899D02*
G03X1957776Y1520839I-3405J0D01*
G01X1946200Y1492997D02*
Y1498907D01*
X1946200D02*
X1951403Y1504111D01*
X1951403D02*
Y1506197D01*
X1951403D02*
X1954400Y1509194D01*
Y1516200*
X1954400D02*
X1957900Y1519700D01*
X1957900D02*
Y1521578D01*
X1966321Y1530117D02*
G03X1967350Y1529697I1029J1050D01*
G01X1967350D02*
G03X1966321Y1529277I0J-1469D01*
G01X1966439Y1529821D02*
G03X1967350Y1529697I911J3283D01*
G01X1967350D02*
G03X1966439Y1529573I0J-3405D01*
G01X1965700Y1529697D02*
X1968546D01*
X1968546D02*
X1971732Y1532883D01*
Y1533896*
X1973142Y1535306*
X1973142D02*
X1978092D01*
X1978092D02*
X1979718Y1536933D01*
X1979718D02*
Y1537591D01*
X1979718D02*
X1981175Y1539047D01*
X1981175D02*
X1994992D01*
X1994992D02*
X1996624Y1537415D01*
X1996624D02*
X1999988D01*
X1999988D02*
X2000504Y1536899D01*
X2000504D02*
X2003873D01*
X2003873D02*
X2005296Y1538322D01*
X2005296D02*
X2022161D01*
X2022161D02*
X2022950Y1539111D01*
X2022950D02*
X2023840D01*
X2023840D02*
X2025184Y1540455D01*
X2025184D02*
X2025242Y1540397D01*
X1947136Y1533255D02*
G03X1947566Y1532230I1469J15D01*
G01X1947566D02*
G03X1946542Y1532661I-1038J-1038D01*
G01X1947010Y1532962D02*
G03X1947566Y1532230I2965J1677D01*
G01X1947566D02*
G03X1946835Y1532786I-2408J-2407D01*
G01X1946400Y1533397D02*
X1948350Y1531447D01*
X1948350D02*
X1950824D01*
X1950824D02*
X1952157Y1530114D01*
X1909121Y1492417D02*
G03X1910150Y1491997I1029J1050D01*
G01X1910150D02*
G03X1909121Y1491577I0J-1469D01*
G01X1909239Y1492121D02*
G03X1910150Y1491997I911J3283D01*
G01X1910150D02*
G03X1909239Y1491873I0J-3405D01*
G01X1908500Y1491997D02*
X1911716D01*
X1911716D02*
X1913998Y1494279D01*
X1913998D02*
X1924659D01*
X1924659D02*
X1928309Y1497929D01*
X1928309D02*
X1931403D01*
X1931403D02*
X1933718Y1495614D01*
X1933718D02*
X1935294D01*
X1935294D02*
X1949339Y1509660D01*
X1949551*
X1949551D02*
X1953050Y1513158D01*
X1953050D02*
Y1516710D01*
X1893621Y1517217D02*
G03X1894650Y1516797I1029J1050D01*
G01X1894650D02*
G03X1893621Y1516377I0J-1469D01*
G01X1893739Y1516921D02*
G03X1894650Y1516797I911J3283D01*
G01X1894650D02*
G03X1893739Y1516673I0J-3405D01*
G01X1893000Y1516797D02*
X1933600D01*
X1933600D02*
X1936450Y1519647D01*
X1936450D02*
X1943960D01*
X1943960D02*
X1946155Y1521842D01*
X1946200Y1521797*
X1951036Y1521455D02*
G03X1951466Y1520430I1469J15D01*
G01X1951466D02*
G03X1950442Y1520861I-1038J-1038D01*
G01X1950910Y1521162D02*
G03X1951466Y1520430I2965J1677D01*
G01X1951466D02*
G03X1950735Y1520986I-2408J-2407D01*
G01X1950300Y1521597D02*
X1952050Y1519847D01*
X1890200Y1487697D02*
Y1490472D01*
X1890200D02*
X1891950Y1492222D01*
X1891950D02*
Y1492764D01*
X1891950D02*
X1893744Y1494558D01*
X1893744D02*
X1896700D01*
X1896700D02*
X1897522Y1493736D01*
X1897522D02*
X1899639D01*
X1899639D02*
X1899664Y1493712D01*
X1899664D02*
X1902416Y1496463D01*
X1902416D02*
X1911716D01*
X1911716D02*
X1915307Y1500054D01*
X1915307D02*
X1937895D01*
X1937895D02*
X1949738Y1511897D01*
X1949738D02*
X1950374D01*
X1950374D02*
X1952050Y1513572D01*
X1952050D02*
Y1519847D01*
X1966836Y1541055D02*
G03X1967266Y1540030I1469J15D01*
G01X1967266D02*
G03X1966242Y1540461I-1038J-1038D01*
G01X1966710Y1540762D02*
G03X1967266Y1540030I2965J1677D01*
G01X1967266D02*
G03X1966535Y1540586I-2408J-2407D01*
G01X2038533Y1540064D02*
G03X2039557Y1539633I1039J1039D01*
G01X2038963Y1539040D02*
G03X2038533Y1540064I-1468J-14D01*
X2039264Y1539508I2409J2409*
G01X2039089Y1539333D02*
G03X2038533Y1540064I-2964J-1677D01*
G01X1966100Y1541197D02*
X1968150Y1539147D01*
X1968150D02*
X1971181D01*
X1971181D02*
X1973085Y1541050D01*
X1973085D02*
X1995554D01*
X1995554D02*
X1996919Y1542415D01*
X1996919D02*
X2007796D01*
X2007796D02*
X2009614Y1540597D01*
X2009614D02*
X2014986D01*
X2014986D02*
X2016327Y1541938D01*
X2016327D02*
X2020451D01*
X2020451D02*
X2021017Y1542504D01*
X2021017D02*
X2025610D01*
X2025610D02*
X2026350Y1541765D01*
X2027800*
X2029182Y1543147*
X2029182D02*
X2034524D01*
X2034524D02*
X2035550Y1542122D01*
X2035550D02*
Y1541272D01*
X2035550D02*
X2036596Y1540226D01*
X2036596D02*
X2038370D01*
X2038370D02*
X2039700Y1538897D01*
X1954242Y1494233D02*
G03X1955266Y1494664I-14J1470D01*
G01X1955266D02*
G03X1954836Y1493640I1039J-1038D01*
G01X1954535Y1494108D02*
G03X1955266Y1494664I-1677J2965D01*
G01X1955266D02*
G03X1954710Y1493933I2409J-2408D01*
G01X2009201Y1498587D02*
G03X2010225Y1498157I1039J1040D01*
G01X2009631Y1497563D02*
G03X2009201Y1498587I-1468J-14D01*
G01X2009201D02*
G03X2009932Y1498031I2409J2409D01*
G01X2009757Y1497856D02*
G03X2009201Y1498587I-2964J-1676D01*
G01X1954100Y1493497D02*
X1959497Y1498894D01*
X1959497D02*
X1968512D01*
X1968512D02*
X1968789Y1498617D01*
X1968789D02*
X1973870D01*
X1973870D02*
X1975276Y1500023D01*
X1975276D02*
X1993423D01*
X1993423D02*
X1994636Y1501236D01*
X1994636D02*
X2006552D01*
X2006552D02*
X2010368Y1497421D01*
X1970042Y1514333D02*
G03X1971066Y1514764I-14J1470D01*
G01X1971066D02*
G03X1970636Y1513740I1039J-1038D01*
G01X1970335Y1514208D02*
G03X1971066Y1514764I-1677J2965D01*
G01X1971066D02*
G03X1970510Y1514033I2409J-2408D01*
G01X2027680Y1502697D02*
G03X2028709Y1503117I0J1470D01*
G01Y1502277D02*
G03X2027680Y1502697I-1028J-1049D01*
G01X2027680D02*
G03X2028591Y1502821I0J3407D01*
G01Y1502573D02*
G03X2027680Y1502697I-910J-3281D01*
G01X1969900Y1513597D02*
X1971750Y1515447D01*
X1971750D02*
X1982624D01*
X1982624D02*
X1983650Y1514422D01*
X1983650D02*
Y1513072D01*
X1983650D02*
X1984691Y1512031D01*
X1984691D02*
X1988997D01*
X1990791Y1510236*
X1990791D02*
X2010892D01*
X2010892D02*
X2011833Y1509295D01*
X2011833D02*
X2014027D01*
X2018394Y1504928*
X2021801*
X2024031Y1502697*
X2024031D02*
X2029330D01*
X2049250Y1490697D02*
G03X2050278Y1491117I0J1470D01*
G01Y1490277D02*
G03X2049250Y1490697I-1028J-1049D01*
G01X2049250D02*
G03X2050160Y1490821I0J3407D01*
G01Y1490573D02*
G03X2049250Y1490697I-910J-3281D01*
G01X1962200Y1504597D02*
X1962208Y1504608D01*
X1963691Y1503475*
X1963993Y1503172*
X1963993D02*
X1965888D01*
X1965888D02*
X1968463Y1505747D01*
X1968463D02*
X1969931D01*
X1969931D02*
X1970760Y1504918D01*
X1970760D02*
X1975959D01*
X1976831Y1504046*
X1976831D02*
X1990633D01*
X1990633D02*
X1991823Y1505236D01*
X1991823D02*
X2008806D01*
X2008806D02*
X2010002Y1504040D01*
X2010002D02*
X2012074D01*
X2012074D02*
X2019467Y1496647D01*
X2019467D02*
X2029007D01*
X2029007D02*
X2031507Y1494147D01*
X2031507D02*
X2041649D01*
X2041649D02*
X2045099Y1490697D01*
X2045099D02*
X2050900D01*
X1964842Y1505658D02*
G03X1965866Y1506089I-14J1470D01*
G01X1965866D02*
G03X1965436Y1505065I1039J-1038D01*
G01X1965135Y1505533D02*
G03X1965866Y1506089I-1677J2965D01*
G01X1965866D02*
G03X1965310Y1505357I2409J-2408D01*
G01X2064050Y1493797D02*
G03X2065078Y1494217I0J1470D01*
G01Y1493377D02*
G03X2064050Y1493797I-1028J-1049D01*
G01X2064050D02*
G03X2064960Y1493921I0J3407D01*
G01Y1493673D02*
G03X2064050Y1493797I-910J-3281D01*
G01X1964700Y1504922D02*
X1966107Y1506329D01*
X1966107D02*
X1967619D01*
X1967619D02*
X1968037Y1506747D01*
X1968037D02*
X1970351D01*
X1970351D02*
X1971176Y1505922D01*
X1971176D02*
X1978758D01*
X1978758D02*
X1979634Y1505046D01*
X1979634D02*
X1989922D01*
X1989922D02*
X1991113Y1506236D01*
X1991113D02*
X2009234D01*
X2009234D02*
X2010421Y1505050D01*
X2012598*
X2012598D02*
X2020001Y1497647D01*
X2020001D02*
X2029567D01*
X2029567D02*
X2032067Y1495147D01*
X2032067D02*
X2044563D01*
X2044563D02*
X2044963Y1494747D01*
X2044963D02*
X2052832D01*
X2052832D02*
X2053381Y1495297D01*
X2053381D02*
X2056468D01*
X2058617Y1493147*
X2058617D02*
X2063112D01*
X2063112D02*
X2063762Y1493797D01*
X2063762D02*
X2065700D01*
X2037750Y1491497D02*
G03X2038778Y1491917I0J1470D01*
G01Y1491077D02*
G03X2037750Y1491497I-1028J-1049D01*
G01X2037750D02*
G03X2038660Y1491621I0J3407D01*
G01Y1491373D02*
G03X2037750Y1491497I-910J-3281D01*
G01X1969200Y1503997D02*
Y1503918D01*
X1973156*
X1974050Y1503023*
X1974050D02*
X1991321D01*
X1991321D02*
X1992533Y1504236D01*
X1992533D02*
X2008378D01*
X2008378D02*
X2009662Y1502953D01*
X2011628*
X2018933Y1495647*
X2018933D02*
X2028447D01*
X2028447D02*
X2033447Y1490647D01*
X2033447D02*
X2036044D01*
X2036044D02*
X2036894Y1491497D01*
X2036894D02*
X2039400D01*
X1966036Y1490126D02*
G03X1966115Y1489018I1397J-457D01*
G01X1966115D02*
G03X1965283Y1489754I-1317J-650D01*
G01X1965823Y1489889D02*
G03X1966115Y1489018I3347J637D01*
G01X1966115D02*
G03X1965601Y1489779I-3053J-1508D01*
G01X2026733Y1489730D02*
G03X2027163Y1490755I-1038J1040D01*
G01X2027757Y1490161D02*
G03X2026733Y1489730I15J-1469D01*
G01X2026733D02*
G03X2027289Y1490462I-2408J2409D01*
G01X2027464Y1490286D02*
G03X2026733Y1489730I1678J-2963D01*
G01X1965385Y1490497D02*
X1966250Y1488746D01*
Y1488004*
X1969506Y1484747*
X1969506D02*
X1997539D01*
X1997539D02*
X1999391Y1486600D01*
X1999391D02*
Y1488080D01*
X1999391D02*
X1999960Y1488649D01*
X1999960D02*
Y1490633D01*
X1999960D02*
X2000985Y1491658D01*
X2000985D02*
X2002435D01*
X2002435D02*
X2004322Y1489772D01*
X2004993*
X2004993D02*
X2007156Y1487609D01*
X2007156D02*
Y1487251D01*
X2007156D02*
X2008743Y1485664D01*
X2008743D02*
X2023369D01*
X2023369D02*
X2025077Y1487372D01*
X2025077D02*
Y1488145D01*
X2025077D02*
X2026312Y1489379D01*
X2026312D02*
X2026382D01*
X2026382D02*
X2027900Y1490897D01*
X1959736Y1487355D02*
G03X1960166Y1486330I1469J15D01*
G01X1960166D02*
G03X1959142Y1486761I-1038J-1038D01*
G01X1959610Y1487062D02*
G03X1960166Y1486330I2965J1677D01*
G01X1960166D02*
G03X1959435Y1486886I-2408J-2407D01*
G01X2029533Y1487730D02*
G03X2029963Y1488755I-1038J1040D01*
G01X2030557Y1488161D02*
G03X2029533Y1487730I15J-1469D01*
G01X2029533D02*
G03X2030089Y1488462I-2408J2409D01*
G01X2030264Y1488286D02*
G03X2029533Y1487730I1678J-2963D01*
G01X1959000Y1487497D02*
X1964750Y1481747D01*
X1964750D02*
X2023629D01*
X2023629D02*
X2028984Y1487102D01*
X2028984D02*
Y1487182D01*
X2028984D02*
X2030700Y1488897D01*
X1967993Y1497564D02*
G03X1969021Y1497144I1028J1050D01*
G01X1969021D02*
G03X1967993Y1496724I0J-1468D01*
G01X1968111Y1497268D02*
G03X1969021Y1497144I910J3283D01*
G01X1969021D02*
G03X1968111Y1497020I0J-3405D01*
G01X2025818Y1493897D02*
G03X2026846Y1494317I0J1470D01*
G01Y1493477D02*
G03X2025818Y1493897I-1027J-1049D01*
G01X2025818D02*
G03X2026728Y1494021I0J3407D01*
G01Y1493773D02*
G03X2025818Y1493897I-909J-3281D01*
G01X1967371Y1497144D02*
X1969439D01*
X1969439D02*
X1969796Y1497501D01*
X1969796D02*
X1975356D01*
X1975356D02*
X1976878Y1499023D01*
X1976878D02*
X1994150D01*
X1994150D02*
X1995363Y1500236D01*
X1995363D02*
X2005203D01*
X2005203D02*
X2008118Y1497322D01*
X2008118D02*
Y1497196D01*
X2009858Y1495456*
X2011276*
X2013184Y1493547*
X2013184D02*
X2021046D01*
X2021046D02*
X2021396Y1493897D01*
X2021396D02*
X2027468D01*
X1970551Y1500787D02*
G03X1971579Y1500367I1028J1050D01*
G01X1971579D02*
G03X1970551Y1499947I0J-1468D01*
G01X1970669Y1500491D02*
G03X1971579Y1500367I910J3283D01*
G01X1971579D02*
G03X1970669Y1500243I0J-3405D01*
G01X2014450Y1495297D02*
G03X2015478Y1495717I0J1470D01*
G01Y1494877D02*
G03X2014450Y1495297I-1028J-1049D01*
G01X2014450D02*
G03X2015360Y1495421I0J3407D01*
G01Y1495173D02*
G03X2014450Y1495297I-910J-3281D01*
G01X1969929Y1500367D02*
X1973017D01*
X1973017D02*
X1973673Y1501023D01*
X1973673D02*
X1992695D01*
X1992695D02*
X1993908Y1502236D01*
X1993908D02*
X2007244D01*
X2007244D02*
X2008706Y1500774D01*
X2008706D02*
X2009489D01*
X2009489D02*
X2012118Y1498146D01*
Y1497290*
X2012118D02*
X2014110Y1495297D01*
X2014110D02*
X2016100D01*
X1956500Y1510847D02*
G03X1956919Y1509819I1469J0D01*
G01X1956080D02*
G03X1956500Y1510847I-1049J1028D01*
G01X1956500D02*
G03X1956623Y1509937I3406J0D01*
G01X1956376D02*
G03X1956499Y1510847I-3282J910D01*
G01X2020092Y1540754D02*
G03X2021121Y1541174I0J1470D01*
G01Y1540334D02*
G03X2020092Y1540754I-1028J-1048D01*
G01X2020092D02*
G03X2021003Y1540878I0J3407D01*
G01Y1540630D02*
G03X2020092Y1540754I-910J-3281D01*
G01X1956500Y1509197D02*
Y1512554D01*
X1956500D02*
X1963900Y1519954D01*
X1963900D02*
Y1530372D01*
X1963900D02*
X1968885Y1535358D01*
X1968885D02*
X1970270D01*
X1971783Y1536872*
X1971783D02*
Y1537678D01*
X1971783D02*
X1974153Y1540047D01*
X1974153D02*
X1996174D01*
X1996174D02*
X1997306Y1538915D01*
X1997306D02*
X2000231D01*
X2000231D02*
X2001716Y1540399D01*
X2001716D02*
X2006137D01*
X2006137D02*
X2006939Y1539597D01*
X2006939D02*
X2017061D01*
X2017061D02*
X2018218Y1540754D01*
X2018218D02*
X2021742D01*
X1929621Y1560717D02*
G03X1930650Y1560297I1029J1050D01*
G01X1930650D02*
G03X1929621Y1559877I0J-1469D01*
G01X1929739Y1560421D02*
G03X1930650Y1560297I911J3283D01*
G01X1930650D02*
G03X1929739Y1560173I0J-3405D01*
G01X1984133Y1554364D02*
G03X1985157Y1553933I1039J1039D01*
G01X1984563Y1553340D02*
G03X1984133Y1554364I-1468J-14D01*
X1984864Y1553808I2409J2409*
G01X1984689Y1553633D02*
G03X1984133Y1554364I-2964J-1677D01*
G01X1929000Y1560297D02*
X1937737D01*
X1937737D02*
X1939182Y1558853D01*
X1978341*
X1979755Y1557438*
X1979755D02*
Y1556667D01*
X1981325Y1555097*
X1981325D02*
X1983400D01*
X1983400D02*
X1985300Y1553197D01*
X1898221Y1542117D02*
G03X1899250Y1541697I1029J1050D01*
G01X1899250D02*
G03X1898221Y1541277I0J-1469D01*
G01X1898339Y1541821D02*
G03X1899250Y1541697I911J3283D01*
G01X1899250D02*
G03X1898339Y1541573I0J-3405D01*
G01X1948933Y1547930D02*
G03X1949363Y1548955I-1038J1040D01*
G01X1949957Y1548361D02*
G03X1948933Y1547930I15J-1469D01*
G01X1948933D02*
G03X1949489Y1548662I-2408J2409D01*
G01X1949664Y1548486D02*
G03X1948933Y1547930I1678J-2963D01*
G01X1897600Y1541697D02*
X1904137D01*
X1904137D02*
X1907796Y1545357D01*
X1907796D02*
X1927335D01*
X1927335D02*
X1929751Y1547772D01*
X1929751D02*
X1940050D01*
X1940050D02*
X1940174Y1547647D01*
X1940174D02*
X1948650D01*
X1948650D02*
X1950100Y1549097D01*
X1934546Y1546442D02*
G03X1935574Y1546022I1028J1050D01*
G01X1935574D02*
G03X1934546Y1545602I0J-1469D01*
G01X1934664Y1546146D02*
G03X1935574Y1546022I910J3283D01*
G01X1935574D02*
G03X1934664Y1545898I0J-3406D01*
G01X1976060Y1557008D02*
G03X1977089Y1557428I0J1470D01*
G01Y1556588D02*
G03X1976060Y1557008I-1028J-1049D01*
G01X1976060D02*
G03X1976971Y1557132I0J3407D01*
G01Y1556884D02*
G03X1976060Y1557008I-910J-3282D01*
G01X1933924Y1546022D02*
X1941087D01*
X1941087D02*
X1943662Y1543447D01*
X1943662D02*
X1950424D01*
X1950424D02*
X1952057Y1545080D01*
X1952057D02*
Y1549654D01*
X1952057D02*
X1953470Y1551067D01*
X1953470D02*
X1958270D01*
X1958270D02*
X1962238Y1555036D01*
X1962238D02*
X1973851D01*
X1975823Y1557008*
X1975823D02*
X1977710D01*
X1934174Y1554502D02*
G03X1935198Y1554932I-14J1470D01*
G01X1935198D02*
G03X1934767Y1553908I1039J-1038D01*
G01X1934466Y1554376D02*
G03X1935198Y1554932I-1676J2965D01*
G01X1935198D02*
G03X1934642Y1554201I2409J-2407D01*
G01X1963950Y1556997D02*
G03X1964978Y1557417I0J1470D01*
G01Y1556577D02*
G03X1963950Y1556997I-1028J-1049D01*
G01X1963950D02*
G03X1964860Y1557121I0J3407D01*
G01Y1556873D02*
G03X1963950Y1556997I-910J-3281D01*
G01X1934031Y1553766D02*
X1937263Y1556997D01*
X1937263D02*
X1965600D01*
X1916921Y1549217D02*
G03X1917950Y1548797I1029J1050D01*
G01X1917950D02*
G03X1916921Y1548377I0J-1469D01*
G01X1917039Y1548921D02*
G03X1917950Y1548797I911J3283D01*
G01X1917950D02*
G03X1917039Y1548673I0J-3405D01*
G01X1944650Y1549397D02*
G03X1945678Y1549817I0J1470D01*
G01Y1548977D02*
G03X1944650Y1549397I-1028J-1049D01*
G01X1944650D02*
G03X1945560Y1549521I0J3407D01*
G01Y1549273D02*
G03X1944650Y1549397I-910J-3281D01*
G01X1916300Y1548797D02*
X1921276D01*
X1921276D02*
X1922145Y1549666D01*
X1934438*
X1934438D02*
X1934707Y1549397D01*
X1934707D02*
X1946300D01*
X1912221Y1554617D02*
G03X1913250Y1554197I1029J1050D01*
G01X1913250D02*
G03X1912221Y1553777I0J-1469D01*
G01X1912339Y1554321D02*
G03X1913250Y1554197I911J3283D01*
G01X1913250D02*
G03X1912339Y1554073I0J-3405D01*
G01X1948833Y1551930D02*
G03X1949263Y1552955I-1038J1040D01*
G01X1949857Y1552361D02*
G03X1948833Y1551930I15J-1469D01*
G01X1948833D02*
G03X1949389Y1552662I-2408J2409D01*
G01X1949564Y1552486D02*
G03X1948833Y1551930I1678J-2963D01*
G01X1911600Y1554197D02*
X1927159D01*
X1927159D02*
X1930109Y1551247D01*
X1930109D02*
X1948150D01*
X1948150D02*
X1950000Y1553097D01*
X2017813Y1518833D02*
Y1519561D01*
X2017813D02*
X2018292Y1520040D01*
X2020626Y1502921D02*
G03X2021650Y1502490I1039J1039D01*
G01X2021056Y1501897D02*
G03X2020626Y1502921I-1468J-14D01*
X2021357Y1502365I2409J2409*
G01X2021182Y1502190D02*
G03X2020626Y1502921I-2964J-1677D01*
G01X1981755Y1513553D02*
X1984277Y1511031D01*
X1988440*
X1988440D02*
X1990235Y1509236D01*
X1990235D02*
X2010478D01*
X2010478D02*
X2011419Y1508295D01*
X2011419D02*
X2013612D01*
X2013612D02*
X2017979Y1503928D01*
X2017979D02*
X2019619D01*
X2021793Y1501754*
X1981755Y1513553D02*
X1981900Y1513697D01*
X2003072Y1487432D02*
Y1488546D01*
X2078350Y1495097D02*
G03X2079378Y1495517I0J1470D01*
G01Y1494677D02*
G03X2078350Y1495097I-1028J-1049D01*
G01X2078350D02*
G03X2079260Y1495221I0J3407D01*
G01Y1494973D02*
G03X2078350Y1495097I-910J-3281D01*
G01X2017813Y1518833D02*
Y1518108D01*
X2017813D02*
X2021335Y1514587D01*
X2025328*
X2025328D02*
X2028850Y1511065D01*
X2028850D02*
Y1510972D01*
X2028850D02*
X2038127Y1501695D01*
X2038127D02*
X2066951D01*
X2066951D02*
X2073550Y1495097D01*
X2073550D02*
X2080000D01*
X2018292Y1520768D02*
Y1520040D01*
X2020185Y1519253D02*
G03X2021213Y1518833I1028J1049D01*
G01X2021213D02*
G03X2020185Y1518413I0J-1469D01*
G01X2020303Y1518957D02*
G03X2021213Y1518833I910J3282D01*
G01X2021213D02*
G03X2020303Y1518709I0J-3406D01*
G01X2019563Y1518833D02*
X2035607D01*
X2039092Y1515347*
X2039092D02*
X2071724D01*
X2071724D02*
X2073350Y1516972D01*
X1989821Y1525917D02*
G03X1990850Y1525497I1029J1050D01*
G01X1990850D02*
G03X1989821Y1525077I0J-1469D01*
G01X1989939Y1525621D02*
G03X1990850Y1525497I911J3283D01*
G01X1990850D02*
G03X1989939Y1525373I0J-3405D01*
G01X2000975Y1525572D02*
G03X2002003Y1525992I0J1470D01*
G01Y1525152D02*
G03X2000975Y1525572I-1027J-1049D01*
G01X2000975D02*
G03X2001885Y1525696I0J3407D01*
G01Y1525448D02*
G03X2000975Y1525572I-909J-3282D01*
G01X1989200Y1525497D02*
X1995875D01*
X1995875D02*
X1995950Y1525572D01*
X1995950D02*
X2002625D01*
X1986036Y1517443D02*
G03X1986466Y1516419I1469J15D01*
G01X1986466D02*
G03X1985442Y1516849I-1038J-1039D01*
G01X1985910Y1517150D02*
G03X1986466Y1516419I2965J1677D01*
G01X1986466D02*
G03X1985735Y1516975I-2408J-2408D01*
G01X2008661Y1514236D02*
G03X2009689Y1514656I0J1470D01*
G01Y1513816D02*
G03X2008661Y1514236I-1027J-1048D01*
G01X2008661D02*
G03X2009571Y1514360I0J3407D01*
G01Y1514112D02*
G03X2008661Y1514236I-909J-3281D01*
G01X1985300Y1517585D02*
X1988038Y1514847D01*
X1988038D02*
X1989695D01*
X1989695D02*
X1992306Y1512236D01*
X1992306D02*
X1994113D01*
X1994113D02*
X1995242Y1513365D01*
X1995242D02*
Y1513729D01*
X1995242D02*
X1997060Y1515547D01*
X1997060D02*
X2004551D01*
X2004551D02*
X2005862Y1514236D01*
X2005862D02*
X2010311D01*
X1989442Y1522333D02*
G03X1990466Y1522764I-14J1470D01*
G01X1990466D02*
G03X1990036Y1521740I1039J-1038D01*
G01X1989735Y1522208D02*
G03X1990466Y1522764I-1677J2965D01*
G01X1990466D02*
G03X1989910Y1522033I2409J-2408D01*
G01X2014892Y1520768D02*
G03X2015921Y1521188I0J1470D01*
G01Y1520348D02*
G03X2014892Y1520768I-1028J-1049D01*
G01X2014892D02*
G03X2015803Y1520892I0J3407D01*
G01Y1520644D02*
G03X2014892Y1520768I-910J-3282D01*
G01X1989300Y1521597D02*
X1991050Y1523347D01*
X1991050D02*
X1994775D01*
X1994775D02*
X1997354Y1520768D01*
X1997354D02*
X2016542D01*
X2004218Y1497097D02*
G03X2005246Y1497517I0J1470D01*
G01Y1496677D02*
G03X2004218Y1497097I-1027J-1049D01*
G01X2004218D02*
G03X2005128Y1497221I0J3407D01*
G01Y1496973D02*
G03X2004218Y1497097I-909J-3281D01*
G01X1970622Y1495635D02*
Y1495665D01*
X1976024*
X1978382Y1498023*
X1978382D02*
X1994924D01*
X1994924D02*
X1996137Y1499236D01*
X1996137D02*
X1998793D01*
X1998793D02*
X2001634Y1496395D01*
X2001634D02*
X2003204D01*
X2003204D02*
X2003906Y1497097D01*
X2003906D02*
X2005868D01*
X1976024Y1508910D02*
G03X1977053Y1508490I1029J1050D01*
G01X1977053D02*
G03X1976024Y1508070I0J-1469D01*
G01X1976143Y1508614D02*
G03X1977053Y1508490I910J3282D01*
G01X1977053D02*
G03X1976143Y1508366I0J-3406D01*
G01X2079113Y1492097D02*
G03X2080142Y1492517I0J1470D01*
G01Y1491677D02*
G03X2079113Y1492097I-1028J-1049D01*
G01X2079113D02*
G03X2080024Y1492221I0J3407D01*
G01Y1491973D02*
G03X2079113Y1492097I-910J-3281D01*
G01X1975403Y1508490D02*
X1978758D01*
X1979186Y1508061*
X1979186D02*
X1982484D01*
X1982484D02*
X1982969Y1508546D01*
X1982969D02*
X1985615D01*
X1985615D02*
X1986759Y1507402D01*
X1986759D02*
X1988769D01*
X1988769D02*
X1989603Y1508236D01*
X1989603D02*
X2010063D01*
X2010063D02*
X2011005Y1507295D01*
X2013194*
X2013194D02*
X2020485Y1500004D01*
X2020485D02*
X2022728D01*
X2022728D02*
X2023871Y1501147D01*
X2023871D02*
X2027511D01*
X2027511D02*
X2032511Y1496147D01*
X2032511D02*
X2033991D01*
X2033991D02*
X2035383Y1497539D01*
X2035383D02*
Y1498455D01*
X2035383D02*
X2036775Y1499847D01*
X2036775D02*
X2043776D01*
X2043776D02*
X2047876Y1495747D01*
X2047876D02*
X2051824D01*
X2051824D02*
X2053155Y1497077D01*
X2053155D02*
Y1497467D01*
X2054485Y1498797*
X2055935*
X2057194Y1497538*
Y1497028*
X2060075Y1494147*
X2060075D02*
X2062611D01*
X2062611D02*
X2064011Y1495547D01*
X2064011D02*
X2066500D01*
X2066500D02*
X2069950Y1492097D01*
X2069950D02*
X2080763D01*
X2001322Y1487432D02*
X2001480Y1487274D01*
X2002447Y1489766D02*
G03X2002877Y1488742I1469J15D01*
X2001853Y1489172I-1038J-1039*
G01X2002321Y1489473D02*
G03X2002877Y1488742I2965J1677D01*
X2002146Y1489298I-2408J-2408*
G01X2001710Y1489908D02*
X2003072Y1488546D01*
X2019221Y1532217D02*
G03X2020250Y1531797I1029J1050D01*
G01X2020250D02*
G03X2019221Y1531377I0J-1469D01*
G01X2019339Y1531921D02*
G03X2020250Y1531797I911J3283D01*
G01X2020250D02*
G03X2019339Y1531673I0J-3405D01*
G01X2067433Y1521764D02*
G03X2068457Y1521333I1039J1039D01*
G01X2067863Y1520740D02*
G03X2067433Y1521764I-1468J-14D01*
X2068164Y1521208I2409J2409*
G01X2067989Y1521033D02*
G03X2067433Y1521764I-2964J-1677D01*
G01X2018600Y1531797D02*
X2021933D01*
X2021933D02*
X2022933Y1530797D01*
X2022933D02*
X2058400D01*
X2058400D02*
X2068600Y1520597D01*
X1981642Y1530133D02*
G03X1982666Y1530564I-14J1470D01*
G01X1982666D02*
G03X1982236Y1529540I1039J-1038D01*
G01X1981935Y1530008D02*
G03X1982666Y1530564I-1677J2965D01*
G01X1982666D02*
G03X1982110Y1529833I2409J-2408D01*
G01X2044136Y1523610D02*
G03X2045161Y1523180I1040J1039D01*
G01X2044567Y1522586D02*
G03X2044136Y1523610I-1469J-14D01*
G01X2044136D02*
G03X2044868Y1523054I2409J2409D01*
G01X2044692Y1522879D02*
G03X2044136Y1523610I-2964J-1677D01*
G01X1981500Y1529397D02*
X1983550Y1531447D01*
X1983550D02*
X1987192D01*
X1987192D02*
X1987792Y1532047D01*
X1987792D02*
X1990987D01*
X1990987D02*
X1991858Y1531176D01*
X1991858D02*
X2006797D01*
X2006797D02*
X2009427Y1528547D01*
X2009427D02*
X2013333D01*
X2013333D02*
X2014233Y1529447D01*
X2014233D02*
X2038299D01*
X2038299D02*
X2045303Y1522443D01*
X1986021Y1514217D02*
G03X1987050Y1513797I1029J1050D01*
G01X1987050D02*
G03X1986021Y1513377I0J-1469D01*
G01X1986139Y1513921D02*
G03X1987050Y1513797I911J3283D01*
G01X1987050D02*
G03X1986139Y1513673I0J-3405D01*
G01X2020585Y1509076D02*
G03X2021610Y1508646I1040J1039D01*
G01X2021016Y1508052D02*
G03X2020585Y1509076I-1469J-14D01*
G01X2020585D02*
G03X2021317Y1508520I2409J2409D01*
G01X2021142Y1508345D02*
G03X2020585Y1509076I-2964J-1677D01*
G01X1985400Y1513797D02*
X1988973D01*
X1988973D02*
X1991534Y1511236D01*
X1991534D02*
X1994528D01*
X1994528D02*
X1996346Y1513054D01*
X1996346D02*
Y1513418D01*
X1996346D02*
X1997475Y1514547D01*
X1997475D02*
X2001538D01*
X2001538D02*
X2003599Y1512486D01*
X2003599D02*
X2011036D01*
X2011036D02*
X2011589Y1513040D01*
X2013039*
X2015096Y1510983*
X2018679*
X2018679D02*
X2021752Y1507909D01*
X1986536Y1521355D02*
G03X1986966Y1520330I1469J15D01*
G01X1986966D02*
G03X1985942Y1520761I-1038J-1038D01*
G01X1986410Y1521062D02*
G03X1986966Y1520330I2965J1677D01*
G01X1986966D02*
G03X1986235Y1520886I-2408J-2407D01*
G01X2011233Y1518264D02*
G03X2012257Y1517833I1039J1039D01*
G01X2011663Y1517240D02*
G03X2011233Y1518264I-1468J-14D01*
X2011964Y1517708I2409J2409*
G01X2011789Y1517533D02*
G03X2011233Y1518264I-2964J-1677D01*
G01X1985800Y1521497D02*
X1987689Y1519608D01*
X1987689D02*
X2009889D01*
X2009889D02*
X2012400Y1517097D01*
X1977842Y1518333D02*
G03X1978866Y1518764I-14J1470D01*
G01X1978866D02*
G03X1978436Y1517740I1039J-1038D01*
G01X1978135Y1518208D02*
G03X1978866Y1518764I-1677J2965D01*
G01X1978866D02*
G03X1978310Y1518033I2409J-2408D01*
G01X2033266Y1499547D02*
G03X2033686Y1498519I1470J0D01*
G01X2032846D02*
G03X2033266Y1499547I-1049J1028D01*
G01X2033266D02*
G03X2033390Y1498637I3406J0D01*
G01X2033142D02*
G03X2033266Y1499547I-3282J910D01*
G01X1977700Y1517597D02*
X1979450Y1519347D01*
X1979450D02*
X1986013D01*
X1986013D02*
X1987550Y1517810D01*
X1987550D02*
Y1517472D01*
X1987550D02*
X1989124Y1515897D01*
X1989124D02*
X1991477D01*
X1991477D02*
X1991527Y1515847D01*
X1991527D02*
X1995185D01*
X1995185D02*
X1995885Y1516547D01*
X1995885D02*
X2010475D01*
X2010475D02*
X2012328Y1514693D01*
X2012328D02*
X2012799D01*
X2012799D02*
X2014774Y1512718D01*
X2014774D02*
X2020287D01*
X2020287D02*
X2028163Y1504842D01*
X2028163D02*
X2029661D01*
X2033266Y1501236*
X2033266D02*
Y1497897D01*
X1984315Y1507216D02*
G03X1985344Y1506796I1029J1050D01*
G01X1985344D02*
G03X1984315Y1506376I0J-1469D01*
G01X1984433Y1506920D02*
G03X1985344Y1506796I911J3283D01*
X1984433Y1506672I0J-3406*
G01X2024150Y1499397D02*
G03X2025178Y1499817I0J1470D01*
G01Y1498977D02*
G03X2024150Y1499397I-1028J-1049D01*
G01X2024150D02*
G03X2025060Y1499521I0J3407D01*
G01Y1499273D02*
G03X2024150Y1499397I-910J-3281D01*
G01X1983694Y1506796D02*
X1985734D01*
X1985734D02*
X1986128Y1506402D01*
X1989526*
X1990360Y1507236*
X1990360D02*
X2009649D01*
X2009649D02*
X2010835Y1506050D01*
X2010835D02*
X2013020D01*
X2013020D02*
X2020066Y1499004D01*
X2020066D02*
X2023352D01*
X2023352D02*
X2023745Y1499397D01*
X2023745D02*
X2025800D01*
X1986315Y1530025D02*
G03X1987349Y1529619I1015J1064D01*
G01X1987349D02*
G03X1986327Y1529186I20J-1468D01*
G01X1986437Y1529731D02*
G03X1987349Y1529619I867J3295D01*
G01X1987349D02*
G03X1986441Y1529483I46J-3405D01*
G01X2070301Y1518715D02*
G03X2071370Y1518411I907J1157D01*
G01X2070851Y1517750D02*
G03X2070301Y1518715I-1456J-190D01*
G01X2070301D02*
G03X2071094Y1518251I2102J2681D01*
G01X2070941Y1518056D02*
G03X2070301Y1518715I-2741J-2020D01*
G01X1985700Y1529597D02*
X1987550Y1529622D01*
X1987550D02*
X1988975Y1531047D01*
X1988975D02*
X1990539D01*
X1990539D02*
X1992104Y1529482D01*
X1992104D02*
X2006130D01*
X2006130D02*
X2008158Y1527453D01*
X2008158D02*
X2021933D01*
X2021933D02*
X2025860Y1523526D01*
X2025860D02*
X2029977D01*
X2030098Y1523647*
X2030098D02*
X2038007D01*
X2038007D02*
X2040490Y1521164D01*
X2040490D02*
X2043108D01*
X2045424Y1518847*
X2045424D02*
X2070133D01*
X2070133D02*
X2071600Y1517697D01*
X2034736Y1515355D02*
G03X2035166Y1514330I1469J15D01*
G01X2035166D02*
G03X2034142Y1514761I-1038J-1038D01*
G01X2034610Y1515062D02*
G03X2035166Y1514330I2965J1677D01*
G01X2035166D02*
G03X2034435Y1514886I-2408J-2407D01*
G01X2073733Y1498964D02*
G03X2074757Y1498533I1039J1039D01*
G01X2074163Y1497940D02*
G03X2073733Y1498964I-1468J-14D01*
X2074464Y1498408I2409J2409*
G01X2074289Y1498233D02*
G03X2073733Y1498964I-2964J-1677D01*
G01X2034000Y1515497D02*
X2044938Y1504559D01*
X2044938D02*
X2068138D01*
X2068138D02*
X2074900Y1497797D01*
X2006421Y1524217D02*
G03X2007450Y1523797I1029J1050D01*
G01X2007450D02*
G03X2006421Y1523377I0J-1469D01*
G01X2006539Y1523921D02*
G03X2007450Y1523797I911J3283D01*
G01X2007450D02*
G03X2006539Y1523673I0J-3405D01*
G01X2005800Y1523797D02*
X2009027D01*
X2009027D02*
X2009694Y1524465D01*
X2009694D02*
X2012522D01*
X2014345Y1522642*
X2017144*
X2018292Y1521493*
X2018292D02*
Y1520768D01*
X1981442Y1526233D02*
G03X1982466Y1526664I-14J1470D01*
G01X1982466D02*
G03X1982036Y1525640I1039J-1038D01*
G01X1981735Y1526108D02*
G03X1982466Y1526664I-1677J2965D01*
G01X1982466D02*
G03X1981910Y1525933I2409J-2408D01*
G01X2066950Y1517097D02*
G03X2067978Y1517517I0J1470D01*
G01Y1516677D02*
G03X2066950Y1517097I-1028J-1049D01*
G01X2066950D02*
G03X2067860Y1517221I0J3407D01*
G01Y1516973D02*
G03X2066950Y1517097I-910J-3281D01*
G01X1981300Y1525497D02*
X1983124Y1527322D01*
X1983124D02*
X2005145D01*
X2005145D02*
X2006108Y1526359D01*
X2006108D02*
X2021377D01*
X2021377D02*
X2025210Y1522526D01*
X2025210D02*
X2032822D01*
X2032822D02*
X2032944Y1522647D01*
X2032944D02*
X2036824D01*
X2036824D02*
X2039150Y1520322D01*
X2039150D02*
Y1519172D01*
X2039150D02*
X2041475Y1516847D01*
X2041475D02*
X2054712D01*
X2054712D02*
X2054962Y1517097D01*
X2054962D02*
X2068600D01*
X1982852Y1489448D02*
G03X1983881Y1489028I1029J1050D01*
G01X1983881D02*
G03X1982852Y1488608I0J-1468D01*
G01X1982970Y1489152D02*
G03X1983881Y1489028I911J3283D01*
G01X1983881D02*
G03X1982970Y1488905I0J-3405D01*
G01X2022791Y1489930D02*
G03X2023221Y1490955I-1039J1040D01*
G01X2023815Y1490361D02*
G03X2022791Y1489930I15J-1469D01*
G01X2022791D02*
G03X2023347Y1490662I-2408J2409D01*
G01X2023522Y1490486D02*
G03X2022791Y1489930I1677J-2963D01*
G01X1982231Y1489028D02*
X1986449D01*
X1986449D02*
X1986667Y1489247D01*
X1986667D02*
X1995151D01*
X1995151D02*
X1998562Y1492658D01*
X1998562D02*
X2002849D01*
X2002849D02*
X2004161Y1491347D01*
X2004161D02*
X2005610D01*
X2005610D02*
X2006313Y1492050D01*
X2008136*
X2008136D02*
X2010539Y1489647D01*
X2010539D02*
X2018278D01*
X2018278D02*
X2019099Y1488826D01*
X2019099D02*
X2021381D01*
X2021381D02*
X2022270Y1489714D01*
X2022574*
X2022574D02*
X2023957Y1491097D01*
X2022450Y1532897D02*
G03X2023478Y1533317I0J1470D01*
G01Y1532477D02*
G03X2022450Y1532897I-1028J-1049D01*
G01X2022450D02*
G03X2023360Y1533021I0J3407D01*
G01Y1532773D02*
G03X2022450Y1532897I-910J-3281D01*
G01X1978000Y1529397D02*
X1978100Y1529296D01*
X1978100D02*
X1979408Y1530605D01*
X1979408D02*
X1980127D01*
X1984569Y1535047*
X1984569D02*
X1990376D01*
X1990376D02*
X1992552Y1532871D01*
X1992552D02*
X2013557D01*
X2014233Y1533547*
X2014233D02*
X2020335D01*
X2020335D02*
X2020985Y1532897D01*
X2020985D02*
X2024100D01*
X1998971Y1535585D02*
G03X2000000Y1535165I1029J1050D01*
G01X2000000D02*
G03X1998971Y1534745I0J-1469D01*
G01X1999089Y1535289D02*
G03X2000000Y1535165I911J3283D01*
G01X2000000D02*
G03X1999089Y1535041I0J-3406D01*
G01X2030687Y1537934D02*
G03X2031117Y1538958I-1039J1039D01*
G01X2031711Y1538364D02*
G03X2030687Y1537934I15J-1468D01*
X2031243Y1538665I-2408J2409*
G01X2031418Y1538490D02*
G03X2030687Y1537934I1677J-2964D01*
G01X1998350Y1535165D02*
X2001625D01*
X2001625D02*
X2002919Y1533871D01*
X2002919D02*
X2009501D01*
X2012677Y1537047*
X2012677D02*
X2019585D01*
X2019585D02*
X2020985Y1535647D01*
X2020985D02*
X2028400D01*
X2028400D02*
X2031853Y1539101D01*
X1985821Y1545517D02*
G03X1986850Y1545097I1029J1050D01*
G01X1986850D02*
G03X1985821Y1544677I0J-1469D01*
G01X1985939Y1545221D02*
G03X1986850Y1545097I911J3283D01*
G01X1986850D02*
G03X1985939Y1544973I0J-3405D01*
G01X2018260Y1543872D02*
G03X2019289Y1544292I0J1470D01*
G01Y1543452D02*
G03X2018260Y1543872I-1028J-1048D01*
G01X2018260D02*
G03X2019171Y1543996I0J3407D01*
G01Y1543748D02*
G03X2018260Y1543872I-910J-3281D01*
G01X1985200Y1545097D02*
X1987137D01*
X1987137D02*
X1988887Y1543347D01*
X1988887D02*
X1995280D01*
X1995280D02*
X1995364Y1543431D01*
X1995364D02*
X2008400D01*
X2008400D02*
X2009066Y1544097D01*
X2009066D02*
X2015580D01*
X2015580D02*
X2015805Y1543872D01*
X2015805D02*
X2019910D01*
X1990221Y1549617D02*
G03X1991250Y1549197I1029J1050D01*
G01X1991250D02*
G03X1990221Y1548777I0J-1469D01*
G01X1990339Y1549321D02*
G03X1991250Y1549197I911J3283D01*
G01X1991250D02*
G03X1990339Y1549073I0J-3405D01*
G01X2021050Y1549697D02*
G03X2022078Y1550117I0J1470D01*
G01Y1549277D02*
G03X2021050Y1549697I-1028J-1049D01*
G01X2021050D02*
G03X2021960Y1549821I0J3407D01*
G01Y1549573D02*
G03X2021050Y1549697I-910J-3281D01*
G01X1989600Y1549197D02*
X1994781D01*
X1994781D02*
X1995761Y1550177D01*
X2004665*
X2006274Y1548567*
X2006274D02*
X2015830D01*
X2015830D02*
X2016385Y1549122D01*
X2016385D02*
X2020262D01*
X2020262D02*
X2020837Y1549697D01*
X2020837D02*
X2022700D01*
X1977942Y1549633D02*
G03X1978966Y1550064I-14J1470D01*
G01X1978966D02*
G03X1978536Y1549040I1039J-1038D01*
G01X1978235Y1549508D02*
G03X1978966Y1550064I-1677J2965D01*
G01X1978966D02*
G03X1978410Y1549333I2409J-2408D01*
G01X1996433Y1556330D02*
G03X1996863Y1557355I-1038J1040D01*
G01X1997457Y1556761D02*
G03X1996433Y1556330I15J-1469D01*
G01X1996433D02*
G03X1996989Y1557062I-2408J2409D01*
G01X1997164Y1556886D02*
G03X1996433Y1556330I1678J-2963D01*
G01X1977800Y1548897D02*
X1980095Y1551193D01*
X1980095D02*
X1985770D01*
X1985770D02*
X1987400Y1552822D01*
X1987400D02*
Y1553572D01*
X1987400D02*
X1988925Y1555097D01*
X1988925D02*
X1995200D01*
X1995200D02*
X1997600Y1557497D01*
X2073350Y1517697D02*
Y1516972D01*
X1860821Y1568717D02*
G03X1861850Y1568297I1029J1050D01*
G01X1861850D02*
G03X1860821Y1567877I0J-1469D01*
G01X1860939Y1568421D02*
G03X1861850Y1568297I911J3283D01*
G01X1861850D02*
G03X1860939Y1568173I0J-3405D01*
G01X1996050Y1568197D02*
G03X1997078Y1568617I0J1470D01*
G01Y1567777D02*
G03X1996050Y1568197I-1028J-1049D01*
G01X1996050D02*
G03X1996960Y1568321I0J3407D01*
G01Y1568073D02*
G03X1996050Y1568197I-910J-3281D01*
G01X1860200Y1568297D02*
X1978926D01*
X1978926D02*
X1979976Y1567247D01*
X1979976D02*
X1982732D01*
X1982732D02*
X1983682Y1568197D01*
X1983682D02*
X1997700D01*
X1866721Y1566717D02*
G03X1867750Y1566297I1029J1050D01*
G01X1867750D02*
G03X1866721Y1565877I0J-1469D01*
G01X1866839Y1566421D02*
G03X1867750Y1566297I911J3283D01*
G01X1867750D02*
G03X1866839Y1566173I0J-3405D01*
G01X1997850Y1563697D02*
G03X1998878Y1564117I0J1470D01*
G01Y1563277D02*
G03X1997850Y1563697I-1028J-1049D01*
G01X1997850D02*
G03X1998760Y1563821I0J3407D01*
G01Y1563573D02*
G03X1997850Y1563697I-910J-3281D01*
G01X1866100Y1566297D02*
X1889776D01*
X1889776D02*
X1890726Y1567247D01*
X1890726D02*
X1977687D01*
X1977687D02*
X1979574Y1565360D01*
X1979574D02*
Y1564522D01*
X1979574D02*
X1980849Y1563247D01*
X1980849D02*
X1986777D01*
X1986777D02*
X1987227Y1563697D01*
X1987227D02*
X1999500D01*
X1888221Y1600417D02*
G03X1889250Y1599997I1029J1050D01*
G01X1889250D02*
G03X1888221Y1599577I0J-1469D01*
G01X1888339Y1600121D02*
G03X1889250Y1599997I911J3283D01*
G01X1889250D02*
G03X1888339Y1599873I0J-3405D01*
G01X2048550Y1600697D02*
G03X2049578Y1601117I0J1470D01*
G01Y1600277D02*
G03X2048550Y1600697I-1028J-1049D01*
G01X2048550D02*
G03X2049460Y1600821I0J3407D01*
G01Y1600573D02*
G03X2048550Y1600697I-910J-3281D01*
G01X1887600Y1599997D02*
X2047650D01*
X2047650D02*
X2048350Y1600697D01*
X2048350D02*
X2050200D01*
X1862821Y1572617D02*
G03X1863850Y1572197I1029J1050D01*
G01X1863850D02*
G03X1862821Y1571777I0J-1469D01*
G01X1862939Y1572321D02*
G03X1863850Y1572197I911J3283D01*
G01X1863850D02*
G03X1862939Y1572073I0J-3405D01*
G01X1862200Y1572197D02*
X1879292D01*
X1879292D02*
X1886487Y1579393D01*
X1886487D02*
X1968812D01*
X1969107Y1579688*
X1969107D02*
X1987427D01*
X1991298Y1575816*
X1991298D02*
X1992382Y1574284D01*
X1864821Y1570717D02*
G03X1865850Y1570297I1029J1050D01*
G01X1865850D02*
G03X1864821Y1569877I0J-1469D01*
G01X1864939Y1570421D02*
G03X1865850Y1570297I911J3283D01*
G01X1865850D02*
G03X1864939Y1570173I0J-3405D01*
G01X1984705Y1574084D02*
G03X1985813Y1574000I656J1315D01*
G01X1985438Y1573249D02*
G03X1984705Y1574084I-1388J-480D01*
G01X1984705D02*
G03X1985575Y1573788I1520J3048D01*
G01X1985465Y1573566D02*
G03X1984705Y1574084I-2279J-2530D01*
G01X1864200Y1570297D02*
X1949500D01*
X1949500D02*
X1956229Y1577027D01*
X1956229D02*
X1975444D01*
X1975444D02*
X1976106Y1577688D01*
X1980966*
X1984436Y1574218*
X1984436D02*
X1986182Y1573347D01*
X1887942Y1574933D02*
G03X1888966Y1575364I-14J1470D01*
G01X1888966D02*
G03X1888536Y1574340I1039J-1038D01*
G01X1888235Y1574808D02*
G03X1888966Y1575364I-1677J2965D01*
G01X1888966D02*
G03X1888410Y1574633I2409J-2408D01*
G01X1988433Y1576186D02*
G03X1989457Y1575756I1039J1039D01*
G01X1988863Y1575162D02*
G03X1988433Y1576186I-1468J-14D01*
X1989164Y1575630I2409J2409*
G01X1988989Y1575455D02*
G03X1988433Y1576186I-2964J-1677D01*
G01X1887800Y1574197D02*
X1891762Y1578159D01*
X1891762D02*
X1973235D01*
X1973235D02*
X1973763Y1578688D01*
X1973763D02*
X1985931D01*
X1989600Y1575019*
X1910921Y1602217D02*
G03X1911950Y1601797I1029J1050D01*
G01X1911950D02*
G03X1910921Y1601377I0J-1469D01*
G01X1911039Y1601921D02*
G03X1911950Y1601797I911J3283D01*
G01X1911950D02*
G03X1911039Y1601673I0J-3405D01*
G01X2012150Y1601797D02*
G03X2013178Y1602217I0J1470D01*
G01Y1601377D02*
G03X2012150Y1601797I-1028J-1049D01*
G01X2012150D02*
G03X2013060Y1601921I0J3407D01*
G01Y1601673D02*
G03X2012150Y1601797I-910J-3281D01*
G01X1910300D02*
X2013800D01*
X1927658Y1592575D02*
G03X1928687Y1592155I1029J1050D01*
G01X1928687D02*
G03X1927658Y1591735I0J-1469D01*
G01X1927777Y1592279D02*
G03X1928687Y1592155I910J3283D01*
G01X1928687D02*
G03X1927777Y1592031I0J-3405D01*
G01X1927037Y1592155D02*
X1950485D01*
X1950485D02*
X1951805Y1593476D01*
X1951805D02*
X2052880D01*
X2052880D02*
X2073350Y1573006D01*
X2073350D02*
Y1517697D01*
X1903692Y1586443D02*
G03X1904720Y1586023I1028J1050D01*
G01X1904720D02*
G03X1903692Y1585603I0J-1469D01*
G01X1903810Y1586147D02*
G03X1904720Y1586023I910J3283D01*
G01X1904720D02*
G03X1903810Y1585899I0J-3405D01*
G01X2003150Y1586417D02*
G03X2004178Y1586837I0J1470D01*
G01Y1585997D02*
G03X2003150Y1586417I-1028J-1049D01*
X2004060Y1586541I0J3406*
G01Y1586293D02*
G03X2003150Y1586417I-910J-3282D01*
G01X1903070Y1586023D02*
X1919472D01*
X1919472D02*
X1920707Y1584789D01*
X1950662*
X1950662D02*
X1951721Y1585847D01*
X1951721D02*
X1973350D01*
X1973350D02*
X1976598Y1589096D01*
X1976598D02*
X1996526D01*
X1996526D02*
X1999205Y1586417D01*
X2004800*
X1966621Y1584117D02*
G03X1967650Y1583697I1029J1050D01*
G01X1967650D02*
G03X1966621Y1583277I0J-1469D01*
G01X1966739Y1583821D02*
G03X1967650Y1583697I911J3283D01*
G01X1967650D02*
G03X1966739Y1583573I0J-3405D01*
G01X1966000Y1583697D02*
X1971237D01*
X1971237D02*
X1971951Y1582984D01*
X2006154*
X2006154D02*
X2007168Y1583997D01*
X2007168D02*
X2011984D01*
X2011984D02*
X2014482Y1586496D01*
X2014482D02*
X2039488D01*
X1966521Y1565217D02*
G03X1967550Y1564797I1029J1050D01*
G01X1967550D02*
G03X1966521Y1564377I0J-1469D01*
G01X1966639Y1564921D02*
G03X1967550Y1564797I911J3283D01*
G01X1967550D02*
G03X1966639Y1564673I0J-3405D01*
G01X1980512Y1558129D02*
G03X1981577Y1557813I919J1147D01*
G01X1981052Y1557158D02*
G03X1980512Y1558129I-1458J-175D01*
X1981300Y1557656I2129J2658*
G01X1981145Y1557463D02*
G03X1980512Y1558129I-2762J-1992D01*
G01X1965900Y1564797D02*
X1969687D01*
X1969687D02*
X1971487Y1562997D01*
X1971487D02*
X1974330D01*
X1974330D02*
X1976640Y1560687D01*
X1976640D02*
X1977921D01*
X1977921D02*
X1980347Y1558261D01*
X1981800Y1557097*
X1969268Y1575564D02*
G03X1970297Y1575144I1029J1050D01*
G01X1970297D02*
G03X1969268Y1574724I0J-1468D01*
G01X1969386Y1575268D02*
G03X1970297Y1575144I911J3283D01*
G01X1970297D02*
G03X1969386Y1575020I0J-3405D01*
G01X2009833Y1571564D02*
G03X2010857Y1571133I1039J1039D01*
G01X2010263Y1570540D02*
G03X2009833Y1571564I-1468J-14D01*
X2010564Y1571008I2409J2409*
G01X2010389Y1570833D02*
G03X2009833Y1571564I-2964J-1677D01*
G01X1968647Y1575144D02*
X1970984D01*
X1970984D02*
X1970987Y1575147D01*
X1970987D02*
X1976576D01*
X1976576D02*
X1979976Y1571747D01*
X1979976D02*
X1984442D01*
X1984442D02*
X1984592Y1571597D01*
X1984592D02*
X1993635D01*
X1993635D02*
X1997138Y1575100D01*
X1997138D02*
X2006296D01*
X2006296D02*
X2011000Y1570397D01*
X1964700Y1581796D02*
G03X1965728Y1581376I1028J1050D01*
G01X1965728D02*
G03X1964700Y1580956I0J-1469D01*
G01X1964818Y1581500D02*
G03X1965728Y1581376I910J3282D01*
G01X1965728D02*
G03X1964818Y1581252I0J-3406D01*
G01X2027180Y1578997D02*
G03X2028209Y1579417I0J1470D01*
G01Y1578577D02*
G03X2027180Y1578997I-1028J-1049D01*
G01X2027180D02*
G03X2028091Y1579121I0J3407D01*
G01Y1578873D02*
G03X2027180Y1578997I-910J-3281D01*
G01X1964078Y1581376D02*
X2005877D01*
X2005877D02*
X2008256Y1578997D01*
X2008256D02*
X2028830D01*
X1957836Y1573955D02*
G03X1958266Y1572930I1469J15D01*
G01X1958266D02*
G03X1957242Y1573361I-1038J-1038D01*
G01X1957710Y1573662D02*
G03X1958266Y1572930I2965J1677D01*
G01X1958266D02*
G03X1957535Y1573486I-2408J-2407D01*
G01X2037850Y1572097D02*
G03X2038878Y1572517I0J1470D01*
G01Y1571677D02*
G03X2037850Y1572097I-1028J-1049D01*
G01X2037850D02*
G03X2038760Y1572221I0J3407D01*
G01Y1571973D02*
G03X2037850Y1572097I-910J-3281D01*
G01X1957100Y1574097D02*
X1960450Y1570747D01*
X1960450D02*
X1983164D01*
X1983164D02*
X1983639Y1570272D01*
X1983639D02*
X2003375D01*
X2003375D02*
X2005000Y1568647D01*
X2005000D02*
X2021212D01*
X2021212D02*
X2024662Y1572097D01*
X2024662D02*
X2039500D01*
X1974636Y1564855D02*
G03X1975066Y1563830I1469J15D01*
G01X1975066D02*
G03X1974042Y1564261I-1038J-1038D01*
G01X1974510Y1564562D02*
G03X1975066Y1563830I2965J1677D01*
G01X1975066D02*
G03X1974335Y1564386I-2408J-2407D01*
G01X2029150Y1553197D02*
G03X2030178Y1553617I0J1470D01*
G01Y1552777D02*
G03X2029150Y1553197I-1028J-1049D01*
G01X2029150D02*
G03X2030060Y1553321I0J3407D01*
G01Y1553073D02*
G03X2029150Y1553197I-910J-3281D01*
G01X1973900Y1564997D02*
X1976376Y1562520D01*
X1976376D02*
X1977501D01*
X1977501D02*
X1980975Y1559047D01*
X1980975D02*
X1995375D01*
X1995375D02*
X1995575Y1559247D01*
X1995575D02*
X2000150D01*
X2000150D02*
X2002950Y1556447D01*
X2002950D02*
X2010500D01*
X2010500D02*
X2012100Y1558047D01*
X2012100D02*
X2020962D01*
X2020962D02*
X2025812Y1553197D01*
X2025812D02*
X2030800D01*
X1992370Y1574275D02*
X1992382Y1574284D01*
X2049333Y1567030D02*
G03X2049763Y1568055I-1038J1040D01*
G01X2050357Y1567461D02*
G03X2049333Y1567030I15J-1469D01*
G01X2049333D02*
G03X2049889Y1567762I-2408J2409D01*
G01X2050064Y1567586D02*
G03X2049333Y1567030I1678J-2963D01*
G01X1981574Y1564997D02*
X1981632Y1564939D01*
X1981632D02*
X1982941Y1566247D01*
X1982941D02*
X1983580D01*
X1983580D02*
X1984080Y1566747D01*
X1984080D02*
X1987826D01*
X1987826D02*
X1988126Y1566447D01*
X1988126D02*
X2015454D01*
X2015454D02*
X2016767Y1565134D01*
X2016767D02*
X2039038D01*
X2039038D02*
X2041851Y1567947D01*
X2041851D02*
X2045300D01*
X2045300D02*
X2046600Y1566647D01*
X2046600D02*
X2048950D01*
X2048950D02*
X2050500Y1568197D01*
X2042750Y1562297D02*
G03X2043778Y1562717I0J1470D01*
G01Y1561877D02*
G03X2042750Y1562297I-1028J-1049D01*
G01X2042750D02*
G03X2043660Y1562421I0J3407D01*
G01Y1562173D02*
G03X2042750Y1562297I-910J-3281D01*
G01X1985200Y1560997D02*
X1985258Y1560939D01*
X1986566Y1562247*
X1986566D02*
X1988044D01*
X1988044D02*
X1988494Y1562697D01*
X1988494D02*
X1996125D01*
X1996125D02*
X1996875Y1561947D01*
X1996875D02*
X2021212D01*
X2021212D02*
X2021562Y1562297D01*
X2021562D02*
X2044400D01*
X1985821Y1565417D02*
G03X1986850Y1564997I1029J1050D01*
G01X1986850D02*
G03X1985821Y1564577I0J-1469D01*
G01X1985939Y1565121D02*
G03X1986850Y1564997I911J3283D01*
G01X1986850D02*
G03X1985939Y1564873I0J-3405D01*
G01X2042750Y1566197D02*
G03X2043778Y1566617I0J1470D01*
G01Y1565777D02*
G03X2042750Y1566197I-1028J-1049D01*
G01X2042750D02*
G03X2043660Y1566321I0J3407D01*
G01Y1566073D02*
G03X2042750Y1566197I-910J-3281D01*
G01X1985200Y1564997D02*
X1992687D01*
X1992687D02*
X1993137Y1565447D01*
X1993137D02*
X2007632D01*
X2007632D02*
X2008945Y1564134D01*
X2008945D02*
X2040022D01*
X2040022D02*
X2042085Y1566197D01*
X2042085D02*
X2044400D01*
G54D27*
X1888370Y1490227D03*
X1885900Y1498097D03*
X1874678Y1509697D03*
X1877400Y1487497D03*
X1869750D03*
X1884800D03*
X1846700D03*
X1852257Y1490790D03*
X1862146Y1492994D03*
X1856205Y1493909D03*
X1835142Y1487497D03*
X1874015Y1497851D03*
X1859900Y1495697D03*
X1857900Y1487497D03*
X1867600Y1492597D03*
X1869700Y1497497D03*
X1881300Y1488993D03*
X1850600Y1487497D03*
X1879100Y1510797D03*
X1878163Y1490497D03*
X1874000Y1492697D03*
X1848571Y1489868D03*
X1863000Y1519097D03*
X1866900Y1510797D03*
X1843200Y1488897D03*
X1873000Y1489197D03*
X1845200Y1511397D03*
X1844400Y1493197D03*
X1889432Y1495429D03*
X1870300Y1530897D03*
X1865900Y1515897D03*
X1864100Y1522197D03*
X1903315Y1493427D03*
X1901668Y1538606D03*
X1897892Y1491885D03*
X1946200Y1552997D03*
X1941900Y1517697D03*
X1929800Y1520397D03*
X1940365Y1498097D03*
X1954015Y1549137D03*
X1923500Y1551416D03*
X1954015Y1545200D03*
X1969763Y1553074D03*
X1923971Y1547916D03*
X1944500Y1487484D03*
X1963500Y1487432D03*
X1950599Y1487497D03*
X1957952Y1529452D03*
X1954015Y1533389D03*
X1923938Y1538547D03*
X1954015Y1537197D03*
X1954682Y1506672D03*
X1961889Y1529452D03*
X1939500Y1488911D03*
X1949700Y1493897D03*
X1925249Y1492162D03*
X1931206Y1492166D03*
X1936588Y1491697D03*
X1941800Y1513697D03*
X1938700Y1494297D03*
X1954200Y1525297D03*
X1911028Y1487497D03*
X1958200Y1517497D03*
X1960305Y1491587D03*
X1965300Y1493497D03*
X1936500Y1488697D03*
X1909330Y1503997D03*
X1947832Y1489680D03*
X1907300Y1487497D03*
X1920715Y1490897D03*
X1905300Y1499397D03*
X1929032Y1488874D03*
X1913384Y1490056D03*
X1897636Y1496097D03*
X1957952Y1545297D03*
X1969763Y1549297D03*
X1957952Y1537326D03*
X1912069Y1521005D03*
X1961889Y1537326D03*
X1969763Y1545297D03*
X1961837Y1545253D03*
X1912069Y1537297D03*
X1969763Y1533389D03*
X1957952D03*
X1954015Y1529452D03*
X1961889Y1533389D03*
X1913085Y1556954D03*
X1912677Y1548546D03*
X1969763Y1537326D03*
X1957952Y1549137D03*
X1961889D03*
X1957305Y1493537D03*
X1951500Y1509097D03*
X1916200Y1506897D03*
X1961400Y1494600D03*
X1962887Y1501785D03*
X1958200Y1525497D03*
X1948875Y1506672D03*
X1933532Y1487422D03*
X1969800Y1540897D03*
X1948000Y1497097D03*
X1957900Y1521578D03*
X1946200Y1492997D03*
X1965700Y1529697D03*
X1942400Y1521597D03*
X1950300Y1529497D03*
X1937900Y1537297D03*
X1930601Y1496179D03*
X1946400Y1533397D03*
X1908500Y1491997D03*
X1950300Y1537297D03*
X1923028Y1488726D03*
X1901800Y1498897D03*
X1926195Y1531251D03*
X1924000Y1497662D03*
X1942500Y1537297D03*
X1920028Y1487497D03*
X1950300Y1517597D03*
X1945800D03*
X1950300Y1533397D03*
X1915028Y1487497D03*
X1946100Y1536997D03*
X1933805Y1493864D03*
X1946200Y1521797D03*
X1893000Y1516797D03*
X1928667Y1493870D03*
X1934330Y1537326D03*
X1902800Y1524597D03*
X1942100Y1525497D03*
X1942400Y1533397D03*
X1934520Y1497364D03*
X1917800Y1529097D03*
X1949700Y1513697D03*
X1946000Y1529397D03*
X1931800Y1543197D03*
X1942500Y1529397D03*
X1946500Y1525497D03*
X1939671Y1507026D03*
X1950300Y1521597D03*
X1890200Y1487697D03*
X1922700Y1529797D03*
X1921000Y1496397D03*
X1966100Y1541197D03*
X1954100Y1493497D03*
X1969900Y1513597D03*
X1962200Y1504597D03*
X1962100Y1525497D03*
X1964700Y1504922D03*
X1969200Y1503997D03*
X1965385Y1490497D03*
X1959000Y1487497D03*
X1967371Y1497144D03*
X1969929Y1500367D03*
X1955111Y1489543D03*
X1956500Y1509197D03*
X1965800Y1537697D03*
X1969231Y1487497D03*
X1895300Y1492497D03*
X1967018Y1508178D03*
X1929000Y1560297D03*
X1950100Y1549097D03*
X1897600Y1541697D03*
X1949700Y1545197D03*
X1911600Y1534297D03*
X1946400Y1541197D03*
X1933924Y1546022D03*
X1965600Y1556997D03*
X1934031Y1553766D03*
X1919500Y1550597D03*
X1912400Y1542797D03*
X1904400Y1536597D03*
X1946300Y1549397D03*
X1916300Y1548797D03*
X1950000Y1553097D03*
X1911600Y1554197D03*
X1954300Y1552997D03*
X1950676Y1497973D03*
X1965900Y1552797D03*
X1985800Y1533297D03*
X1973700Y1553074D03*
X2005500Y1558197D03*
X2004882Y1545197D03*
X1977637Y1545303D03*
X1992596Y1495273D03*
X2049488Y1553267D03*
X1992400Y1487497D03*
X2048500Y1523897D03*
X1974616Y1489730D03*
X1985153Y1494207D03*
X2005069Y1535621D03*
X1977637Y1533389D03*
X2036100Y1520897D03*
X2048000Y1555897D03*
X2028000Y1557397D03*
X1971903Y1507677D03*
X2048300Y1521197D03*
X1977637Y1537326D03*
X1973700Y1529452D03*
X2011797Y1522715D03*
X1985700Y1525397D03*
X2019563Y1518833D03*
X1998300Y1522547D03*
X1989700Y1529297D03*
X1981759Y1509811D03*
X2004885Y1493097D03*
X2002625Y1525572D03*
X1989200Y1525497D03*
X2007038Y1490300D03*
X1993700Y1517597D03*
X1994519Y1491444D03*
X1989800Y1517697D03*
X2023327Y1488097D03*
X2010311Y1514236D03*
X1985300Y1517585D03*
X2012314Y1511290D03*
X2017327Y1487497D03*
X2016542Y1520768D03*
X1989300Y1521597D03*
X2014756Y1515211D03*
X2002368Y1498145D03*
X1993800Y1521597D03*
X2005868Y1497097D03*
X1970622Y1495635D03*
X1996400Y1487497D03*
X1990519Y1490997D03*
X1973900Y1513597D03*
X1975403Y1508490D03*
X2001322Y1487432D03*
X1998210Y1489478D03*
X2017000Y1553297D03*
X1972851Y1492914D03*
X1997222Y1497486D03*
X2019901Y1523996D03*
X2045600Y1542497D03*
X2042317Y1489465D03*
X2020457Y1490576D03*
X2009468Y1487414D03*
X2004844Y1487446D03*
X2047096Y1492715D03*
X2034664Y1492397D03*
X2026827Y1487420D03*
X2014986Y1491797D03*
X2037200Y1553297D03*
X2035350Y1510584D03*
X1973803Y1545303D03*
X1973700Y1533389D03*
Y1549303D03*
X2017371Y1535297D03*
X1973804Y1537223D03*
X2045500Y1512338D03*
X1977637Y1553074D03*
X2012600Y1542347D03*
X2001710Y1489908D03*
X2009504Y1493490D03*
X2013868Y1498015D03*
X1996640Y1493566D03*
X1993389Y1513986D03*
X2018600Y1531797D03*
X2037500Y1498097D03*
X2045303Y1522443D03*
X1981500Y1529397D03*
X2040000Y1497097D03*
X2031825Y1534922D03*
X1993600Y1537197D03*
X1988888Y1493685D03*
X1985300Y1537297D03*
X1987400Y1487497D03*
X1973700Y1517497D03*
X2021752Y1507909D03*
X1985400Y1513797D03*
X2012400Y1517097D03*
X1985800Y1521497D03*
X2030600Y1511697D03*
X2021793Y1501754D03*
X1981900Y1513697D03*
X2033266Y1497897D03*
X1977700Y1517597D03*
X2025800Y1499397D03*
X1983694Y1506796D03*
X1977800Y1525397D03*
X2025242Y1540397D03*
X2039250Y1487497D03*
X1977400Y1513697D03*
X1981300Y1521497D03*
Y1517597D03*
X1985700Y1529597D03*
X2034000Y1515497D03*
X2039700Y1538897D03*
X2024300Y1537397D03*
X2005800Y1523797D03*
X1981300Y1525497D03*
X2020096Y1547372D03*
X2010368Y1497421D03*
X2029330Y1502697D03*
X2023214Y1521812D03*
X2023957Y1491097D03*
X1982231Y1489028D03*
X2001700Y1553427D03*
X1986009Y1490907D03*
X1981800Y1557097D03*
X2012120Y1550317D03*
X2039400Y1491497D03*
X1970100Y1521497D03*
X2034346Y1536644D03*
X2027900Y1490897D03*
X1989700Y1545097D03*
X2025000Y1527697D03*
X2030700Y1488897D03*
X1993400Y1545097D03*
X2037300Y1541997D03*
X2017300Y1508497D03*
X2026821Y1525276D03*
X2027468Y1493897D03*
X2024100Y1532897D03*
X1978000Y1529397D03*
X1989500Y1553197D03*
X2033800Y1541397D03*
X2016100Y1495297D03*
X2011100Y1530297D03*
X1976731Y1487497D03*
X1973300Y1556997D03*
X2019524Y1550872D03*
X2024613Y1505297D03*
X1998700Y1553997D03*
X2021742Y1540754D03*
X1981300Y1553097D03*
X2028907Y1540397D03*
X2029113Y1506986D03*
X2027075Y1543515D03*
X2027100Y1510340D03*
X2038071Y1534969D03*
X2030800Y1553197D03*
X2014946Y1524515D03*
X1971731Y1487497D03*
X1997100Y1545197D03*
X2041250Y1542897D03*
X2031853Y1539101D03*
X1998350Y1535165D03*
X1987702Y1509152D03*
X1981653Y1495273D03*
X1998800Y1540665D03*
X1998200Y1512797D03*
X1999640Y1494482D03*
X2019910Y1543872D03*
X1985200Y1545097D03*
X2038937Y1555551D03*
X1981200Y1549097D03*
X2042200Y1518597D03*
X2042578Y1536826D03*
X1989500Y1556997D03*
X2041167Y1523730D03*
X2022700Y1549697D03*
X1989600Y1549197D03*
X1985300Y1553197D03*
X2049714Y1540176D03*
X1998819Y1548427D03*
X1993500Y1557097D03*
X1981800Y1537197D03*
X2049000Y1537097D03*
X2001507Y1546165D03*
X1997600Y1557497D03*
X1977800Y1548897D03*
X1985800Y1557097D03*
X2003148Y1538649D03*
X2017100Y1556297D03*
X1977710Y1557008D03*
X2055210Y1497047D03*
X2050977Y1559838D03*
X2062700Y1552997D03*
X2080763Y1492097D03*
X2075600Y1487497D03*
X2068074Y1489672D03*
X2082411Y1488344D03*
X2061100Y1487497D03*
X2054957Y1490547D03*
X2063200Y1545197D03*
X2062300Y1534597D03*
X2051042Y1534897D03*
X2064189Y1511822D03*
X2070500Y1541997D03*
X2057500Y1512338D03*
X2055984Y1507397D03*
X2068600Y1520597D03*
X2071600Y1517697D03*
X2074900Y1497797D03*
X2080000Y1495097D03*
X2068600Y1517097D03*
X2050900Y1490697D03*
X2065700Y1493797D03*
X2062700Y1530997D03*
X2064600Y1487497D03*
X2066000Y1549197D03*
X2057800Y1489147D03*
X2068000Y1496597D03*
X2051100Y1497497D03*
X2051335Y1542797D03*
X2050100Y1488297D03*
X2061800Y1495897D03*
X2072100Y1487497D03*
X2064121Y1528176D03*
X2054700Y1493547D03*
X2055164Y1487497D03*
X2053000Y1524497D03*
X2059178Y1497518D03*
X2059600Y1523197D03*
X2056100Y1524497D03*
X2054835Y1542797D03*
X2056000Y1534597D03*
X2054500Y1521897D03*
X2057000Y1559838D03*
X2062121Y1521476D03*
X2070500Y1535797D03*
X1875984Y1575397D03*
X1874015Y1585897D03*
X1860200Y1568297D03*
X1866100Y1566297D03*
X1887600Y1599997D03*
X1862200Y1572197D03*
X1864200Y1570297D03*
X1887800Y1574197D03*
X1933800Y1565497D03*
X1950100Y1560697D03*
X1935984Y1586539D03*
X1910300Y1601797D03*
X1927037Y1592155D03*
X1903070Y1586023D03*
X1933015Y1575728D03*
X1969877Y1623397D03*
X1912677Y1564897D03*
X1966000Y1583697D03*
Y1560897D03*
X1924200Y1574397D03*
X1944800Y1575797D03*
X1965900Y1564797D03*
X1968647Y1575144D03*
X1920200Y1572597D03*
X1951100Y1575697D03*
X1969900Y1560797D03*
X1964078Y1581376D03*
X1957100Y1574097D03*
X1942300Y1564897D03*
X1946500Y1560897D03*
X1954200Y1560797D03*
X1957992Y1565104D03*
X1950200Y1564897D03*
X2039488Y1586496D03*
X1978759Y1575938D03*
X1981500Y1560997D03*
X1993279Y1584734D03*
X2013800Y1601797D03*
X2004800Y1586417D03*
X2016050Y1623397D03*
X2024900Y1566884D03*
X2001374Y1623397D03*
X2047500Y1568397D03*
X2038628Y1567769D03*
X2032400Y1566884D03*
X1993500Y1623397D03*
X2009248D03*
X1985625D03*
X1996936Y1586211D03*
X1977751Y1623397D03*
X1975800Y1584997D03*
X1974128Y1591726D03*
X1972200Y1587997D03*
Y1573397D03*
X1998700Y1589397D03*
X1991648Y1587346D03*
X1973700Y1560997D03*
X2011000Y1570397D03*
X1997700Y1568197D03*
X1999500Y1563697D03*
X1973900Y1564997D03*
X1993500Y1560947D03*
X1992370Y1574275D03*
X2028830Y1578997D03*
X1986182Y1573347D03*
X1989600Y1575019D03*
X1985214Y1575915D03*
X1988370Y1584968D03*
X1981574Y1568997D03*
X1982682Y1573497D03*
X2002146Y1573350D03*
X1989700Y1560797D03*
X1999000Y1573019D03*
X1986085Y1586218D03*
X1977574Y1564885D03*
X1981574Y1564997D03*
X2044400Y1562297D03*
X1985200Y1560997D03*
X2039500Y1572097D03*
X2044400Y1566197D03*
X1985200Y1564997D03*
X2030400Y1570197D03*
X2042124Y1574422D03*
X2054000Y1575997D03*
X2052015Y1586397D03*
X2053600Y1568397D03*
X2057984Y1585897D03*
X2050200Y1600697D03*
X2050500Y1568197D03*
X2057800Y1573697D03*
X2064068Y1575729D03*
G54D42*
X1740000Y1727897D02*
Y1675397D01*
Y1727897D02*
X1756363D01*
X1756363D02*
X1761818Y1725397D01*
X1761818D02*
X1763636Y1722897D01*
X1763636D02*
X1765454Y1717897D01*
X1765454D02*
Y1710397D01*
X1765454D02*
X1763636Y1705397D01*
X1763636D02*
X1761818Y1702897D01*
X1761818D02*
X1756363Y1700397D01*
X1756363D02*
X1740000D01*
X1781818Y1727897D02*
Y1675397D01*
Y1727897D02*
X1798181D01*
X1798181D02*
X1803636Y1725397D01*
X1803636D02*
X1805454Y1722897D01*
X1805454D02*
X1807272Y1717897D01*
X1807272D02*
Y1712897D01*
X1807272D02*
X1805454Y1707897D01*
X1805454D02*
X1803636Y1705397D01*
X1803636D02*
X1798181Y1702897D01*
X1798181D02*
X1781818D01*
X1794545D02*
X1807272Y1675397D01*
X1823636Y1727897D02*
Y1675397D01*
Y1727897D02*
X1847272D01*
X1823636Y1702897D02*
X1838181D01*
X1823636Y1675397D02*
X1847272D01*
X1863636Y1727897D02*
Y1675397D01*
X1863636D02*
X1885454D01*
X1901818Y1727897D02*
Y1675397D01*
X1918181Y1727897D02*
Y1675397D01*
Y1727897D02*
X1932727Y1675397D01*
X1947272Y1727897D02*
X1932727Y1675397D01*
X1947272Y1727897D02*
Y1675397D01*
X1963636Y1727897D02*
Y1675397D01*
X1980000Y1727897D02*
Y1675397D01*
Y1727897D02*
X2005454Y1675397D01*
Y1727897D02*
Y1675397D01*
X2036363Y1727897D02*
X2021818Y1675397D01*
X2036363Y1727897D02*
X2050909Y1675397D01*
X2027272Y1692897D02*
X2045454D01*
X2067272Y1727897D02*
Y1675397D01*
Y1727897D02*
X2083636D01*
X2083636D02*
X2089090Y1725397D01*
X2089090D02*
X2090909Y1722897D01*
X2090909D02*
X2092727Y1717897D01*
X2092727D02*
Y1712897D01*
X2092727D02*
X2090909Y1707897D01*
X2090909D02*
X2089090Y1705397D01*
X2089090D02*
X2083636Y1702897D01*
X2083636D02*
X2067272D01*
X2080000D02*
X2092727Y1675397D01*
X2109090Y1727897D02*
X2123636Y1702897D01*
X2123636D02*
Y1675397D01*
X2138181Y1727897D02*
X2123636Y1702897D01*
G54D63*
X2013185Y1606897D03*
X1973814D03*
G54D65*
X1917204Y1610397D03*
X1932795D03*
X1846614D03*
X1862204D03*
X1877795D03*
X1893149D03*
X2057704Y1609897D03*
X2073295D03*
G54D68*
X1837874Y1494019D03*
X2088267D03*
G74*
X0Y0D02*
M02*
