*
*
G04 PowerPCB (Build Number 501.037) generated Gerber (RS-274-X) file*
G04 PC Version=2.1*
*
%IN "83232-A.pcb"*%
*
%MOIN*%
*
%FSLAX35Y35*%
*
*
*
*
G04 PC Standard Apertures*
*
*
G04 Thermal Relief Aperture macro.*
%AMTER*
1,1,$1,0,0*
1,0,$1-$2,0,0*
21,0,$3,$4,0,0,45*
21,0,$3,$4,0,0,135*
%
*
*
G04 Annular Aperture macro.*
%AMANN*
1,1,$1,0,0*
1,0,$2,0,0*
%
*
*
G04 Odd Aperture macro.*
%AMODD*
1,1,$1,0,0*
1,0,$1-0.005,0,0*
%
*
*
G04 PC Custom Aperture Macros*
*
*
*
*
*
*
G04 PC Aperture Table*
*
%ADD010C,0.01*%
%ADD042C,0.05*%
%ADD058C,0.045*%
%ADD059C,0.105*%
%ADD071C,0.04831*%
%ADD072R,0.12311X0.12311*%
%ADD073C,0.12311*%
%ADD075R,0.02272X0.02272*%
%ADD076C,0.07587*%
%ADD077R,0.01563X0.01563*%
*
*
*
*
G04 PC Custom Flashes*
G04 Layer Name 83232-A.pcb - flashes*
%LPD*%
*
*
G04 PC Circuitry*
G04 Layer Name 83232-A.pcb - circuitry*
%LPD*%
*
G54D10*
G01X1830000Y1627877D02*
Y1557011D01*
Y1541263D02*
G75*
G03Y1557011I0J7874D01*
G01Y1541263D02*
Y1470397D01*
X1830000D02*
X1892007D01*
X1892007D02*
Y1484177D01*
X1895944D02*
G03X1892007I-1967J0D01*
G01X1895944D02*
Y1470397D01*
X1895944D02*
X2096141D01*
X2096141D02*
Y1541263D01*
Y1557011D02*
G03Y1541263I0J-7873D01*
G01Y1557011D02*
Y1627877D01*
X2096141D02*
X1830000D01*
X1924933Y1448227D02*
X1924479Y1448852D01*
X1923797Y1449164*
X1923797D02*
X1922888D01*
X1922888D02*
X1922206Y1448852D01*
X1922206D02*
X1921751Y1448227D01*
X1921751D02*
Y1447602D01*
X1921751D02*
X1921979Y1446977D01*
X1922206Y1446664*
X1922206D02*
X1922661Y1446352D01*
X1924024Y1445727*
X1924024D02*
X1924479Y1445414D01*
X1924479D02*
X1924706Y1445102D01*
X1924706D02*
X1924933Y1444477D01*
X1924933D02*
Y1443539D01*
X1924933D02*
X1924479Y1442914D01*
X1924479D02*
X1923797Y1442602D01*
X1922888*
X1922206Y1442914*
X1922206D02*
X1921751Y1443539D01*
X1928342Y1449164D02*
X1927888Y1448852D01*
X1927433Y1448227*
X1927433D02*
X1927206Y1447602D01*
X1927206D02*
X1926979Y1446664D01*
X1926979D02*
Y1445102D01*
X1927206Y1444164*
X1927206D02*
X1927433Y1443539D01*
X1927433D02*
X1927888Y1442914D01*
X1927888D02*
X1928342Y1442602D01*
X1928342D02*
X1929251D01*
X1929251D02*
X1929706Y1442914D01*
X1929706D02*
X1930161Y1443539D01*
X1930161D02*
X1930388Y1444164D01*
X1930388D02*
X1930615Y1445102D01*
X1930615D02*
Y1446664D01*
X1930615D02*
X1930388Y1447602D01*
X1930161Y1448227*
X1929706Y1448852*
X1929706D02*
X1929251Y1449164D01*
X1929251D02*
X1928342D01*
X1932661D02*
Y1442602D01*
X1935388*
X1937433Y1449164D02*
Y1442602D01*
Y1449164D02*
X1939024D01*
X1939024D02*
X1939706Y1448852D01*
X1939706D02*
X1940161Y1448227D01*
X1940388Y1447602*
X1940615Y1446664*
X1940615D02*
Y1445102D01*
X1940615D02*
X1940388Y1444164D01*
X1940388D02*
X1940161Y1443539D01*
X1940161D02*
X1939706Y1442914D01*
X1939706D02*
X1939024Y1442602D01*
X1939024D02*
X1937433D01*
X1942661Y1449164D02*
Y1442602D01*
Y1449164D02*
X1945615D01*
X1942661Y1446039D02*
X1944479D01*
X1942661Y1442602D02*
X1945615D01*
X1947661Y1449164D02*
Y1442602D01*
Y1449164D02*
X1949706D01*
X1949706D02*
X1950388Y1448852D01*
X1950615Y1448539*
X1950615D02*
X1950842Y1447914D01*
X1950842D02*
Y1447289D01*
X1950842D02*
X1950615Y1446664D01*
X1950615D02*
X1950388Y1446352D01*
X1949706Y1446039*
X1949706D02*
X1947661D01*
X1949251D02*
X1950842Y1442602D01*
X1952888Y1449164D02*
Y1442602D01*
Y1449164D02*
X1954706Y1442602D01*
X1956524Y1449164D02*
X1954706Y1442602D01*
X1956524Y1449164D02*
Y1442602D01*
X1960388Y1449164D02*
X1958570Y1442602D01*
X1960388Y1449164D02*
X1962206Y1442602D01*
X1959251Y1444789D02*
X1961524D01*
X1967433Y1448227D02*
X1966979Y1448852D01*
X1966297Y1449164*
X1966297D02*
X1965388D01*
X1965388D02*
X1964706Y1448852D01*
X1964706D02*
X1964251Y1448227D01*
X1964251D02*
Y1447602D01*
X1964251D02*
X1964479Y1446977D01*
X1964706Y1446664*
X1964706D02*
X1965161Y1446352D01*
X1966524Y1445727*
X1966524D02*
X1966979Y1445414D01*
X1966979D02*
X1967206Y1445102D01*
X1967206D02*
X1967433Y1444477D01*
X1967433D02*
Y1443539D01*
X1967433D02*
X1966979Y1442914D01*
X1966979D02*
X1966297Y1442602D01*
X1965388*
X1964706Y1442914*
X1964706D02*
X1964251Y1443539D01*
X1969479Y1449164D02*
Y1442602D01*
X1972661Y1449164D02*
X1969479Y1444789D01*
X1970615Y1446352D02*
X1972661Y1442602D01*
X1978797Y1449164D02*
Y1442602D01*
Y1449164D02*
X1980842D01*
X1980842D02*
X1981524Y1448852D01*
X1981524D02*
X1981751Y1448539D01*
X1981751D02*
X1981979Y1447914D01*
X1981979D02*
Y1447289D01*
X1981979D02*
X1981751Y1446664D01*
X1981751D02*
X1981524Y1446352D01*
X1981524D02*
X1980842Y1446039D01*
X1978797D02*
X1980842D01*
X1980842D02*
X1981524Y1445727D01*
X1981524D02*
X1981751Y1445414D01*
X1981751D02*
X1981979Y1444789D01*
X1981979D02*
Y1443852D01*
X1981751Y1443227*
X1981751D02*
X1981524Y1442914D01*
X1981524D02*
X1980842Y1442602D01*
X1980842D02*
X1978797D01*
X1985388Y1449164D02*
X1984933Y1448852D01*
X1984933D02*
X1984479Y1448227D01*
X1984251Y1447602*
X1984251D02*
X1984024Y1446664D01*
X1984024D02*
Y1445102D01*
X1984024D02*
X1984251Y1444164D01*
X1984251D02*
X1984479Y1443539D01*
X1984479D02*
X1984933Y1442914D01*
X1984933D02*
X1985388Y1442602D01*
X1986297*
X1986751Y1442914*
X1986751D02*
X1987206Y1443539D01*
X1987206D02*
X1987433Y1444164D01*
X1987433D02*
X1987661Y1445102D01*
Y1446664*
X1987661D02*
X1987433Y1447602D01*
X1987433D02*
X1987206Y1448227D01*
X1987206D02*
X1986751Y1448852D01*
X1986751D02*
X1986297Y1449164D01*
X1986297D02*
X1985388D01*
X1991297D02*
Y1442602D01*
X1989706Y1449164D02*
X1992888D01*
X1996524D02*
Y1442602D01*
X1994933Y1449164D02*
X1998115D01*
X2001524D02*
X2001070Y1448852D01*
X2000615Y1448227*
X2000615D02*
X2000388Y1447602D01*
X2000161Y1446664*
X2000161D02*
Y1445102D01*
X2000388Y1444164*
X2000388D02*
X2000615Y1443539D01*
X2000615D02*
X2001070Y1442914D01*
X2001070D02*
X2001524Y1442602D01*
X2001524D02*
X2002433D01*
X2002433D02*
X2002888Y1442914D01*
X2002888D02*
X2003342Y1443539D01*
X2003342D02*
X2003570Y1444164D01*
X2003570D02*
X2003797Y1445102D01*
Y1446664*
X2003797D02*
X2003570Y1447602D01*
X2003342Y1448227*
X2003342D02*
X2002888Y1448852D01*
X2002433Y1449164*
X2002433D02*
X2001524D01*
X2005842D02*
Y1442602D01*
Y1449164D02*
X2007661Y1442602D01*
X2009479Y1449164D02*
X2007661Y1442602D01*
X2009479Y1449164D02*
Y1442602D01*
G54D42*
X1740000Y1727897D02*
Y1675397D01*
Y1727897D02*
X1756363D01*
X1756363D02*
X1761818Y1725397D01*
X1761818D02*
X1763636Y1722897D01*
X1763636D02*
X1765454Y1717897D01*
X1765454D02*
Y1710397D01*
X1765454D02*
X1763636Y1705397D01*
X1763636D02*
X1761818Y1702897D01*
X1761818D02*
X1756363Y1700397D01*
X1756363D02*
X1740000D01*
X1781818Y1727897D02*
Y1675397D01*
Y1727897D02*
X1798181D01*
X1798181D02*
X1803636Y1725397D01*
X1803636D02*
X1805454Y1722897D01*
X1805454D02*
X1807272Y1717897D01*
X1807272D02*
Y1712897D01*
X1807272D02*
X1805454Y1707897D01*
X1805454D02*
X1803636Y1705397D01*
X1803636D02*
X1798181Y1702897D01*
X1798181D02*
X1781818D01*
X1794545D02*
X1807272Y1675397D01*
X1823636Y1727897D02*
Y1675397D01*
Y1727897D02*
X1847272D01*
X1823636Y1702897D02*
X1838181D01*
X1823636Y1675397D02*
X1847272D01*
X1863636Y1727897D02*
Y1675397D01*
X1863636D02*
X1885454D01*
X1901818Y1727897D02*
Y1675397D01*
X1918181Y1727897D02*
Y1675397D01*
Y1727897D02*
X1932727Y1675397D01*
X1947272Y1727897D02*
X1932727Y1675397D01*
X1947272Y1727897D02*
Y1675397D01*
X1963636Y1727897D02*
Y1675397D01*
X1980000Y1727897D02*
Y1675397D01*
Y1727897D02*
X2005454Y1675397D01*
Y1727897D02*
Y1675397D01*
X2036363Y1727897D02*
X2021818Y1675397D01*
X2036363Y1727897D02*
X2050909Y1675397D01*
X2027272Y1692897D02*
X2045454D01*
X2067272Y1727897D02*
Y1675397D01*
Y1727897D02*
X2083636D01*
X2083636D02*
X2089090Y1725397D01*
X2089090D02*
X2090909Y1722897D01*
X2090909D02*
X2092727Y1717897D01*
X2092727D02*
Y1712897D01*
X2092727D02*
X2090909Y1707897D01*
X2090909D02*
X2089090Y1705397D01*
X2089090D02*
X2083636Y1702897D01*
X2083636D02*
X2067272D01*
X2080000D02*
X2092727Y1675397D01*
X2109090Y1727897D02*
X2123636Y1702897D01*
X2123636D02*
Y1675397D01*
X2138181Y1727897D02*
X2123636Y1702897D01*
G54D58*
X1840000Y1571397D03*
X2037500Y1616397D03*
X2087500Y1518897D03*
G54D59*
X1840000Y1571397D03*
X2037500Y1616397D03*
X2087500Y1518897D03*
G54D71*
X2013185Y1606897D03*
X1973814D03*
G54D72*
X1917204Y1610397D03*
X1846614D03*
X2057704Y1609897D03*
G54D73*
X1932795Y1610397D03*
X1862204D03*
X1877795D03*
X1893149D03*
X2073295Y1609897D03*
G54D75*
X1839645Y1472267D02*
Y1479551D01*
X1842007Y1472267D02*
Y1479551D01*
X1844370Y1472267D02*
Y1479551D01*
X1846732Y1472267D02*
Y1479551D01*
X1849094Y1472267D02*
Y1479551D01*
X1851456Y1472267D02*
Y1479551D01*
X1853818Y1472267D02*
Y1479551D01*
X1856181Y1472267D02*
Y1479551D01*
X1858543Y1472267D02*
Y1479551D01*
X1860905Y1472267D02*
Y1479551D01*
X1863267Y1472267D02*
Y1479551D01*
X1865629Y1472267D02*
Y1479551D01*
X1867992Y1472267D02*
Y1479551D01*
X1870354Y1472267D02*
Y1479551D01*
X1872716Y1472267D02*
Y1479551D01*
X1875078Y1472267D02*
Y1479551D01*
X1877440Y1472267D02*
Y1479551D01*
X1879803Y1472267D02*
Y1479551D01*
X1882165Y1472267D02*
Y1479551D01*
X1884527Y1472267D02*
Y1479551D01*
X1901062Y1472267D02*
Y1479551D01*
X1903425Y1472267D02*
Y1479551D01*
X1905787Y1472267D02*
Y1479551D01*
X1908149Y1472267D02*
Y1479551D01*
X1910511Y1472267D02*
Y1479551D01*
X1912874Y1472267D02*
Y1479551D01*
X1915236Y1472267D02*
Y1479551D01*
X1917598Y1472267D02*
Y1479551D01*
X1919960Y1472267D02*
Y1479551D01*
X1922322Y1472267D02*
Y1479551D01*
X1924685Y1472267D02*
Y1479551D01*
X1927047Y1472267D02*
Y1479551D01*
X1929409Y1472267D02*
Y1479551D01*
X1931771Y1472267D02*
Y1479551D01*
X1934133Y1472267D02*
Y1479551D01*
X1936496Y1472267D02*
Y1479551D01*
X1938858Y1472267D02*
Y1479551D01*
X1941220Y1472267D02*
Y1479551D01*
X1943582Y1472267D02*
Y1479551D01*
X1945944Y1472267D02*
Y1479551D01*
X1948307Y1472267D02*
Y1479551D01*
X1950669Y1472267D02*
Y1479551D01*
X1953031Y1472267D02*
Y1479551D01*
X1955393Y1472267D02*
Y1479551D01*
X1957755Y1472267D02*
Y1479551D01*
X1960118Y1472267D02*
Y1479551D01*
X1962480Y1472267D02*
Y1479551D01*
X1964842Y1472267D02*
Y1479551D01*
X1967204Y1472267D02*
Y1479551D01*
X1969566Y1472267D02*
Y1479551D01*
X1971929Y1472267D02*
Y1479551D01*
X1974291Y1472267D02*
Y1479551D01*
X1976653Y1472267D02*
Y1479551D01*
X1979015Y1472267D02*
Y1479551D01*
X1981377Y1472267D02*
Y1479551D01*
X1983740Y1472267D02*
Y1479551D01*
X1986102Y1472267D02*
Y1479551D01*
X1988464Y1472267D02*
Y1479551D01*
X1990826Y1472267D02*
Y1479551D01*
X1993188Y1472267D02*
Y1479551D01*
X1995551Y1472267D02*
Y1479551D01*
X1997913Y1472267D02*
Y1479551D01*
X2000275Y1472267D02*
Y1479551D01*
X2002637Y1472267D02*
Y1479551D01*
X2005000Y1472267D02*
Y1479551D01*
X2007362Y1472267D02*
Y1479551D01*
X2009724Y1472267D02*
Y1479551D01*
X2012086Y1472267D02*
Y1479551D01*
X2014448Y1472267D02*
Y1479551D01*
X2016811Y1472267D02*
Y1479551D01*
X2019173Y1472267D02*
Y1479551D01*
X2021535Y1472267D02*
Y1479551D01*
X2023897Y1472267D02*
Y1479551D01*
X2026259Y1472267D02*
Y1479551D01*
X2028622Y1472267D02*
Y1479551D01*
X2030984Y1472267D02*
Y1479551D01*
X2033346Y1472267D02*
Y1479551D01*
X2035708Y1472267D02*
Y1479551D01*
X2038070Y1472267D02*
Y1479551D01*
X2040433Y1472267D02*
Y1479551D01*
X2042795Y1472267D02*
Y1479551D01*
X2045157Y1472267D02*
Y1479551D01*
X2047519Y1472267D02*
Y1479551D01*
X2049881Y1472267D02*
Y1479551D01*
X2052244Y1472267D02*
Y1479551D01*
X2054606Y1472267D02*
Y1479551D01*
X2056968Y1472267D02*
Y1479551D01*
X2059330Y1472267D02*
Y1479551D01*
X2061692Y1472267D02*
Y1479551D01*
X2064055Y1472267D02*
Y1479551D01*
X2066417Y1472267D02*
Y1479551D01*
X2068779Y1472267D02*
Y1479551D01*
X2071141Y1472267D02*
Y1479551D01*
X2073503Y1472267D02*
Y1479551D01*
X2075866Y1472267D02*
Y1479551D01*
X2078228Y1472267D02*
Y1479551D01*
X2080590Y1472267D02*
Y1479551D01*
X2082952Y1472267D02*
Y1479551D01*
X2085314Y1472267D02*
Y1479551D01*
X2087677Y1472267D02*
Y1479551D01*
G54D76*
X1837874Y1494019D03*
X2088267D03*
G54D77*
X1957637Y1500196D02*
Y1504645D01*
X1955669Y1500196D02*
Y1504645D01*
X1953700Y1500196D02*
Y1504645D01*
X1951732Y1500196D02*
Y1504645D01*
X1949763Y1500196D02*
Y1504645D01*
X1947795Y1500196D02*
Y1504645D01*
X1945826Y1500196D02*
Y1504645D01*
X1943858Y1500196D02*
Y1504645D01*
X1941889Y1500196D02*
Y1504645D01*
X1939921Y1500196D02*
Y1504645D01*
X1937952Y1500196D02*
Y1504645D01*
X1935984Y1500196D02*
Y1504645D01*
X1934015Y1500196D02*
Y1504645D01*
X1932047Y1500196D02*
Y1504645D01*
X1930078Y1500196D02*
Y1504645D01*
X1928110Y1500196D02*
Y1504645D01*
X1926141Y1500196D02*
Y1504645D01*
X1924173Y1500196D02*
Y1504645D01*
X1922204Y1500196D02*
Y1504645D01*
X1920236Y1500196D02*
Y1504645D01*
X1918267Y1500196D02*
Y1504645D01*
X1916299Y1500196D02*
Y1504645D01*
X1914330Y1500196D02*
Y1504645D01*
X1912362Y1500196D02*
Y1504645D01*
Y1578149D02*
Y1582598D01*
X1914330Y1578149D02*
Y1582598D01*
X1916299Y1578149D02*
Y1582598D01*
X1918267Y1578149D02*
Y1582598D01*
X1920236Y1578149D02*
Y1582598D01*
X1922204Y1578149D02*
Y1582598D01*
X1924173Y1578149D02*
Y1582598D01*
X1926141Y1578149D02*
Y1582598D01*
X1928110Y1578149D02*
Y1582598D01*
X1930078Y1578149D02*
Y1582598D01*
X1932047Y1578149D02*
Y1582598D01*
X1934015Y1578149D02*
Y1582598D01*
X1935984Y1578149D02*
Y1582598D01*
X1937952Y1578149D02*
Y1582598D01*
X1939921Y1578149D02*
Y1582598D01*
X1941889Y1578149D02*
Y1582598D01*
X1943858Y1578149D02*
Y1582598D01*
X1945826Y1578149D02*
Y1582598D01*
X1947795Y1578149D02*
Y1582598D01*
X1949763Y1578149D02*
Y1582598D01*
X1951732Y1578149D02*
Y1582598D01*
X1953700Y1578149D02*
Y1582598D01*
X1955669Y1578149D02*
Y1582598D01*
X1957637Y1578149D02*
Y1582598D01*
X2032362D02*
Y1578149D01*
X2034330Y1582598D02*
Y1578149D01*
X2036299Y1582598D02*
Y1578149D01*
X2038267Y1582598D02*
Y1578149D01*
X2040236Y1582598D02*
Y1578149D01*
X2042204Y1582598D02*
Y1578149D01*
X2044173Y1582598D02*
Y1578149D01*
X2046141Y1582598D02*
Y1578149D01*
X2048110Y1582598D02*
Y1578149D01*
X2050078Y1582598D02*
Y1578149D01*
X2052047Y1582598D02*
Y1578149D01*
X2054015Y1582598D02*
Y1578149D01*
X2055984Y1582598D02*
Y1578149D01*
X2057952Y1582598D02*
Y1578149D01*
X2059921Y1582598D02*
Y1578149D01*
X2061889Y1582598D02*
Y1578149D01*
X2063858Y1582598D02*
Y1578149D01*
X2065826Y1582598D02*
Y1578149D01*
X2067795Y1582598D02*
Y1578149D01*
X2069763Y1582598D02*
Y1578149D01*
X2071732Y1582598D02*
Y1578149D01*
X2073700Y1582598D02*
Y1578149D01*
X2075669Y1582598D02*
Y1578149D01*
X2077637Y1582598D02*
Y1578149D01*
Y1504645D02*
Y1500196D01*
X2075669Y1504645D02*
Y1500196D01*
X2073700Y1504645D02*
Y1500196D01*
X2071732Y1504645D02*
Y1500196D01*
X2069763Y1504645D02*
Y1500196D01*
X2067795Y1504645D02*
Y1500196D01*
X2065826Y1504645D02*
Y1500196D01*
X2063858Y1504645D02*
Y1500196D01*
X2061889Y1504645D02*
Y1500196D01*
X2059921Y1504645D02*
Y1500196D01*
X2057952Y1504645D02*
Y1500196D01*
X2055984Y1504645D02*
Y1500196D01*
X2054015Y1504645D02*
Y1500196D01*
X2052047Y1504645D02*
Y1500196D01*
X2050078Y1504645D02*
Y1500196D01*
X2048110Y1504645D02*
Y1500196D01*
X2046141Y1504645D02*
Y1500196D01*
X2044173Y1504645D02*
Y1500196D01*
X2042204Y1504645D02*
Y1500196D01*
X2040236Y1504645D02*
Y1500196D01*
X2038267Y1504645D02*
Y1500196D01*
X2036299Y1504645D02*
Y1500196D01*
X2034330Y1504645D02*
Y1500196D01*
X2032362Y1504645D02*
Y1500196D01*
X1897637D02*
Y1504645D01*
X1895669Y1500196D02*
Y1504645D01*
X1893700Y1500196D02*
Y1504645D01*
X1891732Y1500196D02*
Y1504645D01*
X1889763Y1500196D02*
Y1504645D01*
X1887795Y1500196D02*
Y1504645D01*
X1885826Y1500196D02*
Y1504645D01*
X1883858Y1500196D02*
Y1504645D01*
X1881889Y1500196D02*
Y1504645D01*
X1879921Y1500196D02*
Y1504645D01*
X1877952Y1500196D02*
Y1504645D01*
X1875984Y1500196D02*
Y1504645D01*
X1874015Y1500196D02*
Y1504645D01*
X1872047Y1500196D02*
Y1504645D01*
X1870078Y1500196D02*
Y1504645D01*
X1868110Y1500196D02*
Y1504645D01*
X1866141Y1500196D02*
Y1504645D01*
X1864173Y1500196D02*
Y1504645D01*
X1862204Y1500196D02*
Y1504645D01*
X1860236Y1500196D02*
Y1504645D01*
X1858267Y1500196D02*
Y1504645D01*
X1856299Y1500196D02*
Y1504645D01*
X1854330Y1500196D02*
Y1504645D01*
X1852362Y1500196D02*
Y1504645D01*
Y1578149D02*
Y1582598D01*
X1854330Y1578149D02*
Y1582598D01*
X1856299Y1578149D02*
Y1582598D01*
X1858267Y1578149D02*
Y1582598D01*
X1860236Y1578149D02*
Y1582598D01*
X1862204Y1578149D02*
Y1582598D01*
X1864173Y1578149D02*
Y1582598D01*
X1866141Y1578149D02*
Y1582598D01*
X1868110Y1578149D02*
Y1582598D01*
X1870078Y1578149D02*
Y1582598D01*
X1872047Y1578149D02*
Y1582598D01*
X1874015Y1578149D02*
Y1582598D01*
X1875984Y1578149D02*
Y1582598D01*
X1877952Y1578149D02*
Y1582598D01*
X1879921Y1578149D02*
Y1582598D01*
X1881889Y1578149D02*
Y1582598D01*
X1883858Y1578149D02*
Y1582598D01*
X1885826Y1578149D02*
Y1582598D01*
X1887795Y1578149D02*
Y1582598D01*
X1889763Y1578149D02*
Y1582598D01*
X1891732Y1578149D02*
Y1582598D01*
X1893700Y1578149D02*
Y1582598D01*
X1895669Y1578149D02*
Y1582598D01*
X1897637Y1578149D02*
Y1582598D01*
X1972362D02*
Y1578149D01*
X1974330Y1582598D02*
Y1578149D01*
X1976299Y1582598D02*
Y1578149D01*
X1978267Y1582598D02*
Y1578149D01*
X1980236Y1582598D02*
Y1578149D01*
X1982204Y1582598D02*
Y1578149D01*
X1984173Y1582598D02*
Y1578149D01*
X1986141Y1582598D02*
Y1578149D01*
X1988110Y1582598D02*
Y1578149D01*
X1990078Y1582598D02*
Y1578149D01*
X1992047Y1582598D02*
Y1578149D01*
X1994015Y1582598D02*
Y1578149D01*
X1995984Y1582598D02*
Y1578149D01*
X1997952Y1582598D02*
Y1578149D01*
X1999921Y1582598D02*
Y1578149D01*
X2001889Y1582598D02*
Y1578149D01*
X2003858Y1582598D02*
Y1578149D01*
X2005826Y1582598D02*
Y1578149D01*
X2007795Y1582598D02*
Y1578149D01*
X2009763Y1582598D02*
Y1578149D01*
X2011732Y1582598D02*
Y1578149D01*
X2013700Y1582598D02*
Y1578149D01*
X2015669Y1582598D02*
Y1578149D01*
X2017637Y1582598D02*
Y1578149D01*
Y1504645D02*
Y1500196D01*
X2015669Y1504645D02*
Y1500196D01*
X2013700Y1504645D02*
Y1500196D01*
X2011732Y1504645D02*
Y1500196D01*
X2009763Y1504645D02*
Y1500196D01*
X2007795Y1504645D02*
Y1500196D01*
X2005826Y1504645D02*
Y1500196D01*
X2003858Y1504645D02*
Y1500196D01*
X2001889Y1504645D02*
Y1500196D01*
X1999921Y1504645D02*
Y1500196D01*
X1997952Y1504645D02*
Y1500196D01*
X1995984Y1504645D02*
Y1500196D01*
X1994015Y1504645D02*
Y1500196D01*
X1992047Y1504645D02*
Y1500196D01*
X1990078Y1504645D02*
Y1500196D01*
X1988110Y1504645D02*
Y1500196D01*
X1986141Y1504645D02*
Y1500196D01*
X1984173Y1504645D02*
Y1500196D01*
X1982204Y1504645D02*
Y1500196D01*
X1980236Y1504645D02*
Y1500196D01*
X1978267Y1504645D02*
Y1500196D01*
X1976299Y1504645D02*
Y1500196D01*
X1974330Y1504645D02*
Y1500196D01*
X1972362Y1504645D02*
Y1500196D01*
G74*
X0Y0D02*
M02*
