*
*
G04 PowerPCB (Build Number 501.037) generated Gerber (RS-274-X) file*
G04 PC Version=2.1*
*
%IN "83232-A.pcb"*%
*
%MOIN*%
*
%FSLAX35Y35*%
*
*
*
*
G04 PC Standard Apertures*
*
*
G04 Thermal Relief Aperture macro.*
%AMTER*
1,1,$1,0,0*
1,0,$1-$2,0,0*
21,0,$3,$4,0,0,45*
21,0,$3,$4,0,0,135*
%
*
*
G04 Annular Aperture macro.*
%AMANN*
1,1,$1,0,0*
1,0,$2,0,0*
%
*
*
G04 Odd Aperture macro.*
%AMODD*
1,1,$1,0,0*
1,0,$1-0.005,0,0*
%
*
*
G04 PC Custom Aperture Macros*
*
*
*
*
*
*
G04 PC Aperture Table*
*
%ADD010C,0.01*%
%ADD014C,0.005*%
%ADD042C,0.05*%
*
*
*
*
G04 PC Custom Flashes*
G04 Layer Name 83232-A.pcb - flashes*
%LPD*%
*
*
G04 PC Circuitry*
G04 Layer Name 83232-A.pcb - circuitry*
%LPD*%
*
G54D10*
G01X1830000Y1627877D02*
Y1557011D01*
Y1541263D02*
G75*
G03Y1557011I0J7874D01*
G01Y1541263D02*
Y1470397D01*
X1830000D02*
X1892007D01*
X1892007D02*
Y1484177D01*
X1895944D02*
G03X1892007I-1967J0D01*
G01X1895944D02*
Y1470397D01*
X1895944D02*
X2096141D01*
X2096141D02*
Y1541263D01*
Y1557011D02*
G03Y1541263I0J-7873D01*
G01Y1557011D02*
Y1627877D01*
X2096141D02*
X1830000D01*
X1924933Y1448227D02*
X1924479Y1448852D01*
X1923797Y1449164*
X1923797D02*
X1922888D01*
X1922888D02*
X1922206Y1448852D01*
X1922206D02*
X1921751Y1448227D01*
X1921751D02*
Y1447602D01*
X1921751D02*
X1921979Y1446977D01*
X1922206Y1446664*
X1922206D02*
X1922661Y1446352D01*
X1924024Y1445727*
X1924024D02*
X1924479Y1445414D01*
X1924479D02*
X1924706Y1445102D01*
X1924706D02*
X1924933Y1444477D01*
X1924933D02*
Y1443539D01*
X1924933D02*
X1924479Y1442914D01*
X1924479D02*
X1923797Y1442602D01*
X1922888*
X1922206Y1442914*
X1922206D02*
X1921751Y1443539D01*
X1926979Y1449164D02*
Y1442602D01*
X1929024Y1449164D02*
Y1442602D01*
X1929024D02*
X1931751D01*
X1933797Y1449164D02*
Y1442602D01*
X1936979Y1449164D02*
X1933797Y1444789D01*
X1934933Y1446352D02*
X1936979Y1442602D01*
X1942206Y1448227D02*
X1941751Y1448852D01*
X1941751D02*
X1941070Y1449164D01*
X1941070D02*
X1940161D01*
X1940161D02*
X1939479Y1448852D01*
X1939024Y1448227*
X1939024D02*
Y1447602D01*
X1939024D02*
X1939251Y1446977D01*
X1939251D02*
X1939479Y1446664D01*
X1939479D02*
X1939933Y1446352D01*
X1939933D02*
X1941297Y1445727D01*
X1941751Y1445414*
X1941751D02*
X1941979Y1445102D01*
X1942206Y1444477*
X1942206D02*
Y1443539D01*
X1942206D02*
X1941751Y1442914D01*
X1941751D02*
X1941070Y1442602D01*
X1940161*
X1939479Y1442914*
X1939479D02*
X1939024Y1443539D01*
X1947661Y1447602D02*
X1947433Y1448227D01*
X1947433D02*
X1946979Y1448852D01*
X1946524Y1449164*
X1946524D02*
X1945615D01*
X1945615D02*
X1945161Y1448852D01*
X1944706Y1448227*
X1944706D02*
X1944479Y1447602D01*
X1944251Y1446664*
X1944251D02*
Y1445102D01*
X1944251D02*
X1944479Y1444164D01*
X1944479D02*
X1944706Y1443539D01*
X1944706D02*
X1945161Y1442914D01*
X1945161D02*
X1945615Y1442602D01*
X1945615D02*
X1946524D01*
X1946524D02*
X1946979Y1442914D01*
X1946979D02*
X1947433Y1443539D01*
X1947433D02*
X1947661Y1444164D01*
X1949706Y1449164D02*
Y1442602D01*
Y1449164D02*
X1951751D01*
X1951751D02*
X1952433Y1448852D01*
X1952433D02*
X1952661Y1448539D01*
X1952661D02*
X1952888Y1447914D01*
X1952888D02*
Y1447289D01*
X1952888D02*
X1952661Y1446664D01*
X1952661D02*
X1952433Y1446352D01*
X1952433D02*
X1951751Y1446039D01*
X1951751D02*
X1949706D01*
X1951297D02*
X1952888Y1442602D01*
X1954933Y1449164D02*
Y1442602D01*
Y1449164D02*
X1957888D01*
X1954933Y1446039D02*
X1956751D01*
X1954933Y1442602D02*
X1957888D01*
X1959933Y1449164D02*
Y1442602D01*
Y1449164D02*
X1962888D01*
X1959933Y1446039D02*
X1961751D01*
X1959933Y1442602D02*
X1962888D01*
X1964933Y1449164D02*
Y1442602D01*
Y1449164D02*
X1968115Y1442602D01*
Y1449164D02*
Y1442602D01*
X1974251Y1449164D02*
Y1442602D01*
Y1449164D02*
X1976297D01*
X1976297D02*
X1976979Y1448852D01*
X1977206Y1448539*
X1977206D02*
X1977433Y1447914D01*
X1977433D02*
Y1447289D01*
X1977433D02*
X1977206Y1446664D01*
X1977206D02*
X1976979Y1446352D01*
X1976297Y1446039*
X1974251D02*
X1976297D01*
X1976297D02*
X1976979Y1445727D01*
X1977206Y1445414*
X1977206D02*
X1977433Y1444789D01*
X1977433D02*
Y1443852D01*
X1977433D02*
X1977206Y1443227D01*
X1977206D02*
X1976979Y1442914D01*
X1976979D02*
X1976297Y1442602D01*
X1974251*
X1980842Y1449164D02*
X1980388Y1448852D01*
X1979933Y1448227*
X1979933D02*
X1979706Y1447602D01*
X1979706D02*
X1979479Y1446664D01*
X1979479D02*
Y1445102D01*
X1979706Y1444164*
X1979706D02*
X1979933Y1443539D01*
X1979933D02*
X1980388Y1442914D01*
X1980388D02*
X1980842Y1442602D01*
X1980842D02*
X1981751D01*
X1981751D02*
X1982206Y1442914D01*
X1982206D02*
X1982661Y1443539D01*
X1982661D02*
X1982888Y1444164D01*
X1982888D02*
X1983115Y1445102D01*
X1983115D02*
Y1446664D01*
X1983115D02*
X1982888Y1447602D01*
X1982661Y1448227*
X1982206Y1448852*
X1982206D02*
X1981751Y1449164D01*
X1981751D02*
X1980842D01*
X1986751D02*
Y1442602D01*
X1985161Y1449164D02*
X1988342D01*
X1991979D02*
Y1442602D01*
X1990388Y1449164D02*
X1993570D01*
X1996979D02*
X1996524Y1448852D01*
X1996524D02*
X1996070Y1448227D01*
X1995842Y1447602*
X1995842D02*
X1995615Y1446664D01*
X1995615D02*
Y1445102D01*
X1995615D02*
X1995842Y1444164D01*
X1995842D02*
X1996070Y1443539D01*
X1996070D02*
X1996524Y1442914D01*
X1996524D02*
X1996979Y1442602D01*
X1997888*
X1998342Y1442914*
X1998342D02*
X1998797Y1443539D01*
X1998797D02*
X1999024Y1444164D01*
X1999024D02*
X1999251Y1445102D01*
X1999251D02*
Y1446664D01*
X1999251D02*
X1999024Y1447602D01*
X1999024D02*
X1998797Y1448227D01*
X1998342Y1448852*
X1998342D02*
X1997888Y1449164D01*
X1997888D02*
X1996979D01*
X2001297D02*
Y1442602D01*
Y1449164D02*
X2003115Y1442602D01*
X2004933Y1449164D02*
X2003115Y1442602D01*
X2004933Y1449164D02*
Y1442602D01*
G54D14*
X1959175Y1512066D02*
G03X1959175I-1537D01*
G01X1961574Y1507539D02*
Y1537165D01*
X1961574D02*
X1958252D01*
X1958252D02*
Y1545629D01*
X1958252D02*
X1961574D01*
X1961574D02*
Y1575255D01*
X1961574D02*
X1908425D01*
X1908425D02*
Y1507539D01*
X1961574*
X2033899Y1570728D02*
G03X2033899I-1536D01*
G01X2028425Y1575255D02*
Y1545629D01*
X2028425D02*
X2031747D01*
X2031747D02*
Y1537165D01*
X2028425*
Y1507539*
X2081574*
X2081574D02*
Y1575255D01*
X2081574D02*
X2028425D01*
X1899175Y1512066D02*
G03X1899175I-1537D01*
G01X1901574Y1507539D02*
Y1537165D01*
X1901574D02*
X1898252D01*
X1898252D02*
Y1545629D01*
X1898252D02*
X1901574D01*
X1901574D02*
Y1575255D01*
X1901574D02*
X1848425D01*
X1848425D02*
Y1507539D01*
X1901574*
X1973899Y1570728D02*
G03X1973899I-1536D01*
G01X1968425Y1575255D02*
Y1545629D01*
X1968425D02*
X1971747D01*
X1971747D02*
Y1537165D01*
X1968425*
Y1507539*
X2021574*
X2021574D02*
Y1575255D01*
X2021574D02*
X1968425D01*
X1945217Y1590571D02*
Y1588227D01*
X1945217D02*
X1945103Y1587759D01*
X1945103D02*
X1944876Y1587446D01*
X1944876D02*
X1944535Y1587290D01*
X1944535D02*
X1944308D01*
X1943967Y1587446*
X1943967D02*
X1943740Y1587759D01*
X1943626Y1588227*
X1943626D02*
Y1590571D01*
X1941467D02*
X1942603Y1588384D01*
X1942603D02*
X1940899D01*
X1941467Y1590571D02*
Y1587290D01*
X2034689Y1588622D02*
Y1586278D01*
X2034689D02*
X2034576Y1585809D01*
X2034576D02*
X2034348Y1585497D01*
X2034348D02*
X2034007Y1585340D01*
X2034007D02*
X2033780D01*
X2033780D02*
X2033439Y1585497D01*
X2033439D02*
X2033212Y1585809D01*
X2033212D02*
X2033098Y1586278D01*
X2033098D02*
Y1588622D01*
X2030598D02*
X2031735D01*
X2031848Y1587215*
X2031848D02*
X2031735Y1587372D01*
X2031394Y1587528*
X2031053*
X2030712Y1587372*
X2030712D02*
X2030485Y1587059D01*
X2030485D02*
X2030371Y1586590D01*
X2030371D02*
X2030485Y1586278D01*
X2030598Y1585809*
X2030598D02*
X2030826Y1585497D01*
X2031167Y1585340*
X2031167D02*
X2031507D01*
X2031507D02*
X2031848Y1585497D01*
X2031848D02*
X2031962Y1585653D01*
X2031962D02*
X2032076Y1585965D01*
X1882852Y1589593D02*
Y1587249D01*
X1882852D02*
X1882738Y1586780D01*
X1882738D02*
X1882511Y1586468D01*
X1882511D02*
X1882170Y1586312D01*
X1882170D02*
X1881943D01*
X1881602Y1586468*
X1881375Y1586780*
X1881375D02*
X1881261Y1587249D01*
X1881261D02*
Y1589593D01*
X1878875Y1589124D02*
X1878988Y1589437D01*
X1878988D02*
X1879329Y1589593D01*
X1879329D02*
X1879556D01*
X1879556D02*
X1879897Y1589437D01*
X1879897D02*
X1880125Y1588968D01*
X1880238Y1588187*
X1880238D02*
Y1587405D01*
X1880238D02*
X1880125Y1586780D01*
X1880125D02*
X1879897Y1586468D01*
X1879897D02*
X1879556Y1586312D01*
X1879556D02*
X1879443D01*
X1879102Y1586468*
X1878875Y1586780*
X1878875D02*
X1878761Y1587249D01*
X1878761D02*
Y1587405D01*
X1878761D02*
X1878875Y1587874D01*
X1878875D02*
X1879102Y1588187D01*
X1879443Y1588343*
X1879556*
X1879556D02*
X1879897Y1588187D01*
X1879897D02*
X1880125Y1587874D01*
X1880125D02*
X1880238Y1587405D01*
X1982238Y1590089D02*
Y1587745D01*
X1982238D02*
X1982124Y1587276D01*
X1982124D02*
X1981897Y1586964D01*
X1981897D02*
X1981556Y1586808D01*
X1981556D02*
X1981329D01*
X1980988Y1586964*
X1980988D02*
X1980761Y1587276D01*
X1980761D02*
X1980647Y1587745D01*
X1980647D02*
Y1590089D01*
X1978033D02*
X1979170Y1586808D01*
X1979624Y1590089D02*
X1978033D01*
X1832886Y1489897D02*
Y1490053D01*
X1832886D02*
X1832772Y1490366D01*
X1832772D02*
X1832659Y1490522D01*
X1832659D02*
X1832431Y1490678D01*
X1832431D02*
X1831977D01*
X1831977D02*
X1831750Y1490522D01*
X1831750D02*
X1831636Y1490366D01*
X1831522Y1490053*
X1831522D02*
Y1489741D01*
X1831522D02*
X1831636Y1489428D01*
X1831636D02*
X1831863Y1488960D01*
X1831863D02*
X1833000Y1487397D01*
X1833000D02*
X1831409D01*
X2093886Y1487897D02*
Y1488053D01*
X2093886D02*
X2093772Y1488366D01*
X2093772D02*
X2093659Y1488522D01*
X2093659D02*
X2093431Y1488678D01*
X2093431D02*
X2092977D01*
X2092977D02*
X2092750Y1488522D01*
X2092750D02*
X2092636Y1488366D01*
X2092522Y1488053*
X2092522D02*
Y1487741D01*
X2092522D02*
X2092636Y1487428D01*
X2092636D02*
X2092863Y1486960D01*
X2092863D02*
X2094000Y1485397D01*
X2094000D02*
X2092409D01*
X2090704Y1488678D02*
X2091045Y1488522D01*
X2091045D02*
X2091272Y1488053D01*
X2091272D02*
X2091386Y1487272D01*
X2091386D02*
Y1486803D01*
X2091386D02*
X2091272Y1486022D01*
X2091272D02*
X2091045Y1485553D01*
X2091045D02*
X2090704Y1485397D01*
X2090704D02*
X2090477D01*
X2090477D02*
X2090136Y1485553D01*
X2090136D02*
X2089909Y1486022D01*
X2089909D02*
X2089795Y1486803D01*
X2089795D02*
Y1487272D01*
X2089795D02*
X2089909Y1488053D01*
X2089909D02*
X2090136Y1488522D01*
X2090136D02*
X2090477Y1488678D01*
X2090477D02*
X2090704D01*
X2088090D02*
X2088431Y1488522D01*
X2088431D02*
X2088659Y1488053D01*
X2088659D02*
X2088772Y1487272D01*
X2088772D02*
Y1486803D01*
X2088772D02*
X2088659Y1486022D01*
X2088659D02*
X2088431Y1485553D01*
X2088431D02*
X2088090Y1485397D01*
X2088090D02*
X2087863D01*
X2087863D02*
X2087522Y1485553D01*
X2087522D02*
X2087295Y1486022D01*
X2087295D02*
X2087181Y1486803D01*
X2087181D02*
Y1487272D01*
X2087181D02*
X2087295Y1488053D01*
X2087295D02*
X2087522Y1488522D01*
X2087522D02*
X2087863Y1488678D01*
X2087863D02*
X2088090D01*
G54D42*
X1740000Y1727897D02*
Y1675397D01*
Y1727897D02*
X1756363D01*
X1756363D02*
X1761818Y1725397D01*
X1761818D02*
X1763636Y1722897D01*
X1763636D02*
X1765454Y1717897D01*
X1765454D02*
Y1710397D01*
X1765454D02*
X1763636Y1705397D01*
X1763636D02*
X1761818Y1702897D01*
X1761818D02*
X1756363Y1700397D01*
X1756363D02*
X1740000D01*
X1781818Y1727897D02*
Y1675397D01*
Y1727897D02*
X1798181D01*
X1798181D02*
X1803636Y1725397D01*
X1803636D02*
X1805454Y1722897D01*
X1805454D02*
X1807272Y1717897D01*
X1807272D02*
Y1712897D01*
X1807272D02*
X1805454Y1707897D01*
X1805454D02*
X1803636Y1705397D01*
X1803636D02*
X1798181Y1702897D01*
X1798181D02*
X1781818D01*
X1794545D02*
X1807272Y1675397D01*
X1823636Y1727897D02*
Y1675397D01*
Y1727897D02*
X1847272D01*
X1823636Y1702897D02*
X1838181D01*
X1823636Y1675397D02*
X1847272D01*
X1863636Y1727897D02*
Y1675397D01*
X1863636D02*
X1885454D01*
X1901818Y1727897D02*
Y1675397D01*
X1918181Y1727897D02*
Y1675397D01*
Y1727897D02*
X1932727Y1675397D01*
X1947272Y1727897D02*
X1932727Y1675397D01*
X1947272Y1727897D02*
Y1675397D01*
X1963636Y1727897D02*
Y1675397D01*
X1980000Y1727897D02*
Y1675397D01*
Y1727897D02*
X2005454Y1675397D01*
Y1727897D02*
Y1675397D01*
X2036363Y1727897D02*
X2021818Y1675397D01*
X2036363Y1727897D02*
X2050909Y1675397D01*
X2027272Y1692897D02*
X2045454D01*
X2067272Y1727897D02*
Y1675397D01*
Y1727897D02*
X2083636D01*
X2083636D02*
X2089090Y1725397D01*
X2089090D02*
X2090909Y1722897D01*
X2090909D02*
X2092727Y1717897D01*
X2092727D02*
Y1712897D01*
X2092727D02*
X2090909Y1707897D01*
X2090909D02*
X2089090Y1705397D01*
X2089090D02*
X2083636Y1702897D01*
X2083636D02*
X2067272D01*
X2080000D02*
X2092727Y1675397D01*
X2109090Y1727897D02*
X2123636Y1702897D01*
X2123636D02*
Y1675397D01*
X2138181Y1727897D02*
X2123636Y1702897D01*
G74*
X0Y0D02*
M02*
